<svg xmlns="http://www.w3.org/2000/svg" viewBox="0 0 920 62" width="920" height="62"><path fill="#000000" fill-rule="evenodd" d="M918.18 24.98 C918.18 24.98 918.18 60.94 918.18 60.94 C918.18 60.94 846.26 60.94 846.26 60.94 C846.26 60.94 846.26 48.95 846.26 48.95 C846.26 48.95 906.19 48.95 906.19 48.95 C906.19 48.95 906.19 36.96 906.19 36.96 C906.19 36.96 846.26 36.96 846.26 36.96 C846.26 36.96 846.26 1.00 846.26 1.00 C846.26 1.00 918.18 1.00 918.18 1.00 C918.18 1.00 918.18 12.99 918.18 12.99 C918.18 12.99 858.25 12.99 858.25 12.99 C858.25 12.99 858.25 24.98 858.25 24.98 C858.25 24.98 918.18 24.98 918.18 24.98 Z M822.28 12.99 C822.28 12.99 798.31 12.99 798.31 12.99 C798.31 12.99 798.31 60.94 798.31 60.94 C798.31 60.94 786.32 60.94 786.32 60.94 C786.32 60.94 786.32 12.99 786.32 12.99 C786.32 12.99 762.35 12.99 762.35 12.99 C762.35 12.99 762.35 60.94 762.35 60.94 C762.35 60.94 750.36 60.94 750.36 60.94 C750.36 60.94 750.36 1.00 750.36 1.00 C750.36 1.00 834.27 1.00 834.27 1.00 C834.27 1.00 834.27 60.94 834.27 60.94 C834.27 60.94 822.28 60.94 822.28 60.94 C822.28 60.94 822.28 12.99 822.28 12.99 Z M666.46 1.00 C666.46 1.00 738.38 1.00 738.38 1.00 C738.38 1.00 738.38 12.99 738.38 12.99 C738.38 12.99 678.44 12.99 678.44 12.99 C678.44 12.99 678.44 24.98 678.44 24.98 C678.44 24.98 738.38 24.98 738.38 24.98 C738.38 24.98 738.38 36.96 738.38 36.96 C738.38 36.96 678.44 36.96 678.44 36.96 C678.44 36.96 678.44 48.95 678.44 48.95 C678.44 48.95 738.38 48.95 738.38 48.95 C738.38 48.95 738.38 60.94 738.38 60.94 C738.38 60.94 666.46 60.94 666.46 60.94 C666.46 60.94 666.46 1.00 666.46 1.00 Z M618.51 60.94 C618.51 60.94 606.52 60.94 606.52 60.94 C606.52 60.94 606.52 12.99 606.52 12.99 C606.52 12.99 570.56 12.99 570.56 12.99 C570.56 12.99 570.56 1.00 570.56 1.00 C570.56 1.00 654.47 1.00 654.47 1.00 C654.47 1.00 654.47 12.99 654.47 12.99 C654.47 12.99 618.51 12.99 618.51 12.99 C618.51 12.99 618.51 60.94 618.51 60.94 Z M474.67 48.95 C474.67 48.95 546.59 48.95 546.59 48.95 C546.59 48.95 546.59 36.96 546.59 36.96 C546.59 36.96 474.67 36.96 474.67 36.96 C474.67 36.96 474.67 1.00 474.67 1.00 C474.67 1.00 558.57 1.00 558.57 1.00 C558.57 1.00 558.57 12.99 558.57 12.99 C558.57 12.99 486.65 12.99 486.65 12.99 C486.65 12.99 486.65 24.98 486.65 24.98 C486.65 24.98 558.57 24.98 558.57 24.98 C558.57 24.98 558.57 60.94 558.57 60.94 C558.57 60.94 474.67 60.94 474.67 60.94 C474.67 60.94 474.67 48.95 474.67 48.95 Z M426.72 60.94 C426.72 60.94 414.73 60.94 414.73 60.94 C414.73 60.94 414.73 36.96 414.73 36.96 C414.73 36.96 378.77 36.96 378.77 36.96 C378.77 36.96 378.77 1.00 378.77 1.00 C378.77 1.00 390.76 1.00 390.76 1.00 C390.76 1.00 390.76 24.98 390.76 24.98 C390.76 24.98 450.69 24.98 450.69 24.98 C450.69 24.98 450.69 1.00 450.69 1.00 C450.69 1.00 462.68 1.00 462.68 1.00 C462.68 1.00 462.68 36.96 462.68 36.96 C462.68 36.96 426.72 36.96 426.72 36.96 C426.72 36.96 426.72 60.94 426.72 60.94 Z M282.88 48.95 C282.88 48.95 354.80 48.95 354.80 48.95 C354.80 48.95 354.80 36.96 354.80 36.96 C354.80 36.96 282.88 36.96 282.88 36.96 C282.88 36.96 282.88 1.00 282.88 1.00 C282.88 1.00 366.78 1.00 366.78 1.00 C366.78 1.00 366.78 12.99 366.78 12.99 C366.78 12.99 294.86 12.99 294.86 12.99 C294.86 12.99 294.86 24.98 294.86 24.98 C294.86 24.98 366.78 24.98 366.78 24.98 C366.78 24.98 366.78 60.94 366.78 60.94 C366.78 60.94 282.88 60.94 282.88 60.94 C282.88 60.94 282.88 48.95 282.88 48.95 Z M210.96 24.98 C210.96 24.98 253.26 24.98 253.26 24.98 C253.26 24.98 253.26 36.96 253.26 36.96 C253.26 36.96 210.96 36.96 210.96 36.96 C210.96 36.96 210.96 24.98 210.96 24.98 Z M145.47 24.98 C145.47 24.98 181.84 24.98 181.84 24.98 C181.84 24.98 181.42 60.94 181.42 60.94 C181.42 60.94 97.26 60.94 97.26 60.94 C97.26 60.94 97.69 1.00 97.69 1.00 C97.69 1.00 181.42 1.00 181.42 1.00 C181.42 1.00 181.84 12.99 181.84 12.99 C181.84 12.99 109.53 12.99 109.53 12.99 C109.53 12.99 109.53 48.95 109.53 48.95 C109.53 48.95 168.31 48.95 168.31 48.95 C168.31 48.95 168.73 36.96 168.73 36.96 C168.73 36.96 145.47 36.96 145.47 36.96 C145.47 36.96 145.47 24.98 145.47 24.98 Z M73.16 36.96 C73.16 36.96 13.96 36.96 13.96 36.96 C13.96 36.96 14.09 60.94 14.09 60.94 C14.09 60.94 1.68 60.94 1.68 60.94 C1.68 60.94 1.26 1.00 1.26 1.00 C1.26 1.00 85.56 1.02 85.56 1.02 C85.56 1.02 85.85 60.94 85.85 60.94 C85.85 60.94 73.03 60.51 73.03 60.51 C73.03 60.51 73.16 36.96 73.16 36.96 Z M73.18 12.99 C73.18 12.99 13.80 12.99 13.80 12.99 C13.80 12.99 13.56 24.98 13.56 24.98 C13.56 24.98 73.41 24.98 73.41 24.98 C73.41 24.98 73.18 12.99 73.18 12.99 Z"/></svg>