<svg xmlns="http://www.w3.org/2000/svg" viewBox="0 0 73 952" width="73" height="952"><path fill="#000000" fill-rule="evenodd" d="M71.88 908.47 C71.88 908.47 71.88 950.99 71.88 950.99 C71.88 950.99 1.01 950.99 1.01 950.99 C1.01 950.99 1.01 936.82 1.01 936.82 C1.01 936.82 57.71 936.82 57.71 936.82 C57.71 936.82 57.71 922.64 57.71 922.64 C57.71 922.64 1.01 922.64 1.01 922.64 C1.01 922.64 1.01 880.12 1.01 880.12 C1.01 880.12 71.88 880.12 71.88 880.12 C71.88 880.12 71.88 894.30 71.88 894.30 C71.88 894.30 15.19 894.30 15.19 894.30 C15.19 894.30 15.19 908.47 15.19 908.47 C15.19 908.47 71.88 908.47 71.88 908.47 Z M1.01 851.78 C1.01 851.78 57.71 851.78 57.71 851.78 C57.71 851.78 57.71 809.26 57.71 809.26 C57.71 809.26 15.19 809.26 15.19 809.26 C15.19 809.26 15.19 837.60 15.19 837.60 C15.19 837.60 1.01 837.60 1.01 837.60 C1.01 837.60 1.01 795.08 1.01 795.08 C1.01 795.08 71.88 795.08 71.88 795.08 C71.88 795.08 71.88 865.95 71.88 865.95 C71.88 865.95 1.01 865.95 1.01 865.95 C1.01 865.95 1.01 851.78 1.01 851.78 Z M57.71 724.22 C57.71 724.22 15.19 724.22 15.19 724.22 C15.19 724.22 15.19 780.91 15.19 780.91 C15.19 780.91 1.01 780.91 1.01 780.91 C1.01 780.91 1.01 710.05 1.01 710.05 C1.01 710.05 71.88 710.05 71.88 710.05 C71.88 710.05 71.88 780.91 71.88 780.91 C71.88 780.91 57.71 780.91 57.71 780.91 C57.71 780.91 57.71 724.22 57.71 724.22 Z M1.01 625.01 C1.01 625.01 71.88 625.01 71.88 625.01 C71.88 625.01 71.88 639.18 71.88 639.18 C71.88 639.18 15.19 639.18 15.19 639.18 C15.19 639.18 15.19 653.35 15.19 653.35 C15.19 653.35 71.88 653.35 71.88 653.35 C71.88 653.35 71.88 667.53 71.88 667.53 C71.88 667.53 15.19 667.53 15.19 667.53 C15.19 667.53 15.19 681.70 15.19 681.70 C15.19 681.70 71.88 681.70 71.88 681.70 C71.88 681.70 71.88 695.87 71.88 695.87 C71.88 695.87 1.01 695.87 1.01 695.87 C1.01 695.87 1.01 625.01 1.01 625.01 Z M29.36 610.83 C29.36 610.83 29.36 539.97 29.36 539.97 C29.36 539.97 43.53 539.97 43.53 539.97 C43.53 539.97 43.53 610.83 43.53 610.83 C43.53 610.83 29.36 610.83 29.36 610.83 Z M15.19 525.79 C15.19 525.79 1.01 525.79 1.01 525.79 C1.01 525.79 1.01 454.93 1.01 454.93 C1.01 454.93 71.88 454.93 71.88 454.93 C71.88 454.93 71.88 469.10 71.88 469.10 C71.88 469.10 15.19 469.10 15.19 469.10 C15.19 469.10 15.19 525.79 15.19 525.79 Z M15.19 440.75 C15.19 440.75 1.01 440.75 1.01 440.75 C1.01 440.75 1.01 369.89 1.01 369.89 C1.01 369.89 71.88 369.89 71.88 369.89 C71.88 369.89 71.88 384.06 71.88 384.06 C71.88 384.06 15.19 384.06 15.19 384.06 C15.19 384.06 15.19 398.24 15.19 398.24 C15.19 398.24 71.88 398.24 71.88 398.24 C71.88 398.24 71.88 412.41 71.88 412.41 C71.88 412.41 15.19 412.41 15.19 412.41 C15.19 412.41 15.19 440.75 15.19 440.75 Z M43.53 327.37 C43.53 327.37 29.36 327.37 29.36 327.37 C29.36 327.37 29.36 270.68 29.36 270.68 C29.36 270.68 1.01 270.68 1.01 270.68 C1.01 270.68 1.01 256.50 1.01 256.50 C1.01 256.50 71.88 256.50 71.88 256.50 C71.88 256.50 71.88 270.68 71.88 270.68 C71.88 270.68 43.53 270.68 43.53 270.68 C43.53 270.68 43.53 327.37 43.53 327.37 Z M1.01 228.16 C1.01 228.16 57.71 228.16 57.71 228.16 C57.71 228.16 57.71 213.98 57.71 213.98 C57.71 213.98 1.01 213.98 1.01 213.98 C1.01 213.98 1.01 171.46 1.01 171.46 C1.01 171.46 71.88 171.46 71.88 171.46 C71.88 171.46 71.88 185.64 71.88 185.64 C71.88 185.64 15.19 185.64 15.19 185.64 C15.19 185.64 15.19 199.81 15.19 199.81 C15.19 199.81 71.88 199.81 71.88 199.81 C71.88 199.81 71.88 242.33 71.88 242.33 C71.88 242.33 1.01 242.33 1.01 242.33 C1.01 242.33 1.01 228.16 1.01 228.16 Z M57.71 128.94 C57.71 128.94 15.19 128.94 15.19 128.94 C15.19 128.94 15.19 157.29 15.19 157.29 C15.19 157.29 1.01 157.29 1.01 157.29 C1.01 157.29 1.01 86.42 1.01 86.42 C1.01 86.42 71.88 86.42 71.88 86.42 C71.88 86.42 71.88 157.29 71.88 157.29 C71.88 157.29 57.71 157.29 57.71 157.29 C57.71 157.29 57.71 128.94 57.71 128.94 Z M57.71 100.60 C57.71 100.60 15.19 100.60 15.19 100.60 C15.19 100.60 15.19 114.77 15.19 114.77 C15.19 114.77 57.71 114.77 57.71 114.77 C57.71 114.77 57.71 100.60 57.71 100.60 Z M15.19 72.25 C15.19 72.25 1.01 72.25 1.01 72.25 C1.01 72.25 1.01 1.39 1.01 1.39 C1.01 1.39 71.88 1.39 71.88 1.39 C71.88 1.39 71.88 15.56 71.88 15.56 C71.88 15.56 15.19 15.56 15.19 15.56 C15.19 15.56 15.19 29.73 15.19 29.73 C15.19 29.73 71.88 29.73 71.88 29.73 C71.88 29.73 71.88 43.91 71.88 43.91 C71.88 43.91 15.19 43.91 15.19 43.91 C15.19 43.91 15.19 72.25 15.19 72.25 Z"/></svg>