<svg xmlns="http://www.w3.org/2000/svg" viewBox="0 0 1151 74" width="1151" height="74"><path fill="#000000" fill-rule="evenodd" d="M1078.24 72.72 C1078.24 72.72 1078.24 58.54 1078.24 58.54 C1078.24 58.54 1134.93 58.54 1134.93 58.54 C1134.93 58.54 1134.93 16.02 1134.93 16.02 C1134.93 16.02 1092.41 16.02 1092.41 16.02 C1092.41 16.02 1092.41 44.37 1092.41 44.37 C1092.41 44.37 1078.24 44.37 1078.24 44.37 C1078.24 44.37 1078.24 1.85 1078.24 1.85 C1078.24 1.85 1149.11 1.85 1149.11 1.85 C1149.11 1.85 1149.11 72.72 1149.11 72.72 C1149.11 72.72 1078.24 72.72 1078.24 72.72 Z M993.20 1.85 C993.20 1.85 1064.07 1.85 1064.07 1.85 C1064.07 1.85 1064.07 16.02 1064.07 16.02 C1064.07 16.02 1007.38 16.02 1007.38 16.02 C1007.38 16.02 1007.38 30.20 1007.38 30.20 C1007.38 30.20 1064.07 30.20 1064.07 30.20 C1064.07 30.20 1064.07 44.37 1064.07 44.37 C1064.07 44.37 1007.38 44.37 1007.38 44.37 C1007.38 44.37 1007.38 58.54 1007.38 58.54 C1007.38 58.54 1064.07 58.54 1064.07 58.54 C1064.07 58.54 1064.07 72.72 1064.07 72.72 C1064.07 72.72 993.20 72.72 993.20 72.72 C993.20 72.72 993.20 1.85 993.20 1.85 Z M908.16 1.85 C908.16 1.85 979.03 1.85 979.03 1.85 C979.03 1.85 979.03 16.02 979.03 16.02 C979.03 16.02 922.34 16.02 922.34 16.02 C922.34 16.02 922.34 30.20 922.34 30.20 C922.34 30.20 979.03 30.20 979.03 30.20 C979.03 30.20 979.03 44.37 979.03 44.37 C979.03 44.37 922.34 44.37 922.34 44.37 C922.34 44.37 922.34 58.54 922.34 58.54 C922.34 58.54 979.03 58.54 979.03 58.54 C979.03 58.54 979.03 72.72 979.03 72.72 C979.03 72.72 908.16 72.72 908.16 72.72 C908.16 72.72 908.16 1.85 908.16 1.85 Z M837.30 72.72 C837.30 72.72 823.12 72.72 823.12 72.72 C823.12 72.72 823.12 1.85 823.12 1.85 C823.12 1.85 893.99 1.85 893.99 1.85 C893.99 1.85 893.99 44.37 893.99 44.37 C893.99 44.37 837.30 44.37 837.30 44.37 C837.30 44.37 837.30 72.72 837.30 72.72 Z M879.82 30.20 C879.82 30.20 879.82 16.02 879.82 16.02 C879.82 16.02 837.30 16.02 837.30 16.02 C837.30 16.02 837.30 30.20 837.30 30.20 C837.30 30.20 879.82 30.20 879.82 30.20 Z M738.08 58.54 C738.08 58.54 794.78 58.54 794.78 58.54 C794.78 58.54 794.78 44.37 794.78 44.37 C794.78 44.37 738.08 44.37 738.08 44.37 C738.08 44.37 738.08 1.85 738.08 1.85 C738.08 1.85 808.95 1.85 808.95 1.85 C808.95 1.85 808.95 16.02 808.95 16.02 C808.95 16.02 752.26 16.02 752.26 16.02 C752.26 16.02 752.26 30.20 752.26 30.20 C752.26 30.20 808.95 30.20 808.95 30.20 C808.95 30.20 808.95 72.72 808.95 72.72 C808.95 72.72 738.08 72.72 738.08 72.72 C738.08 72.72 738.08 58.54 738.08 58.54 Z M681.39 16.02 C681.39 16.02 638.87 16.02 638.87 16.02 C638.87 16.02 638.87 72.72 638.87 72.72 C638.87 72.72 624.70 72.72 624.70 72.72 C624.70 72.72 624.70 1.85 624.70 1.85 C624.70 1.85 695.57 1.85 695.57 1.85 C695.57 1.85 695.57 72.72 695.57 72.72 C695.57 72.72 681.39 72.72 681.39 72.72 C681.39 72.72 681.39 16.02 681.39 16.02 Z M596.35 1.85 C596.35 1.85 610.53 1.85 610.53 1.85 C610.53 1.85 610.53 72.72 610.53 72.72 C610.53 72.72 596.35 72.72 596.35 72.72 C596.35 72.72 596.35 1.85 596.35 1.85 Z M482.97 58.54 C482.97 58.54 539.66 58.54 539.66 58.54 C539.66 58.54 539.66 16.02 539.66 16.02 C539.66 16.02 497.14 16.02 497.14 16.02 C497.14 16.02 497.14 44.37 497.14 44.37 C497.14 44.37 482.97 44.43 482.97 44.43 C482.97 44.43 482.97 1.85 482.97 1.85 C482.97 1.85 553.83 1.85 553.83 1.85 C553.83 1.85 553.83 72.72 553.83 72.72 C553.83 72.72 482.97 72.72 482.97 72.72 C482.97 72.72 482.97 58.54 482.97 58.54 Z M454.62 16.02 C454.62 16.02 412.10 16.02 412.10 16.02 C412.10 16.02 412.10 72.72 412.10 72.72 C412.10 72.72 397.93 72.72 397.93 72.72 C397.93 72.72 397.93 1.85 397.93 1.85 C397.93 1.85 468.79 1.85 468.79 1.85 C468.79 1.85 468.79 72.72 468.79 72.72 C468.79 72.72 454.62 72.72 454.62 72.72 C454.62 72.72 454.62 16.02 454.62 16.02 Z M312.89 1.85 C312.89 1.85 383.75 1.85 383.75 1.85 C383.75 1.85 383.75 16.02 383.75 16.02 C383.75 16.02 327.06 16.02 327.06 16.02 C327.06 16.02 327.06 30.20 327.06 30.20 C327.06 30.20 383.75 30.20 383.75 30.20 C383.75 30.20 383.75 44.37 383.75 44.37 C383.75 44.37 327.06 44.37 327.06 44.37 C327.06 44.37 327.06 58.54 327.06 58.54 C327.06 58.54 383.75 58.54 383.75 58.54 C383.75 58.54 383.75 72.72 383.75 72.72 C383.75 72.72 312.89 72.72 312.89 72.72 C312.89 72.72 312.89 1.85 312.89 1.85 Z M284.54 1.85 C284.54 1.85 298.72 1.85 298.72 1.85 C298.72 1.85 298.72 72.72 298.72 72.72 C298.72 72.72 284.54 72.72 284.54 72.72 C284.54 72.72 284.54 1.85 284.54 1.85 Z M213.68 72.72 C213.68 72.72 199.50 72.72 199.50 72.72 C199.50 72.72 199.50 1.85 199.50 1.85 C199.50 1.85 270.37 1.85 270.37 1.85 C270.37 1.85 270.37 16.02 270.37 16.02 C270.37 16.02 213.68 16.02 213.68 16.02 C213.68 16.02 213.68 72.72 213.68 72.72 Z M128.64 72.72 C128.64 72.72 114.46 72.72 114.46 72.72 C114.46 72.72 114.46 1.85 114.46 1.85 C114.46 1.85 185.33 1.85 185.33 1.85 C185.33 1.85 185.33 16.02 185.33 16.02 C185.33 16.02 128.64 16.02 128.64 16.02 C128.64 16.02 128.64 30.20 128.64 30.20 C128.64 30.20 185.33 30.20 185.33 30.20 C185.33 30.20 185.33 44.37 185.33 44.37 C185.33 44.37 128.64 44.37 128.64 44.37 C128.64 44.37 128.64 72.72 128.64 72.72 Z M57.77 44.37 C57.77 44.37 15.25 44.37 15.25 44.37 C15.25 44.37 15.25 72.72 15.25 72.72 C15.25 72.72 1.08 72.72 1.08 72.72 C1.08 72.72 1.08 1.85 1.08 1.85 C1.08 1.85 71.94 1.85 71.94 1.85 C71.94 1.85 71.94 72.72 71.94 72.72 C71.94 72.72 57.77 72.72 57.77 72.72 C57.77 72.72 57.77 44.37 57.77 44.37 Z M57.77 16.02 C57.77 16.02 15.25 16.02 15.25 16.02 C15.25 16.02 15.25 30.20 15.25 30.20 C15.25 30.20 57.77 30.20 57.77 30.20 C57.77 30.20 57.77 16.02 57.77 16.02 Z"/></svg>