<svg xmlns="http://www.w3.org/2000/svg" viewBox="0 0 484 68" width="484" height="68"><path fill="#000000" fill-rule="evenodd" d="M469.93 58.45 C469.93 52.04 469.93 15.49 469.93 9.25 C469.93 3.02 482.27 3.15 482.27 9.69 C482.27 16.23 482.27 53.81 482.27 58.88 C482.27 63.95 469.93 64.85 469.93 58.45 Z M445.25 64.85 C432.91 64.85 408.23 64.85 395.89 64.85 C383.55 64.85 383.55 64.85 383.55 52.51 C383.55 40.17 383.55 40.17 383.55 27.83 C383.55 15.49 390.21 3.15 408.23 3.15 C426.25 3.15 414.59 3.15 432.91 3.15 C451.24 3.15 457.59 13.61 457.59 27.10 C457.59 40.60 457.59 40.17 457.59 52.51 C457.59 64.85 457.59 64.85 445.25 64.85 Z M445.25 27.83 C445.25 15.49 445.25 15.49 432.91 15.49 C420.57 15.49 420.57 15.49 408.23 15.49 C395.89 15.49 395.89 15.49 395.89 27.83 C395.89 40.17 395.89 40.88 395.89 46.69 C395.89 52.51 395.70 52.51 401.96 52.51 C408.23 52.51 432.68 52.51 438.97 52.51 C445.25 52.51 445.25 52.35 445.25 46.26 C445.25 40.17 445.25 40.17 445.25 27.83 Z M353.21 40.17 C347.54 40.17 346.53 40.17 340.15 40.17 C333.76 40.17 334.19 27.83 340.58 27.83 C346.97 27.83 341.89 27.83 353.64 27.83 C365.40 27.83 371.21 34.51 371.21 46.69 C371.21 58.01 364.68 64.85 352.34 64.85 C340.00 64.85 351.93 64.85 334.19 64.85 C316.46 64.85 309.51 52.51 309.51 40.17 C309.51 27.83 309.51 40.17 309.51 27.83 C309.51 15.49 315.77 3.15 334.19 3.15 C352.62 3.15 358.87 3.15 365.83 3.15 C372.79 3.15 371.21 15.49 365.40 15.49 C359.58 15.49 346.53 15.49 334.19 15.49 C321.85 15.49 321.85 22.31 321.85 34.50 C321.85 46.69 321.85 52.51 334.19 52.51 C346.53 52.51 346.53 52.51 352.77 52.51 C359.01 52.51 358.87 40.17 353.21 40.17 Z M278.37 40.17 C271.90 40.17 247.81 40.17 247.81 40.17 C247.81 40.17 247.81 52.51 260.15 52.51 C272.49 52.51 284.83 52.51 290.23 52.51 C295.63 52.51 297.17 64.85 290.23 64.85 C290.23 64.85 260.15 64.85 260.15 64.85 C241.41 64.85 235.47 52.51 235.47 40.17 C235.47 27.83 235.47 40.17 235.47 27.83 C235.47 15.49 241.41 3.15 260.15 3.15 C274.37 3.15 276.30 3.15 276.51 3.15 C276.51 3.15 276.51 3.15 276.53 3.15 C276.62 3.15 276.98 3.15 278.37 3.15 C284.24 3.15 297.17 3.15 297.17 21.01 C297.17 38.88 284.83 40.17 278.37 40.17 Z M278.47 15.49 C272.49 15.49 272.49 15.49 260.15 15.49 C247.81 15.49 247.81 15.49 247.81 27.83 C260.15 27.83 272.10 27.83 278.47 27.83 C284.83 27.83 284.44 15.49 278.47 15.49 Z M179.90 27.83 C186.02 27.83 198.45 27.83 204.81 27.83 C211.17 27.83 223.13 27.83 223.13 47.10 C223.13 66.37 210.79 64.85 204.22 64.85 C198.71 64.85 172.17 64.85 167.44 64.85 C161.43 64.85 161.43 52.51 167.44 52.51 C173.44 52.51 198.45 52.51 204.81 52.51 C211.17 52.51 210.79 40.17 204.81 40.17 C198.83 40.17 186.11 40.17 179.90 40.17 C173.68 40.17 161.43 40.17 161.43 21.01 C161.43 1.86 173.77 3.15 179.30 3.15 C184.83 3.15 210.79 3.15 216.68 3.15 C222.56 3.15 223.13 15.49 216.68 15.49 C210.22 15.49 186.11 15.49 179.90 15.49 C173.68 15.49 173.77 27.83 179.90 27.83 Z M106.74 27.83 C119.08 27.83 118.80 27.83 131.25 27.83 C136.75 27.83 149.09 27.83 149.09 47.10 C149.09 66.37 136.75 64.85 131.25 64.85 C119.98 64.85 106.74 64.85 94.40 64.85 C87.39 64.85 87.39 52.51 94.47 52.51 C101.56 52.51 124.41 52.51 130.66 52.51 C136.91 52.51 136.75 40.17 130.66 40.17 C124.57 40.17 112.07 40.17 105.75 40.17 C99.42 40.17 87.39 40.17 87.39 21.61 C87.39 3.15 99.73 3.15 105.75 3.15 C117.61 3.15 136.75 3.15 143.12 3.15 C149.48 3.15 149.09 15.49 143.12 15.49 C137.14 15.49 119.08 15.49 106.74 15.49 C99.73 15.49 99.73 27.83 106.74 27.83 Z M62.71 64.85 C50.37 64.85 25.69 64.85 13.35 64.85 C1.01 64.85 1.01 64.85 1.01 52.51 C1.01 40.17 1.01 40.17 1.01 27.83 C1.01 15.49 7.93 3.15 25.69 3.15 C43.46 3.15 31.78 3.15 50.37 3.15 C68.97 3.15 75.05 15.49 75.05 27.83 C75.05 40.17 75.05 40.17 75.05 52.51 C75.05 64.85 75.05 64.85 62.71 64.85 Z M62.71 27.83 C62.71 15.49 56.51 15.49 44.65 15.49 C40.05 15.49 39.11 15.49 38.95 15.49 C38.93 15.49 38.92 15.49 38.92 15.49 C38.75 15.49 37.74 15.49 32.78 15.49 C20.32 15.49 13.35 15.49 13.35 27.83 C13.35 40.17 13.35 39.32 13.35 45.91 C13.35 52.51 12.58 52.51 19.14 52.51 C25.69 52.51 50.30 52.51 56.51 52.51 C62.71 52.51 62.71 52.85 62.71 46.51 C62.71 40.17 62.71 40.17 62.71 27.83 Z"/></svg>