<svg xmlns="http://www.w3.org/2000/svg" viewBox="0 0 373 129" width="373" height="129"><path fill="#000000" fill-rule="evenodd" d="M359.62 65.48 C359.62 65.48 371.30 65.86 371.30 89.84 C371.30 113.82 358.02 127.15 334.70 127.15 C311.39 127.15 272.65 127.15 261.42 127.15 C250.20 127.15 247.99 102.49 262.09 102.49 C276.19 102.49 321.97 102.49 335.37 102.49 C348.77 102.49 346.64 77.83 334.70 77.83 C322.77 77.83 310.72 77.83 297.31 77.83 C283.90 77.83 285.41 53.16 297.31 53.16 C309.22 53.16 321.97 53.16 334.70 53.16 C347.44 53.16 346.64 28.50 334.04 28.50 C321.44 28.50 272.65 28.50 260.76 28.50 C248.87 28.50 247.99 3.84 260.09 3.84 C272.20 3.84 310.72 3.84 334.04 3.84 C357.35 3.84 371.30 17.23 371.30 41.21 C371.30 65.19 359.62 65.48 359.62 65.48 Z M198.66 115.16 C198.66 103.16 198.66 28.50 198.66 15.23 C198.66 1.96 223.32 3.84 223.32 15.23 C223.32 26.62 223.32 102.49 223.32 114.49 C223.32 126.49 198.66 127.15 198.66 115.16 Z M149.34 115.16 C149.34 103.16 149.34 28.50 149.34 16.56 C149.34 3.84 174.00 3.84 174.00 16.56 C174.00 29.29 174.00 102.49 174.00 113.82 C174.00 127.15 149.34 127.15 149.34 115.16 Z M87.55 77.83 C62.90 77.83 49.15 77.83 37.59 77.83 C26.03 77.83 24.48 102.49 37.59 102.49 C50.69 102.49 99.72 102.49 112.20 102.49 C124.68 102.49 124.38 127.15 112.20 127.15 C100.01 127.15 64.90 127.15 38.25 127.15 C11.60 127.15 1.36 117.15 1.36 92.51 C1.36 67.86 13.60 53.16 37.59 53.16 C61.57 53.16 75.09 53.16 87.55 53.16 C100.01 53.16 99.75 28.50 87.55 28.50 C75.35 28.50 27.17 28.50 14.27 28.50 C1.36 28.50 3.84 3.84 14.94 3.84 C26.03 3.84 61.57 3.84 86.88 3.84 C112.20 3.84 124.68 15.90 124.68 40.55 C124.68 65.19 112.20 77.83 87.55 77.83 Z"/></svg>