<svg xmlns="http://www.w3.org/2000/svg" viewBox="0 0 942 124" width="942" height="124"><path fill="#000000" fill-rule="evenodd" d="M1.69 122.84 C1.69 122.84 1.69 107.70 1.69 107.70 C1.69 107.70 940.39 107.70 940.39 107.70 C940.39 107.70 940.39 122.84 940.39 122.84 C940.39 122.84 1.69 122.84 1.69 122.84 Z M909.95 54.80 C910.11 43.19 906.37 39.57 894.97 39.57 C883.83 39.57 879.83 42.74 879.91 55.02 C879.83 69.85 879.83 77.79 879.83 100.13 C864.69 100.13 864.69 100.13 849.55 100.13 C849.55 77.55 849.55 69.85 849.44 54.51 C849.55 42.97 845.71 35.27 834.63 35.27 C823.89 35.27 819.27 43.19 818.92 54.73 C819.27 69.85 819.27 80.92 819.27 100.13 C804.13 100.13 804.13 100.13 788.99 100.13 C788.99 42.55 788.99 69.85 788.99 39.57 C788.99 9.29 811.70 1.72 834.41 1.72 C857.12 1.72 864.69 16.86 864.69 16.86 C864.69 16.86 872.26 1.72 894.97 1.72 C917.68 1.72 940.39 9.29 940.39 39.57 C940.39 62.28 940.39 100.13 940.39 100.13 C940.39 100.13 925.25 100.13 910.11 100.13 C910.11 77.02 910.11 69.85 909.95 54.80 Z M735.99 100.13 C705.71 100.13 713.28 100.13 683.00 100.13 C652.72 100.13 637.58 77.42 637.58 51.16 C637.58 24.89 652.72 1.72 683.00 1.72 C713.28 1.72 705.71 1.72 735.99 1.72 C766.28 1.72 781.42 24.43 781.42 51.38 C781.42 78.34 766.28 100.13 735.99 100.13 Z M728.42 32.00 C713.28 32.00 705.71 32.00 690.57 32.00 C675.43 32.00 667.86 36.50 667.86 51.39 C667.86 66.29 675.43 69.85 690.57 69.85 C705.71 69.85 713.28 69.85 728.42 69.85 C743.56 69.85 751.14 66.42 751.14 51.26 C751.14 36.11 743.56 32.00 728.42 32.00 Z M486.18 50.70 C486.18 23.99 501.32 1.72 531.60 1.72 C561.88 1.72 577.02 1.72 630.01 1.72 C630.01 16.86 630.01 32.00 630.01 32.00 C630.01 32.00 554.31 32.00 539.17 32.00 C524.03 32.00 516.46 35.54 516.46 50.70 C516.46 65.87 524.03 69.85 539.17 69.85 C554.31 69.85 630.01 69.85 630.01 69.85 C630.01 69.85 630.01 100.13 630.01 100.13 C630.01 100.13 561.88 100.13 531.60 100.13 C501.32 100.13 486.18 77.42 486.18 50.70 Z M448.33 1.72 C448.33 1.72 478.61 1.72 478.61 1.72 C478.61 1.72 478.61 100.13 478.61 100.13 C478.61 100.13 448.33 100.13 448.33 100.13 C448.33 100.13 448.33 1.72 448.33 1.72 Z M342.35 54.71 C342.35 69.85 342.35 100.13 342.35 100.13 C342.35 100.13 312.06 100.13 312.06 100.13 C312.06 100.13 312.06 62.28 312.06 39.57 C312.06 16.86 327.21 1.72 357.49 1.72 C387.77 1.72 440.76 1.72 440.76 1.72 C440.76 1.72 440.76 32.00 440.76 32.00 C440.76 32.00 380.20 32.00 365.06 32.00 C349.92 32.00 342.35 39.57 342.35 54.71 Z M259.07 100.13 C243.93 100.13 221.22 100.13 206.08 100.13 C190.94 100.13 160.66 84.99 160.66 54.71 C160.66 24.43 160.66 1.72 160.66 1.72 C160.66 1.72 190.94 1.72 190.94 1.72 C190.94 1.72 190.94 24.34 190.94 47.05 C190.94 62.19 198.51 69.76 213.65 69.76 C228.79 69.76 236.36 69.76 251.50 69.76 C266.64 69.76 274.21 62.19 274.21 47.05 C274.21 31.91 274.21 1.72 274.21 1.72 C274.21 1.72 304.49 1.72 304.49 1.72 C304.49 1.72 304.49 24.43 304.49 54.71 C304.49 84.99 274.21 100.13 259.07 100.13 Z M58.47 100.13 C58.47 100.13 58.47 62.28 58.47 62.28 C58.47 62.28 96.32 62.28 96.32 62.28 C96.32 62.28 96.32 100.13 96.32 100.13 C96.32 100.13 58.47 100.13 58.47 100.13 Z M122.81 54.71 C122.81 39.57 115.24 32.00 100.10 32.00 C84.96 32.00 69.82 32.00 54.68 32.00 C39.54 32.00 31.97 39.57 31.97 54.71 C31.97 69.85 31.97 100.13 31.97 100.13 C31.97 100.13 1.79 100.13 1.79 100.13 C1.79 100.13 1.79 70.08 1.79 47.37 C1.79 24.66 24.27 1.72 46.98 1.72 C69.69 1.72 84.96 1.72 107.67 1.72 C130.38 1.72 153.09 24.43 153.09 47.14 C153.09 69.85 153.09 100.06 153.09 100.06 C153.09 100.06 122.81 100.13 122.81 100.13 C122.81 100.13 122.81 69.85 122.81 54.71 Z"/></svg>