<svg xmlns="http://www.w3.org/2000/svg" viewBox="0 0 1349 74" width="1349" height="74"><path fill="#000000" fill-rule="evenodd" d="M1319.65 43.75 C1319.65 43.75 1319.65 72.10 1319.65 72.10 C1319.65 72.10 1305.48 72.10 1305.48 72.10 C1305.48 72.10 1305.48 43.75 1305.48 43.75 C1305.48 43.75 1277.13 43.75 1277.13 43.75 C1277.13 43.75 1277.13 1.24 1277.13 1.24 C1277.13 1.24 1291.30 1.24 1291.30 1.24 C1291.30 1.24 1291.30 29.58 1291.30 29.58 C1291.30 29.58 1333.82 29.58 1333.82 29.58 C1333.82 29.58 1333.82 1.24 1333.82 1.24 C1333.82 1.24 1348.00 1.24 1348.00 1.24 C1348.00 1.24 1348.00 43.75 1348.00 43.75 C1348.00 43.75 1319.65 43.75 1319.65 43.75 Z M1192.09 1.24 C1192.09 1.24 1262.96 1.24 1262.96 1.24 C1262.96 1.24 1262.96 15.41 1262.96 15.41 C1262.96 15.41 1206.26 15.41 1206.26 15.41 C1206.26 15.41 1206.26 57.93 1206.26 57.93 C1206.26 57.93 1248.78 57.93 1248.78 57.93 C1248.78 57.93 1248.78 43.75 1248.78 43.75 C1248.78 43.75 1234.61 43.75 1234.61 43.75 C1234.61 43.75 1234.61 29.58 1234.61 29.58 C1234.61 29.58 1262.96 29.58 1262.96 29.58 C1262.96 29.58 1262.96 72.10 1262.96 72.10 C1262.96 72.10 1192.09 72.10 1192.09 72.10 C1192.09 72.10 1192.09 1.24 1192.09 1.24 Z M1107.05 1.24 C1107.05 1.24 1177.92 1.24 1177.92 1.24 C1177.92 1.24 1177.92 72.10 1177.92 72.10 C1177.92 72.10 1107.05 72.10 1107.05 72.10 C1107.05 72.10 1107.05 1.24 1107.05 1.24 Z M1121.23 57.93 C1121.23 57.93 1163.74 57.93 1163.74 57.93 C1163.74 57.93 1163.74 15.41 1163.74 15.41 C1163.74 15.41 1121.23 15.41 1121.23 15.41 C1121.23 15.41 1121.23 57.93 1121.23 57.93 Z M1022.01 1.24 C1022.01 1.24 1036.19 1.24 1036.19 1.24 C1036.19 1.24 1036.19 57.93 1036.19 57.93 C1036.19 57.93 1092.88 57.93 1092.88 57.93 C1092.88 57.93 1092.88 72.10 1092.88 72.10 C1092.88 72.10 1022.01 72.10 1022.01 72.10 C1022.01 72.10 1022.01 1.24 1022.01 1.24 Z M936.97 1.24 C936.97 1.24 1007.84 1.24 1007.84 1.24 C1007.84 1.24 1007.84 72.10 1007.84 72.10 C1007.84 72.10 936.97 72.10 936.97 72.10 C936.97 72.10 936.97 1.24 936.97 1.24 Z M951.15 57.93 C951.15 57.93 993.67 57.93 993.67 57.93 C993.67 57.93 993.67 15.41 993.67 15.41 C993.67 15.41 951.15 15.41 951.15 15.41 C951.15 15.41 951.15 57.93 951.15 57.93 Z M908.63 15.41 C908.63 15.41 866.11 15.41 866.11 15.41 C866.11 15.41 866.11 72.10 866.11 72.10 C866.11 72.10 851.93 72.10 851.93 72.10 C851.93 72.10 851.93 1.24 851.93 1.24 C851.93 1.24 922.80 1.24 922.80 1.24 C922.80 1.24 922.80 72.10 922.80 72.10 C922.80 72.10 908.63 72.10 908.63 72.10 C908.63 72.10 908.63 15.41 908.63 15.41 Z M823.59 43.75 C823.59 43.75 781.07 43.75 781.07 43.75 C781.07 43.75 781.07 72.10 781.07 72.10 C781.07 72.10 766.90 72.10 766.90 72.10 C766.90 72.10 766.90 1.24 766.90 1.24 C766.90 1.24 781.07 1.24 781.07 1.24 C781.07 1.24 781.07 29.58 781.07 29.58 C781.07 29.58 823.59 29.58 823.59 29.58 C823.59 29.58 823.59 1.24 823.59 1.24 C823.59 1.24 837.76 1.24 837.76 1.24 C837.76 1.24 837.76 72.10 837.76 72.10 C837.76 72.10 823.59 72.10 823.59 72.10 C823.59 72.10 823.59 43.75 823.59 43.75 Z M681.86 1.24 C681.86 1.24 752.72 1.24 752.72 1.24 C752.72 1.24 752.72 15.41 752.72 15.41 C752.72 15.41 696.03 15.41 696.03 15.41 C696.03 15.41 696.03 57.93 696.03 57.93 C696.03 57.93 752.72 57.93 752.72 57.93 C752.72 57.93 752.72 72.10 752.72 72.10 C752.72 72.10 681.86 72.10 681.86 72.10 C681.86 72.10 681.86 1.24 681.86 1.24 Z M596.82 1.24 C596.82 1.24 667.68 1.24 667.68 1.24 C667.68 1.24 667.68 15.41 667.68 15.41 C667.68 15.41 610.99 15.41 610.99 15.41 C610.99 15.41 610.99 29.58 610.99 29.58 C610.99 29.58 667.68 29.58 667.68 29.58 C667.68 29.58 667.68 43.75 667.68 43.75 C667.68 43.75 610.99 43.75 610.99 43.75 C610.99 43.75 610.99 57.93 610.99 57.93 C610.99 57.93 667.68 57.93 667.68 57.93 C667.68 57.93 667.68 72.10 667.68 72.10 C667.68 72.10 596.82 72.10 596.82 72.10 C596.82 72.10 596.82 1.24 596.82 1.24 Z M554.30 72.10 C554.30 72.10 540.12 72.10 540.12 72.10 C540.12 72.10 540.12 15.41 540.12 15.41 C540.12 15.41 511.78 15.41 511.78 15.41 C511.78 15.41 511.78 1.24 511.78 1.24 C511.78 1.24 582.64 1.24 582.64 1.24 C582.64 1.24 582.64 15.41 582.64 15.41 C582.64 15.41 554.30 15.41 554.30 15.41 C554.30 15.41 554.30 72.10 554.30 72.10 Z M370.05 57.93 C370.05 57.93 426.74 57.93 426.74 57.93 C426.74 57.93 426.74 15.41 426.74 15.41 C426.74 15.41 370.05 15.41 370.05 15.41 C370.05 15.41 370.05 1.24 370.05 1.24 C370.05 1.24 440.91 1.24 440.91 1.24 C440.91 1.24 440.91 72.10 440.91 72.10 C440.91 72.10 370.05 72.10 370.05 72.10 C370.05 72.10 370.05 57.93 370.05 57.93 Z M285.01 1.24 C285.01 1.24 355.87 1.24 355.87 1.24 C355.87 1.24 355.87 15.41 355.87 15.41 C355.87 15.41 299.18 15.41 299.18 15.41 C299.18 15.41 299.18 29.58 299.18 29.58 C299.18 29.58 355.87 29.58 355.87 29.58 C355.87 29.58 355.87 43.75 355.87 43.75 C355.87 43.75 299.18 43.75 299.18 43.75 C299.18 43.75 299.18 57.93 299.18 57.93 C299.18 57.93 355.87 57.93 355.87 57.93 C355.87 57.93 355.87 72.10 355.87 72.10 C355.87 72.10 285.01 72.10 285.01 72.10 C285.01 72.10 285.01 1.24 285.01 1.24 Z M256.66 43.75 C256.66 43.75 214.14 43.75 214.14 43.75 C214.14 43.75 214.14 72.10 214.14 72.10 C214.14 72.10 199.97 72.10 199.97 72.10 C199.97 72.10 199.97 1.24 199.97 1.24 C199.97 1.24 214.14 1.24 214.14 1.24 C214.14 1.24 214.14 29.58 214.14 29.58 C214.14 29.58 228.31 29.58 228.31 29.58 C228.31 29.58 228.31 1.24 228.31 1.24 C228.31 1.24 242.49 1.24 242.49 1.24 C242.49 1.24 242.49 29.58 242.49 29.58 C242.49 29.58 270.83 29.58 270.83 29.58 C270.83 29.58 270.83 72.10 270.83 72.10 C270.83 72.10 256.66 72.10 256.66 72.10 C256.66 72.10 256.66 43.75 256.66 43.75 Z M171.62 15.41 C171.62 15.41 129.10 15.41 129.10 15.41 C129.10 15.41 129.10 72.10 129.10 72.10 C129.10 72.10 114.93 72.10 114.93 72.10 C114.93 72.10 114.93 1.24 114.93 1.24 C114.93 1.24 185.79 1.24 185.79 1.24 C185.79 1.24 185.79 72.10 185.79 72.10 C185.79 72.10 171.62 72.10 171.62 72.10 C171.62 72.10 171.62 15.41 171.62 15.41 Z M86.58 1.24 C86.58 1.24 100.75 1.24 100.75 1.24 C100.75 1.24 100.75 72.10 100.75 72.10 C100.75 72.10 86.58 72.10 86.58 72.10 C86.58 72.10 86.58 1.24 86.58 1.24 Z M1.54 1.24 C1.54 1.24 15.72 1.24 15.72 1.24 C15.72 1.24 15.72 57.93 15.72 57.93 C15.72 57.93 72.41 57.93 72.41 57.93 C72.41 57.93 72.41 72.10 72.41 72.10 C72.41 72.10 1.54 72.10 1.54 72.10 C1.54 72.10 1.54 1.24 1.54 1.24 Z"/></svg>