<svg xmlns="http://www.w3.org/2000/svg" viewBox="0 0 708 96" width="708" height="96"><path fill="#000000" fill-rule="evenodd" d="M706.14 28.04 C706.14 28.04 599.70 28.04 599.70 28.04 C599.70 28.04 599.70 94.57 599.70 94.57 C599.70 94.57 573.09 94.57 573.09 94.57 C573.09 94.57 573.09 1.44 573.09 1.44 C573.09 1.44 706.14 1.44 706.14 1.44 C706.14 1.44 706.14 28.04 706.14 28.04 Z M440.05 94.57 C440.05 94.57 440.05 34.70 440.05 34.70 C440.05 34.70 539.83 34.70 539.83 34.70 C539.83 34.70 539.83 28.04 539.83 28.04 C539.83 28.04 440.05 28.04 440.05 28.04 C440.05 28.04 440.05 1.44 440.05 1.44 C440.05 1.44 566.44 1.44 566.44 1.44 C566.44 1.44 566.44 94.57 566.44 94.57 C566.44 94.57 440.05 94.57 440.05 94.57 Z M466.66 61.31 C466.66 61.31 466.66 67.96 466.66 67.96 C466.66 67.96 539.83 67.96 539.83 67.96 C539.83 67.96 539.83 61.31 539.83 61.31 C539.83 61.31 466.66 61.31 466.66 61.31 Z M326.96 28.04 C326.96 28.04 326.96 34.70 326.96 34.70 C326.96 34.70 433.40 34.70 433.40 34.70 C433.40 34.70 433.40 94.57 433.40 94.57 C433.40 94.57 300.36 94.57 300.36 94.57 C300.36 94.57 300.36 67.96 300.36 67.96 C300.36 67.96 406.79 67.96 406.79 67.96 C406.79 67.96 406.79 61.31 406.79 61.31 C406.79 61.31 300.36 61.31 300.36 61.31 C300.36 61.31 300.36 1.44 300.36 1.44 C300.36 1.44 433.40 1.44 433.40 1.44 C433.40 1.44 433.40 28.04 433.40 28.04 C433.40 28.04 326.96 28.04 326.96 28.04 Z M267.09 94.57 C267.09 94.57 267.09 1.44 267.09 1.44 C267.09 1.44 293.70 1.44 293.70 1.44 C293.70 1.44 293.70 94.57 293.70 94.57 C293.70 94.57 267.09 94.57 267.09 94.57 Z M160.66 61.31 C160.66 61.31 160.66 67.96 160.66 67.96 C160.66 67.96 260.44 67.96 260.44 67.96 C260.44 67.96 260.44 94.57 260.44 94.57 C260.44 94.57 134.05 94.57 134.05 94.57 C134.05 94.57 134.05 1.44 134.05 1.44 C134.05 1.44 260.44 1.44 260.44 1.44 C260.44 1.44 260.44 61.31 260.44 61.31 C260.44 61.31 160.66 61.31 160.66 61.31 Z M233.83 28.04 C233.83 28.04 160.66 28.04 160.66 28.04 C160.66 28.04 160.66 34.70 160.66 34.70 C160.66 34.70 233.83 34.70 233.83 34.70 C233.83 34.70 233.83 28.04 233.83 28.04 Z M27.62 28.04 C27.62 28.04 27.62 34.70 27.62 34.70 C27.62 34.70 127.40 34.70 127.40 34.70 C127.40 34.70 127.40 61.31 127.40 61.31 C127.40 61.31 27.62 61.31 27.62 61.31 C27.62 61.31 27.62 94.57 27.62 94.57 C27.62 94.57 1.01 94.57 1.01 94.57 C1.01 94.57 1.01 1.44 1.01 1.44 C1.01 1.44 127.40 1.44 127.40 1.44 C127.40 1.44 127.40 28.04 127.40 28.04 C127.40 28.04 27.62 28.04 27.62 28.04 Z M706.14 67.96 C706.14 67.96 706.14 94.57 706.14 94.57 C706.14 94.57 679.53 94.57 679.53 94.57 C679.53 94.57 679.53 67.96 679.53 67.96 C679.53 67.96 706.14 67.96 706.14 67.96 Z"/></svg>