<svg xmlns="http://www.w3.org/2000/svg" viewBox="0 0 640 160" width="640" height="160"><path fill="#000000" fill-rule="evenodd" d="M561.00 158.75 C561.00 158.75 561.00 144.58 561.00 144.58 C561.00 144.58 624.82 144.58 624.82 144.58 C624.82 144.58 624.82 130.41 624.82 130.41 C624.82 130.41 539.78 130.41 539.78 130.41 C539.78 130.41 539.78 59.54 539.78 59.54 C539.78 59.54 553.95 59.54 553.95 59.54 C553.95 59.54 553.95 116.24 553.95 116.24 C553.95 116.24 624.82 116.24 624.82 116.24 C624.82 116.24 624.82 59.54 624.82 59.54 C624.82 59.54 638.99 59.54 638.99 59.54 C638.99 59.54 638.99 158.75 638.99 158.75 C638.99 158.75 561.00 158.75 561.00 158.75 Z M426.39 31.20 C426.39 31.20 440.57 31.20 440.57 31.20 C440.57 31.20 440.57 59.54 440.57 59.54 C440.57 59.54 525.60 59.54 525.60 59.54 C525.60 59.54 525.60 73.72 525.60 73.72 C525.60 73.72 440.57 73.72 440.57 73.72 C440.57 73.72 440.57 116.24 440.57 116.24 C440.57 116.24 525.60 116.24 525.60 116.24 C525.60 116.24 525.60 130.41 525.60 130.41 C525.60 130.41 426.39 130.41 426.39 130.41 C426.39 130.41 426.39 31.20 426.39 31.20 Z M377.24 32.96 C377.24 32.96 368.49 32.96 368.49 32.96 C368.49 32.96 368.49 1.93 368.49 1.93 C368.49 1.93 412.22 1.93 412.22 1.93 C412.22 1.93 412.22 8.14 412.22 8.14 C412.22 8.14 377.24 8.14 377.24 8.14 C377.24 8.14 377.24 32.96 377.24 32.96 Z M316.02 1.93 C316.02 1.93 359.75 1.93 359.75 1.93 C359.75 1.93 359.75 32.96 359.75 32.96 C359.75 32.96 316.02 32.96 316.02 32.96 C316.02 32.96 316.02 1.93 316.02 1.93 Z M324.77 26.75 C324.77 26.75 351.00 26.75 351.00 26.75 C351.00 26.75 351.00 8.14 351.00 8.14 C351.00 8.14 324.77 8.14 324.77 8.14 C324.77 8.14 324.77 26.75 324.77 26.75 Z M272.29 45.37 C272.29 45.37 263.55 45.37 263.55 45.37 C263.55 45.37 263.55 1.93 263.55 1.93 C263.55 1.93 307.27 1.93 307.27 1.93 C307.27 1.93 307.27 8.14 307.27 8.14 C307.27 8.14 272.29 8.14 272.29 8.14 C272.29 8.14 272.29 26.75 272.29 26.75 C272.29 26.75 307.27 26.75 307.27 26.75 C307.27 26.75 307.27 32.96 307.27 32.96 C307.27 32.96 272.29 32.96 272.29 32.96 C272.29 32.96 272.29 45.37 272.29 45.37 Z M269.81 59.54 C269.81 59.54 269.81 130.41 269.81 130.41 C269.81 130.41 170.60 130.41 170.60 130.41 C170.60 130.41 170.60 59.54 170.60 59.54 C170.60 59.54 184.77 59.54 184.77 59.54 C184.77 59.54 184.77 116.24 184.77 116.24 C184.77 116.24 255.64 116.24 255.64 116.24 C255.64 116.24 255.64 59.54 255.64 59.54 C255.64 59.54 269.81 59.54 269.81 59.54 Z M167.35 1.93 C167.35 1.93 211.08 1.93 211.08 1.93 C211.08 1.93 211.08 20.55 211.08 20.55 C211.08 20.55 176.09 20.55 176.09 20.55 C176.09 20.55 176.09 26.75 176.09 26.75 C176.09 26.75 211.08 26.75 211.08 26.75 C211.08 26.75 211.08 32.96 211.08 32.96 C211.08 32.96 167.35 32.96 167.35 32.96 C167.35 32.96 167.35 1.93 167.35 1.93 Z M176.09 14.34 C176.09 14.34 202.33 14.34 202.33 14.34 C202.33 14.34 202.33 8.14 202.33 8.14 C202.33 8.14 176.09 8.14 176.09 8.14 C176.09 8.14 176.09 14.34 176.09 14.34 Z M114.88 1.93 C114.88 1.93 158.60 1.93 158.60 1.93 C158.60 1.93 158.60 8.14 158.60 8.14 C158.60 8.14 123.62 8.14 123.62 8.14 C123.62 8.14 123.62 26.75 123.62 26.75 C123.62 26.75 158.60 26.75 158.60 26.75 C158.60 26.75 158.60 32.96 158.60 32.96 C158.60 32.96 114.88 32.96 114.88 32.96 C114.88 32.96 114.88 1.93 114.88 1.93 Z M157.43 102.06 C157.43 102.06 114.58 102.06 114.58 102.06 C114.58 102.06 114.58 87.89 114.58 87.89 C114.58 87.89 157.43 87.89 157.43 87.89 C157.43 87.89 157.43 102.06 157.43 102.06 Z M53.66 1.93 C53.66 1.93 97.39 1.93 97.39 1.93 C97.39 1.93 97.39 26.75 97.39 26.75 C97.39 26.75 106.13 26.75 106.13 26.75 C106.13 26.75 106.13 32.96 106.13 32.96 C106.13 32.96 53.66 32.96 53.66 32.96 C53.66 32.96 53.66 1.93 53.66 1.93 Z M62.40 26.75 C62.40 26.75 88.64 26.75 88.64 26.75 C88.64 26.75 88.64 8.14 88.64 8.14 C88.64 8.14 62.40 8.14 62.40 8.14 C62.40 8.14 62.40 26.75 62.40 26.75 Z M9.93 32.96 C9.93 32.96 1.19 32.96 1.19 32.96 C1.19 32.96 1.19 1.93 1.19 1.93 C1.19 1.93 44.91 1.93 44.91 1.93 C44.91 1.93 44.91 8.14 44.91 8.14 C44.91 8.14 9.93 8.14 9.93 8.14 C9.93 8.14 9.93 32.96 9.93 32.96 Z M100.41 102.06 C100.41 102.06 15.37 102.06 15.37 102.06 C15.37 102.06 15.37 116.24 15.37 116.24 C15.37 116.24 100.41 116.24 100.41 116.24 C100.41 116.24 100.41 130.41 100.41 130.41 C100.41 130.41 1.20 130.41 1.20 130.41 C1.20 130.41 1.20 59.54 1.20 59.54 C1.20 59.54 100.41 59.54 100.41 59.54 C100.41 59.54 100.41 102.06 100.41 102.06 Z M86.24 73.72 C86.24 73.72 15.37 73.72 15.37 73.72 C15.37 73.72 15.37 87.89 15.37 87.89 C15.37 87.89 86.24 87.89 86.24 87.89 C86.24 87.89 86.24 73.72 86.24 73.72 Z M383.20 130.41 C383.20 130.41 369.03 130.41 369.03 130.41 C369.03 130.41 369.03 73.72 369.03 73.72 C369.03 73.72 298.16 73.72 298.16 73.72 C298.16 73.72 298.16 130.41 298.16 130.41 C298.16 130.41 283.99 130.41 283.99 130.41 C283.99 130.41 283.99 59.54 283.99 59.54 C283.99 59.54 383.20 59.54 383.20 59.54 C383.20 59.54 383.20 130.41 383.20 130.41 Z M412.22 45.37 C412.22 45.37 398.05 45.37 398.05 45.37 C398.05 45.37 398.05 31.20 398.05 31.20 C398.05 31.20 412.22 31.20 412.22 31.20 C412.22 31.20 412.22 45.37 412.22 45.37 Z M412.22 130.41 C412.22 130.41 398.05 130.41 398.05 130.41 C398.05 130.41 398.05 59.54 398.05 59.54 C398.05 59.54 412.22 59.54 412.22 59.54 C412.22 59.54 412.22 130.41 412.22 130.41 Z"/></svg>