<svg xmlns="http://www.w3.org/2000/svg" viewBox="0 0 653 99" width="653" height="99"><path fill="#000000" fill-rule="evenodd" d="M651.53 40.79 C651.53 40.79 651.53 86.13 651.53 86.13 C651.53 86.13 640.20 97.46 640.20 97.46 C640.20 97.46 532.64 97.46 532.64 97.46 C532.64 97.46 532.64 74.79 532.64 74.79 C532.64 74.79 628.87 74.79 628.87 74.79 C628.87 74.79 628.87 63.46 628.87 63.46 C628.87 63.46 532.08 63.46 532.08 63.46 C532.08 63.46 532.64 1.19 532.64 1.19 C532.64 1.19 651.53 1.19 651.53 1.19 C651.53 1.19 651.53 29.46 651.53 29.46 C651.53 29.46 560.87 29.46 560.87 29.46 C560.87 29.46 560.87 40.79 560.87 40.79 C560.87 40.79 651.53 40.79 651.53 40.79 Z M498.65 63.46 C498.65 63.46 420.00 63.46 420.00 63.46 C420.00 63.46 407.79 52.68 407.79 52.68 C407.79 52.68 407.24 1.01 407.24 1.01 C407.24 1.01 436.20 1.19 436.20 1.19 C436.20 1.19 436.20 35.05 436.20 35.05 C436.20 35.05 498.79 34.49 498.79 34.49 C498.79 34.49 498.79 1.19 498.79 1.19 C498.79 1.19 526.87 1.19 526.87 1.19 C526.87 1.19 526.87 97.46 526.87 97.46 C526.87 97.46 498.65 97.46 498.65 97.46 C498.65 97.46 498.65 63.46 498.65 63.46 Z M373.68 32.49 C373.68 32.49 391.50 32.49 391.50 32.49 C391.50 32.49 391.50 95.15 391.50 95.15 C391.50 95.15 373.68 95.15 373.68 95.15 C373.68 95.15 373.68 32.49 373.68 32.49 Z M363.64 50.06 C363.64 50.06 346.60 67.11 346.60 67.11 C346.60 67.11 359.75 81.23 359.75 81.23 C359.75 81.23 369.78 81.23 369.78 81.23 C369.78 81.23 369.78 95.15 369.78 95.15 C369.78 95.15 348.90 95.15 348.90 95.15 C348.90 95.15 335.35 74.26 335.35 74.26 C335.35 74.26 318.31 74.60 318.31 74.60 C318.31 74.60 317.98 95.49 317.98 95.49 C317.98 95.49 300.59 95.15 300.59 95.15 C300.59 95.15 300.93 32.49 300.93 32.49 C300.93 32.49 318.65 32.49 318.65 32.49 C318.65 32.49 318.31 57.27 318.31 57.27 C318.31 57.27 327.85 57.27 327.85 57.27 C327.85 57.27 352.79 32.49 352.79 32.49 C352.79 32.49 370.46 32.49 370.46 32.49 C370.46 32.49 370.27 50.40 370.27 50.40 C370.27 50.40 363.64 50.06 363.64 50.06 Z M252.18 81.23 C252.18 81.23 296.75 81.43 296.75 81.43 C296.75 81.43 297.09 95.15 297.09 95.15 C297.09 95.15 248.43 95.15 248.43 95.15 C248.43 95.15 224.23 70.51 224.23 70.51 C224.23 70.51 224.23 32.49 224.23 32.49 C224.23 32.49 297.09 32.49 297.09 32.49 C297.09 32.49 297.09 46.41 297.09 46.41 C297.09 46.41 244.68 46.41 244.68 46.41 C244.68 46.41 245.03 56.54 245.03 56.54 C245.03 56.54 297.09 56.54 297.09 56.54 C297.09 56.54 297.43 71.54 297.43 71.54 C297.43 71.54 252.59 71.20 252.59 71.20 C252.59 71.20 252.18 81.23 252.18 81.23 Z M199.62 95.15 C199.62 95.15 178.73 95.15 178.73 95.15 C178.73 95.15 178.73 50.31 178.73 50.31 C178.73 50.31 154.70 50.31 154.70 50.31 C154.70 50.31 154.36 32.49 154.36 32.49 C154.36 32.49 220.51 32.49 220.51 32.49 C220.51 32.49 220.51 50.31 220.51 50.31 C220.51 50.31 199.62 50.31 199.62 50.31 C199.62 50.31 199.62 95.15 199.62 95.15 Z M78.00 74.26 C78.00 74.26 78.00 32.49 78.00 32.49 C78.00 32.49 150.89 32.49 150.89 32.49 C150.89 32.49 150.89 95.15 150.89 95.15 C150.89 95.15 98.80 95.15 98.80 95.15 C98.80 95.15 78.00 74.26 78.00 74.26 Z M133.22 77.67 C133.22 77.67 133.07 50.65 133.07 50.65 C133.07 50.65 95.19 50.06 95.19 50.06 C95.19 50.06 95.19 67.30 95.19 67.30 C95.19 67.30 105.61 77.67 105.61 77.67 C105.61 77.67 133.22 77.67 133.22 77.67 Z M1.65 70.51 C1.65 70.51 1.31 32.49 1.31 32.49 C1.31 32.49 74.30 32.49 74.30 32.49 C74.30 32.49 74.30 53.38 74.30 53.38 C74.30 53.38 22.10 53.38 22.10 53.38 C22.10 53.38 22.10 67.30 22.10 67.30 C22.10 67.30 32.53 77.67 32.53 77.67 C32.53 77.67 53.41 77.67 53.41 77.67 C53.41 77.67 53.41 60.34 53.41 60.34 C53.41 60.34 74.30 60.34 74.30 60.34 C74.30 60.34 74.30 95.15 74.30 95.15 C74.30 95.15 25.56 95.15 25.56 95.15 C25.56 95.15 1.65 70.51 1.65 70.51 Z"/></svg>