<svg xmlns="http://www.w3.org/2000/svg" viewBox="0 0 1336 125" width="1336" height="125"><path fill="#000000" fill-rule="evenodd" d="M1257.33 30.97 C1257.33 30.97 1256.67 52.14 1256.67 52.14 C1256.67 52.14 1334.05 52.14 1334.05 52.14 C1334.05 52.14 1334.05 80.49 1334.05 80.49 C1334.05 80.49 1257.00 80.49 1257.00 80.49 C1257.00 80.49 1257.00 123.01 1257.00 123.01 C1257.00 123.01 1228.00 123.01 1228.00 123.01 C1228.00 123.01 1228.33 2.00 1228.33 2.00 C1228.33 2.00 1334.05 1.67 1334.05 1.67 C1334.05 1.67 1334.39 30.97 1334.39 30.97 C1334.39 30.97 1257.33 30.97 1257.33 30.97 Z M1107.28 80.49 C1107.28 80.49 1107.28 2.33 1107.28 2.33 C1107.28 2.33 1220.67 2.00 1220.67 2.00 C1220.67 2.00 1220.67 123.01 1220.67 123.01 C1220.67 123.01 1135.63 123.01 1135.63 123.01 C1135.63 123.01 1107.28 80.49 1107.28 80.49 Z M1192.32 94.66 C1192.32 94.66 1192.32 30.33 1192.32 30.33 C1192.32 30.33 1135.63 30.67 1135.63 30.67 C1135.63 30.67 1135.63 66.31 1135.63 66.31 C1135.63 66.31 1156.47 94.66 1156.47 94.66 C1156.47 94.66 1192.32 94.66 1192.32 94.66 Z M993.90 80.49 C993.90 80.49 993.90 2.33 993.90 2.33 C993.90 2.33 1100.33 2.33 1100.33 2.33 C1100.33 2.33 1100.33 123.01 1100.33 123.01 C1100.33 123.01 1022.24 123.01 1022.24 123.01 C1022.24 123.01 993.90 80.49 993.90 80.49 Z M1072.67 94.66 C1072.67 94.66 1072.67 31.00 1072.67 31.00 C1072.67 31.00 1022.24 31.33 1022.24 31.33 C1022.24 31.33 1022.24 66.31 1022.24 66.31 C1022.24 66.31 1043.08 94.33 1043.08 94.33 C1043.08 94.33 1072.67 94.66 1072.67 94.66 Z M987.00 123.01 C987.00 123.01 951.38 123.01 951.38 123.01 C951.38 123.01 923.03 80.49 923.03 80.49 C923.03 80.49 908.86 80.49 908.86 80.49 C908.86 80.49 908.86 123.01 908.86 123.01 C908.86 123.01 880.51 123.01 880.51 123.01 C880.51 123.01 880.51 2.33 880.51 2.33 C880.51 2.33 987.00 2.62 987.00 2.62 C987.00 2.62 987.00 80.49 987.00 80.49 C987.00 80.49 959.00 80.49 959.00 80.49 C959.00 80.49 958.33 94.66 958.33 94.66 C958.33 94.66 986.67 94.66 986.67 94.66 C986.67 94.66 987.00 123.01 987.00 123.01 Z M959.67 52.14 C959.67 52.14 959.00 30.67 959.00 30.67 C959.00 30.67 908.86 30.33 908.86 30.33 C908.86 30.33 908.86 52.14 908.86 52.14 C908.86 52.14 959.67 52.14 959.67 52.14 Z M789.33 123.01 C789.33 123.01 759.67 123.01 759.67 123.01 C759.67 123.01 760.00 2.33 760.00 2.33 C760.00 2.33 872.33 2.67 872.33 2.67 C872.33 2.67 872.67 80.49 872.67 80.49 C872.67 80.49 789.00 80.49 789.00 80.49 C789.00 80.49 789.33 123.01 789.33 123.01 Z M845.67 52.14 C845.67 52.14 845.67 31.00 845.67 31.00 C845.67 31.00 788.67 31.33 788.67 31.33 C788.67 31.33 789.00 52.14 789.00 52.14 C789.00 52.14 845.67 52.14 845.67 52.14 Z M597.05 86.67 C597.05 86.67 597.05 2.00 597.05 2.00 C597.05 2.00 710.43 2.67 710.43 2.67 C710.43 2.67 710.43 30.67 710.43 30.67 C710.43 30.67 625.33 30.33 625.33 30.33 C625.33 30.33 625.33 52.14 625.33 52.14 C625.33 52.14 710.43 52.14 710.43 52.14 C710.43 52.14 710.43 80.49 710.43 80.49 C710.43 80.49 625.39 80.49 625.39 80.49 C625.39 80.49 633.57 94.66 633.57 94.66 C633.57 94.66 710.43 94.66 710.43 94.66 C710.43 94.66 710.43 123.01 710.43 123.01 C710.43 123.01 621.33 123.01 621.33 123.01 C621.33 123.01 597.05 86.67 597.05 86.67 Z M589.33 94.66 C589.33 94.66 589.67 123.01 589.67 123.01 C589.67 123.01 547.33 123.01 547.33 123.01 C547.33 123.01 518.34 80.15 518.34 80.15 C518.34 80.15 505.00 80.00 505.00 80.00 C505.00 80.00 505.00 123.01 505.00 123.01 C505.00 123.01 476.00 123.01 476.00 123.01 C476.00 123.01 477.00 2.67 477.00 2.67 C477.00 2.67 589.67 2.33 589.67 2.33 C589.67 2.33 589.33 80.49 589.33 80.49 C589.33 80.49 554.53 80.49 554.53 80.49 C554.53 80.49 554.53 94.66 554.53 94.66 C554.53 94.66 589.33 94.66 589.33 94.66 Z M562.33 52.14 C562.33 52.14 562.33 30.67 562.33 30.67 C562.33 30.67 505.33 30.67 505.33 30.67 C505.33 30.67 505.00 52.14 505.00 52.14 C505.00 52.14 562.33 52.14 562.33 52.14 Z M356.10 80.49 C356.10 80.49 356.10 2.67 356.10 2.67 C356.10 2.67 384.45 2.67 384.45 2.67 C384.45 2.67 384.45 66.31 384.45 66.31 C384.45 66.31 399.33 87.67 399.33 87.67 C399.33 87.67 441.14 87.67 441.14 87.67 C441.14 87.67 440.81 2.33 440.81 2.33 C440.81 2.33 469.49 2.67 469.49 2.67 C469.49 2.67 469.49 123.01 469.49 123.01 C469.49 123.01 391.45 123.01 391.45 123.01 C391.45 123.01 356.10 80.49 356.10 80.49 Z M313.58 123.01 C313.58 123.01 285.24 123.01 285.24 123.01 C285.24 123.01 285.24 30.67 285.24 30.67 C285.24 30.67 242.72 30.97 242.72 30.97 C242.72 30.97 242.72 2.00 242.72 2.00 C242.72 2.00 349.67 2.67 349.67 2.67 C349.67 2.67 350.00 30.33 350.00 30.33 C350.00 30.33 313.58 30.00 313.58 30.00 C313.58 30.00 313.58 123.01 313.58 123.01 Z M122.33 80.49 C122.33 80.49 122.00 1.33 122.00 1.33 C122.00 1.33 151.00 1.67 151.00 1.67 C151.00 1.67 151.00 66.31 151.00 66.31 C151.00 66.31 171.85 94.33 171.85 94.33 C171.85 94.33 206.67 94.66 206.67 94.66 C206.67 94.66 208.00 2.00 208.00 2.00 C208.00 2.00 236.00 2.33 236.00 2.33 C236.00 2.33 236.33 123.01 236.33 123.01 C236.33 123.01 157.00 123.01 157.00 123.01 C157.00 123.01 122.33 80.49 122.33 80.49 Z M30.12 123.01 C30.12 123.01 1.77 123.01 1.77 123.01 C1.77 123.01 1.77 2.00 1.77 2.00 C1.77 2.00 115.16 1.67 115.16 1.67 C115.16 1.67 115.16 30.67 115.16 30.67 C115.16 30.67 30.12 30.33 30.12 30.33 C30.12 30.33 30.12 52.33 30.12 52.33 C30.12 52.33 115.16 52.33 115.16 52.33 C115.16 52.33 115.16 80.33 115.16 80.33 C115.16 80.33 30.12 80.67 30.12 80.67 C30.12 80.67 30.12 123.01 30.12 123.01 Z"/></svg>