<svg xmlns="http://www.w3.org/2000/svg" viewBox="0 0 1477 286" width="1477" height="286"><path fill="#000000" fill-rule="evenodd" d="M1418.71 284.54 C1390.36 284.54 1333.67 284.54 1305.32 284.54 C1276.97 284.54 1248.63 256.20 1248.63 227.85 C1248.63 199.50 1248.63 43.60 1248.63 43.60 C1248.63 43.60 1305.32 43.60 1305.32 43.60 C1305.32 43.60 1305.32 171.16 1305.32 199.50 C1305.32 227.85 1305.32 227.85 1333.67 227.85 C1362.01 227.85 1362.01 227.85 1390.36 227.85 C1418.71 227.85 1418.71 227.85 1418.71 199.50 C1418.71 171.16 1418.71 43.60 1418.71 43.60 C1418.71 43.60 1475.40 43.60 1475.40 43.60 C1475.40 43.60 1475.40 199.50 1475.40 227.85 C1475.40 256.20 1447.05 284.54 1418.71 284.54 Z M1177.76 284.54 C1149.41 284.54 1135.24 284.54 1092.72 284.54 C1050.20 284.54 1021.86 256.20 1021.86 227.85 C1021.86 199.50 1021.86 227.85 1021.86 199.50 C1021.86 171.16 1050.20 136.07 1092.72 136.07 C1135.24 136.07 1149.41 135.58 1177.76 135.58 C1177.76 114.17 1177.76 100.29 1149.41 100.29 C1121.07 100.29 1050.20 100.29 1050.20 100.29 C1050.20 100.29 1050.20 43.60 1050.20 43.60 C1050.20 43.60 1106.90 43.60 1149.41 43.60 C1191.93 43.60 1234.45 71.94 1234.45 128.64 C1234.45 185.33 1234.45 199.50 1234.45 227.85 C1234.45 256.20 1206.11 284.54 1177.76 284.54 Z M1106.90 192.21 C1078.55 192.21 1078.55 192.54 1078.55 207.37 C1078.55 227.85 1078.55 227.85 1106.90 227.85 C1135.24 227.85 1121.07 227.85 1149.41 227.85 C1177.76 227.85 1177.76 227.85 1177.76 192.54 C1149.41 192.54 1135.24 192.21 1106.90 192.21 Z M950.99 142.81 C950.99 114.46 950.99 100.29 922.64 100.29 C894.30 100.29 894.30 100.29 894.30 100.29 C894.30 100.29 894.30 284.54 894.30 284.54 C894.30 284.54 837.60 284.54 837.60 284.54 C837.60 284.54 837.60 100.29 837.60 100.29 C837.60 100.29 837.60 100.29 809.26 100.29 C780.91 100.29 780.91 114.46 780.91 142.81 C780.91 171.16 780.91 284.54 780.91 284.54 C780.91 284.54 724.22 284.54 724.22 284.54 C724.22 284.54 724.22 171.16 724.22 114.46 C724.22 57.77 752.57 43.60 809.26 43.42 C865.95 43.42 865.95 43.42 922.64 43.42 C979.34 43.60 1007.68 57.77 1007.68 114.46 C1007.68 156.98 1007.68 284.54 1007.68 284.54 C1007.68 284.54 950.99 284.54 950.99 284.54 C950.99 284.54 950.99 171.16 950.99 142.81 Z M653.35 43.60 C653.35 43.60 710.05 43.60 710.05 43.60 C710.05 43.60 710.05 284.54 710.05 284.54 C710.05 284.54 653.35 284.54 653.35 284.54 C653.35 284.54 653.35 43.60 653.35 43.60 Z M497.45 142.81 C497.45 171.16 497.45 284.54 497.45 284.54 C497.45 284.54 440.75 284.54 440.75 284.54 C440.75 284.54 440.75 185.33 440.75 128.64 C440.75 71.94 483.27 43.60 539.97 43.60 C596.66 43.60 639.18 43.60 639.18 43.60 C639.18 43.60 639.18 100.29 639.18 100.29 C639.18 100.29 582.49 100.29 554.14 100.29 C525.79 100.29 497.45 109.12 497.45 142.81 Z M369.89 284.54 C341.54 284.54 327.37 284.54 284.85 284.54 C242.33 284.54 221.49 256.20 221.49 227.85 C221.49 199.50 221.00 227.85 221.00 199.50 C221.00 171.16 242.33 135.58 284.85 135.58 C327.37 135.58 369.89 135.58 369.89 135.58 C369.89 114.46 355.72 107.13 341.54 107.13 C327.37 107.13 242.33 107.13 242.33 107.13 C242.33 107.13 242.33 43.60 242.33 43.60 C242.33 43.60 299.02 43.60 341.54 43.60 C384.06 43.60 426.58 86.12 426.58 142.81 C426.58 199.50 426.58 171.11 426.58 213.63 C426.58 256.15 398.24 284.54 369.89 284.54 Z M306.21 192.54 C285.05 192.54 284.85 193.20 284.85 210.66 C284.85 228.13 284.85 227.85 306.21 227.85 C327.57 227.85 313.20 227.85 341.54 227.85 C369.89 227.85 369.89 227.85 369.89 192.87 C341.54 192.87 327.37 192.54 306.21 192.54 Z M150.87 284.54 C150.87 284.54 150.87 185.33 150.87 150.78 C150.87 116.23 128.94 108.11 100.60 108.11 C72.25 108.11 58.08 107.62 58.08 107.62 C58.08 107.62 58.08 284.54 58.08 284.54 C58.08 284.54 1.39 284.54 1.39 284.54 C1.39 284.54 1.39 1.08 1.39 1.08 C1.39 1.08 58.08 1.08 58.08 1.08 C58.08 1.08 58.08 43.60 58.08 43.60 C58.08 43.60 72.25 43.60 114.77 43.60 C157.29 43.60 207.26 71.94 207.26 128.64 C207.26 185.33 206.77 284.54 206.77 284.54 C206.77 284.54 150.87 284.54 150.87 284.54 Z"/></svg>