<svg xmlns="http://www.w3.org/2000/svg" viewBox="0 0 1393 685" width="1393" height="685"><path fill="#000000" fill-rule="evenodd" d="M1333.74 682.39 C1333.74 682.39 1291.23 639.87 1291.23 639.87 C1291.23 639.87 1290.60 540.66 1290.60 540.66 C1290.60 540.66 1106.97 540.66 1106.97 540.66 C1106.97 540.66 1106.97 682.39 1106.97 682.39 C1106.97 682.39 1064.45 682.39 1064.45 682.39 C1064.45 682.39 1007.76 625.70 1007.76 625.70 C1007.76 625.70 1007.76 299.72 1007.76 299.72 C1007.76 299.72 1106.97 299.72 1106.97 299.72 C1106.97 299.72 1106.97 441.45 1106.97 441.45 C1106.97 441.45 1291.23 441.45 1291.23 441.45 C1291.23 441.45 1291.23 299.72 1291.23 299.72 C1291.23 299.72 1390.44 299.72 1390.44 299.72 C1390.44 299.72 1391.68 683.03 1391.68 683.03 C1391.68 683.03 1333.74 682.39 1333.74 682.39 Z M1121.15 186.33 C1121.15 186.33 1121.15 2.08 1121.15 2.08 C1121.15 2.08 1362.09 2.08 1362.09 2.08 C1362.09 2.08 1362.09 58.77 1362.09 58.77 C1362.09 58.77 1177.84 58.77 1177.84 58.77 C1177.84 58.77 1177.84 172.16 1177.84 172.16 C1177.84 172.16 1305.40 172.16 1305.40 172.16 C1305.40 172.16 1305.40 136.35 1305.40 136.35 C1305.40 136.35 1269.99 136.75 1269.99 136.75 C1269.99 136.75 1248.71 115.46 1248.71 115.46 C1248.71 115.46 1248.71 87.12 1248.71 87.12 C1248.71 87.12 1362.09 87.12 1362.09 87.12 C1362.09 87.12 1362.09 228.85 1362.09 228.85 C1362.09 228.85 1162.98 228.85 1162.98 228.85 C1162.98 228.85 1121.15 186.33 1121.15 186.33 Z M1043.38 192.86 C1043.38 192.86 1042.74 58.77 1042.74 58.77 C1042.74 58.77 908.53 58.77 908.53 58.77 C908.53 58.77 908.59 229.49 908.59 229.49 C908.59 229.49 886.70 228.85 886.70 228.85 C886.70 228.85 851.86 194.14 851.86 194.14 C851.86 194.14 851.86 2.08 851.86 2.08 C851.86 2.08 1100.53 2.08 1100.53 2.08 C1100.53 2.08 1100.53 228.85 1100.53 228.85 C1100.53 228.85 1078.63 228.85 1078.63 228.85 C1078.63 228.85 1043.38 192.86 1043.38 192.86 Z M767.26 200.56 C767.26 200.56 766.82 1.44 766.82 1.44 C766.82 1.44 823.51 2.08 823.51 2.08 C823.51 2.08 823.51 228.85 823.51 228.85 C823.51 228.85 795.16 228.85 795.16 228.85 C795.16 228.85 767.26 200.56 767.26 200.56 Z M639.26 228.85 C639.26 228.85 618.02 229.49 618.02 229.49 C618.02 229.49 582.57 194.04 582.57 194.04 C582.57 194.04 582.57 143.81 582.57 143.81 C582.57 143.81 525.87 143.81 525.87 143.81 C525.87 143.81 497.53 115.46 497.53 115.46 C497.53 115.46 497.53 2.08 497.53 2.08 C497.53 2.08 554.22 2.08 554.22 2.08 C554.22 2.08 554.22 86.91 554.22 86.91 C554.22 86.91 674.15 87.55 674.15 87.55 C674.15 87.55 674.15 2.08 674.15 2.08 C674.15 2.08 731.94 2.08 731.94 2.08 C731.94 2.08 731.94 143.81 731.94 143.81 C731.94 143.81 639.26 143.81 639.26 143.81 C639.26 143.81 639.26 228.85 639.26 228.85 Z M284.93 193.50 C284.93 193.50 284.93 2.08 284.93 2.08 C284.93 2.08 341.62 2.08 341.62 2.08 C341.62 2.08 341.62 172.16 341.62 172.16 C341.62 172.16 489.85 172.16 489.85 172.16 C489.85 172.16 491.14 228.85 491.14 228.85 C491.14 228.85 320.97 228.85 320.97 228.85 C320.97 228.85 284.93 193.50 284.93 193.50 Z M369.97 299.72 C369.97 299.72 369.97 682.39 369.97 682.39 C369.97 682.39 327.45 682.39 327.45 682.39 C327.45 682.39 270.75 625.70 270.75 625.70 C270.75 625.70 270.75 540.66 270.75 540.66 C270.75 540.66 100.68 540.66 100.68 540.66 C100.68 540.66 100.68 682.39 100.68 682.39 C100.68 682.39 65.22 682.39 65.22 682.39 C65.22 682.39 1.46 619.21 1.46 619.21 C1.46 619.21 1.46 299.67 1.46 299.67 C1.46 299.67 100.03 299.67 100.03 299.67 C100.03 299.67 100.68 441.45 100.68 441.45 C100.68 441.45 270.75 441.45 270.75 441.45 C270.75 441.45 270.75 299.72 270.75 299.72 C270.75 299.72 369.97 299.72 369.97 299.72 Z M72.33 87.12 C72.33 87.12 192.54 87.12 192.54 87.12 C192.54 87.12 193.18 143.81 193.18 143.81 C193.18 143.81 72.33 143.81 72.33 143.81 C72.33 143.81 72.33 228.85 72.33 228.85 C72.33 228.85 51.05 228.85 51.05 228.85 C51.05 228.85 15.64 192.86 15.64 192.86 C15.64 192.86 15.64 2.08 15.64 2.08 C15.64 2.08 256.58 2.08 256.58 2.08 C256.58 2.08 256.58 58.77 256.58 58.77 C256.58 58.77 72.33 58.77 72.33 58.77 C72.33 58.77 72.33 87.12 72.33 87.12 Z M525.87 682.39 C525.87 682.39 483.35 682.39 483.35 682.39 C483.35 682.39 426.66 625.70 426.66 625.70 C426.66 625.70 426.66 299.72 426.66 299.72 C426.66 299.72 525.87 299.72 525.87 299.72 C525.87 299.72 525.87 682.39 525.87 682.39 Z M951.07 384.75 C951.07 384.75 681.78 384.75 681.78 384.75 C681.78 384.75 681.78 583.18 681.78 583.18 C681.78 583.18 866.03 583.18 866.03 583.18 C866.03 583.18 866.03 540.66 866.03 540.66 C866.03 540.66 817.34 540.66 817.34 540.66 C817.34 540.66 766.82 490.15 766.82 490.15 C766.82 490.15 766.82 441.45 766.82 441.45 C766.82 441.45 951.07 441.45 951.07 441.45 C951.07 441.45 951.07 682.39 951.07 682.39 C951.07 682.39 639.26 682.39 639.26 682.39 C639.26 682.39 582.57 625.70 582.57 625.70 C582.57 625.70 582.57 299.72 582.57 299.72 C582.57 299.72 951.07 299.72 951.07 299.72 C951.07 299.72 951.07 384.75 951.07 384.75 Z"/></svg>