<svg xmlns="http://www.w3.org/2000/svg" viewBox="0 0 812 102" width="812" height="102"><path fill="#000000" fill-rule="evenodd" d="M810.57 30.51 C810.57 30.51 741.83 30.51 741.83 30.51 C741.83 30.51 741.83 36.23 741.83 36.23 C741.83 36.23 810.57 36.23 810.57 36.23 C810.57 36.23 810.57 99.25 810.57 99.25 C810.57 99.25 724.65 99.25 724.65 99.25 C724.65 99.25 713.19 87.79 713.19 87.79 C713.19 87.79 713.19 70.60 713.19 70.60 C713.19 70.60 781.93 70.60 781.93 70.60 C781.93 70.60 781.93 64.88 781.93 64.88 C781.93 64.88 724.65 64.88 724.65 64.88 C724.65 64.88 713.19 53.42 713.19 53.42 C713.19 53.42 713.19 1.86 713.19 1.86 C713.19 1.86 810.57 1.86 810.57 1.86 C810.57 1.86 810.57 30.51 810.57 30.51 Z M690.28 99.25 C690.28 99.25 678.82 87.79 678.82 87.79 C678.82 87.79 678.82 30.51 678.82 30.51 C678.82 30.51 638.72 30.51 638.72 30.51 C638.72 30.51 638.72 70.60 638.72 70.60 C638.72 70.60 673.09 70.60 673.09 70.60 C673.09 70.60 673.09 99.25 673.09 99.25 C673.09 99.25 621.54 99.25 621.54 99.25 C621.54 99.25 610.08 87.79 610.08 87.79 C610.08 87.79 610.08 1.86 610.08 1.86 C610.08 1.86 707.46 1.86 707.46 1.86 C707.46 1.86 707.46 99.25 707.46 99.25 C707.46 99.25 690.28 99.25 690.28 99.25 Z M529.89 30.51 C529.89 30.51 529.89 99.25 529.89 99.25 C529.89 99.25 512.70 99.25 512.70 99.25 C512.70 99.25 501.25 87.79 501.25 87.79 C501.25 87.79 501.25 1.86 501.25 1.86 C501.25 1.86 604.35 1.86 604.35 1.86 C604.35 1.86 604.35 30.51 604.35 30.51 C604.35 30.51 529.89 30.51 529.89 30.51 Z M478.33 99.25 C478.33 99.25 466.88 87.79 466.88 87.79 C466.88 87.79 466.88 30.51 466.88 30.51 C466.88 30.51 421.12 30.51 421.12 30.51 C421.12 30.51 421.05 70.60 421.05 70.60 C421.05 70.60 461.15 70.60 461.15 70.60 C461.15 70.60 461.15 99.25 461.15 99.25 C461.15 99.25 403.86 99.25 403.86 99.25 C403.86 99.25 392.41 87.79 392.41 87.79 C392.41 87.79 392.41 1.86 392.41 1.86 C392.41 1.86 495.52 1.86 495.52 1.86 C495.52 1.86 495.52 99.25 495.52 99.25 C495.52 99.25 478.33 99.25 478.33 99.25 Z M317.94 30.51 C317.94 30.51 317.94 70.60 317.94 70.60 C317.94 70.60 386.68 70.60 386.68 70.60 C386.68 70.60 386.68 99.25 386.68 99.25 C386.68 99.25 300.76 99.25 300.76 99.25 C300.76 99.25 289.30 87.79 289.30 87.79 C289.30 87.79 289.30 1.86 289.30 1.86 C289.30 1.86 386.68 1.86 386.68 1.86 C386.68 1.86 386.68 30.51 386.68 30.51 C386.68 30.51 317.94 30.51 317.94 30.51 Z M266.39 99.25 C266.39 99.25 254.93 87.79 254.93 87.79 C254.93 87.79 254.93 1.86 254.93 1.86 C254.93 1.86 283.57 1.86 283.57 1.86 C283.57 1.86 283.57 99.25 283.57 99.25 C283.57 99.25 266.39 99.25 266.39 99.25 Z M156.01 100.01 C156.01 100.01 155.79 99.77 155.79 99.77 C155.79 99.77 211.62 43.94 211.62 43.94 C211.62 43.94 244.14 77.69 244.14 77.69 C244.14 77.69 219.38 99.78 219.38 99.78 C219.38 99.78 156.01 100.01 156.01 100.01 Z M117.12 58.39 C117.12 58.39 89.51 58.62 89.51 58.62 C89.51 58.62 1.14 5.90 1.14 5.90 C1.14 5.90 174.95 5.90 174.95 5.90 C174.95 5.90 206.19 38.31 206.19 38.31 C206.19 38.31 150.36 93.96 150.36 93.96 C150.36 93.96 117.12 58.39 117.12 58.39 Z"/></svg>