<svg xmlns="http://www.w3.org/2000/svg" viewBox="0 0 302 47" width="302" height="47"><path fill="#000000" fill-rule="evenodd" d="M300.03 17.46 C300.03 17.46 300.03 45.30 300.03 45.30 C300.03 45.30 252.30 45.30 252.30 45.30 C252.30 45.30 252.30 33.37 252.30 33.37 C252.30 33.37 288.10 33.37 288.10 33.37 C288.10 33.37 288.10 29.39 288.10 29.39 C288.10 29.39 252.30 29.39 252.30 29.39 C252.30 29.39 252.30 1.55 252.30 1.55 C252.30 1.55 300.03 1.55 300.03 1.55 C300.03 1.55 300.03 13.48 300.03 13.48 C300.03 13.48 264.23 13.48 264.23 13.48 C264.23 13.48 264.23 17.46 264.23 17.46 C264.23 17.46 300.03 17.46 300.03 17.46 Z M236.39 1.55 C236.39 1.55 248.32 1.55 248.32 1.55 C248.32 1.55 248.32 45.30 248.32 45.30 C248.32 45.30 236.39 45.30 236.39 45.30 C236.39 45.30 236.39 1.55 236.39 1.55 Z M208.54 13.48 C208.54 13.48 208.54 45.30 208.54 45.30 C208.54 45.30 196.61 45.30 196.61 45.30 C196.61 45.30 196.61 13.48 196.61 13.48 C196.61 13.48 172.74 13.48 172.74 13.48 C172.74 13.48 172.74 1.55 172.74 1.55 C172.74 1.55 232.83 1.55 232.83 1.55 C232.83 1.55 232.41 13.48 232.41 13.48 C232.41 13.48 208.54 13.48 208.54 13.48 Z M156.83 13.48 C156.83 13.48 132.96 13.48 132.96 13.48 C132.96 13.48 132.96 45.30 132.96 45.30 C132.96 45.30 121.03 45.30 121.03 45.30 C121.03 45.30 121.03 1.55 121.03 1.55 C121.03 1.55 168.76 1.55 168.76 1.55 C168.76 1.55 168.76 45.30 168.76 45.30 C168.76 45.30 156.83 45.30 156.83 45.30 C156.83 45.30 156.83 13.48 156.83 13.48 Z M105.12 29.39 C105.12 29.39 77.27 29.39 77.27 29.39 C77.27 29.39 77.27 45.30 77.27 45.30 C77.27 45.30 65.34 45.30 65.34 45.30 C65.34 45.30 65.34 1.55 65.34 1.55 C65.34 1.55 117.05 1.55 117.05 1.55 C117.05 1.55 117.05 45.30 117.05 45.30 C117.05 45.30 105.12 45.30 105.12 45.30 C105.12 45.30 105.12 29.39 105.12 29.39 Z M105.12 13.48 C105.12 13.48 77.27 13.48 77.27 13.48 C77.27 13.48 77.27 17.46 77.27 17.46 C77.27 17.46 105.12 17.46 105.12 17.46 C105.12 17.46 105.12 13.48 105.12 13.48 Z M49.42 13.48 C49.42 13.48 13.62 13.48 13.62 13.48 C13.62 13.48 13.62 45.30 13.62 45.30 C13.62 45.30 1.69 45.30 1.69 45.30 C1.69 45.30 1.69 1.55 1.69 1.55 C1.69 1.55 61.36 1.55 61.36 1.55 C61.36 1.55 61.36 45.30 61.36 45.30 C61.36 45.30 49.42 45.30 49.42 45.30 C49.42 45.30 49.42 13.48 49.42 13.48 Z M37.49 45.30 C37.49 45.30 25.56 45.30 25.56 45.30 C25.56 45.30 25.56 17.46 25.56 17.46 C25.56 17.46 37.49 17.46 37.49 17.46 C37.49 17.46 37.49 45.30 37.49 45.30 Z"/></svg>