<svg xmlns="http://www.w3.org/2000/svg" viewBox="0 0 1115 159" width="1115" height="159"><path fill="#000000" fill-rule="evenodd" d="M908.32 43.78 C908.32 43.78 908.32 1.26 908.32 1.26 C908.32 1.26 1114.00 1.26 1114.00 1.26 C1114.00 1.26 1114.00 43.78 1114.00 43.78 C1114.00 43.78 908.32 43.78 908.32 43.78 Z M695.72 1.26 C695.72 1.26 894.14 1.26 894.14 1.26 C894.14 1.26 894.14 43.78 894.14 43.78 C894.14 43.78 738.24 43.78 738.24 43.78 C738.24 43.78 738.24 114.97 738.24 114.97 C738.24 114.97 894.14 114.97 894.14 114.97 C894.14 114.97 894.14 157.49 894.14 157.49 C894.14 157.49 695.72 157.49 695.72 157.49 C695.72 157.49 695.72 1.26 695.72 1.26 Z M780.76 57.95 C780.76 57.95 894.14 57.95 894.14 57.95 C894.14 57.95 894.14 100.47 894.14 100.47 C894.14 100.47 780.76 100.47 780.76 100.47 C780.76 100.47 780.76 57.95 780.76 57.95 Z M639.03 100.47 C639.03 100.47 532.50 100.47 532.50 100.47 C532.50 100.47 532.50 157.49 532.50 157.49 C532.50 157.49 491.00 157.49 491.00 157.49 C491.00 157.49 490.50 1.26 490.50 1.26 C490.50 1.26 681.55 1.26 681.55 1.26 C681.55 1.26 681.55 157.49 681.55 157.49 C681.55 157.49 639.03 157.49 639.03 157.49 C639.03 157.49 639.03 100.47 639.03 100.47 Z M639.03 43.78 C639.03 43.78 533.00 43.78 533.00 43.78 C533.00 43.78 533.00 57.95 533.00 57.95 C533.00 57.95 639.03 57.95 639.03 57.95 C639.03 57.95 639.03 43.78 639.03 43.78 Z M334.00 157.49 C334.00 157.49 292.00 157.49 292.00 157.49 C292.00 157.49 292.00 1.26 292.00 1.26 C292.00 1.26 476.00 1.26 476.00 1.26 C476.00 1.26 476.50 43.78 476.50 43.78 C476.50 43.78 334.50 43.78 334.50 43.78 C334.50 43.78 334.00 157.49 334.00 157.49 Z M236.00 1.26 C236.00 1.26 278.00 1.26 278.00 1.26 C278.00 1.26 278.00 157.49 278.00 157.49 C278.00 157.49 235.50 157.49 235.50 157.49 C235.50 157.49 236.00 1.26 236.00 1.26 Z M178.00 43.78 C178.00 43.78 43.75 43.78 43.75 43.78 C43.75 43.78 43.75 157.49 43.75 157.49 C43.75 157.49 1.23 157.49 1.23 157.49 C1.23 157.49 1.23 1.26 1.23 1.26 C1.23 1.26 221.00 1.26 221.00 1.26 C221.00 1.26 221.00 157.49 221.00 157.49 C221.00 157.49 178.50 157.49 178.50 157.49 C178.50 157.49 178.00 43.78 178.00 43.78 Z M128.79 157.49 C128.79 157.49 86.27 157.49 86.27 157.49 C86.27 157.49 86.27 57.95 86.27 57.95 C86.27 57.95 128.79 57.95 128.79 57.95 C128.79 57.95 128.79 157.49 128.79 157.49 Z M1113.50 100.47 C1113.50 100.47 908.32 100.47 908.32 100.47 C908.32 100.47 908.32 57.95 908.32 57.95 C908.32 57.95 1113.50 57.95 1113.50 57.95 C1113.50 57.95 1113.50 100.47 1113.50 100.47 Z M1113.91 157.49 C1113.91 157.49 908.32 157.49 908.32 157.49 C908.32 157.49 908.32 114.97 908.32 114.97 C908.32 114.97 1113.91 114.97 1113.91 114.97 C1113.91 114.97 1113.91 157.49 1113.91 157.49 Z"/></svg>