<svg xmlns="http://www.w3.org/2000/svg" viewBox="0 0 1113 59" width="1113" height="59"><path fill="#000000" fill-rule="evenodd" d="M1042.16 56.77 C1042.16 56.77 1042.16 2.00 1042.16 2.00 C1042.16 2.00 1111.50 2.00 1111.50 2.00 C1111.50 2.00 1111.50 17.26 1111.50 17.26 C1111.50 17.26 1057.16 17.52 1057.16 17.52 C1057.16 17.52 1057.16 42.15 1057.16 42.15 C1057.16 42.15 1111.50 42.15 1111.50 42.15 C1111.50 42.15 1111.50 57.02 1111.50 57.02 C1111.50 57.02 1042.16 56.77 1042.16 56.77 Z M1081.78 22.34 C1081.78 22.34 1111.50 22.34 1111.50 22.34 C1111.50 22.34 1111.50 37.39 1111.50 37.39 C1111.50 37.39 1081.78 37.14 1081.78 37.14 C1081.78 37.14 1081.78 22.34 1081.78 22.34 Z M1022.35 17.52 C1022.35 17.52 982.72 17.01 982.72 17.01 C982.72 17.01 982.72 56.77 982.72 56.77 C982.72 56.77 968.10 57.02 968.10 57.02 C968.10 57.02 968.35 2.53 968.35 2.53 C968.35 2.53 1037.29 2.53 1037.29 2.53 C1037.29 2.53 1037.29 56.77 1037.29 56.77 C1037.29 56.77 1022.35 56.77 1022.35 56.77 C1022.35 56.77 1022.35 17.52 1022.35 17.52 Z M948.22 2.00 C948.22 2.00 962.91 2.00 962.91 2.00 C962.91 2.00 962.91 57.02 962.91 57.02 C962.91 57.02 948.48 57.02 948.48 57.02 C948.48 57.02 948.22 2.00 948.22 2.00 Z M928.53 42.38 C928.53 42.38 928.53 42.15 928.53 42.15 C928.53 42.15 928.64 42.15 928.64 42.15 C928.64 42.15 928.64 42.39 928.64 42.39 C928.64 42.39 928.53 42.38 928.53 42.38 Z M873.75 57.22 C873.75 57.22 873.75 2.53 873.75 2.53 C873.75 2.53 888.46 2.53 888.46 2.53 C888.46 2.53 888.69 42.15 888.69 42.15 C888.69 42.15 928.53 42.38 928.53 42.38 C928.53 42.38 928.53 56.98 928.53 56.98 C928.53 56.98 873.75 57.22 873.75 57.22 Z M928.18 2.00 C928.18 2.00 943.10 2.53 943.10 2.53 C943.10 2.53 943.10 42.15 943.10 42.15 C943.10 42.15 928.64 42.15 928.64 42.15 C928.64 42.15 928.18 2.00 928.18 2.00 Z M869.59 42.15 C869.59 42.15 869.12 57.22 869.12 57.22 C869.12 57.22 799.69 56.98 799.69 56.98 C799.69 56.98 799.69 2.00 799.69 2.00 C799.69 2.00 869.59 2.00 869.59 2.00 C869.59 2.00 869.12 17.14 869.12 17.14 C869.12 17.14 814.32 17.38 814.32 17.38 C814.32 17.38 814.32 22.34 814.32 22.34 C814.32 22.34 869.35 22.34 869.35 22.34 C869.35 22.34 869.12 37.18 869.12 37.18 C869.12 37.18 814.32 36.71 814.32 36.71 C814.32 36.71 814.32 42.15 814.32 42.15 C814.32 42.15 869.59 42.15 869.59 42.15 Z M780.12 2.00 C780.12 2.00 794.50 2.00 794.50 2.00 C794.50 2.00 794.50 56.75 794.50 56.75 C794.50 56.75 779.89 56.75 779.89 56.75 C779.89 56.75 780.12 2.00 780.12 2.00 Z M705.35 2.00 C705.35 2.00 720.48 2.53 720.48 2.53 C720.48 2.53 720.25 42.15 720.25 42.15 C720.25 42.15 774.69 42.15 774.69 42.15 C774.69 42.15 774.69 56.75 774.69 56.75 C774.69 56.75 705.35 56.52 705.35 56.52 C705.35 56.52 705.35 2.00 705.35 2.00 Z M631.25 2.53 C631.25 2.53 700.68 2.00 700.68 2.00 C700.68 2.00 700.68 17.38 700.68 17.38 C700.68 17.38 645.91 17.14 645.91 17.14 C645.91 17.14 645.91 22.34 645.91 22.34 C645.91 22.34 700.68 22.34 700.68 22.34 C700.68 22.34 700.68 37.41 700.68 37.41 C700.68 37.41 645.91 37.18 645.91 37.18 C645.91 37.18 645.91 42.15 645.91 42.15 C645.91 42.15 700.68 42.15 700.68 42.15 C700.68 42.15 700.68 56.75 700.68 56.75 C700.68 56.75 630.78 56.52 630.78 56.52 C630.78 56.52 631.25 2.53 631.25 2.53 Z M556.75 2.53 C556.75 2.53 626.10 2.53 626.10 2.53 C626.10 2.53 626.10 56.98 626.10 56.98 C626.10 56.98 556.75 56.75 556.75 56.75 C556.75 56.75 556.75 2.53 556.75 2.53 Z M571.61 42.15 C571.61 42.15 610.05 42.15 610.05 42.15 C610.05 42.15 610.28 36.48 610.28 36.48 C610.28 36.48 576.57 36.48 576.57 36.48 C576.57 36.48 576.57 22.34 576.57 22.34 C576.57 22.34 610.75 22.34 610.75 22.34 C610.75 22.34 610.98 17.38 610.98 17.38 C610.98 17.38 571.61 17.38 571.61 17.38 C571.61 17.38 571.61 42.15 571.61 42.15 Z M447.79 42.15 C447.79 42.15 502.64 42.15 502.64 42.15 C502.64 42.15 502.64 37.18 502.64 37.18 C502.64 37.18 447.79 37.18 447.79 37.18 C447.79 37.18 447.79 2.53 447.79 2.53 C447.79 2.53 517.13 2.53 517.13 2.53 C517.13 2.53 517.13 16.91 517.13 16.91 C517.13 16.91 463.04 17.14 463.04 17.14 C463.04 17.14 462.80 22.34 462.80 22.34 C462.80 22.34 517.13 22.34 517.13 22.34 C517.13 22.34 517.13 56.98 517.13 56.98 C517.13 56.98 447.79 56.75 447.79 56.75 C447.79 56.75 447.79 42.15 447.79 42.15 Z M427.97 57.22 C427.97 57.22 427.97 2.53 427.97 2.53 C427.97 2.53 443.47 2.53 443.47 2.53 C443.47 2.53 443.23 57.22 443.23 57.22 C443.23 57.22 427.97 57.22 427.97 57.22 Z M353.74 22.34 C353.74 22.34 383.82 22.34 383.82 22.34 C383.82 22.34 383.36 36.95 383.36 36.95 C383.36 36.95 353.74 36.71 353.74 36.71 C353.74 36.71 353.74 22.34 353.74 22.34 Z M328.91 42.15 C328.91 42.15 383.82 42.15 383.82 42.15 C383.82 42.15 383.36 57.22 383.36 57.22 C383.36 57.22 314.16 57.45 314.16 57.45 C314.16 57.45 314.40 2.53 314.40 2.53 C314.40 2.53 383.82 2.53 383.82 2.53 C383.82 2.53 384.06 17.14 384.06 17.14 C384.06 17.14 328.91 17.14 328.91 17.14 C328.91 17.14 328.91 42.15 328.91 42.15 Z M293.89 17.61 C293.89 17.61 254.29 17.84 254.29 17.84 C254.29 17.84 254.05 57.45 254.05 57.45 C254.05 57.45 239.52 57.22 239.52 57.22 C239.52 57.22 239.76 2.53 239.76 2.53 C239.76 2.53 309.10 2.53 309.10 2.53 C309.10 2.53 309.10 57.22 309.10 57.22 C309.10 57.22 293.89 57.22 293.89 57.22 C293.89 57.22 293.89 17.61 293.89 17.61 Z M219.94 2.53 C219.94 2.53 234.95 2.53 234.95 2.53 C234.95 2.53 234.95 57.22 234.95 57.22 C234.95 57.22 219.94 57.22 219.94 57.22 C219.94 57.22 219.94 2.53 219.94 2.53 Z M215.15 42.15 C215.15 42.15 215.38 57.22 215.38 57.22 C215.38 57.22 145.95 57.22 145.95 57.22 C145.95 57.22 145.72 2.53 145.72 2.53 C145.72 2.53 215.15 2.53 215.15 2.53 C215.15 2.53 214.91 17.14 214.91 17.14 C214.91 17.14 160.51 17.38 160.51 17.38 C160.51 17.38 160.51 22.34 160.51 22.34 C160.51 22.34 215.38 22.34 215.38 22.34 C215.38 22.34 215.15 37.41 215.15 37.41 C215.15 37.41 160.51 37.18 160.51 37.18 C160.51 37.18 160.51 42.15 160.51 42.15 C160.51 42.15 215.15 42.15 215.15 42.15 Z M86.66 22.34 C86.66 22.34 140.69 22.34 140.69 22.34 C140.69 22.34 140.69 36.25 140.69 36.25 C140.69 36.25 86.66 36.60 86.66 36.60 C86.66 36.60 86.66 42.15 86.66 42.15 C86.66 42.15 140.69 42.15 140.69 42.15 C140.69 42.15 140.69 56.87 140.69 56.87 C140.69 56.87 71.35 57.22 71.35 57.22 C71.35 57.22 71.35 2.53 71.35 2.53 C71.35 2.53 140.69 2.53 140.69 2.53 C140.69 2.53 141.04 17.38 141.04 17.38 C141.04 17.38 86.66 17.38 86.66 17.38 C86.66 17.38 86.66 22.34 86.66 22.34 Z M2.00 42.15 C2.00 42.15 52.09 42.15 52.09 42.15 C52.09 42.15 52.09 37.18 52.09 37.18 C52.09 37.18 2.00 37.18 2.00 37.18 C2.00 37.18 2.00 2.53 2.00 2.53 C2.00 2.53 66.73 2.53 66.73 2.53 C66.73 2.53 66.73 17.73 66.73 17.73 C66.73 17.73 17.20 17.38 17.20 17.38 C17.20 17.38 17.20 22.34 17.20 22.34 C17.20 22.34 66.73 22.34 66.73 22.34 C66.73 22.34 66.73 57.22 66.73 57.22 C66.73 57.22 2.23 57.22 2.23 57.22 C2.23 57.22 2.00 42.15 2.00 42.15 Z"/></svg>