<svg xmlns="http://www.w3.org/2000/svg" viewBox="0 0 2338 168" width="2338" height="168"><path fill="#000000" fill-rule="evenodd" d="M2297.89 166.91 C2297.89 166.91 2297.89 115.95 2297.89 115.95 C2297.89 115.95 2030.58 115.95 2030.58 115.95 C2030.58 115.95 2030.02 166.91 2030.02 166.91 C2030.02 166.91 1991.75 166.91 1991.75 166.91 C1991.75 166.91 1991.75 39.35 1991.75 39.35 C1991.75 39.35 2030.02 1.09 2030.02 1.09 C2030.02 1.09 2297.89 1.09 2297.89 1.09 C2297.89 1.09 2336.16 39.35 2336.16 39.35 C2336.16 39.35 2336.16 166.91 2336.16 166.91 C2336.16 166.91 2297.89 166.91 2297.89 166.91 Z M2297.89 39.35 C2297.89 39.35 2030.02 39.35 2030.02 39.35 C2030.02 39.35 2030.58 77.68 2030.58 77.68 C2030.58 77.68 2297.89 77.68 2297.89 77.68 C2297.89 77.68 2297.89 39.35 2297.89 39.35 Z M1915.22 115.89 C1915.22 115.89 1647.34 115.89 1647.34 115.89 C1647.34 115.89 1647.34 166.91 1647.34 166.91 C1647.34 166.91 1609.08 166.91 1609.08 166.91 C1609.08 166.91 1609.08 1.09 1609.08 1.09 C1609.08 1.09 1647.34 1.09 1647.34 1.09 C1647.34 1.09 1647.34 77.62 1647.34 77.62 C1647.34 77.62 1915.22 77.62 1915.22 77.62 C1915.22 77.62 1915.22 1.09 1915.22 1.09 C1915.22 1.09 1953.48 1.09 1953.48 1.09 C1953.48 1.09 1953.48 166.91 1953.48 166.91 C1953.48 166.91 1915.22 166.91 1915.22 166.91 C1915.22 166.91 1915.22 115.89 1915.22 115.89 Z M1532.54 39.35 C1532.54 39.35 1264.67 39.35 1264.67 39.35 C1264.67 39.35 1264.67 166.91 1264.67 166.91 C1264.67 166.91 1226.40 166.91 1226.40 166.91 C1226.40 166.91 1226.40 39.35 1226.40 39.35 C1226.40 39.35 1264.67 1.09 1264.67 1.09 C1264.67 1.09 1532.54 1.09 1532.54 1.09 C1532.54 1.09 1570.81 39.35 1570.81 39.35 C1570.81 39.35 1570.81 166.91 1570.81 166.91 C1570.81 166.91 1532.54 166.91 1532.54 166.91 C1532.54 166.91 1532.54 39.35 1532.54 39.35 Z M1149.86 115.95 C1149.86 115.95 881.99 115.95 881.99 115.95 C881.99 115.95 881.99 166.91 881.99 166.91 C881.99 166.91 843.72 166.91 843.72 166.91 C843.72 166.91 843.72 39.35 843.72 39.35 C843.72 39.35 881.99 1.09 881.99 1.09 C881.99 1.09 1149.86 1.09 1149.86 1.09 C1149.86 1.09 1188.13 39.35 1188.13 39.35 C1188.13 39.35 1188.13 166.91 1188.13 166.91 C1188.13 166.91 1149.86 166.91 1149.86 166.91 C1149.86 166.91 1149.86 115.95 1149.86 115.95 Z M1149.86 39.35 C1149.86 39.35 881.99 39.35 881.99 39.35 C881.99 39.35 881.99 77.68 881.99 77.68 C881.99 77.68 1149.86 77.68 1149.86 77.68 C1149.86 77.68 1149.86 39.35 1149.86 39.35 Z M767.19 166.91 C767.19 166.91 728.92 115.89 728.92 115.89 C728.92 115.89 499.31 115.89 499.31 115.89 C499.31 115.89 499.31 166.91 499.31 166.91 C499.31 166.91 461.05 166.91 461.05 166.91 C461.05 166.91 461.05 39.35 461.05 39.35 C461.05 39.35 499.31 1.09 499.31 1.09 C499.31 1.09 767.19 1.09 767.19 1.09 C767.19 1.09 805.46 39.35 805.46 39.35 C805.46 39.35 805.46 77.62 805.46 77.62 C805.46 77.62 767.19 115.89 767.19 115.89 C767.19 115.89 805.46 166.91 805.46 166.91 C805.46 166.91 767.19 166.91 767.19 166.91 Z M767.19 39.35 C767.19 39.35 499.31 39.35 499.31 39.35 C499.31 39.35 499.31 77.62 499.31 77.62 C499.31 77.62 767.19 77.62 767.19 77.62 C767.19 77.62 767.19 39.35 767.19 39.35 Z M384.51 1.09 C384.51 1.09 422.78 1.09 422.78 1.09 C422.78 1.09 422.78 166.91 422.78 166.91 C422.78 166.91 384.51 166.91 384.51 166.91 C384.51 166.91 384.51 1.09 384.51 1.09 Z M40.10 115.89 C40.10 115.89 40.10 166.91 40.10 166.91 C40.10 166.91 1.84 166.91 1.84 166.91 C1.84 166.91 1.84 39.35 1.84 39.35 C1.84 39.35 40.10 1.09 40.10 1.09 C40.10 1.09 307.98 1.09 307.98 1.09 C307.98 1.09 346.24 39.35 346.24 39.35 C346.24 39.35 346.24 77.62 346.24 77.62 C346.24 77.62 307.98 115.89 307.98 115.89 C307.98 115.89 40.10 115.89 40.10 115.89 Z M307.98 39.35 C307.98 39.35 40.10 39.35 40.10 39.35 C40.10 39.35 40.10 77.62 40.10 77.62 C40.10 77.62 307.98 77.62 307.98 77.62 C307.98 77.62 307.98 39.35 307.98 39.35 Z"/></svg>