<svg xmlns="http://www.w3.org/2000/svg" viewBox="0 0 2335 86" width="2335" height="86"><path fill="#000000" fill-rule="evenodd" d="M2314.77 81.96 C2314.77 75.86 2314.77 69.77 2314.77 63.67 C2320.86 63.67 2326.96 63.67 2333.05 63.67 C2333.05 69.77 2333.05 75.86 2333.05 81.96 C2326.96 81.96 2320.86 81.96 2314.77 81.96 Z M2314.77 3.29 C2320.72 3.29 2326.68 3.29 2332.63 3.29 C2332.63 21.43 2332.63 39.58 2332.63 57.72 C2326.68 57.72 2320.72 57.72 2314.77 57.72 C2314.77 39.58 2314.77 21.43 2314.77 3.29 Z M2134.48 3.29 C2188.62 3.29 2242.77 3.29 2296.91 3.29 C2296.91 9.39 2296.91 15.48 2296.91 21.58 C2248.72 21.58 2200.52 21.58 2152.34 21.58 C2152.34 25.54 2152.34 29.51 2152.34 33.48 C2200.52 33.48 2248.72 33.48 2296.91 33.48 C2296.91 39.58 2296.91 45.67 2296.91 51.77 C2248.72 51.77 2200.52 51.77 2152.34 51.77 C2152.34 55.73 2152.34 59.70 2152.34 63.67 C2200.52 63.67 2248.72 63.67 2296.91 63.67 C2296.91 69.77 2296.91 75.86 2296.91 81.96 C2242.77 81.96 2188.62 81.96 2134.48 81.96 C2134.48 55.74 2134.48 29.51 2134.48 3.29 Z M2108.54 21.58 C2103.72 21.58 2098.90 21.58 2094.08 21.58 C2077.36 21.58 2060.63 21.58 2043.91 21.58 C2043.91 41.56 2043.91 61.55 2043.91 81.53 C2040.45 82.80 2030.26 81.98 2025.62 81.96 C2025.62 61.83 2025.62 41.70 2025.62 21.58 C2001.53 21.58 1977.43 21.58 1953.34 21.58 C1953.34 15.48 1953.34 9.39 1953.34 3.29 C2007.48 3.29 2061.63 3.29 2115.77 3.29 C2117.02 6.68 2116.21 16.60 2116.19 21.15 C2114.35 21.82 2111.06 21.58 2108.54 21.58 Z M1917.19 3.29 C1923.15 3.29 1929.10 3.29 1935.05 3.29 C1935.05 29.51 1935.05 55.74 1935.05 81.96 C1929.10 81.96 1923.15 81.96 1917.19 81.96 C1917.19 55.74 1917.19 29.51 1917.19 3.29 Z M1881.05 81.96 C1832.86 81.96 1784.66 81.96 1736.48 81.96 C1736.48 55.88 1736.48 29.79 1736.48 3.72 C1784.81 3.72 1833.15 3.72 1881.48 3.72 C1885.87 8.25 1890.26 12.79 1894.66 17.32 C1896.07 18.60 1897.49 19.88 1898.91 21.15 C1898.91 25.26 1898.91 29.37 1898.91 33.48 C1896.55 34.82 1894.45 37.94 1892.53 39.86 C1891.52 40.87 1890.41 41.20 1889.98 42.84 C1892.96 45.67 1895.93 48.51 1898.91 51.34 C1898.91 55.59 1898.91 59.85 1898.91 64.10 C1894.23 68.63 1889.55 73.17 1884.88 77.70 C1883.60 79.12 1882.33 80.54 1881.05 81.96 Z M1881.05 21.58 C1838.82 21.58 1796.57 21.58 1754.34 21.58 C1754.34 25.54 1754.34 29.51 1754.34 33.48 C1794.73 33.48 1835.13 33.48 1875.52 33.48 C1876.44 31.75 1879.40 28.48 1881.05 27.53 C1881.05 25.55 1881.05 23.56 1881.05 21.58 Z M1881.05 57.72 C1879.35 56.16 1877.65 54.60 1875.95 53.04 C1875.66 52.62 1875.38 52.19 1875.10 51.77 C1861.92 51.77 1848.73 51.77 1835.55 51.77 C1808.48 51.77 1781.41 51.77 1754.34 51.77 C1754.34 55.73 1754.34 59.70 1754.34 63.67 C1796.57 63.67 1838.82 63.67 1881.05 63.67 C1881.05 61.69 1881.05 59.70 1881.05 57.72 Z M1570.40 80.13 C1522.55 80.13 1474.69 80.13 1426.84 80.13 C1426.13 78.18 1426.42 74.70 1426.42 72.08 C1426.42 66.72 1426.42 61.35 1426.42 55.99 C1426.42 37.92 1426.42 19.85 1426.42 1.78 C1474.55 1.78 1522.69 1.78 1570.82 1.78 C1575.34 6.44 1579.86 11.10 1584.37 15.76 C1585.79 17.03 1587.20 18.30 1588.61 19.57 C1588.61 33.68 1588.61 47.80 1588.61 61.92 C1583.81 66.57 1579.01 71.23 1574.21 75.89 C1572.94 77.30 1571.67 78.71 1570.40 80.13 Z M1570.40 19.99 C1528.48 19.99 1486.55 19.99 1444.62 19.99 C1444.62 33.97 1444.62 47.94 1444.62 61.92 C1486.55 61.92 1528.48 61.92 1570.40 61.92 C1570.40 47.94 1570.40 33.97 1570.40 19.99 Z M1246.43 1.78 C1300.35 1.78 1354.29 1.78 1408.21 1.78 C1408.21 7.85 1408.21 13.92 1408.21 19.99 C1360.22 19.99 1312.21 19.99 1264.22 19.99 C1264.22 23.94 1264.22 27.90 1264.22 31.85 C1312.21 31.85 1360.22 31.85 1408.21 31.85 C1408.21 37.92 1408.21 43.99 1408.21 50.06 C1360.22 50.06 1312.21 50.06 1264.22 50.06 C1264.22 54.01 1264.22 57.96 1264.22 61.92 C1312.21 61.92 1360.22 61.92 1408.21 61.92 C1408.21 67.99 1408.21 74.06 1408.21 80.13 C1354.29 80.13 1300.35 80.13 1246.43 80.13 C1246.43 54.01 1246.43 27.89 1246.43 1.78 Z M1210.02 80.55 C1162.17 80.55 1114.30 80.55 1066.45 80.55 C1065.75 78.61 1066.03 75.12 1066.03 72.50 C1066.03 67.14 1066.03 61.77 1066.03 56.41 C1066.03 38.34 1066.03 20.27 1066.03 2.21 C1114.16 2.21 1162.31 2.21 1210.44 2.21 C1214.96 6.86 1219.47 11.52 1223.99 16.18 C1225.40 17.45 1226.81 18.72 1228.23 19.99 C1228.23 34.11 1228.23 48.23 1228.23 62.34 C1223.43 67.00 1218.63 71.66 1213.83 76.32 C1212.56 77.73 1211.29 79.14 1210.02 80.55 Z M1210.02 20.42 C1168.09 20.42 1126.16 20.42 1084.24 20.42 C1084.24 34.39 1084.24 48.37 1084.24 62.34 C1126.16 62.34 1168.09 62.34 1210.02 62.34 C1210.02 48.37 1210.02 34.39 1210.02 20.42 Z M1030.04 80.13 C982.19 80.13 934.32 80.13 886.47 80.13 C885.77 78.18 886.05 74.70 886.05 72.08 C886.05 66.72 886.05 61.35 886.05 55.99 C886.05 37.92 886.05 19.85 886.05 1.78 C934.18 1.78 982.33 1.78 1030.46 1.78 C1034.98 6.44 1039.49 11.10 1044.01 15.76 C1045.42 17.03 1046.83 18.30 1048.25 19.57 C1048.25 33.68 1048.25 47.80 1048.25 61.92 C1043.45 66.57 1038.65 71.23 1033.85 75.89 C1032.58 77.30 1031.31 78.71 1030.04 80.13 Z M1030.04 19.99 C988.11 19.99 946.18 19.99 904.26 19.99 C904.26 33.97 904.26 47.94 904.26 61.92 C946.18 61.92 988.11 61.92 1030.04 61.92 C1030.04 47.94 1030.04 33.97 1030.04 19.99 Z M850.48 55.99 C808.42 55.99 766.34 55.99 724.28 55.99 C724.28 63.89 724.28 71.80 724.28 79.70 C718.35 79.70 712.42 79.70 706.49 79.70 C706.49 59.66 706.49 39.61 706.49 19.57 C711.15 15.05 715.81 10.53 720.47 6.02 C721.74 4.61 723.01 3.19 724.28 1.78 C766.34 1.78 808.42 1.78 850.48 1.78 C855.00 6.44 859.51 11.10 864.03 15.76 C865.44 17.03 866.85 18.30 868.26 19.57 C868.26 39.61 868.26 59.66 868.26 79.70 C862.34 79.70 856.41 79.70 850.48 79.70 C850.48 71.80 850.48 63.89 850.48 55.99 Z M850.48 19.99 C808.42 19.99 766.34 19.99 724.28 19.99 C724.28 25.92 724.28 31.85 724.28 37.78 C766.34 37.78 808.42 37.78 850.48 37.78 C850.48 31.85 850.48 25.92 850.48 19.99 Z M544.22 83.20 C543.51 81.25 543.80 77.75 543.80 75.13 C543.80 69.74 543.80 64.36 543.80 58.98 C501.73 58.98 459.65 58.98 417.57 58.98 C417.57 66.91 417.57 74.84 417.57 82.78 C414.12 84.05 403.93 83.22 399.30 83.20 C399.30 57.00 399.30 30.78 399.30 4.58 C405.39 4.58 411.48 4.58 417.57 4.58 C417.57 16.62 417.57 28.66 417.57 40.70 C459.65 40.70 501.73 40.70 543.80 40.70 C543.80 28.66 543.80 16.62 543.80 4.58 C549.89 4.58 555.98 4.58 562.07 4.58 C562.07 30.64 562.07 56.71 562.07 82.78 C558.69 84.02 548.77 83.22 544.22 83.20 Z M373.80 22.85 C368.98 22.85 364.17 22.85 359.35 22.85 C342.64 22.85 325.91 22.85 309.20 22.85 C309.20 42.82 309.20 62.80 309.20 82.78 C305.75 84.05 295.55 83.22 290.92 83.20 C290.92 63.09 290.92 42.97 290.92 22.85 C266.84 22.85 242.76 22.85 218.67 22.85 C218.67 16.76 218.67 10.67 218.67 4.58 C272.79 4.58 326.91 4.58 381.02 4.58 C382.27 7.97 381.47 17.88 381.45 22.43 C379.61 23.10 376.31 22.85 373.80 22.85 Z M182.55 4.58 C188.50 4.58 194.45 4.58 200.40 4.58 C200.40 30.78 200.40 57.00 200.40 83.20 C194.45 83.20 188.50 83.20 182.55 83.20 C182.55 57.00 182.55 30.78 182.55 4.58 Z M146.42 83.20 C104.21 83.20 61.99 83.20 19.77 83.20 C15.24 78.53 10.71 73.85 6.17 69.18 C4.76 67.90 3.34 66.63 1.92 65.35 C1.92 45.10 1.92 24.83 1.92 4.58 C7.87 4.58 13.83 4.58 19.77 4.58 C19.77 24.69 19.77 44.81 19.77 64.93 C37.91 64.93 56.04 64.93 74.17 64.93 C74.17 44.81 74.17 24.69 74.17 4.58 C80.12 4.58 86.08 4.58 92.02 4.58 C92.02 24.69 92.02 44.81 92.02 64.93 C110.16 64.93 128.29 64.93 146.42 64.93 C146.42 44.81 146.42 24.69 146.42 4.58 C152.37 4.58 158.33 4.58 164.27 4.58 C164.27 24.83 164.27 45.10 164.27 65.35 C159.60 69.88 154.92 74.42 150.25 78.95 C148.97 80.37 147.70 81.78 146.42 83.20 Z"/></svg>