<svg xmlns="http://www.w3.org/2000/svg" viewBox="0 0 1441 88" width="1441" height="88"><path fill="#000000" fill-rule="evenodd" d="M1419.18 85.99 C1419.18 85.99 1418.85 50.95 1418.85 36.06 C1418.85 21.17 1411.11 21.84 1397.04 21.84 C1397.04 28.34 1397.04 85.66 1397.04 85.66 C1397.04 85.66 1376.51 86.33 1376.51 86.33 C1376.51 86.33 1376.18 1.27 1376.18 1.27 C1376.18 1.27 1397.04 1.27 1411.11 1.27 C1425.17 1.27 1439.24 15.33 1439.24 29.40 C1439.24 43.47 1439.24 85.66 1439.24 85.66 C1439.24 85.66 1419.18 85.99 1419.18 85.99 Z M1341.83 85.82 C1328.25 85.82 1340.51 85.82 1326.59 85.82 C1312.67 85.82 1298.75 78.69 1298.75 64.59 C1298.75 50.50 1298.75 43.54 1298.75 23.20 C1299.08 8.16 1312.69 1.27 1326.59 1.27 C1333.53 1.27 1333.74 1.27 1341.50 1.27 C1354.24 1.27 1369.01 8.89 1369.01 22.21 C1369.01 43.14 1368.68 50.50 1368.68 64.59 C1368.68 78.69 1355.42 85.82 1341.83 85.82 Z M1347.83 29.45 C1347.83 22.21 1347.83 21.54 1333.74 21.54 C1319.65 21.54 1319.65 22.11 1319.65 29.45 C1319.65 36.79 1319.65 51.31 1319.65 57.64 C1319.65 63.96 1319.65 63.63 1333.74 63.96 C1347.83 64.30 1347.83 64.56 1347.83 57.64 C1347.83 50.71 1347.83 36.70 1347.83 29.45 Z M1270.40 1.27 C1270.40 1.27 1291.50 1.27 1291.50 1.27 C1291.50 1.27 1291.50 86.31 1291.50 86.31 C1291.50 86.31 1270.40 86.31 1270.40 86.31 C1270.40 86.31 1270.40 1.27 1270.40 1.27 Z M1245.43 86.31 C1245.43 86.31 1224.71 86.31 1224.71 86.31 C1224.71 86.31 1224.43 23.33 1224.43 23.33 C1224.43 23.33 1206.10 23.66 1206.10 23.66 C1206.10 23.66 1206.43 1.27 1206.43 1.27 C1206.43 1.27 1263.77 1.27 1263.77 1.27 C1263.77 1.27 1264.10 23.33 1264.10 23.33 C1264.10 23.33 1245.43 23.66 1245.43 23.66 C1245.43 23.66 1245.43 86.31 1245.43 86.31 Z M1135.24 58.30 C1135.24 44.12 1135.57 1.27 1135.57 1.27 C1135.57 1.27 1155.66 1.27 1155.66 1.27 C1155.66 1.27 1155.66 22.00 1155.66 43.79 C1155.66 65.59 1163.24 65.67 1177.25 65.67 C1177.91 59.19 1177.25 1.27 1177.25 1.27 C1177.25 1.27 1198.18 1.27 1198.18 1.27 C1198.18 1.27 1198.18 86.31 1198.18 86.31 C1198.18 86.31 1176.83 85.98 1162.66 85.98 C1148.48 85.98 1135.24 72.47 1135.24 58.30 Z M1072.02 1.27 C1072.02 1.27 1093.65 1.27 1093.65 1.27 C1093.65 1.27 1093.98 65.00 1093.98 65.00 C1093.98 65.00 1128.72 65.00 1128.72 65.00 C1128.72 65.00 1128.72 86.31 1128.72 86.31 C1128.72 86.31 1072.02 86.31 1072.02 86.31 C1072.02 86.31 1072.02 1.27 1072.02 1.27 Z M1036.96 86.52 C1023.26 86.52 1035.63 86.52 1021.59 86.52 C1007.56 86.52 993.52 79.33 993.52 65.12 C993.52 50.91 993.52 43.89 993.52 23.38 C993.85 8.22 1007.57 1.27 1021.59 1.27 C1028.59 1.27 1028.80 1.27 1036.63 1.27 C1049.47 1.27 1064.37 8.95 1064.37 22.38 C1064.37 43.49 1064.03 50.91 1064.03 65.12 C1064.03 79.33 1050.66 86.52 1036.96 86.52 Z M1043.01 29.69 C1043.01 22.38 1043.01 21.71 1028.80 21.71 C1014.59 21.71 1014.59 22.29 1014.59 29.69 C1014.59 37.08 1014.59 51.72 1014.59 58.10 C1014.59 64.49 1014.59 64.15 1028.80 64.49 C1043.01 64.82 1043.01 65.09 1043.01 58.10 C1043.01 51.12 1043.01 36.99 1043.01 29.69 Z M951.32 86.58 C951.32 86.58 936.27 86.58 936.27 86.58 C936.27 86.58 908.18 22.06 908.18 22.06 C908.18 22.06 901.12 21.72 901.12 21.72 C901.12 21.72 901.12 1.27 901.12 1.27 C901.12 1.27 921.89 1.27 921.89 1.27 C921.89 1.27 943.78 61.18 943.78 61.18 C943.78 61.18 964.69 1.27 964.69 1.27 C964.69 1.27 986.43 1.27 986.43 1.27 C986.43 1.27 986.43 21.39 986.43 21.39 C986.43 21.39 977.73 21.72 977.73 21.72 C977.73 21.72 951.32 86.58 951.32 86.58 Z M837.60 1.27 C837.60 1.27 894.30 1.27 894.30 1.27 C894.30 1.27 894.12 22.48 894.12 22.48 C894.12 22.48 858.93 22.48 858.93 22.48 C858.93 22.48 858.93 29.62 858.93 29.62 C858.93 29.62 880.04 29.62 880.04 29.62 C880.04 29.62 880.39 57.97 880.39 57.97 C880.39 57.97 858.93 57.97 858.93 57.97 C858.93 57.97 858.93 65.27 858.93 65.27 C858.93 65.27 894.66 65.44 894.66 65.44 C894.66 65.44 894.83 86.31 894.83 86.31 C894.83 86.31 837.78 86.31 837.78 86.31 C837.78 86.31 837.60 1.27 837.60 1.27 Z M808.56 58.30 C808.56 58.30 790.89 58.67 790.89 58.67 C790.89 58.67 773.96 86.31 773.96 86.31 C773.96 86.31 752.55 86.31 752.55 86.31 C752.55 86.31 752.89 66.33 752.89 66.33 C752.89 66.33 764.56 66.00 764.56 66.00 C764.56 66.00 764.47 66.30 770.96 57.67 C756.79 57.67 759.79 35.00 759.79 21.66 C759.79 8.33 773.96 1.27 788.14 1.27 C802.31 1.27 830.66 1.27 830.66 1.27 C830.66 1.27 830.66 86.31 830.66 86.31 C830.66 86.31 808.89 86.31 808.89 86.31 C808.89 86.31 808.56 58.30 808.56 58.30 Z M809.23 22.00 C809.23 22.00 802.31 22.00 788.14 22.00 C778.96 22.66 778.96 29.62 788.14 29.62 C802.31 29.62 809.23 29.62 809.23 29.62 C809.23 29.62 809.23 22.00 809.23 22.00 Z M659.79 86.31 C645.69 86.31 611.13 86.31 611.13 86.31 C611.13 86.31 610.83 1.70 610.83 1.70 C610.83 1.70 645.69 1.70 659.79 1.70 C673.89 1.70 681.71 16.10 681.71 30.20 C681.71 44.30 681.11 44.01 681.11 58.11 C681.11 72.21 673.89 86.31 659.79 86.31 Z M659.79 29.90 C659.79 22.65 659.79 22.27 631.58 22.35 C631.58 29.90 631.58 57.40 631.58 64.81 C659.79 65.10 659.79 64.87 659.79 58.11 C659.79 49.26 659.79 37.16 659.79 29.90 Z M547.32 1.27 C547.32 1.27 604.02 1.27 604.02 1.27 C604.02 1.27 603.84 22.48 603.84 22.48 C603.84 22.48 568.65 22.48 568.65 22.48 C568.65 22.48 568.65 29.62 568.65 29.62 C568.65 29.62 589.75 29.62 589.75 29.62 C589.75 29.62 590.11 57.97 590.11 57.97 C590.11 57.97 568.65 57.97 568.65 57.97 C568.65 57.97 568.65 65.27 568.65 65.27 C568.65 65.27 604.37 65.44 604.37 65.44 C604.37 65.44 604.55 86.31 604.55 86.31 C604.55 86.31 547.50 86.31 547.50 86.31 C547.50 86.31 547.32 1.27 547.32 1.27 Z M483.27 1.27 C483.27 1.27 539.97 1.27 539.97 1.27 C539.97 1.27 539.79 22.48 539.79 22.48 C539.79 22.48 504.60 22.48 504.60 22.48 C504.60 22.48 504.60 29.62 504.60 29.62 C504.60 29.62 525.71 29.62 525.71 29.62 C525.71 29.62 526.06 57.97 526.06 57.97 C526.06 57.97 504.60 57.97 504.60 57.97 C504.60 57.97 504.60 65.27 504.60 65.27 C504.60 65.27 540.33 65.44 540.33 65.44 C540.33 65.44 540.50 86.31 540.50 86.31 C540.50 86.31 483.45 86.31 483.45 86.31 C483.45 86.31 483.27 1.27 483.27 1.27 Z M419.49 86.31 C419.49 86.31 398.24 86.31 398.24 86.31 C398.24 86.31 398.73 1.29 398.73 1.29 C398.73 1.29 433.66 1.29 447.83 1.29 C462.00 1.29 476.17 15.46 476.17 29.63 C476.17 43.80 476.17 57.97 476.17 57.97 C476.17 57.97 419.49 57.97 419.49 57.97 C419.49 57.97 419.49 86.31 419.49 86.31 Z M454.73 29.63 C454.73 19.75 440.48 22.51 419.49 22.01 C419.49 28.56 419.49 29.63 419.49 29.63 C419.49 29.63 433.66 29.63 454.73 29.63 Z M363.18 86.31 C349.01 86.31 320.66 86.31 320.66 86.31 C320.66 86.31 320.66 64.00 320.66 64.00 C320.66 64.00 349.12 64.50 349.12 64.50 C349.12 64.50 370.12 66.93 370.12 57.97 C349.01 57.97 320.66 57.97 320.66 57.97 C320.66 57.97 320.66 43.79 320.66 29.62 C320.66 15.44 334.83 1.27 349.01 1.27 C363.18 1.27 391.53 1.27 391.53 1.27 C391.53 1.27 391.53 21.49 391.53 21.49 C391.53 21.49 357.62 22.00 357.62 22.00 C357.62 22.00 341.12 19.74 341.12 29.62 C363.18 29.62 391.53 29.62 391.53 29.62 C391.53 29.62 391.53 43.79 391.53 57.97 C391.53 72.14 377.36 86.31 363.18 86.31 Z M270.68 29.56 C270.68 29.56 313.20 29.56 313.20 29.56 C313.20 29.56 313.20 58.96 313.20 58.96 C313.20 58.96 270.68 58.96 270.68 58.96 C270.68 58.96 270.68 29.56 270.68 29.56 Z M242.00 57.97 C242.00 57.97 214.50 57.97 214.50 57.97 C214.50 57.97 214.00 86.31 214.00 86.31 C214.00 86.31 192.39 86.31 192.39 86.31 C192.39 86.31 192.39 1.27 192.39 1.27 C192.39 1.27 214.50 1.27 214.50 1.27 C214.50 1.27 214.00 29.62 214.00 29.62 C214.00 29.62 243.50 29.62 243.50 29.62 C243.50 29.62 243.00 1.27 243.00 1.27 C243.00 1.27 263.25 1.27 263.25 1.27 C263.25 1.27 263.25 86.31 263.25 86.31 C263.25 86.31 242.50 86.31 242.50 86.31 C242.50 86.31 242.00 57.97 242.00 57.97 Z M108.00 67.00 C108.00 60.36 108.00 38.50 108.00 29.62 C108.00 20.74 114.78 1.27 136.51 1.27 C158.24 1.27 185.65 1.27 185.65 1.27 C185.65 1.27 185.64 22.81 185.64 22.81 C185.64 22.81 157.30 23.00 143.13 22.50 C128.95 22.00 128.95 32.12 128.95 39.50 C128.95 46.88 128.95 43.79 128.95 50.00 C128.95 56.20 128.95 66.00 143.13 66.00 C157.30 66.00 163.47 66.00 163.47 66.00 C163.47 66.00 163.58 57.97 163.58 57.97 C163.58 57.97 143.13 57.97 143.13 57.97 C143.13 57.97 143.13 29.62 143.13 29.62 C143.13 29.62 185.65 29.62 185.65 29.62 C185.65 29.62 185.65 86.31 185.65 86.31 C185.65 86.31 157.30 86.31 136.51 86.31 C115.71 86.31 108.00 73.64 108.00 67.00 Z M79.50 1.27 C79.50 1.27 100.60 1.27 100.60 1.27 C100.60 1.27 100.60 86.31 100.60 86.31 C100.60 86.31 79.50 86.31 79.50 86.31 C79.50 86.31 79.50 1.27 79.50 1.27 Z M51.00 57.97 C51.00 57.97 23.50 57.97 23.50 57.97 C23.50 57.97 23.00 86.31 23.00 86.31 C23.00 86.31 1.39 86.31 1.39 86.31 C1.39 86.31 1.39 1.27 1.39 1.27 C1.39 1.27 23.50 1.27 23.50 1.27 C23.50 1.27 23.00 29.62 23.00 29.62 C23.00 29.62 52.50 29.62 52.50 29.62 C52.50 29.62 52.00 1.27 52.00 1.27 C52.00 1.27 72.25 1.27 72.25 1.27 C72.25 1.27 72.25 86.31 72.25 86.31 C72.25 86.31 51.50 86.31 51.50 86.31 C51.50 86.31 51.00 57.97 51.00 57.97 Z"/></svg>