<svg xmlns="http://www.w3.org/2000/svg" viewBox="0 0 1179 159" width="1179" height="159"><path fill="#000000" fill-rule="evenodd" d="M1134.88 157.43 C1106.53 157.43 958.02 157.43 958.02 157.43 C958.02 157.43 957.56 114.91 957.56 114.91 C957.56 114.91 1120.71 114.91 1120.71 114.91 C1120.71 114.91 1120.71 100.74 1120.71 100.74 C1120.71 100.74 1035.67 100.74 1007.32 100.74 C978.97 100.74 964.80 81.89 964.80 66.00 C964.80 50.11 964.80 50.11 964.80 37.49 C964.80 24.87 986.81 1.53 1021.49 1.53 C1056.17 1.53 1163.23 1.53 1163.23 1.53 C1163.23 1.53 1177.40 15.70 1177.40 15.70 C1177.40 15.70 1177.40 29.87 1177.40 29.87 C1177.40 29.87 1163.23 44.05 1163.23 44.05 C1163.23 44.05 1021.49 44.05 1021.49 44.05 C1021.49 44.05 1021.49 58.22 1021.49 58.22 C1021.49 58.22 1106.53 58.22 1134.88 58.22 C1163.23 58.22 1177.40 80.95 1177.40 94.97 C1177.40 100.66 1177.40 101.66 1177.40 101.80 C1177.40 101.82 1177.40 101.82 1177.40 101.82 C1177.40 101.96 1177.40 102.99 1177.40 108.99 C1177.40 123.48 1163.23 157.43 1134.88 157.43 Z M893.93 15.70 C893.93 15.70 908.11 1.53 908.11 1.53 C908.11 1.53 936.45 1.53 936.45 1.53 C936.45 1.53 950.63 15.70 950.63 15.70 C950.63 15.70 950.63 157.43 950.63 157.43 C950.63 157.43 893.93 157.43 893.93 157.43 C893.93 157.43 893.93 15.70 893.93 15.70 Z M746.30 114.91 C746.30 114.91 745.36 157.43 745.36 157.43 C745.36 157.43 689.75 157.43 689.75 157.43 C689.75 157.43 689.28 1.53 689.28 1.53 C689.28 1.53 745.83 1.53 745.83 1.53 C745.83 1.53 745.36 64.13 745.36 64.13 C745.36 64.13 757.98 64.13 757.98 64.13 C757.98 64.13 836.97 1.53 836.97 1.53 C836.97 1.53 873.43 1.53 873.43 1.53 C873.43 1.53 888.38 16.17 888.38 16.17 C888.38 16.17 888.38 29.87 888.38 29.87 C888.38 29.87 780.55 114.91 780.55 114.91 C780.55 114.91 746.30 114.91 746.30 114.91 Z M476.15 114.91 C476.15 100.74 476.15 114.91 476.15 94.51 C476.15 74.10 497.08 58.22 525.43 58.22 C553.78 58.22 596.30 58.22 596.30 58.22 C596.30 58.22 610.47 72.39 610.47 72.39 C610.47 72.39 610.47 86.57 610.47 86.57 C610.47 86.57 596.30 100.74 596.30 100.74 C596.30 100.74 525.43 100.74 525.43 100.74 C525.43 100.74 539.60 114.91 539.60 114.91 C539.60 114.91 624.64 114.91 624.64 114.91 C624.64 114.91 624.64 44.05 624.64 44.05 C624.64 44.05 476.62 44.05 476.62 44.05 C476.62 44.05 477.09 1.53 477.09 1.53 C477.09 1.53 610.47 1.53 638.82 1.53 C667.16 1.53 681.34 15.70 681.34 44.05 C681.34 72.39 681.34 157.43 681.34 157.43 C681.34 157.43 567.95 157.43 525.43 157.43 C482.91 157.43 476.15 129.08 476.15 114.91 Z M412.05 15.70 C412.05 15.70 426.22 1.53 426.22 1.53 C426.22 1.53 454.57 1.53 454.57 1.53 C454.57 1.53 468.74 15.70 468.74 15.70 C468.74 15.70 468.74 157.43 468.74 157.43 C468.74 157.43 412.05 157.43 412.05 157.43 C412.05 157.43 412.05 15.70 412.05 15.70 Z M355.35 86.57 C355.35 86.57 341.18 72.39 341.18 72.39 C341.18 72.39 341.18 51.98 341.18 51.98 C341.18 51.98 349.03 44.05 349.03 44.05 C349.03 44.05 256.14 44.05 256.14 44.05 C256.14 44.05 256.14 157.43 256.14 157.43 C256.14 157.43 199.45 157.43 199.45 157.43 C199.45 157.43 199.45 1.53 199.45 1.53 C199.45 1.53 327.01 1.53 355.35 1.53 C383.70 1.53 397.87 15.70 397.87 44.05 C397.87 72.39 397.87 72.39 397.87 72.39 C397.87 72.39 383.70 86.57 383.70 86.57 C383.70 86.57 355.35 86.57 355.35 86.57 Z M128.58 44.05 C128.58 44.05 128.58 157.43 128.58 157.43 C128.58 157.43 71.89 157.43 71.89 157.43 C71.89 157.43 71.89 44.05 71.89 44.05 C71.89 44.05 15.20 44.05 15.20 44.05 C15.20 44.05 1.02 29.87 1.02 29.87 C1.02 29.87 1.02 15.70 1.02 15.70 C1.02 15.70 15.20 1.53 15.20 1.53 C15.20 1.53 192.45 1.53 192.45 1.53 C192.45 1.53 191.99 44.05 191.99 44.05 C191.99 44.05 128.58 44.05 128.58 44.05 Z M837.24 80.02 C837.24 80.02 887.45 121.61 887.45 121.61 C887.45 121.61 887.92 157.43 887.92 157.43 C887.92 157.43 830.90 157.43 830.90 157.43 C830.90 157.43 831.36 143.26 831.36 143.26 C831.36 143.26 794.72 114.91 794.72 114.91 C794.72 114.91 837.24 80.02 837.24 80.02 Z"/></svg>