<svg xmlns="http://www.w3.org/2000/svg" viewBox="0 0 1853 102" width="1853" height="102"><path fill="#000000" fill-rule="evenodd" d="M1851.33 51.33 C1851.33 51.33 1843.86 58.42 1843.86 58.42 C1843.86 58.42 1836.33 58.42 1836.33 58.42 C1836.33 58.42 1829.69 50.33 1829.69 50.33 C1829.69 50.33 1829.69 30.08 1829.69 30.08 C1829.69 30.08 1801.34 30.08 1801.34 30.08 C1801.34 30.08 1801.34 100.94 1801.34 100.94 C1801.34 100.94 1780.33 100.94 1780.33 100.94 C1780.33 100.94 1780.33 1.73 1780.33 1.73 C1780.33 1.73 1815.52 1.73 1829.69 1.73 C1843.86 1.73 1851.67 9.33 1851.67 23.33 C1851.67 37.33 1851.33 51.33 1851.33 51.33 Z M1695.67 79.67 C1695.67 65.33 1695.00 37.33 1695.00 23.67 C1695.00 10.00 1702.13 1.73 1716.30 1.73 C1730.48 1.73 1765.67 1.73 1765.67 1.73 C1765.67 1.73 1773.00 8.67 1773.00 8.67 C1773.00 8.67 1773.00 22.00 1773.00 22.00 C1773.00 22.00 1766.33 30.08 1766.33 30.08 C1766.33 30.08 1716.30 30.08 1716.30 30.08 C1716.30 30.08 1716.30 37.00 1716.30 37.00 C1716.30 37.00 1773.00 36.67 1773.00 36.67 C1773.00 36.67 1773.00 64.33 1773.00 64.33 C1773.00 64.33 1716.30 64.00 1716.30 64.00 C1716.30 64.00 1716.30 72.60 1716.30 72.60 C1716.30 72.60 1773.00 72.60 1773.00 72.60 C1773.00 72.60 1773.00 100.94 1773.00 100.94 C1773.00 100.94 1730.48 100.94 1716.30 100.94 C1702.13 100.94 1695.67 94.00 1695.67 79.67 Z M1659.61 100.94 C1645.44 100.94 1582.00 100.94 1582.00 100.94 C1582.00 100.94 1581.67 1.73 1581.67 1.73 C1581.67 1.73 1602.92 1.73 1602.92 1.73 C1602.92 1.73 1603.25 72.67 1603.25 72.67 C1603.25 72.67 1623.67 72.60 1623.67 72.60 C1623.67 72.60 1624.00 1.73 1624.00 1.73 C1624.00 1.73 1645.44 1.73 1645.44 1.73 C1645.44 1.73 1645.44 72.60 1645.44 72.60 C1645.44 72.60 1667.00 72.60 1667.00 72.60 C1667.00 72.60 1667.33 1.73 1667.33 1.73 C1667.33 1.73 1687.96 1.73 1687.96 1.73 C1687.96 1.73 1687.96 44.25 1687.96 72.60 C1687.96 100.94 1673.78 100.94 1659.61 100.94 Z M1553.67 100.67 C1553.13 100.67 1517.88 100.67 1517.88 101.00 C1503.71 101.00 1496.33 94.44 1496.33 80.26 C1496.33 66.09 1496.33 38.67 1496.33 24.00 C1496.33 9.33 1503.71 1.73 1517.88 1.73 C1532.05 1.73 1538.33 1.73 1553.00 1.73 C1567.67 1.73 1574.57 9.33 1574.57 24.33 C1574.57 39.33 1574.90 66.09 1574.90 80.26 C1574.90 94.44 1566.67 100.67 1553.67 100.67 Z M1517.88 30.08 C1517.88 30.08 1517.55 72.67 1517.55 72.67 C1517.55 72.67 1553.33 72.33 1553.33 72.33 C1553.33 72.33 1553.67 29.75 1553.67 29.75 C1553.67 29.75 1517.88 30.08 1517.88 30.08 Z M1475.36 58.42 C1461.19 58.42 1439.67 58.09 1439.67 58.09 C1439.67 58.09 1439.67 100.33 1439.67 100.33 C1439.67 100.33 1411.83 100.33 1411.83 100.33 C1411.83 100.33 1411.50 1.73 1411.50 1.73 C1411.50 1.73 1455.00 1.73 1468.67 1.73 C1482.33 1.73 1489.53 9.67 1489.53 22.33 C1489.53 35.00 1489.53 37.33 1489.53 44.25 C1489.53 51.17 1489.53 58.42 1475.36 58.42 Z M1461.19 23.00 C1447.01 23.00 1440.33 23.00 1440.33 23.00 C1440.33 23.00 1439.67 37.00 1439.67 37.00 C1439.67 37.00 1475.36 36.67 1475.36 36.67 C1475.36 36.67 1475.36 23.00 1461.19 23.00 Z M1241.67 72.60 C1242.33 58.42 1241.33 37.67 1241.67 23.33 C1242.00 9.00 1248.59 1.73 1262.76 1.73 C1276.93 1.73 1312.33 1.73 1312.33 1.73 C1312.33 1.73 1319.45 9.00 1319.45 9.00 C1319.45 9.00 1319.45 23.67 1319.45 23.67 C1319.45 23.67 1312.12 30.08 1312.12 30.08 C1312.12 30.08 1262.76 30.08 1262.76 30.08 C1262.76 30.08 1262.76 38.33 1262.76 38.33 C1262.76 38.33 1319.45 38.67 1319.45 38.67 C1319.45 38.67 1319.45 65.00 1319.45 65.00 C1319.45 65.00 1262.76 65.67 1262.76 65.67 C1262.76 65.67 1262.76 72.60 1262.76 72.60 C1262.76 72.60 1319.45 72.60 1319.45 72.60 C1319.45 72.60 1319.45 100.94 1319.45 100.94 C1319.45 100.94 1291.11 100.94 1270.00 100.94 C1248.89 100.94 1241.00 86.77 1241.67 72.60 Z M1212.00 30.08 C1212.00 30.08 1177.72 30.08 1177.72 30.08 C1177.72 30.08 1177.72 100.94 1177.72 100.94 C1177.72 100.94 1157.00 100.94 1157.00 100.94 C1157.00 100.94 1156.67 1.73 1156.67 1.73 C1156.67 1.73 1198.67 1.73 1213.33 1.73 C1228.00 1.73 1234.41 9.33 1234.41 24.00 C1234.41 38.67 1234.41 58.42 1234.41 58.42 C1234.41 58.42 1211.67 58.09 1211.67 58.09 C1211.67 58.09 1212.00 30.08 1212.00 30.08 Z M1121.03 100.94 C1106.86 100.94 1106.86 100.94 1092.68 100.94 C1078.51 100.94 1064.34 86.77 1064.34 72.60 C1064.34 58.42 1064.34 44.25 1064.34 30.08 C1064.34 15.91 1072.03 1.73 1092.68 1.73 C1113.33 1.73 1114.67 1.73 1128.00 1.73 C1141.33 1.73 1149.38 9.07 1149.38 23.24 C1149.38 37.41 1149.38 58.42 1149.38 72.60 C1149.38 86.77 1135.20 100.94 1121.03 100.94 Z M1121.03 30.08 C1121.03 30.08 1092.68 30.08 1092.68 30.08 C1092.68 30.08 1092.68 72.60 1092.68 72.60 C1092.68 72.60 1121.03 72.60 1121.03 72.60 C1121.03 72.60 1121.03 30.08 1121.03 30.08 Z M1035.99 30.08 C1035.99 30.08 1015.33 30.08 1015.33 30.08 C1015.33 30.08 1015.33 100.94 1015.33 100.94 C1015.33 100.94 993.47 100.94 993.47 100.94 C993.47 100.94 993.47 30.08 993.47 30.08 C993.47 30.08 973.00 30.08 973.00 30.08 C973.00 30.08 972.67 100.94 972.67 100.94 C972.67 100.94 950.95 100.94 950.95 100.94 C950.95 100.94 950.95 1.73 950.95 1.73 C950.95 1.73 1021.82 1.73 1035.99 1.73 C1050.16 1.73 1058.33 10.00 1058.33 22.67 C1058.33 35.33 1058.33 100.94 1058.33 100.94 C1058.33 100.94 1035.99 100.94 1035.99 100.94 C1035.99 100.94 1035.99 30.08 1035.99 30.08 Z M809.22 30.08 C809.22 30.08 809.22 35.67 809.22 35.67 C809.22 35.67 837.56 36.00 851.74 36.00 C865.91 36.00 873.00 44.25 873.00 58.42 C873.00 72.60 873.00 65.00 873.00 79.67 C873.00 94.33 865.91 100.94 851.74 100.94 C837.56 100.94 788.67 100.94 788.67 100.94 C788.67 100.94 788.67 72.60 788.67 72.60 C788.67 72.60 851.74 72.60 851.74 72.60 C851.74 72.60 851.74 65.33 851.74 65.33 C851.74 65.33 837.56 64.76 816.67 64.76 C795.77 64.76 789.00 52.25 789.00 37.67 C789.00 31.08 789.00 36.00 789.00 22.67 C789.00 9.33 795.05 1.73 816.33 1.73 C837.62 1.73 865.91 1.73 865.91 1.73 C865.91 1.73 873.67 9.00 873.67 9.00 C873.67 9.00 873.67 23.33 873.67 23.33 C873.67 23.33 865.91 30.08 865.91 30.08 C865.91 30.08 809.22 30.08 809.22 30.08 Z M710.01 72.60 C710.01 52.53 710.01 39.00 710.01 23.67 C710.01 8.33 717.00 1.73 731.33 1.73 C745.67 1.73 774.00 1.73 774.00 1.73 C774.00 1.73 780.87 8.67 780.87 8.67 C780.87 8.67 780.87 24.00 780.87 24.00 C780.87 24.00 774.00 30.08 774.00 30.08 C774.00 30.08 724.18 30.08 724.18 30.08 C724.18 30.08 724.18 37.67 724.18 37.67 C724.18 37.67 780.87 38.33 780.87 38.33 C780.87 38.33 780.87 65.67 780.87 65.67 C780.87 65.67 724.18 65.33 724.18 65.33 C724.18 65.33 724.18 72.60 724.18 72.60 C724.18 72.60 780.87 72.60 780.87 72.60 C780.87 72.60 780.87 100.94 780.87 100.94 C780.87 100.94 738.35 100.94 732.33 100.94 C726.31 100.94 710.01 92.67 710.01 72.60 Z M681.66 30.08 C681.66 30.08 660.33 30.08 660.33 30.08 C660.33 30.08 660.67 100.94 660.67 100.94 C660.67 100.94 639.33 100.94 639.33 100.94 C639.33 100.94 639.00 30.08 639.00 30.08 C639.00 30.08 618.00 30.08 618.00 30.08 C618.00 30.08 618.67 100.94 618.67 100.94 C618.67 100.94 596.62 100.94 596.62 100.94 C596.62 100.94 596.62 1.73 596.62 1.73 C596.62 1.73 667.49 1.73 681.66 1.73 C695.83 1.73 704.67 10.33 704.67 23.67 C704.67 37.00 704.67 100.94 704.67 100.94 C704.67 100.94 681.66 100.94 681.66 100.94 C681.66 100.94 681.66 30.08 681.66 30.08 Z M568.27 100.94 C568.27 100.94 568.27 9.00 568.27 9.00 C568.27 9.00 575.00 1.73 575.00 1.73 C575.00 1.73 582.45 1.73 582.45 1.73 C582.45 1.73 590.00 9.00 590.00 9.00 C590.00 9.00 589.33 100.94 589.33 100.94 C589.33 100.94 568.27 100.94 568.27 100.94 Z M539.93 30.08 C539.93 30.08 539.93 100.94 539.93 100.94 C539.93 100.94 518.50 100.94 518.50 100.94 C518.50 100.94 518.50 30.08 518.50 30.08 C518.50 30.08 497.41 30.08 497.41 30.08 C497.41 30.08 490.00 22.50 490.00 22.50 C490.00 22.50 490.00 9.50 490.00 9.50 C490.00 9.50 497.41 1.73 497.41 1.73 C497.41 1.73 562.00 1.73 562.00 1.73 C562.00 1.73 561.50 30.08 561.50 30.08 C561.50 30.08 539.93 30.08 539.93 30.08 Z M327.33 72.60 C327.33 58.42 327.33 39.00 327.33 24.50 C327.33 10.00 335.00 1.73 355.68 1.73 C376.35 1.73 404.50 1.73 404.50 1.73 C404.50 1.73 412.37 8.50 412.37 8.50 C412.37 8.50 412.37 23.50 412.37 23.50 C412.37 23.50 404.50 30.08 404.50 30.08 C404.50 30.08 355.68 30.08 355.68 30.08 C355.68 30.08 355.68 37.00 355.68 37.00 C355.68 37.00 412.37 38.00 412.37 38.00 C412.37 38.00 412.37 65.00 412.37 65.00 C412.37 65.00 355.68 65.00 355.68 65.00 C355.68 65.00 355.68 72.60 355.68 72.60 C355.68 72.60 412.37 72.60 412.37 72.60 C412.37 72.60 412.37 100.94 412.37 100.94 C412.37 100.94 376.00 100.94 355.68 100.94 C335.35 100.94 327.33 86.77 327.33 72.60 Z M313.16 30.08 C313.16 30.08 270.64 30.08 270.64 30.08 C270.64 30.08 270.64 37.00 270.64 37.00 C270.64 37.00 320.50 37.50 320.50 37.50 C320.50 37.50 320.50 65.00 320.50 65.00 C320.50 65.00 270.64 65.50 270.64 65.50 C270.64 65.50 270.64 72.60 270.64 72.60 C270.64 72.60 320.66 72.60 320.66 72.60 C320.66 72.60 320.66 100.94 320.66 100.94 C320.66 100.94 284.81 100.94 270.64 100.94 C256.46 100.94 242.29 100.27 242.29 79.50 C242.29 58.73 242.29 38.00 242.29 24.00 C242.29 10.00 248.50 1.73 263.50 1.73 C275.00 1.73 313.16 1.73 313.16 1.73 C313.16 1.73 321.50 8.50 321.50 8.50 C321.50 8.50 321.00 23.00 321.00 23.00 C321.00 23.00 313.16 30.08 313.16 30.08 Z M213.94 58.42 C213.94 58.42 213.94 30.08 213.94 30.08 C213.94 30.08 185.60 30.08 185.60 30.08 C185.60 30.08 185.60 100.94 185.60 100.94 C185.60 100.94 165.00 100.94 165.00 100.94 C165.00 100.94 165.00 1.73 165.00 1.73 C165.00 1.73 199.77 1.73 213.94 1.73 C228.12 1.73 236.00 9.00 236.00 24.00 C236.00 39.00 235.50 58.42 235.50 58.42 C235.50 58.42 213.94 58.42 213.94 58.42 Z M135.50 66.00 C135.50 66.00 100.56 65.50 100.56 65.50 C100.56 65.50 100.56 100.94 100.56 100.94 C100.56 100.94 80.00 100.94 80.00 100.94 C80.00 100.94 80.50 8.50 80.50 8.50 C80.50 8.50 86.39 1.73 86.39 1.73 C86.39 1.73 94.00 1.73 94.00 1.73 C94.00 1.73 100.56 9.50 100.56 9.50 C100.56 9.50 100.56 37.00 100.56 37.00 C100.56 37.00 135.00 38.00 135.00 38.00 C135.00 38.00 135.50 8.50 135.50 8.50 C135.50 8.50 143.08 1.73 143.08 1.73 C143.08 1.73 150.00 1.73 150.00 1.73 C150.00 1.73 157.25 9.50 157.25 9.50 C157.25 9.50 157.25 100.94 157.25 100.94 C157.25 100.94 136.50 100.94 136.50 100.94 C136.50 100.94 135.50 66.00 135.50 66.00 Z M50.50 100.94 C50.50 100.94 29.69 100.94 29.69 100.94 C29.69 100.94 29.69 30.08 29.69 30.08 C29.69 30.08 8.00 30.08 8.00 30.08 C8.00 30.08 1.35 22.00 1.35 22.00 C1.35 22.00 1.35 8.00 1.35 8.00 C1.35 8.00 9.00 1.73 9.00 1.73 C9.00 1.73 72.21 1.73 72.21 1.73 C72.21 1.73 72.21 30.08 72.21 30.08 C72.21 30.08 50.00 30.08 50.00 30.08 C50.00 30.08 50.50 100.94 50.50 100.94 Z"/></svg>