<svg xmlns="http://www.w3.org/2000/svg" viewBox="0 0 971.739 574.320" width="971.7" height="574.3">
<g transform="matrix(1 0 0 -1 167.754 715.002)">
<path fill="#000148" fill-rule="evenodd" d="M0.519 350.346 C51.577 333.936 90.384 302.457 122.371 264.159 C154.359 302.457 193.166 333.936 244.224 350.346 C306.381 370.323 365.715 397.630 400.892 459.583 C412.432 479.910 415.698 505.846 412.497 531.739 C407.010 576.114 391.440 616.288 364.143 644.639 C347.481 661.944 330.608 684.682 317.723 715.002 L290.788 644.639 L122.371 644.639 L-46.045 644.639 L-72.980 715.002 C-85.865 684.682 -102.738 661.944 -119.400 644.639 C-146.697 616.288 -162.267 576.114 -167.754 531.739 C-170.955 505.846 -167.689 479.910 -156.149 459.583 C-120.972 397.630 -61.638 370.323 0.519 350.346 L0.519 350.346 ZM247.679 428.422 C204.858 428.422 170.131 442.377 170.131 459.583 C170.131 476.789 204.858 490.743 247.679 490.743 C290.500 490.743 325.227 476.789 325.227 459.583 C325.227 442.377 290.500 428.422 247.679 428.422 L247.679 428.422 ZM0.519 428.422 C-42.302 428.422 -77.029 442.377 -77.029 459.583 C-77.029 476.789 -42.302 490.743 0.519 490.743 C43.340 490.743 78.067 476.789 78.067 459.583 C78.067 442.377 43.340 428.422 0.519 428.422 Z"/>
<path fill="#000148" fill-rule="evenodd" d="M642.528 482.959 C642.168 407.012 593.725 359.901 518.288 353.691 C504.355 352.424 489.125 354.183 472.001 361.962 C458.519 368.087 447.095 378.350 433.136 383.263 C417.640 388.719 401.509 385.911 385.960 382.403 C339.615 371.949 275.244 342.887 249.560 282.990 C302.538 276.679 350.674 258.157 390.387 220.890 C421.577 191.622 435.983 169.921 479.326 154.751 C505.769 145.497 535.461 140.682 569.426 140.682 C648.935 140.682 713.068 166.847 756.933 219.327 C791.421 259.796 808.318 314.236 803.985 385.534 C800.942 444.759 778.408 492.734 735.876 529.166 C691.302 564.447 637.084 584.209 573.763 589.328 C613.600 566.350 640.019 533.473 642.528 482.959 Z"/>
</g></svg>