<svg xmlns="http://www.w3.org/2000/svg" viewBox="0 0 1374.138 457.840" width="1374.1" height="457.8">
<g transform="matrix(1 0 0 -1 364.149 762.800)">
<path fill="#7d0002" fill-rule="evenodd" d="M-364.149 304.959 L1009.990 304.959 L1009.990 762.800 L-364.149 762.800 L-364.149 304.959 Z"/>
<path fill="#ffffff" fill-rule="evenodd" d="M793.723 398.053 L793.723 398.053 L793.723 398.053 ZM-155.635 398.053 L-155.635 398.053 L-155.635 398.053 ZM186.256 744.375 L451.723 744.375 C515.778 744.375 568.185 691.967 568.185 627.913 L568.185 625.623 C575.706 630.739 585.052 633.781 595.149 633.781 L595.149 633.781 C613.315 633.781 629.051 623.932 636.099 609.873 L636.100 609.874 C654.465 632.917 675.736 648.346 699.643 655.904 C705.437 657.737 711.480 659.106 717.761 660.008 C723.705 660.862 729.928 661.241 736.422 661.144 L736.497 661.144 L736.749 661.140 C790.239 660.208 803.139 637.767 828.479 593.681 C832.512 586.664 836.946 578.951 843.121 568.876 C847.389 561.912 852.530 555.368 858.271 549.129 C907.633 489.680 932.094 507.338 992.834 533.879 C977.817 461.151 910.560 408.496 835.265 385.479 C827.136 383.319 819.403 381.769 812.445 380.679 C805.421 379.578 799.469 378.996 794.789 378.740 L794.708 378.736 L793.875 378.736 C755.519 378.342 722.442 388.866 693.815 408.587 C670.897 424.375 651.129 445.903 634.030 472.287 C626.249 460.191 611.708 452.011 595.149 452.011 L595.149 452.011 C585.052 452.011 575.706 455.056 568.185 460.172 L568.185 435.980 C568.185 371.925 515.778 319.518 451.723 319.518 L186.256 319.518 C122.202 319.518 69.795 371.925 69.795 435.980 L69.795 460.172 C62.273 455.056 52.927 452.011 42.831 452.011 L42.831 452.011 C26.309 452.011 11.800 460.159 4.006 472.210 C-13.081 445.861 -32.831 424.359 -55.727 408.587 C-84.354 388.866 -117.431 378.342 -155.787 378.736 L-156.620 378.736 L-156.702 378.740 C-161.381 378.996 -167.333 379.578 -174.357 380.679 C-181.315 381.769 -189.048 383.319 -197.177 385.479 C-272.472 408.496 -339.729 461.151 -354.746 533.879 C-294.006 507.338 -269.545 489.680 -220.184 549.129 C-214.442 555.368 -209.301 561.912 -205.032 568.876 C-198.857 578.951 -194.423 586.664 -190.390 593.681 C-165.050 637.767 -152.151 660.208 -98.661 661.140 L-98.409 661.144 L-98.334 661.144 C-91.839 661.241 -85.617 660.862 -79.673 660.008 C-73.392 659.106 -67.349 657.737 -61.555 655.904 C-37.676 648.355 -16.428 632.955 1.923 609.957 C8.990 623.973 24.699 633.781 42.831 633.781 L42.831 633.781 C52.927 633.781 62.273 630.739 69.795 625.623 L69.795 627.913 C69.795 691.967 122.202 744.375 186.256 744.375 L186.256 744.375 ZM-4.322 582.185 C-29.771 621.966 -59.655 642.213 -97.566 641.839 C-97.746 641.837 -97.927 641.835 -98.106 641.832 C-98.191 641.831 -98.274 641.829 -98.359 641.828 C-149.492 640.937 -155.121 613.297 -188.523 558.804 C-198.518 542.498 -212.127 528.670 -227.112 515.914 C-255.090 492.098 -282.906 486.660 -310.518 496.995 C-321.582 502.235 -329.550 506.628 -330.778 507.394 C-309.234 474.310 -284.341 451.075 -259.909 434.812 C-259.904 434.809 -259.899 434.805 -259.894 434.802 C-247.636 426.507 -236.044 420.468 -225.610 415.959 C-195.783 402.729 -169.757 398.819 -155.716 398.058 C-155.690 398.051 -155.662 398.049 -155.635 398.048 C-123.099 397.713 -94.898 406.147 -70.382 422.035 C-69.439 422.637 -68.519 423.248 -67.623 423.865 C-67.613 423.871 -67.604 423.877 -67.595 423.884 C-41.843 441.367 -22.593 467.443 -4.322 500.057 L-4.322 582.185 L-4.322 582.185 ZM69.546 612.485 C69.394 612.651 69.240 612.817 69.086 612.979 L68.975 613.096 C68.787 613.292 68.598 613.485 68.406 613.677 C68.206 613.877 68.005 614.076 67.800 614.270 L67.755 614.313 C67.589 614.471 67.422 614.627 67.252 614.781 L69.546 612.485 L69.546 612.485 ZM60.760 619.534 C60.558 619.650 60.354 619.765 60.149 619.877 L60.008 619.954 L59.495 620.226 L59.141 620.409 L58.592 620.683 L58.377 620.786 L57.996 620.966 L57.522 621.182 C57.318 621.273 57.115 621.363 56.909 621.450 L56.854 621.472 L56.250 621.722 L55.858 621.877 L55.451 622.033 L55.039 622.184 L54.655 622.320 L54.142 622.494 L53.657 622.652 L53.492 622.704 L52.883 622.887 L52.517 622.991 L51.951 623.145 L51.686 623.212 L51.101 623.356 L50.751 623.436 L50.146 623.568 L50.106 623.576 L50.093 623.579 C49.815 623.636 49.536 623.690 49.255 623.740 L49.222 623.747 L49.197 623.752 C48.627 623.853 48.052 623.942 47.473 624.017 L47.396 624.027 C47.108 624.064 46.819 624.097 46.530 624.126 L46.516 624.128 C46.218 624.158 45.921 624.184 45.621 624.207 L45.593 624.209 C45.309 624.231 45.025 624.248 44.740 624.264 L44.617 624.270 C44.348 624.283 44.079 624.294 43.809 624.301 L43.670 624.303 C43.391 624.310 43.111 624.313 42.831 624.313 C22.914 624.313 6.619 608.019 6.619 588.102 L6.619 497.690 C6.619 477.773 22.914 461.478 42.831 461.478 C43.104 461.478 43.379 461.482 43.651 461.489 L43.809 461.492 C44.068 461.498 44.327 461.509 44.585 461.522 L44.745 461.529 C44.992 461.542 45.240 461.559 45.486 461.577 L45.691 461.592 C45.932 461.611 46.172 461.632 46.413 461.657 L46.602 461.676 C46.865 461.704 47.128 461.734 47.390 461.767 L47.476 461.778 C47.743 461.813 48.010 461.851 48.275 461.891 L48.415 461.913 C48.676 461.954 48.937 461.997 49.197 462.044 L49.222 462.048 L49.272 462.057 L49.873 462.173 L50.329 462.266 L50.842 462.379 L51.123 462.444 L51.665 462.577 L52.046 462.676 L52.585 462.823 L52.891 462.911 L52.942 462.926 L53.398 463.063 L53.401 463.063 L53.757 463.175 L54.343 463.367 L54.615 463.461 L54.940 463.576 C55.140 463.647 55.339 463.720 55.537 463.796 L55.797 463.895 L56.406 464.136 L56.595 464.213 L57.164 464.455 L57.516 464.610 L57.802 464.739 L58.320 464.982 L58.623 465.128 L59.129 465.381 L59.488 465.566 L59.587 465.619 C59.841 465.752 60.092 465.887 60.342 466.026 L60.362 466.037 C60.618 466.180 60.873 466.326 61.125 466.475 L61.213 466.527 C61.729 466.834 62.236 467.152 62.735 467.482 L62.758 467.497 C63.145 467.755 63.528 468.019 63.905 468.290 L64.281 468.565 C64.879 469.008 65.463 469.467 66.032 469.944 L66.283 470.157 L66.696 470.516 L66.940 470.732 L67.346 471.100 L67.627 471.362 L67.851 471.574 L68.185 471.899 L68.223 471.937 L68.515 472.228 L68.843 472.562 L68.852 472.573 L69.164 472.899 L69.483 473.241 L69.490 473.249 C75.414 479.701 79.043 488.290 79.043 497.690 L79.043 588.102 C79.043 597.471 75.437 606.039 69.546 612.485 L60.760 619.534 L60.760 619.534 ZM42.831 624.313 L42.831 624.313 L42.831 624.313 ZM42.831 461.478 L42.831 461.478 L42.831 461.478 ZM568.490 473.249 L568.497 473.241 L568.816 472.899 L569.127 472.573 L569.137 472.562 L569.464 472.228 L569.757 471.937 L569.794 471.899 L570.129 471.574 L570.352 471.362 L570.634 471.100 L571.039 470.732 L571.283 470.516 C571.420 470.396 571.557 470.274 571.696 470.157 L571.947 469.944 C572.516 469.466 573.100 469.008 573.698 468.565 L574.075 468.290 C574.451 468.019 574.835 467.754 575.222 467.497 L575.244 467.482 C575.744 467.152 576.250 466.834 576.766 466.527 L576.854 466.475 C577.106 466.326 577.362 466.180 577.618 466.037 L577.638 466.026 C577.887 465.887 578.139 465.752 578.392 465.619 L578.491 465.566 L578.850 465.381 L579.356 465.128 L579.660 464.982 L580.177 464.739 L580.464 464.610 L580.816 464.455 L581.385 464.213 L581.573 464.136 C581.775 464.054 581.978 463.974 582.182 463.895 L582.442 463.796 L583.039 463.576 L583.365 463.461 L583.636 463.367 L584.223 463.175 L584.579 463.063 L584.581 463.063 L585.038 462.926 L585.089 462.911 L585.395 462.823 L585.934 462.676 L586.315 462.577 L586.856 462.444 L587.138 462.379 L587.651 462.266 L588.106 462.173 L588.707 462.057 L588.758 462.048 L588.783 462.044 C589.042 461.997 589.304 461.954 589.565 461.913 L589.705 461.891 C589.970 461.851 590.236 461.813 590.503 461.778 L590.590 461.767 C590.851 461.733 591.114 461.704 591.377 461.676 L591.567 461.657 C591.808 461.632 592.046 461.611 592.288 461.592 L592.493 461.577 C592.740 461.559 592.987 461.542 593.235 461.529 L593.395 461.522 C593.653 461.509 593.911 461.498 594.171 461.492 L594.329 461.489 C594.601 461.482 594.876 461.478 595.149 461.478 C615.066 461.478 631.361 477.773 631.361 497.690 L631.361 588.102 C631.361 608.019 615.066 624.313 595.149 624.313 C594.868 624.313 594.588 624.310 594.309 624.303 L594.171 624.301 C593.901 624.294 593.631 624.283 593.362 624.270 L593.240 624.264 C592.954 624.249 592.669 624.231 592.386 624.209 L592.359 624.207 C592.059 624.184 591.761 624.158 591.464 624.128 L591.450 624.126 C591.160 624.096 590.872 624.064 590.584 624.027 L590.507 624.017 C589.929 623.941 589.353 623.854 588.783 623.752 L588.758 623.747 L588.724 623.740 C588.443 623.690 588.165 623.636 587.886 623.579 L587.874 623.576 L587.834 623.568 C587.631 623.526 587.430 623.481 587.229 623.436 L586.878 623.356 L586.293 623.212 L586.028 623.145 L585.463 622.991 L585.097 622.887 L584.487 622.704 L584.322 622.652 L583.837 622.494 L583.324 622.320 L582.940 622.184 L582.529 622.033 L582.121 621.877 L581.730 621.722 L581.125 621.472 L581.071 621.450 C580.865 621.363 580.662 621.273 580.458 621.182 L579.984 620.966 L579.602 620.786 L579.388 620.683 L578.839 620.409 L578.485 620.226 L577.972 619.954 L577.830 619.877 L577.219 619.534 L576.886 619.339 L576.819 619.299 L576.415 619.059 L576.406 619.054 L576.302 618.989 L575.788 618.667 L575.622 618.562 C575.425 618.435 575.230 618.304 575.035 618.173 L574.897 618.081 L574.375 617.719 L574.109 617.531 L574.075 617.507 L573.698 617.230 L573.378 616.992 L573.088 616.769 L572.650 616.426 L572.346 616.180 L572.009 615.903 L571.655 615.604 L571.313 615.307 L570.981 615.011 L570.727 614.781 C570.558 614.627 570.390 614.470 570.224 614.313 L570.180 614.270 C569.975 614.076 569.774 613.877 569.574 613.677 C569.382 613.485 569.193 613.292 569.005 613.096 L568.894 612.979 C568.739 612.816 568.586 612.652 568.434 612.485 C562.544 606.037 558.937 597.469 558.937 588.102 L558.937 497.690 C558.937 488.291 562.565 479.702 568.490 473.249 L568.490 473.249 ZM595.149 461.478 L595.149 461.478 L595.149 461.478 ZM595.149 624.313 L595.149 624.313 L595.149 624.313 ZM320.837 554.309 L411.696 554.309 C421.219 554.309 467.597 552.433 487.356 579.129 C496.204 591.768 509.126 601.496 527.222 601.637 L550.257 601.637 L550.257 621.009 C550.257 680.455 501.620 729.092 442.174 729.092 L195.806 729.092 C136.359 729.092 87.722 680.455 87.722 621.009 L87.722 593.359 L87.722 533.879 C134.711 612.691 261.372 520.743 318.027 628.449 L318.027 616.532 C261.134 516.421 130.919 606.232 87.722 524.573 L87.722 492.432 L87.722 442.883 C87.722 383.437 136.359 334.800 195.806 334.800 L442.174 334.800 C501.620 334.800 550.257 383.437 550.257 442.883 L550.257 492.432 L550.257 588.803 L527.222 588.803 C509.126 588.663 497.508 578.460 488.659 565.821 C468.900 539.124 421.219 541.476 411.696 541.476 L320.837 541.476 L320.837 554.309 L320.837 554.309 ZM642.410 582.185 C667.859 621.966 697.743 642.213 735.654 641.839 C735.834 641.837 736.014 641.835 736.195 641.832 C736.279 641.831 736.362 641.829 736.447 641.828 C787.581 640.937 793.210 613.297 826.611 558.804 C836.605 542.498 850.215 528.670 865.201 515.914 C893.178 492.098 920.994 486.660 948.606 496.995 C959.670 502.235 967.638 506.628 968.866 507.394 C947.322 474.310 922.429 451.075 897.997 434.812 C897.992 434.809 897.987 434.805 897.982 434.802 C885.724 426.507 874.132 420.468 863.697 415.959 C833.871 402.729 807.845 398.819 793.804 398.058 C793.777 398.051 793.750 398.049 793.723 398.048 C761.187 397.713 732.986 406.147 708.470 422.035 C707.527 422.637 706.607 423.248 705.711 423.865 C705.701 423.871 705.692 423.877 705.683 423.884 C679.931 441.367 660.681 467.443 642.410 500.057 L642.410 582.185 Z"/>
<path fill="#ffffff" fill-rule="evenodd" d="M318.027 348.345 C344.898 348.345 366.813 360.040 366.813 374.380 C366.813 388.719 344.898 400.414 318.027 400.414 C291.157 400.414 269.241 388.719 269.241 374.380 C269.241 360.040 291.157 348.345 318.027 348.345 Z"/>
<path fill="#ffffff" fill-rule="evenodd" d="M493.612 478.519 L493.612 463.371 L415.115 463.371 C381.590 441.123 367.281 462.228 335.511 463.371 L335.511 478.519 L492.666 519.701 L489.827 508.814 L440.019 478.519 L493.612 478.519 Z"/>
<path fill="#ffffff" fill-rule="evenodd" d="M127.015 487.986 C133.864 490.965 140.809 493.803 147.912 496.402 C167.533 503.581 188.370 508.940 211.779 510.437 C224.156 511.228 234.343 511.148 246.073 507.044 C270.815 498.388 284.903 482.628 293.747 463.371 C264.329 463.278 239.195 458.901 217.267 451.317 C201.861 445.988 194.161 442.585 177.328 448.007 C159.642 453.706 142.870 467.032 127.015 487.986 Z"/>
<path fill="#ffffff" fill-rule="evenodd" d="M267.292 435.548 L270.219 435.548 L270.219 438.612 L267.292 438.612 L267.292 435.548 Z"/>
<path fill="#ffffff" fill-rule="evenodd" d="M296.438 428.431 L299.365 428.431 L299.365 431.495 L296.438 431.495 L296.438 428.431 Z"/>
<path fill="#ffffff" fill-rule="evenodd" d="M295.964 421.549 L298.890 421.549 L298.890 424.613 L295.964 424.613 L295.964 421.549 Z"/>
<path fill="#ffffff" fill-rule="evenodd" d="M260.658 422.023 L263.584 422.023 L263.584 425.087 L260.658 425.087 L260.658 422.023 Z"/>
<path fill="#ffffff" fill-rule="evenodd" d="M260.539 414.548 L263.465 414.548 L263.465 417.613 L260.539 417.613 L260.539 414.548 Z"/>
<path fill="#ffffff" fill-rule="evenodd" d="M268.003 414.192 L270.929 414.192 L270.929 417.256 L268.003 417.256 L268.003 414.192 Z"/>
<path fill="#ffffff" fill-rule="evenodd" d="M238.857 421.430 L241.784 421.430 L241.784 424.494 L238.857 424.494 L238.857 421.430 Z"/>
<path fill="#ffffff" fill-rule="evenodd" d="M232.105 414.192 L235.031 414.192 L235.031 417.256 L232.105 417.256 L232.105 414.192 Z"/>
<path fill="#ffffff" fill-rule="evenodd" d="M238.975 413.836 L241.902 413.836 L241.902 416.900 L238.975 416.900 L238.975 413.836 Z"/>
<path fill="#ffffff" fill-rule="evenodd" d="M310.418 435.669 L313.345 435.669 L313.345 438.733 L310.418 438.733 L310.418 435.669 Z"/>
<path fill="#ffffff" fill-rule="evenodd" d="M318.027 435.313 L320.953 435.313 L320.953 438.377 L318.027 438.377 L318.027 435.313 Z"/>
<path fill="#ffffff" fill-rule="evenodd" d="M331.703 428.428 L334.630 428.428 L334.630 431.492 L331.703 431.492 L331.703 428.428 Z"/>
<path fill="#ffffff" fill-rule="evenodd" d="M339.369 428.665 L342.295 428.665 L342.295 431.729 L339.369 431.729 L339.369 428.665 Z"/>
<path fill="#ffffff" fill-rule="evenodd" d="M374.871 413.952 L377.797 413.952 L377.797 417.017 L374.871 417.017 L374.871 413.952 Z"/>
<path fill="#ffffff" fill-rule="evenodd" d="M360.890 428.429 L363.817 428.429 L363.817 431.493 L360.890 431.493 L360.890 428.429 Z"/>
<path fill="#ffffff" fill-rule="evenodd" d="M360.890 434.836 L363.817 434.836 L363.817 437.900 L360.890 437.900 L360.890 434.836 Z"/>
<path fill="#ffffff" fill-rule="evenodd" d="M396.197 421.072 L399.124 421.072 L399.124 424.136 L396.197 424.136 L396.197 421.072 Z"/>
<path fill="#ffffff" fill-rule="evenodd" d="M404.253 421.310 L407.180 421.310 L407.180 424.374 L404.253 424.374 L404.253 421.310 Z"/>
</g></svg>