<svg xmlns="http://www.w3.org/2000/svg" viewBox="0 0 339.164 359.089" width="339.2" height="359.1">
<g transform="matrix(1 0 0 -1 74.779 601.944)">
<path fill="#f15203" fill-rule="evenodd" d="M-74.779 242.855 L264.385 242.855 L264.385 601.944 L-74.779 601.944 L-74.779 242.855 Z"/>
<path fill="#000000" fill-rule="evenodd" d="M139.640 360.425 L39.723 329.224 L39.723 319.160 L139.640 350.360 L139.640 360.425 Z"/>
<path fill="#000000" fill-rule="evenodd" d="M65.582 402.208 L-21.583 421.070 L-21.583 400.194 L65.582 392.137 L65.582 402.208 Z"/>
<path fill="#000000" fill-rule="evenodd" d="M118.817 402.208 L205.982 421.070 L205.982 400.194 L118.817 392.137 L118.817 402.208 Z"/>
<path fill="#ffffff" fill-rule="evenodd" d="M2.223 324.200 C17.049 324.200 29.141 336.293 29.141 351.119 C29.141 365.945 17.049 378.037 2.223 378.037 C-12.603 378.037 -24.695 365.945 -24.695 351.119 C-24.695 336.293 -12.603 324.200 2.223 324.200 Z"/>
<path fill="#ffffff" fill-rule="evenodd" d="M182.223 324.200 C197.049 324.200 209.141 336.293 209.141 351.119 C209.141 365.945 197.049 378.037 182.223 378.037 C167.397 378.037 155.305 365.945 155.305 351.119 C155.305 336.293 167.397 324.200 182.223 324.200 Z"/>
<path fill="#000000" fill-rule="evenodd" d="M92.582 262.733 C4.265 262.733 -67.357 343.071 -67.357 442.135 C-67.357 503.195 -40.139 557.130 1.419 589.534 L6.577 582.332 L6.725 582.126 L48.385 523.969 L91.423 587.677 L95.609 581.897 L137.646 523.845 L177.921 582.442 L178.103 582.707 L182.687 590.357 C224.842 558.047 252.521 503.713 252.521 442.135 C252.521 343.071 180.899 262.733 92.582 262.733 L92.582 262.733 ZM-2.812 498.935 C22.468 498.935 35.712 486.651 48.867 474.451 C60.405 463.750 71.867 453.120 92.343 453.120 C112.311 453.120 123.552 463.602 134.942 474.223 C148.104 486.496 161.444 498.935 187.136 498.935 L187.141 498.935 L187.141 498.915 C198.778 498.914 209.121 496.746 218.087 492.361 C220.347 491.256 222.477 490.042 224.473 488.719 C228.571 486.002 232.302 482.751 235.658 478.960 C234.532 484.506 233.138 490.011 231.490 495.454 C222.208 526.097 205.163 552.679 183.001 572.235 L141.849 512.361 L137.848 506.540 L133.704 512.263 L91.709 570.257 L52.644 512.429 L48.621 506.476 L44.440 512.312 L1.772 571.877 C-1.539 568.938 -4.724 565.854 -7.772 562.635 C-12.076 558.090 -16.129 553.270 -19.903 548.202 C-35.828 526.820 -47.030 500.845 -51.710 472.298 L-51.483 472.573 C-39.364 487.146 -22.640 498.935 -2.812 498.935 L-2.812 498.935 ZM42.070 467.146 C30.363 478.003 18.577 488.934 -2.812 488.934 C-19.204 488.934 -33.378 478.771 -43.827 466.206 C-45.844 463.781 -47.780 461.171 -49.614 458.449 C-51.444 455.732 -53.063 453.063 -54.467 450.492 L-54.469 450.489 L-59.139 441.927 C-59.039 348.047 8.864 271.949 92.582 271.949 C176.041 271.949 243.775 347.580 244.293 441.059 L239.199 453.888 C234.462 465.818 227.672 474.627 218.966 480.399 C217.244 481.540 215.492 482.546 213.712 483.416 C206.135 487.121 197.253 488.954 187.141 488.954 L187.141 488.934 L187.136 488.934 C165.350 488.934 153.465 477.853 141.739 466.918 C128.894 454.940 116.216 443.120 92.343 443.120 C67.976 443.120 55.066 455.093 42.070 467.146 Z"/>
<path fill="#ffffff" fill-rule="evenodd" d="M-2.812 493.935 C43.549 493.935 47.200 448.120 92.343 448.120 C136.775 448.120 140.280 493.935 187.136 493.935 C214.327 493.935 233.619 481.437 243.828 455.724 C243.823 455.788 243.819 455.853 243.814 455.917 C240.184 506.696 216.674 551.194 182.023 579.610 L137.747 515.193 L91.566 578.967 L48.503 515.222 L2.662 579.216 C-32.416 550.214 -55.967 504.679 -58.844 452.872 C-47.986 472.760 -27.967 493.935 -2.812 493.935 Z"/>
</g></svg>