<svg xmlns="http://www.w3.org/2000/svg" viewBox="0 0 1125.289 1079.686" width="1125.3" height="1079.7">
<g transform="matrix(1 0 0 -1 264.082 921.095)">
<path fill="#f04d22" fill-rule="evenodd" d="M-127.118 411.636 L29.772 411.636 C30.632 442.675 36.755 472.401 47.280 499.954 L-97.705 560.005 C-115.857 513.931 -126.204 463.931 -127.118 411.636 Z"/>
<path fill="#f04d22" fill-rule="evenodd" d="M-91.914 573.966 L53.070 513.915 C65.512 541.670 82.525 566.933 103.148 588.744 L-7.785 699.678 C-42.823 663.378 -71.471 620.869 -91.914 573.966 Z"/>
<path fill="#f04d22" fill-rule="evenodd" d="M142.604 800.317 L202.657 655.335 C230.211 665.860 259.938 671.983 290.979 672.843 L290.979 829.733 C238.682 828.819 188.680 818.471 142.604 800.317 Z"/>
<path fill="#f04d22" fill-rule="evenodd" d="M306.145 829.733 L306.145 672.843 C337.185 671.983 366.913 665.860 394.467 655.335 L454.520 800.317 C408.444 818.471 358.442 828.819 306.145 829.733 Z"/>
<path fill="#f04d22" fill-rule="evenodd" d="M604.909 699.678 L493.976 588.744 C514.599 566.932 531.611 541.670 544.054 513.915 L689.037 573.966 C668.594 620.869 639.947 663.378 604.909 699.678 Z"/>
<path fill="#f04d22" fill-rule="evenodd" d="M694.829 560.005 L549.844 499.954 C560.369 472.402 566.492 442.675 567.351 411.636 L724.242 411.636 C723.328 463.931 712.981 513.931 694.829 560.005 Z"/>
<path fill="#f04d22" fill-rule="evenodd" d="M689.035 234.134 L544.052 294.188 C531.609 266.435 514.598 241.173 493.976 219.362 L604.909 108.428 C639.945 144.727 668.592 187.233 689.035 234.134 Z"/>
<path fill="#f04d22" fill-rule="evenodd" d="M594.187 97.706 L483.253 208.640 C461.442 188.017 436.180 171.005 408.427 158.563 L468.481 13.580 C515.382 34.023 557.888 62.670 594.187 97.706 Z"/>
<path fill="#f04d22" fill-rule="evenodd" d="M128.643 13.580 L188.697 158.563 C160.944 171.005 135.682 188.017 113.871 208.640 L2.937 97.706 C39.236 62.670 81.742 34.023 128.643 13.580 Z"/>
<path fill="#f04d22" fill-rule="evenodd" d="M-7.785 108.428 L103.148 219.362 C82.525 241.173 65.514 266.435 53.071 294.188 L-91.911 234.134 C-71.468 187.233 -42.821 144.727 -7.785 108.428 Z"/>
<path fill="#f04d22" fill-rule="evenodd" d="M-93.907 807.244 L113.871 599.467 C135.682 620.090 160.944 637.101 188.697 649.543 L76.217 921.095 C12.589 893.689 -44.978 854.880 -93.907 807.244 Z"/>
<path fill="#f04d22" fill-rule="evenodd" d="M520.907 921.095 L408.427 649.543 C436.180 637.101 461.442 620.090 483.253 599.467 L691.030 807.244 C642.101 854.880 584.535 893.689 520.907 921.095 Z"/>
<path fill="#f04d22" fill-rule="evenodd" d="M861.206 396.471 L567.351 396.471 C566.492 365.430 560.369 335.702 549.843 308.148 L821.394 195.669 C846.227 257.904 860.270 325.609 861.206 396.471 Z"/>
<path fill="#f04d22" fill-rule="evenodd" d="M506.946 -118.778 L394.467 152.772 C366.913 142.246 337.185 136.123 306.145 135.264 L306.145 -158.591 C377.006 -157.655 444.711 -143.612 506.946 -118.778 Z"/>
<path fill="#f04d22" fill-rule="evenodd" d="M290.979 -158.591 L290.979 135.264 C259.939 136.123 230.211 142.246 202.657 152.772 L90.178 -118.778 C152.413 -143.612 220.118 -157.655 290.979 -158.591 Z"/>
<path fill="#f04d22" fill-rule="evenodd" d="M-224.270 195.669 L47.281 308.148 C36.755 335.702 30.632 365.430 29.772 396.471 L-264.082 396.471 C-263.146 325.609 -249.104 257.904 -224.270 195.669 Z"/>
<path fill="#f04d22" fill-rule="evenodd" d="M216.372 425.920 C229.219 425.920 239.697 436.398 239.697 449.246 C239.697 462.093 229.219 472.572 216.372 472.572 C203.524 472.572 193.046 462.093 193.046 449.246 C193.046 436.398 203.524 425.920 216.372 425.920 Z"/>
<path fill="#f04d22" fill-rule="evenodd" d="M391.066 425.920 C403.913 425.920 414.392 436.398 414.392 449.246 C414.392 462.093 403.913 472.572 391.066 472.572 C378.218 472.572 367.740 462.093 367.740 449.246 C367.740 436.398 378.218 425.920 391.066 425.920 Z"/>
<path fill="#f04d22" fill-rule="evenodd" d="M524.035 411.636 L73.089 411.636 C75.028 470.339 99.407 523.372 137.921 562.432 L142.464 560.151 L164.000 549.338 L247.588 507.366 L257.916 502.180 L268.244 496.995 L290.979 456.387 L298.562 442.844 L306.145 453.509 L317.461 469.428 L337.059 496.995 L347.478 502.399 L427.906 544.120 L450.186 555.677 L460.551 561.054 C498.285 522.129 522.118 469.651 524.035 411.636 L524.035 411.636 ZM137.921 562.432 C139.652 564.163 142.466 566.927 144.318 568.668 L144.275 568.630 C142.118 566.606 139.998 564.540 137.921 562.432 L137.921 562.432 ZM73.820 384.267 L101.408 384.267 L101.408 330.569 L101.408 322.390 L101.408 314.210 L101.408 294.327 C98.423 299.678 95.651 305.161 93.100 310.769 C92.059 313.059 91.054 315.369 90.087 317.700 C89.124 320.024 88.198 322.366 87.310 324.729 C80.251 343.513 75.626 363.488 73.820 384.267 L73.820 384.267 ZM127.511 256.971 L127.511 325.022 L127.511 333.201 L127.511 341.382 L127.511 384.267 L190.268 384.267 L190.268 367.376 L190.268 359.197 L190.268 351.017 L190.268 306.482 L190.268 295.760 L190.268 285.038 L190.268 206.108 C173.624 215.234 158.255 226.399 144.498 239.267 C142.652 240.994 140.835 242.751 139.047 244.539 C137.260 246.326 135.503 248.143 133.776 249.989 C131.640 252.273 129.551 254.601 127.511 256.971 L127.511 256.971 ZM216.371 193.900 L216.371 205.627 L216.371 225.375 L216.371 311.140 L216.371 321.862 L216.371 332.585 L216.371 361.829 L216.371 370.008 L216.371 378.188 L216.371 384.267 L231.046 384.267 L250.793 384.267 L268.053 384.267 L270.540 384.267 L278.776 384.267 L282.187 384.267 L287.459 384.267 L287.459 382.228 L287.459 377.250 L287.459 357.502 L287.459 178.723 C263.554 179.883 240.625 184.764 219.237 192.801 C218.279 193.161 217.324 193.528 216.371 193.900 L216.371 193.900 ZM310.230 178.751 L310.230 357.502 L310.230 377.250 L310.230 382.228 L310.230 384.267 L315.503 384.267 L318.914 384.267 L327.149 384.267 L329.636 384.267 L346.896 384.267 L366.644 384.267 L381.318 384.267 L381.318 378.188 L381.318 370.008 L381.318 361.829 L381.318 332.585 L381.318 321.862 L381.318 311.140 L381.318 225.375 L381.318 205.627 L381.318 194.123 L381.318 193.900 L378.452 192.801 C357.065 184.764 334.135 179.883 310.230 178.723 L310.230 178.751 L310.230 178.751 ZM407.421 206.419 L407.421 285.038 L407.421 295.760 L407.421 306.482 L407.421 351.017 L407.421 359.197 L407.421 367.376 L407.421 384.267 L470.178 384.267 L470.178 341.382 L470.178 333.201 L470.178 325.022 L470.178 257.631 L470.178 256.971 C468.138 254.601 466.049 252.273 463.914 249.989 C462.187 248.143 460.429 246.326 458.642 244.539 C456.855 242.751 455.037 240.994 453.191 239.267 C439.434 226.399 424.065 215.234 407.421 206.108 L407.421 206.419 L407.421 206.419 ZM496.281 295.348 L496.281 314.210 L496.281 322.390 L496.281 330.569 L496.281 384.267 L523.304 384.267 L523.869 384.267 C522.063 363.488 517.439 343.513 510.380 324.729 C509.492 322.366 508.566 320.024 507.602 317.700 C506.636 315.369 505.631 313.059 504.590 310.769 C502.039 305.161 499.266 299.678 496.281 294.327 L496.281 295.348 L496.281 295.348 ZM298.562 649.604 C162.971 649.604 53.011 539.644 53.011 404.053 C53.011 268.462 162.971 158.503 298.562 158.503 C434.153 158.503 544.112 268.462 544.112 404.053 C544.112 539.644 434.153 649.604 298.562 649.604 Z"/>
</g></svg>