<svg xmlns="http://www.w3.org/2000/svg" viewBox="0 0 894.819 744.788" width="894.8" height="744.8">
<g transform="matrix(1 0 0 -1 140.723 892.545)">
<path fill="#000000" fill-rule="evenodd" d="M189.596 741.305 L209.525 691.513 L218.575 750.372 L271.170 807.638 L309.290 874.202 L344.111 807.846 L394.000 755.486 L408.465 686.266 L422.765 735.140 L460.817 790.305 L508.962 826.567 L504.136 766.548 L535.962 708.414 L557.240 651.038 L552.496 600.309 L529.285 567.041 L504.485 553.149 L360.535 615.143 L266.286 611.367 L157.701 574.667 L111.617 549.192 L67.922 589.657 L54.668 632.976 L75.753 701.771 L106.106 752.494 L112.705 782.021 L106.106 828.833 L148.049 797.058 L189.596 741.305 Z"/>
<path fill="#000000" fill-rule="evenodd" d="M-19.405 484.612 L-19.405 484.612 L-19.405 484.612 ZM-129.675 377.176 L-129.675 377.176 L-129.675 377.176 ZM-19.405 269.739 L-19.405 269.739 L-19.405 269.739 ZM-10.498 377.176 C-10.498 412.880 1.388 446.635 22.526 476.589 C9.599 481.774 -4.559 484.634 -19.400 484.634 L-19.405 484.612 L-19.414 484.612 L-19.414 484.634 C-49.880 484.632 -77.468 472.580 -97.438 453.099 C-117.367 433.660 -129.697 406.815 -129.697 377.180 L-129.675 377.176 L-129.675 377.167 L-129.697 377.167 C-129.696 347.536 -117.367 320.694 -97.442 301.255 C-77.470 281.772 -49.879 269.718 -19.410 269.717 L-19.405 269.739 L-19.395 269.739 L-19.395 269.717 C-4.556 269.718 9.600 272.578 22.526 277.762 C1.388 307.716 -10.498 341.472 -10.498 377.176 Z"/>
<path fill="#000000" fill-rule="evenodd" d="M632.779 495.659 L632.784 495.659 L632.784 495.637 C666.251 495.636 696.557 482.396 718.495 460.994 C740.473 439.553 754.072 409.920 754.074 377.185 L754.096 377.185 L754.096 377.176 L754.096 377.171 L754.074 377.171 C754.073 344.434 740.473 314.798 718.492 293.354 C696.555 271.955 666.251 258.716 632.788 258.714 L632.788 258.692 L632.779 258.692 L632.773 258.692 L632.773 258.714 C599.307 258.715 568.999 271.956 547.062 293.358 C525.083 314.799 511.485 344.431 511.483 377.167 L511.461 377.167 L511.461 377.176 L511.461 377.180 L511.483 377.180 C511.484 409.918 525.082 439.554 547.065 460.996 C569.002 482.396 599.305 495.635 632.769 495.637 L632.769 495.659 L632.779 495.659 L632.779 495.659 ZM632.784 484.634 L632.784 484.612 L632.779 484.612 L632.769 484.612 L632.769 484.634 C602.303 484.632 574.715 472.580 554.746 453.099 C534.816 433.660 522.487 406.815 522.486 377.180 L522.508 377.180 L522.508 377.176 L522.508 377.167 L522.486 377.167 C522.488 347.536 534.816 320.694 554.742 301.255 C574.713 281.772 602.304 269.718 632.773 269.717 L632.773 269.739 L632.779 269.739 L632.788 269.739 L632.788 269.717 C663.254 269.719 690.841 281.771 710.811 301.251 C730.740 320.692 743.070 347.537 743.071 377.171 L743.049 377.171 L743.049 377.176 L743.049 377.185 L743.071 377.185 C743.069 406.816 730.741 433.658 710.814 453.097 C690.844 472.580 663.253 484.633 632.784 484.634 Z"/>
<path fill="#000000" fill-rule="evenodd" d="M-19.405 495.659 L-19.400 495.659 L-19.400 495.637 C14.067 495.636 44.374 482.396 66.311 460.994 C88.290 439.553 101.888 409.920 101.891 377.185 L101.913 377.185 L101.913 377.176 L101.913 377.171 L101.891 377.171 C101.890 344.434 88.290 314.798 66.308 293.354 C44.371 271.955 14.068 258.716 -19.395 258.714 L-19.395 258.692 L-19.405 258.692 L-19.410 258.692 L-19.410 258.714 C-52.877 258.715 -83.184 271.956 -105.122 293.358 C-127.100 314.799 -140.698 344.431 -140.701 377.167 L-140.723 377.167 L-140.723 377.176 L-140.723 377.180 L-140.701 377.180 C-140.699 409.918 -127.101 439.554 -105.118 460.996 C-83.181 482.396 -52.878 495.635 -19.414 495.637 L-19.414 495.659 L-19.405 495.659 L-19.405 495.659 ZM-19.400 484.634 L-19.400 484.612 L-19.405 484.612 L-19.414 484.612 L-19.414 484.634 C-49.880 484.632 -77.468 472.580 -97.438 453.099 C-117.367 433.660 -129.697 406.815 -129.697 377.180 L-129.675 377.180 L-129.675 377.176 L-129.675 377.167 L-129.697 377.167 C-129.696 347.536 -117.367 320.694 -97.442 301.255 C-77.470 281.772 -49.879 269.718 -19.410 269.717 L-19.410 269.739 L-19.405 269.739 L-19.395 269.739 L-19.395 269.717 C11.070 269.719 38.658 281.771 58.628 301.251 C78.557 320.692 90.887 347.537 90.888 377.171 L90.866 377.171 L90.866 377.176 L90.866 377.185 L90.888 377.185 C90.886 406.816 78.557 433.658 58.631 453.097 C38.660 472.580 11.069 484.633 -19.400 484.634 Z"/>
<path fill="#000000" fill-rule="evenodd" d="M417.328 587.434 C374.077 577.376 334.754 564.041 307.719 540.451 C281.632 564.116 244.808 576.585 193.672 586.254 C74.272 553.981 -10.498 472.529 -10.498 377.176 C-10.498 253.543 132.009 153.280 307.733 153.280 C483.459 153.280 625.965 253.543 625.965 377.176 C625.965 473.714 539.075 556.003 417.328 587.434 L417.328 587.434 ZM92.945 496.563 C167.481 571.970 261.632 539.695 307.719 465.925 C353.778 539.651 447.844 571.931 522.359 496.698 C545.756 473.076 551.538 457.042 553.146 423.936 C556.621 352.432 517.892 325.663 434.088 245.588 C401.239 269.143 353.443 285.649 307.719 285.649 C259.392 285.649 219.226 272.747 181.350 245.588 C97.546 325.663 58.817 352.432 62.292 423.936 C63.896 456.968 69.630 472.975 92.945 496.563 Z"/>
<path fill="#000000" fill-rule="evenodd" d="M434.088 245.588 C517.892 325.663 556.621 352.432 553.146 423.936 C551.538 457.042 545.756 473.076 522.359 496.698 C447.844 571.931 353.778 539.651 307.719 465.925 ZM307.719 465.925 C261.632 539.695 167.481 571.970 92.945 496.563 C69.630 472.975 63.896 456.968 62.292 423.936 C58.817 352.432 97.546 325.663 181.350 245.588 C219.226 272.747 259.392 285.649 307.719 285.649 C353.443 285.649 401.239 269.143 434.088 245.588 Z"/>
<path fill="#ffffff" fill-rule="evenodd" d="M181.350 245.588 C219.226 272.747 259.392 285.649 307.719 285.649 C353.443 285.649 401.239 269.143 434.088 245.588 C517.892 325.663 556.621 352.432 553.146 423.936 C551.538 457.042 545.756 473.076 522.359 496.698 C447.844 571.931 353.778 539.651 307.719 465.925 C261.632 539.695 167.481 571.970 92.945 496.563 C69.630 472.975 63.896 456.968 62.292 423.936 C58.817 352.432 97.546 325.663 181.350 245.588 Z"/>
<path fill="#000000" fill-rule="evenodd" d="M181.873 252.703 C200.083 265.269 218.904 274.670 238.953 281.046 C260.363 287.855 283.035 291.173 307.719 291.173 L307.729 291.173 L307.729 291.151 C331.209 291.149 355.170 286.926 377.441 279.693 C381.025 278.530 384.607 277.270 388.173 275.924 C404.799 269.649 420.249 261.722 433.551 252.690 C442.017 260.753 449.893 268.161 457.308 275.137 C521.159 335.195 550.598 362.887 547.644 423.677 C546.871 439.610 545.125 451.356 540.832 461.781 C536.561 472.151 529.629 481.532 518.454 492.815 C509.301 502.056 499.846 509.617 490.230 515.624 C463.441 532.360 435.347 536.995 408.888 532.412 C382.288 527.804 357.258 513.900 336.768 493.606 C327.668 484.593 319.459 474.309 312.401 463.012 L307.718 455.518 L303.037 463.012 C295.950 474.358 287.706 484.674 278.571 493.704 C258.073 513.965 233.050 527.839 206.471 532.425 C180.035 536.987 151.971 532.345 125.208 515.624 C115.546 509.589 106.054 501.990 96.872 492.701 C85.725 481.424 78.819 472.052 74.568 461.698 C70.298 451.297 68.565 439.576 67.793 423.677 C64.840 362.887 94.279 335.195 158.130 275.137 C165.541 268.165 173.413 260.762 181.873 252.703 L181.873 252.703 ZM242.276 270.560 C222.068 264.133 203.066 254.368 184.564 241.100 L180.856 238.440 L177.553 241.597 C168.094 250.634 159.041 259.150 150.578 267.111 C84.196 329.550 53.590 358.340 56.790 424.195 C57.621 441.327 59.559 454.127 64.385 465.884 C69.231 477.687 76.851 488.116 89.019 500.425 C98.857 510.378 109.028 518.519 119.382 524.988 C148.608 543.247 179.332 548.303 208.326 543.299 C237.176 538.322 264.230 523.367 286.295 501.557 C294.113 493.830 301.300 485.248 307.717 475.959 C314.098 485.197 321.241 493.730 329.002 501.417 C351.079 523.284 378.157 538.284 407.033 543.287 C436.050 548.312 466.803 543.263 496.055 524.988 C506.361 518.550 516.481 510.459 526.264 500.581 C538.484 488.244 546.144 477.794 551.015 465.966 C555.864 454.193 557.814 441.366 558.648 424.195 C561.847 358.340 531.242 329.550 464.860 267.111 C456.397 259.150 447.344 250.634 437.885 241.597 L434.582 238.440 L430.873 241.100 C417.489 250.698 401.555 259.095 384.289 265.611 C380.958 266.868 377.535 268.070 374.032 269.207 C352.767 276.114 329.970 280.147 307.729 280.147 L307.729 280.125 L307.719 280.125 C284.077 280.125 262.501 276.992 242.276 270.560 Z"/>
<path fill="#000000" fill-rule="evenodd" d="M259.959 290.793 C245.651 290.793 234.047 314.725 234.047 344.236 C234.047 361.817 238.167 377.416 244.522 387.157 L244.519 387.158 L147.962 404.590 L147.962 439.382 L288.345 392.453 L291.986 382.339 L280.154 377.721 L280.149 377.723 C283.726 368.558 285.871 356.915 285.871 344.236 C285.871 314.725 274.267 290.793 259.959 290.793 Z"/>
<path fill="#000000" fill-rule="evenodd" d="M355.400 290.793 C341.092 290.793 329.488 314.725 329.488 344.236 C329.488 356.974 331.652 368.668 335.260 377.851 L334.771 377.721 L322.938 382.339 L326.579 392.453 L466.962 439.382 L466.962 404.590 L370.790 387.227 C377.171 377.492 381.312 361.861 381.312 344.236 C381.312 314.725 369.708 290.793 355.400 290.793 Z"/>
<path fill="#000000" fill-rule="evenodd" d="M632.779 269.739 L632.779 269.739 L632.779 269.739 ZM743.049 377.176 L743.049 377.176 L743.049 377.176 ZM632.779 484.612 L632.779 484.612 L632.779 484.612 ZM625.965 377.176 C625.965 341.216 613.909 307.234 592.486 277.120 C604.968 272.342 618.557 269.717 632.773 269.717 L632.779 269.739 L632.788 269.739 L632.788 269.717 C663.254 269.719 690.841 281.771 710.811 301.251 C730.740 320.692 743.070 347.537 743.071 377.171 L743.049 377.176 L743.049 377.185 L743.071 377.185 C743.069 406.816 730.741 433.658 710.814 453.097 C690.844 472.580 663.253 484.633 632.784 484.634 L632.779 484.612 L632.769 484.612 L632.769 484.634 C618.554 484.633 604.966 482.009 592.486 477.231 C613.909 447.117 625.965 413.135 625.965 377.176 Z"/>
<path fill="#000000" fill-rule="evenodd" d="M469.723 575.877 C482.197 570.767 494.163 565.113 505.492 558.882 L506.915 558.100 L509.763 559.519 L509.776 559.527 L509.819 559.570 C514.681 562.496 519.160 565.671 523.232 569.088 C527.282 572.486 530.949 576.135 534.208 580.028 C550.950 600.023 557.085 626.787 550.093 659.871 C544.989 684.021 532.208 704.512 519.250 725.286 C514.287 733.243 509.298 741.242 504.520 749.819 C493.051 770.407 497.454 794.249 501.663 817.040 L501.833 817.968 C498.836 816.027 495.849 813.951 492.883 811.751 C486.562 807.060 480.313 801.788 474.260 796.041 C443.194 766.551 417.673 724.994 413.945 685.748 C413.388 679.870 411.006 677.494 407.233 677.854 C401.642 678.386 399.682 696.171 398.011 711.398 C397.261 718.228 396.575 724.464 396.109 727.405 L395.499 731.311 C392.905 747.949 392.354 751.482 378.673 763.221 C360.715 778.631 345.230 795.757 332.444 814.749 C322.532 829.470 314.257 845.290 307.720 862.280 C301.183 845.290 292.905 829.470 282.994 814.749 C270.208 795.757 254.723 778.631 236.765 763.221 C223.084 751.482 222.533 747.949 219.939 731.311 L219.329 727.405 C218.862 724.464 218.177 718.228 217.427 711.398 C215.756 696.171 213.796 678.386 208.205 677.854 C204.432 677.494 202.050 679.870 201.493 685.748 C197.764 724.994 172.243 766.551 141.178 796.041 C135.125 801.788 128.876 807.060 122.554 811.751 C119.589 813.951 116.602 816.027 113.605 817.968 L113.775 817.040 C117.984 794.249 122.387 770.407 110.918 749.819 C106.140 741.242 101.151 733.243 96.188 725.286 C83.230 704.512 70.449 684.021 65.344 659.871 C58.352 626.787 64.488 600.023 81.230 580.028 C84.489 576.135 88.155 572.486 92.206 569.088 C96.278 565.671 100.757 562.496 105.619 559.570 L105.662 559.527 L105.675 559.519 L108.324 557.974 C108.483 557.882 108.646 558.153 108.808 558.242 C120.496 564.693 132.834 570.587 145.733 575.872 C133.730 579.300 123.405 584.962 114.919 593.067 C105.607 601.961 98.546 613.755 93.951 628.717 L93.417 630.456 L94.803 631.630 C107.232 642.150 117.577 655.068 126.252 669.781 C134.972 684.571 142.004 701.168 147.768 718.967 L148.544 721.361 L150.994 720.811 C162.340 718.265 172.322 710.866 180.953 698.673 C188.851 687.517 195.632 672.310 201.304 653.097 C221.385 667.905 239.968 683.743 256.983 700.658 C274.894 718.464 291.086 737.477 305.475 757.750 L307.719 761.934 L309.963 757.750 C324.352 737.477 340.544 718.464 358.455 700.658 C375.470 683.743 394.053 667.905 414.134 653.097 C419.806 672.310 426.587 687.517 434.485 698.673 C443.116 710.866 453.098 718.265 464.444 720.811 L466.894 721.361 L467.670 718.967 C473.434 701.168 480.466 684.571 489.186 669.781 C497.861 655.068 508.206 642.150 520.635 631.630 L522.021 630.456 C517.697 616.368 511.305 603.369 500.519 593.067 C492.038 584.966 481.718 579.306 469.723 575.877 L469.723 575.877 ZM518.021 551.671 C524.193 547.936 530.166 544.041 535.920 539.993 C594.948 498.462 631.464 440.907 631.466 377.182 L631.489 377.182 L631.489 377.176 L631.489 377.171 L631.466 377.171 C631.465 313.445 594.947 255.887 535.917 214.357 C477.457 173.226 396.777 147.781 307.746 147.778 L307.746 147.756 L307.733 147.756 L307.726 147.756 L307.726 147.778 C218.693 147.779 138.010 173.225 79.547 214.358 C20.520 255.889 -15.997 313.444 -15.999 377.169 L-16.021 377.169 L-16.021 377.176 L-16.021 377.180 L-15.999 377.180 C-15.997 440.907 20.520 498.464 79.550 539.995 C85.299 544.039 91.265 547.931 97.431 551.662 C93.049 554.440 88.943 557.430 85.129 560.631 C80.578 564.449 76.451 568.558 72.772 572.951 C53.833 595.571 46.814 625.478 54.557 662.114 C60.076 688.229 73.358 709.524 86.824 731.111 C91.811 739.107 96.825 747.145 101.295 755.170 C110.840 772.304 106.803 794.162 102.944 815.055 C102.143 819.393 101.349 823.695 100.669 827.970 L98.939 838.852 L108.674 833.709 L108.707 833.691 L108.750 833.670 C115.539 829.997 122.370 825.601 129.114 820.596 C135.818 815.622 142.413 810.059 148.772 804.023 C174.336 779.756 196.359 747.546 206.691 714.595 C207.356 720.642 207.963 726.029 208.455 729.130 C208.884 731.832 208.966 732.363 209.065 732.995 C212.179 752.970 212.841 757.211 229.601 771.592 C246.822 786.370 261.644 802.751 273.846 820.876 C286.039 838.987 295.647 858.880 302.455 880.696 L307.719 892.545 L312.983 880.696 C319.791 858.880 329.398 838.987 341.592 820.876 C353.794 802.751 368.615 786.370 385.836 771.592 C402.597 757.211 403.259 752.970 406.373 732.995 C406.471 732.363 406.554 731.832 406.983 729.130 C407.475 726.029 408.082 720.642 408.747 714.595 C419.079 747.546 441.101 779.756 466.666 804.023 C473.024 810.059 479.620 815.622 486.324 820.596 C493.068 825.601 499.899 829.997 506.688 833.670 L506.731 833.691 L506.764 833.709 L516.499 838.852 L514.769 827.970 C514.089 823.695 513.294 819.393 512.493 815.055 C508.634 794.162 504.598 772.304 514.143 755.170 C518.613 747.145 523.626 739.107 528.614 731.111 C542.080 709.524 555.362 688.229 560.881 662.114 C568.624 625.478 561.605 595.571 542.665 572.951 C538.987 568.558 534.860 564.449 530.309 560.631 C526.499 557.434 522.397 554.448 518.021 551.671 L518.021 551.671 ZM255.932 562.402 C275.196 555.674 291.115 547.307 304.159 536.244 L307.647 533.286 L311.193 536.179 C324.212 546.799 340.290 555.150 358.385 562.001 C376.681 568.930 397.079 576.762 418.492 581.417 L418.492 581.441 C460.597 570.276 498.374 552.928 529.577 530.975 C585.725 491.471 620.461 437.082 620.463 377.182 L620.441 377.182 L620.441 377.176 L620.441 377.171 L620.463 377.171 C620.462 317.271 585.725 262.880 529.574 223.375 C472.858 183.470 394.429 158.783 307.746 158.781 L307.746 158.803 L307.733 158.803 L307.726 158.803 L307.726 158.781 C221.041 158.782 142.610 183.470 85.890 223.376 C29.741 262.881 -4.994 317.270 -4.996 377.169 L-4.974 377.169 L-4.974 377.176 L-4.974 377.180 L-4.996 377.180 C-4.995 437.081 29.742 491.471 85.893 530.977 C114.709 551.250 149.132 567.593 187.391 578.769 C213.918 574.257 236.618 569.147 255.932 562.402 Z"/>
<path fill="#000000" fill-rule="evenodd" d="M153.882 209.152 C267.971 302.156 319.105 144.754 433.692 208.180 L434.581 208.672 L434.443 206.461 L433.733 206.006 C308.537 125.855 259.718 277.186 168.457 195.387 L153.882 209.152 Z"/>
</g></svg>