<svg xmlns="http://www.w3.org/2000/svg" viewBox="0 0 502.470 502.470" width="502.5" height="502.5">
<g transform="matrix(1 0 0 -1 -51.637 709.273)">
<path fill="#002b0b" fill-rule="evenodd" d="M51.637 709.273 L554.107 709.273 L554.107 206.803 L51.637 206.803 L51.637 709.273 Z"/>
<path fill="#ffffff" fill-rule="evenodd" d="M178.600 524.282 L145.906 524.282 C134.386 524.282 124.960 533.708 124.960 545.228 L124.960 649.979 C124.960 661.500 134.386 670.926 145.906 670.926 L178.600 670.926 C190.120 670.926 199.546 661.500 199.546 649.979 L199.546 545.228 C199.546 533.708 190.120 524.282 178.600 524.282 Z"/>
<path fill="#ffffff" fill-rule="evenodd" d="M271.689 524.282 L238.996 524.282 C227.476 524.282 218.050 533.708 218.050 545.228 L218.050 649.979 C218.050 661.500 227.476 670.926 238.996 670.926 L271.689 670.926 C283.210 670.926 292.635 661.500 292.635 649.979 L292.635 545.228 C292.635 533.708 283.210 524.282 271.689 524.282 Z"/>
<path fill="#ffffff" fill-rule="evenodd" d="M364.779 524.282 L332.086 524.282 C320.565 524.282 311.140 533.708 311.140 545.228 L311.140 649.979 C311.140 661.500 320.565 670.926 332.086 670.926 L364.779 670.926 C376.300 670.926 385.725 661.500 385.725 649.979 L385.725 545.228 C385.725 533.708 376.300 524.282 364.779 524.282 Z"/>
<path fill="#ffffff" fill-rule="evenodd" d="M457.869 524.282 L425.176 524.282 C413.655 524.282 404.230 533.708 404.230 545.228 L404.230 649.979 C404.230 661.500 413.655 670.926 425.176 670.926 L457.869 670.926 C469.390 670.926 478.815 661.500 478.815 649.979 L478.815 545.228 C478.815 533.708 469.390 524.282 457.869 524.282 Z"/>
<path fill="#ffffff" fill-rule="evenodd" d="M296.284 503.334 L471.303 503.334 L471.303 448.996 C471.303 436.486 461.068 426.250 448.557 426.250 L296.284 426.250 C283.773 426.250 273.538 436.486 273.538 448.996 L273.538 480.588 C273.538 493.099 283.773 503.334 296.284 503.334 Z"/>
<path fill="#ffffff" fill-rule="evenodd" d="M186.344 490.213 L241.314 231.644 L360.731 231.644 L387.901 407.927 L251.423 407.927 L251.423 490.213 L186.344 490.213 Z"/>
<path fill="#000000" fill-rule="evenodd" d="M442.440 649.945 L447.988 632.011 L466.758 632.277 L451.416 621.458 L457.469 603.688 L442.439 614.937 L427.411 603.688 L433.464 621.459 L418.122 632.277 L436.893 632.011 L442.440 649.945 Z"/>
</g></svg>