<svg xmlns="http://www.w3.org/2000/svg" viewBox="0 0 494.940 412.520" width="494.9" height="412.5">
<g transform="matrix(1 0 0 -1 -0.000 717.199)">
<path fill="#000000" fill-rule="evenodd" d="C0.000 0.000 0.000 0.000 0.000 524.000 Z"/>
<path fill="#3d5c99" fill-rule="evenodd" d="M110.762 304.679 L494.940 304.679 L494.940 717.199 L110.762 717.199 L110.762 304.679 Z"/>
<path fill="#7b0031" fill-rule="evenodd" d="M311.771 617.933 L361.626 617.933 C366.441 617.933 372.719 618.662 372.662 622.714 L372.662 630.357 C387.017 620.976 397.796 608.295 397.376 585.290 C397.376 558.208 384.534 551.570 367.428 551.570 L311.771 551.570 L311.771 617.933 Z"/>
<path fill="#7b0031" fill-rule="evenodd" d="M292.561 617.933 L242.706 617.933 C237.892 617.933 231.613 618.662 231.670 622.714 L231.670 630.357 C217.315 620.976 206.536 608.295 206.956 585.290 C206.956 558.208 219.798 551.570 236.904 551.570 L292.561 551.570 L292.561 617.933 Z"/>
<path fill="#7b0031" fill-rule="evenodd" d="M277.005 467.245 L165.075 467.245 L165.075 443.374 L165.075 418.399 L277.005 418.399 L277.005 353.324 C285.771 353.161 294.536 353.071 303.302 353.064 C311.788 353.056 320.273 353.125 328.759 353.263 L328.759 418.399 L441.586 418.399 L441.586 443.123 L441.586 467.245 L328.759 467.245 L328.759 531.855 C320.273 531.975 311.788 532.045 303.302 532.055 C294.536 532.067 285.771 532.014 277.005 531.907 L277.005 467.245 Z"/>
<path fill="#ffffff" fill-rule="evenodd" d="M277.005 353.324 L277.005 418.399 L165.075 418.399 L165.075 407.060 L213.331 407.060 L165.075 384.382 L165.075 369.128 L240.661 407.060 L268.864 407.060 L268.864 383.219 L212.462 355.412 C220.377 355.112 228.293 354.842 236.209 354.607 L268.864 369.844 L268.864 353.496 C271.578 353.432 274.291 353.375 277.005 353.324 Z"/>
<path fill="#ffffff" fill-rule="evenodd" d="M268.864 515.801 L236.209 531.038 C228.293 530.803 220.377 530.533 212.462 530.233 L268.864 502.426 L268.864 478.585 L240.661 478.585 L165.075 516.517 L165.075 501.263 L213.331 478.585 L165.075 478.585 L165.075 467.245 L277.005 467.245 L277.005 531.907 C274.291 531.874 271.578 531.836 268.864 531.791 L268.864 515.801 Z"/>
<path fill="#7b0031" fill-rule="evenodd" d="M165.075 516.517 L240.661 478.585 L268.864 478.585 L268.864 502.426 L212.462 530.233 C200.740 529.789 189.018 529.280 177.296 528.726 C170.545 528.406 165.075 522.819 165.075 516.517 Z"/>
<path fill="#ffffff" fill-rule="evenodd" d="M365.558 478.585 L441.586 516.517 L441.586 501.263 L393.048 478.585 L441.586 478.585 L441.586 467.245 L328.759 467.245 L328.759 531.855 C331.569 531.815 334.380 531.770 337.190 531.718 L337.190 515.801 L370.036 531.038 C377.998 530.803 385.961 530.533 393.921 530.233 L337.190 502.426 L337.190 478.585 L365.558 478.585 Z"/>
<path fill="#7b0031" fill-rule="evenodd" d="M441.586 516.517 L365.558 478.585 L337.190 478.585 L337.190 502.426 L393.922 530.233 C405.713 529.789 417.503 529.280 429.293 528.726 C436.084 528.406 441.586 522.819 441.586 516.517 Z"/>
<path fill="#7b0031" fill-rule="evenodd" d="M165.075 369.128 L240.661 407.060 L268.864 407.060 L268.864 383.219 L212.462 355.412 C200.740 355.856 189.018 356.365 177.296 356.920 C170.545 357.239 165.075 362.826 165.075 369.128 Z"/>
<path fill="#ffffff" fill-rule="evenodd" d="M337.190 369.844 L369.846 354.607 C377.762 354.842 385.677 355.112 393.592 355.412 L337.190 383.219 L337.190 407.060 L365.393 407.060 L440.980 369.128 L440.980 384.382 L392.724 407.060 L441.586 407.060 L441.586 418.399 L328.759 418.399 L328.759 353.263 C331.569 353.308 334.380 353.361 337.190 353.421 L337.190 369.844 Z"/>
<path fill="#7b0031" fill-rule="evenodd" d="M440.980 369.128 L365.393 407.060 L337.190 407.060 L337.190 383.219 L393.592 355.412 C405.315 355.856 417.037 356.365 428.759 356.920 C435.510 357.239 440.980 362.826 440.980 369.128 Z"/>
<path fill="#ffffff" fill-rule="evenodd" d="M302.748 704.400 L302.748 704.400 C335.097 704.400 364.501 691.170 385.816 669.856 C407.129 648.542 420.359 619.138 420.359 586.789 L420.337 586.789 C420.337 585.270 420.959 582.625 421.580 579.988 C422.141 577.602 422.703 575.218 422.961 572.974 L444.326 572.974 C452.029 572.974 459.608 569.837 465.411 564.785 L465.422 564.797 C471.153 559.804 475.223 552.884 476.070 545.191 C477.887 528.681 479.299 512.092 480.257 495.447 C481.206 478.956 481.700 462.364 481.692 445.689 C481.683 429.011 481.180 412.420 480.227 395.936 C479.264 379.294 477.853 362.712 476.035 346.212 C475.190 338.538 471.127 331.629 465.402 326.639 C459.607 321.588 452.033 318.454 444.326 318.454 L304.671 318.454 L304.671 318.432 L165.016 318.432 C157.357 318.432 149.653 321.556 143.656 326.598 C137.765 331.549 133.456 338.404 132.360 346.039 C129.978 362.631 128.135 379.236 126.893 395.817 C125.657 412.307 125.014 428.939 125.023 445.689 C125.031 462.264 125.656 478.729 126.860 495.057 C128.097 511.834 129.944 528.615 132.360 545.364 C133.461 553.003 137.772 559.865 143.665 564.824 C149.660 569.869 157.358 572.996 165.016 572.996 L182.524 572.996 C182.794 575.260 183.363 577.687 183.936 580.115 C184.535 582.660 185.137 585.212 185.137 586.789 C185.137 619.138 198.367 648.542 219.681 669.856 C240.995 691.170 270.400 704.400 302.748 704.400 L302.748 704.400 ZM302.748 693.298 L302.748 693.298 C273.464 693.298 246.837 681.314 227.530 662.007 C208.223 642.700 196.239 616.073 196.239 586.789 C196.239 583.989 195.484 580.791 194.733 577.600 C189.945 557.274 184.252 561.894 165.016 561.894 C159.969 561.894 154.830 559.779 150.776 556.369 C146.870 553.082 144.028 548.641 143.331 543.803 C140.954 527.328 139.136 510.808 137.917 494.277 C136.713 477.945 136.087 461.735 136.080 445.689 C136.072 429.494 136.715 413.128 137.950 396.642 C139.178 380.247 140.992 363.889 143.331 347.600 C144.024 342.767 146.864 338.334 150.767 335.053 C154.821 331.645 159.964 329.534 165.016 329.534 L304.671 329.534 L304.671 329.512 L444.326 329.512 C449.294 329.512 454.255 331.600 458.117 334.966 C461.853 338.221 464.492 342.628 465.021 347.427 C466.827 363.831 468.225 380.213 469.170 396.543 C470.123 413.030 470.627 429.425 470.634 445.689 C470.642 461.957 470.148 478.353 469.199 494.840 C468.260 511.174 466.862 527.563 465.055 543.976 C464.529 548.761 461.881 553.165 458.137 556.428 L458.137 556.449 C454.267 559.822 449.296 561.916 444.326 561.916 C428.128 561.916 415.392 557.884 410.783 577.473 C410.032 580.663 409.280 583.863 409.280 586.789 L409.258 586.789 C409.258 616.074 397.273 642.700 377.967 662.007 C358.659 681.314 332.033 693.298 302.748 693.298 Z"/>
<path fill="#3d5c99" fill-rule="evenodd" d="M236.904 551.570 C219.798 551.570 206.956 558.208 206.956 585.290 C206.536 608.295 217.315 620.976 231.670 630.357 L231.670 622.714 C231.613 618.662 237.892 617.933 242.706 617.933 L292.561 617.933 L292.561 551.570 L236.904 551.570 L236.904 551.570 ZM377.967 662.007 C358.659 681.314 332.033 693.298 302.748 693.298 C273.464 693.298 246.837 681.314 227.530 662.007 C208.223 642.700 196.239 616.073 196.239 586.789 C196.239 583.989 195.484 580.791 194.733 577.600 C189.945 557.274 184.252 561.894 165.016 561.894 C159.969 561.894 154.830 559.779 150.776 556.369 C146.870 553.082 144.028 548.641 143.331 543.803 C140.954 527.328 139.136 510.808 137.917 494.277 C136.713 477.945 136.087 461.735 136.080 445.689 C136.072 429.494 136.715 413.128 137.950 396.642 C139.178 380.247 140.992 363.889 143.331 347.600 C144.024 342.767 146.864 338.334 150.767 335.053 C154.821 331.645 159.964 329.534 165.016 329.534 L304.671 329.534 L304.671 329.512 L444.326 329.512 C449.294 329.512 454.255 331.600 458.117 334.966 C461.853 338.221 464.492 342.628 465.021 347.427 C466.827 363.831 468.225 380.213 469.170 396.543 C470.123 413.030 470.627 429.425 470.634 445.689 C470.642 461.957 470.148 478.353 469.199 494.840 C468.260 511.174 466.862 527.563 465.055 543.976 C464.529 548.761 461.881 553.165 458.137 556.428 L458.137 556.449 C454.267 559.822 449.296 561.916 444.326 561.916 C428.128 561.916 415.392 557.884 410.783 577.473 C410.032 580.663 409.280 583.863 409.280 586.789 L409.258 586.789 C409.258 616.074 397.273 642.700 377.967 662.007 L377.967 662.007 ZM311.771 551.570 L311.771 617.933 L361.626 617.933 C366.441 617.933 372.719 618.662 372.662 622.714 L372.662 630.357 C387.017 620.976 397.796 608.295 397.376 585.290 C397.376 558.208 384.534 551.570 367.428 551.570 L311.771 551.570 L311.771 551.570 ZM212.462 530.233 C220.377 530.533 228.293 530.803 236.209 531.038 L268.864 515.801 L268.864 531.791 L277.005 531.907 C285.771 532.014 294.536 532.067 303.302 532.055 C311.788 532.045 320.273 531.975 328.759 531.855 L337.190 531.718 L337.190 515.801 L370.036 531.038 C377.998 530.803 385.961 530.533 393.921 530.233 C405.713 529.789 417.503 529.280 429.293 528.726 C436.083 528.406 441.586 522.819 441.586 516.517 L441.586 501.263 L393.048 478.585 L441.586 478.585 L441.586 467.245 L441.586 443.123 L441.586 418.399 L441.586 407.060 L392.724 407.060 L440.980 384.382 L440.980 369.128 C440.980 362.826 435.510 357.239 428.759 356.920 C417.037 356.365 405.315 355.856 393.592 355.412 C385.677 355.112 377.762 354.842 369.846 354.607 L337.190 369.844 L337.190 353.421 C334.380 353.361 331.569 353.308 328.759 353.263 C320.273 353.125 311.788 353.056 303.302 353.064 C294.536 353.071 285.771 353.161 277.005 353.324 C274.291 353.375 271.578 353.432 268.864 353.496 L268.864 369.844 L236.209 354.607 C228.293 354.842 220.377 355.112 212.462 355.412 C200.740 355.856 189.018 356.365 177.296 356.920 C170.545 357.239 165.075 362.826 165.075 369.128 L165.075 384.382 L213.331 407.060 L165.075 407.060 L165.075 418.399 L165.075 443.374 L165.075 467.245 L165.075 478.585 L213.331 478.585 L165.075 501.263 L165.075 516.517 C165.075 522.819 170.545 528.406 177.296 528.726 C189.018 529.280 200.740 529.789 212.462 530.233 Z"/>
</g></svg>