<svg xmlns="http://www.w3.org/2000/svg" viewBox="0 0 599.623 711.902" width="599.6" height="711.9">
<g transform="matrix(1 0 0 -1 24.871 818.879)">
<path fill="#000000" fill-rule="evenodd" d="C0.000 0.000 0.000 0.000 0.000 524.000 Z"/>
<path fill="#000148" fill-rule="evenodd" d="M-24.871 106.977 L574.752 106.977 L574.752 818.879 L-24.871 818.879 L-24.871 106.977 Z"/>
<path fill="#fbca0d" fill-rule="evenodd" d="M194.232 448.073 L245.625 673.900 L194.232 448.073 L194.232 448.073 ZM293.488 670.163 L338.042 441.728 L293.488 670.163 L293.488 670.163 ZM53.831 533.830 L39.964 542.301 C19.377 508.674 5.963 470.182 1.852 428.955 L18.020 427.325 L197.845 409.187 L192.747 409.701 L160.836 412.919 C160.475 409.305 160.291 405.640 160.291 401.932 C160.291 398.986 160.407 396.069 160.636 393.183 L181.917 394.888 L17.558 381.713 L1.361 380.415 C1.362 380.395 1.364 380.375 1.365 380.354 C5.125 339.743 16.791 301.647 37.136 266.314 L51.164 274.491 L168.086 342.651 L175.178 346.786 C178.513 341.078 182.350 335.698 186.629 330.709 L180.396 325.369 L77.627 237.338 L65.287 226.768 C65.321 226.728 65.355 226.688 65.389 226.649 C93.136 194.963 124.687 170.455 161.281 155.474 L167.813 170.311 L222.346 294.192 L225.654 301.705 C231.630 299.070 237.886 296.953 244.365 295.413 L242.460 287.427 L211.055 155.771 L207.291 139.992 C246.781 131.479 286.603 130.275 326.866 138.772 L323.427 154.621 L294.732 286.893 L292.991 294.916 C299.505 296.323 305.803 298.309 311.829 300.819 L314.981 293.239 L366.961 168.264 L373.188 153.291 C411.358 169.369 443.629 192.658 470.531 222.508 C470.561 222.541 470.591 222.575 470.622 222.608 L458.501 233.430 L357.562 323.552 L351.440 329.017 C355.821 333.921 359.767 339.220 363.217 344.856 L370.222 340.578 L485.718 270.033 L499.585 261.562 C519.894 294.045 532.364 331.991 537.697 374.908 L521.529 376.538 L386.880 390.120 L378.713 390.944 C379.074 394.558 379.258 398.223 379.258 401.932 C379.258 404.876 379.142 407.794 378.913 410.680 L387.095 411.336 L521.991 422.150 L538.188 423.448 C538.187 423.468 538.185 423.488 538.184 423.508 C534.434 464.812 522.934 502.997 502.413 537.549 L488.385 529.371 L371.463 461.212 L364.371 457.077 L338.042 441.728 L327.679 494.861 L296.732 653.524 L293.488 670.163 L289.704 689.560 L292.604 694.200 L300.724 719.140 L210.245 782.939 L245.625 673.900 L244.748 670.045 L240.941 653.319 L194.232 448.073 L176.332 459.006 L169.327 463.285 L53.831 533.830 L53.831 533.830 ZM315.041 464.732 C315.660 454.134 317.019 435.636 322.221 426.845 L331.035 431.361 L339.567 435.460 L368.480 449.351 L375.880 452.906 L497.869 511.514 L520.041 439.330 L520.064 439.255 L520.053 439.253 L386.193 419.292 L378.075 418.081 L346.350 413.349 L337.044 411.962 C337.270 410.446 337.445 408.913 337.567 407.366 C337.707 405.595 337.778 403.805 337.778 401.998 C337.778 399.672 337.660 397.373 337.429 395.108 C337.249 393.344 337.001 391.601 336.688 389.881 L345.974 388.209 L377.543 382.524 L385.622 381.069 L518.821 357.084 L494.478 285.545 L494.471 285.522 L374.292 347.783 L367.003 351.559 L338.522 366.315 L330.054 370.702 C329.310 369.292 328.517 367.912 327.678 366.564 C325.517 363.089 323.046 359.828 320.305 356.816 C319.054 355.440 317.748 354.118 316.388 352.851 L323.082 345.803 L345.167 322.550 L350.819 316.599 L444.005 218.483 L444.041 218.446 L443.757 218.248 L382.075 175.155 L322.012 296.443 L318.368 303.800 L304.134 332.546 L299.722 341.454 C298.396 340.815 297.045 340.218 295.672 339.665 C291.948 338.167 288.059 336.992 284.040 336.176 C282.200 335.803 280.333 335.504 278.442 335.285 L279.759 325.157 L283.895 293.351 L284.954 285.211 L302.409 151.004 L302.410 150.993 L302.334 150.995 L302.332 150.995 L226.881 152.541 L226.838 152.548 L249.801 285.929 L251.195 294.019 L256.637 325.630 L258.412 335.940 C257.009 336.197 255.620 336.498 254.248 336.843 C250.306 337.829 246.502 339.165 242.870 340.815 C241.634 341.377 240.417 341.975 239.222 342.608 L234.324 333.098 L219.637 304.581 L215.879 297.284 L153.911 176.963 L92.944 220.989 L92.622 221.221 L92.663 221.263 L187.390 317.892 L193.136 323.753 L215.585 346.654 L223.204 354.426 C221.838 355.787 220.530 357.208 219.285 358.682 C216.711 361.729 214.403 365.008 212.398 368.483 C211.639 369.798 210.924 371.141 210.254 372.510 L200.364 367.621 L171.609 353.407 L164.249 349.769 L42.922 289.796 L19.936 361.753 L19.920 361.802 L19.927 361.804 L198.390 390.466 L204.279 391.412 C204.006 393.130 203.799 394.872 203.660 396.631 C203.520 398.402 203.448 400.192 203.448 401.998 C203.448 404.223 203.556 406.421 203.768 408.589 C203.914 410.086 204.109 411.569 204.352 413.035 L198.494 414.029 L20.290 444.274 L43.921 516.076 L164.716 455.027 L172.043 451.324 L200.671 436.855 L210.461 431.908 C211.000 432.989 211.567 434.053 212.161 435.099 L212.461 436.938 L215.806 457.425 L247.915 654.013 L250.614 670.521 L252.848 684.204 L227.886 757.721 L288.600 712.846 L256.755 712.610 L253.502 701.459 L267.596 684.523 L280.096 683.231 L282.065 670.917 L284.689 654.512 L284.877 654.500 L284.522 654.522 L308.643 504.312 L314.994 464.767 L315.041 464.732 L315.041 464.732 ZM203.704 442.288 C203.969 442.721 204.237 443.152 204.510 443.580 C204.237 443.152 203.969 442.721 203.704 442.288 L203.704 442.288 ZM204.593 443.710 C204.857 444.121 205.125 444.529 205.397 444.935 C205.126 444.530 204.857 444.121 204.593 443.710 L204.593 443.710 ZM205.513 445.108 C206.062 445.924 206.627 446.729 207.207 447.523 C206.627 446.729 206.063 445.925 205.513 445.108 L205.513 445.108 ZM207.258 447.594 C208.211 448.898 209.207 450.169 210.237 451.408 C209.206 450.168 208.214 448.898 207.258 447.594 L207.258 447.594 ZM210.637 451.883 C211.289 452.654 211.958 453.414 212.639 454.160 C211.958 453.415 211.289 452.654 210.637 451.883 L210.637 451.883 ZM214.475 154.984 L213.904 155.110 L213.590 155.183 L214.475 154.984 Z"/>
<path fill="#7b0030" fill-rule="evenodd" d="M204.283 391.413 L19.920 361.802 C23.540 336.439 31.009 312.301 42.922 289.796 L210.259 372.512 C213.558 365.774 217.949 359.667 223.206 354.427 L92.622 221.221 C110.250 203.777 130.679 189.024 153.911 176.963 L239.225 342.614 C245.151 339.474 251.603 337.196 258.413 335.944 L226.836 152.542 C252.029 149.008 277.218 147.631 302.410 150.993 L278.440 335.291 C285.985 336.168 293.152 338.290 299.721 341.456 L382.075 175.155 C404.975 186.747 425.775 200.995 444.041 218.446 L316.383 352.856 C321.877 357.976 326.512 364.005 330.047 370.705 L494.471 285.522 C505.361 308.911 514.052 332.670 518.821 357.084 L336.684 389.882 C337.402 393.812 337.778 397.861 337.778 401.998 C337.778 405.384 337.524 408.710 337.040 411.961 L520.064 439.255 C516.111 464.372 508.712 488.457 497.869 511.514 L324.078 428.172 L280.096 683.231 L273.846 683.877 C270.558 710.291 272.656 710.579 288.600 712.846 L227.886 757.721 L252.848 684.204 L212.158 435.083 C211.567 434.041 211.004 432.981 210.468 431.905 L43.921 516.076 C31.676 492.225 24.313 468.281 20.290 444.274 L204.358 413.034 C203.763 409.443 203.448 405.758 203.448 401.998 C203.448 398.396 203.737 394.861 204.283 391.413 Z"/>
</g></svg>