<svg xmlns="http://www.w3.org/2000/svg" xmlns:xlink="http://www.w3.org/1999/xlink" xmlns:inkscape="http://www.inkscape.org/namespaces/inkscape" version="1.1" width="35" height="37" viewBox="-2.33 -2.67 35.00 36.67">
<g>
<path d="M1.953 14.293V20.09H6.195V23.492H12.129V20.09H15.855L19.324 23.477 27.734 23.492 24.25 20.09H27.844V14.293ZM1.953 14.293"/>
<path d="M8.863 1.5H20.855L23.957 5.113C24.496 5.914 25.059 6.316 25.637 6.316H27.914V12.043H22.984C21.863 12.043 20.93 11.625 20.184 10.805L16.41 6.645H13.309L9.609 10.805C8.879 11.625 7.984 12.043 6.883 12.043H1.801V6.316H4.23C4.809 6.316 5.352 5.914 5.871 5.113ZM8.863 1.5"/>
<path d="M11.918 28.633H11.398V27.695H13.656V28.633ZM11.918 28.633"/>
<path d="M7.188 27.363H10.344V26.426H6.246V29.879H10.344V27.695H8.09V28.633H9.406V28.941H7.188ZM7.188 27.363"/>
<path d="M22.492 26.441V27.699H20.293V26.426H19.359V28.629H20.883V29.957H21.809V28.629H23.422V26.441ZM22.492 26.441"/>
<path d="M1.688 26.418V29.82H2.633V28.633H4.863V29.832H5.805V26.418ZM2.633 27.363H4.863V27.695H2.633ZM2.633 27.363"/>
<path d="M18.453 27.375V26.445H14.395V28.344H14.414L14.418 28.637H17.523V28.984H14.395V29.914H18.453V28.355H18.449V27.707H15.359V27.375ZM18.453 27.375"/>
<path d="M28.336 27.375V26.445H24.277V28.344H24.301V28.637H27.406V28.984H24.277V29.914H28.336V28.355H28.332V27.707H25.246V27.375ZM28.336 27.375"/>
</g>
</svg>