<?xml version="1.0" encoding="UTF-8"?><svg id="b" xmlns="http://www.w3.org/2000/svg" viewBox="0 0 100.7 107.53"><g id="c"><path fill="#9bd9e8" d="M1,48.34v21.91h16.03v12.86h22.42v-12.86h14.08l13.11,12.8,31.78.06-13.17-12.86h13.58v-21.91H1Z"/><path fill="#35b4d0" d="M27.11,0h45.31l11.72,13.65c2.04,3.03,4.16,4.55,6.35,4.55h8.6v21.64h-18.63c-4.24,0-7.76-1.58-10.58-4.68l-14.26-15.72h-11.72l-13.98,15.72c-2.76,3.1-6.14,4.68-10.3,4.68H.43v-21.64h9.18c2.19,0,4.24-1.52,6.2-4.55L27.11,0Z"/><path d="M38.66,102.53h-1.96v-3.54h8.53v3.54h-6.57Z" fill="#000000"/><path d="M20.78,97.73h11.93v-3.54h-15.49v13.05h15.49v-8.25h-8.52v3.54h4.97v1.16h-8.38v-5.96Z" fill="#000000"/><path d="M78.61,94.24v4.75h-8.31v-4.81h-3.53v8.32h5.76v5.02h3.5v-5.02h6.1v-8.27h-3.51Z" fill="#000000"/><path d="M0,94.16v12.86h3.57v-4.49h8.43v4.53h3.56v-12.9H0ZM3.57,97.73h8.43v1.25H3.57v-1.25Z" fill="#000000"/><path d="M63.35,97.77v-3.51h-15.33v7.18h.07l.02,1.11h11.73v1.31h-11.82v3.51h15.33v-5.89h-.02v-2.45h-11.68v-1.25h11.69Z" fill="#000000"/><path d="M100.7,97.77v-3.51h-15.34v7.18h.09v1.11h11.73v1.31h-11.82v3.51h15.34v-5.89h-.02v-2.45h-11.66v-1.25h11.68Z" fill="#000000"/></g></svg>