<svg xmlns="http://www.w3.org/2000/svg" viewBox="0 0 528 456" width="528" height="456"><path fill="#000000" fill-rule="evenodd" d="M458.74 454.18 C431.87 454.18 94.41 453.53 67.54 453.53 C31.69 453.67 1.15 429.24 1.51 385.56 C1.51 358.69 1.51 94.74 1.51 67.87 C1.15 32.24 31.69 1.70 68.83 1.84 C95.70 1.84 431.87 1.84 458.74 1.84 C495.88 1.70 526.42 32.24 526.50 68.52 C526.50 95.39 526.50 359.98 526.50 386.86 C526.42 423.14 495.88 453.67 458.74 454.18 Z M508.10 68.88 C508.10 44.45 483.67 20.02 459.24 20.02 C434.80 20.02 92.77 20.02 68.34 20.02 C43.90 20.02 19.47 44.45 19.47 68.88 C19.47 93.31 19.47 362.06 19.47 386.49 C19.47 410.92 43.90 435.35 68.34 435.35 C92.77 435.35 434.80 435.35 459.24 435.35 C483.67 435.35 508.10 410.92 508.10 386.49 C508.10 362.06 508.10 93.31 508.10 68.88 Z M337.24 408.55 C337.24 408.55 282.46 353.77 282.46 353.77 C282.46 353.77 218.49 353.77 218.49 353.77 C218.49 353.77 218.49 408.55 218.49 408.55 C218.49 408.55 118.12 408.55 118.12 408.55 C118.12 408.55 118.12 353.77 118.12 353.77 C118.12 353.77 45.08 353.77 45.08 353.77 C45.08 353.77 45.08 253.87 45.08 253.87 C45.08 253.87 483.32 253.87 483.32 253.87 C483.32 253.87 483.32 353.77 483.32 353.77 C483.32 353.77 428.54 353.77 428.54 353.77 C428.54 353.77 483.32 408.55 483.32 408.55 C483.32 408.55 337.24 408.55 337.24 408.55 Z M292.16 134.65 C292.16 134.65 237.52 134.65 237.52 134.65 C237.52 134.65 154.64 217.66 154.64 217.66 C154.64 217.66 45.08 217.66 45.08 217.66 C45.08 217.66 45.08 116.39 45.08 116.39 C45.08 116.39 99.86 116.39 99.86 116.39 C99.86 116.39 154.64 43.35 154.64 43.35 C154.64 43.35 373.76 43.35 373.76 43.35 C373.76 43.35 428.54 116.39 428.54 116.39 C428.54 116.39 483.32 116.39 483.32 116.39 C483.32 116.39 483.32 217.05 483.32 217.05 C483.32 217.05 373.76 217.05 373.76 217.05 C373.76 217.05 292.16 134.65 292.16 134.65 Z"/></svg>