<svg xmlns="http://www.w3.org/2000/svg" viewBox="0 0 523 320" width="523" height="320"><path fill="#000000" fill-rule="evenodd" d="M516.32 318.43 C511.78 318.43 507.25 318.43 502.71 318.43 C498.18 318.43 498.18 318.43 498.18 313.89 C498.18 309.36 498.18 306.60 498.18 302.49 C498.18 298.39 502.71 295.75 504.98 295.75 C507.24 295.75 511.78 295.75 514.27 295.75 C516.75 295.75 520.85 298.06 520.85 302.49 C520.85 306.93 520.85 309.36 520.85 313.89 C520.85 318.43 520.85 318.43 516.32 318.43 Z M516.32 304.82 C516.32 300.29 516.32 300.29 511.78 300.29 C507.25 300.29 511.78 300.29 507.25 300.29 C502.71 300.29 502.71 300.29 502.71 304.82 C502.71 309.36 502.71 309.68 502.71 311.79 C502.71 313.89 503.04 313.89 505.14 313.89 C507.25 313.89 512.39 313.89 514.35 313.89 C516.32 313.89 516.32 313.55 516.32 311.45 C516.32 309.36 516.32 309.36 516.32 304.82 Z M514.35 291.22 C509.92 291.22 506.90 291.22 504.81 291.22 C502.71 291.22 498.18 288.85 498.18 284.33 C498.18 279.81 498.18 279.64 498.18 275.28 C498.18 270.93 500.12 268.54 504.98 268.54 C509.83 268.54 511.78 270.60 511.78 275.28 C511.78 279.97 511.78 282.15 511.78 286.68 C516.32 286.68 516.32 286.68 516.32 282.15 C516.32 279.72 516.32 272.98 516.32 270.76 C516.32 268.54 520.85 268.61 520.85 270.85 C520.85 273.08 520.85 280.14 520.85 284.24 C520.85 288.34 518.79 291.22 514.35 291.22 Z M507.25 275.45 C507.25 273.08 502.71 273.29 502.71 275.45 C502.71 277.61 502.71 277.61 502.71 282.15 C502.71 286.68 502.71 286.68 507.25 286.68 C507.25 282.15 507.25 277.82 507.25 275.45 Z M514.02 264.01 C509.50 264.01 502.71 264.01 500.54 264.01 C498.36 264.01 498.18 259.48 500.45 259.48 C502.73 259.48 507.25 259.48 511.78 259.48 C516.32 259.48 516.32 257.37 516.32 252.59 C516.32 247.82 516.32 245.87 511.78 245.87 C507.25 245.87 502.71 245.87 500.29 245.87 C497.86 245.87 498.18 241.34 500.45 241.34 C502.73 241.34 509.75 241.34 513.93 241.34 C518.12 241.34 520.85 245.87 520.85 247.74 C520.85 249.60 520.85 254.94 520.85 257.28 C520.85 259.62 518.54 264.01 514.02 264.01 Z M514.35 236.80 C509.92 236.80 509.50 236.80 505.06 236.80 C500.62 236.80 498.18 234.34 498.18 229.82 C498.18 225.30 498.18 225.30 498.18 220.86 C498.18 216.43 500.45 214.13 505.14 214.13 C509.75 214.13 511.78 216.17 511.78 221.11 C511.78 226.05 511.78 227.73 511.78 232.27 C516.32 232.27 516.32 232.27 516.32 227.73 C516.32 225.39 516.32 218.66 516.32 216.43 C516.32 214.19 520.85 214.13 520.85 216.26 C520.85 218.39 520.85 225.38 520.85 229.99 C520.85 234.59 518.79 236.80 514.35 236.80 Z M507.25 220.95 C507.25 218.66 502.71 218.53 502.71 220.86 C502.71 223.20 502.71 223.20 502.71 227.73 C502.71 232.27 502.71 232.27 507.25 232.27 C507.25 227.73 507.25 223.23 507.25 220.95 Z M514.27 209.59 C509.92 209.59 502.71 209.59 500.45 209.59 C498.19 209.59 498.18 205.06 500.37 205.06 C502.56 205.06 507.25 205.06 511.78 205.06 C516.32 205.06 516.32 205.06 516.32 200.53 C516.32 195.99 516.32 195.99 516.32 193.57 C516.32 191.15 520.85 191.46 520.85 193.57 C520.85 195.68 520.85 197.92 520.85 202.69 C520.85 207.47 518.62 209.59 514.27 209.59 Z M514.10 186.92 C509.58 186.92 509.83 186.92 505.23 186.92 C500.62 186.92 498.18 184.61 498.18 179.92 C498.18 175.23 498.18 176.15 498.18 171.21 C498.18 166.27 500.29 164.25 504.98 164.25 C509.66 164.25 509.75 164.25 514.35 164.25 C518.96 164.25 520.85 166.44 520.85 171.05 C520.85 175.65 520.85 175.40 520.85 180.09 C520.85 184.78 518.62 186.92 514.10 186.92 Z M516.32 173.32 C516.32 168.78 516.32 168.78 511.78 168.78 C507.25 168.78 511.78 168.78 507.25 168.78 C502.71 168.78 502.71 168.78 502.71 173.32 C502.71 177.85 502.71 173.32 502.71 177.85 C502.71 182.39 502.71 182.39 507.25 182.39 C509.10 182.39 510.04 182.33 511.74 182.40 C516.32 182.33 516.32 180.53 516.32 177.85 C516.32 173.32 516.32 177.85 516.32 173.32 Z M514.19 105.30 C509.58 105.30 509.33 105.30 504.89 105.30 C500.45 105.30 498.18 103.06 498.18 98.46 C498.18 93.85 498.18 94.19 498.18 89.58 C498.18 84.98 500.45 82.63 505.31 82.63 C510.17 82.63 511.78 84.56 511.78 89.67 C511.78 94.77 511.78 96.23 511.78 100.76 C516.32 100.76 516.32 100.76 516.32 96.23 C516.32 91.69 516.32 87.16 516.32 84.89 C516.32 82.63 520.85 82.29 520.85 84.73 C520.85 87.16 520.85 94.44 520.85 98.54 C520.85 102.64 518.79 105.30 514.19 105.30 Z M507.25 89.58 C507.25 87.16 502.71 87.64 502.71 89.67 C502.71 91.69 502.71 91.69 502.71 96.23 C502.71 100.76 502.71 100.76 507.25 100.76 C507.25 96.23 507.25 92.00 507.25 89.58 Z M514.44 50.88 C510.25 50.88 502.71 50.88 500.45 50.88 C498.19 50.88 498.18 46.35 500.45 46.35 C502.73 46.35 507.25 46.35 507.25 46.35 C507.25 46.35 507.25 32.74 507.25 30.47 C507.25 28.20 511.78 28.21 511.78 30.47 C511.78 32.73 511.78 41.81 511.78 46.35 C516.32 46.35 516.32 46.35 516.32 41.81 C516.32 37.28 516.32 32.74 516.32 30.47 C516.32 28.20 520.85 28.21 520.85 30.47 C520.85 32.73 520.85 39.26 520.85 44.12 C520.85 48.97 518.62 50.88 514.44 50.88 Z M516.32 21.26 C516.32 18.85 516.32 10.07 516.32 7.70 C516.32 5.32 511.78 5.54 511.78 7.87 C511.78 10.19 511.78 12.39 511.78 16.74 C511.78 21.09 511.78 23.68 505.14 23.68 C498.50 23.68 498.18 21.35 498.18 16.82 C498.18 12.30 498.18 5.54 498.18 3.34 C498.18 1.15 502.71 1.00 502.71 3.26 C502.71 5.52 502.71 14.61 502.71 16.91 C502.71 19.21 507.25 19.14 507.25 16.91 C507.25 14.68 507.25 12.39 507.25 7.87 C507.25 3.34 507.25 1.00 514.10 1.00 C520.95 1.00 520.85 3.51 520.85 7.87 C520.85 12.22 520.85 19.14 520.85 21.26 C520.85 23.38 516.32 23.68 516.32 21.26 Z M471.71 224.33 C465.40 224.33 465.79 224.33 465.79 218.54 C465.79 212.75 465.79 212.05 471.71 212.05 C477.64 212.05 478.02 212.05 478.02 218.67 C478.02 224.33 478.02 224.33 471.71 224.33 Z M386.34 224.33 C338.01 224.33 326.36 224.33 300.90 224.33 C275.45 224.33 264.66 212.05 264.66 187.50 C264.66 162.94 264.66 64.71 264.66 40.15 C264.66 15.60 276.74 3.32 301.34 3.32 C325.93 3.32 337.58 3.32 386.34 3.32 C435.10 3.32 478.02 52.43 478.02 120.83 C478.02 189.24 434.67 224.33 386.34 224.33 Z M367.94 52.43 C367.94 52.43 367.94 76.99 367.94 76.99 C367.94 76.99 319.02 76.99 319.02 76.99 C319.02 76.99 319.02 150.66 319.02 150.66 C319.02 150.66 367.94 149.86 367.94 149.86 C367.94 149.86 367.94 175.22 367.94 175.22 C367.94 175.22 435.14 114.69 435.14 114.69 C435.14 114.69 367.94 52.43 367.94 52.43 Z M239.20 224.33 C232.77 224.33 233.40 224.33 233.40 217.43 C233.40 212.05 233.40 212.05 239.63 212.05 C245.87 212.05 245.63 212.05 245.63 218.29 C245.63 224.54 245.63 224.33 239.20 224.33 Z M184.47 224.33 C160.01 224.33 62.16 224.33 37.70 224.33 C13.24 224.33 1.00 199.77 1.00 187.50 C1.00 175.22 1.00 150.08 1.00 100.96 C1.00 51.85 31.87 3.32 111.48 3.32 C191.09 3.32 221.17 52.43 221.17 101.55 C221.17 150.66 221.17 162.94 221.17 187.50 C221.17 212.05 208.93 224.33 184.47 224.33 Z M111.48 46.33 C111.48 46.33 37.70 113.82 37.70 113.82 C37.70 113.82 67.90 113.82 67.90 113.82 C67.90 113.82 67.90 162.94 67.90 162.94 C67.90 162.94 154.20 162.94 154.20 162.94 C154.20 162.94 154.20 113.82 154.20 113.82 C154.20 113.82 184.47 113.82 184.47 113.82 C184.47 113.82 111.48 46.33 111.48 46.33 Z M505.06 55.42 C509.83 55.42 516.39 55.42 518.62 55.42 C520.85 55.42 520.59 59.95 518.46 59.95 C516.32 59.95 511.78 59.95 507.25 59.95 C502.71 59.95 502.71 59.95 502.71 64.49 C502.71 69.02 502.71 64.49 502.71 69.02 C502.71 73.56 502.71 73.56 507.25 73.56 C511.78 73.56 516.22 73.56 518.54 73.56 C520.85 73.56 520.93 78.09 518.62 78.09 C516.32 78.09 510.08 78.09 505.23 78.09 C500.37 78.09 498.18 75.85 498.18 71.16 C498.18 66.47 498.18 66.56 498.18 62.20 C498.18 57.85 500.29 55.42 505.06 55.42 Z M498.18 116.62 C498.18 112.10 500.12 109.83 504.89 109.83 C509.66 109.83 516.39 109.83 518.62 109.83 C520.85 109.83 520.93 114.37 518.62 114.37 C516.32 114.37 507.07 114.37 504.89 114.37 C502.71 114.37 502.53 118.90 504.89 118.90 C507.25 118.90 516.22 118.90 518.54 118.90 C520.85 118.90 520.59 123.44 518.46 123.44 C516.32 123.44 507.40 123.44 505.06 123.44 C502.71 123.44 502.87 127.97 505.06 127.97 C507.25 127.97 516.56 127.97 518.71 127.97 C520.85 127.97 520.76 132.51 518.54 132.51 C516.32 132.51 509.16 132.51 504.81 132.51 C500.45 132.51 498.18 130.19 498.18 125.83 C498.18 121.48 500.37 121.23 500.37 121.23 C500.37 121.23 498.18 121.15 498.18 116.62 Z M505.31 137.04 C510.50 137.04 511.78 139.31 511.78 143.84 C511.78 148.36 511.78 155.18 511.78 155.18 C511.78 155.18 516.56 155.18 518.71 155.18 C520.85 155.18 521.09 159.71 518.71 159.71 C516.32 159.71 509.50 159.71 505.06 159.71 C500.62 159.71 498.18 157.15 498.18 152.88 C498.18 148.61 498.18 148.78 498.18 144.00 C498.18 139.23 500.12 137.04 505.31 137.04 Z M507.25 155.18 C507.25 150.64 507.17 145.36 507.17 143.17 C507.17 140.97 502.80 140.91 502.80 143.25 C502.80 145.59 502.71 146.11 502.71 150.64 C502.71 155.18 502.71 155.18 507.25 155.18 Z"/></svg>