<?xml version="1.0" encoding="UTF-8"?><svg id="b" xmlns="http://www.w3.org/2000/svg" viewBox="-15.31 -7.10 204.18 94.60"><g id="c"><path d="M171.26,80.41c-2.3,0-2.15,0-2.15-2.11s0-2.36,2.15-2.36,2.3,0,2.3,2.41q0,2.06-2.3,2.06Z" fill="#3b7fbf" fill-rule="evenodd"/><path d="M140.2,0h-30.93c-8.95,0-13.35,4.47-13.35,13.4v53.61c0,8.93,3.93,13.4,13.18,13.4h31.09c17.58,0,33.36-12.77,33.36-37.66S157.94,0,140.2,0ZM133.5,62.54v-9.23l-17.8.29v-26.8h17.8v-8.94l24.45,22.65-24.45,22.02Z" fill="#3b7fbf" fill-rule="evenodd"/><path d="M86.66,80.41c-2.34,0-2.11,0-2.11-2.51q0-1.96,2.27-1.96c2.27,0,2.18,0,2.18,2.27s0,2.2-2.34,2.2Z" fill="#3b7fbf" fill-rule="evenodd"/><path d="M40.2,0C11.23,0,0,17.66,0,35.52v31.49c0,4.46,4.45,13.4,13.35,13.4h53.4c8.9,0,13.35-4.47,13.35-13.4v-31.27C80.1,17.87,69.16,0,40.2,0ZM55.74,40.2v17.87h-31.4v-17.87h-10.99l26.84-24.55,26.56,24.55h-11.01Z" fill="#3b7fbf" fill-rule="evenodd"/></g></svg>