<?xml version="1.0" encoding="UTF-8"?><svg id="b" xmlns="http://www.w3.org/2000/svg" viewBox="0 0 173.55 130.62"><g id="c"><path d="M171.26,80.41c-2.3,0-2.15,0-2.15-2.11s0-2.36,2.15-2.36,2.3,0,2.3,2.41q0,2.06-2.3,2.06Z" fill="#3b7fbf" fill-rule="evenodd"/><path d="M140.2,0h-30.93c-8.95,0-13.35,4.47-13.35,13.4v53.61c0,8.93,3.93,13.4,13.18,13.4h31.09c17.58,0,33.36-12.77,33.36-37.66S157.94,0,140.2,0ZM133.5,62.54v-9.23l-17.8.29v-26.8h17.8v-8.94l24.45,22.65-24.45,22.02Z" fill="#3b7fbf" fill-rule="evenodd"/><path d="M86.66,80.41c-2.34,0-2.11,0-2.11-2.51q0-1.96,2.27-1.96c2.27,0,2.18,0,2.18,2.27s0,2.2-2.34,2.2Z" fill="#3b7fbf" fill-rule="evenodd"/><path d="M40.2,0C11.23,0,0,17.66,0,35.52v31.49c0,4.46,4.45,13.4,13.35,13.4h53.4c8.9,0,13.35-4.47,13.35-13.4v-31.27C80.1,17.87,69.16,0,40.2,0ZM55.74,40.2v17.87h-31.4v-17.87h-10.99l26.84-24.55,26.56,24.55h-11.01Z" fill="#3b7fbf" fill-rule="evenodd"/><g id="d"><path d="M73.49,98.42h-8.98c-2.21,0-2.24-4.47,0-4.47h13.26c2.33,0,2.12-4.47,0-4.47h-13.48c-1.99,0-6.44-.47-6.44,6.48s4.42,6.94,6.66,6.94h8.98c2.16,0,2.29,4.47,0,4.47h-13.48c-2.17,0-2.17,4.47,0,4.47h13.26c2.37,0,6.82.55,6.82-6.43s-4.31-6.99-6.61-6.99ZM46.97,98.42h-8.84c-2.52,0-2.52-4.47,0-4.47h13.12c2.16,0,2.29-4.47,0-4.47h-13.48c-2.17,0-6.62,0-6.62,6.69s4.34,6.73,6.62,6.73h8.98c2.2,0,2.25,4.47,0,4.47h-13.05c-2.55,0-2.55,4.47-.03,4.47h13.29c1.98,0,6.43.55,6.43-6.43s-4.45-6.99-6.43-6.99ZM17.8,89.47h-8.9c-6.41,0-8.9,4.47-8.9,8.95v8.95q0,4.47,4.45,4.47h17.8q4.45,0,4.45-4.47v-8.95c0-4.47-2.2-8.95-8.9-8.95ZM22.25,105.19c0,2.3,0,2.18-2.24,2.18H6.54c-2.36,0-2.09,0-2.09-2.39v-6.56c0-4.47,2.51-4.47,7.01-4.47h4.28c4.28,0,6.52,0,6.52,4.47v6.77ZM127.17,98.42h-4.71c-2.3,0-2.46,4.47-.16,4.47h4.71c2.04,0,2.09,4.47-.16,4.47h-6.7c-4.45,0-4.45-2.11-4.45-6.53s0-6.89,4.45-6.89h11.25c2.1,0,2.67-4.47.16-4.47h-11.41c-6.64,0-8.9,4.47-8.9,8.95v4.47c0,4.47,2.51,8.95,8.9,8.95h6.55c4.45,0,6.8-2.48,6.8-6.58,0-4.42-2.1-6.84-6.34-6.84ZM155.75,89.47h-8.9c-6.5,0-8.9,4.47-8.9,8.95v8.95q0,4.47,4.45,4.47h17.8q4.45,0,4.45-4.47v-9.21c0-4.89-2.29-8.68-8.9-8.68ZM160.2,105.1c0,2.21,0,2.27-2.27,2.27h-13.34c-2.26,0-2.19,0-2.19-2.11v-6.84q0-4.47,4.45-4.47h8.9q4.45,0,4.45,4.47v6.68ZM106.8,95.95c0-6.48-4.66-6.48-6.78-6.48h-.66s0,0,0,0h-5.9c-6.76,0-8.9,4.47-8.9,8.95v4.47c0,4.47,2.14,8.95,8.9,8.95h10.85c2.5,0,1.95-4.47,0-4.47h-10.85c-4.45,0-4.45-4.47-4.45-4.47h11.02c2.33,0,6.78-.47,6.78-6.94ZM93.45,93.94h6.6c2.15,0,2.3,4.47,0,4.47h-11.05q0-4.47,4.45-4.47ZM169.1,91.68v17.83c0,2.32,4.45,1.99,4.45.16v-17.83c0-2.37-4.45-2.42-4.45-.16Z" fill="#aaa324" fill-rule="evenodd"/></g><path d="M8.71,118.23H2.48q-2.48,0-2.48,2.48v7.44q0,2.48,2.48,2.48h6.23c2.43,0,3.69-2.24,3.69-3.6v-5.08c0-1.24-1.44-3.72-3.69-3.72ZM9.92,125.67q0,2.48-2.48,2.48h-3.63c-1.15,0-1.33,0-1.33-1.07v-5.04c0-1.15,0-1.33,1.15-1.33h3.81q2.48,0,2.48,2.48v2.48Z" fill="#aaa324" fill-rule="evenodd"/><path d="M26.06,128.14h-6.23q-2.48,0-2.48-2.48h6.23c2.56,0,3.68-1.07,3.68-3.72s-1.3-3.72-3.68-3.72h-4.94c-2.47,0-3.77,2.48-3.77,3.62v5.22c0,2.43,1.57,3.55,3.81,3.55h7.32c1.22,0,1.26-2.48.05-2.48ZM19.83,120.71h3.66c1.18,0,1.3,2.48,0,2.48h-6.14q0-2.48,2.48-2.48Z" fill="#aaa324" fill-rule="evenodd"/><path d="M29.75,126.89v-7.37c0-1.19,2.48-1.29,2.48-.05v6.19c0,2.48,1.15,2.48,3.76,2.48s3.68,0,3.68-2.48v-6.29c0-1.33,2.48-1.15,2.48.09v7.37c0,2.29-2.48,3.78-3.5,3.78h-5.22c-1.28,0-3.68-1.27-3.68-3.74Z" fill="#aaa324" fill-rule="evenodd"/><path d="M55.77,128.14h-6.18q-2.48,0-2.48-2.48h6.1c2.7,0,3.82-1.11,3.82-3.63s-1.26-3.81-3.68-3.81h-4.9c-2.47,0-3.82,1.33-3.82,3.76v5.08c0,2.43,1.21,3.55,3.73,3.55h7.51c1.16,0,1.13-2.48-.09-2.48ZM49.59,120.71h3.76c1.28,0,1.2,2.48-.05,2.48h-6.19q0-2.48,2.48-2.48Z" fill="#aaa324" fill-rule="evenodd"/><path d="M59.5,127.02v-7.55c0-1.24,2.48-1.24,2.48-.05v6.24q0,2.48,2.48,2.48h3.8c1.32,0,1.15,2.48,0,2.48h-4.99c-2.61,0-3.77-1.22-3.77-3.6Z" fill="#aaa324" fill-rule="evenodd"/><path d="M80.49,118.23h-4.76c-2.56,0-3.83,1.33-3.83,3.85v4.85c0,2.47,1.17,3.69,3.74,3.69h4.94c2.52,0,3.72-1.04,3.72-3.55v-5.13c0-2.56-1.11-3.72-3.81-3.72ZM81.82,125.67q0,2.48-2.48,2.48h-2.48c-1.47,0-2.45,0-2.49-2.5.04-.93,0-1.44,0-2.46q0-2.48,2.48-2.48h2.48q2.48,0,2.48,2.48v2.48Z" fill="#aaa324" fill-rule="evenodd"/><path d="M127.68,128.14h-6.2q-2.48,0-2.48-2.48h6.07c2.79,0,3.85-.88,3.85-3.54s-1.29-3.9-3.8-3.9h-4.85c-2.52,0-3.74,1.24-3.74,3.67v5.08c0,2.52,1.45,3.65,3.7,3.65h7.55c1.33,0,1.15-2.48-.09-2.48ZM121.49,120.71h3.59c1.11,0,1.37,2.48.05,2.48h-6.11q0-2.48,2.48-2.48Z" fill="#aaa324" fill-rule="evenodd"/><path d="M146.28,127.12v-7.64c0-1.24,2.48-1.24,2.48,0v3.72h8.68c1.24,0,1.24,2.48,0,2.48h-8.68q0,2.48,2.48,2.48h6.2c1.24,0,1.24,2.48,0,2.48h-7.46c-2.66,0-3.7-1.22-3.7-3.51Z" fill="#aaa324" fill-rule="evenodd"/><path d="M162.47,128.14h7.42c1.3,0,1.18-2.48-.09-2.48h-4.85c-2.38,0-3.79,0-3.79-3.63s1.27-3.81,3.75-3.81h7.37c1.2,0,1.28,2.48.05,2.48h-7.46c-1.26,0-1.22,2.48,0,2.48h4.94c2.47,0,3.75,0,3.75,3.75s-1.37,3.69-3.75,3.69h-7.32c-1.16,0-1.32-2.48,0-2.48Z" fill="#aaa324" fill-rule="evenodd"/><path d="M143.8,121.99v7.42c0,1.22-2.48,1.08-2.48-.09v-6.13q0-2.48-2.48-2.48h-2.48q-2.48,0-2.48,2.48v6.17c0,1.27-2.48,1.31-2.48.05v-7.32c0-2.66,1.22-3.85,3.79-3.85h4.9c2.38,0,3.71,1.15,3.71,3.76Z" fill="#aaa324" fill-rule="evenodd"/><path d="M110.33,118.23c2.47,0,3.71,1.06,3.71,3.67v7.51c0,1.22-2.48,1.26-2.48,0v-7.51c0-1.19-2.48-1.29-2.48,0v7.46c0,1.27-2.48,1.12-2.48-.05v-7.32c0-1.28-2.48-1.2-2.48,0v7.46c0,1.17-2.48,1.12-2.48-.09v-7.51c0-2.38,1.27-3.62,3.65-3.62s2.52,1.2,2.52,1.2c0,0,.05-1.2,2.52-1.2Z" fill="#aaa324" fill-rule="evenodd"/><path d="M95.37,118.23h-4.85c-2.33,0-3.74,1.33-3.74,3.76v7.46c0,1.31,2.48,1.17,2.48,0v-3.78h6.2c2.47,0,3.71-.7,3.71-3.54s-1.2-3.9-3.81-3.9ZM95.82,123.14c-1.2,0-4.09.05-6.57.05q0-2.48,2.48-2.48c2.48,0,2.76.05,4.04.05s1.24,2.39.05,2.39Z" fill="#aaa324" fill-rule="evenodd"/></g></svg>