<svg xmlns="http://www.w3.org/2000/svg" viewBox="0 0 336 316" width="336" height="316"><path fill="#000000" fill-rule="evenodd" d="M231.37 189.95 C231.37 189.95 270.23 313.74 270.23 313.74 C270.23 313.74 166.93 236.28 166.93 236.28 C166.93 236.28 64.39 314.24 64.39 314.24 C64.39 314.24 103.32 190.18 103.32 190.18 C103.32 190.18 1.10 115.31 1.10 115.31 C1.10 115.31 128.49 115.31 128.49 115.31 C128.49 115.31 167.43 1.76 167.43 1.76 C167.43 1.76 206.45 115.31 206.45 115.31 C206.45 115.31 334.01 115.31 334.01 115.31 C334.01 115.31 231.37 189.95 231.37 189.95 Z M199.36 126.49 C199.36 126.49 167.61 30.55 167.61 30.55 C167.61 30.55 135.58 125.67 135.58 125.67 C135.58 125.67 32.96 126.08 32.96 126.08 C32.96 126.08 117.59 186.18 117.59 186.18 C117.59 186.18 85.97 285.39 85.97 285.39 C85.97 285.39 167.61 221.61 167.61 221.61 C167.61 221.61 248.97 285.39 248.97 285.39 C248.97 285.39 218.17 186.59 218.17 186.59 C218.17 186.59 302.25 126.08 302.25 126.08 C302.25 126.08 199.36 126.49 199.36 126.49 Z M202.87 182.36 C202.87 182.36 227.57 253.92 227.57 253.92 C227.57 253.92 167.74 207.03 167.74 207.03 C167.74 207.03 107.23 253.77 107.23 253.77 C107.23 253.77 132.18 182.90 132.18 182.90 C132.18 182.90 78.89 140.25 78.89 140.25 C78.89 140.25 145.53 140.25 145.53 140.25 C145.53 140.25 167.33 72.79 167.33 72.79 C167.33 72.79 188.59 139.84 188.59 139.84 C188.59 139.84 256.46 140.38 256.46 140.38 C256.46 140.38 202.87 182.36 202.87 182.36 Z"/></svg>