<svg xmlns="http://www.w3.org/2000/svg" viewBox="0 0 74 71" width="74" height="71"><path fill="#000000" fill-rule="evenodd" d="M15.56 1.93 C15.56 1.93 23.31 26.88 23.31 26.88 C23.31 26.88 1.62 44.54 1.62 44.54 C1.62 44.54 30.03 44.28 30.03 44.28 C30.03 44.28 37.52 69.40 37.52 69.40 C37.52 69.40 44.75 44.28 44.75 44.28 C44.75 44.28 72.64 44.28 72.64 44.28 C72.64 44.28 51.46 26.88 51.46 26.88 C51.46 26.88 58.44 1.67 58.44 1.67 C58.44 1.67 37.26 16.39 37.26 16.39 C37.26 16.39 15.56 1.93 15.56 1.93 Z"/></svg>