<svg xmlns="http://www.w3.org/2000/svg" xmlns:xlink="http://www.w3.org/1999/xlink" xmlns:inkscape="http://www.inkscape.org/namespaces/inkscape" version="1.1" width="34" height="35" viewBox="-2.67 -2.33 33.67 35.33">
<g>
<path d="M26.125 1.773H13.941C7.176 1.773 1.664 7.277 1.664 14.047V23.875L2.289 24.949H15.703L17.027 20.996 10.504 16.168 18.621 16.242 21.199 8.547 23.637 16.289 26.668 16.316V2.711ZM26.27 24.652 26.668 23.969V19.984L25.141 21.07ZM19.699 24.949H22.367L21.059 23.98ZM19.699 24.949"/>
<path d="M21.059 23.98 20.102 21.027H16.996L19.508 19.207 18.547 16.254 21.059 18.078 23.57 16.254 22.609 19.207 25.121 21.027H22.02ZM21.059 23.98"/>
<path d="M15.988 27.367H18.551V26.461H15.988C15.27 26.461 14.684 27.047 14.684 27.766 14.684 28.484 15.27 29.066 15.988 29.066H18.551V28.164H15.988C15.766 28.164 15.59 27.984 15.59 27.766 15.59 27.543 15.766 27.367 15.988 27.367"/>
<path d="M22.387 27.141C22.16 26.723 21.719 26.461 21.242 26.461H19.98C19.504 26.461 19.066 26.723 18.836 27.141 18.734 27.332 18.68 27.547 18.68 27.762 18.68 27.98 18.734 28.199 18.836 28.387 19.066 28.805 19.504 29.066 19.98 29.066H21.242C21.719 29.066 22.16 28.805 22.387 28.387 22.492 28.199 22.547 27.984 22.547 27.762 22.547 27.547 22.492 27.328 22.387 27.141M19.98 27.367H21.242C21.465 27.367 21.645 27.543 21.645 27.762 21.645 27.984 21.465 28.164 21.242 28.164H19.98C19.762 28.164 19.582 27.984 19.582 27.762 19.582 27.543 19.762 27.367 19.98 27.367"/>
<path d="M8.84 26.473V27.766C8.84 27.984 8.664 28.164 8.441 28.164H7.18C6.957 28.164 6.777 27.984 6.777 27.766V26.473H5.875V27.766C5.875 28.484 6.461 29.066 7.18 29.066H8.441C9.16 29.066 9.746 28.484 9.746 27.766V26.473ZM8.84 26.473"/>
<path d="M11.172 26.469C10.457 26.469 9.871 27.051 9.871 27.77V29.066H10.773V27.77C10.773 27.551 10.953 27.371 11.172 27.371H13.5V26.469ZM11.172 26.469"/>
<path d="M13.664 26.465H14.57V29.067H13.664Z"/>
<path d="M4.328 26.473H3.066C2.348 26.473 1.762 27.055 1.762 27.773V29.066H2.664V27.773C2.664 27.555 2.844 27.375 3.066 27.375H4.328C4.434 27.375 4.531 27.418 4.609 27.492 4.684 27.566 4.727 27.668 4.727 27.773V29.066H5.629V27.773C5.629 27.055 5.047 26.473 4.328 26.473"/>
<path d="M3.246 28.168H4.1480004V29.066H3.246Z"/>
<path d="M25.617 26.48C25.309 26.48 25.016 26.59 24.785 26.785 24.547 26.59 24.258 26.48 23.949 26.48 23.23 26.48 22.645 27.066 22.645 27.781V29.066H23.547V27.781C23.547 27.562 23.73 27.383 23.949 27.383 24.117 27.383 24.266 27.492 24.324 27.652 24.316 27.699 24.316 27.742 24.316 27.781V29.066H25.25V27.781C25.25 27.781 25.246 27.707 25.242 27.656 25.297 27.496 25.449 27.383 25.617 27.383 25.84 27.383 26.016 27.562 26.016 27.781V29.066H26.922V27.781C26.922 27.066 26.336 26.48 25.617 26.48"/>
</g>
</svg>