<?xml version="1.0" encoding="UTF-8"?><svg id="b" xmlns="http://www.w3.org/2000/svg" viewBox="0 0 130.74 141.28"><g id="c"><path fill="#24336a" d="M126.62,0h-63.07C28.53,0,0,28.49,0,63.53v50.87l3.24,5.56h69.43l6.85-20.46-33.76-24.99,42.02.38,13.34-39.83,12.62,40.07,15.69.14V4.86l-2.81-4.86ZM127.37,118.43l2.06-3.54v-20.63l-7.9,5.62,5.84,18.54ZM93.35,119.96h13.81l-6.77-5.02-7.04,5.02Z"/><path fill="#d9212c" d="M100.39,114.95l-4.95-15.29h-16.08l13-9.42-4.97-15.29,13,9.44,13-9.44-4.97,15.29,13,9.42h-16.05l-4.97,15.29Z"/><path fill="#24336a" d="M74.14,132.48h13.27v-4.69h-13.27c-3.72,0-6.75,3.03-6.75,6.75s3.03,6.73,6.75,6.73h13.27v-4.67h-13.27c-1.15,0-2.06-.93-2.06-2.06s.91-2.07,2.06-2.07"/><path fill="#24336a" d="M107.27,131.31c-1.17-2.16-3.46-3.52-5.93-3.52h-6.53c-2.46,0-4.73,1.36-5.92,3.52-.53.99-.81,2.1-.81,3.21s.28,2.26.81,3.24c1.19,2.16,3.46,3.51,5.92,3.51h6.53c2.47,0,4.75-1.35,5.93-3.51.54-.97.83-2.09.83-3.24s-.28-2.25-.83-3.21M94.81,132.48h6.53c1.15,0,2.09.91,2.09,2.04s-.93,2.08-2.09,2.08h-6.53c-1.13,0-2.06-.93-2.06-2.08s.93-2.04,2.06-2.04"/><path fill="#24336a" d="M37.14,127.85v6.69c0,1.13-.91,2.06-2.07,2.06h-6.53c-1.15,0-2.09-.93-2.09-2.06v-6.69h-4.67v6.69c0,3.72,3.03,6.73,6.75,6.73h6.53c3.72,0,6.75-3.01,6.75-6.73v-6.69h-4.69Z"/><path fill="#24336a" d="M49.22,127.83c-3.7,0-6.73,3.01-6.73,6.73v6.71h4.67v-6.71c0-1.13.93-2.07,2.07-2.07h12.05v-4.67h-12.05Z"/><path fill="#24336a" d="M62.11,127.81h4.69v13.47h-4.69v-13.47Z"/><path fill="#24336a" d="M13.79,127.85h-6.53c-3.72,0-6.75,3.01-6.75,6.73v6.69h4.67v-6.69c0-1.13.93-2.06,2.08-2.06h6.53c.55,0,1.05.22,1.45.61.39.38.61.91.61,1.45v6.69h4.67v-6.69c0-3.72-3.01-6.73-6.73-6.73"/><path fill="#db1e29" d="M8.19,136.63h4.67v4.65h-4.67v-4.65Z"/><path fill="#24336a" d="M123.99,127.89c-1.59,0-3.11.57-4.31,1.58-1.23-1.01-2.73-1.58-4.33-1.58-3.72,0-6.75,3.03-6.75,6.73v6.65h4.67v-6.65c0-1.13.95-2.06,2.08-2.06.87,0,1.64.56,1.94,1.39-.04.24-.04.47-.04.67v6.65h4.83v-6.65s-.02-.38-.04-.65c.28-.83,1.07-1.41,1.94-1.41,1.15,0,2.07.93,2.07,2.06v6.65h4.69v-6.65c0-3.7-3.03-6.73-6.75-6.73"/></g></svg>