<?xml version="1.0" encoding="UTF-8"?><svg id="b" xmlns="http://www.w3.org/2000/svg" viewBox="0 0 281.64 92.22"><g id="c"><path d="M153.38,82.9v7.08h-1.99v-7.08h-3.96v-1.78h9.91v1.78h-3.96Z" fill="#030335"/><path d="M161.31,82.9v1.76h7.93v1.77h-7.93v1.78h7.93v1.76h-9.91v-8.86h9.91v1.78h-7.93Z" fill="#030335"/><path d="M181.14,89.98h-9.91v-8.86h9.91v1.78h-7.93v5.31h7.93v1.76Z" fill="#030335"/><path d="M193.04,89.98h-1.98v-3.54h-5.95v3.54h-1.98v-8.86h1.98v3.54h5.95v-3.54h1.98v8.86Z" fill="#030335"/><path d="M204.94,89.98h-1.98v-7.08h-5.95v7.08h-1.98v-8.86h9.91v8.86Z" fill="#030335"/><path d="M214.86,88.22h-5.95v-5.31h5.95v5.31ZM216.84,81.12h-9.91v8.86h9.91v-8.86Z" fill="#030335"/><path d="M220.81,88.21h7.93v1.76h-9.91v-8.86h1.98v7.09Z" fill="#030335"/><path d="M238.67,88.22h-5.95v-5.31h5.95v5.31ZM240.64,81.12h-9.91v8.86h9.91v-8.86Z" fill="#030335"/><path d="M252.54,89.98h-9.91v-8.86h9.91v1.78h-7.93v5.31h5.95v-1.78h-1.98v-1.77h3.96v5.31Z" fill="#030335"/><path d="M254.55,89.98h1.98v-8.86h-1.98v8.86Z" fill="#030335"/><path d="M260.49,82.9v1.76h7.93v1.77h-7.93v1.78h7.93v1.76h-9.91v-8.86h9.91v1.78h-7.93Z" fill="#030335"/><path d="M280.31,89.98h-9.91v-1.76h7.93v-1.78h-7.93v-5.31h9.91v1.78h-7.93v1.76h7.93v5.31Z" fill="#030335"/><path d="M145.51,73.57h19.02v-18.23h-19.02v18.23Z" fill="#030335"/><path d="M67.93,28.62l-31.24.07h-3.91c4.67-5.66,10.01-9.43,15.14-9.43h9.12V.24h-9.12C20.12.24,0,38.41,0,64.15v9.51h67.91v-19.03H20.22c.52-2.29,1.21-4.6,2.03-6.91h45.77l-.09-19.1Z" fill="#010235"/><path d="M122.63,40.45v14.18h-29.59c3.81-16.72,16.27-35.37,27.69-35.37h18.7V.24h-18.7c-27.8,0-47.92,38.17-47.92,63.91v9.51h49.81v18.56h19.03v-51.76h-19.03Z" fill="#030335"/><path d="M262.93,19.03h18.7V0h-18.7c-12.95,0-24.21,8.3-32.57,19.75h-9.42C212.59,8.3,201.33,0,188.38,0h-18.7v19.03h18.7c7.4,0,15.23,7.83,20.86,17.89-5.63,10.06-13.46,17.89-20.86,17.89h-18.7v19.03h18.7c12.95,0,24.21-8.3,32.57-19.75h9.42c8.35,11.45,19.62,19.75,32.57,19.75h18.7v-19.03h-18.7c-7.4,0-15.23-7.83-20.86-17.89,5.63-10.06,13.47-17.89,20.86-17.89" fill="#640000"/></g></svg>