<svg xmlns="http://www.w3.org/2000/svg" xmlns:xlink="http://www.w3.org/1999/xlink" xmlns:inkscape="http://www.inkscape.org/namespaces/inkscape" version="1.1" width="81" height="29" viewBox="0.75 1.00 80.75 29.00">
<defs>



<path id="font_3_48" d="M.578125 .6484375 .7480469 0H.66503909L.5620117 .3961029 .38476563-.024414063 .20703125 .39904786 .103027347 0H.020019532L.1899414 .6484375 .38476563 .18429566 .578125 .6484375Z"/>



<path id="font_3_3" d=""/>






<path id="font_4_48" d="M.80566409 0H.7241211V.46972657C.7241211 .50683596 .7263997 .5522461 .73095706 .60595706H.7290039C.7211914 .57438156 .7141927 .5517578 .7080078 .53808596L.46875 0H.42871095L.1899414 .5341797C.18310547 .5498047 .17610677 .57373049 .16894531 .60595706H.16699219C.16959636 .5779622 .17089844 .53222659 .17089844 .46875V0H.091796878V.7001953H.20019531L.41503907 .21191406C.43164063 .17447917 .4423828 .14648438 .44726563 .12792969H.4501953C.46419273 .16634114 .4754232 .19498699 .48388673 .21386719L.703125 .7001953H.80566409V0Z"/>







</defs>
<g>
<g>
<g>
<path transform="matrix(1,0,0,-1,44.638216,25.505814)" d="M0 0V-1.921H-.541V0H-1.615V.483H1.075V0Z" fill="#000000"/>
<path transform="matrix(1,0,0,-1,46.790498,25.505814)" d="M0 0V-.479H2.153V-.959H0V-1.442H2.153V-1.921H-.538V.483H2.153V0Z" fill="#000000"/>
<path transform="matrix(1,0,0,-1,52.174104,27.426926)" d="M0 0H-2.69V2.404H0V1.921H-2.153V.479H0Z" fill="#000000"/>
<path transform="matrix(1,0,0,-1,55.404298,27.426926)" d="M0 0H-.537V.962H-2.152V0H-2.69V2.404H-2.152V1.442H-.537V2.404H0Z" fill="#000000"/>
<path transform="matrix(1,0,0,-1,58.634706,27.426926)" d="M0 0H-.537V1.921H-2.152V0H-2.69V2.404H0Z" fill="#000000"/>
<path transform="matrix(1,0,0,-1,-430.5868,277.74873)" d="M491.915 250.801H490.30003V252.243H491.915ZM492.453 252.726H489.763V250.32199H492.453Z" fill="#000000"/>
<path transform="matrix(1,0,0,-1,62.943696,26.947617)" d="M0 0H2.153V-.479H-.538V1.925H0Z" fill="#000000"/>
<path transform="matrix(1,0,0,-1,-430.5868,277.74873)" d="M498.377 250.801H496.76103V252.243H498.377ZM498.913 252.726H496.223V250.32199H498.913Z" fill="#000000"/>
<path transform="matrix(1,0,0,-1,71.55701,27.426926)" d="M0 0H-2.69V2.404H0V1.921H-2.152V.479H-.537V.962H-1.074V1.442H0Z" fill="#000000"/>
<path transform="matrix(1,0,0,-1,-430.5868,277.74873)" d="M502.689 250.322H503.227V252.727H502.689Z" fill="#000000"/>
<path transform="matrix(1,0,0,-1,73.71402,25.505814)" d="M0 0V-.479H2.152V-.959H0V-1.442H2.152V-1.921H-.538V.483H2.152V0Z" fill="#000000"/>
<path transform="matrix(1,0,0,-1,79.09662,27.426926)" d="M0 0H-2.69V.479H-.537V.962H-2.69V2.404H0V1.921H-2.153V1.442H0Z" fill="#000000"/>
<path transform="matrix(1,0,0,-1,-430.5868,277.74873)" d="M473.089 254.778H478.253V259.728H473.089Z" fill="#000000"/>
<g>
<path transform="matrix(1,0,0,-1,21.440003,10.769928)" d="M0 0-8.481-.02H-9.543C-8.275 1.517-6.826 2.541-5.433 2.541H-2.957V7.706H-5.433C-12.979 7.706-18.44-2.657-18.44-9.644V-12.227H-.004V-7.062H-12.95C-12.809-6.441-12.621-5.812-12.4-5.186H.024Z" fill="#000000"/>
<path transform="matrix(1,0,0,-1,36.290803,13.982208)" d="M0 0V-3.849H-8.032C-6.997 .689-3.615 5.754-.514 5.754H4.563V10.918H-.514C-8.061 10.918-13.522 .555-13.522-6.432V-9.014H0V-14.052H5.165V-9.014 0Z" fill="#000000"/>
<path transform="matrix(1,0,0,-1,74.378299,8.165009)" d="M0 0H5.077V5.165H0C-3.515 5.165-6.573 2.912-8.841-.196H-11.398C-13.666 2.912-16.724 5.165-20.239 5.165H-25.316V0H-20.239C-18.23 0-16.104-2.126-14.575-4.857-16.104-7.588-18.23-9.713-20.239-9.713H-25.316V-14.878H-20.239C-16.724-14.878-13.666-12.626-11.398-9.517H-8.841C-6.573-12.626-3.515-14.878 0-14.878H5.077V-9.713H0C-2.008-9.713-4.135-7.588-5.664-4.857-4.135-2.126-2.008 0 0 0" fill="#000000"/>















































</g>
</g>
</g>
</g>
</svg>