<svg xmlns="http://www.w3.org/2000/svg" viewBox="0 0 1541 613" width="1541" height="613"><path fill="#000000" fill-rule="evenodd" d="M1539.82 370.27 C1539.82 370.27 1539.82 512.01 1539.82 512.01 C1539.82 512.01 1454.78 512.01 1383.92 512.01 C1298.88 469.49 1270.53 426.97 1256.36 370.27 C1242.19 370.27 1213.84 370.27 1199.67 370.27 C1185.49 426.97 1157.15 455.31 1072.11 512.01 C1029.59 512.01 916.20 512.01 916.20 512.01 C916.20 512.01 916.20 370.27 916.20 370.27 C916.20 370.27 987.07 370.27 1043.76 370.27 C1086.28 341.93 1114.63 327.75 1135.97 265.06 C1114.63 214.37 1086.28 171.85 1043.76 143.50 C1001.24 143.50 930.38 143.50 930.38 143.50 C930.38 143.50 930.38 1.77 930.38 1.77 C930.38 1.77 1001.24 1.77 1072.11 1.77 C1142.97 44.29 1171.32 86.81 1199.67 143.50 C1228.01 143.50 1228.01 143.50 1256.36 143.50 C1284.71 86.81 1313.05 58.46 1383.92 1.77 C1440.61 1.77 1539.82 1.77 1539.82 1.77 C1539.82 1.77 1539.82 143.50 1539.82 143.50 C1539.82 143.50 1468.96 143.50 1412.26 143.50 C1369.74 171.85 1341.40 214.37 1321.05 264.89 C1341.40 313.58 1369.74 341.93 1412.26 370.27 C1468.96 370.27 1539.82 370.27 1539.82 370.27 Z M788.64 370.27 C788.64 370.27 902.03 370.27 902.03 370.27 C902.03 370.27 902.03 512.01 902.03 512.01 C902.03 512.01 788.64 512.01 788.64 512.01 C788.64 512.01 788.64 370.27 788.64 370.27 Z M661.08 512.01 C661.08 512.01 491.01 512.01 391.79 512.01 C391.79 271.06 434.31 143.50 618.57 1.77 C689.43 1.77 760.30 1.77 760.30 1.77 C760.30 1.77 760.30 143.50 760.30 143.50 C760.30 143.50 731.95 143.50 646.91 143.50 C547.70 228.54 547.70 271.06 519.35 370.27 C590.22 370.27 661.08 370.27 661.08 370.27 C661.08 370.27 661.08 271.06 661.08 271.06 C661.08 271.06 774.47 271.06 774.47 271.06 C774.47 271.06 774.47 611.22 774.47 611.22 C774.47 611.22 661.08 611.22 661.08 611.22 C661.08 611.22 661.08 512.01 661.08 512.01 Z M236.58 1.48 C294.41 1.77 313.69 1.77 313.69 1.77 C313.69 1.77 314.13 143.50 314.13 143.50 C314.13 143.50 264.58 143.50 250.41 143.50 C235.89 143.50 207.54 171.85 195.19 186.19 C264.24 186.02 306.75 186.02 377.59 186.06 C377.62 228.54 377.62 256.89 377.49 327.63 C320.93 327.63 165.02 328.18 125.37 328.18 C123.75 340.43 122.50 357.01 122.50 370.27 C165.02 370.27 377.62 370.27 377.62 370.27 C377.62 370.27 377.62 512.01 377.62 512.01 C377.62 512.01 136.68 512.01 1.61 512.01 C1.61 129.33 150.85 30.12 236.58 1.48 Z M857.35 567.18 C857.35 567.18 835.34 567.18 835.34 567.18 C835.34 567.18 835.34 611.21 835.34 611.21 C835.34 611.21 824.33 611.21 824.33 611.21 C824.33 611.21 824.33 567.18 824.33 567.18 C824.33 567.18 802.32 567.18 802.32 567.18 C802.32 567.18 802.32 556.18 802.32 556.18 C802.32 556.18 857.35 556.18 857.35 556.18 C857.35 556.18 857.35 567.18 857.35 567.18 Z M923.39 567.18 C923.39 567.18 879.37 567.18 879.37 567.18 C879.37 567.18 879.37 578.19 879.37 578.19 C879.37 578.19 923.39 578.19 923.39 578.19 C923.39 578.19 923.39 589.20 923.39 589.20 C923.39 589.20 879.37 589.20 879.37 589.20 C879.37 589.20 879.37 600.21 879.37 600.21 C879.37 600.21 923.39 600.21 923.39 600.21 C923.39 600.21 923.39 611.21 923.39 611.21 C923.39 611.21 868.36 611.21 868.36 611.21 C868.36 611.21 868.36 556.18 868.36 556.18 C868.36 556.18 923.39 556.18 923.39 556.18 C923.39 556.18 923.39 567.18 923.39 567.18 Z M989.43 567.18 C989.43 567.18 945.41 567.18 945.41 567.18 C945.41 567.18 945.41 600.21 945.41 600.21 C945.41 600.21 989.43 600.21 989.43 600.21 C989.43 600.21 989.43 611.21 989.43 611.21 C989.43 611.21 934.40 611.21 934.40 611.21 C934.40 611.21 934.40 556.18 934.40 556.18 C934.40 556.18 989.43 556.18 989.43 556.18 C989.43 556.18 989.43 567.18 989.43 567.18 Z M1011.45 578.19 C1011.45 578.19 1044.47 578.19 1044.47 578.19 C1044.47 578.19 1044.47 556.18 1044.47 556.18 C1044.47 556.18 1055.48 556.18 1055.48 556.18 C1055.48 556.18 1055.48 611.21 1055.48 611.21 C1055.48 611.21 1044.47 611.21 1044.47 611.21 C1044.47 611.21 1044.47 589.20 1044.47 589.20 C1044.47 589.20 1011.45 589.20 1011.45 589.20 C1011.45 589.20 1011.45 611.21 1011.45 611.21 C1011.45 611.21 1000.44 611.21 1000.44 611.21 C1000.44 611.21 1000.44 556.18 1000.44 556.18 C1000.44 556.18 1011.45 556.18 1011.45 556.18 C1011.45 556.18 1011.45 578.19 1011.45 578.19 Z M1121.52 611.21 C1121.52 611.21 1110.51 611.21 1110.51 611.21 C1110.51 611.21 1110.51 567.18 1110.51 567.18 C1110.51 567.18 1077.49 567.18 1077.49 567.18 C1077.49 567.18 1077.49 611.21 1077.49 611.21 C1077.49 611.21 1066.48 611.21 1066.48 611.21 C1066.48 611.21 1066.48 556.18 1066.48 556.18 C1066.48 556.18 1121.52 556.18 1121.52 556.18 C1121.52 556.18 1121.52 611.21 1121.52 611.21 Z M1187.56 611.21 C1187.56 611.21 1132.52 611.21 1132.52 611.21 C1132.52 611.21 1132.52 556.18 1132.52 556.18 C1132.52 556.18 1187.56 556.18 1187.56 556.18 C1187.56 556.18 1187.56 611.21 1187.56 611.21 Z M1176.55 567.18 C1176.55 567.18 1143.53 567.18 1143.53 567.18 C1143.53 567.18 1143.53 600.21 1143.53 600.21 C1143.53 600.21 1176.55 600.21 1176.55 600.21 C1176.55 600.21 1176.55 567.18 1176.55 567.18 Z M1209.57 600.21 C1209.57 600.21 1253.60 600.21 1253.60 600.21 C1253.60 600.21 1253.60 611.21 1253.60 611.21 C1253.60 611.21 1198.56 611.21 1198.56 611.21 C1198.56 611.21 1198.56 556.18 1198.56 556.18 C1198.56 556.18 1209.57 556.18 1209.57 556.18 C1209.57 556.18 1209.57 600.21 1209.57 600.21 Z M1319.64 611.21 C1319.64 611.21 1264.60 611.21 1264.60 611.21 C1264.60 611.21 1264.60 556.18 1264.60 556.18 C1264.60 556.18 1319.64 556.18 1319.64 556.18 C1319.64 556.18 1319.64 611.21 1319.64 611.21 Z M1308.63 567.18 C1308.63 567.18 1275.61 567.18 1275.61 567.18 C1275.61 567.18 1275.61 600.21 1275.61 600.21 C1275.61 600.21 1308.63 600.21 1308.63 600.21 C1308.63 600.21 1308.63 567.18 1308.63 567.18 Z M1385.68 567.18 C1385.68 567.18 1341.65 567.18 1341.65 567.18 C1341.65 567.18 1341.65 600.21 1341.65 600.21 C1341.65 600.21 1374.67 600.21 1374.67 600.21 C1374.67 600.21 1374.67 589.20 1374.67 589.20 C1374.67 589.20 1363.67 589.20 1363.67 589.20 C1363.67 589.20 1363.67 578.19 1363.67 578.19 C1363.67 578.19 1385.68 578.19 1385.68 578.19 C1385.68 578.19 1385.68 611.21 1385.68 611.21 C1385.68 611.21 1330.65 611.21 1330.65 611.21 C1330.65 611.21 1330.65 556.18 1330.65 556.18 C1330.65 556.18 1385.68 556.18 1385.68 556.18 C1385.68 556.18 1385.68 567.18 1385.68 567.18 Z M1407.69 611.21 C1407.69 611.21 1396.69 611.21 1396.69 611.21 C1396.69 611.21 1396.69 556.18 1396.69 556.18 C1396.69 556.18 1407.69 556.18 1407.69 556.18 C1407.69 556.18 1407.69 611.21 1407.69 611.21 Z M1473.73 567.18 C1473.73 567.18 1429.71 567.18 1429.71 567.18 C1429.71 567.18 1429.71 578.19 1429.71 578.19 C1429.71 578.19 1473.73 578.19 1473.73 578.19 C1473.73 578.19 1473.73 589.20 1473.73 589.20 C1473.73 589.20 1429.71 589.20 1429.71 589.20 C1429.71 589.20 1429.71 600.21 1429.71 600.21 C1429.71 600.21 1473.73 600.21 1473.73 600.21 C1473.73 600.21 1473.73 611.21 1473.73 611.21 C1473.73 611.21 1418.70 611.21 1418.70 611.21 C1418.70 611.21 1418.70 556.18 1418.70 556.18 C1418.70 556.18 1473.73 556.18 1473.73 556.18 C1473.73 556.18 1473.73 567.18 1473.73 567.18 Z M1539.81 567.09 C1539.81 567.09 1495.78 567.09 1495.78 567.09 C1495.78 567.09 1495.78 578.10 1495.78 578.10 C1495.78 578.10 1539.81 578.10 1539.81 578.10 C1539.81 578.10 1539.81 611.12 1539.81 611.12 C1539.81 611.12 1484.78 611.12 1484.78 611.12 C1484.78 611.12 1484.78 600.11 1484.78 600.11 C1484.78 600.11 1528.80 600.11 1528.80 600.11 C1528.80 600.11 1528.80 589.10 1528.80 589.10 C1528.80 589.10 1484.78 589.10 1484.78 589.10 C1484.78 589.10 1484.78 556.08 1484.78 556.08 C1484.78 556.08 1539.81 556.08 1539.81 556.08 C1539.81 556.08 1539.81 567.09 1539.81 567.09 Z"/></svg>