<svg xmlns="http://www.w3.org/2000/svg" xmlns:xlink="http://www.w3.org/1999/xlink" xmlns:inkscape="http://www.inkscape.org/namespaces/inkscape" version="1.1" width="35" height="37" viewBox="-2.33 -2.33 35.00 36.67">
<g>
<path d="M6.812 30.027H11.668V29.043H7.801V28.742H11.668V26.457H6.812ZM7.801 27.445H10.676V27.746H7.801ZM11.965 30.027H12.949V26.457H11.965ZM1.688 30.027H2.676V28.734H6.516V27.746H2.676V27.441H6.516V26.457H1.688ZM27.414 30.027H28.402V28.914H27.414ZM18.395 27.445H22.258V27.754H18.395V30.027H23.246V26.457H18.395ZM22.258 29.043H19.383V28.742H22.258ZM13.246 28.742H17.105V29.043H13.246V30.027H18.098V27.754H14.23V27.445H18.098V26.457H13.246ZM28.395 26.457H23.543V30.027H24.531V27.445H28.395ZM28.395 26.457"/>
<path d="M22.336 18.27H14.41C13.793 18.27 12.797 18.77 12.184 19.387L8.848 22.742C10.672 23.965 12.863 24.68 15.223 24.68 19.738 24.68 23.645 22.074 25.527 18.285H22.332C22.336 18.277 22.336 18.273 22.336 18.27"/>
<path d="M7.648 15.91 18.395 4.934C18.902 4.422 19.727 4.012 20.238 4.012H22.152C20.223 2.555 17.824 1.688 15.223 1.688 8.875 1.688 3.727 6.836 3.727 13.184 3.727 14.379 3.91 15.535 4.25 16.617H5.906C6.379 16.617 7.074 16.324 7.648 15.91"/>
<path d="M26.16 9.645H25.906C25.91 9.637 25.91 9.633 25.914 9.625H17.984C17.367 9.625 16.371 10.129 15.758 10.746L11.66 15.027 7.848 18.828C7.34 19.336 6.516 19.75 6.004 19.75H5.789C6.184 20.316 6.629 20.844 7.113 21.328L13.926 14.469C14.434 13.961 15.258 13.543 15.77 13.543H26.711C26.715 13.426 26.719 13.305 26.719 13.184 26.719 11.949 26.523 10.758 26.16 9.645"/>
</g>
</svg>