<?xml version="1.0" encoding="UTF-8"?><svg id="b" xmlns="http://www.w3.org/2000/svg" viewBox="0 0 68.9 79.74"><g id="c"><path d="M34.45,68.9C15.42,68.9,0,53.48,0,34.45S15.42,0,34.45,0s34.45,15.42,34.45,34.45-15.42,34.45-34.45,34.45ZM62.38,47.98h-25.47q-6.15,0-9.84,3.69c-3.49,3.49-4.78,4.78-9.08,9.08,4.77,2.99,10.41,4.72,16.46,4.72,12.29,0,22.9-7.14,27.93-17.5ZM34.45,3.42C17.31,3.42,3.42,17.31,3.42,34.45c0,3.45.56,6.76,1.6,9.86,5.04.12,6.52.65,12.2-6.17q12.3-13.53,22.15-24.61c4.67-4.67,4.91-4.91,12.27-4.92-4.92-3.28-10.83-5.19-17.19-5.19ZM63.44,23.38h-19.15c-3.69,0-3.75.13-9.9,6.28-6.15,6.15-13.48,14.63-18.4,19.56-2.89,2.89-4.28,3.52-6.52,3.65,1.08,1.47,2.29,2.83,3.61,4.09,10.29-11.43,10.41-11.55,15.21-16.35q6.15-6.15,13.53-6.15h23.65c0-3.9-.72-7.63-2.04-11.07Z" fill="#fff" fill-rule="evenodd"/><path d="M5.02,44.31c5.04.12,6.52.65,12.2-6.17q12.3-13.53,22.15-24.61c4.67-4.67,4.91-4.91,12.27-4.92-4.92-3.28-10.83-5.19-17.19-5.19C17.31,3.42,3.42,17.31,3.42,34.45c0,3.45.56,6.76,1.6,9.86Z" fill="#2080a1" fill-rule="evenodd"/><path d="M36.91,47.98q-6.15,0-9.84,3.69c-3.49,3.49-4.78,4.78-9.08,9.08,4.77,2.99,10.41,4.72,16.46,4.72,12.29,0,22.9-7.14,27.93-17.5h-25.47Z" fill="#fccd14" fill-rule="evenodd"/><path d="M63.44,23.38h-19.15c-3.69,0-3.75.13-9.9,6.28-6.15,6.15-13.48,14.63-18.4,19.56-2.89,2.89-4.28,3.52-6.52,3.65,1.08,1.47,2.29,2.83,3.61,4.09,10.29-11.43,10.41-11.55,15.21-16.35q6.15-6.15,13.53-6.15h23.65c0-3.9-.72-7.63-2.04-11.07Z" fill="#a7ccd5" fill-rule="evenodd"/><g id="d"><path d="M15.13,79.74h11.12v-2.34h-8.78v-.58h8.78v-5.26h-11.12v8.18ZM17.47,73.9h6.44v.58h-6.44v-.58ZM3.42,79.74h2.34v-2.92h8.78v-2.34H5.76v-.58h8.78v-2.34H3.42v8.18ZM26.84,79.74h2.34v-8.18h-2.34v8.18ZM29.77,76.82h9.37v.58h-9.37v2.34h11.71v-5.26h-9.37v-.58h9.37v-2.34h-11.71v5.26ZM42.06,73.9h8.78v.58h-8.78v5.26h11.12v-8.18h-11.12v2.34ZM50.84,77.4h-6.44v-.58h6.44v.58ZM53.77,71.56v8.18h2.34v-5.84h9.37v-2.34h-11.71ZM63.14,79.74h2.34v-2.34h-2.34v2.34Z" fill="#2080a1" fill-rule="evenodd"/></g></g></svg>