<svg xmlns="http://www.w3.org/2000/svg" viewBox="0 0 797 797" width="797" height="797"><path fill="#000000" fill-rule="evenodd" d="M398.39 795.39 C179.22 795.39 1.54 617.72 1.54 398.54 C1.54 179.37 179.22 1.69 398.39 1.69 C617.57 1.69 795.24 179.37 795.24 398.54 C795.24 617.72 617.57 795.39 398.39 795.39 Z M720.13 554.45 C655.44 554.45 490.10 554.45 426.74 554.45 C355.87 554.45 355.87 554.45 313.35 596.97 C273.12 637.20 258.25 652.07 208.75 701.57 C263.71 736.05 328.72 755.99 398.39 755.99 C539.91 755.99 662.21 673.74 720.13 554.45 Z M398.39 41.09 C200.98 41.09 40.94 201.13 40.94 398.54 C40.94 438.25 47.43 476.44 59.38 512.13 C117.43 513.52 134.52 519.59 199.97 441.06 C341.70 285.16 341.70 285.16 455.08 157.60 C508.84 103.84 511.64 101.06 596.38 100.91 C539.70 63.13 471.62 41.09 398.39 41.09 Z M732.38 270.98 C618.96 270.98 565.36 270.98 511.78 270.98 C469.26 270.98 468.58 272.48 397.72 343.35 C326.85 414.22 242.49 511.93 185.79 568.62 C152.45 601.96 136.54 609.16 110.72 610.71 C123.19 627.60 137.13 643.35 152.32 657.78 C270.84 526.09 272.21 524.72 327.53 469.41 C398.39 398.54 398.39 398.54 483.43 398.54 C566.22 398.54 622.16 398.54 755.84 398.54 C755.84 398.54 755.84 398.54 755.84 398.54 C755.84 353.60 747.52 310.60 732.38 270.98 Z"/></svg>