<svg xmlns="http://www.w3.org/2000/svg" viewBox="0 0 706 321" width="706" height="321"><path fill="#000000" fill-rule="evenodd" d="M670.96 246.35 C637.81 292.75 592.28 292.33 568.64 289.23 C538.38 319.27 518.49 312.64 498.61 306.01 C478.72 299.38 475.40 279.49 475.70 279.49 C465.46 279.49 458.83 279.49 425.69 259.61 C392.55 239.72 409.43 199.95 409.43 199.95 C409.43 199.95 395.94 190.59 395.94 190.59 C395.94 190.59 389.22 213.06 382.59 235.86 C375.96 255.74 372.48 256.91 369.26 256.91 C379.29 266.23 368.97 286.12 352.77 286.12 C336.58 286.12 332.89 272.86 332.89 266.23 C332.89 259.61 339.52 252.98 346.14 252.98 C339.52 239.72 346.14 233.09 352.77 213.20 C359.40 193.32 366.03 166.80 372.66 166.80 C359.40 150.43 339.52 107.14 385.92 60.74 C432.32 14.34 472.09 27.60 491.98 40.86 C511.86 14.34 531.75 1.08 558.27 20.97 C584.78 40.86 578.15 60.74 564.90 80.63 C564.90 80.63 581.54 90.48 581.54 90.48 C581.54 90.48 604.67 47.48 644.44 74.00 C684.21 100.51 664.35 120.40 654.39 133.66 C684.21 153.54 704.10 199.95 670.96 246.35 Z M346.14 266.23 C346.14 270.20 346.14 274.97 352.77 274.97 C359.40 274.97 361.83 272.86 361.83 266.23 C361.83 259.61 356.59 259.61 352.77 259.61 C348.96 259.61 346.14 262.27 346.14 266.23 Z M359.40 230.52 C353.71 246.82 363.71 253.63 369.79 236.73 C375.88 219.83 382.38 199.95 385.92 186.69 C389.46 173.43 378.37 171.06 374.33 184.64 C370.29 198.22 366.03 208.15 359.40 230.52 Z M634.55 87.26 C614.57 77.28 607.03 87.47 586.91 112.69 C567.02 102.17 557.18 93.77 541.15 83.89 C558.27 60.74 571.52 47.48 545.10 33.84 C525.12 24.03 519.72 33.99 498.61 60.74 C476.07 47.48 438.95 27.60 399.18 67.37 C359.40 107.14 372.66 133.66 385.92 153.54 C399.18 173.43 412.43 182.91 432.32 193.32 C419.06 219.83 419.11 236.45 448.92 252.98 C478.72 269.50 485.35 266.23 491.98 259.61 C491.98 279.49 498.61 292.75 525.12 292.75 C551.64 292.75 559.42 273.35 561.87 270.32 C588.48 276.37 631.18 279.98 664.33 223.39 C687.41 180.06 643.98 146.77 626.81 136.54 C642.79 113.06 657.81 100.51 634.55 87.26 Z M631.18 229.45 C611.30 252.33 584.78 252.98 571.52 246.35 C545.01 230.27 458.83 180.06 425.69 160.17 C392.55 140.29 392.55 113.77 412.43 87.26 C432.32 60.74 456.69 60.03 496.47 83.76 C524.36 46.78 528.22 36.29 541.78 44.25 C555.35 52.20 538.38 67.37 518.49 97.33 C535.19 107.40 545.01 113.77 581.54 137.08 C607.73 103.18 614.28 89.85 628.07 97.10 C641.87 104.34 626.67 116.97 604.67 149.95 C657.70 183.85 651.07 206.58 631.18 229.45 Z M441.77 133.66 C432.85 127.99 432.27 127.17 432.30 127.05 C431.83 127.53 419.43 140.53 438.95 153.54 C458.83 166.80 514.43 197.34 544.72 217.23 C575.01 237.11 584.78 219.83 584.78 219.83 C584.78 219.83 574.93 213.20 574.93 213.20 C574.93 213.20 571.52 219.83 561.61 213.20 C551.70 206.58 485.35 166.80 452.21 146.92 C438.95 140.29 441.77 140.29 441.77 133.66 Z M503.50 153.26 C495.42 149.49 493.14 157.60 493.14 157.60 C493.14 157.60 504.37 165.07 504.37 165.07 C504.37 165.07 511.86 157.60 503.50 153.26 Z M511.86 111.28 C491.98 97.39 478.54 107.11 468.69 117.07 C468.69 117.07 477.08 122.28 477.08 122.28 C477.08 122.28 491.98 108.27 505.24 117.65 C518.49 127.03 513.78 137.74 510.09 142.02 C518.49 146.92 518.49 146.92 518.49 146.92 C518.49 146.92 531.75 125.18 511.86 111.28 Z M518.49 173.43 C518.49 173.43 528.86 180.06 528.86 180.06 C528.86 180.06 535.49 174.96 528.86 169.46 C522.23 163.96 518.49 173.43 518.49 173.43 Z M574.93 149.78 C551.64 133.66 531.75 155.57 531.75 156.15 C531.75 156.73 538.38 160.17 538.38 160.17 C538.38 160.17 554.09 147.23 567.98 157.02 C581.88 166.80 571.81 182.95 571.81 182.95 C571.81 182.95 578.15 186.69 578.15 186.69 C578.15 186.69 598.22 165.90 574.93 149.78 Z M551.64 266.23 C538.38 283.13 535.17 282.63 521.92 282.63 C498.73 282.63 498.61 252.98 505.24 243.32 C498.61 240.29 496.04 239.72 496.04 239.72 C496.04 239.72 485.35 259.61 462.38 249.59 C439.41 239.58 455.53 219.83 455.53 219.83 C455.53 219.83 445.58 213.20 445.58 213.20 C445.58 213.20 438.95 219.83 438.95 233.09 C432.32 226.46 429.57 219.83 442.70 199.95 C459.70 210.48 498.61 233.09 551.64 266.23 Z M356.12 186.69 C349.81 206.58 343.49 226.46 336.68 246.35 C336.42 246.35 332.45 257.50 329.35 257.25 C332.89 259.61 332.89 265.37 332.89 269.12 C332.89 272.86 326.26 286.12 313.00 286.12 C299.74 286.12 293.11 275.89 293.11 269.27 C293.11 260.00 299.21 253.55 305.55 253.03 C306.02 253.10 306.37 252.98 306.37 252.98 C306.10 252.98 305.82 253.01 305.55 253.03 C304.01 252.77 301.28 250.24 306.37 233.09 C286.49 259.61 279.86 270.17 273.23 279.49 C266.60 288.82 259.97 289.83 246.71 289.83 C233.45 289.83 226.83 279.49 226.83 272.86 C217.23 286.12 213.57 289.83 206.94 289.83 C197.04 290.01 194.53 285.84 193.90 283.71 C193.83 282.97 193.68 282.50 193.68 282.50 C193.68 282.50 193.68 282.99 193.90 283.71 C194.16 286.42 193.38 292.75 180.42 292.75 C153.91 292.75 147.28 292.75 147.28 279.49 C140.65 292.75 140.65 292.75 127.39 292.75 C114.14 292.75 111.17 286.12 111.17 272.86 C100.88 272.86 100.88 272.86 87.62 259.61 C87.62 283.01 89.45 296.14 70.51 296.14 C51.57 296.14 54.48 279.49 54.48 272.86 C34.59 286.12 21.40 292.75 11.42 279.49 C1.45 266.23 14.70 256.54 41.22 239.72 C27.96 239.72 24.30 236.34 24.30 226.46 C24.30 216.58 31.37 213.20 31.37 213.20 C31.37 213.20 11.67 199.95 24.81 186.69 C37.94 173.43 47.85 182.74 54.48 189.31 C54.48 166.80 54.48 156.47 74.36 156.47 C90.71 156.47 87.62 166.80 87.62 186.69 C100.88 180.06 110.03 177.18 114.14 183.50 C117.74 177.69 113.32 176.68 136.93 176.68 C136.93 160.17 140.65 153.54 153.91 153.54 C167.17 153.54 171.02 156.98 171.02 176.43 C187.05 176.43 196.78 177.00 196.78 186.69 C196.78 196.38 190.72 196.92 190.72 196.92 C190.72 196.92 193.87 199.95 190.46 206.58 C197.28 206.58 200.31 210.02 200.31 210.02 C200.31 210.02 196.90 203.45 233.45 203.45 C249.55 180.06 249.30 180.06 253.34 173.43 C257.38 166.80 273.23 166.80 279.86 173.43 C286.49 180.06 287.56 186.69 277.08 199.95 C293.11 199.95 313.00 197.14 313.00 210.02 C323.80 180.06 322.66 182.81 326.26 173.43 C329.86 164.05 339.52 160.29 346.14 163.55 C352.77 166.80 362.43 166.80 356.12 186.69 Z M84.67 243.29 C89.82 246.80 97.54 252.98 104.33 256.63 C111.12 260.28 117.91 252.98 107.51 246.35 C103.90 243.56 100.88 242.35 94.25 236.97 C83.64 229.24 79.52 239.77 84.67 243.29 Z M54.48 199.95 C44.87 193.32 37.65 189.93 34.59 193.32 C31.53 196.71 27.96 199.95 51.19 210.75 C61.11 215.90 64.08 206.58 54.48 199.95 Z M78.58 177.04 C78.58 166.80 67.73 166.46 67.73 176.58 C67.73 186.69 67.73 193.32 67.73 219.83 C54.48 219.83 54.68 219.83 44.64 219.83 C34.59 219.83 34.59 230.18 44.87 229.94 C54.48 229.71 67.73 229.48 67.73 229.48 C67.73 229.48 68.43 233.74 64.77 236.73 C61.11 239.72 41.22 252.56 27.96 262.71 C18.45 270.52 24.61 276.12 34.59 269.50 C47.85 259.61 57.52 253.21 57.52 253.21 C57.52 253.21 67.73 243.71 67.73 252.98 C67.73 262.24 67.73 268.80 67.73 275.82 C67.73 282.84 77.64 283.31 77.64 276.05 C77.64 268.80 77.17 237.07 77.64 233.09 C78.11 229.11 81.88 229.71 98.01 229.71 C114.14 229.71 108.86 219.83 98.24 219.83 C87.62 219.83 78.58 219.83 78.58 219.83 C78.58 219.83 78.58 187.29 78.58 177.04 Z M111.35 193.32 C107.51 190.39 107.51 189.23 100.88 193.32 C94.25 197.41 93.33 197.60 87.47 201.15 C77.88 206.58 81.09 219.83 90.99 213.20 C100.88 206.58 103.43 205.64 107.51 202.79 C111.59 199.95 115.20 196.25 111.35 193.32 Z M243.38 257.10 C244.08 257.10 246.71 256.43 253.34 246.35 C259.97 236.26 266.60 230.65 259.97 230.41 C253.34 230.41 253.34 233.09 233.45 259.61 C233.45 259.61 236.59 257.10 243.38 257.10 Z M124.46 272.86 C124.46 282.61 134.02 283.01 134.02 272.86 C134.02 266.23 134.02 266.23 134.02 266.23 C134.02 266.23 170.11 266.23 170.11 266.23 C170.11 266.23 170.34 272.86 170.34 272.86 C170.34 272.86 160.54 270.91 160.54 276.76 C160.54 282.61 163.55 282.61 170.34 282.61 C180.42 282.61 180.42 282.99 180.42 276.29 C180.42 272.86 180.42 243.29 180.42 236.73 C180.42 230.18 178.77 229.71 171.05 229.71 C163.32 229.71 143.58 229.48 134.02 229.48 C124.46 229.48 124.46 233.09 124.46 239.72 C124.46 246.35 124.46 263.12 124.46 272.86 Z M177.13 186.88 C167.17 186.41 167.17 186.69 160.54 186.69 C160.54 166.80 160.54 163.94 153.91 163.94 C147.28 163.94 147.28 166.80 147.28 186.69 C134.02 186.69 136.87 186.69 130.78 186.69 C124.70 186.69 121.38 196.24 131.02 196.24 C140.65 196.24 147.28 196.00 147.28 196.00 C147.28 196.00 147.28 199.95 147.28 199.95 C147.28 199.95 140.65 199.95 134.02 199.95 C127.39 199.95 127.39 210.28 134.02 210.28 C140.65 210.28 147.28 210.28 147.28 210.28 C147.28 210.28 147.28 213.20 153.91 213.20 C160.54 213.20 160.54 210.05 160.54 210.05 C160.54 210.05 164.49 209.58 170.81 209.58 C177.13 209.58 177.13 199.95 170.81 199.95 C164.49 199.95 160.54 199.95 160.54 199.95 C160.54 199.95 160.54 196.47 160.54 196.47 C160.54 196.47 171.05 196.00 177.37 196.00 C183.69 196.00 183.35 186.69 177.13 186.88 Z M184.16 214.61 C173.80 214.61 134.02 214.84 127.39 214.84 C114.14 214.84 114.14 226.46 127.39 226.46 C140.65 226.46 174.63 226.46 184.16 226.46 C193.68 226.46 194.52 214.61 184.16 214.61 Z M200.31 229.48 C200.31 233.09 193.68 236.50 193.68 236.50 C193.68 236.50 193.68 249.61 193.68 256.63 C193.68 263.65 193.68 267.37 200.31 256.86 C206.94 246.35 220.20 233.09 206.94 233.09 C206.94 233.09 200.31 232.49 200.31 229.48 Z M286.49 209.58 C270.07 209.58 256.72 210.05 256.72 210.05 C256.72 210.05 263.51 200.24 270.07 190.15 C276.62 180.06 266.60 176.91 259.97 186.69 C253.34 196.47 246.71 206.58 246.71 206.58 C246.71 206.58 243.43 213.20 233.45 213.20 C223.48 213.20 233.45 213.20 220.20 213.20 C206.94 213.20 206.94 224.33 220.20 224.09 C230.57 223.86 233.45 222.90 226.83 233.09 C220.20 243.29 207.80 259.61 204.05 266.23 C200.31 272.86 204.12 283.31 213.57 270.20 C223.01 257.10 233.89 239.72 243.62 226.46 C243.62 226.46 246.71 219.83 259.97 219.83 C273.23 219.83 279.40 219.83 282.94 219.83 C286.49 219.83 286.49 218.29 279.86 229.01 C273.23 239.72 263.51 252.56 256.72 262.71 C256.72 262.48 255.90 266.23 246.71 266.23 C240.08 266.23 237.17 279.49 246.71 279.49 C256.26 279.49 257.01 279.49 266.60 266.23 C286.49 239.72 289.97 233.57 296.75 223.39 C303.54 213.20 302.90 209.58 286.49 209.58 Z M306.37 266.23 C306.37 266.23 306.37 274.65 313.00 274.65 C319.63 274.65 322.27 272.86 322.27 266.23 C322.27 262.41 319.63 259.61 313.00 259.61 C306.37 259.61 306.37 266.23 306.37 266.23 Z M335.60 179.81 C331.47 193.07 323.91 213.20 316.65 236.73 C313.00 249.96 322.04 249.61 326.26 239.72 C330.48 229.83 336.32 213.20 346.14 183.13 C349.31 172.44 339.72 168.36 335.60 179.81 Z M140.65 236.89 C147.28 236.89 160.54 236.77 167.17 236.77 C173.80 236.77 173.80 243.24 167.17 243.24 C160.54 243.24 147.28 243.24 140.65 243.24 C134.02 243.24 134.02 236.89 140.65 236.89 Z M140.65 249.70 C147.28 249.70 160.54 249.70 167.17 249.70 C173.80 249.70 168.40 256.96 160.76 256.96 C153.13 256.96 147.28 256.84 140.65 256.84 C134.02 256.84 134.02 249.70 140.65 249.70 Z"/></svg>