<?xml version="1.0" encoding="UTF-8"?><svg id="b" xmlns="http://www.w3.org/2000/svg" viewBox="0 0 121.92 121.92"><g id="c"><path d="M60.96,121.92C27.29,121.92,0,94.63,0,60.96S27.29,0,60.96,0s60.96,27.29,60.96,60.96-27.29,60.96-60.96,60.96ZM110.38,84.91h-45.07q-10.89,0-17.42,6.53c-6.18,6.18-8.46,8.46-16.07,16.07,8.44,5.3,18.43,8.36,29.13,8.36,21.74,0,40.52-12.63,49.42-30.96ZM60.96,6.05C30.63,6.05,6.05,30.63,6.05,60.96c0,6.1,1,11.97,2.83,17.45,8.92.21,11.54,1.15,21.6-10.92q21.77-23.95,39.19-43.54c8.26-8.26,8.69-8.68,21.7-8.71-8.71-5.8-19.16-9.19-30.41-9.19ZM112.26,41.36h-33.89c-6.53,0-6.64.23-17.52,11.12-10.89,10.89-23.84,25.89-32.55,34.6-5.12,5.12-7.57,6.23-11.53,6.47,1.92,2.59,4.06,5.01,6.39,7.23,18.21-20.23,18.42-20.44,26.91-28.93q10.88-10.89,23.95-10.89h41.84c0-6.9-1.28-13.51-3.6-19.59Z" fill="#fff" fill-rule="evenodd"/><path d="M8.88,78.41c8.92.21,11.54,1.15,21.6-10.92q21.77-23.95,39.19-43.54c8.26-8.26,8.69-8.68,21.7-8.71-8.71-5.8-19.16-9.19-30.41-9.19C30.63,6.05,6.05,30.63,6.05,60.96c0,6.1,1,11.97,2.83,17.45Z" fill="#2080a1" fill-rule="evenodd"/><path d="M65.31,84.91q-10.89,0-17.42,6.53c-6.18,6.18-8.46,8.46-16.07,16.07,8.44,5.3,18.43,8.36,29.13,8.36,21.74,0,40.52-12.63,49.42-30.96h-45.07Z" fill="#fccd14" fill-rule="evenodd"/><path d="M112.26,41.36h-33.89c-6.53,0-6.64.23-17.52,11.12-10.89,10.89-23.84,25.89-32.55,34.6-5.12,5.12-7.56,6.23-11.53,6.47,1.92,2.59,4.06,5.01,6.39,7.23,18.21-20.23,18.42-20.44,26.91-28.93q10.88-10.89,23.95-10.89h41.84c0-6.9-1.28-13.51-3.6-19.59Z" fill="#a7ccd5" fill-rule="evenodd"/></g></svg>