<svg xmlns="http://www.w3.org/2000/svg" viewBox="0 0 598 528" width="598" height="528"><path fill="#000000" fill-rule="evenodd" d="M199.74 526.10 C199.74 526.10 1.31 327.85 1.31 327.85 C1.31 327.85 1.31 1.69 1.31 1.69 C1.31 1.69 398.16 1.69 398.16 1.69 C398.16 1.69 398.16 143.42 398.16 143.42 C398.16 143.42 143.05 143.42 143.05 143.42 C143.05 143.42 143.05 270.98 143.05 270.98 C143.05 270.98 256.43 384.37 256.43 384.37 C256.43 384.37 454.86 384.37 454.86 384.37 C454.86 384.37 454.86 185.94 454.86 185.94 C454.86 185.94 596.59 185.94 596.59 185.94 C596.59 185.94 596.59 526.10 596.59 526.10 C596.59 526.10 199.74 526.10 199.74 526.10 Z M270.60 200.12 C270.60 200.12 398.16 200.12 398.16 200.12 C398.16 200.12 398.16 327.68 398.16 327.68 C398.16 327.68 270.60 327.68 270.60 327.68 C270.60 327.68 270.60 200.12 270.60 200.12 Z"/></svg>