<?xml version="1.0" encoding="UTF-8"?><svg id="b" xmlns="http://www.w3.org/2000/svg" viewBox="0 0 154.47 170.97"><g id="c"><path d="M54.5,107.91L13.67,67.12V0h81.66v29.16h-52.5v26.25l23.33,23.33h40.83v-40.83h29.16v70H54.5Z" fill="#ffc10e" fill-rule="evenodd"/><path d="M69.08,40.83h26.25v26.25h-26.25v-26.25Z" fill="#ed3d7e" fill-rule="evenodd"/><g id="d"><path d="M113.03,153.93l-16.94.15v-9.16l-7.84-.05.15,13.98,3.3,2.92h21.28v9.2h7.64v-26.05h-7.6v9.01ZM154.36,152.57v-7.65h-32.17l-.15,16.85h26.19v3.07h-26.04v6.13h29.11l3.07-3.07v-12.27h-24.53v-3.07h24.53Z" fill="#ed3d7e" fill-rule="evenodd"/></g><g id="e"><path d="M.13,131l9.47,9.75h19.29v-13.78h-8.27v6.86h-8.27l-4.13-4.11v-5.51h20.66v-8.27H0l.13,15.05ZM30.36,132.48l8.23,8.27h20.62v-24.81h-28.85v16.54ZM37.16,122.9l15,.23.06,10.7h-10.93l-4.13-4.11v-6.83ZM147.41,115.94v24.81h7.05v-24.81h-7.05ZM129.27,125.75h-3.78l.14-9.81h-7.02l-.13,24.81,6.89.14.13-8.27,6.75-.13,5.36,8.27h8.27v-5.51h-3.97l-5.21-5.59,6.75-6.75,2.62.13.08-7.09h-7l-9.87,9.81ZM60.72,123h9.52v17.75h8.27v-17.75h8.27v-7.05h-26.19l.14,7.05ZM117.23,131.4l-.13-5.94h-20.61l-.14-4.01h20.75v-5.51h-28.84v15.05l9.58,9.75h19.26l-.13-5.43-17.64-.08.16-3.97,17.75.13Z" fill="#ed3d7e" fill-rule="evenodd"/></g></g></svg>