<?xml version="1.0" encoding="UTF-8"?><svg id="b" xmlns="http://www.w3.org/2000/svg" viewBox="0 0 141.31 164.08"><g id="c"><path d="M103.48,61.26c1.52-23.8-8.33-47.96-32.73-61.26-27.19,12.55-37.12,37.4-34.49,61.91,20.61-9.6,46.37-9.81,67.22-.65Z" fill="#f8f71a" fill-rule="evenodd"/><path d="M36.26,61.91C15.52,71.57,0,90.71,0,119.37c28.81,13.51,53.28,10.6,71.19-.94-19.71-12.2-32.53-34.21-34.93-56.52Z" fill="#f98412" fill-rule="evenodd"/><path d="M141.19,119.37c0-29.31-16.24-48.67-37.7-58.1-1.44,22.57-13.11,44.81-32.29,57.17,18.32,11.34,42.59,14.2,70,.94Z" fill="#f4dd15" fill-rule="evenodd"/><path d="M103.48,61.26c-20.85-9.16-46.61-8.95-67.22.65,2.4,22.3,15.21,44.32,34.93,56.52,19.18-12.35,30.85-34.6,32.29-57.17Z" fill="none" fill-rule="evenodd"/><g id="d"><path d="M32.61,140.98h-9.51v6.09h9.51c1.36,0,2.72.7,2.72,2.73h-8.15c-4.08,0-6.12,3.41-6.12,6.13s.05,0,.05,2.72,2,5.43,6.07,5.43h8.15c2.72,0,5.43-2.72,5.43-6.8v-6.79c0-5.43-4.08-9.51-8.15-9.51ZM32.61,158.64h-3.39c-2.05,0-2.05.03-2.05-1.65s.02-1.74,2.05-1.74,3.39.03,6.1.03q0,3.35-2.72,3.35ZM42.12,149.13v14.95h5.43v-13.59c0-3.23,2.72-4.08,5.43-4.08h8.15v-5.43h-9.51c-5.43,0-9.51,2.72-9.51,8.15ZM10.87,140.98h-5.43v-4.08H0v27.17h5.43v-16.96s1.36.05,4.08.05,4.82.78,4.82,4.09v12.82h5.36s.05-9.51.05-14.95-4.79-8.15-8.87-8.15ZM62.5,164.08h5.43v-23.1h-5.43v23.1ZM88.32,140.96h-10.87c-5.43.02-8.15,1.38-8.15,6.81v16.3h5.43v-13.59c0-2.72,0-4.08,2.72-4.08h2.72v17.66h5.43v-17.66h2.72c2.72,0,2.72,1.36,2.72,4.08v13.59h5.43v-16.3c0-5.43-2.72-6.79-8.15-6.81ZM135.87,140.98v14.95q0,2.72-2.72,2.72h-5.43q-2.72,0-2.72-2.72v-14.95h-5.43v17.66c0,2.72,2.72,5.43,5.43,5.43h10.87c2.72,0,5.43-2.72,5.43-5.43v-17.66h-5.43ZM110.05,140.98h-9.51v5.43h9.51c2.72,0,2.72,1.33,2.72,3.38-2.72,0-4.08.05-8.15.05s-6.79,3.36-6.79,6.08v2.72c0,2.72,2.72,5.43,6.79,5.43h8.15c2.72,0,5.43-2.72,5.43-5.43v-9.51c0-5.43-4.08-8.15-8.15-8.15ZM110.05,158.64h-4.08q-2.72,0-2.72-1.96c0-1.42,0-1.45,2.72-1.45s4.08.03,6.79.03q0,3.39-2.72,3.39Z" fill-rule="evenodd"/></g></g></svg>