<?xml version="1.0" encoding="UTF-8"?><svg id="b" xmlns="http://www.w3.org/2000/svg" viewBox="-12.46 -11.32 166.11 150.99"><g id="c"><path d="M103.48,61.26c1.52-23.8-8.33-47.96-32.73-61.26-27.19,12.55-37.12,37.4-34.49,61.91,20.61-9.6,46.37-9.81,67.22-.65Z" fill="#f8f71a" fill-rule="evenodd"/><path d="M36.26,61.91C15.52,71.57,0,90.71,0,119.37c28.81,13.51,53.28,10.6,71.19-.94-19.71-12.2-32.53-34.21-34.93-56.52Z" fill="#f98412" fill-rule="evenodd"/><path d="M141.19,119.37c0-29.31-16.24-48.67-37.7-58.1-1.44,22.57-13.11,44.81-32.29,57.17,18.32,11.34,42.59,14.2,70,.94Z" fill="#f4dd15" fill-rule="evenodd"/><path d="M103.48,61.26c-20.85-9.16-46.61-8.95-67.22.65,2.4,22.3,15.21,44.32,34.93,56.52,19.18-12.35,30.85-34.6,32.29-57.17Z" fill="none" fill-rule="evenodd"/></g></svg>