<svg xmlns="http://www.w3.org/2000/svg" viewBox="0 0 1257 478" width="1257" height="478"><path fill="#000000" fill-rule="evenodd" d="M331.00 35.00 C331.00 35.00 193.00 142.50 193.00 142.50 C193.00 142.50 178.00 183.00 178.00 183.00 C178.00 183.00 151.50 184.00 151.50 184.00 C151.50 184.00 133.00 163.00 133.00 163.00 C133.00 163.00 26.00 202.00 26.00 202.00 C26.00 202.00 17.00 211.00 17.00 211.00 C17.00 211.00 16.00 216.50 16.00 216.50 C16.00 216.50 2.50 217.00 2.50 217.00 C2.50 217.00 1.50 245.50 1.50 245.50 C1.50 245.50 16.00 246.00 16.00 246.00 C16.00 246.00 16.00 250.00 16.00 250.00 C16.00 250.00 24.00 260.00 24.00 260.00 C24.00 260.00 132.00 301.50 132.00 301.50 C132.00 301.50 153.00 279.00 153.00 279.00 C153.00 279.00 177.00 281.50 177.00 281.50 C177.00 281.50 190.50 323.00 190.50 323.00 C190.50 323.00 330.00 442.00 330.00 442.00 C330.00 442.00 426.50 476.50 426.50 476.50 C426.50 476.50 543.00 475.50 543.00 475.50 C543.00 475.50 545.50 471.00 545.50 471.00 C545.50 471.00 492.00 402.50 492.00 402.50 C492.00 402.50 809.00 329.50 809.00 329.50 C809.00 329.50 946.00 274.00 946.00 274.00 C946.00 274.00 995.50 272.00 995.50 272.00 C995.50 272.00 999.00 279.00 999.00 279.00 C999.00 279.00 1249.50 245.50 1249.50 245.50 C1249.50 245.50 1254.50 240.50 1254.50 240.50 C1254.50 240.50 1255.50 231.00 1255.50 231.00 C1255.50 231.00 1251.00 224.50 1251.00 224.50 C1251.00 224.50 997.50 193.00 997.50 193.00 C997.50 193.00 996.00 200.00 996.00 200.00 C996.00 200.00 944.00 197.50 944.00 197.50 C944.00 197.50 809.50 146.00 809.50 146.00 C809.50 146.00 494.00 74.00 494.00 74.00 C494.00 74.00 547.00 10.00 547.00 10.00 C547.00 10.00 545.00 3.50 545.00 3.50 C545.00 3.50 432.50 1.50 432.50 1.50 C432.50 1.50 331.00 35.00 331.00 35.00 Z"/></svg>