<?xml version="1.0" encoding="UTF-8"?><svg id="b" xmlns="http://www.w3.org/2000/svg" viewBox="0 0 431.09 256.37"><g id="c"><path d="M274.74,166.97l-.4-.43,99.05-99.05,57.7,59.87-43.93,39.19-112.42.41Z" fill="#d388a9" fill-rule="evenodd"/><path d="M205.75,93.13l-48.99.41L0,0h308.34s55.42,57.5,55.42,57.5l-99.05,98.73-58.97-63.1Z" fill="#a82058" fill-rule="evenodd"/><g id="d"><path d="M26.67,247.48l8.89,8.89h66.66v-22.22h-53.33v-31.11h53.33v-22.22H26.67v66.66ZM106.66,247.48l8.89,8.89h44.44v-22.22h-31.11l.05-31.11h35.5v44.44l8.89,8.89h13.33v-75.55h-80v66.66ZM0,247.48l8.89,8.89h13.33v-75.55H0v66.66ZM431.09,203.04v-22.22h-75.55v40l8.89,8.89h44.44v4.44h-53.33v13.33l8.89,8.89h66.66v-48.89h-53.33v-4.44h53.33ZM191.1,247.48l8.89,8.89h13.33v-53.33h57.78s0-22.22,0-22.22h-80v66.66ZM275.54,247.48l8.89,8.89h40v-22.22h-26.67v-31.11h31.11v44.44l8.89,8.89h13.33v-75.55h-75.55v66.66Z" fill="#a82058" fill-rule="evenodd"/></g></g></svg>