<svg xmlns="http://www.w3.org/2000/svg" viewBox="0 0 347 166" width="347" height="166"><path fill="#000000" fill-rule="evenodd" d="M165.17 116.65 C165.17 116.65 111.28 1.95 111.28 1.95 C111.28 1.95 278.52 1.95 278.52 1.95 C278.52 1.95 332.05 116.65 332.05 116.65 C332.05 116.65 165.17 116.65 165.17 116.65 Z M116.04 116.65 C116.04 116.65 92.14 164.44 92.14 164.44 C92.14 164.44 10.90 164.44 10.90 164.44 C10.90 164.44 1.34 145.33 1.34 145.33 C1.34 145.33 68.25 1.95 68.25 1.95 C68.25 1.95 87.36 1.95 87.36 1.95 C87.36 1.95 140.89 116.65 140.89 116.65 C140.89 116.65 116.04 116.65 116.04 116.65 Z M125.59 135.77 C125.59 135.77 149.81 135.77 149.81 135.77 C149.81 135.77 154.27 145.33 154.27 145.33 C154.27 145.33 144.71 164.44 144.71 164.44 C144.71 164.44 111.26 164.44 111.26 164.44 C111.26 164.44 125.59 135.77 125.59 135.77 Z M174.15 135.77 C174.15 135.77 340.97 135.77 340.97 135.77 C340.97 135.77 345.43 145.33 345.43 145.33 C345.43 145.33 335.87 164.44 335.87 164.44 C335.87 164.44 168.75 164.44 168.75 164.44 C168.75 164.44 178.64 145.33 178.64 145.33 C178.64 145.33 174.15 135.77 174.15 135.77 Z"/></svg>