<?xml version="1.0" encoding="UTF-8"?><svg id="b" xmlns="http://www.w3.org/2000/svg" viewBox="0 0 211.74 138.52"><g id="c"><path d="M71.09,70.33l-14.65,29.3H6.62l-5.86-11.72L41.79,0h11.72l32.82,70.33h-15.24ZM76.94,82.05h14.85l2.73,5.86-5.86,11.72h-20.51l8.79-17.58Z" fill="#004900" fill-rule="evenodd"/><path d="M101.21,70.33L68.17,0h102.54l32.82,70.33h-102.32ZM106.72,82.05h102.29l2.73,5.86-5.86,11.72h-102.47l6.06-11.72-2.75-5.86Z" fill="#02a200" fill-rule="evenodd"/><g id="d"><path d="M44.51,138.52h8.08v-29.69h-7.98l-.09,29.69ZM55.25,108.84v29.69h7.98l.09-21.61h26.98l-.09-8.08h-34.96ZM211.35,119.61h-38.99v8.08h38.99v-8.08ZM0,138.52h8.08v-21.61h25.51l.09,21.61h8.08v-29.69H0v29.69ZM16.16,138.52h8.08v-18.91h-8.08v18.91ZM148.12,127.69h21.55v-8.08h-21.55v8.08ZM172.36,138.52h39.07v-8.08h-39.07v8.08ZM93.06,138.52h7.89v-10.83h20.24v10.83h8.08v-29.69h-36.3l.1,29.69ZM101.04,116.91h20.15v2.69h-20.15v-2.69ZM172.36,108.84v8.08h39.08v-8.08h-39.08ZM131.96,138.52h37.7v-8.08h-29.62v-13.53h29.62v-8.08h-37.7v29.69Z" fill="#004900" fill-rule="evenodd"/></g></g></svg>