<svg xmlns="http://www.w3.org/2000/svg" viewBox="0 0 907 739" width="907" height="739"><path fill="#000000" fill-rule="evenodd" d="M749.97 297.27 C781.15 331.10 781.15 375.22 781.15 468.76 C781.15 593.49 781.15 735.85 781.15 735.85 C781.15 735.85 95.17 737.01 95.17 737.01 C95.17 737.01 95.17 562.31 95.17 468.76 C95.17 375.22 125.30 317.54 141.42 299.61 C95.17 312.86 1.62 250.50 1.62 156.95 C1.62 63.41 63.98 1.05 157.53 1.05 C251.07 1.05 313.43 63.41 313.43 156.95 C406.98 94.59 500.52 94.59 594.06 156.95 C594.06 63.41 656.42 1.05 749.97 1.05 C843.51 1.05 905.87 63.41 905.87 156.95 C905.87 250.50 812.33 312.87 749.97 297.27 Z M157.53 32.23 C63.98 32.23 32.80 94.59 32.80 156.95 C32.80 219.31 92.42 265.78 171.75 266.95 C203.24 235.64 219.89 219.31 282.25 172.47 C282.25 94.59 251.07 32.23 157.53 32.23 Z M406.98 406.40 C406.98 375.22 406.98 344.04 344.61 344.04 C282.25 344.04 313.43 344.04 251.07 344.04 C188.71 344.04 126.35 406.40 126.35 468.76 C126.35 531.12 188.71 593.49 282.25 593.49 C375.80 593.49 406.98 499.94 406.98 468.76 C406.98 437.58 406.98 437.58 406.98 406.40 Z M375.80 593.49 C313.43 593.49 343.23 640.00 372.39 657.02 C418.64 688.20 469.34 687.03 500.52 655.85 C514.70 641.37 562.88 593.49 500.52 593.49 C438.16 593.49 406.98 593.49 375.80 593.49 Z M531.70 344.04 C500.52 344.04 485.54 375.22 485.54 406.40 C485.54 437.58 485.54 406.40 485.54 482.73 C485.54 559.07 562.88 593.49 625.24 593.49 C687.61 593.49 749.97 531.12 749.97 468.76 C749.97 406.40 687.61 344.04 625.24 344.04 C562.88 344.04 562.88 344.04 531.70 344.04 Z M749.97 32.23 C667.52 32.23 625.24 63.26 625.24 172.47 C687.61 219.31 687.61 219.31 734.01 270.01 C799.34 270.01 874.69 219.31 874.69 156.95 C874.69 94.59 832.42 32.23 749.97 32.23 Z M671.84 431.91 C671.84 431.91 633.70 471.46 633.70 471.46 C633.70 471.46 671.84 507.95 671.84 507.95 C671.84 507.95 646.49 533.30 646.49 533.30 C646.49 533.30 609.04 496.11 609.04 496.11 C609.04 496.11 570.44 533.30 570.44 533.30 C570.44 533.30 545.09 507.95 545.09 507.95 C545.09 507.95 582.49 470.51 582.49 470.51 C582.49 470.51 545.09 431.91 545.09 431.91 C545.09 431.91 570.44 406.56 570.44 406.56 C570.44 406.56 609.04 444.91 609.04 444.91 C609.04 444.91 646.49 406.56 646.49 406.56 C646.49 406.56 671.84 431.91 671.84 431.91 Z M313.88 529.15 C313.88 529.15 277.54 489.95 277.54 489.95 C277.54 489.95 238.11 529.15 238.11 529.15 C238.11 529.15 212.85 503.89 212.85 503.89 C212.85 503.89 252.03 465.39 252.03 465.39 C252.03 465.39 212.85 428.12 212.85 428.12 C212.85 428.12 238.11 402.86 238.11 402.86 C238.11 402.86 276.60 440.82 276.60 440.82 C276.60 440.82 313.88 402.86 313.88 402.86 C313.88 402.86 339.14 428.12 339.14 428.12 C339.14 428.12 301.16 465.39 301.16 465.39 C301.16 465.39 339.14 503.89 339.14 503.89 C339.14 503.89 313.88 529.15 313.88 529.15 Z"/></svg>