<svg xmlns="http://www.w3.org/2000/svg" xmlns:xlink="http://www.w3.org/1999/xlink" xmlns:inkscape="http://www.inkscape.org/namespaces/inkscape" version="1.1" width="36" height="37" viewBox="-2.33 -2.67 35.67 36.67">
<g>
<path d="M5.031 28.844 4.641 29.234H2.09V30.02H1.699V28.457L2.094 28.066H4.641L5.031 28.453ZM4.641 28.457H2.09V28.844H4.641ZM4.641 28.457"/>
<path d="M5.445 28.066H5.836V30.019H5.445Z"/>
<path d="M9.582 30.02H9.191L8.801 29.234H6.641V30.02H6.25V28.457L6.645 28.062H9.191L9.582 28.453V28.844L9.191 29.234ZM9.191 28.844V28.457H6.641V28.84ZM9.191 28.844"/>
<path d="M20.824 30.02H20.43V29.234H17.879V30.02H17.488V28.062H17.879V28.844H20.43V28.062H20.824ZM20.824 30.02"/>
<path d="M13.328 30.016H12.938V29.23H10.387V30.016L9.996 30.02V28.453L10.391 28.062H12.938L13.328 28.453ZM12.938 28.453H10.387V28.84H12.938ZM12.938 28.453"/>
<path d="M17.074 30.02H16.684V28.457H14.133V30.02H13.742V28.457L14.137 28.062H16.684L17.074 28.457ZM17.074 30.02"/>
<path d="M24.57 30.016H24.176V29.23H21.629V30.016L21.234 30.02V28.453L21.629 28.062H24.176L24.57 28.453ZM24.176 28.453H21.629V28.84H24.176ZM24.176 28.453"/>
<path d="M24.98 29.68H25.375V30.02H24.98Z"/>
<path d="M29.094 30.016 28.703 30.02V29.23H26.152V30.02H25.762V28.453L26.152 28.062H28.699L29.094 28.453ZM28.703 28.453H26.152V28.84H28.703ZM28.703 28.453"/>
<path d="M16.016 9.688C11.715 9.688 8.227 12.91 8.227 16.891 8.227 20.867 11.715 24.094 16.016 24.094 20.316 24.094 23.805 20.867 23.805 16.891 23.805 12.91 20.316 9.688 16.016 9.688" fill="#ffffff"/>
<path d="M22.773 7.871C20.355 4.395 16.855 2.219 13.418 1.691 11.023 1.32 8.66 1.746 6.707 3.086 4.492 4.609 3.199 7.047 2.863 9.812 2.48 12.973 3.355 16.562 5.547 19.711 7.535 22.566 10.305 24.641 13.34 25.543 16.371 26.445 19.312 26.074 21.613 24.492 23.914 22.91 25.301 20.312 25.52 17.172 25.742 14.031 24.766 10.73 22.773 7.871M5.508 11.555C6.355 11.926 7.246 12.148 8.152 12.199M19.828 21.93C19.18 22.375 18.465 22.695 17.703 22.883L16.004 20.59 15.621 23.086C14.941 23.059 14.242 22.938 13.535 22.727 13.523 22.723 13.512 22.723 13.5 22.719L13.895 20.852 11.156 21.664C10.91 21.516 10.668 21.355 10.434 21.184 10.148 20.152 10.023 19.129 10.051 18.152L13.785 20.035 10.816 14.836C10.965 14.516 11.141 14.215 11.332 13.926L16.586 17.105 14.758 11.352C15.223 11.203 15.707 11.105 16.203 11.059L19.691 15.02 19.832 11.551C20.719 11.867 21.602 12.332 22.441 12.938 22.629 13.613 22.746 14.297 22.797 14.98L20.906 16.16 22.734 17.004C22.637 17.68 22.465 18.32 22.227 18.91L19.336 18.301 21.02 20.871C20.668 21.27 20.27 21.625 19.828 21.93"/>
<path d="M7.27 17.906C5.984 15.883 5.387 13.656 5.457 11.605 6.305 11.973 7.199 12.199 8.102 12.25 8.328 12.262 8.551 12.266 8.766 12.254 7.777 13.859 7.262 15.812 7.27 17.906" fill="#ffffff"/>
<path d="M14.48 6.984C14.781 6.129 14.918 5.219 14.902 4.293 16.824 5.02 18.648 6.426 20.02 8.391 18.09 7.578 16.09 7.301 14.227 7.598 14.32 7.402 14.406 7.195 14.48 6.984" fill="#ffffff"/>
</g>
</svg>