<?xml version="1.0" encoding="UTF-8"?><svg id="b" xmlns="http://www.w3.org/2000/svg" viewBox="0 0 69.53 76.37"><g id="c"><path d="M11.3,5.03c35.61-23.37,80.37,40.75,45.78,67.07-6.49,4.23-12.23,4.5-16.87,4.16C15.53,74.4-6.09,43.14,1.57,19.1c1.8-5.67,3.87-10.22,9.74-14.06ZM35.01,7.43c-.2,3.75-.63,5.83-3.59,9.52l.03.04c6.24-1.42,10.82.08,16.45,1.77-4.14-6.27-8.91-9.43-12.89-11.33ZM6.13,26.44c.18,4.33,1.18,9.97,5.29,16.19.68-5.77,1.13-10.56,4.91-15.72l-.03-.04c-4.55,1.23-6.63.8-10.18-.43ZM31.75,33.86c-3.79,2.49-5.27,4.35-7.58,7.66,9.87,17.81,6.54,11.99,9.82,17.82q-5.77-3.39-12.62-7.06c-.22,1.12-.47,7.58.99,11.11q1.43.87,3.88,1.89c2.96-.98,5.26-1.59,8.19-2.64-.24,1.83-.71,5.57-.71,5.57,0,0,2.12.72,5.74.92q.36-3.72.8-8.45,3.94,4.56,7.08,7.91c3.52-1.43,7.29-3.9,10.04-6.55q-1.86-4.22-4.56-9.66,4.6,1.49,8.14,2.65s.07-.09.1-.13c1.16-3.28,1.36-5.46,1.36-5.46,0,0-3.58-1.08-5.36-1.6,2.08-2.28,3.55-4.15,5.62-6.42q.05-2.71-.15-4.42c-2.68-2.69-8.71-5.03-9.75-5.25q.57,7.72,1.38,14.37c-4.05-5.33-.02.03-12.42-16.08-3.96.77-6.25,1.38-10,3.84Z" fill="#cb0001" fill-rule="evenodd"/><path d="M31.42,16.95l.03.04c6.24-1.42,10.82.08,16.45,1.77-4.14-6.27-8.91-9.43-12.89-11.33-.2,3.75-.63,5.83-3.59,9.52Z" fill="#fcce08" fill-rule="evenodd"/><path d="M54.17,46.1c-4.05-5.33-.02.03-12.42-16.08-3.96.77-6.25,1.38-10,3.84-3.79,2.49-5.27,4.35-7.58,7.66,9.87,17.81,6.54,11.99,9.82,17.82q-5.77-3.39-12.62-7.06c-.22,1.12-.47,7.58.99,11.11q1.43.87,3.88,1.89c2.96-.98,5.26-1.59,8.19-2.64-.24,1.83-.71,5.57-.71,5.57,0,0,2.12.72,5.74.92q.36-3.72.8-8.45,3.94,4.56,7.08,7.91c3.52-1.43,7.29-3.9,10.04-6.55q-1.86-4.22-4.56-9.66,4.6,1.49,8.14,2.65s.07-.09.1-.13c1.16-3.28,1.36-5.46,1.36-5.46,0,0-3.58-1.08-5.36-1.6,2.08-2.28,3.55-4.15,5.62-6.42q.05-2.71-.15-4.42c-2.68-2.69-8.71-5.03-9.75-5.25q.57,7.72,1.38,14.37Z" fill="#fff" fill-rule="evenodd"/><path d="M16.33,26.91l-.03-.04c-4.55,1.23-6.63.8-10.18-.43.18,4.33,1.18,9.97,5.29,16.19.68-5.77,1.13-10.56,4.91-15.72Z" fill="#fcce08" fill-rule="evenodd"/></g></svg>