<?xml version="1.0" encoding="UTF-8"?><svg id="b" xmlns="http://www.w3.org/2000/svg" viewBox="0 0 58.94 63.31"><g id="c"><path d="M34.26,21.03c-11.13,0-20.16,8.34-20.16,18.64s9.03,18.64,20.16,18.64,20.16-8.35,20.16-18.64-9.03-18.64-20.16-18.64" fill="#fff"/><path d="M51.75,16.32C45.49,7.33,36.44,1.7,27.54.33c-6.2-.96-12.31.14-17.37,3.61C4.44,7.88,1.1,14.19.23,21.35c-.99,8.18,1.27,17.47,6.95,25.62,5.14,7.39,12.31,12.76,20.17,15.09,7.84,2.33,15.45,1.37,21.41-2.72,5.95-4.09,9.54-10.82,10.11-18.94.57-8.13-1.95-16.67-7.11-24.07M7.07,25.86c2.19.96,4.5,1.53,6.84,1.67M44.13,52.71c-1.68,1.15-3.53,1.98-5.5,2.47l-4.4-5.93-.99,6.46c-1.76-.07-3.57-.38-5.4-.93-.03-.01-.06-.01-.09-.02l1.02-4.83-7.09,2.1c-.64-.38-1.26-.8-1.87-1.24-.74-2.67-1.06-5.32-.99-7.85l9.66,4.87-7.68-13.45c.39-.83.84-1.61,1.34-2.35l13.6,8.23-4.73-14.89c1.2-.39,2.46-.64,3.74-.76l9.03,10.25.36-8.98c2.3.82,4.58,2.02,6.75,3.59.49,1.75.79,3.52.92,5.28l-4.89,3.05,4.73,2.18c-.25,1.75-.7,3.41-1.31,4.93l-7.48-1.58,4.36,6.65c-.91,1.03-1.94,1.95-3.08,2.74" fill="#cb0001"/><path d="M11.63,42.29c-3.33-5.24-4.87-11-4.69-16.31,2.19.95,4.51,1.54,6.84,1.67.58.03,1.16.04,1.72.01-2.56,4.15-3.89,9.21-3.87,14.63" fill="#fcce08"/><path d="M30.29,14.03c.78-2.21,1.13-4.57,1.09-6.96,4.97,1.88,9.69,5.52,13.24,10.61-4.99-2.1-10.17-2.82-14.99-2.05.24-.51.46-1.04.65-1.59" fill="#fcce08"/></g></svg>