<svg xmlns="http://www.w3.org/2000/svg" viewBox="0 0 2473 2502" width="2473" height="2502"><path fill="#000000" fill-rule="evenodd" d="M1091.84 1.80 C2402.47 1.56 2471.85 2407.00 1137.54 2500.23 C899.07 2499.52 746.70 2409.58 633.28 2322.35 C29.49 1858.02 1.03 688.61 603.91 199.26 C746.01 83.91 875.94 1.56 1091.84 1.80 Z M1661.38 463.62 C1592.94 556.66 1546.68 602.92 1408.43 648.03 C1408.43 648.57 1408.43 649.12 1408.43 649.66 C1592.94 718.57 1685.46 834.21 1801.72 972.78 C1801.11 741.70 1731.72 579.79 1661.38 463.62 Z M597.38 465.25 C529.00 579.79 459.61 741.70 460.30 971.14 C575.26 834.21 667.77 718.57 851.96 649.66 C851.96 649.12 851.96 648.57 851.96 648.03 C714.03 602.92 667.77 556.66 597.38 465.25 Z M1131.21 1088.64 C991.58 1088.63 922.20 1111.76 807.06 1157.75 C760.29 1782.51 773.08 1576.60 758.94 1782.20 C667.77 1597.48 667.77 1597.48 553.47 1387.43 C529.00 1412.44 413.35 1574.35 391.32 1689.84 C413.35 1736.25 413.35 1736.25 459.34 1803.93 C552.13 1828.77 621.52 1851.90 714.51 1874.32 C677.52 1917.29 602.28 2005.77 602.28 2005.77 C602.28 2005.77 644.65 2060.06 734.46 2126.53 C806.55 2036.93 806.55 2036.93 897.65 1922.54 C922.20 2106.32 922.20 2106.32 946.24 2245.44 C1060.97 2268.22 1199.75 2268.22 1315.26 2246.33 C1338.52 2106.32 1338.52 2106.32 1361.11 1920.91 C1454.17 2036.93 1454.17 2036.93 1525.93 2126.53 C1527.56 2125.98 1529.19 2125.44 1530.82 2124.89 C1616.07 2060.06 1658.11 2007.40 1658.11 2007.40 C1658.11 2007.40 1584.13 1919.10 1547.14 1875.58 C1639.20 1851.90 1708.59 1828.77 1800.15 1805.20 C1847.36 1736.25 1847.36 1736.25 1870.97 1688.91 C1847.36 1574.35 1731.72 1412.44 1708.66 1389.11 C1592.94 1597.48 1592.94 1597.48 1501.45 1782.20 C1487.31 1576.60 1500.43 1782.51 1453.33 1158.69 C1338.52 1111.76 1269.13 1088.63 1131.21 1088.64 Z"/></svg>