<svg xmlns="http://www.w3.org/2000/svg" xmlns:xlink="http://www.w3.org/1999/xlink" xmlns:inkscape="http://www.inkscape.org/namespaces/inkscape" version="1.1" width="39" height="36" viewBox="-2.33 -2.33 39.33 36.33">
<g>
<path d="M5.828 27.164C5.984 26.801 5.988 26.379 5.988 25.938V25.695C5.988 25.066 5.98 24.48 5.535 24.035 5.523 24.023 5.512 24.012 5.5 24 5.473 23.977 5.445 23.949 5.414 23.926 5.395 23.906 5.375 23.895 5.355 23.879 5.336 23.859 5.312 23.844 5.293 23.828 5.266 23.809 5.238 23.793 5.207 23.773 5.195 23.766 5.18 23.754 5.164 23.75 5.133 23.727 5.098 23.711 5.062 23.695 5.051 23.688 5.043 23.684 5.031 23.68 4.992 23.66 4.953 23.645 4.914 23.633 4.902 23.629 4.895 23.625 4.887 23.625 4.844 23.609 4.801 23.598 4.754 23.586 4.75 23.586 4.742 23.582 4.738 23.582 4.688 23.57 4.641 23.562 4.586 23.555 4.586 23.555 4.582 23.555 4.578 23.555 4.523 23.547 4.469 23.539 4.41 23.535V23.531H3.305V23.535C3.246 23.539 3.191 23.547 3.137 23.555 3.133 23.555 3.129 23.555 3.129 23.555 3.074 23.562 3.023 23.57 2.977 23.582 2.973 23.582 2.965 23.586 2.961 23.586 2.914 23.598 2.871 23.609 2.824 23.625 2.816 23.625 2.809 23.629 2.801 23.633 2.762 23.645 2.723 23.66 2.684 23.68 2.672 23.684 2.66 23.688 2.652 23.695 2.617 23.711 2.582 23.727 2.551 23.75 2.535 23.754 2.52 23.766 2.508 23.773 2.477 23.793 2.449 23.809 2.422 23.828 2.398 23.844 2.379 23.859 2.359 23.879 2.34 23.895 2.316 23.906 2.297 23.926 2.27 23.949 2.242 23.977 2.215 24 2.203 24.012 2.191 24.023 2.18 24.035 1.734 24.48 1.727 25.066 1.727 25.695 1.727 25.734 1.727 25.777 1.727 25.816 1.727 25.859 1.727 25.898 1.727 25.938 1.727 26.57 1.734 27.156 2.18 27.602 2.219 27.637 2.258 27.676 2.297 27.707V27.711C2.316 27.727 2.34 27.742 2.359 27.758 2.379 27.773 2.398 27.789 2.422 27.805 2.449 27.824 2.477 27.844 2.508 27.859 2.52 27.871 2.535 27.879 2.551 27.887 2.582 27.906 2.617 27.922 2.652 27.941 2.66 27.945 2.672 27.949 2.684 27.957 2.723 27.973 2.762 27.988 2.801 28 2.809 28.004 2.816 28.008 2.824 28.012 2.871 28.023 2.914 28.039 2.961 28.047 2.965 28.051 2.973 28.051 2.977 28.051 3.023 28.062 3.074 28.074 3.129 28.082 3.129 28.082 3.133 28.082 3.137 28.082 3.191 28.09 3.246 28.094 3.305 28.098V28.102H4.406V28.113H6.484V27.164ZM3.43 27.121C3.23 27.121 3.07 27.035 2.988 26.926 2.891 26.793 2.828 26.645 2.828 25.828 2.828 25.824 2.828 25.82 2.828 25.816 2.828 25.812 2.828 25.812 2.828 25.809 2.828 24.992 2.891 24.84 2.988 24.707 3.07 24.602 3.23 24.512 3.43 24.512H4.285C4.484 24.512 4.641 24.602 4.723 24.707 4.824 24.84 4.887 24.992 4.887 25.809V25.828C4.887 26.645 4.824 26.793 4.723 26.926 4.641 27.035 4.484 27.121 4.285 27.121ZM3.43 27.121"/>
<path d="M6.879 23.637H7.977V28.113999H6.879Z"/>
<path d="M12.141 28.113V23.637H15.543V24.617H13.242V25.367H15.5V26.348H13.242V27.133H15.543V28.113ZM12.141 28.113"/>
<path d="M22.309 25.406H24.368V26.375H22.309Z"/>
<path d="M21.316 24.738H22.164V23.637H20.727L19.879 25.355H19.5V23.629H18.398V25.355H18.152L17.258 23.637H15.82V24.738H16.668L17.316 25.82 16.59 27.016H15.82V28.113H17.176L18.184 26.324H18.398V28.105H19.5V26.324H19.867L20.809 28.113H22.164V27.016H21.395L20.668 25.82ZM21.316 24.738"/>
<path d="M32.223 27.676C31.914 27.984 31.48 28.113 31.016 28.113H28.684V23.637H31.016C31.48 23.637 31.914 23.77 32.223 24.078 32.742 24.602 32.688 25.172 32.688 25.875 32.688 26.582 32.742 27.152 32.223 27.676M31.465 24.871C31.367 24.719 31.215 24.617 30.938 24.617H29.785V27.133H30.938C31.215 27.133 31.367 27.035 31.465 26.883 31.555 26.758 31.586 26.637 31.586 25.875 31.586 25.121 31.555 24.996 31.465 24.871"/>
<path d="M9.539 26.449V28.117H8.438V23.637H11.746V24.625H9.539ZM9.539 26.449"/>
<path d="M26.02 26.449V28.117H24.918V23.637H28.227V24.625H26.02ZM26.02 26.449"/>
<path d="M10.059 19.262C11.348 19.773 12.691 19.922 14.09 19.711 15.551 19.492 16.836 18.918 17.949 17.992L16.875 17.223C15.996 17.883 15.004 18.297 13.902 18.461 12.727 18.637 11.594 18.512 10.5 18.086 9.41 17.66 8.496 16.992 7.758 16.086 7.023 15.18 6.566 14.145 6.395 12.977 6.219 11.809 6.348 10.676 6.777 9.586 7.207 8.492 7.879 7.582 8.797 6.844 9.711 6.109 10.766 5.652 11.961 5.473 13.121 5.301 14.246 5.434 15.34 5.875 16.43 6.316 17.348 6.992 18.086 7.914 18.828 8.832 19.285 9.887 19.465 11.082 19.625 12.152 19.52 13.191 19.148 14.191L20.207 14.969C20.766 13.715 20.938 12.359 20.719 10.898 20.484 9.469 19.93 8.207 19.059 7.109 18.184 6.016 17.102 5.207 15.812 4.688 14.52 4.168 13.172 4.012 11.77 4.223 10.367 4.434 9.121 4.973 8.035 5.844 6.945 6.719 6.148 7.801 5.641 9.098 5.129 10.398 4.98 11.75 5.191 13.156 5.398 14.543 5.941 15.777 6.816 16.863 7.691 17.953 8.773 18.75 10.059 19.262"/>
<path d="M1.699 29.078H32.91V29.964999H1.699Z"/>
<path d="M20.973 17.109 20.527 16.785 19.438 16.008C19.438 16.004 19.441 16 19.441 16L18.434 15.266C18.43 15.273 18.422 15.281 18.418 15.289L17.41 14.57 16.645 15.523 15.906 14.961 15.902 14.973 15.477 15.293 14.543 15.164 13.746 14.586 13.16 14.055 11.902 13.109 11.465 12.961 9.051 11.148 8.938 10.902 8.992 10.164 9.707 10.246 11.285 11.434 11.727 12.035 14.801 14.215 14.922 14.051 14.309 13.59 13.949 13.094 14.059 12.898 14.055 12.895 14.074 12.875 14.086 12.852 14.094 12.855 14.246 12.699 14.824 12.902 15.438 13.367 15.559 13.203 12.613 10.852 11.914 10.598 10.336 9.414 10.059 8.746 10.754 8.492 11.02 8.531 13.43 10.344 13.695 10.727 14.949 11.672 15.625 12.086 16.402 12.695 16.785 13.555 16.629 13.961 17.395 14.547C17.52 14.328 17.633 14.098 17.73 13.859 18.086 12.98 18.195 12.074 18.055 11.141 17.914 10.195 17.543 9.348 16.945 8.602 16.348 7.855 15.609 7.305 14.727 6.945 13.848 6.586 12.934 6.477 11.992 6.621 11.027 6.762 10.176 7.133 9.438 7.734 8.699 8.332 8.156 9.07 7.805 9.957 7.457 10.84 7.352 11.762 7.496 12.723 7.637 13.66 8.004 14.5 8.602 15.234 9.199 15.969 9.941 16.512 10.836 16.863 11.727 17.211 12.637 17.316 13.57 17.176 14.508 17.035 15.348 16.668 16.086 16.074 16.277 15.922 16.453 15.762 16.617 15.59L23.855 20.781H26.016ZM22.863 15.34C23.348 13.695 23.477 12.102 23.246 10.559 22.969 8.703 22.25 7.055 21.098 5.613 19.941 4.172 18.508 3.105 16.801 2.418 15.094 1.723 13.32 1.516 11.48 1.789 9.625 2.07 7.98 2.785 6.543 3.938 5.105 5.09 4.047 6.523 3.371 8.238 2.688 9.949 2.488 11.742 2.77 13.613 3.043 15.438 3.754 17.059 4.906 18.469 6.059 19.879 7.488 20.922 9.203 21.594 9.215 21.598 9.227 21.602 9.238 21.605H1.695V22.574H32.699ZM16.664 21.605C17.477 21.289 18.285 20.855 19.094 20.309L20.879 21.605ZM19.047 18.766C17.68 19.984 16.117 20.727 14.352 20.988 12.73 21.23 11.168 21.055 9.668 20.461 8.164 19.867 6.906 18.945 5.898 17.703 4.887 16.457 4.262 15.031 4.023 13.426 3.777 11.785 3.949 10.203 4.547 8.688 5.141 7.168 6.066 5.902 7.328 4.883 8.59 3.867 10.031 3.234 11.66 2.992 13.258 2.754 14.809 2.941 16.316 3.555 17.824 4.168 19.086 5.117 20.102 6.395 21.121 7.672 21.75 9.121 21.992 10.746 22.254 12.484 22.016 14.141 21.285 15.723L22.527 16.633 29.184 21.543H22.875ZM19.047 18.766"/>
</g>
</svg>