<?xml version="1.0" encoding="UTF-8"?><svg id="b" xmlns="http://www.w3.org/2000/svg" viewBox="0 0 103.26 93.59"><g id="c"><path d="M5.73,84.18c-.66,0-1.18-.29-1.45-.65-.33-.44-.54-.94-.54-3.64,0-.01,0-.02,0-.03s0-.02,0-.03c0-2.7.21-3.2.54-3.64.27-.35.79-.65,1.45-.65h2.83c.67,0,1.19.29,1.46.65.33.44.54.94.54,3.64v.06c0,2.7-.21,3.2-.54,3.64-.27.35-.79.65-1.46.65h-2.83ZM13.67,84.32c.51-1.21.53-2.59.53-4.05v-.81c0-2.08-.03-4.02-1.5-5.49-.04-.04-.08-.07-.12-.11-.09-.09-.18-.17-.27-.25-.07-.06-.14-.11-.2-.16-.07-.05-.13-.11-.2-.16-.09-.06-.19-.12-.28-.18-.05-.03-.09-.06-.14-.09-.11-.06-.22-.12-.34-.17-.04-.02-.07-.04-.11-.05-.13-.06-.26-.11-.39-.15-.03-.01-.05-.02-.08-.03-.14-.05-.29-.09-.44-.13-.02,0-.04,0-.05-.01-.16-.04-.33-.07-.5-.09,0,0-.02,0-.03,0-.18-.02-.36-.04-.56-.05h0v-.02h-3.66v.02s0,0,0,0c-.19.01-.38.03-.56.05,0,0-.02,0-.03,0-.17.02-.34.06-.5.09-.02,0-.03,0-.05.01-.15.04-.3.08-.44.13-.03,0-.05.02-.08.03-.13.05-.26.1-.39.15-.04.02-.07.03-.11.05-.11.05-.23.11-.34.17-.05.03-.1.06-.14.09-.1.06-.19.12-.28.18-.07.05-.14.1-.2.16-.07.05-.14.1-.2.16-.09.08-.18.17-.28.25-.04.04-.08.07-.12.11-1.47,1.47-1.5,3.41-1.5,5.49,0,.13,0,.27,0,.4s0,.27,0,.4c0,2.08.03,4.02,1.5,5.49.13.13.26.24.39.36,0,0,0,0,0,0,.07.06.14.11.2.16.07.05.13.11.2.16.09.07.19.12.28.18.05.03.09.06.14.09.11.06.22.12.34.18.04.02.07.03.11.05.13.06.26.11.39.15.03,0,.05.02.08.03.14.05.29.09.44.13.02,0,.04,0,.05.01.16.04.33.07.5.09.01,0,.02,0,.03,0,.18.02.37.04.56.05h0v.02h3.64v.04h6.88v-3.15h-2.18Z" fill="#bb2e83"/><polygon points="17.14 87.47 17.14 72.66 20.78 72.66 20.78 87.47 17.14 87.47 17.14 87.47" fill="#bb2e83"/><polygon points="34.55 87.47 34.55 72.66 45.8 72.66 45.8 75.9 38.19 75.9 38.19 78.38 45.66 78.38 45.66 81.62 38.19 81.62 38.19 84.22 45.8 84.22 45.8 87.47 34.55 87.47 34.55 87.47" fill="#bb2e83"/><polygon points="68.18 81.71 68.18 78.51 75 78.51 75 81.71 68.18 81.71 68.18 81.71" fill="#bb2e83"/><polygon points="64.9 76.3 67.71 76.3 67.71 72.66 62.95 72.66 60.14 78.34 58.89 78.34 58.89 72.63 55.25 72.63 55.25 78.34 54.43 78.34 51.48 72.66 46.72 72.66 46.72 76.3 49.52 76.3 51.67 79.88 49.26 83.83 46.72 83.83 46.72 87.47 51.21 87.47 54.54 81.54 55.25 81.54 55.25 87.44 58.89 87.44 58.89 81.54 60.1 81.54 63.22 87.47 67.71 87.47 67.71 83.83 65.16 83.83 62.76 79.88 64.9 76.3 64.9 76.3" fill="#bb2e83"/><path d="M98.48,76.73c-.33-.5-.83-.83-1.75-.83h-3.82v8.32h3.82c.91,0,1.41-.33,1.75-.83.29-.42.4-.81.4-3.33s-.11-2.91-.4-3.33h0ZM100.97,86.01c-1.02,1.02-2.45,1.46-3.99,1.46h-7.71v-14.81h7.71c1.54,0,2.98.44,3.99,1.46,1.73,1.73,1.54,3.62,1.54,5.95s.19,4.22-1.54,5.95h0Z" fill="#bb2e83"/><polygon points="25.94 81.96 25.94 87.47 22.3 87.47 22.3 72.66 33.24 72.66 33.24 75.92 25.94 75.92 25.94 78.92 25.94 81.96 25.94 81.96" fill="#bb2e83"/><polygon points="80.46 81.96 80.46 87.47 76.82 87.47 76.82 72.66 87.76 72.66 87.76 75.92 80.46 75.92 80.46 78.92 80.46 81.96 80.46 81.96" fill="#bb2e83"/><path d="M27.66,58.18c4.26,1.69,8.7,2.19,13.33,1.49,4.84-.72,9.09-2.63,12.76-5.7l-3.55-2.54c-2.91,2.18-6.19,3.55-9.84,4.09-3.89.58-7.64.17-11.25-1.24-3.61-1.41-6.64-3.61-9.07-6.61-2.43-3-3.94-6.43-4.52-10.29-.58-3.87-.16-7.61,1.27-11.22,1.42-3.61,3.65-6.63,6.68-9.06,3.03-2.43,6.52-3.94,10.47-4.54,3.84-.57,7.56-.13,11.18,1.32,3.61,1.46,6.64,3.7,9.09,6.74,2.45,3.04,3.97,6.53,4.56,10.48.53,3.54.18,6.97-1.05,10.29l3.51,2.57c1.84-4.14,2.41-8.63,1.69-13.46-.77-4.73-2.6-8.91-5.49-12.53-2.89-3.62-6.47-6.29-10.74-8.01-4.27-1.72-8.73-2.23-13.37-1.54-4.64.69-8.76,2.48-12.36,5.37-3.6,2.89-6.24,6.47-7.92,10.76-1.68,4.29-2.18,8.76-1.48,13.42.68,4.58,2.47,8.67,5.37,12.27,2.89,3.6,6.47,6.24,10.73,7.93" fill="#bb2e83"/><polygon points="103.26 93.59 0 93.59 0 90.66 103.26 90.66 103.26 93.59 103.26 93.59" fill="#642869"/><path d="M57.39,56.54c-4.51,4.03-9.69,6.48-15.53,7.35-5.37.8-10.53.22-15.5-1.75-4.97-1.97-9.12-5.01-12.47-9.13-3.34-4.12-5.41-8.83-6.21-14.15-.81-5.43-.23-10.65,1.73-15.67,1.97-5.02,5.04-9.22,9.21-12.58,4.17-3.37,8.95-5.45,14.33-6.25,5.29-.79,10.42-.17,15.4,1.86,4.98,2.03,9.16,5.16,12.53,9.39,3.37,4.23,5.45,9.03,6.25,14.39.86,5.75.08,11.24-2.35,16.47l4.12,3.01,22.02,16.23h-20.88l-12.66-9.18h0ZM49.51,65.94c2.69-1.06,5.37-2.48,8.04-4.29l5.9,4.29h-13.94ZM70.01,45.21c1.61-5.44,2.04-10.71,1.27-15.81-.92-6.14-3.29-11.59-7.11-16.36-3.82-4.76-8.56-8.29-14.21-10.58C44.32.17,38.45-.52,32.36.39c-6.13.92-11.58,3.28-16.33,7.1-4.75,3.81-8.25,8.56-10.5,14.22-2.25,5.67-2.91,11.6-1.99,17.78.9,6.04,3.26,11.4,7.07,16.07,3.81,4.67,8.55,8.11,14.21,10.34.04.02.08.03.12.05H0v3.2h102.55l-32.54-23.94h0ZM63.76,51.06l-1.47-1.07-3.61-2.58s.01-.02.02-.03l-3.34-2.43s-.04.05-.05.08l-3.33-2.38-2.53,3.14-2.44-1.86-.02.04-1.4,1.06-3.08-.43-2.65-1.91-1.93-1.76-4.16-3.13-1.45-.49-7.98-6-.37-.81.17-2.44,2.37.27,5.22,3.93,1.45,2,10.18,7.2.4-.53-2.03-1.53-1.18-1.65.36-.64h-.02s.06-.08.06-.08l.04-.08.02.02.51-.52,1.91.68,2.03,1.53.4-.53-9.74-7.78-2.32-.84-5.22-3.93-.92-2.2,2.3-.84.88.13,7.98,6,.87,1.26,4.16,3.13,2.22,1.37,2.57,2.01,1.27,2.84-.52,1.35,2.54,1.93c.42-.72.79-1.48,1.11-2.27,1.17-2.91,1.53-5.91,1.07-8.98-.47-3.14-1.69-5.94-3.67-8.41-1.98-2.47-4.42-4.29-7.34-5.48-2.91-1.19-5.93-1.55-9.04-1.08-3.2.48-6.01,1.71-8.45,3.68-2.44,1.98-4.24,4.43-5.39,7.36-1.16,2.93-1.5,5.97-1.02,9.15.46,3.11,1.68,5.88,3.66,8.31,1.97,2.43,4.43,4.23,7.38,5.39,2.95,1.16,5.97,1.5,9.05,1.04,3.1-.46,5.88-1.68,8.33-3.65.62-.5,1.21-1.04,1.75-1.6l23.95,17.18h7.14l-16.69-12.15h0Z" fill="#642869"/></g></svg>