<svg xmlns="http://www.w3.org/2000/svg" viewBox="0 0 798 202" width="798" height="202"><path fill="#000000" fill-rule="evenodd" d="M1.50 200.65 C1.50 200.65 1.50 174.71 1.50 174.71 C1.50 174.71 796.64 175.29 796.64 175.29 C796.64 175.29 796.64 200.65 796.64 200.65 C796.64 200.65 1.50 200.65 1.50 200.65 Z M755.26 158.29 C730.95 158.29 689.34 158.42 689.34 158.42 C689.34 158.42 689.47 41.88 689.47 41.88 C689.47 41.88 730.38 41.88 755.77 41.88 C781.16 41.88 796.64 68.13 796.64 84.70 C796.64 101.26 796.64 101.26 796.64 117.83 C796.64 134.39 779.56 158.29 755.26 158.29 Z M746.94 68.13 C730.38 68.13 713.81 68.13 713.81 68.13 C713.81 68.13 713.81 134.39 713.81 134.39 C713.81 134.39 730.38 134.39 746.94 134.39 C763.51 134.39 763.51 117.83 763.51 101.26 C763.51 84.70 763.51 68.13 746.94 68.13 Z M597.85 158.54 C597.85 158.54 597.85 42.05 597.85 42.05 C597.85 42.05 680.68 42.05 680.68 42.05 C680.68 42.05 680.68 68.13 680.68 68.13 C680.68 68.13 630.99 68.13 630.99 68.13 C630.99 68.13 630.99 158.93 630.99 158.93 C630.99 158.93 597.85 158.54 597.85 158.54 Z M539.64 117.83 C539.64 117.83 539.38 84.70 539.38 84.70 C539.38 84.70 589.50 84.70 589.50 84.70 C589.50 84.70 589.24 118.08 589.24 118.08 C589.24 118.08 539.64 117.83 539.64 117.83 Z M365.94 68.13 C365.94 68.13 365.94 41.47 365.94 41.47 C365.94 41.47 399.07 41.18 399.07 41.18 C399.07 41.18 428.73 84.70 428.73 84.70 C428.73 84.70 436.03 84.70 436.03 84.70 C436.03 84.70 435.45 42.34 435.45 42.34 C435.45 42.34 461.16 42.64 461.16 42.64 C461.16 42.64 461.45 84.70 461.45 84.70 C461.45 84.70 468.46 84.70 468.46 84.70 C468.46 84.70 498.46 42.34 498.46 42.34 C498.46 42.34 531.59 42.34 531.59 42.34 C531.59 42.34 531.59 68.13 531.59 68.13 C531.59 68.13 514.92 67.84 514.92 67.84 C514.92 67.84 489.79 101.26 489.79 101.26 C489.79 101.26 515.03 134.39 515.03 134.39 C515.03 134.39 531.59 134.39 531.59 134.39 C531.59 134.39 531.59 158.64 531.59 158.64 C531.59 158.64 498.46 158.64 498.46 158.64 C498.46 158.64 467.38 113.35 467.38 113.35 C467.38 113.35 460.87 113.06 460.87 113.06 C460.87 113.06 460.87 158.93 460.87 158.93 C460.87 158.93 435.45 158.64 435.45 158.64 C435.45 158.64 434.61 113.36 434.61 113.36 C434.61 113.36 428.69 113.35 428.69 113.35 C428.69 113.35 399.51 158.93 399.51 158.93 C399.51 158.93 365.94 158.93 365.94 158.93 C365.94 158.93 365.94 134.39 365.94 134.39 C365.94 134.39 382.51 134.39 382.51 134.39 C382.51 134.39 406.52 101.26 406.52 101.26 C406.52 101.26 382.51 68.13 382.51 68.13 C382.51 68.13 365.94 68.13 365.94 68.13 Z M357.43 134.39 C357.43 134.39 358.01 158.93 358.01 158.93 C358.01 158.93 274.45 159.51 274.45 159.51 C274.45 159.51 274.45 42.05 274.45 42.05 C274.45 42.05 357.43 41.47 357.43 41.47 C357.43 41.47 358.01 68.13 358.01 68.13 C358.01 68.13 299.68 68.13 299.68 68.13 C299.68 68.13 299.68 84.70 299.68 84.70 C299.68 84.70 358.01 84.70 358.01 84.70 C358.01 84.70 357.43 117.83 357.43 117.83 C357.43 117.83 299.68 117.83 299.68 117.83 C299.68 117.83 299.68 134.39 299.68 134.39 C299.68 134.39 357.43 134.39 357.43 134.39 Z M176.27 158.93 C176.27 158.93 176.27 42.05 176.27 42.05 C176.27 42.05 266.55 42.05 266.55 42.05 C266.55 42.05 266.55 68.13 266.55 68.13 C266.55 68.13 208.47 68.13 208.47 68.13 C208.47 68.13 208.47 158.35 208.47 158.35 C208.47 158.35 176.27 158.93 176.27 158.93 Z M134.02 158.35 C134.02 158.35 134.02 42.05 134.02 42.05 C134.02 42.05 167.16 42.05 167.16 42.05 C167.16 42.05 167.16 158.93 167.16 158.93 C167.16 158.93 134.02 158.35 134.02 158.35 Z M1.50 1.87 C1.50 1.87 796.64 1.87 796.64 1.87 C796.64 1.87 796.64 26.86 796.64 26.86 C796.64 26.86 1.50 25.69 1.50 25.69 C1.50 25.69 1.50 1.87 1.50 1.87 Z M51.20 42.64 C59.62 42.64 62.68 42.60 63.11 42.55 C64.45 42.58 65.96 42.60 67.76 42.64 C100.89 43.22 117.46 68.13 117.46 84.70 C117.46 101.26 117.46 92.31 117.46 109.26 C117.46 126.20 109.06 134.39 109.06 134.39 C109.06 134.39 125.43 134.39 125.43 134.39 C125.43 134.39 126.01 158.93 126.01 158.93 C126.01 158.93 67.76 159.51 51.20 158.93 C34.63 158.35 1.50 150.96 1.50 117.83 C1.50 110.68 1.50 97.27 1.50 84.70 C1.50 61.31 18.07 42.64 51.20 42.64 Z M34.63 117.83 C34.63 134.39 42.52 134.39 51.20 134.39 C59.87 134.39 59.81 134.39 67.76 134.39 C75.72 134.39 84.33 134.39 84.33 117.83 C84.33 101.26 84.33 101.26 84.33 84.70 C84.33 68.13 75.65 68.13 67.76 68.13 C59.87 68.13 58.75 68.13 51.20 68.13 C43.65 68.13 34.63 68.13 34.63 84.70 C34.63 101.26 34.63 101.26 34.63 117.83 Z M63.11 42.55 C46.09 42.23 64.31 42.42 63.11 42.55 Z"/></svg>