<?xml version="1.0" encoding="UTF-8"?><svg id="b" xmlns="http://www.w3.org/2000/svg" viewBox="0 0 205.14 138.41"><g id="c"><path d="M205.14,135.85l-69.56.03-21.88-13.68c-12.03,10.11-27.55,16.2-44.5,16.2C30.98,138.41,0,107.43,0,69.21S30.98,0,69.21,0s69.2,30.98,69.2,69.21c0,6.07-.78,11.96-2.25,17.57l68.98,49.07ZM69.21,9.89c-32.76,0-59.32,26.56-59.32,59.32s26.56,59.32,59.32,59.32c16.43,0,31.29-6.69,42.03-17.47l8.43,5.51s-.02.02-.03.03l18.1,11.9,42.73-.16-42.41-29.35.13-.27-13.4-8.75c2.41-6.46,3.74-13.46,3.74-20.76,0-32.76-26.56-59.32-59.32-59.32ZM161.09,123.52l-17.59-.22s-6.43-4.28-14.59-9.71h.01s-29.51-19.79-29.51-19.79l-.08.08c-1.76-1.18-3.02-2.01-3.55-2.37,1.73-2.18,3.42-4.7,4.85-7.52.05.03,3.66,2.46,3.66,2.46,0,0,17.05,11.08,17.05,11.08l39.76,25.99ZM100.2,84.6c-.44.87-.91,1.71-1.42,2.54.49-.82.95-1.66,1.42-2.54ZM71.34,84.6c.09.09,9.24,6.63,9.24,6.63l11.68-2.01s2.72,1.82,3.41,2.26c-6.35,7.54-15.86,12.33-26.48,12.33-19.11,0-34.6-15.49-34.6-34.6s15.49-34.6,34.6-34.6,34.6,15.49,34.6,34.6c0,5.27-1.18,10.27-3.29,14.74-1.58-1.06-2.53-1.8-2.53-1.8l-2.06-10.97-9.24-6.54s-10.9-5.41-14.91-10.55c-9.77-4.53-20.93-9.07-20.93-9.07l-5.06,2.7,13.86,9.77,5.41.87,23.11,16.83-1.83.09s-4.01-3.05-8.54-4.27c-1.05.87-1.66,2.01-2.35,2.88,1.66,3.84,4.53,5.58,6.63,7.24.52.7.96,1.74.96,1.74l-24.33-16.22-1.57-5.32-14.21-10.2-.78,6.71,12.99,15.17s10.38,5.32,16.22,11.6Z" fill="#642869" fill-rule="evenodd"/><path d="M100.2,84.6c-.44.87-.91,1.71-1.42,2.54.49-.82.95-1.66,1.42-2.54ZM110.77,80.82c1.03-3.7,1.59-7.59,1.59-11.61,0-23.84-19.32-43.15-43.15-43.15s-43.15,19.32-43.15,43.15,19.32,43.15,43.15,43.15c10.74,0,20.55-3.92,28.1-10.41l7.57,4.95c-9.3,8.81-21.85,14.21-35.67,14.21-28.67,0-51.9-23.24-51.9-51.9s23.24-51.9,51.9-51.9,51.9,23.24,51.9,51.9c0,5.8-.96,11.38-2.72,16.59l-7.62-4.97Z" fill="#bb2e83" fill-rule="evenodd"/></g></svg>