<svg xmlns="http://www.w3.org/2000/svg" viewBox="0 0 591 400" width="591" height="400"><path fill="#000000" fill-rule="evenodd" d="M589.87 391.20 C589.87 391.20 390.43 391.29 390.43 391.29 C390.43 391.29 327.70 352.08 327.70 352.08 C293.21 381.07 248.71 398.54 200.12 398.54 C90.53 398.54 1.69 309.70 1.69 200.12 C1.69 90.53 90.53 1.69 200.12 1.69 C309.70 1.69 398.54 90.53 398.54 200.12 C398.54 217.53 396.29 234.42 392.08 250.51 C392.08 250.51 589.87 391.20 589.87 391.20 Z M200.12 30.04 C106.19 30.04 30.04 106.19 30.04 200.12 C30.04 294.05 106.19 370.20 200.12 370.20 C247.22 370.20 289.83 351.03 320.62 320.10 C320.62 320.10 344.79 335.90 344.79 335.90 C344.76 335.93 344.73 335.97 344.70 336.00 C344.70 336.00 396.60 370.13 396.60 370.13 C396.60 370.13 519.12 369.66 519.12 369.66 C519.12 369.66 397.52 285.51 397.52 285.51 C397.52 285.51 397.88 284.73 397.88 284.73 C397.88 284.73 359.47 259.64 359.47 259.64 C366.39 241.11 370.20 221.06 370.20 200.12 C370.20 106.19 294.05 30.04 200.12 30.04 Z M373.34 296.93 C417.83 326.00 463.57 355.86 463.57 355.86 C463.57 355.86 413.14 355.23 413.14 355.23 C413.14 355.23 394.69 342.95 371.31 327.39 C371.31 327.39 371.34 327.36 371.34 327.36 C371.34 327.36 286.72 270.66 286.72 270.66 C286.72 270.66 286.48 270.89 286.48 270.89 C281.42 267.52 277.82 265.12 276.29 264.09 C281.26 257.83 286.09 250.60 290.20 242.54 C290.33 242.64 294.21 245.20 300.72 249.46 C300.72 249.46 300.68 249.58 300.68 249.58 C300.68 249.58 335.52 272.22 335.52 272.22 C340.03 275.17 344.72 278.24 349.55 281.39 C349.56 281.38 349.57 281.36 349.58 281.35 C349.58 281.35 373.40 296.82 373.40 296.82 C373.38 296.86 373.36 296.90 373.34 296.93 Z M288.99 244.26 C287.74 246.75 286.37 249.16 284.93 251.53 C286.33 249.18 287.65 246.78 288.99 244.26 Z M206.25 244.25 C206.50 244.50 232.75 263.25 232.75 263.25 C232.75 263.25 266.25 257.50 266.25 257.50 C266.25 257.50 274.06 262.71 276.04 263.98 C257.84 285.59 230.58 299.33 200.12 299.33 C145.32 299.33 100.91 254.91 100.91 200.12 C100.91 145.32 145.32 100.91 200.12 100.91 C254.91 100.91 299.33 145.32 299.33 200.12 C299.33 215.23 295.94 229.56 289.90 242.38 C285.38 239.34 282.66 237.21 282.66 237.21 C282.66 237.21 276.75 205.75 276.75 205.75 C276.75 205.75 250.25 187.00 250.25 187.00 C250.25 187.00 219.00 171.50 207.50 156.75 C179.50 143.75 147.50 130.75 147.50 130.75 C147.50 130.75 133.00 138.50 133.00 138.50 C133.00 138.50 172.75 166.50 172.75 166.50 C172.75 166.50 188.25 169.00 188.25 169.00 C188.25 169.00 254.50 217.25 254.50 217.25 C254.50 217.25 249.25 217.50 249.25 217.50 C249.25 217.50 237.75 208.75 224.75 205.25 C221.75 207.75 220.00 211.00 218.00 213.50 C222.75 224.50 231.00 229.50 237.00 234.25 C238.50 236.25 239.75 239.25 239.75 239.25 C239.75 239.25 170.00 192.75 170.00 192.75 C170.00 192.75 165.50 177.50 165.50 177.50 C165.50 177.50 124.75 148.25 124.75 148.25 C124.75 148.25 122.50 167.50 122.50 167.50 C122.50 167.50 159.75 211.00 159.75 211.00 C159.75 211.00 189.50 226.25 206.25 244.25 Z M319.30 233.42 C322.26 222.82 323.85 211.66 323.85 200.12 C323.85 131.78 268.45 76.39 200.12 76.39 C131.78 76.39 76.39 131.78 76.39 200.12 C76.39 268.45 131.78 323.85 200.12 323.85 C230.90 323.85 259.04 312.60 280.69 294.00 C280.69 294.00 302.40 308.19 302.40 308.19 C275.73 333.44 239.74 348.94 200.12 348.94 C117.93 348.94 51.30 282.31 51.30 200.12 C51.30 117.93 117.93 51.30 200.12 51.30 C282.31 51.30 348.94 117.93 348.94 200.12 C348.94 216.76 346.19 232.75 341.15 247.68 C341.15 247.68 319.30 233.42 319.30 233.42 Z"/></svg>