<svg xmlns="http://www.w3.org/2000/svg" xmlns:xlink="http://www.w3.org/1999/xlink" xmlns:inkscape="http://www.inkscape.org/namespaces/inkscape" version="1.1" width="262" height="238" viewBox="3.00 3.00 261.67 238.00">
<defs>




<path id="font_4_2" d="M.23999024 .46195985C.23298645 .46195985 .22698975 .45896913 .22399903 .45295716L.009994507 .024993897C.008987427 .021987915 .0079956059 .019989014 .0079956059 .016983033 .0079956059 .009994507 .011993408 .0029907227 .017990113 0 .019989014-.0010070801 .021987915 0 .023986817 0 .0309906 0 .036987306 .0029907227 .040985109 .009994507L.102996829 .13395691H.36698915L.4249878 .009994507C.42799378 .0029907227 .43499757 0 .44099427 0 .44400025 0 .44599916-.0010070801 .44799806 0 .45399476 .0029907227 .45799256 .009994507 .45799256 .016983033 .45799256 .019989014 .45700074 .021987915 .45599366 .024993897L.25498963 .45295716C.2519989 .45896913 .24699402 .46195985 .23999024 .46195985M.23899842 .40596009 .35099793 .16796875H.11999512L.23899842 .40596009Z"/>

<path id="font_4_7" d="M.04699707 .46191407C.040985109 .46191407 .034988405 .457901 .03199768 .45291139 .0309906 .4499054 .02999878 .4468994 .02999878 .4439087 .02999878 .4409027 .0309906 .437912 .03199768 .4359131 .034988405 .42990113 .040985109 .4269104 .04699707 .4269104H.07798767V.032989503H.04699707C.040985109 .032989503 .034988405 .02999878 .03199768 .024993897 .0309906 .021987915 .02999878 .018997193 .02999878 .015991211 .02999878 .0129852299 .0309906 .009994507 .03199768 .0069885256 .034988405 .0019989014 .040985109 0 .04699707 0H.14299011C.14898682 0 .15499878 .0019989014 .1579895 .0069885256 .1599884 .009994507 .16099549 .0129852299 .16099549 .015991211 .16099549 .018997193 .1599884 .021987915 .1579895 .024993897 .15499878 .02999878 .14898682 .032989503 .14299011 .032989503H.11199951V.4269104H.14299011C.14898682 .4269104 .15499878 .42990113 .1579895 .4359131 .1599884 .437912 .16099549 .4409027 .16099549 .4439087 .16099549 .4468994 .1599884 .4499054 .1579895 .45291139 .15499878 .457901 .14898682 .46191407 .14299011 .46191407H.04699707Z"/>
<path id="font_4_10" d="M.40299989 .4560547C.3929901 .4560547 .38598634 .44804383 .38598634 .43804933V.06500244L.08198547 .4490509C.07798767 .4550476 .069992069 .4570465 .06298828 .45404054 .056991579 .45204164 .051986696 .44604493 .051986696 .43804933V.016998291C.051986696 .0079956059 .05999756 0 .068984989 0 .07798767 0 .085998538 .0079956059 .085998538 .016998291V.39004518L.3889923 .005996704C.3939972 .0009918213 .40098573-.0020141602 .4079895 0 .4149933 .0019989014 .41999818 .009994507 .41999818 .016998291V.43804933C.41999818 .44303895 .41799928 .447052 .4149933 .4510498 .4119873 .45404054 .40699769 .4560547 .40299989 .4560547Z"/>

<path id="font_4_1" d=""/>
<path id="font_4_4" d="M.050994874 .46191407V0H.18998719C.32299806 0 .43099977 .10498047 .43099977 .23394776 .43099977 .36291505 .32199098 .46191407 .18998719 .46191407H.050994874M.083999637 .4289093H.18998719C.30599977 .4289093 .39698792 .34492494 .39698792 .23394776 .39698792 .12297058 .30499269 .033996583 .18998719 .033996583H.084991458C.084991458 .04899597 .083999637 .12997437 .083999637 .22595215V.37091065 .42190553 .4289093Z"/>





<path id="font_4_9" d="M.068984989 .4580078C.054992677 .4580078 .051986696 .44200135 .051986696 .43899537V.016998291C.051986696 .010986328 .054992677 .004989624 .05999756 .0019989014 .06298828 .0009918213 .06599426 0 .068984989 0 .070999149 0 .07398987 .0009918213 .07699585 .0019989014 .08198547 .004989624 .084991458 .010986328 .084991458 .016998291V.36799623L.2689972 .008987427C.27198792 .0039978029 .2769928 0 .28399659 0 .2899933 0 .29599 .0039978029 .29899598 .008987427L.48199464 .36799623V.016998291C.48199464 .010986328 .4850006 .004989624 .4909973 .0019989014 .49299623 .0009918213 .49598695 0 .49899293 0 .5019989 0 .5049896 .0009918213 .5079956 .0019989014 .5130005 .004989624 .5159912 .010986328 .5159912 .016998291V.43899537C.5159912 .44900514 .5099945 .4580078 .49899293 .4580078 .49299623 .4580078 .4869995 .45199586 .48399354 .44599916L.28399659 .054000856 .083999637 .44599916C.08099365 .45199586 .07499695 .4580078 .068984989 .4580078Z"/>







</defs>
<g>
<g>
<path transform="matrix(1,0,0,-1,-42.24,1530.08)" d="M92.226 1316.904H102.961V1360.612H92.226Z" fill="#fbab18"/>
<path transform="matrix(1,0,0,-1,220.98339,169.46826)" d="M0 0V-18.868L-19.773 0-19.937-.172V0H-30.672V-43.708H-19.937V-14.682L0-33.707V-43.708H10.735V0Z" fill="#fbab18"/>
<path transform="matrix(1,0,0,-1,6.2781984,180.20349)" d="M0 0H14.569V-32.973H25.305V0H39.874V10.735H0Z" fill="#fbab18"/>
<path transform="matrix(1,0,0,-1,83.725498,196.27759)" d="M0 0H8.435V-3.833L6.239-6.134H-4.436L-7.668-3.05V13.359L-5.049 16.103H18.403V26.838H-9.65L-18.403 17.637V-7.668L-8.76-16.87H10.817L19.592-7.668V10.735H0Z" fill="#fbab18"/>
<path transform="matrix(1,0,0,-1,175.10979,200.1399)" d="M0 0-2.196-2.301H-12.87L-16.103 .784V17.192L-13.484 19.936H-2.207L0 17.623ZM-18.085 30.672-26.838 21.493V-3.834L-17.195-13.036H2.382L11.157-3.834V21.47L2.382 30.672Z" fill="#fbab18"/>
<path transform="matrix(1,0,0,-1,133.56769,188.71314)" d="M0 0H-13.451L-15.867 2.306V6.209L-13.671 8.51H0ZM0 19.245H-18.266L-27.024 10.067-27.023 10.066H-27.024V-1.869-1.886L-19.274-9.282-26.822-24.344-26.584-24.463H-14.874L-7.995-10.735H0V-24.463H10.735V19.245H.645Z" fill="#fbab18"/>
<path transform="matrix(1,0,0,-1,14.920197,227.40283)" d="M0 0V1.911H-8.225V-10.44H0V-8.53H-6.112V-5.03H-.254V-3.119H-6.112V0Z" fill="#fbab18"/>
<path transform="matrix(1,0,0,-1,36.8026,225.49231)" d="M0 0V-9.464L-5.792 0H-8.555V-12.351H-6.442V-2.939L-.658-12.351H2.113V0Z" fill="#fbab18"/>
<path transform="matrix(1,0,0,-1,51.727796,225.49231)" d="M0 0V-2.02H3.762V-12.351H5.875V-2.02H9.603V0Z" fill="#fbab18"/>
<path transform="matrix(1,0,0,-1,81.903,227.40283)" d="M0 0V1.911H-8.225V-10.44H0V-8.53H-6.112V-5.03H-.254V-3.119H-6.112V0Z" fill="#fbab18"/>
<g>
<path transform="matrix(1,0,0,-1,97.343799,227.40283)" d="M0 0H3.804C4.788 0 5.11-.207 5.215-.33 5.307-.439 5.52-.828 5.52-2.105 5.52-2.799 5.383-3.281 5.124-3.497 4.929-3.66 4.464-3.855 3.356-3.855H0ZM6.44-4.834C6.717-4.674 6.936-4.474 7.094-4.234 7.417-3.742 7.574-2.94 7.574-1.784 7.574-.445 7.285 .485 6.69 1.061 6.099 1.633 5.149 1.911 3.787 1.911H-2.113V-10.44H0V-5.765H3.956C4.621-5.765 5.3-5.957 5.3-7.38V-10.44H7.414V-7.084C7.414-5.874 6.993-5.199 6.44-4.834" fill="#fbab18"/>
<path transform="matrix(1,0,0,-1,125.895999,229.5669)" d="M0 0C0-1.064-.237-1.395-.379-1.498-.542-1.617-1.051-1.818-2.621-1.818H-5.3V2.164H-2.213L-1.708 2.156C-.606 2.156-.332 1.928-.274 1.859-.192 1.759 0 1.378 0 0M1.233 3.195C.675 3.787-.293 4.075-1.725 4.075H-7.414V-8.276H-5.3V-3.728H-2.369L-1.868-3.72C-.387-3.72 .614-3.447 1.191-2.886 1.772-2.323 2.054-1.345 2.054 .101 2.054 1.598 1.786 2.609 1.233 3.195" fill="#fbab18"/>
<path transform="matrix(1,0,0,-1,143.27269,227.40283)" d="M0 0H3.804C4.788 0 5.11-.207 5.215-.33 5.307-.439 5.52-.828 5.52-2.105 5.52-2.799 5.383-3.281 5.124-3.497 4.929-3.66 4.464-3.855 3.356-3.855H0ZM6.44-4.834C6.717-4.674 6.936-4.474 7.094-4.234 7.417-3.742 7.574-2.94 7.574-1.784 7.574-.445 7.285 .485 6.69 1.061 6.099 1.633 5.149 1.911 3.787 1.911H-2.113V-10.44H0V-5.765H3.956C4.621-5.765 5.3-5.957 5.3-7.38V-10.44H7.414V-7.084C7.414-5.874 6.993-5.199 6.44-4.834" fill="#fbab18"/>
<path transform="matrix(1,0,0,-1,-42.24,1530.08)" d="M206.651 1292.237H208.764V1304.588H206.651Z" fill="#fbab18"/>
<path transform="matrix(1,0,0,-1,188.44809,231.31739)" d="M0 0C-.568 .44-1.731 .684-3.657 .769-5.688 .866-6.131 1.06-6.219 1.118-6.265 1.149-6.5 1.358-6.5 2.477-6.5 2.94-6.431 3.534-6.103 3.733-5.919 3.845-5.357 4.033-3.676 4.033-2.25 4.033-1.848 3.833-1.742 3.747-1.648 3.67-1.428 3.375-1.428 2.292V1.886H.677V2.292C.677 3.784 .369 4.75-.265 5.245-.869 5.715-2.053 5.943-3.888 5.943-5.699 5.943-6.894 5.7-7.542 5.199-8.223 4.674-8.554 3.709-8.554 2.249-8.554 .143-7.409-1.049-5.236-1.199L-2.602-1.335C-1.733-1.387-1.47-1.562-1.398-1.634-1.328-1.704-1.166-1.954-1.166-2.755-1.166-4.078-1.433-4.375-1.515-4.435-1.637-4.525-2.129-4.733-4.031-4.733-5.712-4.733-6.12-4.513-6.205-4.445-6.28-4.386-6.525-4.094-6.525-2.84V-2.147H-8.637L-8.622-3.068C-8.622-4.489-8.3-5.426-7.638-5.931-7.01-6.41-5.844-6.644-4.074-6.644-2.049-6.644-.754-6.413-.116-5.938 .56-5.436 .889-4.427 .889-2.857 .889-1.398 .598-.463 0 0" fill="#fbab18"/>
<path transform="matrix(1,0,0,-1,210.3147,227.40283)" d="M0 0V1.911H-8.225V-10.44H0V-8.53H-6.112V-5.03H-.254V-3.119H-6.112V0Z" fill="#fbab18"/>
<path transform="matrix(1,0,0,-1,231.6888,231.31739)" d="M0 0C-.569 .44-1.731 .684-3.657 .769-5.688 .866-6.131 1.06-6.219 1.118-6.265 1.149-6.5 1.358-6.5 2.477-6.5 2.94-6.431 3.534-6.103 3.733-5.919 3.845-5.357 4.033-3.676 4.033-2.25 4.033-1.848 3.833-1.742 3.747-1.648 3.67-1.428 3.375-1.428 2.292V1.886H.677V2.292C.677 3.784 .369 4.75-.265 5.245-.869 5.715-2.053 5.943-3.888 5.943-5.699 5.943-6.894 5.7-7.542 5.199-8.223 4.674-8.554 3.709-8.554 2.249-8.554 .143-7.409-1.049-5.236-1.199L-2.602-1.335C-1.733-1.387-1.47-1.562-1.398-1.634-1.328-1.704-1.166-1.954-1.166-2.755-1.166-4.078-1.433-4.375-1.515-4.435-1.637-4.525-2.129-4.733-4.031-4.733-5.712-4.733-6.12-4.513-6.205-4.445-6.28-4.386-6.525-4.094-6.525-2.84V-2.147H-8.637L-8.622-3.068C-8.622-4.489-8.3-5.426-7.638-5.931-7.01-6.41-5.844-6.644-4.074-6.644-2.049-6.644-.754-6.413-.116-5.938 .56-5.436 .889-4.427 .889-2.857 .889-1.398 .598-.463 0 0" fill="#fbab18"/>
<path transform="matrix(1,0,0,-1,158.1055,158.73291)" d="M0 0H9.202 18.403L9.202 22.237Z" fill="#fbab18"/>
<path transform="matrix(1,0,0,-1,123.57539,98.67737)" d="M0 0-51.49 64.446-2.544-60.056H23.028L43.335-10.98 0 92.388Z" fill="#fbab18"/>
<path transform="matrix(1,0,0,-1,210.24559,98.67737)" d="M0 0V92.388L-43.335-10.98-23.028-60.056H2.544L51.49 64.446Z" fill="#fbab18"/>
</g>
</g>
</g>
</svg>