<?xml version="1.0" encoding="UTF-8"?><svg id="b" xmlns="http://www.w3.org/2000/svg" viewBox="0 0 172.77 167.69"><g id="c"><path d="M166.6,135.75h-21.86l-8.99-6.17,18.51-18.51,18.51,18.51-6.17,6.17ZM12.34,135.75L0,132.14v-5.62L80.22,49.36h12.34l39.81,40.28v6.07l-39.81,40.04H12.34ZM3.06,33.88l15.45-15.37V0h24.13l19.06,18.51v15.59L2.84,93.26l.23-59.38Z" fill="#3a4e35" fill-rule="evenodd"/><g id="d"><path d="M52.04,144.79h-22.9v22.9h8.33v-16.65h13.64l-1.15,1.17v3l2.08,2.08h4.16l2.08-2.08v-4.16c0-4.16-2.08-6.24-6.24-6.24ZM93.67,144.79h-23.75l-.07,6.24h21.74v10.41h-12.49l-2.08-2.08h10.41l2.08-2.08v-2.08l-2.08-2.08h-10.41c-4.16,0-7.24,2.33-7.24,5.33v3c0,2.08.99,6.24,7.24,6.24h22.9v-16.65c0-4.16-2.08-6.24-6.24-6.24ZM62.45,144.79l-2.08,2.08v20.82h8.33v-20.82l-2.08-2.08h-4.16ZM170.69,151.04l2.08-2.08v-2.08l-2.08-2.08h-20.82c-5.09,0-8.33,3.43-8.33,5.28v4.19c0,2.33,2.08,5.1,6.24,5.1h16.65v2.08h-23.96l.07,6.24h25.97c4.16,0,6.24-4.99,6.24-7.11v-1.05s0,0,0,0v-1c0-2.06-2.08-5.4-6.24-5.4h-16.65v-2.08h20.82ZM0,146.88v2.08l2.08,2.08h8.33v16.65h8.33v-16.65h9.31l.07-6.24H2.08l-2.08,2.08ZM122.81,156.32l-6.24,5.12,5.38,4.16-.07,2.08h8.37l-.07-5.26-7.37-6.11ZM133.22,144.79l-2.08,2.08v20.82h8.33v-20.82l-2.08-2.08h-4.16ZM122.77,144.79l-11.6,9.19h-1.85l.07-9.19h-8.31l.07,22.9h8.17l.14-6.24h5.03l15.84-12.49v-2.01l-2.2-2.15h-5.35Z" fill="#6a9062" fill-rule="evenodd"/></g></g></svg>