<svg xmlns="http://www.w3.org/2000/svg" viewBox="0 0 1627 613" width="1627" height="613"><path fill="#000000" fill-rule="evenodd" d="M30.29 58.29 C30.29 58.29 668.08 1.60 668.08 1.60 C668.08 1.60 724.78 15.77 795.64 15.77 C866.51 15.77 1277.53 15.77 1277.53 15.77 C1277.53 15.77 1376.74 29.94 1376.74 29.94 C1376.74 29.94 1461.78 100.81 1461.78 100.81 C1461.78 100.81 1461.78 143.33 1461.78 143.33 C1461.78 143.33 1440.88 164.94 1440.88 164.94 C1440.88 164.94 1475.96 200.02 1475.96 200.02 C1475.96 200.02 1561.00 214.20 1575.17 228.37 C1589.34 242.54 1625.13 286.30 1625.13 286.30 C1625.13 286.30 1625.66 326.34 1625.66 326.34 C1625.66 326.34 1589.34 370.10 1575.17 384.27 C1561.00 398.45 1491.37 400.22 1477.20 400.22 C1475.96 398.45 1438.93 448.94 1438.93 448.94 C1438.93 448.94 1461.78 469.31 1461.78 469.31 C1461.78 469.31 1461.78 497.66 1461.78 497.66 C1461.78 497.66 1376.74 582.70 1376.74 582.70 C1376.74 582.70 1289.22 597.41 1260.88 597.41 C1232.53 597.41 795.64 596.87 795.64 596.87 C795.64 596.87 710.60 596.87 668.08 611.05 C668.08 611.05 16.12 554.35 16.12 554.35 C16.12 554.35 1.94 483.49 1.94 483.49 C1.94 483.49 1.94 469.31 1.94 469.31 C1.94 469.31 16.12 455.14 16.12 455.14 C16.12 455.14 441.31 469.31 441.31 469.31 C441.31 469.31 454.92 475.25 454.92 475.25 C454.92 475.25 668.08 483.49 668.08 483.49 C668.08 483.49 675.49 474.88 675.49 474.88 C675.49 474.88 724.78 497.66 724.78 497.66 C724.78 497.66 1149.97 497.66 1149.97 497.66 C1149.97 497.66 1149.97 497.66 1149.97 497.66 C1149.97 497.66 1156.97 492.49 1156.97 492.49 C1156.97 492.49 1140.80 492.49 1140.80 492.49 C1140.80 492.49 1139.80 469.31 1139.80 469.31 C1139.80 469.31 1168.15 470.31 1168.15 470.31 C1168.15 470.31 1178.32 455.14 1178.32 455.14 C1178.32 455.14 1178.32 426.79 1178.32 426.79 C1178.32 426.79 1107.45 412.62 1107.45 412.62 C1107.45 412.62 923.20 398.45 923.20 398.45 C923.20 398.45 880.68 440.97 880.68 440.97 C880.68 440.97 370.45 341.75 370.45 341.75 C370.45 341.75 363.27 300.24 363.27 300.24 C363.27 300.24 370.45 259.89 370.45 259.89 C370.45 259.89 880.68 171.68 880.68 171.68 C880.68 171.68 923.20 214.20 923.20 214.20 C923.20 214.20 1107.45 185.85 1107.45 185.85 C1107.45 185.85 1178.32 171.68 1178.32 171.68 C1178.32 171.68 1178.32 143.33 1178.32 143.33 C1178.32 143.33 1142.80 142.33 1142.80 142.33 C1142.80 142.33 1143.80 121.98 1143.80 121.98 C1143.80 121.98 1157.15 121.98 1157.15 121.98 C1157.15 121.98 1149.97 114.98 1149.97 114.98 C1149.97 114.98 724.78 114.98 724.78 114.98 C724.78 114.98 675.26 134.16 675.26 134.16 C675.26 134.16 665.08 123.16 665.08 123.16 C665.08 123.16 455.49 129.16 455.49 129.16 C455.49 129.16 455.49 129.16 455.49 129.16 C455.49 129.16 449.31 137.33 449.31 137.33 C449.31 137.33 16.12 143.33 16.12 143.33 C16.12 143.33 1.94 129.16 1.94 129.16 C1.94 129.16 1.94 114.98 1.94 114.98 C1.94 114.98 30.29 58.29 30.29 58.29 Z"/></svg>