<svg xmlns="http://www.w3.org/2000/svg" viewBox="0 0 454 357" width="454" height="357"><path fill="#000000" fill-rule="evenodd" d="M436.74 355.83 C436.74 355.83 379.67 355.83 379.67 355.83 C379.67 355.83 356.20 339.72 356.20 339.72 C356.20 339.72 404.52 291.40 404.52 291.40 C404.52 291.40 452.84 339.72 452.84 339.72 C452.84 339.72 436.74 355.83 436.74 355.83 Z M34.07 355.83 C34.07 355.83 1.85 346.41 1.85 346.41 C1.85 346.41 1.85 331.74 1.85 331.74 C1.85 331.74 211.24 130.33 211.24 130.33 C211.24 130.33 243.46 130.33 243.46 130.33 C243.46 130.33 347.39 235.47 347.39 235.47 C347.39 235.47 347.39 251.32 347.39 251.32 C347.39 251.32 243.46 355.83 243.46 355.83 C243.46 355.83 34.07 355.83 34.07 355.83 Z M9.85 89.91 C9.85 89.91 50.17 49.80 50.17 49.80 C50.17 49.80 50.17 1.48 50.17 1.48 C50.17 1.48 113.17 1.48 113.17 1.48 C113.17 1.48 162.92 49.80 162.92 49.80 C162.92 49.80 162.92 90.49 162.92 90.49 C162.92 90.49 9.26 244.91 9.26 244.91 C9.26 244.91 9.85 89.91 9.85 89.91 Z"/></svg>