<svg xmlns="http://www.w3.org/2000/svg" xmlns:xlink="http://www.w3.org/1999/xlink" xmlns:inkscape="http://www.inkscape.org/namespaces/inkscape" version="1.1" width="123" height="140" viewBox="-1.67 -2.00 122.67 140.33">
<g>
<path d="M59.711 2.25 2.496 35.281V101.348L59.711 134.379 116.926 101.348V35.281ZM59.711 2.25" fill="#cbe5ee"/>
<path d="M28.859 58.031C23.18 58.031 18.578 62.637 18.578 68.316 18.578 73.996 23.18 78.598 28.859 78.598 34.539 78.598 39.145 73.996 39.145 68.316 39.145 62.637 34.539 58.031 28.859 58.031" fill="#31b4d0"/>
<path d="M49.43 58.031C43.75 58.031 39.145 62.637 39.145 68.316 39.145 73.996 43.75 78.598 49.43 78.598 55.109 78.598 59.711 73.996 59.711 68.316 59.711 62.637 55.109 58.031 49.43 58.031" fill="#31b4d0"/>
<path d="M69.996 58.031C64.316 58.031 59.711 62.637 59.711 68.316 59.711 73.996 64.316 78.598 69.996 78.598 75.676 78.598 80.281 73.996 80.281 68.316 80.281 62.637 75.676 58.031 69.996 58.031" fill="#31b4d0"/>
<path d="M90.562 58.031C84.883 58.031 80.281 62.637 80.281 68.316 80.281 73.996 84.883 78.598 90.562 78.598 96.242 78.598 100.848 73.996 100.848 68.316 100.848 62.637 96.242 58.031 90.562 58.031" fill="#31b4d0"/>
</g>
</svg>