<svg xmlns="http://www.w3.org/2000/svg" xmlns:xlink="http://www.w3.org/1999/xlink" xmlns:inkscape="http://www.inkscape.org/namespaces/inkscape" version="1.1" width="123" height="140" viewBox="-1.67 -2.00 122.67 140.33">
<g>
<path d="M59.711 2.25 2.496 35.281V101.348L59.711 134.379 116.926 101.348V35.281ZM59.711 2.25" fill="#cbe5ee"/>
<path d="M39.312 70.637H33.996L46.199 91.914H57.434V87.273H48.859ZM39.312 70.637" fill="#31b4d0"/>
<path d="M48.859 49.359H57.434V44.715H46.199L33.996 65.996H39.312ZM48.859 49.359" fill="#31b4d0"/>
<path d="M80.152 65.996H85.473L73.27 44.715H62.078V49.359H70.609ZM80.152 65.996" fill="#31b4d0"/>
<path d="M80.152 70.637 70.609 87.273H62.078V91.914H73.27L85.473 70.637ZM80.152 70.637" fill="#31b4d0"/>
<path d="M51.312 53.98 42.883 68.297 51.312 82.609H68.176L76.605 68.297 68.176 53.98ZM51.312 53.98" fill="#31b4d0"/>
</g>
</svg>