<svg xmlns="http://www.w3.org/2000/svg" xmlns:xlink="http://www.w3.org/1999/xlink" xmlns:inkscape="http://www.inkscape.org/namespaces/inkscape" version="1.1" width="122" height="139" viewBox="-1.67 -1.67 122.33 139.00">
<g>
<path d="M58.555 2.66 3.762 34.297C3.043 34.707 2.602 35.473 2.602 36.301V99.57C2.602 100.398 3.043 101.164 3.762 101.578L58.555 133.211C59.27 133.625 60.152 133.625 60.871 133.211L115.664 101.578C116.379 101.164 116.82 100.398 116.82 99.57V36.301C116.82 35.473 116.379 34.707 115.664 34.297L60.871 2.66C60.152 2.246 59.27 2.246 58.555 2.66" fill="#cbe5ee"/>
<path d="M81.977 63.301C81.41 63.301 80.863 63.094 80.441 62.719L59.711 44.379 38.98 62.719C38.559 63.094 38.012 63.301 37.445 63.301H21.648C20.367 63.301 19.328 64.34 19.328 65.621 19.328 66.898 20.367 67.938 21.645 67.938L39.199 67.941C39.766 67.941 40.309 67.734 40.734 67.359L58.176 51.941C59.055 51.164 60.371 51.164 61.246 51.941L78.691 67.359C79.113 67.734 79.66 67.941 80.227 67.941L97.777 67.938C99.055 67.938 100.094 66.898 100.094 65.621 100.094 64.34 99.055 63.301 97.777 63.301ZM81.977 63.301" fill="#31b4d0"/>
<path d="M59.711 57.262 38.984 75.605C38.559 75.98 38.012 76.188 37.445 76.188H21.648C20.367 76.188 19.328 77.223 19.328 78.504 19.328 79.781 20.367 80.82 21.648 80.82L39.199 80.824C39.762 80.824 40.309 80.617 40.734 80.242L58.176 64.824C59.055 64.051 60.371 64.051 61.246 64.824L78.691 80.242C79.113 80.617 79.66 80.824 80.227 80.824L97.777 80.82C99.059 80.82 100.094 79.781 100.094 78.504 100.094 77.223 99.055 76.188 97.777 76.188H81.977C81.41 76.188 80.863 75.98 80.441 75.605ZM59.711 57.262" fill="#31b4d0"/>
</g>
</svg>