<svg xmlns="http://www.w3.org/2000/svg" xmlns:xlink="http://www.w3.org/1999/xlink" xmlns:inkscape="http://www.inkscape.org/namespaces/inkscape" version="1.1" width="159" height="182" viewBox="2.67 3.00 159.00 182.00">
<defs>




<path id="font_4_2" d="M.23999024 .46195985C.23298645 .46195985 .22698975 .45896913 .22399903 .45295716L.009994507 .024993897C.008987427 .021987915 .0079956059 .019989014 .0079956059 .016983033 .0079956059 .009994507 .011993408 .0029907227 .017990113 0 .019989014-.0010070801 .021987915 0 .023986817 0 .0309906 0 .036987306 .0029907227 .040985109 .009994507L.102996829 .13395691H.36698915L.4249878 .009994507C.42799378 .0029907227 .43499757 0 .44099427 0 .44400025 0 .44599916-.0010070801 .44799806 0 .45399476 .0029907227 .45799256 .009994507 .45799256 .016983033 .45799256 .019989014 .45700074 .021987915 .45599366 .024993897L.25498963 .45295716C.2519989 .45896913 .24699402 .46195985 .23999024 .46195985M.23899842 .40596009 .35099793 .16796875H.11999512L.23899842 .40596009Z"/>

<path id="font_4_7" d="M.04699707 .46191407C.040985109 .46191407 .034988405 .457901 .03199768 .45291139 .0309906 .4499054 .02999878 .4468994 .02999878 .4439087 .02999878 .4409027 .0309906 .437912 .03199768 .4359131 .034988405 .42990113 .040985109 .4269104 .04699707 .4269104H.07798767V.032989503H.04699707C.040985109 .032989503 .034988405 .02999878 .03199768 .024993897 .0309906 .021987915 .02999878 .018997193 .02999878 .015991211 .02999878 .0129852299 .0309906 .009994507 .03199768 .0069885256 .034988405 .0019989014 .040985109 0 .04699707 0H.14299011C.14898682 0 .15499878 .0019989014 .1579895 .0069885256 .1599884 .009994507 .16099549 .0129852299 .16099549 .015991211 .16099549 .018997193 .1599884 .021987915 .1579895 .024993897 .15499878 .02999878 .14898682 .032989503 .14299011 .032989503H.11199951V.4269104H.14299011C.14898682 .4269104 .15499878 .42990113 .1579895 .4359131 .1599884 .437912 .16099549 .4409027 .16099549 .4439087 .16099549 .4468994 .1599884 .4499054 .1579895 .45291139 .15499878 .457901 .14898682 .46191407 .14299011 .46191407H.04699707Z"/>
<path id="font_4_10" d="M.40299989 .4560547C.3929901 .4560547 .38598634 .44804383 .38598634 .43804933V.06500244L.08198547 .4490509C.07798767 .4550476 .069992069 .4570465 .06298828 .45404054 .056991579 .45204164 .051986696 .44604493 .051986696 .43804933V.016998291C.051986696 .0079956059 .05999756 0 .068984989 0 .07798767 0 .085998538 .0079956059 .085998538 .016998291V.39004518L.3889923 .005996704C.3939972 .0009918213 .40098573-.0020141602 .4079895 0 .4149933 .0019989014 .41999818 .009994507 .41999818 .016998291V.43804933C.41999818 .44303895 .41799928 .447052 .4149933 .4510498 .4119873 .45404054 .40699769 .4560547 .40299989 .4560547Z"/>

<path id="font_4_1" d=""/>
<path id="font_4_4" d="M.050994874 .46191407V0H.18998719C.32299806 0 .43099977 .10498047 .43099977 .23394776 .43099977 .36291505 .32199098 .46191407 .18998719 .46191407H.050994874M.083999637 .4289093H.18998719C.30599977 .4289093 .39698792 .34492494 .39698792 .23394776 .39698792 .12297058 .30499269 .033996583 .18998719 .033996583H.084991458C.084991458 .04899597 .083999637 .12997437 .083999637 .22595215V.37091065 .42190553 .4289093Z"/>





<path id="font_4_9" d="M.068984989 .4580078C.054992677 .4580078 .051986696 .44200135 .051986696 .43899537V.016998291C.051986696 .010986328 .054992677 .004989624 .05999756 .0019989014 .06298828 .0009918213 .06599426 0 .068984989 0 .070999149 0 .07398987 .0009918213 .07699585 .0019989014 .08198547 .004989624 .084991458 .010986328 .084991458 .016998291V.36799623L.2689972 .008987427C.27198792 .0039978029 .2769928 0 .28399659 0 .2899933 0 .29599 .0039978029 .29899598 .008987427L.48199464 .36799623V.016998291C.48199464 .010986328 .4850006 .004989624 .4909973 .0019989014 .49299623 .0009918213 .49598695 0 .49899293 0 .5019989 0 .5049896 .0009918213 .5079956 .0019989014 .5130005 .004989624 .5159912 .010986328 .5159912 .016998291V.43899537C.5159912 .44900514 .5099945 .4580078 .49899293 .4580078 .49299623 .4580078 .4869995 .45199586 .48399354 .44599916L.28399659 .054000856 .083999637 .44599916C.08099365 .45199586 .07499695 .4580078 .068984989 .4580078Z"/>







</defs>
<g>
<g>
<g>










<path transform="matrix(1,0,0,-1,-1702.5349,1551.9179)" d="M655.578 1815.608H664.677V1819.641H655.578ZM653.611 1807.443V1819.641L655.578 1821.707H664.677L666.645 1819.641V1807.443H664.677V1813.542H655.578V1807.443Z" fill="#f8992c"/>

</g>
</g>
<g>

<g>




























<path transform="matrix(1,0,0,-1,82.28601,6)" d="M0 0-76.286-44.044V-132.131L0-176.174 76.286-132.131V-44.043Z" fill="#cbe5ee"/>
<path transform="matrix(1,0,0,-1,92.42493,85.37732)" d="M0 0-10.139-5.854-20.278 0V11.708L-10.139 17.561 0 11.707ZM4.451 14.277-10.139 22.701-24.729 14.277V-2.57L-10.139-10.993 4.451-2.57Z" fill="#31b4d0"/>
<path transform="matrix(1,0,0,-1,74.94873,114.50452)" d="M0 0-10.139-5.854-20.278 0V11.708L-10.139 17.561 0 11.708ZM-24.729 14.277V-2.57L-10.139-10.993 4.451-2.57V14.277L-10.139 22.701Z" fill="#31b4d0"/>
<path transform="matrix(1,0,0,-1,109.901248,114.50452)" d="M0 0-10.139-5.854-20.278 0V11.708L-10.139 17.561 0 11.708ZM-10.139 22.701-24.729 14.277V-2.57L-10.139-10.993 4.451-2.57V14.277Z" fill="#31b4d0"/>


</g>
</g>
</g>
</svg>