<svg xmlns="http://www.w3.org/2000/svg" xmlns:xlink="http://www.w3.org/1999/xlink" xmlns:inkscape="http://www.inkscape.org/namespaces/inkscape" version="1.1" width="123" height="140" viewBox="-1.67 -2.00 122.67 140.33">
<g>
<path d="M59.711 2.25 2.496 35.281V101.348L59.711 134.379 116.926 101.348V35.281ZM59.711 2.25" fill="#cbe5ee"/>
<path d="M82.805 79.152 80.543 83.207 94.055 90.75 96.32 86.695ZM82.805 79.152" fill="#31b4d0"/>
<path d="M70.508 87.223H48.754L37.879 68.266 48.754 49.312H70.508L81.383 68.266ZM73.164 44.668H46.098L32.562 68.266 46.094 91.867H73.164L86.703 68.27ZM73.164 44.668" fill="#31b4d0"/>
<path d="M68.062 53.953H51.199L42.77 68.266 51.199 82.582H68.062L76.492 68.266ZM68.062 53.953" fill="#31b4d0"/>
<path d="M57.332 26.918H61.973V42.395H57.332Z" fill="#31b4d0"/>
<path d="M23.184 87.148 25.555 91.141 38.863 83.246 36.496 79.254ZM23.184 87.148" fill="#31b4d0"/>
</g>
</svg>