<svg xmlns="http://www.w3.org/2000/svg" xmlns:xlink="http://www.w3.org/1999/xlink" xmlns:inkscape="http://www.inkscape.org/namespaces/inkscape" version="1.1" width="123" height="140" viewBox="-1.67 -2.00 122.67 140.33">
<g>
<path d="M59.711 2.25 2.496 35.281V101.348L59.711 134.379 116.926 101.348V35.281ZM59.711 2.25" fill="#cbe5ee"/>
<path d="M37.266 64.074V57.762L54.883 47.719V47.727L59.738 44.957 64.594 47.727V47.719L82.211 57.762 82.215 64.074 64.676 53.949V53.953L59.738 51.141 54.805 53.953V53.949ZM87.07 72.484 87.066 54.941 59.738 39.359 32.41 54.941 32.406 72.484 59.738 56.707ZM87.07 72.484" fill="#31b4d0"/>
<path d="M64.676 76.176V76.18L59.738 73.367 54.805 76.18V76.176L37.266 86.297V79.988L54.883 69.945V69.949L59.738 67.184 64.594 69.949V69.945L82.211 79.988 82.215 86.297ZM59.738 61.586 32.414 77.168 32.406 94.711 59.738 78.934 87.07 94.711 87.066 77.168ZM59.738 61.586" fill="#31b4d0"/>
</g>
</svg>