<?xml version="1.0" encoding="UTF-8"?><svg id="b" xmlns="http://www.w3.org/2000/svg" viewBox="0 0 1870.61 1322.97"><g id="c"><path d="M410.07,821.91c3.88,6.35,9.39,9.99,15.13,9.99h573.36c5.04,0,10.63-4.29,14.96-11.47,6.4-10.62,8.29-24.88,4.29-32.46l-240.21-451.12c-6.01-11.4-17.9-18.46-31.03-18.46h-78.38c-7.16,0-17.73,1.98-26.75,19.08l-231.48,447.49c-7.55,14.7-4.89,28.73.13,36.95Z" fill="#c1131e"/><path d="M1519.38,896.83L1079.32,44.84c-14.22-27.54-42.63-44.84-73.62-44.84h-140.11c-30.99,0-59.4,17.3-73.62,44.84l-129.59,250.89c2.01-.23,3.96-.32,5.8-.32h78.38c21.69,0,41.37,11.76,51.36,30.68l240.23,451.15c6.57,12.44,7.59,34.3-4.94,55.07-8.66,14.36-21.29,22.6-34.66,22.6H425.2c-13.73,0-26.73-7.85-34.76-21.01-1.14-1.86-2.15-3.79-3.05-5.77l-35.49,68.71c-19.55,37.85,7.93,82.97,50.53,82.97h1066.42c42.61,0,70.08-45.12,50.53-82.97Z" fill="#081f5b"/><path d="M9.88,1266.12h38.27c9.05,0,15.59,1.21,19.61,3.62s6.02,6.92,6.02,13.52v2.08c0,.72-.08,1.44-.24,2.16-.16,1.55-.57,3.08-1.24,4.58-.67,1.5-1.83,2.75-3.48,3.74-.94.56-1.99,1-3.13,1.33-1.14.33-2.3.61-3.48.83-.47.06-.93.12-1.36.21-.43.08-.89.15-1.36.21v.33c4.65.22,8.03,1.25,10.16,3.08,2.13,1.83,3.19,4.38,3.19,7.66v12.15h-15.24v-10.07l.12-1.25c-.08-2.83-1.2-4.74-3.37-5.74-2.17-1-5.02-1.5-8.56-1.5h-21.26v18.56h-14.65v-55.52ZM45.78,1294.17c4.64,0,7.89-.65,9.74-1.96,1.85-1.3,2.78-3.51,2.78-6.62,0-3.44-.53-6.01-1.59-7.7-1.06-1.69-4.39-2.54-9.98-2.54h-22.2v18.81h21.26Z" stroke="#000" stroke-miterlimit="10" stroke-width="2"/><path d="M132.36,1289.43h36.97v7.74h-36.97v15.73h39.21v8.74h-53.86v-55.52h53.5v8.82h-38.86v14.48Z" stroke="#000" stroke-miterlimit="10" stroke-width="2"/><path d="M261.92,1282.35c0-3.27-.94-5.46-2.83-6.58-1.89-1.11-5.16-1.66-9.8-1.66h-6.44c-.83,0-1.64.03-2.42.08-1.26.06-2.52.18-3.78.37-1.26.19-2.36.49-3.31.87-.95.44-1.65,1.03-2.13,1.75-.47.72-.83,1.5-1.06,2.33,0,.33-.02.65-.06.96-.04.31-.06.6-.06.87,0,2.78.77,4.68,2.3,5.7,1.54,1.03,4.35,1.62,8.44,1.79.39,0,.77.01,1.12.04.35.03.73.04,1.12.04,1.02.06,2.03.1,3.01.12.98.03,1.95.04,2.89.04,7.72.17,14.53.93,20.43,2.29,5.91,1.36,8.86,5.73,8.86,13.11,0,4.72-1.06,8.59-3.19,11.61-2.13,3.02-7.05,4.81-14.76,5.37-1.26.06-2.5.1-3.72.12-1.22.03-2.42.07-3.6.12-1.26.05-2.5.08-3.72.08h-3.72c-9.06,0-16.44-.71-22.15-2.12-5.71-1.41-8.56-5.95-8.56-13.61v-.54c0-.19.04-.37.12-.54v-1.08h14.29c0,2.55.49,4.74,1.48,6.58.98,1.83,3.68,2.77,8.09,2.83,1.89.06,3.78.08,5.67.08h5.67c4.65,0,8.03-.48,10.16-1.46,2.13-.97,3.19-3.15,3.19-6.53,0-3.66-1.36-5.83-4.07-6.49-2.72-.67-6.2-1.03-10.45-1.08h-2.36c-.79,0-1.61-.03-2.48-.08-.4,0-.81-.01-1.24-.04-.43-.03-.85-.07-1.24-.12-8.35-.39-14.86-1.37-19.55-2.95-4.69-1.58-7.03-6.03-7.03-13.36,0-4.69,1.42-8.29,4.25-10.8,2.83-2.51,7.68-3.96,14.53-4.35,2.05-.11,4.11-.19,6.2-.25,2.09-.05,4.15-.08,6.2-.08,8.11,0,15.16.61,21.14,1.84,5.98,1.23,8.98,5.41,8.98,12.56v2.16h-14.41Z" stroke="#000" stroke-miterlimit="10" stroke-width="2"/><path d="M335.27,1289.43h36.97v7.74h-36.97v15.73h39.21v8.74h-53.86v-55.52h53.5v8.82h-38.86v14.48Z" stroke="#000" stroke-miterlimit="10" stroke-width="2"/><path d="M434.12,1310.99l-4.84,10.65h-15.71l26.22-55.52h22.21l26.69,55.52h-15.36l-5.08-10.65h-34.13ZM451.13,1274.28l-13.46,28.8h27.17l-13.7-28.8Z" stroke="#000" stroke-miterlimit="10" stroke-width="2"/><path d="M528.85,1266.12h38.27c9.05,0,15.59,1.21,19.61,3.62,4.02,2.41,6.02,6.92,6.02,13.52v2.08c0,.72-.08,1.44-.24,2.16-.16,1.55-.57,3.08-1.24,4.58-.67,1.5-1.83,2.75-3.48,3.74-.95.56-1.99,1-3.13,1.33-1.14.33-2.3.61-3.48.83-.47.06-.93.12-1.36.21-.43.08-.89.15-1.36.21v.33c4.64.22,8.03,1.25,10.16,3.08,2.13,1.83,3.19,4.38,3.19,7.66v12.15h-15.24v-10.07l.12-1.25c-.08-2.83-1.2-4.74-3.37-5.74-2.17-1-5.02-1.5-8.56-1.5h-21.26v18.56h-14.65v-55.52ZM564.75,1294.17c4.65,0,7.89-.65,9.74-1.96s2.78-3.51,2.78-6.62c0-3.44-.53-6.01-1.59-7.7-1.06-1.69-4.39-2.54-9.98-2.54h-22.2v18.81h21.26Z" stroke="#000" stroke-miterlimit="10" stroke-width="2"/><path d="M701.99,1301.75c0,.39.02.78.06,1.17.04.39.06.75.06,1.08,0,.39.02.78.06,1.17.04.39.06.78.06,1.17,0,6.55-2.66,10.78-7.97,12.69-5.31,1.91-12.07,2.87-20.26,2.87l-10.51.08c-11.1-.06-18.42-2.01-21.97-5.87-3.54-3.86-5.32-9.36-5.32-16.52,0-.67-.02-1.34-.06-2.04-.04-.69-.06-1.37-.06-2.04,0-.33-.02-.67-.06-1-.04-.33-.06-.67-.06-1,0-1-.02-2.01-.06-3.04-.04-1.03-.06-2.04-.06-3.04,0-9.32,2.95-15.26,8.86-17.81,5.9-2.55,14.8-3.83,26.69-3.83h8.27c3.54.11,6.95.5,10.22,1.17,3.27.67,5.92,2.11,7.97,4.33,1.42,1.44,2.34,3.01,2.78,4.7.43,1.69.69,3.37.77,5.04,0,.28.02.57.06.87.04.31.06.6.06.87,0,.33.02.67.06,1,.04.33.06.67.06,1h-15c-.16-.39-.26-.8-.29-1.25-.04-.44-.1-.89-.18-1.33v-.58c-.08-1.55-.49-2.98-1.24-4.29-.75-1.3-3.17-2.04-7.26-2.21-1.1-.11-2.23-.17-3.37-.17h-8.21c-.79,0-1.58.03-2.36.08-1.73.11-3.41.32-5.02.62-1.61.31-2.89.79-3.84,1.46-.95.72-1.64,1.54-2.07,2.46-.43.92-.69,1.85-.77,2.79-.08.39-.14.78-.18,1.17-.04.39-.06.78-.06,1.17-.08.89-.14,1.76-.18,2.62-.04.86-.06,1.73-.06,2.62,0,1.78.02,3.57.06,5.37.04,1.8.1,3.59.18,5.37.08,5.55,1.42,8.98,4.02,10.28,2.6,1.3,7.64,1.96,15.12,1.96,4.41,0,8.25-.33,11.52-1,3.27-.67,4.9-2.88,4.9-6.66v-1.75c-.08-.28-.12-.57-.12-.87v-.87h14.76Z" stroke="#000" stroke-miterlimit="10" stroke-width="2"/><path d="M811.95,1321.64h-15.12v-23.72h-36.73v23.72h-15v-55.52h15v22.72h36.73v-22.72h15.12v55.52Z" stroke="#000" stroke-miterlimit="10" stroke-width="2"/><path d="M941.05,1321.64h-15.12v-55.52h15.12v55.52Z" stroke="#000" stroke-miterlimit="10" stroke-width="2"/><path d="M1061.52,1321.64h-25.04l-33.31-46.44h-.47l.47,46.44h-14.65v-55.52h24.92l33.31,46.44h.47l-.47-46.44h14.76v55.52Z" stroke="#000" stroke-miterlimit="10" stroke-width="2"/><path d="M1109.11,1266.12h38.74c10.08,0,17.54,1.6,22.38,4.79,4.84,3.19,7.26,8.45,7.26,15.77v2.37c0,.81.04,1.6.12,2.37v4.66c0,6.88-1.53,12.86-4.61,17.94-3.07,5.08-10.59,7.62-22.56,7.62h-41.34v-55.52ZM1145.49,1312.65c7.87,0,12.62-1.43,14.23-4.29,1.61-2.86,2.42-6.62,2.42-11.28v-3c0-1.83-.02-3.66-.06-5.49-.04-1.83-.22-3.63-.53-5.41-.55-3.27-2.19-5.41-4.9-6.41-2.72-1-6.12-1.5-10.22-1.5h-22.32v37.37h21.38Z" stroke="#000" stroke-miterlimit="10" stroke-width="2"/><path d="M1287.34,1266.12v37.01c0,5.95-1.52,10.49-4.55,13.63-3.03,3.14-9.27,4.82-18.72,5.04-.71,0-1.42.01-2.13.04-.71.03-1.42.04-2.13.04-.79.05-1.54.08-2.24.08h-2.13c-10.47,0-18.66-.86-24.57-2.58-5.91-1.72-8.86-6.95-8.86-15.67v-37.59h15.12v37.54c0,4,1.2,6.55,3.6,7.66,2.4,1.11,6.2,1.66,11.4,1.66h5.2c4.96,0,8.72-.46,11.28-1.37,2.56-.92,3.84-3.26,3.84-7.03v-38.45h14.88Z" stroke="#000" stroke-miterlimit="10" stroke-width="2"/><path d="M1378.64,1282.35c0-3.27-.95-5.46-2.83-6.58-1.89-1.11-5.16-1.66-9.8-1.66h-6.44c-.83,0-1.64.03-2.42.08-1.26.06-2.52.18-3.78.37-1.26.19-2.36.49-3.31.87-.95.44-1.65,1.03-2.13,1.75-.47.72-.83,1.5-1.06,2.33,0,.33-.02.65-.06.96-.04.31-.06.6-.06.87,0,2.78.77,4.68,2.3,5.7,1.54,1.03,4.35,1.62,8.44,1.79.39,0,.77.01,1.12.04.35.03.73.04,1.12.04,1.02.06,2.03.1,3.01.12.98.03,1.95.04,2.89.04,7.72.17,14.53.93,20.43,2.29,5.91,1.36,8.86,5.73,8.86,13.11,0,4.72-1.06,8.59-3.19,11.61-2.13,3.02-7.05,4.81-14.76,5.37-1.26.06-2.5.1-3.72.12-1.22.03-2.42.07-3.6.12-1.26.05-2.5.08-3.72.08h-3.72c-9.06,0-16.44-.71-22.15-2.12-5.71-1.41-8.56-5.95-8.56-13.61v-.54c0-.19.04-.37.12-.54v-1.08h14.29c0,2.55.49,4.74,1.48,6.58.98,1.83,3.68,2.77,8.09,2.83,1.89.06,3.78.08,5.67.08h5.67c4.64,0,8.03-.48,10.16-1.46,2.13-.97,3.19-3.15,3.19-6.53,0-3.66-1.36-5.83-4.08-6.49-2.72-.67-6.2-1.03-10.45-1.08h-2.36c-.79,0-1.61-.03-2.48-.08-.4,0-.81-.01-1.24-.04-.43-.03-.85-.07-1.24-.12-8.35-.39-14.86-1.37-19.55-2.95-4.69-1.58-7.03-6.03-7.03-13.36,0-4.69,1.42-8.29,4.25-10.8,2.84-2.51,7.68-3.96,14.53-4.35,2.05-.11,4.11-.19,6.2-.25,2.09-.05,4.15-.08,6.2-.08,8.11,0,15.16.61,21.14,1.84,5.98,1.23,8.98,5.41,8.98,12.56v2.16h-14.41Z" stroke="#000" stroke-miterlimit="10" stroke-width="2"/><path d="M1470.29,1321.64h-15.24v-46.11h-22.79v-9.41h61.18v9.41h-23.15v46.11Z" stroke="#000" stroke-miterlimit="10" stroke-width="2"/><path d="M1534.19,1266.12h38.27c9.05,0,15.59,1.21,19.61,3.62,4.02,2.41,6.02,6.92,6.02,13.52v2.08c0,.72-.08,1.44-.24,2.16-.16,1.55-.57,3.08-1.24,4.58-.67,1.5-1.83,2.75-3.48,3.74-.95.56-1.99,1-3.13,1.33-1.14.33-2.3.61-3.48.83-.47.06-.93.12-1.36.21-.43.08-.89.15-1.36.21v.33c4.64.22,8.03,1.25,10.16,3.08,2.13,1.83,3.19,4.38,3.19,7.66v12.15h-15.24v-10.07l.12-1.25c-.08-2.83-1.2-4.74-3.37-5.74-2.17-1-5.02-1.5-8.56-1.5h-21.26v18.56h-14.65v-55.52ZM1570.1,1294.17c4.65,0,7.89-.65,9.74-1.96s2.78-3.51,2.78-6.62c0-3.44-.53-6.01-1.59-7.7-1.06-1.69-4.39-2.54-9.98-2.54h-22.2v18.81h21.26Z" stroke="#000" stroke-miterlimit="10" stroke-width="2"/><path d="M1658.68,1321.64h-15.12v-55.52h15.12v55.52Z" stroke="#000" stroke-miterlimit="10" stroke-width="2"/><path d="M1719.27,1289.43h36.97v7.74h-36.97v15.73h39.21v8.74h-53.86v-55.52h53.5v8.82h-38.86v14.48Z" stroke="#000" stroke-miterlimit="10" stroke-width="2"/><path d="M1848.83,1282.35c0-3.27-.95-5.46-2.83-6.58-1.89-1.11-5.16-1.66-9.8-1.66h-6.44c-.83,0-1.64.03-2.42.08-1.26.06-2.52.18-3.78.37-1.26.19-2.36.49-3.31.87-.95.44-1.65,1.03-2.13,1.75-.47.72-.83,1.5-1.06,2.33,0,.33-.02.65-.06.96-.04.31-.06.6-.06.87,0,2.78.77,4.68,2.3,5.7,1.54,1.03,4.35,1.62,8.44,1.79.39,0,.77.01,1.12.04.35.03.73.04,1.12.04,1.02.06,2.03.1,3.01.12.98.03,1.95.04,2.89.04,7.72.17,14.53.93,20.43,2.29,5.91,1.36,8.86,5.73,8.86,13.11,0,4.72-1.06,8.59-3.19,11.61-2.13,3.02-7.05,4.81-14.76,5.37-1.26.06-2.5.1-3.72.12-1.22.03-2.42.07-3.6.12-1.26.05-2.5.08-3.72.08h-3.72c-9.06,0-16.44-.71-22.15-2.12-5.71-1.41-8.56-5.95-8.56-13.61v-.54c0-.19.04-.37.12-.54v-1.08h14.29c0,2.55.49,4.74,1.48,6.58.98,1.83,3.68,2.77,8.09,2.83,1.89.06,3.78.08,5.67.08h5.67c4.64,0,8.03-.48,10.16-1.46,2.13-.97,3.19-3.15,3.19-6.53,0-3.66-1.36-5.83-4.08-6.49-2.72-.67-6.2-1.03-10.45-1.08h-2.36c-.79,0-1.61-.03-2.48-.08-.4,0-.81-.01-1.24-.04-.43-.03-.85-.07-1.24-.12-8.35-.39-14.86-1.37-19.55-2.95-4.69-1.58-7.03-6.03-7.03-13.36,0-4.69,1.42-8.29,4.25-10.8,2.84-2.51,7.68-3.96,14.53-4.35,2.05-.11,4.11-.19,6.2-.25,2.09-.05,4.15-.08,6.2-.08,8.11,0,15.16.61,21.14,1.84,5.98,1.23,8.98,5.41,8.98,12.56v2.16h-14.41Z" stroke="#000" stroke-miterlimit="10" stroke-width="2"/><path d="M239.8,1105.42H64.5c-35.62,0-64.5,28.88-64.5,64.5v.11c0,33.69,27.31,61.01,61.01,61.01h178.52c12.74,0,23.06-10.33,23.06-23.06v-79.76c0-12.59-10.2-22.79-22.79-22.79ZM228.52,1175.15c0,11.95-9.69,21.64-21.64,21.64H61.69c-14.97,0-27.11-12.14-27.11-27.11v-2.75c0-14.97,12.14-27.11,27.11-27.11h145.18c11.95,0,21.64,9.69,21.64,21.64v13.68Z" fill="#999"/><path d="M306.81,1122.88v61.17c0,25.94,21.03,46.98,46.98,46.98h157.8c25.94,0,46.98-21.03,46.98-46.98v-61.17c0-9.65-7.82-17.47-17.47-17.47h0c-9.65,0-17.47,7.82-17.47,17.47v52.66c0,11.74-9.51,21.25-21.25,21.25h-139.38c-11.74,0-21.25-9.51-21.25-21.25v-52.66c0-9.65-7.82-17.47-17.47-17.47h0c-9.65,0-17.47,7.82-17.47,17.47Z" fill="#999"/><path d="M615.17,1212.96v-60.58c0-25.94,21.03-46.96,46.96-46.96h184.65c9.5,0,17.21,7.7,17.21,17.21h0c0,9.5-7.7,17.21-17.21,17.21h-174.33c-12.63,0-22.87,10.24-22.87,22.87v50.26c0,9.5-7.7,17.21-17.21,17.21h0c-9.5,0-17.21-7.7-17.21-17.21Z" fill="#999"/><rect x="923.19" y="1105.42" width="34.93" height="124.76" rx="17.47" ry="17.47" fill="#999"/><path d="M1003.38,1162.53v11.39c0,31.54,25.57,57.11,57.11,57.11h180.98c13.53,0,24.5-10.97,24.5-24.5v-9.75h-202.24c-14.13,0-25.58-11.45-25.58-25.58v-5.79c0-14.13,11.45-25.58,25.58-25.58h202.24v-9.92c0-13.53-10.97-24.5-24.5-24.5h-180.98c-31.54,0-57.11,25.57-57.11,57.11Z" fill="#999"/><path d="M1504.67,1105.37l-136.04-.12c-31.95-.03-57.87,25.87-57.88,57.82v9.96c0,31.92,25.86,57.8,57.78,57.83l136.04.12c31.96.03,57.87-25.87,57.87-57.83v-9.96c0-31.92-25.86-57.8-57.78-57.83ZM1529.03,1168.97c0,15.18-12.31,27.49-27.49,27.49h-127.85c-15.18,0-27.49-12.31-27.49-27.49v-1.71c0-15.18,12.31-27.49,27.49-27.49h127.85c15.18,0,27.49,12.31,27.49,27.49v1.71Z" fill="#999"/><path d="M1816.36,1105.75h-143.79c-29.96,0-54.25,24.29-54.25,54.25v56.06c0,7.96,6.45,14.41,14.41,14.41h6.6c7.96,0,14.41-6.45,14.41-14.41v-55.54c0-11.46,9.29-20.75,20.75-20.75h26.52c11.46,0,20.75,9.29,20.75,20.75v54.75c0,8.4,6.81,15.21,15.21,15.21h14.94c8.4,0,15.21-6.81,15.21-15.21v-54.75c0-11.46,9.29-20.75,20.75-20.75h26.52c11.46,0,20.75,9.29,20.75,20.75v55.54c0,7.96,6.45,14.41,14.41,14.41h6.6c7.96,0,14.41-6.45,14.41-14.41v-56.06c0-29.96-24.29-54.25-54.25-54.25Z" fill="#999"/></g></svg>