<?xml version="1.0" encoding="UTF-8"?><svg id="b" xmlns="http://www.w3.org/2000/svg" viewBox="0 0 439.49 514.61"><g id="c"><path d="M267.17,25.41c0-14.03-11.38-25.41-25.41-25.41H48.9v.71h-23.49C11.38.71,0,12.09,0,26.12v360.2c0,14.03,11.38,25.41,25.41,25.41h24.3c14.03,0,25.41-11.38,25.41-25.41v-242.56c0-14.03,11.38-25.41,25.41-25.41h141.23c14.03,0,25.41-11.38,25.41-25.41V25.41Z" fill="#00659b"/><path d="M340.87,154.85c0-11.55-9.36-20.91-20.91-20.91H112.33c-11.55,0-20.91,9.36-20.91,20.91v235.97c0,11.55,9.36,20.91,20.91,20.91h33.29c11.55,0,20.91-9.36,20.91-20.91v-109.82c0-11.55,9.36-20.91,20.91-20.91h132.5c11.55,0,20.91-9.36,20.91-20.91v-84.31Z" fill="#fedc00"/><rect x="241.85" y="216.33" width="135.68" height="255.12" rx="20.05" ry="20.05" transform="translate(-34.21 653.58) rotate(-90)" fill="#6498ce"/><path d="M61.65,467.59H14.3v-6.71c0-9.45,7.69-17.14,17.14-17.14h30.22c3.59,0,6.5-2.91,6.5-6.5s-2.91-6.5-6.5-6.5h-30.22c-16.62,0-30.14,13.52-30.14,30.14v47.23c0,3.59,2.91,6.5,6.5,6.5s6.5-2.91,6.5-6.5v-27.52h47.36c3.59,0,6.5-2.91,6.5-6.5s-2.91-6.5-6.5-6.5Z" fill="#00659b"/><path d="M143.86,514.61h-36.8c-17.68,0-32.07-14.39-32.07-32.07v-20.27c0-17.38,14.14-31.53,31.53-31.53h13.41c17.56,0,31.84,14.28,31.84,31.84v4.43c0,3.59-2.91,6.5-6.5,6.5h-57.28v9.04c0,10.51,8.55,19.07,19.07,19.07h36.8c3.59,0,6.5,2.91,6.5,6.5s-2.91,6.5-6.5,6.5ZM88.08,460.51h50.58c-1.04-9.42-9.04-16.76-18.73-16.76h-13.41c-9.62,0-17.55,7.37-18.45,16.76Z" fill="#00659b"/><path d="M169.37,514.61c-3.59,0-6.5-2.91-6.5-6.5v-70.87c0-3.59,2.91-6.5,6.5-6.5s6.5,2.91,6.5,6.5v70.87c0,3.59-2.91,6.5-6.5,6.5Z" fill="#00659b"/><path d="M242.46,514.61h-53.25c-3.59,0-6.5-2.91-6.5-6.5s2.91-6.5,6.5-6.5h53.25c5.35,0,9.7-4.35,9.7-9.7,0-6.25-5.06-11.32-11.29-11.32h-34.4c-13.1,0-23.76-10.66-23.76-23.76v-.5c0-14.11,11.48-25.59,25.59-25.59h54.61c3.59,0,6.5,2.91,6.5,6.5s-2.91,6.5-6.5,6.5h-54.61c-6.94,0-12.59,5.65-12.59,12.59v.5c0,5.93,4.83,10.76,10.76,10.76h34.4c13.39,0,24.29,10.89,24.29,24.29,0,12.55-10.18,22.73-22.7,22.73Z" fill="#00659b"/><path d="M367.8,514.61c-3.59,0-6.5-2.91-6.5-6.5v-45.57c0-17.53,14.26-31.79,31.79-31.79h15.03c17.3,0,31.38,14.08,31.38,31.38v2.05c0,3.59-2.91,6.5-6.5,6.5s-6.5-2.91-6.5-6.5v-2.05c0-10.13-8.24-18.38-18.38-18.38h-15.03c-10.36,0-18.79,8.43-18.79,18.79v45.57c0,3.59-2.91,6.5-6.5,6.5Z" fill="#00659b"/><path d="M321.66,430.74h-15.03c-17.53,0-31.79,14.26-31.79,31.79v45.57c0,3.59,2.91,6.5,6.5,6.5s6.5-2.91,6.5-6.5v-34.6h52.2v34.6c0,3.59,2.91,6.5,6.5,6.5s6.5-2.91,6.5-6.5v-45.99c0-17.3-14.08-31.38-31.38-31.38ZM306.63,443.74h15.03c9.59,0,17.47,7.38,18.29,16.76h-52c1.02-9.41,9-16.76,18.68-16.76Z" fill="#00659b"/><path d="M427.53,511.61h-10.33c-6.51,0-11.8-5.29-11.8-11.8v-8.91c0-6.51,5.29-11.8,11.8-11.8h10.33c6.51,0,11.8,5.29,11.8,11.8v8.91c0,6.51-5.29,11.8-11.8,11.8ZM417.2,486.1c-2.65,0-4.8,2.15-4.8,4.8v8.91c0,2.65,2.15,4.8,4.8,4.8h10.33c2.65,0,4.8-2.15,4.8-4.8v-8.91c0-2.65-2.15-4.8-4.8-4.8h-10.33Z" fill="#00659b"/></g></svg>