<?xml version="1.0" encoding="UTF-8"?><svg id="b" xmlns="http://www.w3.org/2000/svg" viewBox="0 0 1699.37 1869.45"><g id="c"><rect width="1699.37" height="1869.45" fill="#8c2f71"/><path d="M1280.52,671.81h-231.67c-33.29,0-60.27,26.98-60.27,60.27v114.74c0,33.29-26.98,60.27-60.27,60.27h-149.46c-33.29,0-60.27-26.98-60.27-60.27v-303.24c0-33.29,26.98-60.27,60.27-60.27h500.25c33.29,0,60.27-26.98,60.27-60.27v-205.45c0-33.29-26.98-60.27-60.27-60.27h-573.95c-33.29,0-60.27,26.98-60.27,60.27v124.66c0,33.29-26.98,60.27-60.27,60.27h-162.93c-33.29,0-60.27,26.98-60.27,60.27v460.57c0,33.29,26.98,60.27,60.27,60.27h162.22c33.29,0,60.27,26.98,60.27,60.27v128.91c0,33.29,26.98,60.27,60.27,60.27h299.7c33.29,0,60.27-26.98,60.27-60.27v-127.49c0-33.29,26.98-60.27,60.27-60.27h155.84c33.29,0,60.27-26.98,60.27-60.27v-192.69c0-33.29-26.98-60.27-60.27-60.27Z" fill="#fff"/><polygon points="144.57 1357.8 144.57 1530.71 175.75 1530.71 175.75 1561.89 392.6 1561.89 392.6 1437.17 236.69 1437.17 236.69 1483.94 347.24 1483.94 347.24 1515.12 189.92 1515.12 189.92 1405.98 392.6 1405.98 392.6 1357.8 144.57 1357.8" fill="#cedea5"/><polygon points="423.78 1466.93 423.78 1561.89 518.74 1561.89 518.74 1515.12 470.55 1515.12 470.55 1466.93 423.78 1466.93" fill="#f70818"/><polygon points="503.15 1357.8 503.15 1405.98 596.69 1405.98 596.69 1561.89 643.46 1561.89 643.46 1405.98 737.01 1405.98 737.01 1357.8 503.15 1357.8" fill="#cedea5"/><polygon points="768.19 1530.71 768.19 1390.39 799.37 1357.8 1017.64 1357.8 1017.64 1405.98 813.54 1405.98 813.54 1437.17 1017.64 1437.17 1017.64 1483.94 813.54 1483.94 813.54 1515.12 1017.64 1515.12 1017.64 1561.89 799.37 1561.89 799.37 1530.71 768.19 1530.71" fill="#cedea5"/><polygon points="1033.23 1530.71 1033.23 1390.39 1064.41 1357.8 1282.68 1357.8 1282.68 1405.98 1078.58 1405.98 1078.58 1437.17 1078.58 1483.94 1078.58 1515.12 1282.68 1515.12 1282.68 1561.89 1064.41 1561.89 1064.41 1530.71 1033.23 1530.71" fill="#cedea5"/><polygon points="1315.28 1357.8 1315.28 1561.89 1362.05 1561.89 1362.05 1483.94 1500.94 1483.94 1500.94 1561.89 1549.13 1561.89 1549.13 1357.8 1500.94 1357.8 1500.94 1437.17 1362.05 1437.17 1362.05 1357.8 1315.28 1357.8" fill="#cedea5"/><path d="M314.65,1593.07v31.18h-140.31v31.18h108.46c17.59,0,31.85,14.26,31.85,31.85v29.84c0,17.59-14.26,31.85-31.85,31.85h-139.65v-31.18h140.31v-31.18h-108.46c-17.59,0-31.85-14.26-31.85-31.85v-37.38c0-13.42,10.88-24.31,24.31-24.31h147.19Z" fill="#cedee7"/><path d="M736.3,1593.07v31.18h-140.31v31.18h108.46c17.59,0,31.85,14.26,31.85,31.85v29.84c0,17.59-14.26,31.85-31.85,31.85h-139.65v-31.18h140.31v-31.18h-108.46c-17.59,0-31.85-14.26-31.85-31.85v-37.38c0-13.42,10.88-24.31,24.31-24.31h147.19Z" fill="#cedee7"/><path d="M1549.13,1593.07v31.18h-140.31v31.18h108.46c17.59,0,31.85,14.26,31.85,31.85v29.84c0,17.59-14.26,31.85-31.85,31.85h-139.65v-31.18h140.31v-31.18h-108.46c-17.59,0-31.85-14.26-31.85-31.85v-37.38c0-13.42,10.88-24.31,24.31-24.31h147.19Z" fill="#cedee7"/><path d="M345.83,1593.07v59.86c0,18.6,15.08,33.68,33.68,33.68h122.22v31.18h-155.91v31.18h152.58c19.84,0,35.92-16.08,35.92-35.92v-119.98h-32.6v62.36h-124.72v-62.36h-31.18Z" fill="#cedee7"/><polygon points="768.19 1593.07 768.19 1624.25 846.14 1624.25 846.14 1748.98 878.74 1748.98 878.74 1624.25 955.28 1624.25 955.28 1593.07 768.19 1593.07" fill="#cedee7"/><path d="M1157.95,1593.07v31.18h-140.31v31.18h140.31v31.18h-140.31v31.18h140.31v31.18h-136.88c-19.12,0-34.62-15.5-34.62-34.62v-86.67c0-19.12,15.5-34.62,34.62-34.62h136.88Z" fill="#cedee7"/><polyline points="1189.13 1748.98 1189.13 1593.07 1346.46 1593.07 1346.46 1748.98 1315.28 1748.98 1315.28 1624.25 1282.68 1624.25 1282.68 1748.98 1251.5 1748.98 1251.5 1624.25 1220.31 1624.25 1220.31 1748.98 1189.13 1748.98" fill="#cedee7"/></g></svg>