<?xml version="1.0" encoding="UTF-8"?><svg id="b" xmlns="http://www.w3.org/2000/svg" viewBox="0 0 1940.94 1024.11"><g id="c"><polygon points="11.17 829.13 11.17 868.82 120.3 868.82 120.3 918.43 230.85 918.43 230.85 868.82 339.99 868.82 339.99 829.13 11.17 829.13" fill="#8c0000"/><rect x="389.59" y="829.13" width="120.47" height="89.29" fill="#8c0000"/><polygon points="558.26 918.43 558.26 847.56 658.89 807.87 868.65 807.87 868.65 847.56 697.15 847.56 668.81 858.9 668.81 888.66 749.59 888.66 749.59 858.9 868.65 858.9 868.65 918.43 558.26 918.43" fill="#8c0000"/><path d="M918.26,807.87v60.94h29.76l-29.76,18.43v31.18h110.55v-19.84h79.37v19.84h109.13v-110.55h-299.06ZM1108.18,858.9h-80.79v-11.34h80.79v11.34Z" fill="#8c0000"/><path d="M1276.84,829.13v89.29h300.47v-89.29h-300.47ZM1468.18,878.74h-80.79v-9.92h80.79v9.92Z" fill="#8c0000"/><polygon points="1337.78 817.8 1516.37 817.8 1427.07 728.5 1337.78 817.8" fill="#8c0000"/><polygon points="828.96 748.35 1118.1 748.35 1278.26 588.19 1278.26 289.13 1126.6 440.79 1126.6 110.55 967.86 270.71 967.86 150.24 819.04 0 819.04 439.37 668.1 288.43 668.1 588.19 828.96 748.35" fill="#8c0000"/><polygon points="1636.84 918.43 1636.84 807.87 1736.05 807.87 1826.76 868.82 1826.76 807.87 1935.89 807.87 1935.89 918.43 1825.34 918.43 1736.05 858.9 1736.05 918.43 1636.84 918.43" fill="#8c0000"/><path d="M1077,541.42v-202.68l-99.21,100.63-99.21-170.08v270.71l-92.13-92.13v199.84l92.13,90.71h199.84l89.29-89.29,1.42-199.84-92.13,92.13ZM898.41,728.5l79.37-79.37,79.37,79.37h-158.74Z" fill="#ffc631"/><path d="M31.41,978.47h74.24v10.43H31.41v21.2h78.75v11.78H2v-74.83h107.45v11.89H31.41v19.52Z"/><path d="M112.16,1023.89H0v-78.83h111.45v15.89H33.41v15.52h74.24v14.43H33.41v17.2h78.75v15.78ZM4,1019.89h104.16v-7.78H29.41v-25.2h74.24v-6.43H29.41v-23.52h78.04v-7.89H4v70.83Z"/><path d="M329.57,1021.89h-50.29l-66.89-62.6h-.95l.95,62.6h-29.41v-74.83h50.05l66.89,62.6h.95l-.95-62.6h29.65v74.83Z"/><path d="M331.57,1023.89h-53.08l-64.99-60.83.92,60.83h-33.44v-78.83h52.84l64.99,60.83-.92-60.83h33.68v78.83ZM280.07,1019.89h47.5v-70.83h-25.62l.95,62.6h-3.77l-66.89-62.6h-47.26v70.83h25.38l-.95-62.6h3.77l66.89,62.6Z"/><path d="M467.85,1021.89h-30.6v-62.15h-45.78v-12.68h122.87v12.68h-46.49v62.15Z"/><path d="M469.85,1023.89h-34.6v-62.15h-45.78v-16.68h126.87v16.68h-46.49v62.15ZM439.25,1019.89h26.6v-62.15h46.49v-8.68h-118.87v8.68h45.78v62.15Z"/><path d="M602.34,978.47h74.24v10.43h-74.24v21.2h78.75v11.78h-108.16v-74.83h107.45v11.89h-78.04v19.52Z"/><path d="M683.09,1023.89h-112.16v-78.83h111.45v15.89h-78.04v15.52h74.24v14.43h-74.24v17.2h78.75v15.78ZM574.93,1019.89h104.16v-7.78h-78.75v-25.2h74.24v-6.43h-74.24v-23.52h78.04v-7.89h-103.45v70.83Z"/><path d="M753.91,947.06h76.85c18.18,0,31.31,1.63,39.38,4.88,8.06,3.25,12.1,9.33,12.1,18.23v2.81c0,.97-.16,1.95-.47,2.92-.32,2.09-1.15,4.15-2.49,6.17-1.35,2.02-3.68,3.7-7,5.05-1.9.75-4,1.35-6.29,1.79-2.29.45-4.63.82-7,1.12-.95.08-1.86.17-2.73.28-.87.11-1.78.21-2.73.28v.45c9.33.3,16.13,1.68,20.4,4.15,4.27,2.47,6.4,5.91,6.4,10.32v16.38h-30.6v-13.58l.24-1.68c-.16-3.81-2.41-6.4-6.76-7.74-4.35-1.35-10.08-2.02-17.2-2.02h-42.7v25.02h-29.41v-74.83ZM826.02,984.87c9.33,0,15.85-.88,19.57-2.64,3.71-1.76,5.57-4.73,5.57-8.92,0-4.64-1.07-8.1-3.2-10.38-2.13-2.28-8.82-3.42-20.04-3.42h-44.59v25.35h42.7Z"/><path d="M882.33,1023.89h-34.6l.02-15.85.21-1.49c-.11-1.84-.85-4.35-5.34-5.74-4.14-1.28-9.73-1.93-16.61-1.93h-40.7v25.02h-33.41v-78.83h78.85c18.62,0,31.74,1.64,40.12,5.03,8.86,3.57,13.35,10.33,13.35,20.09v2.81c0,1.12-.18,2.26-.52,3.38-.38,2.32-1.31,4.61-2.78,6.82-1.57,2.35-4.23,4.3-7.91,5.8-1.71.67-3.58,1.24-5.58,1.68,2.98.71,5.46,1.64,7.49,2.81,4.91,2.84,7.4,6.89,7.4,12.05v18.38ZM851.74,1019.89h26.6v-14.38c0-3.68-1.77-6.49-5.41-8.59-3.96-2.29-10.51-3.6-19.46-3.88l-1.94-.06v-4.24l1.85-.14c.88-.07,1.77-.16,2.63-.27.88-.11,1.83-.21,2.83-.29,2.21-.28,4.52-.65,6.77-1.09,2.17-.42,4.17-.99,5.94-1.69,2.91-1.18,4.95-2.63,6.07-4.3,1.17-1.76,1.9-3.57,2.18-5.36l.07-.32c.25-.77.38-1.55.38-2.3v-2.81c0-8.08-3.55-13.43-10.85-16.38-7.79-3.14-20.78-4.74-38.63-4.74h-74.85v70.83h25.41v-25.02h44.7c7.28,0,13.27.71,17.79,2.11,6.5,2.01,8.03,6.31,8.17,9.57v.18s-.23,1.72-.23,1.72v11.44ZM826.02,986.87h-44.7v-29.35h46.59c15.87,0,19.87,2.31,21.5,4.06,2.48,2.65,3.74,6.61,3.74,11.74s-2.32,8.65-6.72,10.73c-4.02,1.9-10.71,2.83-20.42,2.83ZM785.32,982.87h40.7c8.99,0,15.28-.82,18.71-2.44,3.02-1.43,4.43-3.69,4.43-7.11,0-4.09-.9-7.12-2.66-9.01-.78-.84-4.17-2.79-18.58-2.79h-42.59v21.35Z"/><path d="M953.63,947.06h63.33c21.19,0,36.84,1.44,46.96,4.32,10.12,2.88,15.18,9.93,15.18,21.15,0,.97-.04,1.98-.12,3.03-.08,1.05-.2,2.09-.36,3.14-.32,2.62-1.3,5.16-2.96,7.63-1.66,2.47-4.62,4.6-8.89,6.39-4.74,2.09-10.08,3.42-16.01,3.98-5.93.56-12.06.84-18.38.84-.79.08-1.62.11-2.49.11h-46.85v24.23h-29.41v-74.83ZM1017.43,985.32c11.23,0,19.17-.58,23.84-1.74,4.66-1.16,7-4.73,7-10.71,0-5.53-1.58-9.2-4.74-11-3.17-1.79-10.83-2.69-23.01-2.69h-37.48v26.14h34.39Z"/><path d="M985.04,1023.89h-33.41v-78.83h65.33c21.27,0,37.26,1.48,47.51,4.4,11.04,3.14,16.63,10.9,16.63,23.07,0,1-.04,2.07-.12,3.18-.09,1.11-.21,2.22-.37,3.29-.35,2.87-1.46,5.73-3.28,8.45-1.87,2.79-5.16,5.18-9.78,7.12-4.88,2.16-10.48,3.55-16.6,4.13-5.94.56-12.15.85-18.48.85-.82.07-1.69.11-2.58.11h-44.85v24.23ZM955.63,1019.89h25.41v-24.23h48.85c.8,0,1.58-.04,2.3-.1h.19c6.23,0,12.35-.29,18.19-.84,5.69-.54,10.87-1.82,15.39-3.82,3.92-1.65,6.61-3.55,8.04-5.68,1.47-2.19,2.36-4.46,2.64-6.75.15-1.03.27-2.04.35-3.06.08-1,.11-1.97.11-2.87,0-10.31-4.49-16.59-13.73-19.22-9.9-2.82-25.52-4.24-46.42-4.24h-61.33v70.83ZM1017.43,987.32h-36.39v-30.14h39.48c12.64,0,20.49.97,23.99,2.95,3.82,2.17,5.76,6.45,5.76,12.73,0,8.71-4.63,11.69-8.52,12.66-4.86,1.21-12.82,1.8-24.32,1.8ZM985.04,983.32h32.39c11.02,0,18.88-.57,23.35-1.68,2.35-.58,5.48-2.13,5.48-8.77,0-4.8-1.22-7.83-3.73-9.26-1.96-1.11-7.37-2.43-22.02-2.43h-35.48v22.14Z"/><path d="M1145.52,947.06h76.85c18.18,0,31.31,1.63,39.38,4.88,8.07,3.25,12.1,9.33,12.1,18.23v2.81c0,.97-.16,1.95-.47,2.92-.32,2.09-1.15,4.15-2.49,6.17-1.35,2.02-3.68,3.7-7,5.05-1.9.75-4,1.35-6.29,1.79-2.29.45-4.63.82-7,1.12-.95.08-1.86.17-2.73.28-.87.11-1.78.21-2.73.28v.45c9.33.3,16.13,1.68,20.4,4.15,4.27,2.47,6.4,5.91,6.4,10.32v16.38h-30.6v-13.58l.24-1.68c-.16-3.81-2.41-6.4-6.76-7.74-4.35-1.35-10.08-2.02-17.2-2.02h-42.7v25.02h-29.41v-74.83ZM1217.62,984.87c9.33,0,15.85-.88,19.57-2.64,3.71-1.76,5.57-4.73,5.57-8.92,0-4.64-1.07-8.1-3.2-10.38-2.13-2.28-8.82-3.42-20.04-3.42h-44.59v25.35h42.7Z"/><path d="M1273.94,1023.89h-34.6l.02-15.85.21-1.49c-.11-1.84-.85-4.35-5.35-5.74-4.14-1.28-9.72-1.93-16.6-1.93h-40.7v25.02h-33.41v-78.83h78.85c18.62,0,31.74,1.64,40.12,5.03,8.86,3.57,13.35,10.33,13.35,20.09v2.81c0,1.12-.18,2.26-.52,3.38-.38,2.32-1.31,4.61-2.78,6.82-1.57,2.35-4.23,4.3-7.91,5.8-1.71.67-3.58,1.24-5.58,1.68,2.98.71,5.46,1.64,7.49,2.81,4.91,2.84,7.4,6.89,7.4,12.05v18.38ZM1243.34,1019.89h26.6v-14.38c0-3.68-1.77-6.49-5.41-8.59-3.96-2.29-10.51-3.6-19.46-3.88l-1.94-.06v-4.24l1.85-.14c.88-.07,1.76-.16,2.63-.27.88-.11,1.83-.21,2.83-.29,2.21-.28,4.52-.65,6.77-1.09,2.17-.42,4.17-.99,5.94-1.69,2.91-1.18,4.96-2.63,6.07-4.3,1.17-1.76,1.9-3.57,2.18-5.36l.08-.32c.25-.77.38-1.54.38-2.3v-2.81c0-8.08-3.55-13.43-10.85-16.38-7.79-3.14-20.78-4.74-38.63-4.74h-74.85v70.83h25.41v-25.02h44.7c7.28,0,13.27.71,17.79,2.11,6.5,2.01,8.03,6.31,8.17,9.57v.18s-.24,1.72-.24,1.72v11.43ZM1217.62,986.87h-44.7v-29.35h46.59c15.87,0,19.87,2.31,21.5,4.06,2.48,2.65,3.74,6.61,3.74,11.74s-2.32,8.65-6.72,10.73c-4.02,1.9-10.7,2.83-20.42,2.83ZM1176.93,982.87h40.7c8.99,0,15.28-.82,18.71-2.44,3.02-1.43,4.43-3.69,4.43-7.11,0-4.09-.9-7.12-2.66-9.01-.78-.84-4.17-2.79-18.58-2.79h-42.59v21.35Z"/><path d="M1375.36,1021.89h-30.36v-74.83h30.36v74.83Z"/><path d="M1377.36,1023.89h-34.36v-78.83h34.36v78.83ZM1347,1019.89h26.36v-70.83h-26.36v70.83Z"/><path d="M1539.03,968.94c0-4.41-1.9-7.37-5.69-8.86-3.8-1.5-10.36-2.24-19.69-2.24h-12.93c-1.66,0-3.28.04-4.86.11-2.53.08-5.06.24-7.59.5-2.53.26-4.74.66-6.64,1.18-1.9.6-3.32,1.38-4.27,2.36-.95.97-1.66,2.02-2.13,3.14,0,.45-.04.88-.12,1.29-.08.41-.12.8-.12,1.18,0,3.74,1.54,6.3,4.63,7.69,3.08,1.38,8.74,2.19,16.96,2.41.79,0,1.54.02,2.25.06.71.04,1.46.06,2.25.06,2.05.08,4.07.13,6.05.17,1.98.04,3.91.06,5.81.06,15.5.22,29.18,1.25,41.04,3.09,11.86,1.83,17.79,7.72,17.79,17.67,0,6.36-2.13,11.58-6.4,15.65-4.27,4.08-14.15,6.49-29.65,7.24-2.53.08-5.02.13-7.47.17-2.45.04-4.86.09-7.24.17-2.53.07-5.02.11-7.47.11h-7.47c-18.19,0-33.01-.95-44.47-2.86-11.47-1.91-17.2-8.02-17.2-18.34v-.73c0-.26.08-.5.24-.73v-1.46h28.7c0,3.44.99,6.39,2.96,8.86,1.98,2.47,7.39,3.74,16.25,3.81,3.8.08,7.59.11,11.39.11h11.39c9.33,0,16.13-.65,20.4-1.96,4.27-1.31,6.4-4.24,6.4-8.81,0-4.94-2.73-7.85-8.18-8.75-5.46-.9-12.45-1.38-20.99-1.46h-4.74c-1.58,0-3.24-.04-4.98-.11-.79,0-1.62-.02-2.49-.06-.87-.04-1.7-.09-2.49-.17-16.76-.52-29.85-1.85-39.26-3.98-9.41-2.13-14.11-8.13-14.11-18.01,0-6.32,2.85-11.17,8.54-14.55,5.69-3.38,15.42-5.34,29.18-5.87,4.11-.15,8.26-.26,12.45-.34,4.19-.07,8.34-.11,12.45-.11,16.29,0,30.44.83,42.46,2.48,12.02,1.65,18.03,7.3,18.03,16.93v2.92h-28.94Z"/><path d="M1513.53,1024.11h-7.47c-18.21,0-33.28-.97-44.8-2.89-12.34-2.05-18.87-9.08-18.87-20.32v-.73c0-.42.08-.83.24-1.21v-2.97h32.7v2c0,3,.83,5.49,2.53,7.61.89,1.11,3.97,2.98,14.7,3.07,3.77.07,7.59.11,11.37.11h11.39c9.09,0,15.75-.63,19.81-1.88,3.41-1.04,4.99-3.23,4.99-6.89,0-3.95-2.01-6.04-6.51-6.78-5.33-.88-12.29-1.36-20.69-1.43h-4.73c-1.63,0-3.34-.04-5.07-.11-.75,0-1.59-.02-2.49-.06-.88-.04-1.73-.09-2.53-.17-16.78-.53-30.09-1.88-39.57-4.03-10.25-2.32-15.67-9.22-15.67-19.96,0-7.04,3.2-12.52,9.52-16.27,6.04-3.59,15.9-5.6,30.12-6.15,4.12-.15,8.32-.26,12.49-.34,4.25-.07,8.45-.11,12.49-.11,16.3,0,30.68.84,42.73,2.5,9.01,1.24,19.75,5.53,19.75,18.91v4.92h-32.94v-2c0-3.59-1.41-5.81-4.43-7-3.54-1.4-9.92-2.1-18.95-2.1h-12.93c-1.6,0-3.2.04-4.77.11-2.5.07-5.01.24-7.48.5-2.41.25-4.53.63-6.32,1.12-1.5.48-2.66,1.1-3.37,1.83-.67.69-1.2,1.43-1.58,2.2-.02.41-.07.82-.14,1.21-.06.29-.08.55-.08.8,0,2.94,1.09,4.81,3.44,5.86,2.82,1.27,8.27,2.02,16.2,2.24.81,0,1.56.02,2.3.06.69.04,1.4.05,2.15.05,2.11.08,4.12.13,6.08.17,1.96.04,3.89.06,5.77.06,15.54.22,29.44,1.27,41.34,3.11,8.89,1.37,19.48,5.9,19.48,19.65,0,6.9-2.36,12.65-7.02,17.1-4.67,4.46-14.79,7.01-30.93,7.79-2.58.08-5.08.13-7.54.17-2.44.04-4.84.09-7.2.17-2.6.08-5.13.11-7.54.11ZM1446.38,1000.42v.49c0,9.28,5.08,14.63,15.52,16.37,11.3,1.88,26.16,2.83,44.15,2.83h7.47c2.36,0,4.86-.04,7.41-.11,2.38-.08,4.8-.13,7.26-.17,2.44-.04,4.92-.09,7.44-.17,18.56-.89,25.65-4.13,28.33-6.68,3.89-3.72,5.79-8.36,5.79-14.2,0-8.89-5.26-14.02-16.1-15.69-11.72-1.81-25.43-2.84-40.76-3.06h-.03c-1.87,0-3.81-.02-5.79-.06-1.99-.04-4.02-.09-6.08-.17-.76-.01-1.54-.02-2.29-.06-.67-.03-1.39-.05-2.14-.05-8.63-.24-14.42-1.08-17.78-2.59-3.8-1.7-5.81-4.99-5.81-9.51,0-.52.05-1.04.16-1.57.05-.27.08-.58.08-.9v-.41l.16-.37c.57-1.34,1.42-2.61,2.54-3.76,1.2-1.22,2.86-2.16,5.1-2.87,2.07-.57,4.41-.99,7.04-1.26,2.57-.26,5.17-.44,7.74-.51,1.6-.07,3.26-.11,4.92-.11h12.93c9.67,0,16.35.78,20.42,2.38,3.95,1.56,6.28,4.55,6.83,8.72h25.07v-.92c0-3.14,0-12.7-16.3-14.95-11.87-1.63-26.06-2.46-42.19-2.46-4.02,0-8.2.04-12.42.11-4.15.07-8.33.19-12.42.34-13.35.51-22.85,2.39-28.23,5.59-5.09,3.03-7.56,7.22-7.56,12.83,0,8.89,4.11,14.14,12.56,16.06,9.24,2.09,22.32,3.42,38.88,3.93h.13c.76.08,1.55.13,2.39.17.84.04,1.64.05,2.41.05,1.76.08,3.4.11,4.98.11h4.74c8.62.08,15.79.58,21.32,1.49,8.15,1.34,9.86,6.57,9.86,10.72,0,5.45-2.7,9.15-7.82,10.72-4.5,1.38-11.37,2.05-20.99,2.05h-11.39c-3.81,0-7.65-.04-11.43-.11-9.69-.08-15.34-1.53-17.77-4.56-1.86-2.32-2.97-5.05-3.3-8.11h-24.81v.09l-.24.33Z"/><path d="M1666.16,978.47h74.24v10.43h-74.24v21.2h78.75v11.78h-108.16v-74.83h107.45v11.89h-78.04v19.52Z"/><path d="M1746.91,1023.89h-112.16v-78.83h111.45v15.89h-78.04v15.52h74.24v14.43h-74.24v17.2h78.75v15.78ZM1638.75,1019.89h104.16v-7.78h-78.75v-25.2h74.24v-6.43h-74.24v-23.52h78.04v-7.89h-103.45v70.83Z"/><path d="M1906.2,968.94c0-4.41-1.9-7.37-5.69-8.86-3.8-1.5-10.36-2.24-19.69-2.24h-12.93c-1.66,0-3.28.04-4.86.11-2.53.08-5.06.24-7.59.5-2.53.26-4.74.66-6.64,1.18-1.9.6-3.32,1.38-4.27,2.36-.95.97-1.66,2.02-2.13,3.14,0,.45-.04.88-.12,1.29-.08.41-.12.8-.12,1.18,0,3.74,1.54,6.3,4.63,7.69,3.08,1.38,8.74,2.19,16.96,2.41.79,0,1.54.02,2.25.06.71.04,1.46.06,2.25.06,2.05.08,4.07.13,6.05.17,1.98.04,3.91.06,5.81.06,15.5.22,29.18,1.25,41.04,3.09,11.86,1.83,17.79,7.72,17.79,17.67,0,6.36-2.13,11.58-6.4,15.65-4.27,4.08-14.15,6.49-29.65,7.24-2.53.08-5.02.13-7.47.17-2.45.04-4.86.09-7.24.17-2.53.07-5.02.11-7.47.11h-7.47c-18.19,0-33.01-.95-44.47-2.86-11.47-1.91-17.2-8.02-17.2-18.34v-.73c0-.26.08-.5.24-.73v-1.46h28.7c0,3.44.99,6.39,2.96,8.86,1.98,2.47,7.39,3.74,16.25,3.81,3.8.08,7.59.11,11.39.11h11.39c9.33,0,16.13-.65,20.4-1.96,4.27-1.31,6.4-4.24,6.4-8.81,0-4.94-2.73-7.85-8.18-8.75-5.46-.9-12.45-1.38-20.99-1.46h-4.74c-1.58,0-3.24-.04-4.98-.11-.79,0-1.62-.02-2.49-.06-.87-.04-1.7-.09-2.49-.17-16.76-.52-29.85-1.85-39.26-3.98-9.41-2.13-14.11-8.13-14.11-18.01,0-6.32,2.85-11.17,8.54-14.55,5.69-3.38,15.42-5.34,29.18-5.87,4.11-.15,8.26-.26,12.45-.34,4.19-.07,8.34-.11,12.45-.11,16.29,0,30.44.83,42.46,2.48,12.02,1.65,18.03,7.3,18.03,16.93v2.92h-28.94Z"/><path d="M1880.71,1024.11h-7.47c-18.21,0-33.28-.97-44.8-2.89-12.34-2.05-18.87-9.08-18.87-20.32v-.73c0-.42.08-.83.24-1.21v-2.97h32.7v2c0,3,.83,5.49,2.53,7.61.89,1.11,3.97,2.98,14.7,3.07,3.77.07,7.59.11,11.37.11h11.39c9.09,0,15.75-.63,19.81-1.88,3.41-1.04,4.99-3.23,4.99-6.89,0-3.95-2.01-6.04-6.51-6.78-5.33-.88-12.29-1.36-20.69-1.43h-4.73c-1.63,0-3.34-.04-5.07-.11-.74,0-1.59-.02-2.49-.06-.88-.04-1.73-.09-2.53-.17-16.78-.53-30.09-1.88-39.57-4.03-10.25-2.32-15.67-9.22-15.67-19.96,0-7.04,3.2-12.52,9.52-16.27,6.04-3.59,15.9-5.6,30.12-6.15,4.12-.15,8.32-.26,12.49-.34,4.25-.07,8.45-.11,12.49-.11,16.3,0,30.68.84,42.73,2.5,9.01,1.24,19.75,5.53,19.75,18.91v4.92h-32.94v-2c0-3.59-1.41-5.81-4.43-7-3.54-1.4-9.92-2.1-18.95-2.1h-12.93c-1.6,0-3.2.04-4.77.11-2.5.07-5.01.24-7.48.5-2.41.25-4.53.63-6.32,1.12-1.5.48-2.66,1.1-3.37,1.83-.67.69-1.2,1.43-1.58,2.2-.02.41-.07.82-.14,1.21-.06.29-.08.55-.08.8,0,2.94,1.09,4.81,3.44,5.86,2.82,1.27,8.27,2.02,16.2,2.24.78,0,1.55.02,2.3.06.69.04,1.4.05,2.15.05,2.11.08,4.12.13,6.08.17,1.96.04,3.89.06,5.77.06,15.54.22,29.44,1.27,41.34,3.11,8.89,1.37,19.48,5.9,19.48,19.65,0,6.9-2.36,12.65-7.02,17.1-4.67,4.46-14.79,7.01-30.93,7.79-2.58.08-5.08.13-7.54.17-2.44.04-4.84.09-7.2.17-2.6.08-5.13.11-7.54.11ZM1813.56,1000.42v.49c0,9.28,5.08,14.63,15.52,16.37,11.3,1.88,26.16,2.83,44.15,2.83h7.47c2.36,0,4.86-.04,7.41-.11,2.38-.08,4.8-.13,7.26-.17,2.44-.04,4.92-.09,7.44-.17,18.56-.89,25.65-4.13,28.33-6.68,3.89-3.72,5.79-8.36,5.79-14.2,0-8.89-5.26-14.02-16.1-15.69-11.72-1.81-25.43-2.84-40.76-3.06-1.9-.04-3.83-.02-5.82-.06-1.99-.04-4.02-.09-6.08-.17-.77-.01-1.54-.02-2.29-.06-.67-.03-1.39-.05-2.14-.05-8.63-.24-14.42-1.08-17.78-2.59-3.8-1.7-5.81-4.99-5.81-9.51,0-.52.05-1.04.16-1.57.05-.27.08-.58.08-.9v-.41l.16-.37c.57-1.34,1.42-2.61,2.54-3.76,1.2-1.22,2.86-2.16,5.1-2.87,2.07-.57,4.41-.99,7.04-1.26,2.57-.26,5.17-.44,7.74-.51,1.6-.07,3.26-.11,4.92-.11h12.93c9.67,0,16.35.78,20.42,2.38,3.95,1.56,6.28,4.55,6.83,8.72h25.07v-.92c0-3.14,0-12.7-16.3-14.95-11.87-1.63-26.06-2.46-42.19-2.46-4.02,0-8.2.04-12.42.11-4.15.07-8.33.19-12.42.34-13.35.51-22.85,2.39-28.23,5.59-5.09,3.03-7.56,7.22-7.56,12.83,0,8.89,4.11,14.14,12.56,16.06,9.24,2.09,22.32,3.42,38.88,3.93h.13c.76.08,1.55.13,2.39.17.84.04,1.64.05,2.41.05,1.76.08,3.4.11,4.98.11h4.74c8.62.08,15.79.58,21.32,1.49,8.15,1.34,9.86,6.57,9.86,10.72,0,5.45-2.7,9.15-7.82,10.72-4.5,1.38-11.37,2.05-20.99,2.05h-11.39c-3.81,0-7.65-.04-11.43-.11-9.69-.08-15.34-1.53-17.77-4.56-1.86-2.32-2.97-5.05-3.3-8.11h-24.81v.09l-.24.33Z"/></g></svg>