<svg xmlns="http://www.w3.org/2000/svg" viewBox="0 0 546.3 222.0" width="546" height="222"><path d="M30.0 39.857142857142854V76.0H53.0V39.857142857142854ZM43.142857142857146 66.14285714285714H39.85714285714286V49.71428571428571H43.142857142857146ZM69.42857142857143 39.857142857142854V59.57142857142857H66.14285714285715V39.857142857142854H56.28571428571429V69.42857142857143H69.42857142857143V76.0H79.28571428571429V39.857142857142854ZM92.42857142857144 46.42857142857143V39.857142857142854H82.57142857142858V76.0H105.57142857142858V46.42857142857143ZM95.71428571428572 66.14285714285714H92.42857142857144V56.285714285714285H95.71428571428572ZM108.85714285714288 66.14285714285714V76.0H131.8571428571429V66.14285714285714ZM135.14285714285717 39.857142857142854V49.71428571428571H138.42857142857144V76.0H148.2857142857143V39.857142857142854ZM151.5714285714286 39.857142857142854V62.857142857142854H164.71428571428575V66.14285714285714H151.5714285714286V76.0H174.5714285714286V39.857142857142854ZM164.71428571428575 53.0H161.42857142857147V49.71428571428571H164.71428571428575Z" fill="#12151a"/><path d="M30.0 108.92857142857143V127.0H34.92857142857143V120.42857142857143H41.5V115.5H34.92857142857143V113.85714285714286H41.5V108.92857142857143ZM49.714285714285715 110.57142857142857V122.07142857142857H48.07142857142858V110.57142857142857H43.142857142857146V127.0H54.642857142857146V110.57142857142857ZM56.28571428571429 108.92857142857143V120.42857142857143H62.85714285714286V122.07142857142857H56.28571428571429V127.0H67.78571428571429V115.5H61.21428571428572V113.85714285714286H67.78571428571429V108.92857142857143ZM69.42857142857143 108.92857142857143V113.85714285714286H74.35714285714286V108.92857142857143ZM69.42857142857143 115.5V127.0H74.35714285714286V115.5ZM76.0 110.57142857142857V127.0H87.5V110.57142857142857ZM82.57142857142857 122.07142857142857H80.92857142857143V115.5H82.57142857142857ZM94.07142857142857 127.0V115.5H95.71428571428571V127.0H100.64285714285714V110.57142857142857H89.14285714285714V127.0ZM112.14285714285714 112.21428571428571V130.28571428571428H117.07142857142857V127.0H123.64285714285714V112.21428571428571ZM118.71428571428571 122.07142857142857H117.07142857142857V117.14285714285714H118.71428571428571ZM125.28571428571428 108.92857142857143V113.85714285714286H130.2142857142857V108.92857142857143ZM125.28571428571428 115.5V127.0H130.2142857142857V115.5ZM136.78571428571428 127.0V108.92857142857143H131.85714285714286V127.0ZM138.42857142857144 110.57142857142857V127.0H149.92857142857144V110.57142857142857ZM145.00000000000003 122.07142857142857H143.35714285714286V115.5H145.00000000000003ZM156.5 112.21428571428571V108.92857142857143H151.57142857142858V127.0H163.07142857142858V118.78571428571428H158.14285714285717V122.07142857142857H156.5V117.14285714285714H163.07142857142858V112.21428571428571ZM164.71428571428572 108.92857142857143V120.42857142857143H171.2857142857143V122.07142857142857H164.71428571428572V127.0H176.21428571428572V115.5H169.64285714285714V113.85714285714286H176.21428571428572V108.92857142857143ZM187.71428571428572 110.57142857142857V127.0H192.64285714285714V115.5H194.2857142857143V118.78571428571428H199.21428571428572V110.57142857142857ZM202.5 108.92857142857143V113.85714285714286H207.42857142857144V115.5H200.85714285714286V127.0H212.35714285714286V108.92857142857143ZM207.42857142857144 122.07142857142857H205.78571428571428V120.42857142857143H207.42857142857144ZM214.0 110.57142857142857V127.0H225.5V118.78571428571428H220.57142857142858V122.07142857142857H218.92857142857142V115.5H220.57142857142858V117.14285714285714H225.5V110.57142857142857ZM227.14285714285714 108.92857142857143V127.0H238.64285714285714V122.07142857142857H232.07142857142856V120.42857142857143H238.64285714285714V108.92857142857143ZM233.71428571428572 115.5H232.07142857142856V113.85714285714286H233.71428571428572ZM255.07142857142856 112.21428571428571V108.92857142857143H250.14285714285714V127.0H261.6428571428571V112.21428571428571ZM256.7142857142857 122.07142857142857H255.07142857142856V117.14285714285714H256.7142857142857ZM263.2857142857143 108.92857142857143V127.0H274.7857142857143V122.07142857142857H268.2142857142857V120.42857142857143H274.7857142857143V108.92857142857143ZM269.85714285714283 115.5H268.2142857142857V113.85714285714286H269.85714285714283ZM281.3571428571429 127.0V115.5H283.0V127.0H287.92857142857144V110.57142857142857H276.42857142857144V127.0ZM289.5714285714286 108.92857142857143V127.0H301.0714285714286V122.07142857142857H294.50000000000006V120.42857142857143H301.0714285714286V108.92857142857143ZM296.14285714285717 115.5H294.50000000000006V113.85714285714286H296.14285714285717ZM304.35714285714295 108.92857142857143V113.85714285714286H309.28571428571433V115.5H302.7142857142858V127.0H314.2142857142858V108.92857142857143ZM309.28571428571433 122.07142857142857H307.6428571428572V120.42857142857143H309.28571428571433ZM320.7857142857144 112.21428571428571V108.92857142857143H315.85714285714295V127.0H327.35714285714295V118.78571428571428H322.4285714285715V122.07142857142857H320.7857142857144V117.14285714285714H327.35714285714295V112.21428571428571ZM333.92857142857156 112.21428571428571V108.92857142857143H329.0000000000001V127.0H333.92857142857156V117.14285714285714H335.57142857142867V127.0H340.5000000000001V112.21428571428571ZM353.6428571428573 108.92857142857143V113.85714285714286H358.57142857142867V115.5H352.0000000000001V127.0H363.5000000000001V108.92857142857143ZM358.57142857142867 122.07142857142857H356.92857142857156V120.42857142857143H358.57142857142867ZM375.0000000000001 112.21428571428571V130.28571428571428H379.92857142857156V127.0H386.5000000000001V112.21428571428571ZM381.57142857142867 122.07142857142857H379.92857142857156V117.14285714285714H381.57142857142867ZM388.1428571428573 108.92857142857143V113.85714285714286H393.0714285714287V108.92857142857143ZM388.1428571428573 115.5V127.0H393.0714285714287V115.5ZM401.2857142857144 108.92857142857143V113.85714285714286H399.6428571428573V108.92857142857143H394.71428571428584V117.14285714285714H396.357142857143V118.78571428571428H394.71428571428584V127.0H399.6428571428573V122.07142857142857H401.2857142857144V127.0H406.21428571428584V118.78571428571428H404.57142857142867V117.14285714285714H406.21428571428584V108.92857142857143ZM407.857142857143 108.92857142857143V127.0H419.357142857143V122.07142857142857H412.78571428571445V120.42857142857143H419.357142857143V108.92857142857143ZM414.42857142857156 115.5H412.78571428571445V113.85714285714286H414.42857142857156ZM425.9285714285716 127.0V108.92857142857143H421.00000000000017V127.0ZM427.5714285714287 115.5V120.42857142857143H439.0714285714287V115.5ZM445.64285714285734 127.0V108.92857142857143H440.7142857142859V127.0ZM447.28571428571445 108.92857142857143V113.85714285714286H452.2142857142859V108.92857142857143ZM447.28571428571445 115.5V127.0H452.2142857142859V115.5ZM458.78571428571445 112.21428571428571V108.92857142857143H453.857142857143V127.0H465.357142857143V118.78571428571428H460.42857142857156V122.07142857142857H458.78571428571445V117.14285714285714H465.357142857143V112.21428571428571ZM476.857142857143 108.92857142857143V120.42857142857143H483.42857142857156V122.07142857142857H476.857142857143V127.0H488.357142857143V115.5H481.78571428571445V113.85714285714286H488.357142857143V108.92857142857143ZM496.5714285714287 112.21428571428571V115.5H494.9285714285716V108.92857142857143H490.00000000000017V127.0H494.9285714285716V123.71428571428571H496.5714285714287V127.0H501.50000000000017V120.42857142857143H499.857142857143V118.78571428571428H501.50000000000017V112.21428571428571ZM509.7142857142859 112.21428571428571V118.78571428571428H508.0714285714288V112.21428571428571H503.14285714285734V123.71428571428571H509.7142857142859V125.35714285714286H503.14285714285734V130.28571428571428H514.6428571428573V112.21428571428571Z" fill="#3a3f47"/><path d="M30.0 152.42857142857142V165.0H33.42857142857143V160.42857142857142H34.57142857142857V165.0H38.0V152.42857142857142ZM34.57142857142857 157.0H33.42857142857143V155.85714285714286H34.57142857142857ZM39.14285714285714 152.42857142857142V165.0H47.14285714285714V159.28571428571428H45.99999999999999V158.14285714285714H47.14285714285714V152.42857142857142ZM43.71428571428571 161.57142857142858H42.57142857142857V160.42857142857142H43.71428571428571ZM42.57142857142857 157.0V155.85714285714286H43.71428571428571V157.0ZM48.28571428571428 152.42857142857142V165.0H56.28571428571428V159.28571428571428H52.85714285714285V161.57142857142858H51.71428571428571V155.85714285714286H52.85714285714285V158.14285714285714H56.28571428571428V152.42857142857142ZM64.28571428571428 165.0V163.85714285714286H65.42857142857142V153.57142857142858H64.28571428571428V152.42857142857142H57.428571428571416V165.0ZM60.85714285714285 155.85714285714286H61.999999999999986V161.57142857142858H60.85714285714285ZM74.57142857142856 165.0V161.57142857142858H69.99999999999999V160.42857142857142H74.57142857142856V157.0H69.99999999999999V155.85714285714286H74.57142857142856V152.42857142857142H66.57142857142856V165.0ZM75.7142857142857 152.42857142857142V165.0H79.14285714285712V160.42857142857142H83.7142857142857V157.0H79.14285714285712V155.85714285714286H83.7142857142857V152.42857142857142ZM84.85714285714283 152.42857142857142V165.0H92.85714285714283V157.0H89.4285714285714V161.57142857142858H88.28571428571426V155.85714285714286H92.85714285714283V152.42857142857142ZM98.57142857142854 152.42857142857142V157.0H97.4285714285714V152.42857142857142H93.99999999999997V165.0H97.4285714285714V160.42857142857142H98.57142857142854V165.0H101.99999999999997V152.42857142857142ZM106.57142857142854 165.0V152.42857142857142H103.14285714285711V165.0ZM112.28571428571425 152.42857142857142V161.57142857142858H111.14285714285711V157.0H107.71428571428568V165.0H115.71428571428568V152.42857142857142ZM121.42857142857139 152.42857142857142V155.85714285714286H120.28571428571425V152.42857142857142H116.85714285714282V165.0H120.28571428571425V161.57142857142858H121.42857142857139V165.0H124.85714285714282V159.28571428571428H123.71428571428568V158.14285714285714H124.85714285714282V152.42857142857142ZM131.71428571428567 165.0V161.57142857142858H129.4285714285714V152.42857142857142H125.99999999999996V165.0ZM132.8571428571428 152.42857142857142V165.0H136.28571428571422V155.85714285714286H137.4285714285714V165.0H140.8571428571428V155.85714285714286H141.99999999999994V165.0H145.4285714285714V152.42857142857142ZM149.99999999999994 165.0V155.85714285714286H151.1428571428571V165.0H154.57142857142853V152.42857142857142H146.57142857142853V165.0ZM155.71428571428567 152.42857142857142V165.0H163.71428571428567V152.42857142857142ZM160.28571428571425 161.57142857142858H159.14285714285708V155.85714285714286H160.28571428571425ZM164.8571428571428 152.42857142857142V165.0H168.28571428571422V162.71428571428572H172.8571428571428V152.42857142857142ZM169.4285714285714 159.28571428571428H168.28571428571422V155.85714285714286H169.4285714285714ZM173.99999999999994 152.42857142857142V165.0H176.28571428571422V166.14285714285714H179.71428571428567V165.0H181.99999999999994V152.42857142857142ZM178.57142857142853 161.57142857142858H177.42857142857136V155.85714285714286H178.57142857142853ZM183.14285714285708 152.42857142857142V165.0H186.5714285714285V163.85714285714286H187.71428571428567V165.0H191.14285714285708V161.57142857142858H189.99999999999994V160.42857142857142H191.14285714285708V152.42857142857142ZM186.5714285714285 159.28571428571428V155.85714285714286H187.71428571428567V159.28571428571428ZM192.28571428571422 152.42857142857142V160.42857142857142H196.8571428571428V161.57142857142858H192.28571428571422V165.0H200.28571428571422V157.0H195.71428571428564V155.85714285714286H200.28571428571422V152.42857142857142ZM201.42857142857136 152.42857142857142V155.85714285714286H203.71428571428564V165.0H207.14285714285708V155.85714285714286H209.42857142857136V152.42857142857142ZM215.14285714285708 152.42857142857142V161.57142857142858H213.99999999999991V152.42857142857142H210.5714285714285V165.0H218.5714285714285V152.42857142857142ZM224.28571428571422 152.42857142857142V161.57142857142858H223.14285714285705V152.42857142857142H219.71428571428564V163.85714285714286H220.85714285714278V165.0H226.5714285714285V163.85714285714286H227.71428571428564V152.42857142857142ZM237.99999999999991 152.42857142857142V161.57142857142858H236.85714285714278V152.42857142857142H233.42857142857136V161.57142857142858H232.2857142857142V152.42857142857142H228.85714285714278V165.0H241.42857142857136V152.42857142857142ZM247.14285714285708 152.42857142857142V155.85714285714286H245.99999999999991V152.42857142857142H242.5714285714285V158.14285714285714H243.71428571428564V159.28571428571428H242.5714285714285V165.0H245.99999999999991V161.57142857142858H247.14285714285708V165.0H250.5714285714285V159.28571428571428H249.42857142857136V158.14285714285714H250.5714285714285V152.42857142857142ZM256.2857142857142 152.42857142857142V157.0H255.14285714285705V152.42857142857142H251.71428571428564V160.42857142857142H253.99999999999991V165.0H257.42857142857133V160.42857142857142H259.71428571428567V152.42857142857142ZM260.8571428571428 152.42857142857142V155.85714285714286H265.42857142857133V157.0H260.8571428571428V165.0H268.8571428571428V161.57142857142858H264.2857142857142V160.42857142857142H268.8571428571428V152.42857142857142Z" fill="#6b7280"/><path d="M31.142857142857142 181.42857142857142V184.85714285714286H34.57142857142857V186.0H30.0V194.0H38.0V181.42857142857142ZM34.57142857142857 190.57142857142858H33.42857142857143V189.42857142857142H34.57142857142857ZM42.57142857142857 183.71428571428572V181.42857142857142H39.14285714285714V194.0H47.14285714285714V183.71428571428572ZM43.71428571428571 190.57142857142858H42.57142857142857V187.14285714285714H43.71428571428571ZM48.28571428571428 182.57142857142858V194.0H56.28571428571428V188.28571428571428H52.85714285714285V190.57142857142858H51.71428571428571V186.0H52.85714285714285V187.14285714285714H56.28571428571428V182.57142857142858ZM61.999999999999986 181.42857142857142V183.71428571428572H57.428571428571416V194.0H65.42857142857142V181.42857142857142ZM61.999999999999986 190.57142857142858H60.85714285714285V187.14285714285714H61.999999999999986ZM66.57142857142856 181.42857142857142V194.0H74.57142857142856V190.57142857142858H69.99999999999999V189.42857142857142H74.57142857142856V181.42857142857142ZM71.14285714285712 186.0H69.99999999999999V184.85714285714286H71.14285714285712ZM76.85714285714283 181.42857142857142V186.0H75.7142857142857V189.42857142857142H79.14285714285712V190.57142857142858H75.7142857142857V194.0H82.57142857142856V189.42857142857142H83.7142857142857V186.0H80.28571428571426V184.85714285714286H83.7142857142857V181.42857142857142ZM84.85714285714283 183.71428571428572V191.71428571428572H89.4285714285714V192.85714285714286H84.85714285714283V196.28571428571428H92.85714285714283V183.71428571428572ZM89.4285714285714 188.28571428571428H88.28571428571426V187.14285714285714H89.4285714285714ZM97.4285714285714 183.71428571428572V181.42857142857142H93.99999999999997V194.0H97.4285714285714V187.14285714285714H98.57142857142854V194.0H101.99999999999997V183.71428571428572ZM103.14285714285711 181.42857142857142V184.85714285714286H106.57142857142854V181.42857142857142ZM103.14285714285711 186.0V194.0H106.57142857142854V186.0ZM112.28571428571425 181.42857142857142V184.85714285714286H115.71428571428568V181.42857142857142ZM112.28571428571425 186.0V190.57142857142858H111.14285714285711V186.0H107.71428571428568V194.0H115.71428571428568V186.0ZM121.42857142857139 183.71428571428572V186.0H120.28571428571425V181.42857142857142H116.85714285714282V194.0H120.28571428571425V191.71428571428572H121.42857142857139V194.0H124.85714285714282V189.42857142857142H123.71428571428568V188.28571428571428H124.85714285714282V183.71428571428572ZM129.4285714285714 194.0V181.42857142857142H125.99999999999996V194.0ZM130.57142857142853 182.57142857142858V194.0H133.99999999999994V186.0H135.1428571428571V194.0H138.57142857142853V186.0H139.71428571428567V194.0H143.1428571428571V182.57142857142858ZM147.71428571428567 194.0V186.0H148.85714285714283V194.0H152.28571428571425V182.57142857142858H144.28571428571425V194.0ZM153.4285714285714 182.57142857142858V194.0H161.4285714285714V182.57142857142858ZM157.99999999999997 190.57142857142858H156.8571428571428V186.0H157.99999999999997ZM162.57142857142853 183.71428571428572V196.28571428571428H165.99999999999994V194.0H170.57142857142853V183.71428571428572ZM167.1428571428571 190.57142857142858H165.99999999999994V187.14285714285714H167.1428571428571ZM171.71428571428567 183.71428571428572V194.0H176.28571428571425V196.28571428571428H179.71428571428567V183.71428571428572ZM176.28571428571425 190.57142857142858H175.14285714285708V187.14285714285714H176.28571428571425ZM180.8571428571428 182.57142857142858V194.0H184.28571428571422V186.0H185.4285714285714V188.28571428571428H188.8571428571428V182.57142857142858ZM189.99999999999994 181.42857142857142V189.42857142857142H194.57142857142853V190.57142857142858H189.99999999999994V194.0H197.99999999999994V186.0H193.42857142857136V184.85714285714286H197.99999999999994V181.42857142857142ZM202.5714285714285 183.71428571428572V181.42857142857142H199.14285714285708V194.0H207.14285714285708V188.28571428571428H203.71428571428567V190.57142857142858H202.5714285714285V187.14285714285714H207.14285714285708V183.71428571428572ZM212.8571428571428 182.57142857142858V190.57142857142858H211.71428571428564V182.57142857142858H208.28571428571422V194.0H216.28571428571422V182.57142857142858ZM221.99999999999994 182.57142857142858V190.57142857142858H220.85714285714278V182.57142857142858H217.42857142857136V192.85714285714286H218.5714285714285V194.0H224.28571428571422V192.85714285714286H225.42857142857136V182.57142857142858ZM235.71428571428564 182.57142857142858V190.57142857142858H234.5714285714285V182.57142857142858H231.14285714285708V190.57142857142858H229.99999999999991V182.57142857142858H226.5714285714285V194.0H239.14285714285708V182.57142857142858ZM244.8571428571428 181.42857142857142V184.85714285714286H243.71428571428564V181.42857142857142H240.28571428571422V187.14285714285714H241.42857142857136V188.28571428571428H240.28571428571422V194.0H243.71428571428564V190.57142857142858H244.8571428571428V194.0H248.28571428571422V188.28571428571428H247.14285714285708V187.14285714285714H248.28571428571422V181.42857142857142ZM253.99999999999994 183.71428571428572V188.28571428571428H252.85714285714278V183.71428571428572H249.42857142857136V191.71428571428572H253.99999999999994V192.85714285714286H249.42857142857136V196.28571428571428H257.42857142857133V183.71428571428572ZM258.5714285714285 181.42857142857142V184.85714285714286H263.14285714285705V186.0H258.5714285714285V194.0H266.5714285714285V190.57142857142858H261.99999999999994V189.42857142857142H266.5714285714285V181.42857142857142ZM281.42857142857133 181.42857142857142V194.0H289.42857142857133V181.42857142857142ZM285.9999999999999 190.57142857142858H284.8571428571428V184.85714285714286H285.9999999999999ZM290.5714285714285 181.42857142857142V184.85714285714286H291.71428571428567V194.0H295.14285714285705V181.42857142857142ZM296.2857142857142 181.42857142857142V184.85714285714286H300.8571428571428V186.0H296.2857142857142V194.0H304.2857142857142V190.57142857142858H299.71428571428567V189.42857142857142H304.2857142857142V181.42857142857142ZM305.4285714285714 181.42857142857142V184.85714285714286H309.99999999999994V186.0H305.4285714285714V189.42857142857142H309.99999999999994V190.57142857142858H305.4285714285714V194.0H313.4285714285714V181.42857142857142ZM319.1428571428571 181.42857142857142V188.28571428571428H318.0V181.42857142857142H314.57142857142856V191.71428571428572H319.1428571428571V194.0H322.57142857142856V181.42857142857142ZM323.7142857142857 181.42857142857142V189.42857142857142H328.2857142857143V190.57142857142858H323.7142857142857V194.0H331.7142857142857V186.0H327.14285714285717V184.85714285714286H331.7142857142857V181.42857142857142ZM332.8571428571429 181.42857142857142V194.0H340.8571428571429V186.0H336.28571428571433V184.85714285714286H340.8571428571429V181.42857142857142ZM337.42857142857144 190.57142857142858H336.28571428571433V189.42857142857142H337.42857142857144ZM342.00000000000006 181.42857142857142V188.28571428571428H345.4285714285715V184.85714285714286H346.5714285714286V194.0H350.00000000000006V181.42857142857142ZM351.1428571428572 181.42857142857142V194.0H359.1428571428572V181.42857142857142ZM355.7142857142858 186.0H354.57142857142867V184.85714285714286H355.7142857142858ZM355.7142857142858 190.57142857142858H354.57142857142867V189.42857142857142H355.7142857142858ZM360.2857142857144 181.42857142857142V189.42857142857142H364.85714285714295V190.57142857142858H360.2857142857144V194.0H368.2857142857144V181.42857142857142ZM364.85714285714295 186.0H363.71428571428584V184.85714285714286H364.85714285714295ZM394.57142857142867 187.14285714285714H391.1428571428572V188.28571428571428H390.00000000000006V187.14285714285714H391.1428571428572V181.42857142857142H383.1428571428572V187.14285714285714H384.2857142857144V188.28571428571428H383.1428571428572V194.0H391.1428571428572V192.85714285714286H392.2857142857144V191.71428571428572H393.4285714285715V190.57142857142858H394.57142857142867ZM386.57142857142867 186.0V184.85714285714286H387.7142857142858V186.0ZM387.7142857142858 189.42857142857142V190.57142857142858H386.57142857142867V189.42857142857142ZM395.7142857142858 190.57142857142858V194.0H399.1428571428572V190.57142857142858ZM400.28571428571433 190.57142857142858V196.28571428571428H403.7142857142858V190.57142857142858ZM408.28571428571433 189.42857142857142V181.42857142857142H404.8571428571429V189.42857142857142ZM408.28571428571433 194.0V190.57142857142858H404.8571428571429V194.0ZM411.7142857142857 190.57142857142858V194.0H415.14285714285717V190.57142857142858ZM409.42857142857144 181.42857142857142V184.85714285714286H414.0V186.0H411.7142857142857V189.42857142857142H417.42857142857144V181.42857142857142Z" fill="#6b7280"/></svg>