<svg xmlns="http://www.w3.org/2000/svg" viewBox="0 0 717.8 222.0" width="718" height="222"><path d="M30.0 76.0V68.318359375Q30.0 65.263671875 32.1787109375 63.0849609375Q34.357421875 60.90625 37.412109375 60.90625H52.236328125Q52.73046875 60.90625 53.08984375 60.546875Q53.44921875 60.1875 53.44921875 59.693359375Q53.44921875 59.19921875 53.08984375 58.83984375Q52.73046875 58.48046875 52.236328125 58.48046875H30.0V52.28125H52.236328125Q55.291015625 52.28125 57.4697265625 54.4599609375Q59.6484375 56.638671875 59.6484375 59.693359375Q59.6484375 62.748046875 57.4697265625 64.9267578125Q55.291015625 67.10546875 52.236328125 67.10546875H37.412109375Q36.91796875 67.10546875 36.55859375 67.46484375Q36.19921875 67.82421875 36.19921875 68.318359375V69.80078125H59.6484375V76.0ZM72.046875 68.587890625Q72.046875 69.08203125 72.40625 69.44140625Q72.765625 69.80078125 73.259765625 69.80078125H88.083984375Q88.578125 69.80078125 88.9375 69.44140625Q89.296875 69.08203125 89.296875 68.587890625V59.693359375Q89.296875 59.19921875 88.9375 58.83984375Q88.578125 58.48046875 88.083984375 58.48046875H73.259765625Q72.765625 58.48046875 72.40625 58.83984375Q72.046875 59.19921875 72.046875 59.693359375ZM65.84765625 68.587890625V59.693359375Q65.84765625 56.638671875 68.0263671875 54.4599609375Q70.205078125 52.28125 73.259765625 52.28125H88.083984375Q91.138671875 52.28125 93.3173828125 54.4599609375Q95.49609375 56.638671875 95.49609375 59.693359375V68.587890625Q95.49609375 71.642578125 93.3173828125 73.8212890625Q91.138671875 76.0 88.083984375 76.0H73.259765625Q70.205078125 76.0 68.0263671875 73.8212890625Q65.84765625 71.642578125 65.84765625 68.587890625ZM109.107421875 60.90625H125.14453125V59.693359375Q125.14453125 59.19921875 124.78515625 58.83984375Q124.42578125 58.48046875 123.931640625 58.48046875H109.107421875Q108.61328125 58.48046875 108.25390625 58.83984375Q107.89453125 59.19921875 107.89453125 59.693359375Q107.89453125 60.1875 108.25390625 60.546875Q108.61328125 60.90625 109.107421875 60.90625ZM101.6953125 76.0V69.80078125H123.931640625Q124.42578125 69.80078125 124.78515625 69.44140625Q125.14453125 69.08203125 125.14453125 68.587890625V67.10546875H109.107421875Q106.052734375 67.10546875 103.8740234375 64.9267578125Q101.6953125 62.748046875 101.6953125 59.693359375Q101.6953125 56.638671875 103.8740234375 54.4599609375Q106.052734375 52.28125 109.107421875 52.28125H123.931640625Q126.986328125 52.28125 129.1650390625 54.4599609375Q131.34375 56.638671875 131.34375 59.693359375V68.587890625Q131.34375 71.642578125 129.1650390625 73.8212890625Q126.986328125 76.0 123.931640625 76.0ZM137.54296875 58.48046875V52.28125H156.814453125Q159.869140625 52.28125 162.0478515625 54.4599609375Q164.2265625 56.638671875 164.2265625 59.693359375V76.0H158.02734375V67.10546875H143.7421875V60.90625H158.02734375V59.693359375Q158.02734375 59.19921875 157.66796875 58.83984375Q157.30859375 58.48046875 156.814453125 58.48046875Z" fill="#12151a"/><path d="M30.0 118.240234375V115.140625H41.1181640625Q42.6455078125 115.140625 43.73486328125 116.22998046875Q44.82421875 117.3193359375 44.82421875 118.8466796875V123.2939453125Q44.82421875 124.8212890625 43.73486328125 125.91064453125Q42.6455078125 127.0 41.1181640625 127.0H33.7060546875Q32.1787109375 127.0 31.08935546875 125.91064453125Q30.0 124.8212890625 30.0 123.2939453125Q30.0 121.7666015625 31.08935546875 120.67724609375Q32.1787109375 119.587890625 33.7060546875 119.587890625H40.376953125V122.6875H33.7060546875Q33.458984375 122.6875 33.279296875 122.8671875Q33.099609375 123.046875 33.099609375 123.2939453125Q33.099609375 123.541015625 33.279296875 123.720703125Q33.458984375 123.900390625 33.7060546875 123.900390625H41.1181640625Q41.365234375 123.900390625 41.544921875 123.720703125Q41.724609375 123.541015625 41.724609375 123.2939453125V118.8466796875Q41.724609375 118.599609375 41.544921875 118.419921875Q41.365234375 118.240234375 41.1181640625 118.240234375ZM47.923828125 115.140625H51.0234375V123.2939453125Q51.0234375 123.541015625 51.203125 123.720703125Q51.3828125 123.900390625 51.6298828125 123.900390625H59.0419921875Q59.2890625 123.900390625 59.46875 123.720703125Q59.6484375 123.541015625 59.6484375 123.2939453125V115.140625H62.748046875V123.2939453125Q62.748046875 124.8212890625 61.65869140625 125.91064453125Q60.5693359375 127.0 59.0419921875 127.0H51.6298828125Q50.1025390625 127.0 49.01318359375 125.91064453125Q47.923828125 124.8212890625 47.923828125 123.2939453125ZM65.84765625 127.0V115.140625H76.9658203125Q78.4931640625 115.140625 79.58251953125 116.22998046875Q80.671875 117.3193359375 80.671875 118.8466796875Q80.671875 120.0595703125 79.9755859375 121.0029296875Q80.671875 121.9462890625 80.671875 123.1591796875V127.0H77.572265625V123.1591796875Q77.572265625 122.912109375 77.392578125 122.732421875Q77.212890625 122.552734375 76.9658203125 122.552734375H70.294921875V119.453125H76.9658203125Q77.212890625 119.453125 77.392578125 119.2734375Q77.572265625 119.09375 77.572265625 118.8466796875Q77.572265625 118.599609375 77.392578125 118.419921875Q77.212890625 118.240234375 76.9658203125 118.240234375H68.947265625V127.0ZM83.771484375 127.0V115.140625H86.87109375V127.0ZM89.970703125 123.2939453125V118.8466796875Q89.970703125 117.3193359375 91.06005859375 116.22998046875Q92.1494140625 115.140625 93.6767578125 115.140625H104.794921875V118.240234375H93.6767578125Q93.4296875 118.240234375 93.25 118.419921875Q93.0703125 118.599609375 93.0703125 118.8466796875V123.2939453125Q93.0703125 123.541015625 93.25 123.720703125Q93.4296875 123.900390625 93.6767578125 123.900390625H104.794921875V127.0H93.6767578125Q92.1494140625 127.0 91.06005859375 125.91064453125Q89.970703125 124.8212890625 89.970703125 123.2939453125ZM110.994140625 123.2939453125Q110.994140625 123.541015625 111.173828125 123.720703125Q111.353515625 123.900390625 111.6005859375 123.900390625H119.0126953125Q119.259765625 123.900390625 119.439453125 123.720703125Q119.619140625 123.541015625 119.619140625 123.2939453125V118.8466796875Q119.619140625 118.599609375 119.439453125 118.419921875Q119.259765625 118.240234375 119.0126953125 118.240234375H111.6005859375Q111.353515625 118.240234375 111.173828125 118.419921875Q110.994140625 118.599609375 110.994140625 118.8466796875ZM107.89453125 123.2939453125V118.8466796875Q107.89453125 117.3193359375 108.98388671875 116.22998046875Q110.0732421875 115.140625 111.6005859375 115.140625H119.0126953125Q120.5400390625 115.140625 121.62939453125 116.22998046875Q122.71875 117.3193359375 122.71875 118.8466796875V123.2939453125Q122.71875 124.8212890625 121.62939453125 125.91064453125Q120.5400390625 127.0 119.0126953125 127.0H111.6005859375Q110.0732421875 127.0 108.98388671875 125.91064453125Q107.89453125 124.8212890625 107.89453125 123.2939453125ZM125.818359375 127.0V118.8466796875Q125.818359375 117.1845703125 126.95263671875 116.16259765625Q128.0869140625 115.140625 130.0634765625 115.140625Q131.6806640625 115.140625 132.7587890625 115.8369140625Q133.8369140625 115.140625 135.4541015625 115.140625Q137.4306640625 115.140625 138.56494140625 116.16259765625Q139.69921875 117.1845703125 139.69921875 118.8466796875V127.0H136.599609375V118.8466796875Q136.599609375 118.240234375 135.4541015625 118.240234375Q134.30859375 118.240234375 134.30859375 118.8466796875V127.0H131.208984375V118.8466796875Q131.208984375 118.240234375 130.0634765625 118.240234375Q128.91796875 118.240234375 128.91796875 118.8466796875V127.0ZM154.5234375 127.0V115.140625H165.6416015625Q167.1689453125 115.140625 168.25830078125 116.22998046875Q169.34765625 117.3193359375 169.34765625 118.8466796875Q169.34765625 120.0595703125 168.6513671875 121.0029296875Q169.34765625 121.9462890625 169.34765625 123.1591796875V127.0H166.248046875V123.1591796875Q166.248046875 122.912109375 166.068359375 122.732421875Q165.888671875 122.552734375 165.6416015625 122.552734375H158.970703125V119.453125H165.6416015625Q165.888671875 119.453125 166.068359375 119.2734375Q166.248046875 119.09375 166.248046875 118.8466796875Q166.248046875 118.599609375 166.068359375 118.419921875Q165.888671875 118.240234375 165.6416015625 118.240234375H157.623046875V127.0ZM172.447265625 123.2939453125V118.8466796875Q172.447265625 117.3193359375 173.53662109375 116.22998046875Q174.6259765625 115.140625 176.1533203125 115.140625H183.5654296875Q185.0927734375 115.140625 186.18212890625 116.22998046875Q187.271484375 117.3193359375 187.271484375 118.8466796875Q187.271484375 120.3740234375 186.18212890625 121.46337890625Q185.0927734375 122.552734375 183.5654296875 122.552734375H176.89453125V119.453125H183.5654296875Q183.8125 119.453125 183.9921875 119.2734375Q184.171875 119.09375 184.171875 118.8466796875Q184.171875 118.599609375 183.9921875 118.419921875Q183.8125 118.240234375 183.5654296875 118.240234375H176.1533203125Q175.90625 118.240234375 175.7265625 118.419921875Q175.546875 118.599609375 175.546875 118.8466796875V123.2939453125Q175.546875 123.541015625 175.7265625 123.720703125Q175.90625 123.900390625 176.1533203125 123.900390625H187.271484375V127.0H176.1533203125Q174.6259765625 127.0 173.53662109375 125.91064453125Q172.447265625 124.8212890625 172.447265625 123.2939453125ZM190.37109375 127.0V123.900390625H201.4892578125Q201.736328125 123.900390625 201.916015625 123.720703125Q202.095703125 123.541015625 202.095703125 123.2939453125V123.1591796875Q202.095703125 122.912109375 201.916015625 122.732421875Q201.736328125 122.552734375 201.4892578125 122.552734375H194.0771484375Q192.5498046875 122.552734375 191.46044921875 121.46337890625Q190.37109375 120.3740234375 190.37109375 118.8466796875Q190.37109375 117.3193359375 191.46044921875 116.22998046875Q192.5498046875 115.140625 194.0771484375 115.140625H205.1953125V118.240234375H194.0771484375Q193.830078125 118.240234375 193.650390625 118.419921875Q193.470703125 118.599609375 193.470703125 118.8466796875Q193.470703125 119.09375 193.650390625 119.2734375Q193.830078125 119.453125 194.0771484375 119.453125H201.4892578125Q203.0166015625 119.453125 204.10595703125 120.54248046875Q205.1953125 121.6318359375 205.1953125 123.1591796875V123.2939453125Q205.1953125 124.8212890625 204.10595703125 125.91064453125Q203.0166015625 127.0 201.4892578125 127.0ZM208.294921875 123.2939453125V118.8466796875Q208.294921875 117.3193359375 209.38427734375 116.22998046875Q210.4736328125 115.140625 212.0009765625 115.140625H219.4130859375Q220.9404296875 115.140625 222.02978515625 116.22998046875Q223.119140625 117.3193359375 223.119140625 118.8466796875Q223.119140625 120.3740234375 222.02978515625 121.46337890625Q220.9404296875 122.552734375 219.4130859375 122.552734375H212.7421875V119.453125H219.4130859375Q219.66015625 119.453125 219.83984375 119.2734375Q220.01953125 119.09375 220.01953125 118.8466796875Q220.01953125 118.599609375 219.83984375 118.419921875Q219.66015625 118.240234375 219.4130859375 118.240234375H212.0009765625Q211.75390625 118.240234375 211.57421875 118.419921875Q211.39453125 118.599609375 211.39453125 118.8466796875V123.2939453125Q211.39453125 123.541015625 211.57421875 123.720703125Q211.75390625 123.900390625 212.0009765625 123.900390625H223.119140625V127.0H212.0009765625Q210.4736328125 127.0 209.38427734375 125.91064453125Q208.294921875 124.8212890625 208.294921875 123.2939453125ZM226.21875 118.240234375V115.140625H237.3369140625Q238.8642578125 115.140625 239.95361328125 116.22998046875Q241.04296875 117.3193359375 241.04296875 118.8466796875V123.2939453125Q241.04296875 124.8212890625 239.95361328125 125.91064453125Q238.8642578125 127.0 237.3369140625 127.0H229.9248046875Q228.3974609375 127.0 227.30810546875 125.91064453125Q226.21875 124.8212890625 226.21875 123.2939453125Q226.21875 121.7666015625 227.30810546875 120.67724609375Q228.3974609375 119.587890625 229.9248046875 119.587890625H236.595703125V122.6875H229.9248046875Q229.677734375 122.6875 229.498046875 122.8671875Q229.318359375 123.046875 229.318359375 123.2939453125Q229.318359375 123.541015625 229.498046875 123.720703125Q229.677734375 123.900390625 229.9248046875 123.900390625H237.3369140625Q237.583984375 123.900390625 237.763671875 123.720703125Q237.943359375 123.541015625 237.943359375 123.2939453125V118.8466796875Q237.943359375 118.599609375 237.763671875 118.419921875Q237.583984375 118.240234375 237.3369140625 118.240234375ZM244.142578125 127.0V115.140625H255.2607421875Q256.7880859375 115.140625 257.87744140625 116.22998046875Q258.966796875 117.3193359375 258.966796875 118.8466796875Q258.966796875 120.0595703125 258.2705078125 121.0029296875Q258.966796875 121.9462890625 258.966796875 123.1591796875V127.0H255.8671875V123.1591796875Q255.8671875 122.912109375 255.6875 122.732421875Q255.5078125 122.552734375 255.2607421875 122.552734375H248.58984375V119.453125H255.2607421875Q255.5078125 119.453125 255.6875 119.2734375Q255.8671875 119.09375 255.8671875 118.8466796875Q255.8671875 118.599609375 255.6875 118.419921875Q255.5078125 118.240234375 255.2607421875 118.240234375H247.2421875V127.0ZM262.06640625 123.2939453125V118.8466796875Q262.06640625 117.3193359375 263.15576171875 116.22998046875Q264.2451171875 115.140625 265.7724609375 115.140625H276.890625V118.240234375H265.7724609375Q265.525390625 118.240234375 265.345703125 118.419921875Q265.166015625 118.599609375 265.166015625 118.8466796875V123.2939453125Q265.166015625 123.541015625 265.345703125 123.720703125Q265.525390625 123.900390625 265.7724609375 123.900390625H276.890625V127.0H265.7724609375Q264.2451171875 127.0 263.15576171875 125.91064453125Q262.06640625 124.8212890625 262.06640625 123.2939453125ZM279.990234375 127.0V115.140625H283.08984375V119.453125H291.71484375V115.140625H294.814453125V127.0H291.71484375V122.552734375H283.08984375V127.0ZM309.638671875 123.2939453125V118.8466796875Q309.638671875 117.3193359375 310.72802734375 116.22998046875Q311.8173828125 115.140625 313.3447265625 115.140625H324.462890625V118.240234375H313.3447265625Q313.09765625 118.240234375 312.91796875 118.419921875Q312.73828125 118.599609375 312.73828125 118.8466796875V123.2939453125Q312.73828125 123.541015625 312.91796875 123.720703125Q313.09765625 123.900390625 313.3447265625 123.900390625H324.462890625V127.0H313.3447265625Q311.8173828125 127.0 310.72802734375 125.91064453125Q309.638671875 124.8212890625 309.638671875 123.2939453125ZM327.5625 127.0V115.140625H330.662109375V119.453125H339.287109375V115.140625H342.38671875V127.0H339.287109375V122.552734375H330.662109375V127.0ZM345.486328125 118.240234375V115.140625H356.6044921875Q358.1318359375 115.140625 359.22119140625 116.22998046875Q360.310546875 117.3193359375 360.310546875 118.8466796875V123.2939453125Q360.310546875 124.8212890625 359.22119140625 125.91064453125Q358.1318359375 127.0 356.6044921875 127.0H349.1923828125Q347.6650390625 127.0 346.57568359375 125.91064453125Q345.486328125 124.8212890625 345.486328125 123.2939453125Q345.486328125 121.7666015625 346.57568359375 120.67724609375Q347.6650390625 119.587890625 349.1923828125 119.587890625H355.86328125V122.6875H349.1923828125Q348.9453125 122.6875 348.765625 122.8671875Q348.5859375 123.046875 348.5859375 123.2939453125Q348.5859375 123.541015625 348.765625 123.720703125Q348.9453125 123.900390625 349.1923828125 123.900390625H356.6044921875Q356.8515625 123.900390625 357.03125 123.720703125Q357.2109375 123.541015625 357.2109375 123.2939453125V118.8466796875Q357.2109375 118.599609375 357.03125 118.419921875Q356.8515625 118.240234375 356.6044921875 118.240234375ZM363.41015625 127.0V115.140625H374.5283203125Q376.0556640625 115.140625 377.14501953125 116.22998046875Q378.234375 117.3193359375 378.234375 118.8466796875Q378.234375 120.0595703125 377.5380859375 121.0029296875Q378.234375 121.9462890625 378.234375 123.1591796875V127.0H375.134765625V123.1591796875Q375.134765625 122.912109375 374.955078125 122.732421875Q374.775390625 122.552734375 374.5283203125 122.552734375H367.857421875V119.453125H374.5283203125Q374.775390625 119.453125 374.955078125 119.2734375Q375.134765625 119.09375 375.134765625 118.8466796875Q375.134765625 118.599609375 374.955078125 118.419921875Q374.775390625 118.240234375 374.5283203125 118.240234375H366.509765625V127.0ZM381.333984375 127.0V123.900390625H392.4521484375Q392.69921875 123.900390625 392.87890625 123.720703125Q393.05859375 123.541015625 393.05859375 123.2939453125V118.8466796875Q393.05859375 118.599609375 392.87890625 118.419921875Q392.69921875 118.240234375 392.4521484375 118.240234375H385.0400390625Q384.79296875 118.240234375 384.61328125 118.419921875Q384.43359375 118.599609375 384.43359375 118.8466796875Q384.43359375 119.09375 384.61328125 119.2734375Q384.79296875 119.453125 385.0400390625 119.453125H391.7109375V122.552734375H385.0400390625Q383.5126953125 122.552734375 382.42333984375 121.46337890625Q381.333984375 120.3740234375 381.333984375 118.8466796875Q381.333984375 117.3193359375 382.42333984375 116.22998046875Q383.5126953125 115.140625 385.0400390625 115.140625H392.4521484375Q393.9794921875 115.140625 395.06884765625 116.22998046875Q396.158203125 117.3193359375 396.158203125 118.8466796875V123.2939453125Q396.158203125 124.8212890625 395.06884765625 125.91064453125Q393.9794921875 127.0 392.4521484375 127.0ZM399.2578125 123.2939453125V118.8466796875Q399.2578125 117.3193359375 400.34716796875 116.22998046875Q401.4365234375 115.140625 402.9638671875 115.140625H410.3759765625Q411.9033203125 115.140625 412.99267578125 116.22998046875Q414.08203125 117.3193359375 414.08203125 118.8466796875Q414.08203125 120.3740234375 412.99267578125 121.46337890625Q411.9033203125 122.552734375 410.3759765625 122.552734375H403.705078125V119.453125H410.3759765625Q410.623046875 119.453125 410.802734375 119.2734375Q410.982421875 119.09375 410.982421875 118.8466796875Q410.982421875 118.599609375 410.802734375 118.419921875Q410.623046875 118.240234375 410.3759765625 118.240234375H402.9638671875Q402.716796875 118.240234375 402.537109375 118.419921875Q402.357421875 118.599609375 402.357421875 118.8466796875V123.2939453125Q402.357421875 123.541015625 402.537109375 123.720703125Q402.716796875 123.900390625 402.9638671875 123.900390625H414.08203125V127.0H402.9638671875Q401.4365234375 127.0 400.34716796875 125.91064453125Q399.2578125 124.8212890625 399.2578125 123.2939453125ZM417.181640625 127.0V123.900390625H428.2998046875Q428.546875 123.900390625 428.7265625 123.720703125Q428.90625 123.541015625 428.90625 123.2939453125V123.1591796875Q428.90625 122.912109375 428.7265625 122.732421875Q428.546875 122.552734375 428.2998046875 122.552734375H420.8876953125Q419.3603515625 122.552734375 418.27099609375 121.46337890625Q417.181640625 120.3740234375 417.181640625 118.8466796875Q417.181640625 117.3193359375 418.27099609375 116.22998046875Q419.3603515625 115.140625 420.8876953125 115.140625H432.005859375V118.240234375H420.8876953125Q420.640625 118.240234375 420.4609375 118.419921875Q420.28125 118.599609375 420.28125 118.8466796875Q420.28125 119.09375 420.4609375 119.2734375Q420.640625 119.453125 420.8876953125 119.453125H428.2998046875Q429.8271484375 119.453125 430.91650390625 120.54248046875Q432.005859375 121.6318359375 432.005859375 123.1591796875V123.2939453125Q432.005859375 124.8212890625 430.91650390625 125.91064453125Q429.8271484375 127.0 428.2998046875 127.0ZM446.830078125 118.240234375V115.140625H461.654296875V118.240234375H455.7919921875V127.0H452.6923828125V118.240234375ZM464.75390625 127.0V115.140625H467.853515625V119.453125H476.478515625V115.140625H479.578125V127.0H476.478515625V122.552734375H467.853515625V127.0ZM482.677734375 123.2939453125V118.8466796875Q482.677734375 117.3193359375 483.76708984375 116.22998046875Q484.8564453125 115.140625 486.3837890625 115.140625H493.7958984375Q495.3232421875 115.140625 496.41259765625 116.22998046875Q497.501953125 117.3193359375 497.501953125 118.8466796875Q497.501953125 120.3740234375 496.41259765625 121.46337890625Q495.3232421875 122.552734375 493.7958984375 122.552734375H487.125V119.453125H493.7958984375Q494.04296875 119.453125 494.22265625 119.2734375Q494.40234375 119.09375 494.40234375 118.8466796875Q494.40234375 118.599609375 494.22265625 118.419921875Q494.04296875 118.240234375 493.7958984375 118.240234375H486.3837890625Q486.13671875 118.240234375 485.95703125 118.419921875Q485.77734375 118.599609375 485.77734375 118.8466796875V123.2939453125Q485.77734375 123.541015625 485.95703125 123.720703125Q486.13671875 123.900390625 486.3837890625 123.900390625H497.501953125V127.0H486.3837890625Q484.8564453125 127.0 483.76708984375 125.91064453125Q482.677734375 124.8212890625 482.677734375 123.2939453125ZM512.326171875 127.0V118.8466796875Q512.326171875 117.3193359375 513.41552734375 116.22998046875Q514.5048828125 115.140625 516.0322265625 115.140625H523.4443359375Q524.9716796875 115.140625 526.06103515625 116.22998046875Q527.150390625 117.3193359375 527.150390625 118.8466796875Q527.150390625 120.3740234375 526.06103515625 121.46337890625Q524.9716796875 122.552734375 523.4443359375 122.552734375H516.7734375V119.453125H523.4443359375Q523.69140625 119.453125 523.87109375 119.2734375Q524.05078125 119.09375 524.05078125 118.8466796875Q524.05078125 118.599609375 523.87109375 118.419921875Q523.69140625 118.240234375 523.4443359375 118.240234375H516.0322265625Q515.78515625 118.240234375 515.60546875 118.419921875Q515.42578125 118.599609375 515.42578125 118.8466796875V127.0ZM530.25 123.2939453125V115.140625H533.349609375V123.2939453125Q533.349609375 123.541015625 533.529296875 123.720703125Q533.708984375 123.900390625 533.9560546875 123.900390625H537.796875V127.0H533.9560546875Q532.4287109375 127.0 531.33935546875 125.91064453125Q530.25 124.8212890625 530.25 123.2939453125ZM540.896484375 118.240234375V115.140625H552.0146484375Q553.5419921875 115.140625 554.63134765625 116.22998046875Q555.720703125 117.3193359375 555.720703125 118.8466796875V123.2939453125Q555.720703125 124.8212890625 554.63134765625 125.91064453125Q553.5419921875 127.0 552.0146484375 127.0H544.6025390625Q543.0751953125 127.0 541.98583984375 125.91064453125Q540.896484375 124.8212890625 540.896484375 123.2939453125Q540.896484375 121.7666015625 541.98583984375 120.67724609375Q543.0751953125 119.587890625 544.6025390625 119.587890625H551.2734375V122.6875H544.6025390625Q544.35546875 122.6875 544.17578125 122.8671875Q543.99609375 123.046875 543.99609375 123.2939453125Q543.99609375 123.541015625 544.17578125 123.720703125Q544.35546875 123.900390625 544.6025390625 123.900390625H552.0146484375Q552.26171875 123.900390625 552.44140625 123.720703125Q552.62109375 123.541015625 552.62109375 123.2939453125V118.8466796875Q552.62109375 118.599609375 552.44140625 118.419921875Q552.26171875 118.240234375 552.0146484375 118.240234375ZM558.8203125 127.0V123.900390625H569.9384765625Q570.185546875 123.900390625 570.365234375 123.720703125Q570.544921875 123.541015625 570.544921875 123.2939453125V123.1591796875Q570.544921875 122.912109375 570.365234375 122.732421875Q570.185546875 122.552734375 569.9384765625 122.552734375H562.5263671875Q560.9990234375 122.552734375 559.90966796875 121.46337890625Q558.8203125 120.3740234375 558.8203125 118.8466796875Q558.8203125 117.3193359375 559.90966796875 116.22998046875Q560.9990234375 115.140625 562.5263671875 115.140625H573.64453125V118.240234375H562.5263671875Q562.279296875 118.240234375 562.099609375 118.419921875Q561.919921875 118.599609375 561.919921875 118.8466796875Q561.919921875 119.09375 562.099609375 119.2734375Q562.279296875 119.453125 562.5263671875 119.453125H569.9384765625Q571.4658203125 119.453125 572.55517578125 120.54248046875Q573.64453125 121.6318359375 573.64453125 123.1591796875V123.2939453125Q573.64453125 124.8212890625 572.55517578125 125.91064453125Q571.4658203125 127.0 569.9384765625 127.0ZM576.744140625 127.0V118.8466796875Q576.744140625 117.1845703125 577.87841796875 116.16259765625Q579.0126953125 115.140625 580.9892578125 115.140625Q582.6064453125 115.140625 583.6845703125 115.8369140625Q584.7626953125 115.140625 586.3798828125 115.140625Q588.3564453125 115.140625 589.49072265625 116.16259765625Q590.625 117.1845703125 590.625 118.8466796875V127.0H587.525390625V118.8466796875Q587.525390625 118.240234375 586.3798828125 118.240234375Q585.234375 118.240234375 585.234375 118.8466796875V127.0H582.134765625V118.8466796875Q582.134765625 118.240234375 580.9892578125 118.240234375Q579.84375 118.240234375 579.84375 118.8466796875V127.0ZM593.724609375 118.240234375V115.140625H604.8427734375Q606.3701171875 115.140625 607.45947265625 116.22998046875Q608.548828125 117.3193359375 608.548828125 118.8466796875V123.2939453125Q608.548828125 124.8212890625 607.45947265625 125.91064453125Q606.3701171875 127.0 604.8427734375 127.0H597.4306640625Q595.9033203125 127.0 594.81396484375 125.91064453125Q593.724609375 124.8212890625 593.724609375 123.2939453125Q593.724609375 121.7666015625 594.81396484375 120.67724609375Q595.9033203125 119.587890625 597.4306640625 119.587890625H604.1015625V122.6875H597.4306640625Q597.18359375 122.6875 597.00390625 122.8671875Q596.82421875 123.046875 596.82421875 123.2939453125Q596.82421875 123.541015625 597.00390625 123.720703125Q597.18359375 123.900390625 597.4306640625 123.900390625H604.8427734375Q605.08984375 123.900390625 605.26953125 123.720703125Q605.44921875 123.541015625 605.44921875 123.2939453125V118.8466796875Q605.44921875 118.599609375 605.26953125 118.419921875Q605.08984375 118.240234375 604.8427734375 118.240234375ZM623.373046875 115.140625H626.47265625V123.2939453125Q626.47265625 123.541015625 626.65234375 123.720703125Q626.83203125 123.900390625 627.0791015625 123.900390625H634.4912109375Q634.73828125 123.900390625 634.91796875 123.720703125Q635.09765625 123.541015625 635.09765625 123.2939453125Q635.09765625 123.046875 634.91796875 122.8671875Q634.73828125 122.6875 634.4912109375 122.6875H627.8203125V119.587890625H634.4912109375Q636.0185546875 119.587890625 637.10791015625 120.67724609375Q638.197265625 121.7666015625 638.197265625 123.2939453125Q638.197265625 124.8212890625 637.10791015625 125.91064453125Q636.0185546875 127.0 634.4912109375 127.0H627.0791015625Q625.5517578125 127.0 624.46240234375 125.91064453125Q623.373046875 124.8212890625 623.373046875 123.2939453125ZM644.396484375 123.2939453125Q644.396484375 123.541015625 644.576171875 123.720703125Q644.755859375 123.900390625 645.0029296875 123.900390625H652.4150390625Q652.662109375 123.900390625 652.841796875 123.720703125Q653.021484375 123.541015625 653.021484375 123.2939453125V118.8466796875Q653.021484375 118.599609375 652.841796875 118.419921875Q652.662109375 118.240234375 652.4150390625 118.240234375H645.0029296875Q644.755859375 118.240234375 644.576171875 118.419921875Q644.396484375 118.599609375 644.396484375 118.8466796875ZM641.296875 123.2939453125V118.8466796875Q641.296875 117.3193359375 642.38623046875 116.22998046875Q643.4755859375 115.140625 645.0029296875 115.140625H652.4150390625Q653.9423828125 115.140625 655.03173828125 116.22998046875Q656.12109375 117.3193359375 656.12109375 118.8466796875V123.2939453125Q656.12109375 124.8212890625 655.03173828125 125.91064453125Q653.9423828125 127.0 652.4150390625 127.0H645.0029296875Q643.4755859375 127.0 642.38623046875 125.91064453125Q641.296875 124.8212890625 641.296875 123.2939453125ZM659.220703125 123.2939453125V115.140625H662.3203125V123.2939453125Q662.3203125 123.541015625 662.5 123.720703125Q662.6796875 123.900390625 662.9267578125 123.900390625H666.767578125V127.0H662.9267578125Q661.3994140625 127.0 660.31005859375 125.91064453125Q659.220703125 124.8212890625 659.220703125 123.2939453125ZM669.8671875 118.240234375V115.140625H684.69140625V118.240234375H678.8291015625V127.0H675.7294921875V118.240234375Z" fill="#3a3f47"/><path d="M30.0 158.90625V156.75H37.734375Q38.796875 156.75 39.5546875 157.5078125Q40.3125 158.265625 40.3125 159.328125V162.421875Q40.3125 163.484375 39.5546875 164.2421875Q38.796875 165.0 37.734375 165.0H32.578125Q31.515625 165.0 30.7578125 164.2421875Q30.0 163.484375 30.0 162.421875Q30.0 161.359375 30.7578125 160.6015625Q31.515625 159.84375 32.578125 159.84375H37.21875V162.0H32.578125Q32.40625 162.0 32.28125 162.125Q32.15625 162.25 32.15625 162.421875Q32.15625 162.59375 32.28125 162.71875Q32.40625 162.84375 32.578125 162.84375H37.734375Q37.90625 162.84375 38.03125 162.71875Q38.15625 162.59375 38.15625 162.421875V159.328125Q38.15625 159.15625 38.03125 159.03125Q37.90625 158.90625 37.734375 158.90625ZM42.46875 156.75H44.625V162.421875Q44.625 162.59375 44.75 162.71875Q44.875 162.84375 45.046875 162.84375H50.203125Q50.375 162.84375 50.5 162.71875Q50.625 162.59375 50.625 162.421875Q50.625 162.25 50.5 162.125Q50.375 162.0 50.203125 162.0H45.5625V159.84375H50.203125Q51.265625 159.84375 52.0234375 160.6015625Q52.78125 161.359375 52.78125 162.421875Q52.78125 163.484375 52.0234375 164.2421875Q51.265625 165.0 50.203125 165.0H45.046875Q43.984375 165.0 43.2265625 164.2421875Q42.46875 163.484375 42.46875 162.421875ZM54.9375 162.421875V159.328125Q54.9375 158.265625 55.6953125 157.5078125Q56.453125 156.75 57.515625 156.75H65.25V158.90625H57.515625Q57.34375 158.90625 57.21875 159.03125Q57.09375 159.15625 57.09375 159.328125V162.421875Q57.09375 162.59375 57.21875 162.71875Q57.34375 162.84375 57.515625 162.84375H65.25V165.0H57.515625Q56.453125 165.0 55.6953125 164.2421875Q54.9375 163.484375 54.9375 162.421875ZM67.40625 165.0V159.328125Q67.40625 158.265625 68.1640625 157.5078125Q68.921875 156.75 69.984375 156.75H75.140625Q76.203125 156.75 76.9609375 157.5078125Q77.71875 158.265625 77.71875 159.328125V162.421875Q77.71875 163.484375 76.9609375 164.2421875Q76.203125 165.0 75.140625 165.0H70.5V162.84375H75.140625Q75.3125 162.84375 75.4375 162.71875Q75.5625 162.59375 75.5625 162.421875V159.328125Q75.5625 159.15625 75.4375 159.03125Q75.3125 158.90625 75.140625 158.90625H69.984375Q69.8125 158.90625 69.6875 159.03125Q69.5625 159.15625 69.5625 159.328125V165.0ZM79.875 162.421875V159.328125Q79.875 158.265625 80.6328125 157.5078125Q81.390625 156.75 82.453125 156.75H87.609375Q88.671875 156.75 89.4296875 157.5078125Q90.1875 158.265625 90.1875 159.328125Q90.1875 160.390625 89.4296875 161.1484375Q88.671875 161.90625 87.609375 161.90625H82.96875V159.75H87.609375Q87.78125 159.75 87.90625 159.625Q88.03125 159.5 88.03125 159.328125Q88.03125 159.15625 87.90625 159.03125Q87.78125 158.90625 87.609375 158.90625H82.453125Q82.28125 158.90625 82.15625 159.03125Q82.03125 159.15625 82.03125 159.328125V162.421875Q82.03125 162.59375 82.15625 162.71875Q82.28125 162.84375 82.453125 162.84375H90.1875V165.0H82.453125Q81.390625 165.0 80.6328125 164.2421875Q79.875 163.484375 79.875 162.421875ZM92.34375 165.0V159.328125Q92.34375 158.265625 93.1015625 157.5078125Q93.859375 156.75 94.921875 156.75H102.65625V158.90625H94.921875Q94.75 158.90625 94.625 159.03125Q94.5 159.15625 94.5 159.328125V159.75H102.65625V161.90625H94.5V165.0ZM104.8125 165.0V162.84375H112.546875Q112.71875 162.84375 112.84375 162.71875Q112.96875 162.59375 112.96875 162.421875V159.328125Q112.96875 159.15625 112.84375 159.03125Q112.71875 158.90625 112.546875 158.90625H107.390625Q107.21875 158.90625 107.09375 159.03125Q106.96875 159.15625 106.96875 159.328125Q106.96875 159.5 107.09375 159.625Q107.21875 159.75 107.390625 159.75H112.03125V161.90625H107.390625Q106.328125 161.90625 105.5703125 161.1484375Q104.8125 160.390625 104.8125 159.328125Q104.8125 158.265625 105.5703125 157.5078125Q106.328125 156.75 107.390625 156.75H112.546875Q113.609375 156.75 114.3671875 157.5078125Q115.125 158.265625 115.125 159.328125V162.421875Q115.125 163.484375 114.3671875 164.2421875Q113.609375 165.0 112.546875 165.0ZM117.28125 165.0V156.75H119.4375V159.75H125.4375V156.75H127.59375V165.0H125.4375V161.90625H119.4375V165.0ZM129.75 165.0V156.75H131.90625V165.0ZM134.0625 165.0V162.84375H136.734375Q136.90625 162.84375 137.03125 162.71875Q137.15625 162.59375 137.15625 162.421875V156.75H139.3125V162.421875Q139.3125 163.484375 138.5546875 164.2421875Q137.796875 165.0 136.734375 165.0ZM141.46875 165.0V156.75H143.625V159.75H149.203125Q149.375 159.75 149.5 159.625Q149.625 159.5 149.625 159.328125V156.75H151.78125V159.328125Q151.78125 160.171875 151.296875 160.828125Q151.78125 161.484375 151.78125 162.328125V165.0H149.625V162.328125Q149.625 162.15625 149.5 162.03125Q149.375 161.90625 149.203125 161.90625H143.625V165.0ZM153.9375 162.421875V156.75H156.09375V162.421875Q156.09375 162.59375 156.21875 162.71875Q156.34375 162.84375 156.515625 162.84375H159.1875V165.0H156.515625Q155.453125 165.0 154.6953125 164.2421875Q153.9375 163.484375 153.9375 162.421875ZM161.34375 165.0V159.328125Q161.34375 158.171875 162.1328125 157.4609375Q162.921875 156.75 164.296875 156.75Q165.421875 156.75 166.171875 157.234375Q166.921875 156.75 168.046875 156.75Q169.421875 156.75 170.2109375 157.4609375Q171.0 158.171875 171.0 159.328125V165.0H168.84375V159.328125Q168.84375 158.90625 168.046875 158.90625Q167.25 158.90625 167.25 159.328125V165.0H165.09375V159.328125Q165.09375 158.90625 164.296875 158.90625Q163.5 158.90625 163.5 159.328125V165.0ZM173.15625 165.0V159.328125Q173.15625 158.265625 173.9140625 157.5078125Q174.671875 156.75 175.734375 156.75H180.890625Q181.953125 156.75 182.7109375 157.5078125Q183.46875 158.265625 183.46875 159.328125V165.0H181.3125V159.328125Q181.3125 159.15625 181.1875 159.03125Q181.0625 158.90625 180.890625 158.90625H175.734375Q175.5625 158.90625 175.4375 159.03125Q175.3125 159.15625 175.3125 159.328125V165.0ZM187.78125 162.421875Q187.78125 162.59375 187.90625 162.71875Q188.03125 162.84375 188.203125 162.84375H193.359375Q193.53125 162.84375 193.65625 162.71875Q193.78125 162.59375 193.78125 162.421875V159.328125Q193.78125 159.15625 193.65625 159.03125Q193.53125 158.90625 193.359375 158.90625H188.203125Q188.03125 158.90625 187.90625 159.03125Q187.78125 159.15625 187.78125 159.328125ZM185.625 162.421875V159.328125Q185.625 158.265625 186.3828125 157.5078125Q187.140625 156.75 188.203125 156.75H193.359375Q194.421875 156.75 195.1796875 157.5078125Q195.9375 158.265625 195.9375 159.328125V162.421875Q195.9375 163.484375 195.1796875 164.2421875Q194.421875 165.0 193.359375 165.0H188.203125Q187.140625 165.0 186.3828125 164.2421875Q185.625 163.484375 185.625 162.421875ZM198.09375 165.0V159.328125Q198.09375 158.265625 198.8515625 157.5078125Q199.609375 156.75 200.671875 156.75H205.828125Q206.890625 156.75 207.6484375 157.5078125Q208.40625 158.265625 208.40625 159.328125Q208.40625 160.390625 207.6484375 161.1484375Q206.890625 161.90625 205.828125 161.90625H201.1875V159.75H205.828125Q206.0 159.75 206.125 159.625Q206.25 159.5 206.25 159.328125Q206.25 159.15625 206.125 159.03125Q206.0 158.90625 205.828125 158.90625H200.671875Q200.5 158.90625 200.375 159.03125Q200.25 159.15625 200.25 159.328125V165.0ZM210.5625 162.421875V159.328125Q210.5625 158.265625 211.3203125 157.5078125Q212.078125 156.75 213.140625 156.75H218.296875Q219.359375 156.75 220.1171875 157.5078125Q220.875 158.265625 220.875 159.328125V162.421875Q220.875 163.484375 220.1171875 164.2421875Q219.359375 165.0 218.296875 165.0H217.78125V166.96875H215.625V165.0H213.140625Q212.078125 165.0 211.3203125 164.2421875Q210.5625 163.484375 210.5625 162.421875ZM212.71875 162.421875Q212.71875 162.59375 212.84375 162.71875Q212.96875 162.84375 213.140625 162.84375H215.625V160.875H217.78125V162.84375H218.296875Q218.46875 162.84375 218.59375 162.71875Q218.71875 162.59375 218.71875 162.421875V159.328125Q218.71875 159.15625 218.59375 159.03125Q218.46875 158.90625 218.296875 158.90625H213.140625Q212.96875 158.90625 212.84375 159.03125Q212.71875 159.15625 212.71875 159.328125ZM223.03125 165.0V156.75H230.765625Q231.828125 156.75 232.5859375 157.5078125Q233.34375 158.265625 233.34375 159.328125Q233.34375 160.171875 232.859375 160.828125Q233.34375 161.484375 233.34375 162.328125V165.0H231.1875V162.328125Q231.1875 162.15625 231.0625 162.03125Q230.9375 161.90625 230.765625 161.90625H226.125V159.75H230.765625Q230.9375 159.75 231.0625 159.625Q231.1875 159.5 231.1875 159.328125Q231.1875 159.15625 231.0625 159.03125Q230.9375 158.90625 230.765625 158.90625H225.1875V165.0ZM235.5 165.0V162.84375H243.234375Q243.40625 162.84375 243.53125 162.71875Q243.65625 162.59375 243.65625 162.421875V162.328125Q243.65625 162.15625 243.53125 162.03125Q243.40625 161.90625 243.234375 161.90625H238.078125Q237.015625 161.90625 236.2578125 161.1484375Q235.5 160.390625 235.5 159.328125Q235.5 158.265625 236.2578125 157.5078125Q237.015625 156.75 238.078125 156.75H245.8125V158.90625H238.078125Q237.90625 158.90625 237.78125 159.03125Q237.65625 159.15625 237.65625 159.328125Q237.65625 159.5 237.78125 159.625Q237.90625 159.75 238.078125 159.75H243.234375Q244.296875 159.75 245.0546875 160.5078125Q245.8125 161.265625 245.8125 162.328125V162.421875Q245.8125 163.484375 245.0546875 164.2421875Q244.296875 165.0 243.234375 165.0ZM247.96875 158.90625V156.75H258.28125V158.90625H254.203125V165.0H252.046875V158.90625ZM260.4375 156.75H262.59375V162.421875Q262.59375 162.59375 262.71875 162.71875Q262.84375 162.84375 263.015625 162.84375H268.171875Q268.34375 162.84375 268.46875 162.71875Q268.59375 162.59375 268.59375 162.421875V156.75H270.75V162.421875Q270.75 163.484375 269.9921875 164.2421875Q269.234375 165.0 268.171875 165.0H263.015625Q261.953125 165.0 261.1953125 164.2421875Q260.4375 163.484375 260.4375 162.421875ZM272.90625 158.90625V156.75H275.0625Q276.125 156.75 276.8828125 157.5078125Q277.640625 158.265625 277.640625 159.328125V162.421875Q277.640625 162.59375 277.765625 162.71875Q277.890625 162.84375 278.0625 162.84375Q278.234375 162.84375 278.359375 162.71875Q278.484375 162.59375 278.484375 162.421875V159.328125Q278.484375 158.265625 279.2421875 157.5078125Q280.0 156.75 281.0625 156.75H283.21875V158.90625H281.0625Q280.890625 158.90625 280.765625 159.03125Q280.640625 159.15625 280.640625 159.328125V162.421875Q280.640625 163.484375 279.8828125 164.2421875Q279.125 165.0 278.0625 165.0Q277.0 165.0 276.2421875 164.2421875Q275.484375 163.484375 275.484375 162.421875V159.328125Q275.484375 159.15625 275.359375 159.03125Q275.234375 158.90625 275.0625 158.90625ZM285.375 156.75H287.53125V162.421875Q287.53125 162.84375 288.328125 162.84375Q289.125 162.84375 289.125 162.421875V156.75H291.28125V162.421875Q291.28125 162.84375 292.078125 162.84375Q292.875 162.84375 292.875 162.421875V156.75H295.03125V162.421875Q295.03125 163.578125 294.2421875 164.2890625Q293.453125 165.0 292.078125 165.0Q290.953125 165.0 290.203125 164.515625Q289.453125 165.0 288.328125 165.0Q286.953125 165.0 286.1640625 164.2890625Q285.375 163.578125 285.375 162.421875ZM297.1875 165.0V162.328125Q297.1875 161.484375 297.671875 160.828125Q297.1875 160.171875 297.1875 159.328125V156.75H299.34375V159.328125Q299.34375 159.5 299.46875 159.625Q299.59375 159.75 299.765625 159.75H304.921875Q305.09375 159.75 305.21875 159.625Q305.34375 159.5 305.34375 159.328125V156.75H307.5V159.328125Q307.5 160.171875 307.015625 160.828125Q307.5 161.484375 307.5 162.328125V165.0H305.34375V162.328125Q305.34375 162.15625 305.21875 162.03125Q305.09375 161.90625 304.921875 161.90625H299.765625Q299.59375 161.90625 299.46875 162.03125Q299.34375 162.15625 299.34375 162.328125V165.0ZM309.65625 165.0V162.84375H317.390625Q317.5625 162.84375 317.6875 162.71875Q317.8125 162.59375 317.8125 162.421875V162.328125Q317.8125 162.15625 317.6875 162.03125Q317.5625 161.90625 317.390625 161.90625H312.234375Q311.171875 161.90625 310.4140625 161.1484375Q309.65625 160.390625 309.65625 159.328125V156.75H311.8125V159.328125Q311.8125 159.5 311.9375 159.625Q312.0625 159.75 312.234375 159.75H317.390625Q317.5625 159.75 317.6875 159.625Q317.8125 159.5 317.8125 159.328125V156.75H319.96875V159.328125Q319.96875 160.171875 319.484375 160.828125Q319.96875 161.484375 319.96875 162.328125V162.421875Q319.96875 163.484375 319.2109375 164.2421875Q318.453125 165.0 317.390625 165.0ZM322.125 158.90625V156.75H329.859375Q330.921875 156.75 331.6796875 157.5078125Q332.4375 158.265625 332.4375 159.328125Q332.4375 160.390625 331.6796875 161.1484375Q330.921875 161.90625 329.859375 161.90625H324.703125Q324.53125 161.90625 324.40625 162.03125Q324.28125 162.15625 324.28125 162.328125V162.421875Q324.28125 162.59375 324.40625 162.71875Q324.53125 162.84375 324.703125 162.84375H332.4375V165.0H324.703125Q323.640625 165.0 322.8828125 164.2421875Q322.125 163.484375 322.125 162.421875V162.328125Q322.125 161.265625 322.8828125 160.5078125Q323.640625 159.75 324.703125 159.75H329.859375Q330.03125 159.75 330.15625 159.625Q330.28125 159.5 330.28125 159.328125Q330.28125 159.15625 330.15625 159.03125Q330.03125 158.90625 329.859375 158.90625Z" fill="#6b7280"/><path d="M30.0 187.90625V185.75H37.734375Q38.796875 185.75 39.5546875 186.5078125Q40.3125 187.265625 40.3125 188.328125V191.421875Q40.3125 192.484375 39.5546875 193.2421875Q38.796875 194.0 37.734375 194.0H32.578125Q31.515625 194.0 30.7578125 193.2421875Q30.0 192.484375 30.0 191.421875Q30.0 190.359375 30.7578125 189.6015625Q31.515625 188.84375 32.578125 188.84375H37.21875V191.0H32.578125Q32.40625 191.0 32.28125 191.125Q32.15625 191.25 32.15625 191.421875Q32.15625 191.59375 32.28125 191.71875Q32.40625 191.84375 32.578125 191.84375H37.734375Q37.90625 191.84375 38.03125 191.71875Q38.15625 191.59375 38.15625 191.421875V188.328125Q38.15625 188.15625 38.03125 188.03125Q37.90625 187.90625 37.734375 187.90625ZM42.46875 185.75H44.625V191.421875Q44.625 191.59375 44.75 191.71875Q44.875 191.84375 45.046875 191.84375H50.203125Q50.375 191.84375 50.5 191.71875Q50.625 191.59375 50.625 191.421875Q50.625 191.25 50.5 191.125Q50.375 191.0 50.203125 191.0H45.5625V188.84375H50.203125Q51.265625 188.84375 52.0234375 189.6015625Q52.78125 190.359375 52.78125 191.421875Q52.78125 192.484375 52.0234375 193.2421875Q51.265625 194.0 50.203125 194.0H45.046875Q43.984375 194.0 43.2265625 193.2421875Q42.46875 192.484375 42.46875 191.421875ZM54.9375 191.421875V188.328125Q54.9375 187.265625 55.6953125 186.5078125Q56.453125 185.75 57.515625 185.75H65.25V187.90625H57.515625Q57.34375 187.90625 57.21875 188.03125Q57.09375 188.15625 57.09375 188.328125V191.421875Q57.09375 191.59375 57.21875 191.71875Q57.34375 191.84375 57.515625 191.84375H65.25V194.0H57.515625Q56.453125 194.0 55.6953125 193.2421875Q54.9375 192.484375 54.9375 191.421875ZM67.40625 194.0V188.328125Q67.40625 187.265625 68.1640625 186.5078125Q68.921875 185.75 69.984375 185.75H75.140625Q76.203125 185.75 76.9609375 186.5078125Q77.71875 187.265625 77.71875 188.328125V191.421875Q77.71875 192.484375 76.9609375 193.2421875Q76.203125 194.0 75.140625 194.0H70.5V191.84375H75.140625Q75.3125 191.84375 75.4375 191.71875Q75.5625 191.59375 75.5625 191.421875V188.328125Q75.5625 188.15625 75.4375 188.03125Q75.3125 187.90625 75.140625 187.90625H69.984375Q69.8125 187.90625 69.6875 188.03125Q69.5625 188.15625 69.5625 188.328125V194.0ZM79.875 191.421875V188.328125Q79.875 187.265625 80.6328125 186.5078125Q81.390625 185.75 82.453125 185.75H87.609375Q88.671875 185.75 89.4296875 186.5078125Q90.1875 187.265625 90.1875 188.328125Q90.1875 189.390625 89.4296875 190.1484375Q88.671875 190.90625 87.609375 190.90625H82.96875V188.75H87.609375Q87.78125 188.75 87.90625 188.625Q88.03125 188.5 88.03125 188.328125Q88.03125 188.15625 87.90625 188.03125Q87.78125 187.90625 87.609375 187.90625H82.453125Q82.28125 187.90625 82.15625 188.03125Q82.03125 188.15625 82.03125 188.328125V191.421875Q82.03125 191.59375 82.15625 191.71875Q82.28125 191.84375 82.453125 191.84375H90.1875V194.0H82.453125Q81.390625 194.0 80.6328125 193.2421875Q79.875 192.484375 79.875 191.421875ZM92.34375 194.0V188.328125Q92.34375 187.265625 93.1015625 186.5078125Q93.859375 185.75 94.921875 185.75H102.65625V187.90625H94.921875Q94.75 187.90625 94.625 188.03125Q94.5 188.15625 94.5 188.328125V188.75H102.65625V190.90625H94.5V194.0ZM104.8125 194.0V191.84375H112.546875Q112.71875 191.84375 112.84375 191.71875Q112.96875 191.59375 112.96875 191.421875V188.328125Q112.96875 188.15625 112.84375 188.03125Q112.71875 187.90625 112.546875 187.90625H107.390625Q107.21875 187.90625 107.09375 188.03125Q106.96875 188.15625 106.96875 188.328125Q106.96875 188.5 107.09375 188.625Q107.21875 188.75 107.390625 188.75H112.03125V190.90625H107.390625Q106.328125 190.90625 105.5703125 190.1484375Q104.8125 189.390625 104.8125 188.328125Q104.8125 187.265625 105.5703125 186.5078125Q106.328125 185.75 107.390625 185.75H112.546875Q113.609375 185.75 114.3671875 186.5078125Q115.125 187.265625 115.125 188.328125V191.421875Q115.125 192.484375 114.3671875 193.2421875Q113.609375 194.0 112.546875 194.0ZM117.28125 194.0V185.75H119.4375V188.75H125.4375V185.75H127.59375V194.0H125.4375V190.90625H119.4375V194.0ZM129.75 194.0V185.75H131.90625V194.0ZM134.0625 194.0V191.84375H136.734375Q136.90625 191.84375 137.03125 191.71875Q137.15625 191.59375 137.15625 191.421875V185.75H139.3125V191.421875Q139.3125 192.484375 138.5546875 193.2421875Q137.796875 194.0 136.734375 194.0ZM141.46875 194.0V185.75H143.625V188.75H149.203125Q149.375 188.75 149.5 188.625Q149.625 188.5 149.625 188.328125V185.75H151.78125V188.328125Q151.78125 189.171875 151.296875 189.828125Q151.78125 190.484375 151.78125 191.328125V194.0H149.625V191.328125Q149.625 191.15625 149.5 191.03125Q149.375 190.90625 149.203125 190.90625H143.625V194.0ZM153.9375 191.421875V185.75H156.09375V191.421875Q156.09375 191.59375 156.21875 191.71875Q156.34375 191.84375 156.515625 191.84375H159.1875V194.0H156.515625Q155.453125 194.0 154.6953125 193.2421875Q153.9375 192.484375 153.9375 191.421875ZM161.34375 194.0V188.328125Q161.34375 187.171875 162.1328125 186.4609375Q162.921875 185.75 164.296875 185.75Q165.421875 185.75 166.171875 186.234375Q166.921875 185.75 168.046875 185.75Q169.421875 185.75 170.2109375 186.4609375Q171.0 187.171875 171.0 188.328125V194.0H168.84375V188.328125Q168.84375 187.90625 168.046875 187.90625Q167.25 187.90625 167.25 188.328125V194.0H165.09375V188.328125Q165.09375 187.90625 164.296875 187.90625Q163.5 187.90625 163.5 188.328125V194.0ZM173.15625 194.0V188.328125Q173.15625 187.265625 173.9140625 186.5078125Q174.671875 185.75 175.734375 185.75H180.890625Q181.953125 185.75 182.7109375 186.5078125Q183.46875 187.265625 183.46875 188.328125V194.0H181.3125V188.328125Q181.3125 188.15625 181.1875 188.03125Q181.0625 187.90625 180.890625 187.90625H175.734375Q175.5625 187.90625 175.4375 188.03125Q175.3125 188.15625 175.3125 188.328125V194.0ZM187.78125 191.421875Q187.78125 191.59375 187.90625 191.71875Q188.03125 191.84375 188.203125 191.84375H193.359375Q193.53125 191.84375 193.65625 191.71875Q193.78125 191.59375 193.78125 191.421875V188.328125Q193.78125 188.15625 193.65625 188.03125Q193.53125 187.90625 193.359375 187.90625H188.203125Q188.03125 187.90625 187.90625 188.03125Q187.78125 188.15625 187.78125 188.328125ZM185.625 191.421875V188.328125Q185.625 187.265625 186.3828125 186.5078125Q187.140625 185.75 188.203125 185.75H193.359375Q194.421875 185.75 195.1796875 186.5078125Q195.9375 187.265625 195.9375 188.328125V191.421875Q195.9375 192.484375 195.1796875 193.2421875Q194.421875 194.0 193.359375 194.0H188.203125Q187.140625 194.0 186.3828125 193.2421875Q185.625 192.484375 185.625 191.421875ZM198.09375 194.0V188.328125Q198.09375 187.265625 198.8515625 186.5078125Q199.609375 185.75 200.671875 185.75H205.828125Q206.890625 185.75 207.6484375 186.5078125Q208.40625 187.265625 208.40625 188.328125Q208.40625 189.390625 207.6484375 190.1484375Q206.890625 190.90625 205.828125 190.90625H201.1875V188.75H205.828125Q206.0 188.75 206.125 188.625Q206.25 188.5 206.25 188.328125Q206.25 188.15625 206.125 188.03125Q206.0 187.90625 205.828125 187.90625H200.671875Q200.5 187.90625 200.375 188.03125Q200.25 188.15625 200.25 188.328125V194.0ZM210.5625 191.421875V188.328125Q210.5625 187.265625 211.3203125 186.5078125Q212.078125 185.75 213.140625 185.75H218.296875Q219.359375 185.75 220.1171875 186.5078125Q220.875 187.265625 220.875 188.328125V191.421875Q220.875 192.484375 220.1171875 193.2421875Q219.359375 194.0 218.296875 194.0H217.78125V195.96875H215.625V194.0H213.140625Q212.078125 194.0 211.3203125 193.2421875Q210.5625 192.484375 210.5625 191.421875ZM212.71875 191.421875Q212.71875 191.59375 212.84375 191.71875Q212.96875 191.84375 213.140625 191.84375H215.625V189.875H217.78125V191.84375H218.296875Q218.46875 191.84375 218.59375 191.71875Q218.71875 191.59375 218.71875 191.421875V188.328125Q218.71875 188.15625 218.59375 188.03125Q218.46875 187.90625 218.296875 187.90625H213.140625Q212.96875 187.90625 212.84375 188.03125Q212.71875 188.15625 212.71875 188.328125ZM223.03125 194.0V185.75H230.765625Q231.828125 185.75 232.5859375 186.5078125Q233.34375 187.265625 233.34375 188.328125Q233.34375 189.171875 232.859375 189.828125Q233.34375 190.484375 233.34375 191.328125V194.0H231.1875V191.328125Q231.1875 191.15625 231.0625 191.03125Q230.9375 190.90625 230.765625 190.90625H226.125V188.75H230.765625Q230.9375 188.75 231.0625 188.625Q231.1875 188.5 231.1875 188.328125Q231.1875 188.15625 231.0625 188.03125Q230.9375 187.90625 230.765625 187.90625H225.1875V194.0ZM235.5 194.0V191.84375H243.234375Q243.40625 191.84375 243.53125 191.71875Q243.65625 191.59375 243.65625 191.421875V191.328125Q243.65625 191.15625 243.53125 191.03125Q243.40625 190.90625 243.234375 190.90625H238.078125Q237.015625 190.90625 236.2578125 190.1484375Q235.5 189.390625 235.5 188.328125Q235.5 187.265625 236.2578125 186.5078125Q237.015625 185.75 238.078125 185.75H245.8125V187.90625H238.078125Q237.90625 187.90625 237.78125 188.03125Q237.65625 188.15625 237.65625 188.328125Q237.65625 188.5 237.78125 188.625Q237.90625 188.75 238.078125 188.75H243.234375Q244.296875 188.75 245.0546875 189.5078125Q245.8125 190.265625 245.8125 191.328125V191.421875Q245.8125 192.484375 245.0546875 193.2421875Q244.296875 194.0 243.234375 194.0ZM247.96875 187.90625V185.75H258.28125V187.90625H254.203125V194.0H252.046875V187.90625ZM260.4375 185.75H262.59375V191.421875Q262.59375 191.59375 262.71875 191.71875Q262.84375 191.84375 263.015625 191.84375H268.171875Q268.34375 191.84375 268.46875 191.71875Q268.59375 191.59375 268.59375 191.421875V185.75H270.75V191.421875Q270.75 192.484375 269.9921875 193.2421875Q269.234375 194.0 268.171875 194.0H263.015625Q261.953125 194.0 261.1953125 193.2421875Q260.4375 192.484375 260.4375 191.421875ZM272.90625 187.90625V185.75H275.0625Q276.125 185.75 276.8828125 186.5078125Q277.640625 187.265625 277.640625 188.328125V191.421875Q277.640625 191.59375 277.765625 191.71875Q277.890625 191.84375 278.0625 191.84375Q278.234375 191.84375 278.359375 191.71875Q278.484375 191.59375 278.484375 191.421875V188.328125Q278.484375 187.265625 279.2421875 186.5078125Q280.0 185.75 281.0625 185.75H283.21875V187.90625H281.0625Q280.890625 187.90625 280.765625 188.03125Q280.640625 188.15625 280.640625 188.328125V191.421875Q280.640625 192.484375 279.8828125 193.2421875Q279.125 194.0 278.0625 194.0Q277.0 194.0 276.2421875 193.2421875Q275.484375 192.484375 275.484375 191.421875V188.328125Q275.484375 188.15625 275.359375 188.03125Q275.234375 187.90625 275.0625 187.90625ZM285.375 185.75H287.53125V191.421875Q287.53125 191.84375 288.328125 191.84375Q289.125 191.84375 289.125 191.421875V185.75H291.28125V191.421875Q291.28125 191.84375 292.078125 191.84375Q292.875 191.84375 292.875 191.421875V185.75H295.03125V191.421875Q295.03125 192.578125 294.2421875 193.2890625Q293.453125 194.0 292.078125 194.0Q290.953125 194.0 290.203125 193.515625Q289.453125 194.0 288.328125 194.0Q286.953125 194.0 286.1640625 193.2890625Q285.375 192.578125 285.375 191.421875ZM297.1875 194.0V191.328125Q297.1875 190.484375 297.671875 189.828125Q297.1875 189.171875 297.1875 188.328125V185.75H299.34375V188.328125Q299.34375 188.5 299.46875 188.625Q299.59375 188.75 299.765625 188.75H304.921875Q305.09375 188.75 305.21875 188.625Q305.34375 188.5 305.34375 188.328125V185.75H307.5V188.328125Q307.5 189.171875 307.015625 189.828125Q307.5 190.484375 307.5 191.328125V194.0H305.34375V191.328125Q305.34375 191.15625 305.21875 191.03125Q305.09375 190.90625 304.921875 190.90625H299.765625Q299.59375 190.90625 299.46875 191.03125Q299.34375 191.15625 299.34375 191.328125V194.0ZM309.65625 194.0V191.84375H317.390625Q317.5625 191.84375 317.6875 191.71875Q317.8125 191.59375 317.8125 191.421875V191.328125Q317.8125 191.15625 317.6875 191.03125Q317.5625 190.90625 317.390625 190.90625H312.234375Q311.171875 190.90625 310.4140625 190.1484375Q309.65625 189.390625 309.65625 188.328125V185.75H311.8125V188.328125Q311.8125 188.5 311.9375 188.625Q312.0625 188.75 312.234375 188.75H317.390625Q317.5625 188.75 317.6875 188.625Q317.8125 188.5 317.8125 188.328125V185.75H319.96875V188.328125Q319.96875 189.171875 319.484375 189.828125Q319.96875 190.484375 319.96875 191.328125V191.421875Q319.96875 192.484375 319.2109375 193.2421875Q318.453125 194.0 317.390625 194.0ZM322.125 187.90625V185.75H329.859375Q330.921875 185.75 331.6796875 186.5078125Q332.4375 187.265625 332.4375 188.328125Q332.4375 189.390625 331.6796875 190.1484375Q330.921875 190.90625 329.859375 190.90625H324.703125Q324.53125 190.90625 324.40625 191.03125Q324.28125 191.15625 324.28125 191.328125V191.421875Q324.28125 191.59375 324.40625 191.71875Q324.53125 191.84375 324.703125 191.84375H332.4375V194.0H324.703125Q323.640625 194.0 322.8828125 193.2421875Q322.125 192.484375 322.125 191.421875V191.328125Q322.125 190.265625 322.8828125 189.5078125Q323.640625 188.75 324.703125 188.75H329.859375Q330.03125 188.75 330.15625 188.625Q330.28125 188.5 330.28125 188.328125Q330.28125 188.15625 330.15625 188.03125Q330.03125 187.90625 329.859375 187.90625ZM353.0625 191.421875Q353.0625 191.59375 353.1875 191.71875Q353.3125 191.84375 353.484375 191.84375H358.640625Q358.8125 191.84375 358.9375 191.71875Q359.0625 191.59375 359.0625 191.421875V188.328125Q359.0625 188.15625 358.9375 188.03125Q358.8125 187.90625 358.640625 187.90625H353.484375Q353.3125 187.90625 353.1875 188.03125Q353.0625 188.15625 353.0625 188.328125ZM350.90625 191.421875V188.328125Q350.90625 187.265625 351.6640625 186.5078125Q352.421875 185.75 353.484375 185.75H358.640625Q359.703125 185.75 360.4609375 186.5078125Q361.21875 187.265625 361.21875 188.328125V191.421875Q361.21875 192.484375 360.4609375 193.2421875Q359.703125 194.0 358.640625 194.0H353.484375Q352.421875 194.0 351.6640625 193.2421875Q350.90625 192.484375 350.90625 191.421875ZM363.375 194.0V185.75H365.53125V194.0ZM367.6875 194.0V191.328125Q367.6875 190.265625 368.4453125 189.5078125Q369.203125 188.75 370.265625 188.75H375.421875Q375.59375 188.75 375.71875 188.625Q375.84375 188.5 375.84375 188.328125Q375.84375 188.15625 375.71875 188.03125Q375.59375 187.90625 375.421875 187.90625H367.6875V185.75H375.421875Q376.484375 185.75 377.2421875 186.5078125Q378.0 187.265625 378.0 188.328125Q378.0 189.390625 377.2421875 190.1484375Q376.484375 190.90625 375.421875 190.90625H370.265625Q370.09375 190.90625 369.96875 191.03125Q369.84375 191.15625 369.84375 191.328125V191.84375H378.0V194.0ZM380.15625 194.0V191.84375H387.890625Q388.0625 191.84375 388.1875 191.71875Q388.3125 191.59375 388.3125 191.421875V191.328125Q388.3125 191.15625 388.1875 191.03125Q388.0625 190.90625 387.890625 190.90625H380.15625V188.75H387.890625Q388.0625 188.75 388.1875 188.625Q388.3125 188.5 388.3125 188.328125Q388.3125 188.15625 388.1875 188.03125Q388.0625 187.90625 387.890625 187.90625H380.15625V185.75H387.890625Q388.953125 185.75 389.7109375 186.5078125Q390.46875 187.265625 390.46875 188.328125Q390.46875 189.171875 389.984375 189.828125Q390.46875 190.484375 390.46875 191.328125V191.421875Q390.46875 192.484375 389.7109375 193.2421875Q388.953125 194.0 387.890625 194.0ZM392.625 185.75H394.78125V188.328125Q394.78125 188.5 394.90625 188.625Q395.03125 188.75 395.203125 188.75H400.78125V185.75H402.9375V194.0H400.78125V190.90625H395.203125Q394.140625 190.90625 393.3828125 190.1484375Q392.625 189.390625 392.625 188.328125ZM405.09375 194.0V191.84375H412.828125Q413.0 191.84375 413.125 191.71875Q413.25 191.59375 413.25 191.421875V191.328125Q413.25 191.15625 413.125 191.03125Q413.0 190.90625 412.828125 190.90625H407.671875Q406.609375 190.90625 405.8515625 190.1484375Q405.09375 189.390625 405.09375 188.328125V185.75H415.40625V187.90625H407.25V188.328125Q407.25 188.5 407.375 188.625Q407.5 188.75 407.671875 188.75H412.828125Q413.890625 188.75 414.6484375 189.5078125Q415.40625 190.265625 415.40625 191.328125V191.421875Q415.40625 192.484375 414.6484375 193.2421875Q413.890625 194.0 412.828125 194.0ZM417.5625 191.421875V188.328125Q417.5625 187.265625 418.3203125 186.5078125Q419.078125 185.75 420.140625 185.75H427.875V187.90625H420.140625Q419.96875 187.90625 419.84375 188.03125Q419.71875 188.15625 419.71875 188.328125V188.75H425.296875Q426.359375 188.75 427.1171875 189.5078125Q427.875 190.265625 427.875 191.328125V191.421875Q427.875 192.484375 427.1171875 193.2421875Q426.359375 194.0 425.296875 194.0H420.140625Q419.078125 194.0 418.3203125 193.2421875Q417.5625 192.484375 417.5625 191.421875ZM419.71875 191.421875Q419.71875 191.59375 419.84375 191.71875Q419.96875 191.84375 420.140625 191.84375H425.296875Q425.46875 191.84375 425.59375 191.71875Q425.71875 191.59375 425.71875 191.421875V191.328125Q425.71875 191.15625 425.59375 191.03125Q425.46875 190.90625 425.296875 190.90625H419.71875ZM430.03125 187.90625V185.75H436.734375Q437.796875 185.75 438.5546875 186.5078125Q439.3125 187.265625 439.3125 188.328125V194.0H437.15625V190.90625H432.1875V188.75H437.15625V188.328125Q437.15625 188.15625 437.03125 188.03125Q436.90625 187.90625 436.734375 187.90625ZM441.46875 191.421875V191.328125Q441.46875 190.484375 441.953125 189.828125Q441.46875 189.171875 441.46875 188.328125Q441.46875 187.265625 442.2265625 186.5078125Q442.984375 185.75 444.046875 185.75H449.203125Q450.265625 185.75 451.0234375 186.5078125Q451.78125 187.265625 451.78125 188.328125Q451.78125 189.171875 451.296875 189.828125Q451.78125 190.484375 451.78125 191.328125V191.421875Q451.78125 192.484375 451.0234375 193.2421875Q450.265625 194.0 449.203125 194.0H444.046875Q442.984375 194.0 442.2265625 193.2421875Q441.46875 192.484375 441.46875 191.421875ZM443.625 191.421875Q443.625 191.59375 443.75 191.71875Q443.875 191.84375 444.046875 191.84375H449.203125Q449.375 191.84375 449.5 191.71875Q449.625 191.59375 449.625 191.421875V191.328125Q449.625 191.15625 449.5 191.03125Q449.375 190.90625 449.203125 190.90625H444.046875Q443.875 190.90625 443.75 191.03125Q443.625 191.15625 443.625 191.328125ZM444.046875 188.75H449.203125Q449.375 188.75 449.5 188.625Q449.625 188.5 449.625 188.328125Q449.625 188.15625 449.5 188.03125Q449.375 187.90625 449.203125 187.90625H444.046875Q443.875 187.90625 443.75 188.03125Q443.625 188.15625 443.625 188.328125Q443.625 188.5 443.75 188.625Q443.875 188.75 444.046875 188.75ZM456.515625 188.75H462.09375V188.328125Q462.09375 188.15625 461.96875 188.03125Q461.84375 187.90625 461.671875 187.90625H456.515625Q456.34375 187.90625 456.21875 188.03125Q456.09375 188.15625 456.09375 188.328125Q456.09375 188.5 456.21875 188.625Q456.34375 188.75 456.515625 188.75ZM453.9375 194.0V191.84375H461.671875Q461.84375 191.84375 461.96875 191.71875Q462.09375 191.59375 462.09375 191.421875V190.90625H456.515625Q455.453125 190.90625 454.6953125 190.1484375Q453.9375 189.390625 453.9375 188.328125Q453.9375 187.265625 454.6953125 186.5078125Q455.453125 185.75 456.515625 185.75H461.671875Q462.734375 185.75 463.4921875 186.5078125Q464.25 187.265625 464.25 188.328125V191.421875Q464.25 192.484375 463.4921875 193.2421875Q462.734375 194.0 461.671875 194.0ZM482.71875 191.421875Q482.71875 190.578125 483.203125 189.921875Q482.71875 189.265625 482.71875 188.421875V188.328125Q482.71875 187.265625 483.4765625 186.5078125Q484.234375 185.75 485.296875 185.75H493.03125V187.90625H485.296875Q485.125 187.90625 485.0 188.03125Q484.875 188.15625 484.875 188.328125V188.421875Q484.875 188.59375 485.0 188.71875Q485.125 188.84375 485.296875 188.84375H493.03125V191.0H492.09375V191.421875Q492.09375 192.484375 491.3359375 193.2421875Q490.578125 194.0 489.515625 194.0H485.296875Q484.234375 194.0 483.4765625 193.2421875Q482.71875 192.484375 482.71875 191.421875ZM485.296875 191.84375H489.515625Q489.6875 191.84375 489.8125 191.71875Q489.9375 191.59375 489.9375 191.421875V191.0H485.296875Q485.125 191.0 485.0 191.125Q484.875 191.25 484.875 191.421875Q484.875 191.59375 485.0 191.71875Q485.125 191.84375 485.296875 191.84375ZM495.1875 194.0V191.84375H497.34375V194.0ZM499.5 196.0625V191.84375H501.65625V196.0625ZM503.8125 190.90625V185.75H505.96875V190.90625ZM503.8125 194.0V191.84375H505.96875V194.0ZM508.125 197.0V194.84375H510.28125V197.0ZM508.125 194.0V188.75H515.859375Q516.03125 188.75 516.15625 188.625Q516.28125 188.5 516.28125 188.328125Q516.28125 188.15625 516.15625 188.03125Q516.03125 187.90625 515.859375 187.90625H508.125V185.75H515.859375Q516.921875 185.75 517.6796875 186.5078125Q518.4375 187.265625 518.4375 188.328125Q518.4375 189.390625 517.6796875 190.1484375Q516.921875 190.90625 515.859375 190.90625H510.28125V194.0Z" fill="#6b7280"/></svg>