<svg xmlns="http://www.w3.org/2000/svg" viewBox="0 0 826.1 222.0" width="826" height="222"><path d="M30.0 76.0V57.716796875H63.51171875V55.06640625H30.0V47.25H71.328125V58.525390625Q71.328125 61.4453125 69.26171875 63.4892578125Q67.1953125 65.533203125 64.3203125 65.533203125H37.81640625V68.18359375H70.69921875V76.0ZM74.0234375 57.716796875V54.2578125Q74.0234375 51.3828125 76.08984375 49.31640625Q78.15625 47.25 81.03125 47.25H101.42578125V76.0H93.609375V55.06640625H81.83984375V57.716796875ZM104.12109375 76.0V68.18359375H137.6328125V65.533203125H104.12109375V47.25H145.44921875V68.9921875Q145.44921875 71.8671875 143.3828125 73.93359375Q141.31640625 76.0 138.44140625 76.0ZM111.9375 57.716796875H137.6328125V55.06640625H111.9375ZM148.14453125 55.06640625V47.25H182.46484375Q185.33984375 47.25 187.40625 49.31640625Q189.47265625 51.3828125 189.47265625 54.2578125V76.0H181.65625V55.06640625ZM203.892578125 76.0V47.25H211.708984375V57.716796875H237.404296875V47.25H245.220703125V76.0H237.404296875V65.533203125H211.708984375V76.0ZM258.3828125 65.533203125V57.716796875H289.244140625V65.533203125ZM247.916015625 68.9921875V54.2578125Q247.916015625 51.3828125 249.982421875 49.31640625Q252.048828125 47.25 254.923828125 47.25H289.244140625V55.06640625H255.732421875V68.18359375H289.244140625V76.0H254.923828125Q252.048828125 76.0 249.982421875 73.93359375Q247.916015625 71.8671875 247.916015625 68.9921875ZM308.6953125 76.0V68.18359375H316.51171875V76.0ZM291.939453125 76.0V54.2578125Q291.939453125 51.3828125 294.005859375 49.31640625Q296.072265625 47.25 298.947265625 47.25H333.267578125V76.0H325.451171875V55.06640625H299.755859375V76.0ZM335.962890625 68.9921875V47.25H343.779296875V68.18359375H369.474609375V47.25H377.291015625V68.9921875Q377.291015625 71.8671875 375.224609375 73.93359375Q373.158203125 76.0 370.283203125 76.0H342.970703125Q340.095703125 76.0 338.029296875 73.93359375Q335.962890625 71.8671875 335.962890625 68.9921875ZM379.986328125 58.525390625V47.25H387.802734375V57.716796875H413.498046875V47.25H421.314453125V65.533203125H412.869140625V76.0H405.052734375V65.533203125H386.994140625Q384.119140625 65.533203125 382.052734375 63.4892578125Q379.986328125 61.4453125 379.986328125 58.525390625Z" fill="#12151a"/><path d="M30.0 123.49609375V112.625H50.6640625V116.533203125H33.908203125V123.091796875H46.755859375V121.7666015625H35.2333984375V117.8583984375H50.6640625V127.0H33.50390625Q32.06640625 127.0 31.033203125 125.966796875Q30.0 124.93359375 30.0 123.49609375ZM60.3896484375 121.7666015625V117.8583984375H64.2978515625V121.7666015625ZM55.919921875 123.091796875H68.767578125V116.533203125H55.919921875ZM52.01171875 123.49609375V112.625H72.67578125V127.0H55.515625Q54.078125 127.0 53.044921875 125.966796875Q52.01171875 124.93359375 52.01171875 123.49609375ZM74.0234375 116.533203125V112.625H91.18359375Q92.62109375 112.625 93.654296875 113.658203125Q94.6875 114.69140625 94.6875 116.12890625V127.0H90.779296875V116.533203125ZM101.2685546875 121.7666015625V117.8583984375H116.69921875V121.7666015625ZM96.03515625 123.49609375V116.12890625Q96.03515625 114.69140625 97.068359375 113.658203125Q98.1015625 112.625 99.5390625 112.625H116.69921875V116.533203125H99.943359375V123.091796875H116.69921875V127.0H99.5390625Q98.1015625 127.0 97.068359375 125.966796875Q96.03515625 124.93359375 96.03515625 123.49609375ZM118.046875 127.0V112.625H121.955078125V117.8583984375H131.748046875V112.625H135.65625V117.880859375Q136.958984375 118.060546875 137.8349609375 119.048828125Q138.7109375 120.037109375 138.7109375 121.3623046875V127.0H134.802734375V121.7666015625H121.955078125V127.0ZM140.05859375 127.0V112.625H143.966796875V127.0ZM151.1767578125 118.2626953125V112.625H155.0849609375V117.8583984375H167.9326171875V112.625H171.8408203125V127.0H167.9326171875V121.7666015625H154.6806640625Q153.2431640625 121.7666015625 152.2099609375 120.74462890625Q151.1767578125 119.72265625 151.1767578125 118.2626953125ZM173.1884765625 127.0V123.091796875H189.9443359375V121.7666015625H173.1884765625V112.625H193.5380859375V116.533203125H177.0966796875V117.8583984375H190.3486328125Q191.7861328125 117.8583984375 192.8193359375 118.88037109375Q193.8525390625 119.90234375 193.8525390625 121.3623046875V127.0ZM201.0625 127.0V112.625H204.970703125V117.8583984375H217.818359375V112.625H221.7265625V127.0H217.818359375V121.7666015625H204.970703125V127.0ZM231.4521484375 121.7666015625V117.8583984375H235.3603515625V121.7666015625ZM226.982421875 123.091796875H239.830078125V116.533203125H226.982421875ZM223.07421875 123.49609375V112.625H243.73828125V127.0H226.578125Q225.140625 127.0 224.107421875 125.966796875Q223.07421875 124.93359375 223.07421875 123.49609375ZM245.0859375 127.0V112.625H248.994140625V123.091796875H261.841796875V121.7666015625H265.75V123.49609375Q265.75 124.93359375 264.716796875 125.966796875Q263.68359375 127.0 262.24609375 127.0ZM271.005859375 123.091796875H283.853515625V116.533203125H271.005859375ZM267.09765625 127.0V112.625H284.2578125Q285.6953125 112.625 286.728515625 113.658203125Q287.76171875 114.69140625 287.76171875 116.12890625V123.49609375Q287.76171875 124.93359375 286.728515625 125.966796875Q285.6953125 127.0 284.2578125 127.0ZM289.109375 127.0V123.091796875H305.865234375V121.7666015625H292.61328125Q291.17578125 121.7666015625 290.142578125 120.74462890625Q289.109375 119.72265625 289.109375 118.2626953125V116.12890625Q289.109375 114.69140625 290.142578125 113.658203125Q291.17578125 112.625 292.61328125 112.625H309.458984375V116.533203125H293.017578125V117.8583984375H306.26953125Q307.70703125 117.8583984375 308.740234375 118.88037109375Q309.7734375 119.90234375 309.7734375 121.3623046875V127.0ZM316.9833984375 127.0V112.625H334.1435546875Q335.5810546875 112.625 336.6142578125 113.658203125Q337.6474609375 114.69140625 337.6474609375 116.12890625V123.091796875H320.8916015625V127.0ZM320.8916015625 119.18359375H333.7392578125V116.533203125H320.8916015625ZM347.373046875 121.7666015625V117.8583984375H351.28125V121.7666015625ZM342.9033203125 123.091796875H355.7509765625V116.533203125H342.9033203125ZM338.9951171875 123.49609375V112.625H359.6591796875V127.0H342.4990234375Q341.0615234375 127.0 340.0283203125 125.966796875Q338.9951171875 124.93359375 338.9951171875 123.49609375ZM361.0068359375 127.0V112.625H364.9150390625V123.091796875H377.7626953125V121.7666015625H381.6708984375V123.49609375Q381.6708984375 124.93359375 380.6376953125 125.966796875Q379.6044921875 127.0 378.1669921875 127.0ZM388.251953125 121.7666015625V117.8583984375H403.6826171875V121.7666015625ZM383.0185546875 123.49609375V116.12890625Q383.0185546875 114.69140625 384.0517578125 113.658203125Q385.0849609375 112.625 386.5224609375 112.625H403.6826171875V116.533203125H386.9267578125V123.091796875H403.6826171875V127.0H386.5224609375Q385.0849609375 127.0 384.0517578125 125.966796875Q383.0185546875 124.93359375 383.0185546875 123.49609375ZM419.2705078125 127.0V123.091796875H423.1787109375V127.0ZM410.892578125 127.0V116.12890625Q410.892578125 114.69140625 411.92578125 113.658203125Q412.958984375 112.625 414.396484375 112.625H431.556640625V127.0H427.6484375V116.533203125H414.80078125V127.0ZM432.904296875 116.533203125V112.625H450.064453125Q451.501953125 112.625 452.53515625 113.658203125Q453.568359375 114.69140625 453.568359375 116.12890625V127.0H449.66015625V116.533203125ZM460.7783203125 127.0V116.12890625Q460.7783203125 114.69140625 461.8115234375 113.658203125Q462.8447265625 112.625 464.2822265625 112.625H477.9384765625Q479.3759765625 112.625 480.4091796875 113.658203125Q481.4423828125 114.69140625 481.4423828125 116.12890625V117.8583984375H477.5341796875V116.533203125H464.6865234375V123.091796875H481.4423828125V127.0ZM482.7900390625 127.0V112.625H486.6982421875V117.8583984375H499.5458984375V112.625H503.4541015625V127.0H499.5458984375V121.7666015625H486.6982421875V127.0ZM510.03515625 121.7666015625V117.8583984375H525.4658203125V121.7666015625ZM504.8017578125 123.49609375V116.12890625Q504.8017578125 114.69140625 505.8349609375 113.658203125Q506.8681640625 112.625 508.3056640625 112.625H525.4658203125V116.533203125H508.7099609375V123.091796875H525.4658203125V127.0H508.3056640625Q506.8681640625 127.0 505.8349609375 125.966796875Q504.8017578125 124.93359375 504.8017578125 123.49609375ZM526.8134765625 127.0V112.625H543.2998046875Q544.7373046875 112.625 545.7705078125 113.658203125Q546.8037109375 114.69140625 546.8037109375 116.12890625V127.0H542.8955078125V116.533203125H530.7216796875V127.0ZM548.1513671875 123.49609375V112.625H568.8154296875V116.533203125H552.0595703125V123.091796875H564.9072265625V121.7666015625H553.384765625V117.8583984375H568.8154296875V127.0H551.6552734375Q550.2177734375 127.0 549.1845703125 125.966796875Q548.1513671875 124.93359375 548.1513671875 123.49609375ZM570.1630859375 127.0V112.625H574.0712890625V117.8583984375H586.9189453125V112.625H590.8271484375V127.0H586.9189453125V121.7666015625H574.0712890625V127.0ZM600.552734375 121.7666015625V117.8583984375H604.4609375V121.7666015625ZM596.0830078125 123.091796875H608.9306640625V116.533203125H596.0830078125ZM592.1748046875 123.49609375V112.625H612.8388671875V127.0H595.6787109375Q594.2412109375 127.0 593.2080078125 125.966796875Q592.1748046875 124.93359375 592.1748046875 123.49609375ZM614.1865234375 127.0V112.625H618.0947265625V123.091796875H630.9423828125V112.625H634.8505859375V123.49609375Q634.8505859375 124.93359375 633.8173828125 125.966796875Q632.7841796875 127.0 631.3466796875 127.0ZM642.060546875 127.0V112.625H659.220703125Q660.658203125 112.625 661.69140625 113.658203125Q662.724609375 114.69140625 662.724609375 116.12890625V123.091796875H645.96875V127.0ZM645.96875 119.18359375H658.81640625V116.533203125H645.96875ZM667.98046875 119.18359375H680.828125V116.533203125H667.98046875ZM664.072265625 127.0V112.625H681.232421875Q682.669921875 112.625 683.703125 113.658203125Q684.736328125 114.69140625 684.736328125 116.12890625V123.091796875H680.828125V127.0H676.919921875V123.091796875H667.98046875V127.0ZM694.4619140625 121.7666015625V117.8583984375H698.3701171875V121.7666015625ZM689.9921875 123.091796875H702.83984375V116.533203125H689.9921875ZM686.083984375 123.49609375V112.625H706.748046875V127.0H689.587890625Q688.150390625 127.0 687.1171875 125.966796875Q686.083984375 124.93359375 686.083984375 123.49609375ZM708.095703125 123.49609375V121.7666015625H712.00390625V123.091796875H724.8515625V112.625H728.759765625V127.0H711.599609375Q710.162109375 127.0 709.12890625 125.966796875Q708.095703125 124.93359375 708.095703125 123.49609375ZM735.3408203125 121.7666015625V117.8583984375H750.771484375V121.7666015625ZM730.107421875 123.49609375V116.12890625Q730.107421875 114.69140625 731.140625 113.658203125Q732.173828125 112.625 733.611328125 112.625H750.771484375V116.533203125H734.015625V123.091796875H750.771484375V127.0H733.611328125Q732.173828125 127.0 731.140625 125.966796875Q730.107421875 124.93359375 730.107421875 123.49609375ZM752.119140625 127.0V116.12890625Q752.119140625 114.69140625 753.15234375 113.658203125Q754.185546875 112.625 755.623046875 112.625H769.279296875Q770.716796875 112.625 771.75 113.658203125Q772.783203125 114.69140625 772.783203125 116.12890625V117.8583984375H768.875V116.533203125H756.02734375V123.091796875H772.783203125V127.0ZM774.130859375 116.533203125V112.625H791.291015625Q792.728515625 112.625 793.76171875 113.658203125Q794.794921875 114.69140625 794.794921875 116.12890625V127.0H790.88671875V116.533203125Z" fill="#3a3f47"/><path d="M35.828125 165.0V162.28125H38.546875V165.0ZM30.0 165.0V157.4375Q30.0 156.4375 30.71875 155.71875Q31.4375 155.0 32.4375 155.0H44.375V165.0H41.65625V157.71875H32.71875V165.0ZM45.3125 165.0V155.0H59.6875V162.5625Q59.6875 163.5625 58.96875 164.28125Q58.25 165.0 57.25 165.0ZM48.03125 158.640625H56.96875V157.71875H48.03125ZM48.03125 162.28125H56.96875V161.359375H48.03125ZM60.625 165.0V157.4375Q60.625 156.4375 61.34375 155.71875Q62.0625 155.0 63.0625 155.0H72.5625Q73.5625 155.0 74.28125 155.71875Q75.0 156.4375 75.0 157.4375V158.640625H72.28125V157.71875H63.34375V162.28125H75.0V165.0ZM78.65625 162.28125H87.59375V157.71875H78.65625ZM75.9375 165.0V155.0H87.875Q88.875 155.0 89.59375 155.71875Q90.3125 156.4375 90.3125 157.4375V162.5625Q90.3125 163.5625 89.59375 164.28125Q88.875 165.0 87.875 165.0ZM94.890625 161.359375V158.640625H105.625V161.359375ZM91.25 162.5625V157.4375Q91.25 156.4375 91.96875 155.71875Q92.6875 155.0 93.6875 155.0H105.625V157.71875H93.96875V162.28125H105.625V165.0H93.6875Q92.6875 165.0 91.96875 164.28125Q91.25 163.5625 91.25 162.5625ZM110.203125 161.359375V158.640625H120.9375V161.359375ZM106.5625 165.0V157.4375Q106.5625 156.4375 107.28125 155.71875Q108.0 155.0 109.0 155.0H120.9375V157.71875H109.28125V165.0ZM121.875 162.5625V155.0H136.25V157.71875H124.59375V162.28125H133.53125V161.359375H125.515625V158.640625H136.25V165.0H124.3125Q123.3125 165.0 122.59375 164.28125Q121.875 163.5625 121.875 162.5625ZM137.1875 165.0V155.0H139.90625V158.640625H148.84375V155.0H151.5625V165.0H148.84375V161.359375H139.90625V165.0ZM152.5 165.0V155.0H155.21875V165.0ZM156.15625 162.5625V161.359375H158.875V162.28125H167.8125V155.0H170.53125V165.0H158.59375Q157.59375 165.0 156.875 164.28125Q156.15625 163.5625 156.15625 162.5625ZM171.46875 165.0V155.0H174.1875V158.640625H181.0V155.0H183.71875V158.65625Q184.625 158.78125 185.234375 159.46875Q185.84375 160.15625 185.84375 161.078125V165.0H183.125V161.359375H174.1875V165.0ZM186.78125 165.0V155.0H189.5V162.28125H198.4375V161.359375H201.15625V162.5625Q201.15625 163.5625 200.4375 164.28125Q199.71875 165.0 198.71875 165.0ZM207.921875 165.0V158.640625H210.640625V165.0ZM202.09375 165.0V155.0H214.03125Q215.03125 155.0 215.75 155.71875Q216.46875 156.4375 216.46875 157.4375V165.0H213.75V157.71875H204.8125V165.0ZM217.40625 165.0V155.0H228.875Q229.875 155.0 230.59375 155.71875Q231.3125 156.4375 231.3125 157.4375V165.0H228.59375V157.71875H220.125V165.0ZM238.078125 161.359375V158.640625H240.796875V161.359375ZM234.96875 162.28125H243.90625V157.71875H234.96875ZM232.25 162.5625V155.0H246.625V165.0H234.6875Q233.6875 165.0 232.96875 164.28125Q232.25 163.5625 232.25 162.5625ZM247.5625 165.0V155.0H259.5Q260.5 155.0 261.21875 155.71875Q261.9375 156.4375 261.9375 157.4375V162.28125H250.28125V165.0ZM250.28125 159.5625H259.21875V157.71875H250.28125ZM268.703125 161.359375V158.640625H271.421875V161.359375ZM265.59375 162.28125H274.53125V157.71875H265.59375ZM262.875 162.5625V155.0H277.25V162.28125H278.4375V165.0H265.3125Q264.3125 165.0 263.59375 164.28125Q262.875 163.5625 262.875 162.5625ZM282.09375 159.5625H291.03125V157.71875H282.09375ZM279.375 165.0V155.0H291.3125Q292.3125 155.0 293.03125 155.71875Q293.75 156.4375 293.75 157.4375V162.28125H291.03125V165.0H288.3125V162.28125H282.09375V165.0ZM294.6875 165.0V162.28125H306.34375V161.359375H297.125Q296.125 161.359375 295.40625 160.6484375Q294.6875 159.9375 294.6875 158.921875V157.4375Q294.6875 156.4375 295.40625 155.71875Q296.125 155.0 297.125 155.0H308.84375V157.71875H297.40625V158.640625H306.625Q307.625 158.640625 308.34375 159.3515625Q309.0625 160.0625 309.0625 161.078125V165.0ZM310.0 157.71875V155.0H321.9375Q322.9375 155.0 323.65625 155.71875Q324.375 156.4375 324.375 157.4375V165.0H321.65625V157.71875ZM325.3125 165.0V155.0H328.03125V162.28125H336.96875V155.0H339.6875V162.5625Q339.6875 163.5625 338.96875 164.28125Q338.25 165.0 337.25 165.0ZM340.625 162.5625V155.0H343.34375V162.28125H352.28125V155.0H355.0V162.5625Q355.0 163.5625 354.28125 164.28125Q353.5625 165.0 352.5625 165.0H343.0625Q342.0625 165.0 341.34375 164.28125Q340.625 163.5625 340.625 162.5625ZM361.765625 161.359375V155.0H364.484375V161.359375ZM355.9375 162.5625V155.0H358.65625V162.28125H367.59375V155.0H370.3125V165.0H358.375Q357.375 165.0 356.65625 164.28125Q355.9375 163.5625 355.9375 162.5625ZM371.25 165.0V161.078125Q371.25 160.28125 371.7109375 159.6484375Q372.171875 159.015625 372.90625 158.765625V155.0H375.625V158.640625H381.25V155.0H383.96875V158.765625Q384.703125 159.015625 385.1640625 159.6484375Q385.625 160.28125 385.625 161.078125V165.0H382.90625V161.359375H373.96875V165.0ZM386.5625 158.921875V155.0H389.28125V158.640625H398.21875V155.0H400.9375V161.359375H398.0V165.0H395.28125V161.359375H389.0Q388.0 161.359375 387.28125 160.6484375Q386.5625 159.9375 386.5625 158.921875ZM401.875 165.0V161.078125Q401.875 160.0625 402.59375 159.3515625Q403.3125 158.640625 404.3125 158.640625H413.53125V157.71875H402.09375V155.0H416.25V161.359375H404.59375V162.28125H416.25V165.0Z" fill="#6b7280"/><path d="M35.828125 194.0V191.28125H38.546875V194.0ZM30.0 194.0V186.4375Q30.0 185.4375 30.71875 184.71875Q31.4375 184.0 32.4375 184.0H44.375V194.0H41.65625V186.71875H32.71875V194.0ZM45.3125 194.0V184.0H59.6875V191.5625Q59.6875 192.5625 58.96875 193.28125Q58.25 194.0 57.25 194.0ZM48.03125 187.640625H56.96875V186.71875H48.03125ZM48.03125 191.28125H56.96875V190.359375H48.03125ZM60.625 194.0V186.4375Q60.625 185.4375 61.34375 184.71875Q62.0625 184.0 63.0625 184.0H72.5625Q73.5625 184.0 74.28125 184.71875Q75.0 185.4375 75.0 186.4375V187.640625H72.28125V186.71875H63.34375V191.28125H75.0V194.0ZM78.65625 191.28125H87.59375V186.71875H78.65625ZM75.9375 194.0V184.0H87.875Q88.875 184.0 89.59375 184.71875Q90.3125 185.4375 90.3125 186.4375V191.5625Q90.3125 192.5625 89.59375 193.28125Q88.875 194.0 87.875 194.0ZM94.890625 190.359375V187.640625H105.625V190.359375ZM91.25 191.5625V186.4375Q91.25 185.4375 91.96875 184.71875Q92.6875 184.0 93.6875 184.0H105.625V186.71875H93.96875V191.28125H105.625V194.0H93.6875Q92.6875 194.0 91.96875 193.28125Q91.25 192.5625 91.25 191.5625ZM110.203125 190.359375V187.640625H120.9375V190.359375ZM106.5625 194.0V186.4375Q106.5625 185.4375 107.28125 184.71875Q108.0 184.0 109.0 184.0H120.9375V186.71875H109.28125V194.0ZM121.875 191.5625V184.0H136.25V186.71875H124.59375V191.28125H133.53125V190.359375H125.515625V187.640625H136.25V194.0H124.3125Q123.3125 194.0 122.59375 193.28125Q121.875 192.5625 121.875 191.5625ZM137.1875 194.0V184.0H139.90625V187.640625H148.84375V184.0H151.5625V194.0H148.84375V190.359375H139.90625V194.0ZM152.5 194.0V184.0H155.21875V194.0ZM156.15625 191.5625V190.359375H158.875V191.28125H167.8125V184.0H170.53125V194.0H158.59375Q157.59375 194.0 156.875 193.28125Q156.15625 192.5625 156.15625 191.5625ZM171.46875 194.0V184.0H174.1875V187.640625H181.0V184.0H183.71875V187.65625Q184.625 187.78125 185.234375 188.46875Q185.84375 189.15625 185.84375 190.078125V194.0H183.125V190.359375H174.1875V194.0ZM186.78125 194.0V184.0H189.5V191.28125H198.4375V190.359375H201.15625V191.5625Q201.15625 192.5625 200.4375 193.28125Q199.71875 194.0 198.71875 194.0ZM207.921875 194.0V187.640625H210.640625V194.0ZM202.09375 194.0V184.0H214.03125Q215.03125 184.0 215.75 184.71875Q216.46875 185.4375 216.46875 186.4375V194.0H213.75V186.71875H204.8125V194.0ZM217.40625 194.0V184.0H228.875Q229.875 184.0 230.59375 184.71875Q231.3125 185.4375 231.3125 186.4375V194.0H228.59375V186.71875H220.125V194.0ZM238.078125 190.359375V187.640625H240.796875V190.359375ZM234.96875 191.28125H243.90625V186.71875H234.96875ZM232.25 191.5625V184.0H246.625V194.0H234.6875Q233.6875 194.0 232.96875 193.28125Q232.25 192.5625 232.25 191.5625ZM247.5625 194.0V184.0H259.5Q260.5 184.0 261.21875 184.71875Q261.9375 185.4375 261.9375 186.4375V191.28125H250.28125V194.0ZM250.28125 188.5625H259.21875V186.71875H250.28125ZM268.703125 190.359375V187.640625H271.421875V190.359375ZM265.59375 191.28125H274.53125V186.71875H265.59375ZM262.875 191.5625V184.0H277.25V191.28125H278.4375V194.0H265.3125Q264.3125 194.0 263.59375 193.28125Q262.875 192.5625 262.875 191.5625ZM282.09375 188.5625H291.03125V186.71875H282.09375ZM279.375 194.0V184.0H291.3125Q292.3125 184.0 293.03125 184.71875Q293.75 185.4375 293.75 186.4375V191.28125H291.03125V194.0H288.3125V191.28125H282.09375V194.0ZM294.6875 194.0V191.28125H306.34375V190.359375H297.125Q296.125 190.359375 295.40625 189.6484375Q294.6875 188.9375 294.6875 187.921875V186.4375Q294.6875 185.4375 295.40625 184.71875Q296.125 184.0 297.125 184.0H308.84375V186.71875H297.40625V187.640625H306.625Q307.625 187.640625 308.34375 188.3515625Q309.0625 189.0625 309.0625 190.078125V194.0ZM310.0 186.71875V184.0H321.9375Q322.9375 184.0 323.65625 184.71875Q324.375 185.4375 324.375 186.4375V194.0H321.65625V186.71875ZM325.3125 194.0V184.0H328.03125V191.28125H336.96875V184.0H339.6875V191.5625Q339.6875 192.5625 338.96875 193.28125Q338.25 194.0 337.25 194.0ZM340.625 191.5625V184.0H343.34375V191.28125H352.28125V184.0H355.0V191.5625Q355.0 192.5625 354.28125 193.28125Q353.5625 194.0 352.5625 194.0H343.0625Q342.0625 194.0 341.34375 193.28125Q340.625 192.5625 340.625 191.5625ZM361.765625 190.359375V184.0H364.484375V190.359375ZM355.9375 191.5625V184.0H358.65625V191.28125H367.59375V184.0H370.3125V194.0H358.375Q357.375 194.0 356.65625 193.28125Q355.9375 192.5625 355.9375 191.5625ZM371.25 194.0V190.078125Q371.25 189.28125 371.7109375 188.6484375Q372.171875 188.015625 372.90625 187.765625V184.0H375.625V187.640625H381.25V184.0H383.96875V187.765625Q384.703125 188.015625 385.1640625 188.6484375Q385.625 189.28125 385.625 190.078125V194.0H382.90625V190.359375H373.96875V194.0ZM386.5625 187.921875V184.0H389.28125V187.640625H398.21875V184.0H400.9375V190.359375H398.0V194.0H395.28125V190.359375H389.0Q388.0 190.359375 387.28125 189.6484375Q386.5625 188.9375 386.5625 187.921875ZM401.875 194.0V190.078125Q401.875 189.0625 402.59375 188.3515625Q403.3125 187.640625 404.3125 187.640625H413.53125V186.71875H402.09375V184.0H416.25V190.359375H404.59375V191.28125H416.25V194.0ZM431.171875 190.359375V187.640625H433.890625V190.359375ZM428.0625 191.28125H437.0V186.71875H428.0625ZM425.34375 194.0V186.4375Q425.34375 185.4375 426.0625 184.71875Q426.78125 184.0 427.78125 184.0H439.71875V194.0ZM440.65625 187.640625V186.4375Q440.65625 185.4375 441.375 184.71875Q442.09375 184.0 443.09375 184.0H450.1875V194.0H447.46875V186.71875H443.375V187.640625ZM451.125 194.0V187.640625H462.78125V186.71875H451.125V184.0H465.5V187.921875Q465.5 188.9375 464.78125 189.6484375Q464.0625 190.359375 463.0625 190.359375H453.84375V191.28125H465.28125V194.0ZM466.4375 190.359375V187.640625H477.171875V190.359375ZM466.4375 194.0V191.28125H478.09375V186.71875H466.4375V184.0H478.375Q479.375 184.0 480.09375 184.71875Q480.8125 185.4375 480.8125 186.4375V194.0ZM481.75 187.921875V184.0H484.46875V187.640625H493.40625V184.0H496.125V194.0H493.40625V190.359375H484.1875Q483.1875 190.359375 482.46875 189.6484375Q481.75 188.9375 481.75 187.921875ZM497.0625 194.0V191.28125H508.71875V190.359375H497.0625V184.0H511.21875V186.71875H499.78125V187.640625H509.0Q510.0 187.640625 510.71875 188.3515625Q511.4375 189.0625 511.4375 190.078125V194.0ZM512.375 194.0V186.4375Q512.375 185.4375 513.09375 184.71875Q513.8125 184.0 514.8125 184.0H526.75V186.71875H515.09375V187.640625H526.75V194.0ZM515.09375 191.28125H524.03125V190.359375H515.09375ZM527.6875 186.71875V184.0H539.625Q540.625 184.0 541.34375 184.71875Q542.0625 185.4375 542.0625 186.4375V194.0H539.34375V186.71875ZM543.0 194.0V186.4375Q543.0 185.4375 543.71875 184.71875Q544.4375 184.0 545.4375 184.0H554.9375Q555.921875 184.0 556.6484375 184.71875Q557.375 185.4375 557.375 186.4375V194.0ZM545.71875 191.28125H554.65625V190.359375H545.71875ZM545.71875 187.640625H554.65625V186.71875H545.71875ZM558.3125 194.0V191.28125H569.96875V190.359375H558.3125V184.0H572.6875V191.5625Q572.6875 192.5625 571.96875 193.28125Q571.25 194.0 570.25 194.0ZM561.03125 187.640625H569.96875V186.71875H561.03125ZM581.78125 194.0V192.515625H584.5V194.0ZM581.78125 192.203125V191.0Q581.78125 190.0 582.5 189.28125Q583.21875 188.5625 584.21875 188.5625H593.4375V186.71875H584.5V187.640625H581.78125V186.4375Q581.78125 185.4375 582.5 184.71875Q583.21875 184.0 584.21875 184.0H593.71875Q594.71875 184.0 595.4375 184.71875Q596.15625 185.4375 596.15625 186.4375V191.28125H584.5V192.203125ZM597.09375 194.0V191.28125H599.8125V194.0ZM600.75 194.0V192.515625H603.46875V194.0ZM600.75 192.203125V191.0Q600.75 190.0 601.46875 189.28125Q602.1875 188.5625 603.1875 188.5625H612.40625V186.71875H603.46875V187.640625H600.75V186.4375Q600.75 185.4375 601.46875 184.71875Q602.1875 184.0 603.1875 184.0H612.6875Q613.6875 184.0 614.40625 184.71875Q615.125 185.4375 615.125 186.4375V191.28125H603.46875V192.203125ZM616.0625 190.359375V184.0H618.78125V190.359375ZM616.0625 194.0V191.28125H618.78125V194.0ZM619.71875 194.0V192.515625H622.4375V194.0ZM619.71875 192.203125V191.0Q619.71875 190.0 620.4375 189.28125Q621.15625 188.5625 622.15625 188.5625H631.375V186.71875H622.4375V187.640625H619.71875V186.4375Q619.71875 185.4375 620.4375 184.71875Q621.15625 184.0 622.15625 184.0H631.65625Q632.65625 184.0 633.375 184.71875Q634.09375 185.4375 634.09375 186.4375V191.28125H622.4375V192.203125Z" fill="#6b7280"/></svg>