<svg xmlns="http://www.w3.org/2000/svg" viewBox="0 0 865.0 222.0" width="865" height="222"><path d="M30.0 76.0V57.1328125H61.4453125V50.84375H30.0V44.5546875H67.734375V63.421875H36.2890625V69.7109375H67.734375V76.0ZM70.87890625 50.84375V44.5546875H83.45703125V76.0H77.16796875V50.84375ZM92.890625 57.1328125H118.046875V50.84375H92.890625ZM86.6015625 76.0V69.7109375H118.046875V63.421875H86.6015625V44.5546875H124.3359375V76.0ZM127.48046875 50.84375V44.5546875H165.21484375V76.0H158.92578125V50.84375ZM180.9375 76.0V44.5546875H212.3828125V57.1328125H218.671875V76.0ZM187.2265625 57.1328125H206.09375V50.84375H187.2265625ZM187.2265625 69.7109375H212.3828125V63.421875H187.2265625ZM221.81640625 76.0V44.5546875H228.10546875V69.7109375H259.55078125V76.0ZM278.41796875 63.421875V57.1328125H284.70703125V63.421875ZM268.984375 69.7109375H294.140625V50.84375H268.984375ZM262.6953125 76.0V44.5546875H300.4296875V76.0ZM309.86328125 76.0V69.7109375H341.30859375V76.0ZM303.57421875 69.7109375V44.5546875H341.30859375V50.84375H309.86328125V69.7109375ZM344.453125 76.0V44.5546875H350.7421875V57.1328125H369.609375V44.5546875H375.8984375V57.1328125H382.1875V76.0H375.8984375V63.421875H350.7421875V76.0Z" fill="#12151a"/><path d="M30.0 127.0V117.56640625H45.72265625V120.7109375H33.14453125V123.85546875H48.8671875V127.0ZM30.0 114.421875V111.27734375H48.8671875V117.56640625H45.72265625V114.421875ZM58.30078125 120.7109375V117.56640625H61.4453125V120.7109375ZM53.583984375 123.85546875H66.162109375V114.421875H53.583984375ZM50.439453125 127.0V111.27734375H69.306640625V127.0ZM70.87890625 127.0V111.27734375H89.74609375V127.0H86.6015625V114.421875H74.0234375V127.0ZM91.318359375 120.7109375V117.56640625H110.185546875V120.7109375ZM91.318359375 114.421875V111.27734375H110.185546875V114.421875ZM91.318359375 127.0V123.85546875H110.185546875V127.0ZM118.046875 127.0V111.27734375H140.05859375V127.0H136.9140625V114.421875H130.625V127.0H127.48046875V114.421875H121.19140625V127.0ZM149.4921875 120.7109375V117.56640625H152.63671875V120.7109375ZM144.775390625 123.85546875H157.353515625V114.421875H144.775390625ZM141.630859375 127.0V111.27734375H160.498046875V127.0ZM162.0703125 123.85546875V111.27734375H180.9375V127.0H165.21484375V123.85546875H177.79296875V114.421875H165.21484375V123.85546875ZM182.509765625 120.7109375V117.56640625H201.376953125V120.7109375ZM182.509765625 114.421875V111.27734375H201.376953125V114.421875ZM182.509765625 127.0V123.85546875H201.376953125V127.0ZM209.23828125 127.0V117.56640625H224.9609375V114.421875H209.23828125V111.27734375H228.10546875V120.7109375H212.3828125V127.0ZM237.5390625 114.421875V111.27734375H240.68359375V114.421875ZM229.677734375 127.0V111.27734375H232.822265625V123.85546875H245.400390625V111.27734375H248.544921875V127.0ZM250.1171875 127.0V123.85546875H265.83984375V120.7109375H250.1171875V114.421875H253.26171875V117.56640625H268.984375V127.0ZM253.26171875 114.421875V111.27734375H268.984375V114.421875ZM270.556640625 127.0V111.27734375H273.701171875V117.56640625H286.279296875V111.27734375H289.423828125V127.0H286.279296875V120.7109375H273.701171875V127.0ZM290.99609375 120.7109375V117.56640625H309.86328125V120.7109375ZM290.99609375 114.421875V111.27734375H309.86328125V114.421875ZM290.99609375 127.0V123.85546875H309.86328125V127.0ZM311.435546875 127.0V123.85546875H327.158203125V120.7109375H311.435546875V114.421875H314.580078125V117.56640625H330.302734375V127.0ZM314.580078125 114.421875V111.27734375H330.302734375V114.421875ZM338.1640625 127.0V117.56640625H353.88671875V114.421875H338.1640625V111.27734375H357.03125V120.7109375H341.30859375V127.0ZM358.603515625 127.0V111.27734375H361.748046875V127.0ZM363.3203125 127.0V111.27734375H366.46484375V123.85546875H382.1875V127.0ZM391.62109375 120.7109375V117.56640625H394.765625V120.7109375ZM386.904296875 123.85546875H399.482421875V114.421875H386.904296875ZM383.759765625 127.0V111.27734375H402.626953125V127.0ZM404.19921875 114.421875V111.27734375H423.06640625V114.421875H415.205078125V127.0H412.060546875V114.421875ZM424.638671875 127.0V123.85546875H440.361328125V120.7109375H424.638671875V114.421875H427.783203125V117.56640625H443.505859375V127.0ZM427.783203125 114.421875V111.27734375H443.505859375V114.421875ZM451.3671875 127.0V111.27734375H467.08984375V117.56640625H470.234375V127.0ZM454.51171875 117.56640625H463.9453125V114.421875H454.51171875ZM454.51171875 123.85546875H467.08984375V120.7109375H454.51171875ZM471.806640625 120.7109375V117.56640625H490.673828125V120.7109375ZM471.806640625 114.421875V111.27734375H490.673828125V114.421875ZM471.806640625 127.0V123.85546875H490.673828125V127.0ZM498.53515625 120.7109375V117.56640625H504.82421875V120.7109375H503.251953125V127.0H500.107421875V120.7109375ZM504.82421875 117.56640625V114.421875H507.96875V117.56640625ZM507.96875 114.421875V111.27734375H511.11328125V114.421875ZM495.390625 117.56640625V114.421875H498.53515625V117.56640625ZM492.24609375 114.421875V111.27734375H495.390625V114.421875ZM520.546875 120.7109375V117.56640625H523.69140625V120.7109375ZM515.830078125 123.85546875H528.408203125V114.421875H515.830078125ZM512.685546875 127.0V111.27734375H531.552734375V127.0ZM533.125 127.0V111.27734375H551.9921875V127.0H548.84765625V114.421875H536.26953125V127.0ZM553.564453125 123.85546875V111.27734375H572.431640625V127.0H556.708984375V123.85546875H569.287109375V114.421875H556.708984375V123.85546875ZM580.29296875 127.0V117.56640625H596.015625V114.421875H580.29296875V111.27734375H599.16015625V120.7109375H583.4375V127.0ZM600.732421875 127.0V111.27734375H603.876953125V117.56640625H616.455078125V111.27734375H619.599609375V127.0H616.455078125V120.7109375H603.876953125V127.0ZM629.033203125 127.0V123.85546875H632.177734375V127.0ZM621.171875 127.0V111.27734375H640.0390625V127.0H636.89453125V114.421875H624.31640625V127.0ZM641.611328125 127.0V111.27734375H660.478515625V127.0H657.333984375V114.421875H644.755859375V127.0ZM662.05078125 114.421875V111.27734375H680.91796875V114.421875H673.056640625V127.0H669.912109375V114.421875ZM690.3515625 120.7109375V117.56640625H693.49609375V120.7109375ZM685.634765625 123.85546875H698.212890625V114.421875H685.634765625ZM682.490234375 127.0V111.27734375H701.357421875V127.0ZM702.9296875 127.0V111.27734375H724.94140625V127.0H721.796875V114.421875H715.5078125V127.0H712.36328125V114.421875H706.07421875V127.0ZM732.802734375 127.0V123.85546875H748.525390625V120.7109375H732.802734375V114.421875H735.947265625V117.56640625H751.669921875V127.0ZM735.947265625 114.421875V111.27734375H751.669921875V114.421875ZM753.2421875 127.0V117.56640625H768.96484375V114.421875H753.2421875V111.27734375H772.109375V120.7109375H756.38671875V127.0ZM773.681640625 120.7109375V117.56640625H792.548828125V120.7109375ZM773.681640625 114.421875V111.27734375H792.548828125V114.421875ZM773.681640625 127.0V123.85546875H792.548828125V127.0ZM794.12109375 120.7109375V117.56640625H812.98828125V120.7109375ZM794.12109375 114.421875V111.27734375H812.98828125V114.421875ZM794.12109375 127.0V123.85546875H812.98828125V127.0ZM814.560546875 123.85546875V111.27734375H833.427734375V127.0H817.705078125V123.85546875H830.283203125V114.421875H817.705078125V123.85546875Z" fill="#3a3f47"/><path d="M35.46875 165.0V162.8125H37.65625V165.0ZM30.0 165.0V154.0625H43.125V165.0H40.9375V156.25H32.1875V165.0ZM44.21875 165.0V154.0625H55.15625V158.4375H57.34375V165.0ZM46.40625 158.4375H52.96875V156.25H46.40625ZM46.40625 162.8125H55.15625V160.625H46.40625ZM60.625 165.0V162.8125H71.5625V165.0ZM58.4375 162.8125V154.0625H71.5625V156.25H60.625V162.8125ZM72.65625 162.8125V154.0625H85.78125V165.0H74.84375V162.8125H83.59375V156.25H74.84375V162.8125ZM86.875 160.625V158.4375H100.0V160.625ZM86.875 156.25V154.0625H100.0V156.25ZM86.875 165.0V162.8125H100.0V165.0ZM101.09375 165.0V154.0625H114.21875V156.25H103.28125V158.4375H114.21875V160.625H103.28125V165.0ZM115.3125 162.8125V154.0625H128.4375V156.25H117.5V162.8125ZM117.5 165.0V162.8125H126.25V160.625H121.875V158.4375H128.4375V165.0ZM129.53125 165.0V154.0625H131.71875V158.4375H140.46875V154.0625H142.65625V165.0H140.46875V160.625H131.71875V165.0ZM143.75 165.0V154.0625H145.9375V165.0ZM147.03125 165.0V162.8125H157.96875V154.0625H160.15625V165.0ZM161.25 165.0V154.0625H163.4375V158.4375H170.0V154.0625H172.1875V158.4375H174.375V165.0H172.1875V160.625H163.4375V165.0ZM175.46875 165.0V154.0625H177.65625V162.8125H188.59375V165.0ZM189.6875 165.0V154.0625H205.0V165.0H202.8125V156.25H198.4375V165.0H196.25V156.25H191.875V165.0ZM206.09375 165.0V154.0625H219.21875V165.0H217.03125V156.25H208.28125V165.0ZM225.78125 160.625V158.4375H227.96875V160.625ZM222.5 162.8125H231.25V156.25H222.5ZM220.3125 165.0V154.0625H233.4375V165.0ZM234.53125 165.0V158.4375H245.46875V156.25H234.53125V154.0625H247.65625V160.625H236.71875V165.0ZM261.875 165.0V162.8125H264.0625V165.0ZM248.75 165.0V154.0625H261.875V162.8125H259.6875V156.25H250.9375V162.8125H259.6875V165.0ZM265.15625 165.0V158.4375H276.09375V156.25H265.15625V154.0625H278.28125V160.625H272.8125V162.8125H278.28125V165.0H270.625V160.625H267.34375V165.0ZM279.375 165.0V162.8125H290.3125V160.625H279.375V156.25H281.5625V158.4375H292.5V165.0ZM281.5625 156.25V154.0625H292.5V156.25ZM293.59375 156.25V154.0625H306.71875V156.25H301.25V165.0H299.0625V156.25ZM313.28125 156.25V154.0625H315.46875V156.25ZM307.8125 165.0V154.0625H310.0V162.8125H318.75V154.0625H320.9375V165.0ZM326.40625 165.0V162.8125H330.78125V165.0ZM330.78125 162.8125V160.625H332.96875V162.8125ZM332.96875 160.625V154.0625H335.15625V160.625ZM324.21875 162.8125V160.625H326.40625V162.8125ZM322.03125 160.625V154.0625H324.21875V160.625ZM342.8125 162.8125V154.0625H345.0V162.8125ZM336.25 165.0V154.0625H338.4375V162.8125H342.8125V165.0ZM345.0 165.0V162.8125H349.375V154.0625H351.5625V165.0ZM357.03125 160.625V158.4375H361.40625V160.625ZM361.40625 158.4375V156.25H363.59375V158.4375ZM363.59375 156.25V154.0625H365.78125V156.25ZM354.84375 158.4375V156.25H357.03125V158.4375ZM352.65625 156.25V154.0625H354.84375V156.25ZM361.40625 162.8125V160.625H363.59375V162.8125ZM363.59375 165.0V162.8125H365.78125V165.0ZM354.84375 162.8125V160.625H357.03125V162.8125ZM352.65625 165.0V162.8125H354.84375V165.0ZM371.25 160.625V158.4375H375.625V160.625H374.53125V165.0H372.34375V160.625ZM375.625 158.4375V156.25H377.8125V158.4375ZM377.8125 156.25V154.0625H380.0V156.25ZM369.0625 158.4375V156.25H371.25V158.4375ZM366.875 156.25V154.0625H369.0625V156.25ZM381.09375 165.0V158.4375H392.03125V160.625H383.28125V162.8125H394.21875V165.0ZM381.09375 156.25V154.0625H394.21875V158.4375H392.03125V156.25Z" fill="#6b7280"/><path d="M35.46875 194.0V191.8125H37.65625V194.0ZM30.0 194.0V183.0625H43.125V194.0H40.9375V185.25H32.1875V194.0ZM44.21875 194.0V183.0625H55.15625V187.4375H57.34375V194.0ZM46.40625 187.4375H52.96875V185.25H46.40625ZM46.40625 191.8125H55.15625V189.625H46.40625ZM60.625 194.0V191.8125H71.5625V194.0ZM58.4375 191.8125V183.0625H71.5625V185.25H60.625V191.8125ZM72.65625 191.8125V183.0625H85.78125V194.0H74.84375V191.8125H83.59375V185.25H74.84375V191.8125ZM86.875 189.625V187.4375H100.0V189.625ZM86.875 185.25V183.0625H100.0V185.25ZM86.875 194.0V191.8125H100.0V194.0ZM101.09375 194.0V183.0625H114.21875V185.25H103.28125V187.4375H114.21875V189.625H103.28125V194.0ZM115.3125 191.8125V183.0625H128.4375V185.25H117.5V191.8125ZM117.5 194.0V191.8125H126.25V189.625H121.875V187.4375H128.4375V194.0ZM129.53125 194.0V183.0625H131.71875V187.4375H140.46875V183.0625H142.65625V194.0H140.46875V189.625H131.71875V194.0ZM143.75 194.0V183.0625H145.9375V194.0ZM147.03125 194.0V191.8125H157.96875V183.0625H160.15625V194.0ZM161.25 194.0V183.0625H163.4375V187.4375H170.0V183.0625H172.1875V187.4375H174.375V194.0H172.1875V189.625H163.4375V194.0ZM175.46875 194.0V183.0625H177.65625V191.8125H188.59375V194.0ZM189.6875 194.0V183.0625H205.0V194.0H202.8125V185.25H198.4375V194.0H196.25V185.25H191.875V194.0ZM206.09375 194.0V183.0625H219.21875V194.0H217.03125V185.25H208.28125V194.0ZM225.78125 189.625V187.4375H227.96875V189.625ZM222.5 191.8125H231.25V185.25H222.5ZM220.3125 194.0V183.0625H233.4375V194.0ZM234.53125 194.0V187.4375H245.46875V185.25H234.53125V183.0625H247.65625V189.625H236.71875V194.0ZM261.875 194.0V191.8125H264.0625V194.0ZM248.75 194.0V183.0625H261.875V191.8125H259.6875V185.25H250.9375V191.8125H259.6875V194.0ZM265.15625 194.0V187.4375H276.09375V185.25H265.15625V183.0625H278.28125V189.625H272.8125V191.8125H278.28125V194.0H270.625V189.625H267.34375V194.0ZM279.375 194.0V191.8125H290.3125V189.625H279.375V185.25H281.5625V187.4375H292.5V194.0ZM281.5625 185.25V183.0625H292.5V185.25ZM293.59375 185.25V183.0625H306.71875V185.25H301.25V194.0H299.0625V185.25ZM313.28125 185.25V183.0625H315.46875V185.25ZM307.8125 194.0V183.0625H310.0V191.8125H318.75V183.0625H320.9375V194.0ZM326.40625 194.0V191.8125H330.78125V194.0ZM330.78125 191.8125V189.625H332.96875V191.8125ZM332.96875 189.625V183.0625H335.15625V189.625ZM324.21875 191.8125V189.625H326.40625V191.8125ZM322.03125 189.625V183.0625H324.21875V189.625ZM342.8125 191.8125V183.0625H345.0V191.8125ZM336.25 194.0V183.0625H338.4375V191.8125H342.8125V194.0ZM345.0 194.0V191.8125H349.375V183.0625H351.5625V194.0ZM357.03125 189.625V187.4375H361.40625V189.625ZM361.40625 187.4375V185.25H363.59375V187.4375ZM363.59375 185.25V183.0625H365.78125V185.25ZM354.84375 187.4375V185.25H357.03125V187.4375ZM352.65625 185.25V183.0625H354.84375V185.25ZM361.40625 191.8125V189.625H363.59375V191.8125ZM363.59375 194.0V191.8125H365.78125V194.0ZM354.84375 191.8125V189.625H357.03125V191.8125ZM352.65625 194.0V191.8125H354.84375V194.0ZM371.25 189.625V187.4375H375.625V189.625H374.53125V194.0H372.34375V189.625ZM375.625 187.4375V185.25H377.8125V187.4375ZM377.8125 185.25V183.0625H380.0V185.25ZM369.0625 187.4375V185.25H371.25V187.4375ZM366.875 185.25V183.0625H369.0625V185.25ZM381.09375 194.0V187.4375H392.03125V189.625H383.28125V191.8125H394.21875V194.0ZM381.09375 185.25V183.0625H394.21875V187.4375H392.03125V185.25ZM406.25 191.8125H415.0V185.25H406.25ZM404.0625 194.0V183.0625H417.1875V194.0ZM418.28125 185.25V183.0625H422.65625V194.0H420.46875V185.25ZM423.75 194.0V187.4375H434.6875V185.25H423.75V183.0625H436.875V189.625H425.9375V191.8125H436.875V194.0ZM437.96875 194.0V191.8125H448.90625V189.625H437.96875V187.4375H448.90625V185.25H437.96875V183.0625H451.09375V194.0ZM452.1875 189.625V183.0625H454.375V187.4375H463.125V183.0625H465.3125V194.0H463.125V189.625ZM466.40625 194.0V191.8125H477.34375V189.625H466.40625V183.0625H479.53125V185.25H468.59375V187.4375H479.53125V194.0ZM482.8125 191.8125H491.5625V189.625H482.8125ZM480.625 194.0V183.0625H493.75V185.25H482.8125V187.4375H493.75V194.0ZM494.84375 185.25V183.0625H507.96875V194.0H505.78125V185.25ZM511.25 187.4375H520.0V185.25H511.25ZM509.0625 194.0V183.0625H522.1875V194.0ZM511.25 191.8125H520.0V189.625H511.25ZM525.46875 187.4375H534.21875V185.25H525.46875ZM523.28125 194.0V191.8125H534.21875V189.625H523.28125V183.0625H536.40625V194.0ZM546.25 194.0V191.8125H548.4375V194.0ZM546.25 190.71875V187.4375H557.1875V189.625H548.4375V190.71875ZM546.25 185.25V183.0625H559.375V187.4375H557.1875V185.25ZM560.46875 194.0V191.8125H562.65625V194.0ZM563.75 194.0V191.8125H565.9375V194.0ZM563.75 190.71875V187.4375H574.6875V189.625H565.9375V190.71875ZM563.75 185.25V183.0625H576.875V187.4375H574.6875V185.25ZM577.96875 190.71875V183.0625H580.15625V190.71875ZM577.96875 194.0V191.8125H580.15625V194.0ZM581.25 194.0V191.8125H583.4375V194.0ZM581.25 190.71875V187.4375H592.1875V189.625H583.4375V190.71875ZM581.25 185.25V183.0625H594.375V187.4375H592.1875V185.25Z" fill="#6b7280"/></svg>