<svg xmlns="http://www.w3.org/2000/svg" viewBox="0 0 845.9 222.0" width="846" height="222"><path d="M30.0 49.046875V40.0625H65.48828125Q82.109375 40.0625 82.109375 58.03125Q82.109375 76.0 65.48828125 76.0H42.802734375Q40.017578125 76.0 37.7490234375 75.1689453125Q35.48046875 74.337890625 34.0654296875 73.080078125Q32.650390625 71.822265625 31.70703125 70.25Q30.763671875 68.677734375 30.3818359375 67.2626953125Q30.0 65.84765625 30.0 64.634765625Q30.0 60.322265625 33.50390625 57.04296875Q37.0078125 53.763671875 42.802734375 53.763671875H67.734375V62.298828125H42.802734375Q41.544921875 62.298828125 40.7138671875 62.9951171875Q39.8828125 63.69140625 39.8828125 64.634765625Q39.8828125 65.623046875 40.7138671875 66.3193359375Q41.544921875 67.015625 42.802734375 67.015625H65.48828125Q68.453125 67.015625 70.33984375 64.8818359375Q72.2265625 62.748046875 72.2265625 58.03125Q72.2265625 53.314453125 70.33984375 51.1806640625Q68.453125 49.046875 65.48828125 49.046875ZM103.8515625 68.90234375V73.84375H100.70703125Q98.640625 73.84375 98.640625 72.31640625Q98.640625 71.328125 99.673828125 70.96875L98.28125 68.90234375H99.763671875L101.06640625 70.833984375H102.59375V68.90234375ZM102.59375 71.732421875H100.70703125Q99.8984375 71.732421875 99.8984375 72.31640625Q99.8984375 72.9453125 100.70703125 72.9453125H102.59375ZM104.2109375 68.54296875Q103.04296875 67.375 101.380859375 67.375Q99.71875 67.375 98.55078125 68.54296875Q97.3828125 69.7109375 97.3828125 71.373046875Q97.3828125 73.03515625 98.55078125 74.203125Q99.71875 75.37109375 101.380859375 75.37109375Q103.04296875 75.37109375 104.2109375 74.203125Q105.37890625 73.03515625 105.37890625 71.373046875Q105.37890625 69.7109375 104.2109375 68.54296875ZM98.1015625 68.09375Q99.44921875 66.74609375 101.380859375 66.74609375Q103.3125 66.74609375 104.66015625 68.09375Q106.0078125 69.44140625 106.0078125 71.373046875Q106.0078125 73.3046875 104.66015625 74.65234375Q103.3125 76.0 101.380859375 76.0Q99.44921875 76.0 98.1015625 74.65234375Q96.75390625 73.3046875 96.75390625 71.373046875Q96.75390625 69.44140625 98.1015625 68.09375ZM84.35546875 76.0V57.357421875Q84.35546875 50.169921875 89.4091796875 45.1162109375Q94.462890625 40.0625 101.650390625 40.0625Q109.0625 40.0625 114.228515625 45.36328125Q119.39453125 40.0625 126.806640625 40.0625Q133.994140625 40.0625 139.0478515625 45.1162109375Q144.1015625 50.169921875 144.1015625 57.357421875V76.0H134.21875V57.357421875Q134.21875 54.302734375 132.0400390625 52.1240234375Q129.861328125 49.9453125 126.806640625 49.9453125Q123.70703125 49.9453125 121.4384765625 52.1240234375Q119.169921875 54.302734375 119.169921875 57.357421875V76.0H109.287109375V57.357421875Q109.287109375 54.302734375 107.0185546875 52.1240234375Q104.75 49.9453125 101.650390625 49.9453125Q98.595703125 49.9453125 96.4169921875 52.1240234375Q94.23828125 54.302734375 94.23828125 57.357421875V76.0ZM146.34765625 49.046875V40.0625H181.8359375Q198.45703125 40.0625 198.45703125 58.03125Q198.45703125 76.0 181.8359375 76.0H159.150390625Q156.365234375 76.0 154.0966796875 75.1689453125Q151.828125 74.337890625 150.4130859375 73.080078125Q148.998046875 71.822265625 148.0546875 70.25Q147.111328125 68.677734375 146.7294921875 67.2626953125Q146.34765625 65.84765625 146.34765625 64.634765625Q146.34765625 60.322265625 149.8515625 57.04296875Q153.35546875 53.763671875 159.150390625 53.763671875H184.08203125V62.298828125H159.150390625Q157.892578125 62.298828125 157.0615234375 62.9951171875Q156.23046875 63.69140625 156.23046875 64.634765625Q156.23046875 65.623046875 157.0615234375 66.3193359375Q157.892578125 67.015625 159.150390625 67.015625H181.8359375Q184.80078125 67.015625 186.6875 64.8818359375Q188.57421875 62.748046875 188.57421875 58.03125Q188.57421875 53.314453125 186.6875 51.1806640625Q184.80078125 49.046875 181.8359375 49.046875ZM200.703125 62.5234375V40.0625H210.5859375V62.5234375Q210.5859375 64.365234375 212.0234375 65.6904296875Q213.4609375 67.015625 215.52734375 67.015625H235.29296875V76.0H215.52734375Q209.373046875 76.0 205.0380859375 72.046875Q200.703125 68.09375 200.703125 62.5234375ZM254.16015625 40.0625H289.6484375V49.046875H254.16015625Q251.1953125 49.046875 249.30859375 51.1806640625Q247.421875 53.314453125 247.421875 58.03125Q247.421875 62.748046875 249.30859375 64.8818359375Q251.1953125 67.015625 254.16015625 67.015625H276.845703125Q278.103515625 67.015625 278.9345703125 66.3193359375Q279.765625 65.623046875 279.765625 64.634765625Q279.765625 63.69140625 278.9345703125 62.9951171875Q278.103515625 62.298828125 276.845703125 62.298828125H251.9140625V53.763671875H276.845703125Q282.640625 53.763671875 286.14453125 57.04296875Q289.6484375 60.322265625 289.6484375 64.634765625Q289.6484375 65.84765625 289.2666015625 67.2626953125Q288.884765625 68.677734375 287.94140625 70.25Q286.998046875 71.822265625 285.5830078125 73.080078125Q284.16796875 74.337890625 281.8994140625 75.1689453125Q279.630859375 76.0 276.845703125 76.0H254.16015625Q237.5390625 76.0 237.5390625 58.03125Q237.5390625 40.0625 254.16015625 40.0625ZM291.89453125 49.046875V40.0625H327.3828125Q344.00390625 40.0625 344.00390625 58.03125Q344.00390625 76.0 327.3828125 76.0H304.697265625Q301.912109375 76.0 299.6435546875 75.1689453125Q297.375 74.337890625 295.9599609375 73.080078125Q294.544921875 71.822265625 293.6015625 70.25Q292.658203125 68.677734375 292.2763671875 67.2626953125Q291.89453125 65.84765625 291.89453125 64.634765625Q291.89453125 60.322265625 295.3984375 57.04296875Q298.90234375 53.763671875 304.697265625 53.763671875H329.62890625V62.298828125H304.697265625Q303.439453125 62.298828125 302.6083984375 62.9951171875Q301.77734375 63.69140625 301.77734375 64.634765625Q301.77734375 65.623046875 302.6083984375 66.3193359375Q303.439453125 67.015625 304.697265625 67.015625H327.3828125Q330.34765625 67.015625 332.234375 64.8818359375Q334.12109375 62.748046875 334.12109375 58.03125Q334.12109375 53.314453125 332.234375 51.1806640625Q330.34765625 49.046875 327.3828125 49.046875ZM365.74609375 68.90234375V73.84375H362.6015625Q360.53515625 73.84375 360.53515625 72.31640625Q360.53515625 71.328125 361.568359375 70.96875L360.17578125 68.90234375H361.658203125L362.9609375 70.833984375H364.48828125V68.90234375ZM364.48828125 71.732421875H362.6015625Q361.79296875 71.732421875 361.79296875 72.31640625Q361.79296875 72.9453125 362.6015625 72.9453125H364.48828125ZM366.10546875 68.54296875Q364.9375 67.375 363.275390625 67.375Q361.61328125 67.375 360.4453125 68.54296875Q359.27734375 69.7109375 359.27734375 71.373046875Q359.27734375 73.03515625 360.4453125 74.203125Q361.61328125 75.37109375 363.275390625 75.37109375Q364.9375 75.37109375 366.10546875 74.203125Q367.2734375 73.03515625 367.2734375 71.373046875Q367.2734375 69.7109375 366.10546875 68.54296875ZM359.99609375 68.09375Q361.34375 66.74609375 363.275390625 66.74609375Q365.20703125 66.74609375 366.5546875 68.09375Q367.90234375 69.44140625 367.90234375 71.373046875Q367.90234375 73.3046875 366.5546875 74.65234375Q365.20703125 76.0 363.275390625 76.0Q361.34375 76.0 359.99609375 74.65234375Q358.6484375 73.3046875 358.6484375 71.373046875Q358.6484375 69.44140625 359.99609375 68.09375ZM346.25 76.0V57.357421875Q346.25 50.169921875 351.3037109375 45.1162109375Q356.357421875 40.0625 363.544921875 40.0625Q370.95703125 40.0625 376.123046875 45.36328125Q381.2890625 40.0625 388.701171875 40.0625Q395.888671875 40.0625 400.9423828125 45.1162109375Q405.99609375 50.169921875 405.99609375 57.357421875V76.0H396.11328125V57.357421875Q396.11328125 54.302734375 393.9345703125 52.1240234375Q391.755859375 49.9453125 388.701171875 49.9453125Q385.6015625 49.9453125 383.3330078125 52.1240234375Q381.064453125 54.302734375 381.064453125 57.357421875V76.0H371.181640625V57.357421875Q371.181640625 54.302734375 368.9130859375 52.1240234375Q366.64453125 49.9453125 363.544921875 49.9453125Q360.490234375 49.9453125 358.3115234375 52.1240234375Q356.1328125 54.302734375 356.1328125 57.357421875V76.0ZM408.2421875 49.046875V40.0625H443.73046875Q460.3515625 40.0625 460.3515625 58.03125Q460.3515625 76.0 443.73046875 76.0H421.044921875Q418.259765625 76.0 415.9912109375 75.1689453125Q413.72265625 74.337890625 412.3076171875 73.080078125Q410.892578125 71.822265625 409.94921875 70.25Q409.005859375 68.677734375 408.6240234375 67.2626953125Q408.2421875 65.84765625 408.2421875 64.634765625Q408.2421875 60.322265625 411.74609375 57.04296875Q415.25 53.763671875 421.044921875 53.763671875H445.9765625V62.298828125H421.044921875Q419.787109375 62.298828125 418.9560546875 62.9951171875Q418.125 63.69140625 418.125 64.634765625Q418.125 65.623046875 418.9560546875 66.3193359375Q419.787109375 67.015625 421.044921875 67.015625H443.73046875Q446.6953125 67.015625 448.58203125 64.8818359375Q450.46875 62.748046875 450.46875 58.03125Q450.46875 53.314453125 448.58203125 51.1806640625Q446.6953125 49.046875 443.73046875 49.046875Z" fill="#12151a"/><path d="M30.0 127.0V115.76953125Q30.0 112.984375 32.16748046875 111.0078125Q34.3349609375 109.03125 37.412109375 109.03125H47.294921875V113.5234375H37.412109375Q36.37890625 113.5234375 35.66015625 114.18603515625Q34.94140625 114.8486328125 34.94140625 115.76953125V118.015625H47.294921875V122.5078125H34.94140625V127.0ZM56.728515625 109.03125H68.0712890625Q69.4638671875 109.03125 70.59814453125 109.44677734375Q71.732421875 109.8623046875 72.43994140625 110.4912109375Q73.1474609375 111.1201171875 73.619140625 111.90625Q74.0908203125 112.6923828125 74.28173828125 113.39990234375Q74.47265625 114.107421875 74.47265625 114.7138671875Q74.47265625 116.8701171875 72.720703125 118.509765625Q70.96875 120.1494140625 68.0712890625 120.1494140625H55.60546875V115.8818359375H68.0712890625Q68.7001953125 115.8818359375 69.11572265625 115.53369140625Q69.53125 115.185546875 69.53125 114.7138671875Q69.53125 114.2197265625 69.11572265625 113.87158203125Q68.7001953125 113.5234375 68.0712890625 113.5234375H56.728515625Q55.24609375 113.5234375 54.302734375 114.59033203125Q53.359375 115.6572265625 53.359375 118.015625Q53.359375 120.3740234375 54.302734375 121.44091796875Q55.24609375 122.5078125 56.728515625 122.5078125H74.47265625V127.0H56.728515625Q48.41796875 127.0 48.41796875 118.015625Q48.41796875 109.03125 56.728515625 109.03125ZM75.595703125 127.0V109.03125H80.537109375V127.0ZM81.66015625 127.0V123.181640625H94.3505859375Q94.822265625 123.181640625 95.2041015625 122.81103515625Q95.5859375 122.4404296875 95.5859375 121.9462890625Q95.5859375 121.4521484375 95.2041015625 121.08154296875Q94.822265625 120.7109375 94.3505859375 120.7109375H87.724609375Q85.119140625 120.7109375 83.3896484375 119.06005859375Q81.66015625 117.4091796875 81.66015625 114.87109375Q81.66015625 113.79296875 82.0419921875 112.77099609375Q82.423828125 111.7490234375 83.15380859375 110.90673828125Q83.8837890625 110.064453125 85.06298828125 109.5478515625Q86.2421875 109.03125 87.724609375 109.03125H100.52734375V113.5234375H88.173828125Q87.455078125 113.5234375 87.0283203125 113.927734375Q86.6015625 114.33203125 86.6015625 114.87109375Q86.6015625 115.41015625 87.0283203125 115.814453125Q87.455078125 116.21875 88.173828125 116.21875H94.6875Q96.978515625 116.21875 98.7529296875 117.80224609375Q100.52734375 119.3857421875 100.52734375 121.609375Q100.52734375 123.720703125 98.91015625 125.3603515625Q97.29296875 127.0 94.6875 127.0ZM101.650390625 113.5234375V109.03125H119.39453125Q127.705078125 109.03125 127.705078125 118.015625Q127.705078125 127.0 119.39453125 127.0H108.0517578125Q106.6591796875 127.0 105.52490234375 126.58447265625Q104.390625 126.1689453125 103.68310546875 125.5400390625Q102.9755859375 124.9111328125 102.50390625 124.125Q102.0322265625 123.3388671875 101.84130859375 122.63134765625Q101.650390625 121.923828125 101.650390625 121.3173828125Q101.650390625 119.1611328125 103.40234375 117.521484375Q105.154296875 115.8818359375 108.0517578125 115.8818359375H120.517578125V120.1494140625H108.0517578125Q107.4228515625 120.1494140625 107.00732421875 120.49755859375Q106.591796875 120.845703125 106.591796875 121.3173828125Q106.591796875 121.8115234375 107.00732421875 122.15966796875Q107.4228515625 122.5078125 108.0517578125 122.5078125H119.39453125Q120.876953125 122.5078125 121.8203125 121.44091796875Q122.763671875 120.3740234375 122.763671875 118.015625Q122.763671875 115.6572265625 121.8203125 114.59033203125Q120.876953125 113.5234375 119.39453125 113.5234375ZM128.828125 127.0V115.76953125Q128.828125 112.984375 130.99560546875 111.0078125Q133.1630859375 109.03125 136.240234375 109.03125H147.6953125Q149.177734375 109.03125 150.35693359375 109.5478515625Q151.5361328125 110.064453125 152.26611328125 110.90673828125Q152.99609375 111.7490234375 153.3779296875 112.77099609375Q153.759765625 113.79296875 153.759765625 114.87109375Q153.759765625 117.4091796875 152.0302734375 119.06005859375Q150.30078125 120.7109375 147.6953125 120.7109375H141.0693359375Q140.59765625 120.7109375 140.2158203125 121.08154296875Q139.833984375 121.4521484375 139.833984375 121.9462890625Q139.833984375 122.4404296875 140.2158203125 122.81103515625Q140.59765625 123.181640625 141.0693359375 123.181640625H153.759765625V127.0H140.732421875Q138.126953125 127.0 136.509765625 125.3603515625Q134.892578125 123.720703125 134.892578125 121.609375Q134.892578125 119.3857421875 136.6669921875 117.80224609375Q138.44140625 116.21875 140.732421875 116.21875H147.24609375Q147.96484375 116.21875 148.3916015625 115.814453125Q148.818359375 115.41015625 148.818359375 114.87109375Q148.818359375 114.33203125 148.3916015625 113.927734375Q147.96484375 113.5234375 147.24609375 113.5234375H136.240234375Q135.20703125 113.5234375 134.48828125 114.18603515625Q133.76953125 114.8486328125 133.76953125 115.76953125V127.0ZM167.236328125 127.0V123.181640625H179.9267578125Q180.3984375 123.181640625 180.7802734375 122.81103515625Q181.162109375 122.4404296875 181.162109375 121.9462890625Q181.162109375 121.4521484375 180.7802734375 121.08154296875Q180.3984375 120.7109375 179.9267578125 120.7109375H173.30078125Q170.6953125 120.7109375 168.9658203125 119.06005859375Q167.236328125 117.4091796875 167.236328125 114.87109375Q167.236328125 113.79296875 167.6181640625 112.77099609375Q168.0 111.7490234375 168.72998046875 110.90673828125Q169.4599609375 110.064453125 170.63916015625 109.5478515625Q171.818359375 109.03125 173.30078125 109.03125H186.103515625V113.5234375H173.75Q173.03125 113.5234375 172.6044921875 113.927734375Q172.177734375 114.33203125 172.177734375 114.87109375Q172.177734375 115.41015625 172.6044921875 115.814453125Q173.03125 116.21875 173.75 116.21875H180.263671875Q182.5546875 116.21875 184.3291015625 117.80224609375Q186.103515625 119.3857421875 186.103515625 121.609375Q186.103515625 123.720703125 184.486328125 125.3603515625Q182.869140625 127.0 180.263671875 127.0ZM187.2265625 113.5234375V109.03125H205.1953125V113.5234375H198.681640625V127.0H193.740234375V113.5234375ZM206.318359375 127.0V115.76953125Q206.318359375 112.984375 208.48583984375 111.0078125Q210.6533203125 109.03125 213.73046875 109.03125H225.185546875Q226.66796875 109.03125 227.84716796875 109.5478515625Q229.0263671875 110.064453125 229.75634765625 110.90673828125Q230.486328125 111.7490234375 230.8681640625 112.77099609375Q231.25 113.79296875 231.25 114.87109375Q231.25 117.4091796875 229.5205078125 119.06005859375Q227.791015625 120.7109375 225.185546875 120.7109375H218.5595703125Q218.087890625 120.7109375 217.7060546875 121.08154296875Q217.32421875 121.4521484375 217.32421875 121.9462890625Q217.32421875 122.4404296875 217.7060546875 122.81103515625Q218.087890625 123.181640625 218.5595703125 123.181640625H231.25V127.0H218.22265625Q215.6171875 127.0 214.0 125.3603515625Q212.3828125 123.720703125 212.3828125 121.609375Q212.3828125 119.3857421875 214.1572265625 117.80224609375Q215.931640625 116.21875 218.22265625 116.21875H224.736328125Q225.455078125 116.21875 225.8818359375 115.814453125Q226.30859375 115.41015625 226.30859375 114.87109375Q226.30859375 114.33203125 225.8818359375 113.927734375Q225.455078125 113.5234375 224.736328125 113.5234375H213.73046875Q212.697265625 113.5234375 211.978515625 114.18603515625Q211.259765625 114.8486328125 211.259765625 115.76953125V127.0ZM240.68359375 109.03125H252.0263671875Q253.4189453125 109.03125 254.55322265625 109.44677734375Q255.6875 109.8623046875 256.39501953125 110.4912109375Q257.1025390625 111.1201171875 257.57421875 111.90625Q258.0458984375 112.6923828125 258.23681640625 113.39990234375Q258.427734375 114.107421875 258.427734375 114.7138671875Q258.427734375 116.8701171875 256.67578125 118.509765625Q254.923828125 120.1494140625 252.0263671875 120.1494140625H239.560546875V115.8818359375H252.0263671875Q252.6552734375 115.8818359375 253.07080078125 115.53369140625Q253.486328125 115.185546875 253.486328125 114.7138671875Q253.486328125 114.2197265625 253.07080078125 113.87158203125Q252.6552734375 113.5234375 252.0263671875 113.5234375H240.68359375Q239.201171875 113.5234375 238.2578125 114.59033203125Q237.314453125 115.6572265625 237.314453125 118.015625Q237.314453125 120.3740234375 238.2578125 121.44091796875Q239.201171875 122.5078125 240.68359375 122.5078125H258.427734375V127.0H240.68359375Q232.373046875 127.0 232.373046875 118.015625Q232.373046875 109.03125 240.68359375 109.03125ZM259.55078125 113.5234375V109.03125H277.294921875Q285.60546875 109.03125 285.60546875 118.015625Q285.60546875 127.0 277.294921875 127.0H265.9521484375Q264.5595703125 127.0 263.42529296875 126.58447265625Q262.291015625 126.1689453125 261.58349609375 125.5400390625Q260.8759765625 124.9111328125 260.404296875 124.125Q259.9326171875 123.3388671875 259.74169921875 122.63134765625Q259.55078125 121.923828125 259.55078125 121.3173828125Q259.55078125 119.1611328125 261.302734375 117.521484375Q263.0546875 115.8818359375 265.9521484375 115.8818359375H278.41796875V120.1494140625H265.9521484375Q265.3232421875 120.1494140625 264.90771484375 120.49755859375Q264.4921875 120.845703125 264.4921875 121.3173828125Q264.4921875 121.8115234375 264.90771484375 122.15966796875Q265.3232421875 122.5078125 265.9521484375 122.5078125H277.294921875Q278.77734375 122.5078125 279.720703125 121.44091796875Q280.6640625 120.3740234375 280.6640625 118.015625Q280.6640625 115.6572265625 279.720703125 114.59033203125Q278.77734375 113.5234375 277.294921875 113.5234375ZM286.728515625 127.0V109.03125H291.669921875V115.76953125H297.28515625Q298.318359375 115.76953125 299.037109375 115.10693359375Q299.755859375 114.4443359375 299.755859375 113.5234375V109.03125H304.697265625V113.5234375Q304.697265625 116.083984375 302.810546875 118.015625Q304.697265625 119.947265625 304.697265625 122.5078125V127.0H299.755859375V122.5078125Q299.755859375 121.5869140625 299.037109375 120.92431640625Q298.318359375 120.26171875 297.28515625 120.26171875H291.669921875V127.0ZM305.8203125 127.0V123.181640625H318.5107421875Q318.982421875 123.181640625 319.3642578125 122.81103515625Q319.74609375 122.4404296875 319.74609375 121.9462890625Q319.74609375 121.4521484375 319.3642578125 121.08154296875Q318.982421875 120.7109375 318.5107421875 120.7109375H311.884765625Q309.279296875 120.7109375 307.5498046875 119.06005859375Q305.8203125 117.4091796875 305.8203125 114.87109375Q305.8203125 113.79296875 306.2021484375 112.77099609375Q306.583984375 111.7490234375 307.31396484375 110.90673828125Q308.0439453125 110.064453125 309.22314453125 109.5478515625Q310.40234375 109.03125 311.884765625 109.03125H324.6875V113.5234375H312.333984375Q311.615234375 113.5234375 311.1884765625 113.927734375Q310.76171875 114.33203125 310.76171875 114.87109375Q310.76171875 115.41015625 311.1884765625 115.814453125Q311.615234375 116.21875 312.333984375 116.21875H318.84765625Q321.138671875 116.21875 322.9130859375 117.80224609375Q324.6875 119.3857421875 324.6875 121.609375Q324.6875 123.720703125 323.0703125 125.3603515625Q321.453125 127.0 318.84765625 127.0ZM338.1640625 127.0V115.76953125Q338.1640625 112.984375 340.33154296875 111.0078125Q342.4990234375 109.03125 345.576171875 109.03125H355.68359375Q358.7607421875 109.03125 360.92822265625 111.0078125Q363.095703125 112.984375 363.095703125 115.76953125Q363.095703125 118.5546875 360.92822265625 120.53125Q358.7607421875 122.5078125 355.68359375 122.5078125H344.228515625V118.015625H355.68359375Q356.716796875 118.015625 357.435546875 117.35302734375Q358.154296875 116.6904296875 358.154296875 115.76953125Q358.154296875 114.8486328125 357.435546875 114.18603515625Q356.716796875 113.5234375 355.68359375 113.5234375H345.576171875Q344.54296875 113.5234375 343.82421875 114.18603515625Q343.10546875 114.8486328125 343.10546875 115.76953125V127.0ZM364.21875 113.5234375V109.03125H381.962890625Q390.2734375 109.03125 390.2734375 118.015625Q390.2734375 127.0 381.962890625 127.0H370.6201171875Q369.2275390625 127.0 368.09326171875 126.58447265625Q366.958984375 126.1689453125 366.25146484375 125.5400390625Q365.5439453125 124.9111328125 365.072265625 124.125Q364.6005859375 123.3388671875 364.40966796875 122.63134765625Q364.21875 121.923828125 364.21875 121.3173828125Q364.21875 119.1611328125 365.970703125 117.521484375Q367.72265625 115.8818359375 370.6201171875 115.8818359375H383.0859375V120.1494140625H370.6201171875Q369.9912109375 120.1494140625 369.57568359375 120.49755859375Q369.16015625 120.845703125 369.16015625 121.3173828125Q369.16015625 121.8115234375 369.57568359375 122.15966796875Q369.9912109375 122.5078125 370.6201171875 122.5078125H381.962890625Q383.4453125 122.5078125 384.388671875 121.44091796875Q385.33203125 120.3740234375 385.33203125 118.015625Q385.33203125 115.6572265625 384.388671875 114.59033203125Q383.4453125 113.5234375 381.962890625 113.5234375ZM391.396484375 127.0V123.181640625H404.0869140625Q404.55859375 123.181640625 404.9404296875 122.81103515625Q405.322265625 122.4404296875 405.322265625 121.9462890625Q405.322265625 121.4521484375 404.9404296875 121.08154296875Q404.55859375 120.7109375 404.0869140625 120.7109375H397.4609375Q394.85546875 120.7109375 393.1259765625 119.06005859375Q391.396484375 117.4091796875 391.396484375 114.87109375Q391.396484375 113.79296875 391.7783203125 112.77099609375Q392.16015625 111.7490234375 392.89013671875 110.90673828125Q393.6201171875 110.064453125 394.79931640625 109.5478515625Q395.978515625 109.03125 397.4609375 109.03125H410.263671875V113.5234375H397.91015625Q397.19140625 113.5234375 396.7646484375 113.927734375Q396.337890625 114.33203125 396.337890625 114.87109375Q396.337890625 115.41015625 396.7646484375 115.814453125Q397.19140625 116.21875 397.91015625 116.21875H404.423828125Q406.71484375 116.21875 408.4892578125 117.80224609375Q410.263671875 119.3857421875 410.263671875 121.609375Q410.263671875 123.720703125 408.646484375 125.3603515625Q407.029296875 127.0 404.423828125 127.0ZM411.38671875 113.5234375V109.03125H429.35546875V113.5234375H422.841796875V127.0H417.900390625V113.5234375ZM442.83203125 113.5234375V109.03125H460.576171875Q468.88671875 109.03125 468.88671875 118.015625Q468.88671875 127.0 460.576171875 127.0H449.2333984375Q447.8408203125 127.0 446.70654296875 126.58447265625Q445.572265625 126.1689453125 444.86474609375 125.5400390625Q444.1572265625 124.9111328125 443.685546875 124.125Q443.2138671875 123.3388671875 443.02294921875 122.63134765625Q442.83203125 121.923828125 442.83203125 121.3173828125Q442.83203125 119.1611328125 444.583984375 117.521484375Q446.3359375 115.8818359375 449.2333984375 115.8818359375H461.69921875V120.1494140625H449.2333984375Q448.6044921875 120.1494140625 448.18896484375 120.49755859375Q447.7734375 120.845703125 447.7734375 121.3173828125Q447.7734375 121.8115234375 448.18896484375 122.15966796875Q448.6044921875 122.5078125 449.2333984375 122.5078125H460.576171875Q462.05859375 122.5078125 463.001953125 121.44091796875Q463.9453125 120.3740234375 463.9453125 118.015625Q463.9453125 115.6572265625 463.001953125 114.59033203125Q462.05859375 113.5234375 460.576171875 113.5234375ZM477.421875 112.580078125V110.109375H478.994140625Q480.02734375 110.109375 480.02734375 110.873046875Q480.02734375 111.3671875 479.5107421875 111.546875L480.20703125 112.580078125H479.4658203125L478.814453125 111.6142578125H478.05078125V112.580078125ZM478.05078125 111.1650390625H478.994140625Q479.3984375 111.1650390625 479.3984375 110.873046875Q479.3984375 110.55859375 478.994140625 110.55859375H478.05078125ZM477.2421875 112.759765625Q477.826171875 113.34375 478.6572265625 113.34375Q479.48828125 113.34375 480.072265625 112.759765625Q480.65625 112.17578125 480.65625 111.3447265625Q480.65625 110.513671875 480.072265625 109.9296875Q479.48828125 109.345703125 478.6572265625 109.345703125Q477.826171875 109.345703125 477.2421875 109.9296875Q476.658203125 110.513671875 476.658203125 111.3447265625Q476.658203125 112.17578125 477.2421875 112.759765625ZM480.296875 112.984375Q479.623046875 113.658203125 478.6572265625 113.658203125Q477.69140625 113.658203125 477.017578125 112.984375Q476.34375 112.310546875 476.34375 111.3447265625Q476.34375 110.37890625 477.017578125 109.705078125Q477.69140625 109.03125 478.6572265625 109.03125Q479.623046875 109.03125 480.296875 109.705078125Q480.970703125 110.37890625 480.970703125 111.3447265625Q480.970703125 112.310546875 480.296875 112.984375ZM470.009765625 118.3525390625V109.03125H474.951171875V118.8017578125Q474.951171875 120.3291015625 476.04052734375 121.41845703125Q477.1298828125 122.5078125 478.6572265625 122.5078125Q480.1845703125 122.5078125 481.27392578125 121.41845703125Q482.36328125 120.3291015625 482.36328125 118.8017578125V109.03125H487.3046875V118.3525390625Q487.3046875 121.9462890625 484.77783203125 124.47314453125Q482.2509765625 127.0 478.6572265625 127.0Q475.0634765625 127.0 472.53662109375 124.47314453125Q470.009765625 121.9462890625 470.009765625 118.3525390625ZM488.427734375 127.0V115.76953125Q488.427734375 112.984375 490.59521484375 111.0078125Q492.7626953125 109.03125 495.83984375 109.03125H507.294921875Q508.77734375 109.03125 509.95654296875 109.5478515625Q511.1357421875 110.064453125 511.86572265625 110.90673828125Q512.595703125 111.7490234375 512.9775390625 112.77099609375Q513.359375 113.79296875 513.359375 114.87109375Q513.359375 117.4091796875 511.6298828125 119.06005859375Q509.900390625 120.7109375 507.294921875 120.7109375H500.6689453125Q500.197265625 120.7109375 499.8154296875 121.08154296875Q499.43359375 121.4521484375 499.43359375 121.9462890625Q499.43359375 122.4404296875 499.8154296875 122.81103515625Q500.197265625 123.181640625 500.6689453125 123.181640625H513.359375V127.0H500.33203125Q497.7265625 127.0 496.109375 125.3603515625Q494.4921875 123.720703125 494.4921875 121.609375Q494.4921875 119.3857421875 496.2666015625 117.80224609375Q498.041015625 116.21875 500.33203125 116.21875H506.845703125Q507.564453125 116.21875 507.9912109375 115.814453125Q508.41796875 115.41015625 508.41796875 114.87109375Q508.41796875 114.33203125 507.9912109375 113.927734375Q507.564453125 113.5234375 506.845703125 113.5234375H495.83984375Q494.806640625 113.5234375 494.087890625 114.18603515625Q493.369140625 114.8486328125 493.369140625 115.76953125V127.0ZM514.482421875 127.0V109.03125H519.423828125V127.0ZM528.857421875 109.03125H538.515625V113.5234375H528.857421875Q527.375 113.5234375 526.431640625 114.59033203125Q525.48828125 115.6572265625 525.48828125 118.015625Q525.48828125 120.3740234375 526.431640625 121.44091796875Q527.375 122.5078125 528.857421875 122.5078125H538.515625V127.0H528.857421875Q520.546875 127.0 520.546875 118.015625Q520.546875 109.03125 528.857421875 109.03125ZM547.94921875 122.5078125H557.3828125Q558.865234375 122.5078125 559.80859375 121.44091796875Q560.751953125 120.3740234375 560.751953125 118.015625Q560.751953125 115.6572265625 559.80859375 114.59033203125Q558.865234375 113.5234375 557.3828125 113.5234375H547.94921875Q546.466796875 113.5234375 545.5234375 114.59033203125Q544.580078125 115.6572265625 544.580078125 118.015625Q544.580078125 120.3740234375 545.5234375 121.44091796875Q546.466796875 122.5078125 547.94921875 122.5078125ZM547.94921875 109.03125H557.3828125Q565.693359375 109.03125 565.693359375 118.015625Q565.693359375 127.0 557.3828125 127.0H547.94921875Q539.638671875 127.0 539.638671875 118.015625Q539.638671875 109.03125 547.94921875 109.03125ZM576.564453125 123.451171875V125.921875H574.9921875Q573.958984375 125.921875 573.958984375 125.158203125Q573.958984375 124.6640625 574.4755859375 124.484375L573.779296875 123.451171875H574.5205078125L575.171875 124.4169921875H575.935546875V123.451171875ZM575.935546875 124.8662109375H574.9921875Q574.587890625 124.8662109375 574.587890625 125.158203125Q574.587890625 125.47265625 574.9921875 125.47265625H575.935546875ZM576.744140625 123.271484375Q576.16015625 122.6875 575.3291015625 122.6875Q574.498046875 122.6875 573.9140625 123.271484375Q573.330078125 123.85546875 573.330078125 124.6865234375Q573.330078125 125.517578125 573.9140625 126.1015625Q574.498046875 126.685546875 575.3291015625 126.685546875Q576.16015625 126.685546875 576.744140625 126.1015625Q577.328125 125.517578125 577.328125 124.6865234375Q577.328125 123.85546875 576.744140625 123.271484375ZM573.689453125 123.046875Q574.36328125 122.373046875 575.3291015625 122.373046875Q576.294921875 122.373046875 576.96875 123.046875Q577.642578125 123.720703125 577.642578125 124.6865234375Q577.642578125 125.65234375 576.96875 126.326171875Q576.294921875 127.0 575.3291015625 127.0Q574.36328125 127.0 573.689453125 126.326171875Q573.015625 125.65234375 573.015625 124.6865234375Q573.015625 123.720703125 573.689453125 123.046875ZM566.81640625 127.0V117.6787109375Q566.81640625 114.0849609375 569.34326171875 111.55810546875Q571.8701171875 109.03125 575.4638671875 109.03125Q579.169921875 109.03125 581.7529296875 111.681640625Q584.3359375 109.03125 588.0419921875 109.03125Q591.6357421875 109.03125 594.16259765625 111.55810546875Q596.689453125 114.0849609375 596.689453125 117.6787109375V127.0H591.748046875V117.6787109375Q591.748046875 116.1513671875 590.65869140625 115.06201171875Q589.5693359375 113.97265625 588.0419921875 113.97265625Q586.4921875 113.97265625 585.35791015625 115.06201171875Q584.2236328125 116.1513671875 584.2236328125 117.6787109375V127.0H579.2822265625V117.6787109375Q579.2822265625 116.1513671875 578.14794921875 115.06201171875Q577.013671875 113.97265625 575.4638671875 113.97265625Q573.9365234375 113.97265625 572.84716796875 115.06201171875Q571.7578125 116.1513671875 571.7578125 117.6787109375V127.0ZM618.4765625 122.5078125H627.91015625Q629.392578125 122.5078125 630.3359375 121.44091796875Q631.279296875 120.3740234375 631.279296875 118.015625Q631.279296875 115.6572265625 630.3359375 114.59033203125Q629.392578125 113.5234375 627.91015625 113.5234375H618.4765625Q616.994140625 113.5234375 616.05078125 114.59033203125Q615.107421875 115.6572265625 615.107421875 118.015625Q615.107421875 120.3740234375 616.05078125 121.44091796875Q616.994140625 122.5078125 618.4765625 122.5078125ZM618.4765625 109.03125H627.91015625Q636.220703125 109.03125 636.220703125 118.015625Q636.220703125 127.0 627.91015625 127.0H618.4765625Q610.166015625 127.0 610.166015625 118.015625Q610.166015625 109.03125 618.4765625 109.03125ZM647.2265625 123.451171875V125.921875H645.654296875Q644.62109375 125.921875 644.62109375 125.158203125Q644.62109375 124.6640625 645.1376953125 124.484375L644.44140625 123.451171875H645.1826171875L645.833984375 124.4169921875H646.59765625V123.451171875ZM646.59765625 124.8662109375H645.654296875Q645.25 124.8662109375 645.25 125.158203125Q645.25 125.47265625 645.654296875 125.47265625H646.59765625ZM647.40625 123.271484375Q646.822265625 122.6875 645.9912109375 122.6875Q645.16015625 122.6875 644.576171875 123.271484375Q643.9921875 123.85546875 643.9921875 124.6865234375Q643.9921875 125.517578125 644.576171875 126.1015625Q645.16015625 126.685546875 645.9912109375 126.685546875Q646.822265625 126.685546875 647.40625 126.1015625Q647.990234375 125.517578125 647.990234375 124.6865234375Q647.990234375 123.85546875 647.40625 123.271484375ZM644.3515625 123.046875Q645.025390625 122.373046875 645.9912109375 122.373046875Q646.95703125 122.373046875 647.630859375 123.046875Q648.3046875 123.720703125 648.3046875 124.6865234375Q648.3046875 125.65234375 647.630859375 126.326171875Q646.95703125 127.0 645.9912109375 127.0Q645.025390625 127.0 644.3515625 126.326171875Q643.677734375 125.65234375 643.677734375 124.6865234375Q643.677734375 123.720703125 644.3515625 123.046875ZM637.34375 127.0V117.6787109375Q637.34375 114.0849609375 639.87060546875 111.55810546875Q642.3974609375 109.03125 645.9912109375 109.03125Q649.5849609375 109.03125 652.11181640625 111.55810546875Q654.638671875 114.0849609375 654.638671875 117.6787109375V127.0H649.697265625V117.2294921875Q649.697265625 115.7021484375 648.60791015625 114.61279296875Q647.5185546875 113.5234375 645.9912109375 113.5234375Q644.4638671875 113.5234375 643.37451171875 114.61279296875Q642.28515625 115.7021484375 642.28515625 117.2294921875V127.0ZM668.115234375 118.3525390625V109.03125H673.056640625V118.8017578125Q673.056640625 120.3291015625 674.14599609375 121.41845703125Q675.2353515625 122.5078125 676.7626953125 122.5078125Q678.2900390625 122.5078125 679.37939453125 121.41845703125Q680.46875 120.3291015625 680.46875 118.8017578125V109.03125H685.41015625V118.3525390625Q685.41015625 121.9462890625 682.88330078125 124.47314453125Q680.3564453125 127.0 676.7626953125 127.0Q673.1689453125 127.0 670.64208984375 124.47314453125Q668.115234375 121.9462890625 668.115234375 118.3525390625ZM686.533203125 127.0V109.03125H691.474609375V127.0ZM702.48046875 123.451171875V125.921875H700.908203125Q699.875 125.921875 699.875 125.158203125Q699.875 124.6640625 700.3916015625 124.484375L699.6953125 123.451171875H700.4365234375L701.087890625 124.4169921875H701.8515625V123.451171875ZM701.8515625 124.8662109375H700.908203125Q700.50390625 124.8662109375 700.50390625 125.158203125Q700.50390625 125.47265625 700.908203125 125.47265625H701.8515625ZM702.66015625 123.271484375Q702.076171875 122.6875 701.2451171875 122.6875Q700.4140625 122.6875 699.830078125 123.271484375Q699.24609375 123.85546875 699.24609375 124.6865234375Q699.24609375 125.517578125 699.830078125 126.1015625Q700.4140625 126.685546875 701.2451171875 126.685546875Q702.076171875 126.685546875 702.66015625 126.1015625Q703.244140625 125.517578125 703.244140625 124.6865234375Q703.244140625 123.85546875 702.66015625 123.271484375ZM699.60546875 123.046875Q700.279296875 122.373046875 701.2451171875 122.373046875Q702.2109375 122.373046875 702.884765625 123.046875Q703.55859375 123.720703125 703.55859375 124.6865234375Q703.55859375 125.65234375 702.884765625 126.326171875Q702.2109375 127.0 701.2451171875 127.0Q700.279296875 127.0 699.60546875 126.326171875Q698.931640625 125.65234375 698.931640625 124.6865234375Q698.931640625 123.720703125 699.60546875 123.046875ZM692.59765625 127.0V117.6787109375Q692.59765625 114.0849609375 695.12451171875 111.55810546875Q697.6513671875 109.03125 701.2451171875 109.03125Q704.8388671875 109.03125 707.36572265625 111.55810546875Q709.892578125 114.0849609375 709.892578125 117.6787109375V127.0H704.951171875V117.2294921875Q704.951171875 115.7021484375 703.86181640625 114.61279296875Q702.7724609375 113.5234375 701.2451171875 113.5234375Q699.7177734375 113.5234375 698.62841796875 114.61279296875Q697.5390625 115.7021484375 697.5390625 117.2294921875V127.0ZM719.326171875 109.03125H730.6689453125Q732.0615234375 109.03125 733.19580078125 109.44677734375Q734.330078125 109.8623046875 735.03759765625 110.4912109375Q735.7451171875 111.1201171875 736.216796875 111.90625Q736.6884765625 112.6923828125 736.87939453125 113.39990234375Q737.0703125 114.107421875 737.0703125 114.7138671875Q737.0703125 116.8701171875 735.318359375 118.509765625Q733.56640625 120.1494140625 730.6689453125 120.1494140625H718.203125V115.8818359375H730.6689453125Q731.2978515625 115.8818359375 731.71337890625 115.53369140625Q732.12890625 115.185546875 732.12890625 114.7138671875Q732.12890625 114.2197265625 731.71337890625 113.87158203125Q731.2978515625 113.5234375 730.6689453125 113.5234375H719.326171875Q717.84375 113.5234375 716.900390625 114.59033203125Q715.95703125 115.6572265625 715.95703125 118.015625Q715.95703125 120.3740234375 716.900390625 121.44091796875Q717.84375 122.5078125 719.326171875 122.5078125H737.0703125V127.0H719.326171875Q711.015625 127.0 711.015625 118.015625Q711.015625 109.03125 719.326171875 109.03125ZM738.193359375 113.5234375V109.03125H756.162109375V113.5234375H749.6484375V127.0H744.70703125V113.5234375ZM757.28515625 113.5234375V109.03125H775.029296875Q783.33984375 109.03125 783.33984375 118.015625Q783.33984375 127.0 775.029296875 127.0H763.6865234375Q762.2939453125 127.0 761.15966796875 126.58447265625Q760.025390625 126.1689453125 759.31787109375 125.5400390625Q758.6103515625 124.9111328125 758.138671875 124.125Q757.6669921875 123.3388671875 757.47607421875 122.63134765625Q757.28515625 121.923828125 757.28515625 121.3173828125Q757.28515625 119.1611328125 759.037109375 117.521484375Q760.7890625 115.8818359375 763.6865234375 115.8818359375H776.15234375V120.1494140625H763.6865234375Q763.0576171875 120.1494140625 762.64208984375 120.49755859375Q762.2265625 120.845703125 762.2265625 121.3173828125Q762.2265625 121.8115234375 762.64208984375 122.15966796875Q763.0576171875 122.5078125 763.6865234375 122.5078125H775.029296875Q776.51171875 122.5078125 777.455078125 121.44091796875Q778.3984375 120.3740234375 778.3984375 118.015625Q778.3984375 115.6572265625 777.455078125 114.59033203125Q776.51171875 113.5234375 775.029296875 113.5234375ZM796.81640625 127.0V109.03125H801.7578125V115.76953125H807.373046875Q808.40625 115.76953125 809.125 115.10693359375Q809.84375 114.4443359375 809.84375 113.5234375V109.03125H814.78515625V113.5234375Q814.78515625 116.083984375 812.8984375 118.015625Q814.78515625 119.947265625 814.78515625 122.5078125V127.0H809.84375V122.5078125Q809.84375 121.5869140625 809.125 120.92431640625Q808.40625 120.26171875 807.373046875 120.26171875H801.7578125V127.0Z" fill="#3a3f47"/><path d="M30.0 155.625V152.5H42.34375Q48.125 152.5 48.125 158.75Q48.125 165.0 42.34375 165.0H34.453125Q33.484375 165.0 32.6953125 164.7109375Q31.90625 164.421875 31.4140625 163.984375Q30.921875 163.546875 30.59375 163.0Q30.265625 162.453125 30.1328125 161.9609375Q30.0 161.46875 30.0 161.046875Q30.0 159.546875 31.21875 158.40625Q32.4375 157.265625 34.453125 157.265625H43.125V160.234375H34.453125Q34.015625 160.234375 33.7265625 160.4765625Q33.4375 160.71875 33.4375 161.046875Q33.4375 161.390625 33.7265625 161.6328125Q34.015625 161.875 34.453125 161.875H42.34375Q43.375 161.875 44.03125 161.1328125Q44.6875 160.390625 44.6875 158.75Q44.6875 157.109375 44.03125 156.3671875Q43.375 155.625 42.34375 155.625ZM48.90625 152.5H52.34375V160.3125Q52.34375 160.953125 52.84375 161.4140625Q53.34375 161.875 54.0625 161.875H61.09375Q61.8125 161.875 62.3125 161.4140625Q62.8125 160.953125 62.8125 160.3125Q62.8125 159.671875 62.3125 159.2109375Q61.8125 158.75 61.09375 158.75H53.125V155.625H61.09375Q63.234375 155.625 64.7421875 157.0Q66.25 158.375 66.25 160.3125Q66.25 162.25 64.7421875 163.625Q63.234375 165.0 61.09375 165.0H54.0625Q51.921875 165.0 50.4140625 163.625Q48.90625 162.25 48.90625 160.3125ZM72.8125 152.5H79.53125V155.625H72.8125Q71.78125 155.625 71.125 156.3671875Q70.46875 157.109375 70.46875 158.75Q70.46875 160.390625 71.125 161.1328125Q71.78125 161.875 72.8125 161.875H79.53125V165.0H72.8125Q67.03125 165.0 67.03125 158.75Q67.03125 152.5 72.8125 152.5ZM80.3125 165.0V157.1875Q80.3125 155.25 81.8203125 153.875Q83.328125 152.5 85.46875 152.5H92.5Q94.640625 152.5 96.1484375 153.875Q97.65625 155.25 97.65625 157.1875V160.3125Q97.65625 162.25 96.1484375 163.625Q94.640625 165.0 92.5 165.0H84.53125V161.875H92.5Q93.21875 161.875 93.71875 161.4140625Q94.21875 160.953125 94.21875 160.3125V157.1875Q94.21875 156.546875 93.71875 156.0859375Q93.21875 155.625 92.5 155.625H85.46875Q84.75 155.625 84.25 156.0859375Q83.75 156.546875 83.75 157.1875V165.0ZM104.21875 152.5H112.109375Q113.078125 152.5 113.8671875 152.7890625Q114.65625 153.078125 115.1484375 153.515625Q115.640625 153.953125 115.96875 154.5Q116.296875 155.046875 116.4296875 155.5390625Q116.5625 156.03125 116.5625 156.453125Q116.5625 157.953125 115.34375 159.09375Q114.125 160.234375 112.109375 160.234375H103.4375V157.265625H112.109375Q112.546875 157.265625 112.8359375 157.0234375Q113.125 156.78125 113.125 156.453125Q113.125 156.109375 112.8359375 155.8671875Q112.546875 155.625 112.109375 155.625H104.21875Q103.1875 155.625 102.53125 156.3671875Q101.875 157.109375 101.875 158.75Q101.875 160.390625 102.53125 161.1328125Q103.1875 161.875 104.21875 161.875H116.5625V165.0H104.21875Q98.4375 165.0 98.4375 158.75Q98.4375 152.5 104.21875 152.5ZM117.34375 165.0V157.1875Q117.34375 155.25 118.8515625 153.875Q120.359375 152.5 122.5 152.5H129.375V155.625H122.5Q121.78125 155.625 121.28125 156.0859375Q120.78125 156.546875 120.78125 157.1875V158.75H129.375V161.875H120.78125V165.0ZM135.9375 152.5H148.28125V155.625H135.9375Q134.90625 155.625 134.25 156.3671875Q133.59375 157.109375 133.59375 158.75Q133.59375 160.390625 134.25 161.1328125Q134.90625 161.875 135.9375 161.875H143.828125Q144.265625 161.875 144.5546875 161.6328125Q144.84375 161.390625 144.84375 161.046875Q144.84375 160.71875 144.5546875 160.4765625Q144.265625 160.234375 143.828125 160.234375H135.15625V157.265625H143.828125Q145.84375 157.265625 147.0625 158.40625Q148.28125 159.546875 148.28125 161.046875Q148.28125 161.46875 148.1484375 161.9609375Q148.015625 162.453125 147.6875 163.0Q147.359375 163.546875 146.8671875 163.984375Q146.375 164.421875 145.5859375 164.7109375Q144.796875 165.0 143.828125 165.0H135.9375Q130.15625 165.0 130.15625 158.75Q130.15625 152.5 135.9375 152.5ZM149.0625 165.0V152.5H152.5V157.1875H158.125V152.5H161.5625V165.0H158.125V160.3125H152.5V165.0ZM162.34375 165.0V152.5H165.78125V165.0ZM166.5625 165.0V161.875H173.4375Q174.15625 161.875 174.65625 161.4140625Q175.15625 160.953125 175.15625 160.3125V152.5H178.59375V160.3125Q178.59375 162.25 177.0859375 163.625Q175.578125 165.0 173.4375 165.0ZM179.375 165.0V152.5H182.8125V157.1875H186.71875Q187.4375 157.1875 187.9375 156.7265625Q188.4375 156.265625 188.4375 155.625V152.5H191.875V155.625Q191.875 157.40625 190.5625 158.75Q191.875 160.09375 191.875 161.875V165.0H188.4375V161.875Q188.4375 161.234375 187.9375 160.7734375Q187.4375 160.3125 186.71875 160.3125H182.8125V165.0ZM192.65625 160.3125V152.5H196.09375V160.3125Q196.09375 160.953125 196.59375 161.4140625Q197.09375 161.875 197.8125 161.875H204.6875V165.0H197.8125Q195.671875 165.0 194.1640625 163.625Q192.65625 162.25 192.65625 160.3125ZM212.25 162.53125V164.25H211.15625Q210.4375 164.25 210.4375 163.71875Q210.4375 163.375 210.796875 163.25L210.3125 162.53125H210.828125L211.28125 163.203125H211.8125V162.53125ZM211.8125 163.515625H211.15625Q210.875 163.515625 210.875 163.71875Q210.875 163.9375 211.15625 163.9375H211.8125ZM212.375 162.40625Q211.96875 162.0 211.390625 162.0Q210.8125 162.0 210.40625 162.40625Q210.0 162.8125 210.0 163.390625Q210.0 163.96875 210.40625 164.375Q210.8125 164.78125 211.390625 164.78125Q211.96875 164.78125 212.375 164.375Q212.78125 163.96875 212.78125 163.390625Q212.78125 162.8125 212.375 162.40625ZM210.25 162.25Q210.71875 161.78125 211.390625 161.78125Q212.0625 161.78125 212.53125 162.25Q213.0 162.71875 213.0 163.390625Q213.0 164.0625 212.53125 164.53125Q212.0625 165.0 211.390625 165.0Q210.71875 165.0 210.25 164.53125Q209.78125 164.0625 209.78125 163.390625Q209.78125 162.71875 210.25 162.25ZM205.46875 165.0V158.515625Q205.46875 156.015625 207.2265625 154.2578125Q208.984375 152.5 211.484375 152.5Q214.0625 152.5 215.859375 154.34375Q217.65625 152.5 220.234375 152.5Q222.734375 152.5 224.4921875 154.2578125Q226.25 156.015625 226.25 158.515625V165.0H222.8125V158.515625Q222.8125 157.453125 222.0546875 156.6953125Q221.296875 155.9375 220.234375 155.9375Q219.15625 155.9375 218.3671875 156.6953125Q217.578125 157.453125 217.578125 158.515625V165.0H214.140625V158.515625Q214.140625 157.453125 213.3515625 156.6953125Q212.5625 155.9375 211.484375 155.9375Q210.421875 155.9375 209.6640625 156.6953125Q208.90625 157.453125 208.90625 158.515625V165.0ZM233.90625 162.53125V164.25H232.8125Q232.09375 164.25 232.09375 163.71875Q232.09375 163.375 232.453125 163.25L231.96875 162.53125H232.484375L232.9375 163.203125H233.46875V162.53125ZM233.46875 163.515625H232.8125Q232.53125 163.515625 232.53125 163.71875Q232.53125 163.9375 232.8125 163.9375H233.46875ZM234.03125 162.40625Q233.625 162.0 233.046875 162.0Q232.46875 162.0 232.0625 162.40625Q231.65625 162.8125 231.65625 163.390625Q231.65625 163.96875 232.0625 164.375Q232.46875 164.78125 233.046875 164.78125Q233.625 164.78125 234.03125 164.375Q234.4375 163.96875 234.4375 163.390625Q234.4375 162.8125 234.03125 162.40625ZM231.90625 162.25Q232.375 161.78125 233.046875 161.78125Q233.71875 161.78125 234.1875 162.25Q234.65625 162.71875 234.65625 163.390625Q234.65625 164.0625 234.1875 164.53125Q233.71875 165.0 233.046875 165.0Q232.375 165.0 231.90625 164.53125Q231.4375 164.0625 231.4375 163.390625Q231.4375 162.71875 231.90625 162.25ZM227.03125 165.0V158.515625Q227.03125 156.015625 228.7890625 154.2578125Q230.546875 152.5 233.046875 152.5Q235.546875 152.5 237.3046875 154.2578125Q239.0625 156.015625 239.0625 158.515625V165.0H235.625V158.203125Q235.625 157.140625 234.8671875 156.3828125Q234.109375 155.625 233.046875 155.625Q231.984375 155.625 231.2265625 156.3828125Q230.46875 157.140625 230.46875 158.203125V165.0ZM245.625 161.875H252.1875Q253.21875 161.875 253.875 161.1328125Q254.53125 160.390625 254.53125 158.75Q254.53125 157.109375 253.875 156.3671875Q253.21875 155.625 252.1875 155.625H245.625Q244.59375 155.625 243.9375 156.3671875Q243.28125 157.109375 243.28125 158.75Q243.28125 160.390625 243.9375 161.1328125Q244.59375 161.875 245.625 161.875ZM245.625 152.5H252.1875Q257.96875 152.5 257.96875 158.75Q257.96875 165.0 252.1875 165.0H245.625Q239.84375 165.0 239.84375 158.75Q239.84375 152.5 245.625 152.5ZM258.75 165.0V157.1875Q258.75 155.25 260.2578125 153.875Q261.765625 152.5 263.90625 152.5H270.9375Q273.078125 152.5 274.5859375 153.875Q276.09375 155.25 276.09375 157.1875Q276.09375 159.125 274.5859375 160.5Q273.078125 161.875 270.9375 161.875H262.96875V158.75H270.9375Q271.65625 158.75 272.15625 158.2890625Q272.65625 157.828125 272.65625 157.1875Q272.65625 156.546875 272.15625 156.0859375Q271.65625 155.625 270.9375 155.625H263.90625Q263.1875 155.625 262.6875 156.0859375Q262.1875 156.546875 262.1875 157.1875V165.0ZM276.875 165.0V161.875H279.09375Q278.59375 160.59375 278.59375 158.75Q278.59375 152.5 284.375 152.5H289.21875Q295.0 152.5 295.0 158.75Q295.0 165.0 289.21875 165.0ZM284.375 161.875H289.21875Q290.25 161.875 290.90625 161.1328125Q291.5625 160.390625 291.5625 158.75Q291.5625 157.109375 290.90625 156.3671875Q290.25 155.625 289.21875 155.625H284.375Q283.34375 155.625 282.6875 156.3671875Q282.03125 157.109375 282.03125 158.75Q282.03125 160.390625 282.6875 161.1328125Q283.34375 161.875 284.375 161.875ZM295.78125 165.0V157.1875Q295.78125 155.25 297.2890625 153.875Q298.796875 152.5 300.9375 152.5H308.90625Q309.9375 152.5 310.7578125 152.859375Q311.578125 153.21875 312.0859375 153.8046875Q312.59375 154.390625 312.859375 155.1015625Q313.125 155.8125 313.125 156.5625Q313.125 158.328125 311.921875 159.4765625Q310.71875 160.625 308.90625 160.625H304.296875Q303.96875 160.625 303.703125 160.8828125Q303.4375 161.140625 303.4375 161.484375Q303.4375 161.828125 303.703125 162.0859375Q303.96875 162.34375 304.296875 162.34375H313.125V165.0H304.0625Q302.25 165.0 301.125 163.859375Q300.0 162.71875 300.0 161.25Q300.0 159.703125 301.234375 158.6015625Q302.46875 157.5 304.0625 157.5H308.59375Q309.09375 157.5 309.390625 157.21875Q309.6875 156.9375 309.6875 156.5625Q309.6875 156.1875 309.390625 155.90625Q309.09375 155.625 308.59375 155.625H300.9375Q300.21875 155.625 299.71875 156.0859375Q299.21875 156.546875 299.21875 157.1875V165.0ZM313.90625 165.0V162.34375H322.734375Q323.0625 162.34375 323.328125 162.0859375Q323.59375 161.828125 323.59375 161.484375Q323.59375 161.140625 323.328125 160.8828125Q323.0625 160.625 322.734375 160.625H318.125Q316.3125 160.625 315.109375 159.4765625Q313.90625 158.328125 313.90625 156.5625Q313.90625 155.8125 314.171875 155.1015625Q314.4375 154.390625 314.9453125 153.8046875Q315.453125 153.21875 316.2734375 152.859375Q317.09375 152.5 318.125 152.5H327.03125V155.625H318.4375Q317.9375 155.625 317.640625 155.90625Q317.34375 156.1875 317.34375 156.5625Q317.34375 156.9375 317.640625 157.21875Q317.9375 157.5 318.4375 157.5H322.96875Q324.5625 157.5 325.796875 158.6015625Q327.03125 159.703125 327.03125 161.25Q327.03125 162.71875 325.90625 163.859375Q324.78125 165.0 322.96875 165.0ZM327.8125 155.625V152.5H340.3125V155.625H335.78125V165.0H332.34375V155.625ZM346.25 154.96875V153.25H347.34375Q348.0625 153.25 348.0625 153.78125Q348.0625 154.125 347.703125 154.25L348.1875 154.96875H347.671875L347.21875 154.296875H346.6875V154.96875ZM346.6875 153.984375H347.34375Q347.625 153.984375 347.625 153.78125Q347.625 153.5625 347.34375 153.5625H346.6875ZM346.125 155.09375Q346.53125 155.5 347.109375 155.5Q347.6875 155.5 348.09375 155.09375Q348.5 154.6875 348.5 154.109375Q348.5 153.53125 348.09375 153.125Q347.6875 152.71875 347.109375 152.71875Q346.53125 152.71875 346.125 153.125Q345.71875 153.53125 345.71875 154.109375Q345.71875 154.6875 346.125 155.09375ZM348.25 155.25Q347.78125 155.71875 347.109375 155.71875Q346.4375 155.71875 345.96875 155.25Q345.5 154.78125 345.5 154.109375Q345.5 153.4375 345.96875 152.96875Q346.4375 152.5 347.109375 152.5Q347.78125 152.5 348.25 152.96875Q348.71875 153.4375 348.71875 154.109375Q348.71875 154.78125 348.25 155.25ZM341.09375 158.984375V152.5H344.53125V159.296875Q344.53125 160.359375 345.2890625 161.1171875Q346.046875 161.875 347.109375 161.875Q348.171875 161.875 348.9296875 161.1171875Q349.6875 160.359375 349.6875 159.296875V152.5H353.125V158.984375Q353.125 161.484375 351.3671875 163.2421875Q349.609375 165.0 347.109375 165.0Q344.609375 165.0 342.8515625 163.2421875Q341.09375 161.484375 341.09375 158.984375ZM353.90625 158.984375V152.5H357.34375V159.296875Q357.34375 160.359375 358.1015625 161.1171875Q358.859375 161.875 359.921875 161.875Q360.984375 161.875 361.7421875 161.1171875Q362.5 160.359375 362.5 159.296875V152.5H365.9375V158.984375Q365.9375 161.484375 364.1796875 163.2421875Q362.421875 165.0 359.921875 165.0Q357.421875 165.0 355.6640625 163.2421875Q353.90625 161.484375 353.90625 158.984375ZM380.71875 154.96875V153.25H381.8125Q382.53125 153.25 382.53125 153.78125Q382.53125 154.125 382.171875 154.25L382.65625 154.96875H382.140625L381.6875 154.296875H381.15625V154.96875ZM381.15625 153.984375H381.8125Q382.09375 153.984375 382.09375 153.78125Q382.09375 153.5625 381.8125 153.5625H381.15625ZM380.59375 155.09375Q381.0 155.5 381.578125 155.5Q382.15625 155.5 382.5625 155.09375Q382.96875 154.6875 382.96875 154.109375Q382.96875 153.53125 382.5625 153.125Q382.15625 152.71875 381.578125 152.71875Q381.0 152.71875 380.59375 153.125Q380.1875 153.53125 380.1875 154.109375Q380.1875 154.6875 380.59375 155.09375ZM382.71875 155.25Q382.25 155.71875 381.578125 155.71875Q380.90625 155.71875 380.4375 155.25Q379.96875 154.78125 379.96875 154.109375Q379.96875 153.4375 380.4375 152.96875Q380.90625 152.5 381.578125 152.5Q382.25 152.5 382.71875 152.96875Q383.1875 153.4375 383.1875 154.109375Q383.1875 154.78125 382.71875 155.25ZM366.71875 158.984375V152.5H370.15625V158.984375Q370.15625 160.046875 370.9140625 160.8046875Q371.671875 161.5625 372.734375 161.5625Q373.8125 161.5625 374.6015625 160.8046875Q375.390625 160.046875 375.390625 158.984375V152.5H378.828125V158.984375Q378.828125 160.046875 379.6171875 160.8046875Q380.40625 161.5625 381.484375 161.5625Q382.546875 161.5625 383.3046875 160.8046875Q384.0625 160.046875 384.0625 158.984375V152.5H387.5V158.984375Q387.5 161.484375 385.7421875 163.2421875Q383.984375 165.0 381.484375 165.0Q378.90625 165.0 377.109375 163.15625Q375.3125 165.0 372.734375 165.0Q370.234375 165.0 368.4765625 163.2421875Q366.71875 161.484375 366.71875 158.984375ZM388.28125 165.0V161.875H393.28125Q394.3125 161.875 394.96875 161.1328125Q395.625 160.390625 395.625 158.75Q395.625 157.109375 394.96875 156.3671875Q394.3125 155.625 393.28125 155.625H388.28125V152.5H393.28125Q395.890625 152.5 397.34375 153.796875Q398.796875 152.5 401.40625 152.5H406.40625V155.625H401.40625Q400.375 155.625 399.71875 156.3671875Q399.0625 157.109375 399.0625 158.75Q399.0625 160.390625 399.71875 161.1328125Q400.375 161.875 401.40625 161.875H406.40625V165.0H401.40625Q398.78125 165.0 397.34375 163.71875Q395.90625 165.0 393.28125 165.0ZM412.34375 154.96875V153.25H413.4375Q414.15625 153.25 414.15625 153.78125Q414.15625 154.125 413.796875 154.25L414.28125 154.96875H413.765625L413.3125 154.296875H412.78125V154.96875ZM412.78125 153.984375H413.4375Q413.71875 153.984375 413.71875 153.78125Q413.71875 153.5625 413.4375 153.5625H412.78125ZM412.21875 155.09375Q412.625 155.5 413.203125 155.5Q413.78125 155.5 414.1875 155.09375Q414.59375 154.6875 414.59375 154.109375Q414.59375 153.53125 414.1875 153.125Q413.78125 152.71875 413.203125 152.71875Q412.625 152.71875 412.21875 153.125Q411.8125 153.53125 411.8125 154.109375Q411.8125 154.6875 412.21875 155.09375ZM414.34375 155.25Q413.875 155.71875 413.203125 155.71875Q412.53125 155.71875 412.0625 155.25Q411.59375 154.78125 411.59375 154.109375Q411.59375 153.4375 412.0625 152.96875Q412.53125 152.5 413.203125 152.5Q413.875 152.5 414.34375 152.96875Q414.8125 153.4375 414.8125 154.109375Q414.8125 154.78125 414.34375 155.25ZM407.1875 155.984375V152.5H410.625V156.296875Q410.625 157.359375 411.3828125 158.1171875Q412.140625 158.875 413.203125 158.875Q414.265625 158.875 415.0234375 158.1171875Q415.78125 157.359375 415.78125 156.296875V152.5H419.21875V155.984375Q419.21875 158.015625 418.015625 159.6015625Q416.8125 161.1875 414.921875 161.75V165.0H411.484375V161.75Q409.59375 161.1875 408.390625 159.6015625Q407.1875 158.015625 407.1875 155.984375ZM420.0 155.625V152.5H428.90625Q429.9375 152.5 430.7578125 152.859375Q431.578125 153.21875 432.0859375 153.8046875Q432.59375 154.390625 432.859375 155.1015625Q433.125 155.8125 433.125 156.5625Q433.125 158.328125 431.921875 159.4765625Q430.71875 160.625 428.90625 160.625H424.296875Q423.96875 160.625 423.703125 160.8828125Q423.4375 161.140625 423.4375 161.484375Q423.4375 161.828125 423.703125 162.0859375Q423.96875 162.34375 424.296875 162.34375H433.125V165.0H424.0625Q422.25 165.0 421.125 163.859375Q420.0 162.71875 420.0 161.25Q420.0 159.703125 421.234375 158.6015625Q422.46875 157.5 424.0625 157.5H428.59375Q429.09375 157.5 429.390625 157.21875Q429.6875 156.9375 429.6875 156.5625Q429.6875 156.1875 429.390625 155.90625Q429.09375 155.625 428.59375 155.625Z" fill="#6b7280"/><path d="M30.0 184.625V181.5H42.34375Q48.125 181.5 48.125 187.75Q48.125 194.0 42.34375 194.0H34.453125Q33.484375 194.0 32.6953125 193.7109375Q31.90625 193.421875 31.4140625 192.984375Q30.921875 192.546875 30.59375 192.0Q30.265625 191.453125 30.1328125 190.9609375Q30.0 190.46875 30.0 190.046875Q30.0 188.546875 31.21875 187.40625Q32.4375 186.265625 34.453125 186.265625H43.125V189.234375H34.453125Q34.015625 189.234375 33.7265625 189.4765625Q33.4375 189.71875 33.4375 190.046875Q33.4375 190.390625 33.7265625 190.6328125Q34.015625 190.875 34.453125 190.875H42.34375Q43.375 190.875 44.03125 190.1328125Q44.6875 189.390625 44.6875 187.75Q44.6875 186.109375 44.03125 185.3671875Q43.375 184.625 42.34375 184.625ZM48.90625 181.5H52.34375V189.3125Q52.34375 189.953125 52.84375 190.4140625Q53.34375 190.875 54.0625 190.875H61.09375Q61.8125 190.875 62.3125 190.4140625Q62.8125 189.953125 62.8125 189.3125Q62.8125 188.671875 62.3125 188.2109375Q61.8125 187.75 61.09375 187.75H53.125V184.625H61.09375Q63.234375 184.625 64.7421875 186.0Q66.25 187.375 66.25 189.3125Q66.25 191.25 64.7421875 192.625Q63.234375 194.0 61.09375 194.0H54.0625Q51.921875 194.0 50.4140625 192.625Q48.90625 191.25 48.90625 189.3125ZM72.8125 181.5H79.53125V184.625H72.8125Q71.78125 184.625 71.125 185.3671875Q70.46875 186.109375 70.46875 187.75Q70.46875 189.390625 71.125 190.1328125Q71.78125 190.875 72.8125 190.875H79.53125V194.0H72.8125Q67.03125 194.0 67.03125 187.75Q67.03125 181.5 72.8125 181.5ZM80.3125 194.0V186.1875Q80.3125 184.25 81.8203125 182.875Q83.328125 181.5 85.46875 181.5H92.5Q94.640625 181.5 96.1484375 182.875Q97.65625 184.25 97.65625 186.1875V189.3125Q97.65625 191.25 96.1484375 192.625Q94.640625 194.0 92.5 194.0H84.53125V190.875H92.5Q93.21875 190.875 93.71875 190.4140625Q94.21875 189.953125 94.21875 189.3125V186.1875Q94.21875 185.546875 93.71875 185.0859375Q93.21875 184.625 92.5 184.625H85.46875Q84.75 184.625 84.25 185.0859375Q83.75 185.546875 83.75 186.1875V194.0ZM104.21875 181.5H112.109375Q113.078125 181.5 113.8671875 181.7890625Q114.65625 182.078125 115.1484375 182.515625Q115.640625 182.953125 115.96875 183.5Q116.296875 184.046875 116.4296875 184.5390625Q116.5625 185.03125 116.5625 185.453125Q116.5625 186.953125 115.34375 188.09375Q114.125 189.234375 112.109375 189.234375H103.4375V186.265625H112.109375Q112.546875 186.265625 112.8359375 186.0234375Q113.125 185.78125 113.125 185.453125Q113.125 185.109375 112.8359375 184.8671875Q112.546875 184.625 112.109375 184.625H104.21875Q103.1875 184.625 102.53125 185.3671875Q101.875 186.109375 101.875 187.75Q101.875 189.390625 102.53125 190.1328125Q103.1875 190.875 104.21875 190.875H116.5625V194.0H104.21875Q98.4375 194.0 98.4375 187.75Q98.4375 181.5 104.21875 181.5ZM117.34375 194.0V186.1875Q117.34375 184.25 118.8515625 182.875Q120.359375 181.5 122.5 181.5H129.375V184.625H122.5Q121.78125 184.625 121.28125 185.0859375Q120.78125 185.546875 120.78125 186.1875V187.75H129.375V190.875H120.78125V194.0ZM135.9375 181.5H148.28125V184.625H135.9375Q134.90625 184.625 134.25 185.3671875Q133.59375 186.109375 133.59375 187.75Q133.59375 189.390625 134.25 190.1328125Q134.90625 190.875 135.9375 190.875H143.828125Q144.265625 190.875 144.5546875 190.6328125Q144.84375 190.390625 144.84375 190.046875Q144.84375 189.71875 144.5546875 189.4765625Q144.265625 189.234375 143.828125 189.234375H135.15625V186.265625H143.828125Q145.84375 186.265625 147.0625 187.40625Q148.28125 188.546875 148.28125 190.046875Q148.28125 190.46875 148.1484375 190.9609375Q148.015625 191.453125 147.6875 192.0Q147.359375 192.546875 146.8671875 192.984375Q146.375 193.421875 145.5859375 193.7109375Q144.796875 194.0 143.828125 194.0H135.9375Q130.15625 194.0 130.15625 187.75Q130.15625 181.5 135.9375 181.5ZM149.0625 194.0V181.5H152.5V186.1875H158.125V181.5H161.5625V194.0H158.125V189.3125H152.5V194.0ZM162.34375 194.0V181.5H165.78125V194.0ZM166.5625 194.0V190.875H173.4375Q174.15625 190.875 174.65625 190.4140625Q175.15625 189.953125 175.15625 189.3125V181.5H178.59375V189.3125Q178.59375 191.25 177.0859375 192.625Q175.578125 194.0 173.4375 194.0ZM179.375 194.0V181.5H182.8125V186.1875H186.71875Q187.4375 186.1875 187.9375 185.7265625Q188.4375 185.265625 188.4375 184.625V181.5H191.875V184.625Q191.875 186.40625 190.5625 187.75Q191.875 189.09375 191.875 190.875V194.0H188.4375V190.875Q188.4375 190.234375 187.9375 189.7734375Q187.4375 189.3125 186.71875 189.3125H182.8125V194.0ZM192.65625 189.3125V181.5H196.09375V189.3125Q196.09375 189.953125 196.59375 190.4140625Q197.09375 190.875 197.8125 190.875H204.6875V194.0H197.8125Q195.671875 194.0 194.1640625 192.625Q192.65625 191.25 192.65625 189.3125ZM212.25 191.53125V193.25H211.15625Q210.4375 193.25 210.4375 192.71875Q210.4375 192.375 210.796875 192.25L210.3125 191.53125H210.828125L211.28125 192.203125H211.8125V191.53125ZM211.8125 192.515625H211.15625Q210.875 192.515625 210.875 192.71875Q210.875 192.9375 211.15625 192.9375H211.8125ZM212.375 191.40625Q211.96875 191.0 211.390625 191.0Q210.8125 191.0 210.40625 191.40625Q210.0 191.8125 210.0 192.390625Q210.0 192.96875 210.40625 193.375Q210.8125 193.78125 211.390625 193.78125Q211.96875 193.78125 212.375 193.375Q212.78125 192.96875 212.78125 192.390625Q212.78125 191.8125 212.375 191.40625ZM210.25 191.25Q210.71875 190.78125 211.390625 190.78125Q212.0625 190.78125 212.53125 191.25Q213.0 191.71875 213.0 192.390625Q213.0 193.0625 212.53125 193.53125Q212.0625 194.0 211.390625 194.0Q210.71875 194.0 210.25 193.53125Q209.78125 193.0625 209.78125 192.390625Q209.78125 191.71875 210.25 191.25ZM205.46875 194.0V187.515625Q205.46875 185.015625 207.2265625 183.2578125Q208.984375 181.5 211.484375 181.5Q214.0625 181.5 215.859375 183.34375Q217.65625 181.5 220.234375 181.5Q222.734375 181.5 224.4921875 183.2578125Q226.25 185.015625 226.25 187.515625V194.0H222.8125V187.515625Q222.8125 186.453125 222.0546875 185.6953125Q221.296875 184.9375 220.234375 184.9375Q219.15625 184.9375 218.3671875 185.6953125Q217.578125 186.453125 217.578125 187.515625V194.0H214.140625V187.515625Q214.140625 186.453125 213.3515625 185.6953125Q212.5625 184.9375 211.484375 184.9375Q210.421875 184.9375 209.6640625 185.6953125Q208.90625 186.453125 208.90625 187.515625V194.0ZM233.90625 191.53125V193.25H232.8125Q232.09375 193.25 232.09375 192.71875Q232.09375 192.375 232.453125 192.25L231.96875 191.53125H232.484375L232.9375 192.203125H233.46875V191.53125ZM233.46875 192.515625H232.8125Q232.53125 192.515625 232.53125 192.71875Q232.53125 192.9375 232.8125 192.9375H233.46875ZM234.03125 191.40625Q233.625 191.0 233.046875 191.0Q232.46875 191.0 232.0625 191.40625Q231.65625 191.8125 231.65625 192.390625Q231.65625 192.96875 232.0625 193.375Q232.46875 193.78125 233.046875 193.78125Q233.625 193.78125 234.03125 193.375Q234.4375 192.96875 234.4375 192.390625Q234.4375 191.8125 234.03125 191.40625ZM231.90625 191.25Q232.375 190.78125 233.046875 190.78125Q233.71875 190.78125 234.1875 191.25Q234.65625 191.71875 234.65625 192.390625Q234.65625 193.0625 234.1875 193.53125Q233.71875 194.0 233.046875 194.0Q232.375 194.0 231.90625 193.53125Q231.4375 193.0625 231.4375 192.390625Q231.4375 191.71875 231.90625 191.25ZM227.03125 194.0V187.515625Q227.03125 185.015625 228.7890625 183.2578125Q230.546875 181.5 233.046875 181.5Q235.546875 181.5 237.3046875 183.2578125Q239.0625 185.015625 239.0625 187.515625V194.0H235.625V187.203125Q235.625 186.140625 234.8671875 185.3828125Q234.109375 184.625 233.046875 184.625Q231.984375 184.625 231.2265625 185.3828125Q230.46875 186.140625 230.46875 187.203125V194.0ZM245.625 190.875H252.1875Q253.21875 190.875 253.875 190.1328125Q254.53125 189.390625 254.53125 187.75Q254.53125 186.109375 253.875 185.3671875Q253.21875 184.625 252.1875 184.625H245.625Q244.59375 184.625 243.9375 185.3671875Q243.28125 186.109375 243.28125 187.75Q243.28125 189.390625 243.9375 190.1328125Q244.59375 190.875 245.625 190.875ZM245.625 181.5H252.1875Q257.96875 181.5 257.96875 187.75Q257.96875 194.0 252.1875 194.0H245.625Q239.84375 194.0 239.84375 187.75Q239.84375 181.5 245.625 181.5ZM258.75 194.0V186.1875Q258.75 184.25 260.2578125 182.875Q261.765625 181.5 263.90625 181.5H270.9375Q273.078125 181.5 274.5859375 182.875Q276.09375 184.25 276.09375 186.1875Q276.09375 188.125 274.5859375 189.5Q273.078125 190.875 270.9375 190.875H262.96875V187.75H270.9375Q271.65625 187.75 272.15625 187.2890625Q272.65625 186.828125 272.65625 186.1875Q272.65625 185.546875 272.15625 185.0859375Q271.65625 184.625 270.9375 184.625H263.90625Q263.1875 184.625 262.6875 185.0859375Q262.1875 185.546875 262.1875 186.1875V194.0ZM276.875 194.0V190.875H279.09375Q278.59375 189.59375 278.59375 187.75Q278.59375 181.5 284.375 181.5H289.21875Q295.0 181.5 295.0 187.75Q295.0 194.0 289.21875 194.0ZM284.375 190.875H289.21875Q290.25 190.875 290.90625 190.1328125Q291.5625 189.390625 291.5625 187.75Q291.5625 186.109375 290.90625 185.3671875Q290.25 184.625 289.21875 184.625H284.375Q283.34375 184.625 282.6875 185.3671875Q282.03125 186.109375 282.03125 187.75Q282.03125 189.390625 282.6875 190.1328125Q283.34375 190.875 284.375 190.875ZM295.78125 194.0V186.1875Q295.78125 184.25 297.2890625 182.875Q298.796875 181.5 300.9375 181.5H308.90625Q309.9375 181.5 310.7578125 181.859375Q311.578125 182.21875 312.0859375 182.8046875Q312.59375 183.390625 312.859375 184.1015625Q313.125 184.8125 313.125 185.5625Q313.125 187.328125 311.921875 188.4765625Q310.71875 189.625 308.90625 189.625H304.296875Q303.96875 189.625 303.703125 189.8828125Q303.4375 190.140625 303.4375 190.484375Q303.4375 190.828125 303.703125 191.0859375Q303.96875 191.34375 304.296875 191.34375H313.125V194.0H304.0625Q302.25 194.0 301.125 192.859375Q300.0 191.71875 300.0 190.25Q300.0 188.703125 301.234375 187.6015625Q302.46875 186.5 304.0625 186.5H308.59375Q309.09375 186.5 309.390625 186.21875Q309.6875 185.9375 309.6875 185.5625Q309.6875 185.1875 309.390625 184.90625Q309.09375 184.625 308.59375 184.625H300.9375Q300.21875 184.625 299.71875 185.0859375Q299.21875 185.546875 299.21875 186.1875V194.0ZM313.90625 194.0V191.34375H322.734375Q323.0625 191.34375 323.328125 191.0859375Q323.59375 190.828125 323.59375 190.484375Q323.59375 190.140625 323.328125 189.8828125Q323.0625 189.625 322.734375 189.625H318.125Q316.3125 189.625 315.109375 188.4765625Q313.90625 187.328125 313.90625 185.5625Q313.90625 184.8125 314.171875 184.1015625Q314.4375 183.390625 314.9453125 182.8046875Q315.453125 182.21875 316.2734375 181.859375Q317.09375 181.5 318.125 181.5H327.03125V184.625H318.4375Q317.9375 184.625 317.640625 184.90625Q317.34375 185.1875 317.34375 185.5625Q317.34375 185.9375 317.640625 186.21875Q317.9375 186.5 318.4375 186.5H322.96875Q324.5625 186.5 325.796875 187.6015625Q327.03125 188.703125 327.03125 190.25Q327.03125 191.71875 325.90625 192.859375Q324.78125 194.0 322.96875 194.0ZM327.8125 184.625V181.5H340.3125V184.625H335.78125V194.0H332.34375V184.625ZM346.25 183.96875V182.25H347.34375Q348.0625 182.25 348.0625 182.78125Q348.0625 183.125 347.703125 183.25L348.1875 183.96875H347.671875L347.21875 183.296875H346.6875V183.96875ZM346.6875 182.984375H347.34375Q347.625 182.984375 347.625 182.78125Q347.625 182.5625 347.34375 182.5625H346.6875ZM346.125 184.09375Q346.53125 184.5 347.109375 184.5Q347.6875 184.5 348.09375 184.09375Q348.5 183.6875 348.5 183.109375Q348.5 182.53125 348.09375 182.125Q347.6875 181.71875 347.109375 181.71875Q346.53125 181.71875 346.125 182.125Q345.71875 182.53125 345.71875 183.109375Q345.71875 183.6875 346.125 184.09375ZM348.25 184.25Q347.78125 184.71875 347.109375 184.71875Q346.4375 184.71875 345.96875 184.25Q345.5 183.78125 345.5 183.109375Q345.5 182.4375 345.96875 181.96875Q346.4375 181.5 347.109375 181.5Q347.78125 181.5 348.25 181.96875Q348.71875 182.4375 348.71875 183.109375Q348.71875 183.78125 348.25 184.25ZM341.09375 187.984375V181.5H344.53125V188.296875Q344.53125 189.359375 345.2890625 190.1171875Q346.046875 190.875 347.109375 190.875Q348.171875 190.875 348.9296875 190.1171875Q349.6875 189.359375 349.6875 188.296875V181.5H353.125V187.984375Q353.125 190.484375 351.3671875 192.2421875Q349.609375 194.0 347.109375 194.0Q344.609375 194.0 342.8515625 192.2421875Q341.09375 190.484375 341.09375 187.984375ZM353.90625 187.984375V181.5H357.34375V188.296875Q357.34375 189.359375 358.1015625 190.1171875Q358.859375 190.875 359.921875 190.875Q360.984375 190.875 361.7421875 190.1171875Q362.5 189.359375 362.5 188.296875V181.5H365.9375V187.984375Q365.9375 190.484375 364.1796875 192.2421875Q362.421875 194.0 359.921875 194.0Q357.421875 194.0 355.6640625 192.2421875Q353.90625 190.484375 353.90625 187.984375ZM380.71875 183.96875V182.25H381.8125Q382.53125 182.25 382.53125 182.78125Q382.53125 183.125 382.171875 183.25L382.65625 183.96875H382.140625L381.6875 183.296875H381.15625V183.96875ZM381.15625 182.984375H381.8125Q382.09375 182.984375 382.09375 182.78125Q382.09375 182.5625 381.8125 182.5625H381.15625ZM380.59375 184.09375Q381.0 184.5 381.578125 184.5Q382.15625 184.5 382.5625 184.09375Q382.96875 183.6875 382.96875 183.109375Q382.96875 182.53125 382.5625 182.125Q382.15625 181.71875 381.578125 181.71875Q381.0 181.71875 380.59375 182.125Q380.1875 182.53125 380.1875 183.109375Q380.1875 183.6875 380.59375 184.09375ZM382.71875 184.25Q382.25 184.71875 381.578125 184.71875Q380.90625 184.71875 380.4375 184.25Q379.96875 183.78125 379.96875 183.109375Q379.96875 182.4375 380.4375 181.96875Q380.90625 181.5 381.578125 181.5Q382.25 181.5 382.71875 181.96875Q383.1875 182.4375 383.1875 183.109375Q383.1875 183.78125 382.71875 184.25ZM366.71875 187.984375V181.5H370.15625V187.984375Q370.15625 189.046875 370.9140625 189.8046875Q371.671875 190.5625 372.734375 190.5625Q373.8125 190.5625 374.6015625 189.8046875Q375.390625 189.046875 375.390625 187.984375V181.5H378.828125V187.984375Q378.828125 189.046875 379.6171875 189.8046875Q380.40625 190.5625 381.484375 190.5625Q382.546875 190.5625 383.3046875 189.8046875Q384.0625 189.046875 384.0625 187.984375V181.5H387.5V187.984375Q387.5 190.484375 385.7421875 192.2421875Q383.984375 194.0 381.484375 194.0Q378.90625 194.0 377.109375 192.15625Q375.3125 194.0 372.734375 194.0Q370.234375 194.0 368.4765625 192.2421875Q366.71875 190.484375 366.71875 187.984375ZM388.28125 194.0V190.875H393.28125Q394.3125 190.875 394.96875 190.1328125Q395.625 189.390625 395.625 187.75Q395.625 186.109375 394.96875 185.3671875Q394.3125 184.625 393.28125 184.625H388.28125V181.5H393.28125Q395.890625 181.5 397.34375 182.796875Q398.796875 181.5 401.40625 181.5H406.40625V184.625H401.40625Q400.375 184.625 399.71875 185.3671875Q399.0625 186.109375 399.0625 187.75Q399.0625 189.390625 399.71875 190.1328125Q400.375 190.875 401.40625 190.875H406.40625V194.0H401.40625Q398.78125 194.0 397.34375 192.71875Q395.90625 194.0 393.28125 194.0ZM412.34375 183.96875V182.25H413.4375Q414.15625 182.25 414.15625 182.78125Q414.15625 183.125 413.796875 183.25L414.28125 183.96875H413.765625L413.3125 183.296875H412.78125V183.96875ZM412.78125 182.984375H413.4375Q413.71875 182.984375 413.71875 182.78125Q413.71875 182.5625 413.4375 182.5625H412.78125ZM412.21875 184.09375Q412.625 184.5 413.203125 184.5Q413.78125 184.5 414.1875 184.09375Q414.59375 183.6875 414.59375 183.109375Q414.59375 182.53125 414.1875 182.125Q413.78125 181.71875 413.203125 181.71875Q412.625 181.71875 412.21875 182.125Q411.8125 182.53125 411.8125 183.109375Q411.8125 183.6875 412.21875 184.09375ZM414.34375 184.25Q413.875 184.71875 413.203125 184.71875Q412.53125 184.71875 412.0625 184.25Q411.59375 183.78125 411.59375 183.109375Q411.59375 182.4375 412.0625 181.96875Q412.53125 181.5 413.203125 181.5Q413.875 181.5 414.34375 181.96875Q414.8125 182.4375 414.8125 183.109375Q414.8125 183.78125 414.34375 184.25ZM407.1875 184.984375V181.5H410.625V185.296875Q410.625 186.359375 411.3828125 187.1171875Q412.140625 187.875 413.203125 187.875Q414.265625 187.875 415.0234375 187.1171875Q415.78125 186.359375 415.78125 185.296875V181.5H419.21875V184.984375Q419.21875 187.015625 418.015625 188.6015625Q416.8125 190.1875 414.921875 190.75V194.0H411.484375V190.75Q409.59375 190.1875 408.390625 188.6015625Q407.1875 187.015625 407.1875 184.984375ZM420.0 184.625V181.5H428.90625Q429.9375 181.5 430.7578125 181.859375Q431.578125 182.21875 432.0859375 182.8046875Q432.59375 183.390625 432.859375 184.1015625Q433.125 184.8125 433.125 185.5625Q433.125 187.328125 431.921875 188.4765625Q430.71875 189.625 428.90625 189.625H424.296875Q423.96875 189.625 423.703125 189.8828125Q423.4375 190.140625 423.4375 190.484375Q423.4375 190.828125 423.703125 191.0859375Q423.96875 191.34375 424.296875 191.34375H433.125V194.0H424.0625Q422.25 194.0 421.125 192.859375Q420.0 191.71875 420.0 190.25Q420.0 188.703125 421.234375 187.6015625Q422.46875 186.5 424.0625 186.5H428.59375Q429.09375 186.5 429.390625 186.21875Q429.6875 185.9375 429.6875 185.5625Q429.6875 185.1875 429.390625 184.90625Q429.09375 184.625 428.59375 184.625ZM456.875 190.875H463.4375Q464.46875 190.875 465.125 190.1328125Q465.78125 189.390625 465.78125 187.75Q465.78125 186.109375 465.125 185.3671875Q464.46875 184.625 463.4375 184.625H456.875Q455.84375 184.625 455.1875 185.3671875Q454.53125 186.109375 454.53125 187.75Q454.53125 189.390625 455.1875 190.1328125Q455.84375 190.875 456.875 190.875ZM456.875 181.5H463.4375Q469.21875 181.5 469.21875 187.75Q469.21875 194.0 463.4375 194.0H456.875Q451.09375 194.0 451.09375 187.75Q451.09375 181.5 456.875 181.5ZM470.0 184.625V181.5H471.875Q474.015625 181.5 475.5234375 182.875Q477.03125 184.25 477.03125 186.1875V194.0H473.59375V186.1875Q473.59375 185.546875 473.09375 185.0859375Q472.59375 184.625 471.875 184.625ZM477.8125 194.0V190.25Q477.8125 188.703125 479.046875 187.6015625Q480.28125 186.5 481.875 186.5H486.40625Q486.90625 186.5 487.203125 186.21875Q487.5 185.9375 487.5 185.5625Q487.5 185.1875 487.203125 184.90625Q486.90625 184.625 486.40625 184.625H477.8125V181.5H486.71875Q487.75 181.5 488.5703125 181.859375Q489.390625 182.21875 489.8984375 182.8046875Q490.40625 183.390625 490.671875 184.1015625Q490.9375 184.8125 490.9375 185.5625Q490.9375 187.328125 489.734375 188.4765625Q488.53125 189.625 486.71875 189.625H482.109375Q481.78125 189.625 481.515625 189.8828125Q481.25 190.140625 481.25 190.484375V191.34375H490.9375V194.0ZM491.71875 194.0V190.875H497.96875Q499.578125 190.875 500.09375 189.3125H491.71875V186.1875H500.09375Q499.578125 184.625 497.96875 184.625H491.71875V181.5H497.96875Q503.75 181.5 503.75 187.75Q503.75 194.0 497.96875 194.0ZM504.53125 186.65625V181.5H507.96875V186.65625Q507.96875 187.296875 508.46875 187.7578125Q508.96875 188.21875 509.6875 188.21875H511.5625V185.5625H515.0V188.21875H517.65625V191.34375H515.0V194.0H511.5625V191.34375H509.6875Q507.546875 191.34375 506.0390625 189.96875Q504.53125 188.59375 504.53125 186.65625ZM518.4375 194.0V191.34375H527.265625Q527.59375 191.34375 527.859375 191.0859375Q528.125 190.828125 528.125 190.484375Q528.125 190.140625 527.859375 189.8828125Q527.59375 189.625 527.265625 189.625H522.65625Q520.84375 189.625 519.640625 188.4765625Q518.4375 187.328125 518.4375 185.5625Q518.4375 184.8125 518.703125 184.1015625Q518.96875 183.390625 519.4765625 182.8046875Q519.984375 182.21875 520.8046875 181.859375Q521.625 181.5 522.65625 181.5H531.5625V184.625H522.96875Q522.46875 184.625 522.171875 184.90625Q521.875 185.1875 521.875 185.5625Q521.875 185.9375 522.171875 186.21875Q522.46875 186.5 522.96875 186.5H527.5Q529.09375 186.5 530.328125 187.6015625Q531.5625 188.703125 531.5625 190.25Q531.5625 191.71875 530.4375 192.859375Q529.3125 194.0 527.5 194.0ZM532.34375 189.3125V186.1875Q532.34375 184.25 533.8515625 182.875Q535.359375 181.5 537.5 181.5H545.46875V184.625H537.5Q536.875 184.625 536.40625 184.9765625Q535.9375 185.328125 535.8125 185.875H541.25Q543.0625 185.875 544.265625 187.0234375Q545.46875 188.171875 545.46875 189.9375Q545.46875 190.6875 545.203125 191.3984375Q544.9375 192.109375 544.4296875 192.6953125Q543.921875 193.28125 543.1015625 193.640625Q542.28125 194.0 541.25 194.0H537.5Q535.359375 194.0 533.8515625 192.625Q532.34375 191.25 532.34375 189.3125ZM535.78125 189.0V189.3125Q535.78125 189.953125 536.28125 190.4140625Q536.78125 190.875 537.5 190.875H540.9375Q541.4375 190.875 541.734375 190.59375Q542.03125 190.3125 542.03125 189.9375Q542.03125 189.5625 541.734375 189.28125Q541.4375 189.0 540.9375 189.0ZM546.25 184.625V181.5H551.5625Q553.703125 181.5 555.2109375 182.875Q556.71875 184.25 556.71875 186.1875H559.375V189.3125H556.71875V194.0H553.28125V189.3125H549.6875V186.1875H553.28125Q553.28125 185.546875 552.78125 185.0859375Q552.28125 184.625 551.5625 184.625ZM560.15625 190.09375Q560.15625 188.796875 561.03125 187.75Q560.15625 186.703125 560.15625 185.40625Q560.15625 184.859375 560.390625 184.234375Q560.625 183.609375 561.1015625 182.9765625Q561.578125 182.34375 562.5 181.921875Q563.421875 181.5 564.609375 181.5H572.265625Q573.453125 181.5 574.375 181.921875Q575.296875 182.34375 575.7734375 182.9765625Q576.25 183.609375 576.484375 184.234375Q576.71875 184.859375 576.71875 185.40625Q576.71875 186.703125 575.84375 187.75Q576.71875 188.796875 576.71875 190.09375Q576.71875 190.640625 576.484375 191.265625Q576.25 191.890625 575.7734375 192.5234375Q575.296875 193.15625 574.375 193.578125Q573.453125 194.0 572.265625 194.0H564.609375Q563.421875 194.0 562.5 193.578125Q561.578125 193.15625 561.1015625 192.5234375Q560.625 191.890625 560.390625 191.265625Q560.15625 190.640625 560.15625 190.09375ZM563.59375 190.09375Q563.59375 190.4375 563.8828125 190.65625Q564.171875 190.875 564.609375 190.875H572.265625Q572.703125 190.875 572.9921875 190.65625Q573.28125 190.4375 573.28125 190.09375Q573.28125 189.765625 572.9921875 189.5390625Q572.703125 189.3125 572.265625 189.3125H564.609375Q564.171875 189.3125 563.8828125 189.5390625Q563.59375 189.765625 563.59375 190.09375ZM563.59375 185.40625Q563.59375 185.734375 563.8828125 185.9609375Q564.171875 186.1875 564.609375 186.1875H572.265625Q572.703125 186.1875 572.9921875 185.9609375Q573.28125 185.734375 573.28125 185.40625Q573.28125 185.0625 572.9921875 184.84375Q572.703125 184.625 572.265625 184.625H564.609375Q564.171875 184.625 563.8828125 184.84375Q563.59375 185.0625 563.59375 185.40625ZM582.65625 181.5H589.6875Q591.828125 181.5 593.3359375 182.875Q594.84375 184.25 594.84375 186.1875V194.0H591.40625V186.1875Q591.40625 185.546875 590.90625 185.0859375Q590.40625 184.625 589.6875 184.625H582.65625Q581.9375 184.625 581.4375 185.0859375Q580.9375 185.546875 580.9375 186.1875Q580.9375 186.828125 581.4375 187.2890625Q581.9375 187.75 582.65625 187.75H590.625V190.875H582.65625Q580.515625 190.875 579.0078125 189.5Q577.5 188.125 577.5 186.1875Q577.5 184.25 579.0078125 182.875Q580.515625 181.5 582.65625 181.5ZM612.8125 194.0V190.875H616.25V194.0ZM612.8125 190.09375Q612.8125 188.703125 614.0390625 187.6015625Q615.265625 186.5 616.71875 186.5H621.40625Q621.90625 186.5 622.203125 186.21875Q622.5 185.9375 622.5 185.5625Q622.5 185.1875 622.203125 184.90625Q621.90625 184.625 621.40625 184.625H612.8125V181.5H621.71875Q622.75 181.5 623.5703125 181.859375Q624.390625 182.21875 624.8984375 182.8046875Q625.40625 183.390625 625.671875 184.1015625Q625.9375 184.8125 625.9375 185.5625Q625.9375 187.328125 624.734375 188.4765625Q623.53125 189.625 621.71875 189.625H616.71875Q616.546875 189.625 616.3984375 189.75Q616.25 189.875 616.25 190.09375ZM626.71875 194.0V190.875H630.15625V194.0ZM630.9375 195.875V190.875H634.375V195.875ZM635.15625 190.09375V181.5H638.59375V190.09375ZM635.15625 194.0V190.875H638.59375V194.0ZM639.375 194.0V190.875H642.8125V194.0ZM639.375 190.09375Q639.375 188.703125 640.6015625 187.6015625Q641.828125 186.5 643.28125 186.5H647.96875Q648.46875 186.5 648.765625 186.21875Q649.0625 185.9375 649.0625 185.5625Q649.0625 185.1875 648.765625 184.90625Q648.46875 184.625 647.96875 184.625H639.375V181.5H648.28125Q649.3125 181.5 650.1328125 181.859375Q650.953125 182.21875 651.4609375 182.8046875Q651.96875 183.390625 652.234375 184.1015625Q652.5 184.8125 652.5 185.5625Q652.5 187.328125 651.296875 188.4765625Q650.09375 189.625 648.28125 189.625H643.28125Q643.109375 189.625 642.9609375 189.75Q642.8125 189.875 642.8125 190.09375Z" fill="#6b7280"/></svg>