<svg xmlns="http://www.w3.org/2000/svg" viewBox="0 0 582.0 222.0" width="582" height="222"><path d="M34.4921875 71.5078125H52.4609375V58.9296875Q52.4609375 56.68359375 50.888671875 55.111328125Q49.31640625 53.5390625 47.0703125 53.5390625H39.8828125Q37.63671875 53.5390625 36.064453125 55.111328125Q34.4921875 56.68359375 34.4921875 58.9296875ZM30.0 73.75390625V58.9296875Q30.0 54.841796875 32.8974609375 51.9443359375Q35.794921875 49.046875 39.8828125 49.046875H47.0703125Q51.158203125 49.046875 54.0556640625 51.9443359375Q56.953125 54.841796875 56.953125 58.9296875V73.75390625Q56.953125 74.697265625 56.3017578125 75.3486328125Q55.650390625 76.0 54.70703125 76.0H32.24609375Q31.302734375 76.0 30.6513671875 75.3486328125Q30.0 74.697265625 30.0 73.75390625ZM64.140625 71.5078125H80.087890625Q81.12109375 71.5078125 81.83984375 70.7890625Q82.55859375 70.0703125 82.55859375 69.037109375V67.240234375Q82.55859375 66.20703125 81.83984375 65.48828125Q81.12109375 64.76953125 80.087890625 64.76953125H68.408203125Q65.48828125 64.76953125 63.466796875 62.748046875Q61.4453125 60.7265625 61.4453125 57.806640625V56.009765625Q61.4453125 53.08984375 63.466796875 51.068359375Q65.48828125 49.046875 68.408203125 49.046875H84.35546875Q85.298828125 49.046875 85.9501953125 49.6982421875Q86.6015625 50.349609375 86.6015625 51.29296875Q86.6015625 52.236328125 85.9501953125 52.8876953125Q85.298828125 53.5390625 84.35546875 53.5390625H68.408203125Q67.375 53.5390625 66.65625 54.2578125Q65.9375 54.9765625 65.9375 56.009765625V57.806640625Q65.9375 58.83984375 66.65625 59.55859375Q67.375 60.27734375 68.408203125 60.27734375H80.087890625Q83.0078125 60.27734375 85.029296875 62.298828125Q87.05078125 64.3203125 87.05078125 67.240234375V69.037109375Q87.05078125 71.95703125 85.029296875 73.978515625Q83.0078125 76.0 80.087890625 76.0H64.140625Q63.197265625 76.0 62.5458984375 75.3486328125Q61.89453125 74.697265625 61.89453125 73.75390625Q61.89453125 72.810546875 62.5458984375 72.1591796875Q63.197265625 71.5078125 64.140625 71.5078125ZM94.23828125 71.5078125H110.185546875Q111.21875 71.5078125 111.9375 70.7890625Q112.65625 70.0703125 112.65625 69.037109375V67.240234375Q112.65625 66.20703125 111.9375 65.48828125Q111.21875 64.76953125 110.185546875 64.76953125H98.505859375Q95.5859375 64.76953125 93.564453125 62.748046875Q91.54296875 60.7265625 91.54296875 57.806640625V56.009765625Q91.54296875 53.08984375 93.564453125 51.068359375Q95.5859375 49.046875 98.505859375 49.046875H114.453125Q115.396484375 49.046875 116.0478515625 49.6982421875Q116.69921875 50.349609375 116.69921875 51.29296875Q116.69921875 52.236328125 116.0478515625 52.8876953125Q115.396484375 53.5390625 114.453125 53.5390625H98.505859375Q97.47265625 53.5390625 96.75390625 54.2578125Q96.03515625 54.9765625 96.03515625 56.009765625V57.806640625Q96.03515625 58.83984375 96.75390625 59.55859375Q97.47265625 60.27734375 98.505859375 60.27734375H110.185546875Q113.10546875 60.27734375 115.126953125 62.298828125Q117.1484375 64.3203125 117.1484375 67.240234375V69.037109375Q117.1484375 71.95703125 115.126953125 73.978515625Q113.10546875 76.0 110.185546875 76.0H94.23828125Q93.294921875 76.0 92.6435546875 75.3486328125Q91.9921875 74.697265625 91.9921875 73.75390625Q91.9921875 72.810546875 92.6435546875 72.1591796875Q93.294921875 71.5078125 94.23828125 71.5078125ZM121.640625 66.1171875V58.9296875Q121.640625 54.841796875 124.5380859375 51.9443359375Q127.435546875 49.046875 131.5234375 49.046875H140.732421875Q143.65234375 49.046875 145.673828125 51.068359375Q147.6953125 53.08984375 147.6953125 56.009765625V57.806640625Q147.6953125 60.7265625 145.673828125 62.748046875Q143.65234375 64.76953125 140.732421875 64.76953125H126.1328125V66.1171875Q126.1328125 68.36328125 127.705078125 69.935546875Q129.27734375 71.5078125 131.5234375 71.5078125H145.44921875Q146.392578125 71.5078125 147.0439453125 72.1591796875Q147.6953125 72.810546875 147.6953125 73.75390625Q147.6953125 74.697265625 147.0439453125 75.3486328125Q146.392578125 76.0 145.44921875 76.0H131.5234375Q127.435546875 76.0 124.5380859375 73.1025390625Q121.640625 70.205078125 121.640625 66.1171875ZM126.1328125 60.27734375H140.732421875Q141.765625 60.27734375 142.484375 59.55859375Q143.203125 58.83984375 143.203125 57.806640625V56.009765625Q143.203125 54.9765625 142.484375 54.2578125Q141.765625 53.5390625 140.732421875 53.5390625H131.5234375Q129.27734375 53.5390625 127.705078125 55.111328125Q126.1328125 56.68359375 126.1328125 58.9296875ZM152.1875 66.1171875V58.9296875Q152.1875 54.841796875 155.0849609375 51.9443359375Q157.982421875 49.046875 162.0703125 49.046875H175.99609375Q176.939453125 49.046875 177.5908203125 49.6982421875Q178.2421875 50.349609375 178.2421875 51.29296875Q178.2421875 52.236328125 177.5908203125 52.8876953125Q176.939453125 53.5390625 175.99609375 53.5390625H162.0703125Q159.82421875 53.5390625 158.251953125 55.111328125Q156.6796875 56.68359375 156.6796875 58.9296875V66.1171875Q156.6796875 68.36328125 158.251953125 69.935546875Q159.82421875 71.5078125 162.0703125 71.5078125H171.279296875Q172.3125 71.5078125 173.03125 70.7890625Q173.75 70.0703125 173.75 69.037109375V67.240234375Q173.75 66.20703125 173.03125 65.48828125Q172.3125 64.76953125 171.279296875 64.76953125H164.091796875Q163.1484375 64.76953125 162.4970703125 64.1181640625Q161.845703125 63.466796875 161.845703125 62.5234375Q161.845703125 61.580078125 162.4970703125 60.9287109375Q163.1484375 60.27734375 164.091796875 60.27734375H171.279296875Q174.19921875 60.27734375 176.220703125 62.298828125Q178.2421875 64.3203125 178.2421875 67.240234375V69.037109375Q178.2421875 71.95703125 176.220703125 73.978515625Q174.19921875 76.0 171.279296875 76.0H162.0703125Q157.982421875 76.0 155.0849609375 73.1025390625Q152.1875 70.205078125 152.1875 66.1171875ZM187.2265625 71.5078125H205.1953125V58.9296875Q205.1953125 56.68359375 203.623046875 55.111328125Q202.05078125 53.5390625 199.8046875 53.5390625H192.6171875Q190.37109375 53.5390625 188.798828125 55.111328125Q187.2265625 56.68359375 187.2265625 58.9296875ZM182.734375 73.75390625V58.9296875Q182.734375 54.841796875 185.6318359375 51.9443359375Q188.529296875 49.046875 192.6171875 49.046875H199.8046875Q203.892578125 49.046875 206.7900390625 51.9443359375Q209.6875 54.841796875 209.6875 58.9296875V73.75390625Q209.6875 74.697265625 209.0361328125 75.3486328125Q208.384765625 76.0 207.44140625 76.0H184.98046875Q184.037109375 76.0 183.3857421875 75.3486328125Q182.734375 74.697265625 182.734375 73.75390625ZM214.1796875 73.75390625V51.29296875Q214.1796875 50.349609375 214.8310546875 49.6982421875Q215.482421875 49.046875 216.42578125 49.046875Q217.369140625 49.046875 218.0205078125 49.6982421875Q218.671875 50.349609375 218.671875 51.29296875V73.75390625Q218.671875 74.697265625 218.0205078125 75.3486328125Q217.369140625 76.0 216.42578125 76.0Q215.482421875 76.0 214.8310546875 75.3486328125Q214.1796875 74.697265625 214.1796875 73.75390625ZM257.75390625 73.75390625V58.9296875Q257.75390625 54.841796875 260.6513671875 51.9443359375Q263.548828125 49.046875 267.63671875 49.046875H277.51953125Q278.462890625 49.046875 279.1142578125 49.6982421875Q279.765625 50.349609375 279.765625 51.29296875Q279.765625 52.236328125 279.1142578125 52.8876953125Q278.462890625 53.5390625 277.51953125 53.5390625H267.63671875Q265.390625 53.5390625 263.818359375 55.111328125Q262.24609375 56.68359375 262.24609375 58.9296875V73.75390625Q262.24609375 74.697265625 261.5947265625 75.3486328125Q260.943359375 76.0 260.0 76.0Q259.056640625 76.0 258.4052734375 75.3486328125Q257.75390625 74.697265625 257.75390625 73.75390625ZM288.75 66.1171875Q288.75 68.36328125 290.322265625 69.935546875Q291.89453125 71.5078125 294.140625 71.5078125H301.328125Q303.57421875 71.5078125 305.146484375 69.935546875Q306.71875 68.36328125 306.71875 66.1171875V58.9296875Q306.71875 56.68359375 305.146484375 55.111328125Q303.57421875 53.5390625 301.328125 53.5390625H294.140625Q291.89453125 53.5390625 290.322265625 55.111328125Q288.75 56.68359375 288.75 58.9296875ZM284.2578125 66.1171875V58.9296875Q284.2578125 54.841796875 287.1552734375 51.9443359375Q290.052734375 49.046875 294.140625 49.046875H301.328125Q305.416015625 49.046875 308.3134765625 51.9443359375Q311.2109375 54.841796875 311.2109375 58.9296875V66.1171875Q311.2109375 70.205078125 308.3134765625 73.1025390625Q305.416015625 76.0 301.328125 76.0H294.140625Q290.052734375 76.0 287.1552734375 73.1025390625Q284.2578125 70.205078125 284.2578125 66.1171875ZM320.1953125 66.1171875Q320.1953125 68.36328125 321.767578125 69.935546875Q323.33984375 71.5078125 325.5859375 71.5078125H332.7734375Q335.01953125 71.5078125 336.591796875 69.935546875Q338.1640625 68.36328125 338.1640625 66.1171875V53.5390625H320.1953125ZM315.703125 66.1171875V51.29296875Q315.703125 50.349609375 316.3544921875 49.6982421875Q317.005859375 49.046875 317.94921875 49.046875H340.41015625Q341.353515625 49.046875 342.0048828125 49.6982421875Q342.65625 50.349609375 342.65625 51.29296875V66.1171875Q342.65625 70.205078125 339.7587890625 73.1025390625Q336.861328125 76.0 332.7734375 76.0H325.5859375Q321.498046875 76.0 318.6005859375 73.1025390625Q315.703125 70.205078125 315.703125 66.1171875ZM347.1484375 73.75390625V58.9296875Q347.1484375 54.841796875 350.0458984375 51.9443359375Q352.943359375 49.046875 357.03125 49.046875H364.21875Q368.306640625 49.046875 371.2041015625 51.9443359375Q374.1015625 54.841796875 374.1015625 58.9296875V73.75390625Q374.1015625 74.697265625 373.4501953125 75.3486328125Q372.798828125 76.0 371.85546875 76.0Q370.912109375 76.0 370.2607421875 75.3486328125Q369.609375 74.697265625 369.609375 73.75390625V58.9296875Q369.609375 56.68359375 368.037109375 55.111328125Q366.46484375 53.5390625 364.21875 53.5390625H357.03125Q354.78515625 53.5390625 353.212890625 55.111328125Q351.640625 56.68359375 351.640625 58.9296875V73.75390625Q351.640625 74.697265625 350.9892578125 75.3486328125Q350.337890625 76.0 349.39453125 76.0Q348.451171875 76.0 347.7998046875 75.3486328125Q347.1484375 74.697265625 347.1484375 73.75390625ZM383.0859375 71.5078125H395.6640625Q397.91015625 71.5078125 399.482421875 69.935546875Q401.0546875 68.36328125 401.0546875 66.1171875V58.9296875Q401.0546875 56.68359375 399.482421875 55.111328125Q397.91015625 53.5390625 395.6640625 53.5390625H383.0859375ZM378.59375 73.75390625V51.29296875Q378.59375 50.349609375 379.2451171875 49.6982421875Q379.896484375 49.046875 380.83984375 49.046875H395.6640625Q399.751953125 49.046875 402.6494140625 51.9443359375Q405.546875 54.841796875 405.546875 58.9296875V66.1171875Q405.546875 70.205078125 402.6494140625 73.1025390625Q399.751953125 76.0 395.6640625 76.0H380.83984375Q379.896484375 76.0 379.2451171875 75.3486328125Q378.59375 74.697265625 378.59375 73.75390625ZM410.0390625 66.1171875V58.9296875Q410.0390625 54.841796875 412.9365234375 51.9443359375Q415.833984375 49.046875 419.921875 49.046875H429.130859375Q432.05078125 49.046875 434.072265625 51.068359375Q436.09375 53.08984375 436.09375 56.009765625V57.806640625Q436.09375 60.7265625 434.072265625 62.748046875Q432.05078125 64.76953125 429.130859375 64.76953125H414.53125V66.1171875Q414.53125 68.36328125 416.103515625 69.935546875Q417.67578125 71.5078125 419.921875 71.5078125H433.84765625Q434.791015625 71.5078125 435.4423828125 72.1591796875Q436.09375 72.810546875 436.09375 73.75390625Q436.09375 74.697265625 435.4423828125 75.3486328125Q434.791015625 76.0 433.84765625 76.0H419.921875Q415.833984375 76.0 412.9365234375 73.1025390625Q410.0390625 70.205078125 410.0390625 66.1171875ZM414.53125 60.27734375H429.130859375Q430.1640625 60.27734375 430.8828125 59.55859375Q431.6015625 58.83984375 431.6015625 57.806640625V56.009765625Q431.6015625 54.9765625 430.8828125 54.2578125Q430.1640625 53.5390625 429.130859375 53.5390625H419.921875Q417.67578125 53.5390625 416.103515625 55.111328125Q414.53125 56.68359375 414.53125 58.9296875ZM445.078125 71.5078125H457.65625Q459.90234375 71.5078125 461.474609375 69.935546875Q463.046875 68.36328125 463.046875 66.1171875V58.9296875Q463.046875 56.68359375 461.474609375 55.111328125Q459.90234375 53.5390625 457.65625 53.5390625H445.078125ZM440.5859375 73.75390625V51.29296875Q440.5859375 50.349609375 441.2373046875 49.6982421875Q441.888671875 49.046875 442.83203125 49.046875H457.65625Q461.744140625 49.046875 464.6416015625 51.9443359375Q467.5390625 54.841796875 467.5390625 58.9296875V66.1171875Q467.5390625 70.205078125 464.6416015625 73.1025390625Q461.744140625 76.0 457.65625 76.0H442.83203125Q441.888671875 76.0 441.2373046875 75.3486328125Q440.5859375 74.697265625 440.5859375 73.75390625Z" fill="#12151a"/><path d="M30.0 125.876953125V114.646484375Q30.0 114.1748046875 30.32568359375 113.84912109375Q30.6513671875 113.5234375 31.123046875 113.5234375Q31.5947265625 113.5234375 31.92041015625 113.84912109375Q32.24609375 114.1748046875 32.24609375 114.646484375V118.689453125H36.73828125Q38.7822265625 118.689453125 40.23095703125 120.13818359375Q41.6796875 121.5869140625 41.6796875 123.630859375V125.876953125Q41.6796875 126.3486328125 41.35400390625 126.67431640625Q41.0283203125 127.0 40.556640625 127.0Q40.0849609375 127.0 39.75927734375 126.67431640625Q39.43359375 126.3486328125 39.43359375 125.876953125V123.630859375Q39.43359375 122.5078125 38.6474609375 121.7216796875Q37.861328125 120.935546875 36.73828125 120.935546875H32.24609375V125.876953125Q32.24609375 126.3486328125 31.92041015625 126.67431640625Q31.5947265625 127.0 31.123046875 127.0Q30.6513671875 127.0 30.32568359375 126.67431640625Q30.0 126.3486328125 30.0 125.876953125ZM46.171875 124.75390625H55.15625V118.46484375Q55.15625 117.341796875 54.3701171875 116.5556640625Q53.583984375 115.76953125 52.4609375 115.76953125H48.8671875Q47.744140625 115.76953125 46.9580078125 116.5556640625Q46.171875 117.341796875 46.171875 118.46484375ZM43.92578125 125.876953125V118.46484375Q43.92578125 116.4208984375 45.37451171875 114.97216796875Q46.8232421875 113.5234375 48.8671875 113.5234375H52.4609375Q54.5048828125 113.5234375 55.95361328125 114.97216796875Q57.40234375 116.4208984375 57.40234375 118.46484375V125.876953125Q57.40234375 126.3486328125 57.07666015625 126.67431640625Q56.7509765625 127.0 56.279296875 127.0H45.048828125Q44.5771484375 127.0 44.25146484375 126.67431640625Q43.92578125 126.3486328125 43.92578125 125.876953125ZM59.6484375 125.876953125V118.46484375Q59.6484375 116.4208984375 61.09716796875 114.97216796875Q62.5458984375 113.5234375 64.58984375 113.5234375H69.53125Q70.0029296875 113.5234375 70.32861328125 113.84912109375Q70.654296875 114.1748046875 70.654296875 114.646484375Q70.654296875 115.1181640625 70.32861328125 115.44384765625Q70.0029296875 115.76953125 69.53125 115.76953125H64.58984375Q63.466796875 115.76953125 62.6806640625 116.5556640625Q61.89453125 117.341796875 61.89453125 118.46484375V125.876953125Q61.89453125 126.3486328125 61.56884765625 126.67431640625Q61.2431640625 127.0 60.771484375 127.0Q60.2998046875 127.0 59.97412109375 126.67431640625Q59.6484375 126.3486328125 59.6484375 125.876953125ZM72.900390625 125.876953125V114.646484375Q72.900390625 114.1748046875 73.22607421875 113.84912109375Q73.5517578125 113.5234375 74.0234375 113.5234375Q74.4951171875 113.5234375 74.82080078125 113.84912109375Q75.146484375 114.1748046875 75.146484375 114.646484375V125.876953125Q75.146484375 126.3486328125 74.82080078125 126.67431640625Q74.4951171875 127.0 74.0234375 127.0Q73.5517578125 127.0 73.22607421875 126.67431640625Q72.900390625 126.3486328125 72.900390625 125.876953125ZM77.392578125 125.876953125V117.0048828125Q77.392578125 115.544921875 78.4033203125 114.5341796875Q79.4140625 113.5234375 80.8740234375 113.5234375H81.435546875Q82.8056640625 113.5234375 83.7939453125 114.4443359375Q84.7822265625 113.5234375 86.15234375 113.5234375H86.7138671875Q88.173828125 113.5234375 89.1845703125 114.5341796875Q90.1953125 115.544921875 90.1953125 117.0048828125V125.876953125Q90.1953125 126.3486328125 89.86962890625 126.67431640625Q89.5439453125 127.0 89.072265625 127.0Q88.6005859375 127.0 88.27490234375 126.67431640625Q87.94921875 126.3486328125 87.94921875 125.876953125V117.0048828125Q87.94921875 116.48828125 87.58984375 116.12890625Q87.23046875 115.76953125 86.7138671875 115.76953125H86.15234375Q85.658203125 115.76953125 85.28759765625 116.12890625Q84.9169921875 116.48828125 84.9169921875 117.0048828125V125.876953125Q84.9169921875 126.3486328125 84.59130859375 126.67431640625Q84.265625 127.0 83.7939453125 127.0Q83.322265625 127.0 82.99658203125 126.67431640625Q82.6708984375 126.3486328125 82.6708984375 125.876953125V117.0048828125Q82.6708984375 116.48828125 82.30029296875 116.12890625Q81.9296875 115.76953125 81.435546875 115.76953125H80.8740234375Q80.357421875 115.76953125 79.998046875 116.12890625Q79.638671875 116.48828125 79.638671875 117.0048828125V125.876953125Q79.638671875 126.3486328125 79.31298828125 126.67431640625Q78.9873046875 127.0 78.515625 127.0Q78.0439453125 127.0 77.71826171875 126.67431640625Q77.392578125 126.3486328125 77.392578125 125.876953125ZM94.6875 124.75390625H103.671875V118.46484375Q103.671875 117.341796875 102.8857421875 116.5556640625Q102.099609375 115.76953125 100.9765625 115.76953125H97.3828125Q96.259765625 115.76953125 95.4736328125 116.5556640625Q94.6875 117.341796875 94.6875 118.46484375ZM92.44140625 125.876953125V118.46484375Q92.44140625 116.4208984375 93.89013671875 114.97216796875Q95.3388671875 113.5234375 97.3828125 113.5234375H100.9765625Q103.0205078125 113.5234375 104.46923828125 114.97216796875Q105.91796875 116.4208984375 105.91796875 118.46484375V125.876953125Q105.91796875 126.3486328125 105.59228515625 126.67431640625Q105.2666015625 127.0 104.794921875 127.0H93.564453125Q93.0927734375 127.0 92.76708984375 126.67431640625Q92.44140625 126.3486328125 92.44140625 125.876953125ZM110.41015625 122.05859375Q110.41015625 123.181640625 111.1962890625 123.9677734375Q111.982421875 124.75390625 113.10546875 124.75390625H116.69921875Q117.822265625 124.75390625 118.6083984375 123.9677734375Q119.39453125 123.181640625 119.39453125 122.05859375V115.76953125H110.41015625ZM108.1640625 122.05859375V114.646484375Q108.1640625 114.1748046875 108.48974609375 113.84912109375Q108.8154296875 113.5234375 109.287109375 113.5234375H120.517578125Q120.9892578125 113.5234375 121.31494140625 113.84912109375Q121.640625 114.1748046875 121.640625 114.646484375V122.05859375Q121.640625 124.1025390625 120.19189453125 125.55126953125Q118.7431640625 127.0 116.69921875 127.0H113.10546875Q111.0615234375 127.0 109.61279296875 125.55126953125Q108.1640625 124.1025390625 108.1640625 122.05859375ZM141.181640625 122.05859375V118.46484375Q141.181640625 116.4208984375 142.63037109375 114.97216796875Q144.0791015625 113.5234375 146.123046875 113.5234375H153.0859375Q153.5576171875 113.5234375 153.88330078125 113.84912109375Q154.208984375 114.1748046875 154.208984375 114.646484375Q154.208984375 115.1181640625 153.88330078125 115.44384765625Q153.5576171875 115.76953125 153.0859375 115.76953125H146.123046875Q145.0 115.76953125 144.2138671875 116.5556640625Q143.427734375 117.341796875 143.427734375 118.46484375V122.05859375Q143.427734375 123.181640625 144.2138671875 123.9677734375Q145.0 124.75390625 146.123046875 124.75390625H150.7275390625Q151.244140625 124.75390625 151.603515625 124.39453125Q151.962890625 124.03515625 151.962890625 123.5185546875V122.6201171875Q151.962890625 122.103515625 151.603515625 121.744140625Q151.244140625 121.384765625 150.7275390625 121.384765625H147.1337890625Q146.662109375 121.384765625 146.33642578125 121.05908203125Q146.0107421875 120.7333984375 146.0107421875 120.26171875Q146.0107421875 119.7900390625 146.33642578125 119.46435546875Q146.662109375 119.138671875 147.1337890625 119.138671875H150.7275390625Q152.1875 119.138671875 153.1982421875 120.1494140625Q154.208984375 121.16015625 154.208984375 122.6201171875V123.5185546875Q154.208984375 124.978515625 153.1982421875 125.9892578125Q152.1875 127.0 150.7275390625 127.0H146.123046875Q144.0791015625 127.0 142.63037109375 125.55126953125Q141.181640625 124.1025390625 141.181640625 122.05859375ZM156.455078125 122.05859375V114.646484375Q156.455078125 114.1748046875 156.78076171875 113.84912109375Q157.1064453125 113.5234375 157.578125 113.5234375Q158.0498046875 113.5234375 158.37548828125 113.84912109375Q158.701171875 114.1748046875 158.701171875 114.646484375V122.05859375Q158.701171875 123.181640625 159.4873046875 123.9677734375Q160.2734375 124.75390625 161.396484375 124.75390625H167.4609375Q167.9326171875 124.75390625 168.25830078125 125.07958984375Q168.583984375 125.4052734375 168.583984375 125.876953125Q168.583984375 126.3486328125 168.25830078125 126.67431640625Q167.9326171875 127.0 167.4609375 127.0H161.396484375Q159.3525390625 127.0 157.90380859375 125.55126953125Q156.455078125 124.1025390625 156.455078125 122.05859375ZM170.830078125 125.876953125V114.646484375Q170.830078125 114.1748046875 171.15576171875 113.84912109375Q171.4814453125 113.5234375 171.953125 113.5234375Q172.4248046875 113.5234375 172.75048828125 113.84912109375Q173.076171875 114.1748046875 173.076171875 114.646484375V125.876953125Q173.076171875 126.3486328125 172.75048828125 126.67431640625Q172.4248046875 127.0 171.953125 127.0Q171.4814453125 127.0 171.15576171875 126.67431640625Q170.830078125 126.3486328125 170.830078125 125.876953125ZM177.568359375 124.75390625H183.857421875Q184.98046875 124.75390625 185.7666015625 123.9677734375Q186.552734375 123.181640625 186.552734375 122.05859375V118.46484375Q186.552734375 117.341796875 185.7666015625 116.5556640625Q184.98046875 115.76953125 183.857421875 115.76953125H177.568359375ZM175.322265625 125.876953125V114.646484375Q175.322265625 114.1748046875 175.64794921875 113.84912109375Q175.9736328125 113.5234375 176.4453125 113.5234375H183.857421875Q185.9013671875 113.5234375 187.35009765625 114.97216796875Q188.798828125 116.4208984375 188.798828125 118.46484375V122.05859375Q188.798828125 124.1025390625 187.35009765625 125.55126953125Q185.9013671875 127.0 183.857421875 127.0H176.4453125Q175.9736328125 127.0 175.64794921875 126.67431640625Q175.322265625 126.3486328125 175.322265625 125.876953125ZM191.044921875 122.05859375V118.46484375Q191.044921875 116.4208984375 192.49365234375 114.97216796875Q193.9423828125 113.5234375 195.986328125 113.5234375H200.5908203125Q202.05078125 113.5234375 203.0615234375 114.5341796875Q204.072265625 115.544921875 204.072265625 117.0048828125V117.9033203125Q204.072265625 119.36328125 203.0615234375 120.3740234375Q202.05078125 121.384765625 200.5908203125 121.384765625H193.291015625V122.05859375Q193.291015625 123.181640625 194.0771484375 123.9677734375Q194.86328125 124.75390625 195.986328125 124.75390625H202.94921875Q203.4208984375 124.75390625 203.74658203125 125.07958984375Q204.072265625 125.4052734375 204.072265625 125.876953125Q204.072265625 126.3486328125 203.74658203125 126.67431640625Q203.4208984375 127.0 202.94921875 127.0H195.986328125Q193.9423828125 127.0 192.49365234375 125.55126953125Q191.044921875 124.1025390625 191.044921875 122.05859375ZM193.291015625 119.138671875H200.5908203125Q201.107421875 119.138671875 201.466796875 118.779296875Q201.826171875 118.419921875 201.826171875 117.9033203125V117.0048828125Q201.826171875 116.48828125 201.466796875 116.12890625Q201.107421875 115.76953125 200.5908203125 115.76953125H195.986328125Q194.86328125 115.76953125 194.0771484375 116.5556640625Q193.291015625 117.341796875 193.291015625 118.46484375ZM207.666015625 124.75390625H215.6396484375Q216.15625 124.75390625 216.515625 124.39453125Q216.875 124.03515625 216.875 123.5185546875V122.6201171875Q216.875 122.103515625 216.515625 121.744140625Q216.15625 121.384765625 215.6396484375 121.384765625H209.7998046875Q208.33984375 121.384765625 207.3291015625 120.3740234375Q206.318359375 119.36328125 206.318359375 117.9033203125V117.0048828125Q206.318359375 115.544921875 207.3291015625 114.5341796875Q208.33984375 113.5234375 209.7998046875 113.5234375H217.7734375Q218.2451171875 113.5234375 218.57080078125 113.84912109375Q218.896484375 114.1748046875 218.896484375 114.646484375Q218.896484375 115.1181640625 218.57080078125 115.44384765625Q218.2451171875 115.76953125 217.7734375 115.76953125H209.7998046875Q209.283203125 115.76953125 208.923828125 116.12890625Q208.564453125 116.48828125 208.564453125 117.0048828125V117.9033203125Q208.564453125 118.419921875 208.923828125 118.779296875Q209.283203125 119.138671875 209.7998046875 119.138671875H215.6396484375Q217.099609375 119.138671875 218.1103515625 120.1494140625Q219.12109375 121.16015625 219.12109375 122.6201171875V123.5185546875Q219.12109375 124.978515625 218.1103515625 125.9892578125Q217.099609375 127.0 215.6396484375 127.0H207.666015625Q207.1943359375 127.0 206.86865234375 126.67431640625Q206.54296875 126.3486328125 206.54296875 125.876953125Q206.54296875 125.4052734375 206.86865234375 125.07958984375Q207.1943359375 124.75390625 207.666015625 124.75390625ZM240.908203125 122.05859375Q240.908203125 123.181640625 241.6943359375 123.9677734375Q242.48046875 124.75390625 243.603515625 124.75390625H247.197265625Q248.3203125 124.75390625 249.1064453125 123.9677734375Q249.892578125 123.181640625 249.892578125 122.05859375V118.46484375Q249.892578125 117.341796875 249.1064453125 116.5556640625Q248.3203125 115.76953125 247.197265625 115.76953125H243.603515625Q242.48046875 115.76953125 241.6943359375 116.5556640625Q240.908203125 117.341796875 240.908203125 118.46484375ZM238.662109375 122.05859375V118.46484375Q238.662109375 116.4208984375 240.11083984375 114.97216796875Q241.5595703125 113.5234375 243.603515625 113.5234375H247.197265625Q249.2412109375 113.5234375 250.68994140625 114.97216796875Q252.138671875 116.4208984375 252.138671875 118.46484375V122.05859375Q252.138671875 124.1025390625 250.68994140625 125.55126953125Q249.2412109375 127.0 247.197265625 127.0H243.603515625Q241.5595703125 127.0 240.11083984375 125.55126953125Q238.662109375 124.1025390625 238.662109375 122.05859375ZM254.384765625 122.05859375V114.646484375Q254.384765625 114.1748046875 254.71044921875 113.84912109375Q255.0361328125 113.5234375 255.5078125 113.5234375Q255.9794921875 113.5234375 256.30517578125 113.84912109375Q256.630859375 114.1748046875 256.630859375 114.646484375V122.05859375Q256.630859375 123.181640625 257.4169921875 123.9677734375Q258.203125 124.75390625 259.326171875 124.75390625H262.919921875Q264.04296875 124.75390625 264.8291015625 123.9677734375Q265.615234375 123.181640625 265.615234375 122.05859375V114.646484375Q265.615234375 114.1748046875 265.94091796875 113.84912109375Q266.2666015625 113.5234375 266.73828125 113.5234375Q267.2099609375 113.5234375 267.53564453125 113.84912109375Q267.861328125 114.1748046875 267.861328125 114.646484375V122.05859375Q267.861328125 124.1025390625 266.41259765625 125.55126953125Q264.9638671875 127.0 262.919921875 127.0H259.326171875Q257.2822265625 127.0 255.83349609375 125.55126953125Q254.384765625 124.1025390625 254.384765625 122.05859375ZM270.107421875 122.05859375V118.46484375Q270.107421875 116.4208984375 271.55615234375 114.97216796875Q273.0048828125 113.5234375 275.048828125 113.5234375H279.6533203125Q281.11328125 113.5234375 282.1240234375 114.5341796875Q283.134765625 115.544921875 283.134765625 117.0048828125V117.9033203125Q283.134765625 119.36328125 282.1240234375 120.3740234375Q281.11328125 121.384765625 279.6533203125 121.384765625H272.353515625V122.05859375Q272.353515625 123.181640625 273.1396484375 123.9677734375Q273.92578125 124.75390625 275.048828125 124.75390625H282.01171875Q282.4833984375 124.75390625 282.80908203125 125.07958984375Q283.134765625 125.4052734375 283.134765625 125.876953125Q283.134765625 126.3486328125 282.80908203125 126.67431640625Q282.4833984375 127.0 282.01171875 127.0H275.048828125Q273.0048828125 127.0 271.55615234375 125.55126953125Q270.107421875 124.1025390625 270.107421875 122.05859375ZM272.353515625 119.138671875H279.6533203125Q280.169921875 119.138671875 280.529296875 118.779296875Q280.888671875 118.419921875 280.888671875 117.9033203125V117.0048828125Q280.888671875 116.48828125 280.529296875 116.12890625Q280.169921875 115.76953125 279.6533203125 115.76953125H275.048828125Q273.92578125 115.76953125 273.1396484375 116.5556640625Q272.353515625 117.341796875 272.353515625 118.46484375ZM285.380859375 125.876953125V118.46484375Q285.380859375 116.4208984375 286.82958984375 114.97216796875Q288.2783203125 113.5234375 290.322265625 113.5234375H295.263671875Q295.7353515625 113.5234375 296.06103515625 113.84912109375Q296.38671875 114.1748046875 296.38671875 114.646484375Q296.38671875 115.1181640625 296.06103515625 115.44384765625Q295.7353515625 115.76953125 295.263671875 115.76953125H290.322265625Q289.19921875 115.76953125 288.4130859375 116.5556640625Q287.626953125 117.341796875 287.626953125 118.46484375V125.876953125Q287.626953125 126.3486328125 287.30126953125 126.67431640625Q286.9755859375 127.0 286.50390625 127.0Q286.0322265625 127.0 285.70654296875 126.67431640625Q285.380859375 126.3486328125 285.380859375 125.876953125ZM315.927734375 125.876953125V117.0048828125Q315.927734375 115.544921875 316.9384765625 114.5341796875Q317.94921875 113.5234375 319.4091796875 113.5234375H319.970703125Q321.3408203125 113.5234375 322.3291015625 114.4443359375Q323.3173828125 113.5234375 324.6875 113.5234375H325.2490234375Q326.708984375 113.5234375 327.7197265625 114.5341796875Q328.73046875 115.544921875 328.73046875 117.0048828125V125.876953125Q328.73046875 126.3486328125 328.40478515625 126.67431640625Q328.0791015625 127.0 327.607421875 127.0Q327.1357421875 127.0 326.81005859375 126.67431640625Q326.484375 126.3486328125 326.484375 125.876953125V117.0048828125Q326.484375 116.48828125 326.125 116.12890625Q325.765625 115.76953125 325.2490234375 115.76953125H324.6875Q324.193359375 115.76953125 323.82275390625 116.12890625Q323.4521484375 116.48828125 323.4521484375 117.0048828125V125.876953125Q323.4521484375 126.3486328125 323.12646484375 126.67431640625Q322.80078125 127.0 322.3291015625 127.0Q321.857421875 127.0 321.53173828125 126.67431640625Q321.2060546875 126.3486328125 321.2060546875 125.876953125V117.0048828125Q321.2060546875 116.48828125 320.83544921875 116.12890625Q320.46484375 115.76953125 319.970703125 115.76953125H319.4091796875Q318.892578125 115.76953125 318.533203125 116.12890625Q318.173828125 116.48828125 318.173828125 117.0048828125V125.876953125Q318.173828125 126.3486328125 317.84814453125 126.67431640625Q317.5224609375 127.0 317.05078125 127.0Q316.5791015625 127.0 316.25341796875 126.67431640625Q315.927734375 126.3486328125 315.927734375 125.876953125ZM330.9765625 122.05859375V118.46484375Q330.9765625 116.4208984375 332.42529296875 114.97216796875Q333.8740234375 113.5234375 335.91796875 113.5234375H340.5224609375Q341.982421875 113.5234375 342.9931640625 114.5341796875Q344.00390625 115.544921875 344.00390625 117.0048828125V117.9033203125Q344.00390625 119.36328125 342.9931640625 120.3740234375Q341.982421875 121.384765625 340.5224609375 121.384765625H333.22265625V122.05859375Q333.22265625 123.181640625 334.0087890625 123.9677734375Q334.794921875 124.75390625 335.91796875 124.75390625H342.880859375Q343.3525390625 124.75390625 343.67822265625 125.07958984375Q344.00390625 125.4052734375 344.00390625 125.876953125Q344.00390625 126.3486328125 343.67822265625 126.67431640625Q343.3525390625 127.0 342.880859375 127.0H335.91796875Q333.8740234375 127.0 332.42529296875 125.55126953125Q330.9765625 124.1025390625 330.9765625 122.05859375ZM333.22265625 119.138671875H340.5224609375Q341.0390625 119.138671875 341.3984375 118.779296875Q341.7578125 118.419921875 341.7578125 117.9033203125V117.0048828125Q341.7578125 116.48828125 341.3984375 116.12890625Q341.0390625 115.76953125 340.5224609375 115.76953125H335.91796875Q334.794921875 115.76953125 334.0087890625 116.5556640625Q333.22265625 117.341796875 333.22265625 118.46484375ZM346.25 122.05859375V114.646484375Q346.25 114.1748046875 346.57568359375 113.84912109375Q346.9013671875 113.5234375 347.373046875 113.5234375Q347.8447265625 113.5234375 348.17041015625 113.84912109375Q348.49609375 114.1748046875 348.49609375 114.646484375V119.138671875H357.255859375Q357.7275390625 119.138671875 358.05322265625 119.46435546875Q358.37890625 119.7900390625 358.37890625 120.26171875Q358.37890625 120.7333984375 358.05322265625 121.05908203125Q357.7275390625 121.384765625 357.255859375 121.384765625H348.49609375V122.05859375Q348.49609375 123.181640625 349.2822265625 123.9677734375Q350.068359375 124.75390625 351.19140625 124.75390625H357.255859375Q357.7275390625 124.75390625 358.05322265625 125.07958984375Q358.37890625 125.4052734375 358.37890625 125.876953125Q358.37890625 126.3486328125 358.05322265625 126.67431640625Q357.7275390625 127.0 357.255859375 127.0H351.19140625Q349.1474609375 127.0 347.69873046875 125.55126953125Q346.25 124.1025390625 346.25 122.05859375ZM360.625 125.876953125V118.46484375Q360.625 116.4208984375 362.07373046875 114.97216796875Q363.5224609375 113.5234375 365.56640625 113.5234375H370.5078125Q370.9794921875 113.5234375 371.30517578125 113.84912109375Q371.630859375 114.1748046875 371.630859375 114.646484375Q371.630859375 115.1181640625 371.30517578125 115.44384765625Q370.9794921875 115.76953125 370.5078125 115.76953125H365.56640625Q364.443359375 115.76953125 363.6572265625 116.5556640625Q362.87109375 117.341796875 362.87109375 118.46484375V125.876953125Q362.87109375 126.3486328125 362.54541015625 126.67431640625Q362.2197265625 127.0 361.748046875 127.0Q361.2763671875 127.0 360.95068359375 126.67431640625Q360.625 126.3486328125 360.625 125.876953125ZM376.123046875 122.05859375Q376.123046875 123.181640625 376.9091796875 123.9677734375Q377.6953125 124.75390625 378.818359375 124.75390625H382.412109375Q383.53515625 124.75390625 384.3212890625 123.9677734375Q385.107421875 123.181640625 385.107421875 122.05859375V118.46484375Q385.107421875 117.341796875 384.3212890625 116.5556640625Q383.53515625 115.76953125 382.412109375 115.76953125H378.818359375Q377.6953125 115.76953125 376.9091796875 116.5556640625Q376.123046875 117.341796875 376.123046875 118.46484375ZM373.876953125 122.05859375V118.46484375Q373.876953125 116.4208984375 375.32568359375 114.97216796875Q376.7744140625 113.5234375 378.818359375 113.5234375H382.412109375Q384.4560546875 113.5234375 385.90478515625 114.97216796875Q387.353515625 116.4208984375 387.353515625 118.46484375V122.05859375Q387.353515625 124.1025390625 385.90478515625 125.55126953125Q384.4560546875 127.0 382.412109375 127.0H378.818359375Q376.7744140625 127.0 375.32568359375 125.55126953125Q373.876953125 124.1025390625 373.876953125 122.05859375ZM389.599609375 125.876953125V118.46484375Q389.599609375 116.4208984375 391.04833984375 114.97216796875Q392.4970703125 113.5234375 394.541015625 113.5234375H399.1455078125Q400.60546875 113.5234375 401.6162109375 114.5341796875Q402.626953125 115.544921875 402.626953125 117.0048828125V117.9033203125Q402.626953125 119.36328125 401.6162109375 120.3740234375Q400.60546875 121.384765625 399.1455078125 121.384765625H391.845703125V125.876953125Q391.845703125 126.3486328125 391.52001953125 126.67431640625Q391.1943359375 127.0 390.72265625 127.0Q390.2509765625 127.0 389.92529296875 126.67431640625Q389.599609375 126.3486328125 389.599609375 125.876953125ZM391.845703125 119.138671875H399.1455078125Q399.662109375 119.138671875 400.021484375 118.779296875Q400.380859375 118.419921875 400.380859375 117.9033203125V117.0048828125Q400.380859375 116.48828125 400.021484375 116.12890625Q399.662109375 115.76953125 399.1455078125 115.76953125H394.541015625Q393.41796875 115.76953125 392.6318359375 116.5556640625Q391.845703125 117.341796875 391.845703125 118.46484375ZM404.873046875 125.876953125V114.646484375Q404.873046875 114.1748046875 405.19873046875 113.84912109375Q405.5244140625 113.5234375 405.99609375 113.5234375Q406.4677734375 113.5234375 406.79345703125 113.84912109375Q407.119140625 114.1748046875 407.119140625 114.646484375V125.876953125Q407.119140625 126.3486328125 406.79345703125 126.67431640625Q406.4677734375 127.0 405.99609375 127.0Q405.5244140625 127.0 405.19873046875 126.67431640625Q404.873046875 126.3486328125 404.873046875 125.876953125ZM411.611328125 124.75390625H420.595703125V118.46484375Q420.595703125 117.341796875 419.8095703125 116.5556640625Q419.0234375 115.76953125 417.900390625 115.76953125H414.306640625Q413.18359375 115.76953125 412.3974609375 116.5556640625Q411.611328125 117.341796875 411.611328125 118.46484375ZM409.365234375 125.876953125V118.46484375Q409.365234375 116.4208984375 410.81396484375 114.97216796875Q412.2626953125 113.5234375 414.306640625 113.5234375H417.900390625Q419.9443359375 113.5234375 421.39306640625 114.97216796875Q422.841796875 116.4208984375 422.841796875 118.46484375V125.876953125Q422.841796875 126.3486328125 422.51611328125 126.67431640625Q422.1904296875 127.0 421.71875 127.0H410.48828125Q410.0166015625 127.0 409.69091796875 126.67431640625Q409.365234375 126.3486328125 409.365234375 125.876953125ZM444.62890625 124.75390625H453.61328125V118.46484375Q453.61328125 117.341796875 452.8271484375 116.5556640625Q452.041015625 115.76953125 450.91796875 115.76953125H447.32421875Q446.201171875 115.76953125 445.4150390625 116.5556640625Q444.62890625 117.341796875 444.62890625 118.46484375ZM442.3828125 125.876953125V118.46484375Q442.3828125 116.4208984375 443.83154296875 114.97216796875Q445.2802734375 113.5234375 447.32421875 113.5234375H450.91796875Q452.9619140625 113.5234375 454.41064453125 114.97216796875Q455.859375 116.4208984375 455.859375 118.46484375V125.876953125Q455.859375 126.3486328125 455.53369140625 126.67431640625Q455.2080078125 127.0 454.736328125 127.0H443.505859375Q443.0341796875 127.0 442.70849609375 126.67431640625Q442.3828125 126.3486328125 442.3828125 125.876953125ZM458.10546875 122.05859375V114.646484375Q458.10546875 114.1748046875 458.43115234375 113.84912109375Q458.7568359375 113.5234375 459.228515625 113.5234375Q459.7001953125 113.5234375 460.02587890625 113.84912109375Q460.3515625 114.1748046875 460.3515625 114.646484375V119.138671875H469.111328125Q469.5830078125 119.138671875 469.90869140625 119.46435546875Q470.234375 119.7900390625 470.234375 120.26171875Q470.234375 120.7333984375 469.90869140625 121.05908203125Q469.5830078125 121.384765625 469.111328125 121.384765625H460.3515625V122.05859375Q460.3515625 123.181640625 461.1376953125 123.9677734375Q461.923828125 124.75390625 463.046875 124.75390625H469.111328125Q469.5830078125 124.75390625 469.90869140625 125.07958984375Q470.234375 125.4052734375 470.234375 125.876953125Q470.234375 126.3486328125 469.90869140625 126.67431640625Q469.5830078125 127.0 469.111328125 127.0H463.046875Q461.0029296875 127.0 459.55419921875 125.55126953125Q458.10546875 124.1025390625 458.10546875 122.05859375ZM492.021484375 124.75390625H498.310546875Q499.43359375 124.75390625 500.2197265625 123.9677734375Q501.005859375 123.181640625 501.005859375 122.05859375V118.46484375Q501.005859375 117.341796875 500.2197265625 116.5556640625Q499.43359375 115.76953125 498.310546875 115.76953125H492.021484375ZM489.775390625 125.876953125V114.646484375Q489.775390625 114.1748046875 490.10107421875 113.84912109375Q490.4267578125 113.5234375 490.8984375 113.5234375H498.310546875Q500.3544921875 113.5234375 501.80322265625 114.97216796875Q503.251953125 116.4208984375 503.251953125 118.46484375V122.05859375Q503.251953125 124.1025390625 501.80322265625 125.55126953125Q500.3544921875 127.0 498.310546875 127.0H490.8984375Q490.4267578125 127.0 490.10107421875 126.67431640625Q489.775390625 126.3486328125 489.775390625 125.876953125ZM507.744140625 124.75390625H516.728515625V118.46484375Q516.728515625 117.341796875 515.9423828125 116.5556640625Q515.15625 115.76953125 514.033203125 115.76953125H510.439453125Q509.31640625 115.76953125 508.5302734375 116.5556640625Q507.744140625 117.341796875 507.744140625 118.46484375ZM505.498046875 125.876953125V118.46484375Q505.498046875 116.4208984375 506.94677734375 114.97216796875Q508.3955078125 113.5234375 510.439453125 113.5234375H514.033203125Q516.0771484375 113.5234375 517.52587890625 114.97216796875Q518.974609375 116.4208984375 518.974609375 118.46484375V125.876953125Q518.974609375 126.3486328125 518.64892578125 126.67431640625Q518.3232421875 127.0 517.8515625 127.0H506.62109375Q506.1494140625 127.0 505.82373046875 126.67431640625Q505.498046875 126.3486328125 505.498046875 125.876953125ZM521.220703125 123.5185546875V114.646484375Q521.220703125 114.1748046875 521.54638671875 113.84912109375Q521.8720703125 113.5234375 522.34375 113.5234375Q522.8154296875 113.5234375 523.14111328125 113.84912109375Q523.466796875 114.1748046875 523.466796875 114.646484375V123.5185546875Q523.466796875 124.03515625 523.826171875 124.39453125Q524.185546875 124.75390625 524.7021484375 124.75390625H525.263671875Q525.7578125 124.75390625 526.12841796875 124.39453125Q526.4990234375 124.03515625 526.4990234375 123.5185546875V114.646484375Q526.4990234375 114.1748046875 526.82470703125 113.84912109375Q527.150390625 113.5234375 527.6220703125 113.5234375Q528.09375 113.5234375 528.41943359375 113.84912109375Q528.7451171875 114.1748046875 528.7451171875 114.646484375V123.5185546875Q528.7451171875 124.03515625 529.11572265625 124.39453125Q529.486328125 124.75390625 529.98046875 124.75390625H530.5419921875Q531.05859375 124.75390625 531.41796875 124.39453125Q531.77734375 124.03515625 531.77734375 123.5185546875V114.646484375Q531.77734375 114.1748046875 532.10302734375 113.84912109375Q532.4287109375 113.5234375 532.900390625 113.5234375Q533.3720703125 113.5234375 533.69775390625 113.84912109375Q534.0234375 114.1748046875 534.0234375 114.646484375V123.5185546875Q534.0234375 124.978515625 533.0126953125 125.9892578125Q532.001953125 127.0 530.5419921875 127.0H529.98046875Q528.6103515625 127.0 527.6220703125 126.0791015625Q526.6337890625 127.0 525.263671875 127.0H524.7021484375Q523.2421875 127.0 522.2314453125 125.9892578125Q521.220703125 124.978515625 521.220703125 123.5185546875ZM536.26953125 125.876953125V118.46484375Q536.26953125 116.4208984375 537.71826171875 114.97216796875Q539.1669921875 113.5234375 541.2109375 113.5234375H544.8046875Q546.8486328125 113.5234375 548.29736328125 114.97216796875Q549.74609375 116.4208984375 549.74609375 118.46484375V125.876953125Q549.74609375 126.3486328125 549.42041015625 126.67431640625Q549.0947265625 127.0 548.623046875 127.0Q548.1513671875 127.0 547.82568359375 126.67431640625Q547.5 126.3486328125 547.5 125.876953125V118.46484375Q547.5 117.341796875 546.7138671875 116.5556640625Q545.927734375 115.76953125 544.8046875 115.76953125H541.2109375Q540.087890625 115.76953125 539.3017578125 116.5556640625Q538.515625 117.341796875 538.515625 118.46484375V125.876953125Q538.515625 126.3486328125 538.18994140625 126.67431640625Q537.8642578125 127.0 537.392578125 127.0Q536.9208984375 127.0 536.59521484375 126.67431640625Q536.26953125 126.3486328125 536.26953125 125.876953125Z" fill="#3a3f47"/><path d="M31.5625 163.4375H37.8125V159.0625Q37.8125 158.28125 37.265625 157.734375Q36.71875 157.1875 35.9375 157.1875H33.4375Q32.65625 157.1875 32.109375 157.734375Q31.5625 158.28125 31.5625 159.0625ZM30.0 164.21875V159.0625Q30.0 157.640625 31.0078125 156.6328125Q32.015625 155.625 33.4375 155.625H35.9375Q37.359375 155.625 38.3671875 156.6328125Q39.375 157.640625 39.375 159.0625V164.21875Q39.375 164.546875 39.1484375 164.7734375Q38.921875 165.0 38.59375 165.0H30.78125Q30.453125 165.0 30.2265625 164.7734375Q30.0 164.546875 30.0 164.21875ZM40.9375 164.21875V159.0625Q40.9375 157.640625 41.9453125 156.6328125Q42.953125 155.625 44.375 155.625H47.421875Q48.4375 155.625 49.140625 156.328125Q49.84375 157.03125 49.84375 158.046875V158.671875Q49.84375 159.625 49.203125 160.3125Q49.84375 161.0 49.84375 161.953125V162.578125Q49.84375 163.59375 49.140625 164.296875Q48.4375 165.0 47.421875 165.0H41.71875Q41.390625 165.0 41.1640625 164.7734375Q40.9375 164.546875 40.9375 164.21875ZM42.5 159.53125H47.421875Q47.78125 159.53125 48.03125 159.28125Q48.28125 159.03125 48.28125 158.671875V158.046875Q48.28125 157.6875 48.03125 157.4375Q47.78125 157.1875 47.421875 157.1875H44.375Q43.59375 157.1875 43.046875 157.734375Q42.5 158.28125 42.5 159.0625ZM42.5 163.4375H47.421875Q47.78125 163.4375 48.03125 163.1875Q48.28125 162.9375 48.28125 162.578125V161.953125Q48.28125 161.59375 48.03125 161.34375Q47.78125 161.09375 47.421875 161.09375H42.5ZM51.40625 161.5625V159.0625Q51.40625 157.640625 52.4140625 156.6328125Q53.421875 155.625 54.84375 155.625H60.0Q60.328125 155.625 60.5546875 155.8515625Q60.78125 156.078125 60.78125 156.40625Q60.78125 156.734375 60.5546875 156.9609375Q60.328125 157.1875 60.0 157.1875H54.84375Q54.0625 157.1875 53.515625 157.734375Q52.96875 158.28125 52.96875 159.0625V161.5625Q52.96875 162.34375 53.515625 162.890625Q54.0625 163.4375 54.84375 163.4375H60.0Q60.328125 163.4375 60.5546875 163.6640625Q60.78125 163.890625 60.78125 164.21875Q60.78125 164.546875 60.5546875 164.7734375Q60.328125 165.0 60.0 165.0H54.84375Q53.421875 165.0 52.4140625 163.9921875Q51.40625 162.984375 51.40625 161.5625ZM63.90625 163.4375H68.28125Q69.0625 163.4375 69.609375 162.890625Q70.15625 162.34375 70.15625 161.5625V159.0625Q70.15625 158.28125 69.609375 157.734375Q69.0625 157.1875 68.28125 157.1875H63.90625ZM62.34375 164.21875V156.40625Q62.34375 156.078125 62.5703125 155.8515625Q62.796875 155.625 63.125 155.625H68.28125Q69.703125 155.625 70.7109375 156.6328125Q71.71875 157.640625 71.71875 159.0625V161.5625Q71.71875 162.984375 70.7109375 163.9921875Q69.703125 165.0 68.28125 165.0H63.125Q62.796875 165.0 62.5703125 164.7734375Q62.34375 164.546875 62.34375 164.21875ZM73.28125 161.5625V159.0625Q73.28125 157.640625 74.2890625 156.6328125Q75.296875 155.625 76.71875 155.625H79.921875Q80.9375 155.625 81.640625 156.328125Q82.34375 157.03125 82.34375 158.046875V158.671875Q82.34375 159.6875 81.640625 160.390625Q80.9375 161.09375 79.921875 161.09375H74.84375V161.5625Q74.84375 162.34375 75.390625 162.890625Q75.9375 163.4375 76.71875 163.4375H81.5625Q81.890625 163.4375 82.1171875 163.6640625Q82.34375 163.890625 82.34375 164.21875Q82.34375 164.546875 82.1171875 164.7734375Q81.890625 165.0 81.5625 165.0H76.71875Q75.296875 165.0 74.2890625 163.9921875Q73.28125 162.984375 73.28125 161.5625ZM74.84375 159.53125H79.921875Q80.28125 159.53125 80.53125 159.28125Q80.78125 159.03125 80.78125 158.671875V158.046875Q80.78125 157.6875 80.53125 157.4375Q80.28125 157.1875 79.921875 157.1875H76.71875Q75.9375 157.1875 75.390625 157.734375Q74.84375 158.28125 74.84375 159.0625ZM83.90625 164.21875V159.0625Q83.90625 157.640625 84.9140625 156.6328125Q85.921875 155.625 87.34375 155.625H89.84375Q90.171875 155.625 90.3984375 155.8515625Q90.625 156.078125 90.625 156.40625Q90.625 156.734375 90.3984375 156.9609375Q90.171875 157.1875 89.84375 157.1875H87.34375Q86.5625 157.1875 86.015625 157.734375Q85.46875 158.28125 85.46875 159.0625V159.53125H89.53125Q89.859375 159.53125 90.0859375 159.7578125Q90.3125 159.984375 90.3125 160.3125Q90.3125 160.640625 90.0859375 160.8671875Q89.859375 161.09375 89.53125 161.09375H85.46875V164.21875Q85.46875 164.546875 85.2421875 164.7734375Q85.015625 165.0 84.6875 165.0Q84.359375 165.0 84.1328125 164.7734375Q83.90625 164.546875 83.90625 164.21875ZM92.1875 161.5625V159.0625Q92.1875 157.640625 93.1953125 156.6328125Q94.203125 155.625 95.625 155.625H100.46875Q100.796875 155.625 101.0234375 155.8515625Q101.25 156.078125 101.25 156.40625Q101.25 156.734375 101.0234375 156.9609375Q100.796875 157.1875 100.46875 157.1875H95.625Q94.84375 157.1875 94.296875 157.734375Q93.75 158.28125 93.75 159.0625V161.5625Q93.75 162.34375 94.296875 162.890625Q94.84375 163.4375 95.625 163.4375H98.828125Q99.1875 163.4375 99.4375 163.1875Q99.6875 162.9375 99.6875 162.578125V161.953125Q99.6875 161.59375 99.4375 161.34375Q99.1875 161.09375 98.828125 161.09375H96.328125Q96.0 161.09375 95.7734375 160.8671875Q95.546875 160.640625 95.546875 160.3125Q95.546875 159.984375 95.7734375 159.7578125Q96.0 159.53125 96.328125 159.53125H98.828125Q99.84375 159.53125 100.546875 160.234375Q101.25 160.9375 101.25 161.953125V162.578125Q101.25 163.59375 100.546875 164.296875Q99.84375 165.0 98.828125 165.0H95.625Q94.203125 165.0 93.1953125 163.9921875Q92.1875 162.984375 92.1875 161.5625ZM102.8125 164.21875V156.40625Q102.8125 156.078125 103.0390625 155.8515625Q103.265625 155.625 103.59375 155.625Q103.921875 155.625 104.1484375 155.8515625Q104.375 156.078125 104.375 156.40625V159.21875H107.5Q108.921875 159.21875 109.9296875 160.2265625Q110.9375 161.234375 110.9375 162.65625V164.21875Q110.9375 164.546875 110.7109375 164.7734375Q110.484375 165.0 110.15625 165.0Q109.828125 165.0 109.6015625 164.7734375Q109.375 164.546875 109.375 164.21875V162.65625Q109.375 161.875 108.828125 161.328125Q108.28125 160.78125 107.5 160.78125H104.375V164.21875Q104.375 164.546875 104.1484375 164.7734375Q103.921875 165.0 103.59375 165.0Q103.265625 165.0 103.0390625 164.7734375Q102.8125 164.546875 102.8125 164.21875ZM112.5 164.21875V156.40625Q112.5 156.078125 112.7265625 155.8515625Q112.953125 155.625 113.28125 155.625Q113.609375 155.625 113.8359375 155.8515625Q114.0625 156.078125 114.0625 156.40625V164.21875Q114.0625 164.546875 113.8359375 164.7734375Q113.609375 165.0 113.28125 165.0Q112.953125 165.0 112.7265625 164.7734375Q112.5 164.546875 112.5 164.21875ZM116.40625 163.4375H120.625Q121.40625 163.4375 121.953125 162.890625Q122.5 162.34375 122.5 161.5625V156.40625Q122.5 156.078125 122.7265625 155.8515625Q122.953125 155.625 123.28125 155.625Q123.609375 155.625 123.8359375 155.8515625Q124.0625 156.078125 124.0625 156.40625V161.5625Q124.0625 162.984375 123.0546875 163.9921875Q122.046875 165.0 120.625 165.0H116.40625Q116.078125 165.0 115.8515625 164.7734375Q115.625 164.546875 115.625 164.21875Q115.625 163.890625 115.8515625 163.6640625Q116.078125 163.4375 116.40625 163.4375ZM125.625 164.21875V156.40625Q125.625 156.078125 125.8515625 155.8515625Q126.078125 155.625 126.40625 155.625Q126.734375 155.625 126.9609375 155.8515625Q127.1875 156.078125 127.1875 156.40625V159.21875H129.375V159.0625Q129.375 157.640625 130.3828125 156.6328125Q131.390625 155.625 132.8125 155.625Q133.140625 155.625 133.3671875 155.8515625Q133.59375 156.078125 133.59375 156.40625Q133.59375 156.734375 133.3671875 156.9609375Q133.140625 157.1875 132.8125 157.1875Q132.03125 157.1875 131.484375 157.734375Q130.9375 158.28125 130.9375 159.0625V159.28125Q132.140625 159.5 132.9453125 160.453125Q133.75 161.40625 133.75 162.65625V164.21875Q133.75 164.546875 133.5234375 164.7734375Q133.296875 165.0 132.96875 165.0Q132.640625 165.0 132.4140625 164.7734375Q132.1875 164.546875 132.1875 164.21875V162.65625Q132.1875 161.875 131.640625 161.328125Q131.09375 160.78125 130.3125 160.78125H127.1875V164.21875Q127.1875 164.546875 126.9609375 164.7734375Q126.734375 165.0 126.40625 165.0Q126.078125 165.0 125.8515625 164.7734375Q125.625 164.546875 125.625 164.21875ZM135.3125 161.5625V156.40625Q135.3125 156.078125 135.5390625 155.8515625Q135.765625 155.625 136.09375 155.625Q136.421875 155.625 136.6484375 155.8515625Q136.875 156.078125 136.875 156.40625V161.5625Q136.875 162.34375 137.421875 162.890625Q137.96875 163.4375 138.75 163.4375H142.96875Q143.296875 163.4375 143.5234375 163.6640625Q143.75 163.890625 143.75 164.21875Q143.75 164.546875 143.5234375 164.7734375Q143.296875 165.0 142.96875 165.0H138.75Q137.328125 165.0 136.3203125 163.9921875Q135.3125 162.984375 135.3125 161.5625ZM145.3125 164.21875V158.046875Q145.3125 157.03125 146.015625 156.328125Q146.71875 155.625 147.734375 155.625H148.125Q149.078125 155.625 149.765625 156.265625Q150.453125 155.625 151.40625 155.625H151.796875Q152.8125 155.625 153.515625 156.328125Q154.21875 157.03125 154.21875 158.046875V164.21875Q154.21875 164.546875 153.9921875 164.7734375Q153.765625 165.0 153.4375 165.0Q153.109375 165.0 152.8828125 164.7734375Q152.65625 164.546875 152.65625 164.21875V158.046875Q152.65625 157.6875 152.40625 157.4375Q152.15625 157.1875 151.796875 157.1875H151.40625Q151.0625 157.1875 150.8046875 157.4375Q150.546875 157.6875 150.546875 158.046875V164.21875Q150.546875 164.546875 150.3203125 164.7734375Q150.09375 165.0 149.765625 165.0Q149.4375 165.0 149.2109375 164.7734375Q148.984375 164.546875 148.984375 164.21875V158.046875Q148.984375 157.6875 148.7265625 157.4375Q148.46875 157.1875 148.125 157.1875H147.734375Q147.375 157.1875 147.125 157.4375Q146.875 157.6875 146.875 158.046875V164.21875Q146.875 164.546875 146.6484375 164.7734375Q146.421875 165.0 146.09375 165.0Q145.765625 165.0 145.5390625 164.7734375Q145.3125 164.546875 145.3125 164.21875ZM155.78125 164.21875V159.0625Q155.78125 157.640625 156.7890625 156.6328125Q157.796875 155.625 159.21875 155.625H161.71875Q163.140625 155.625 164.1484375 156.6328125Q165.15625 157.640625 165.15625 159.0625V164.21875Q165.15625 164.546875 164.9296875 164.7734375Q164.703125 165.0 164.375 165.0Q164.046875 165.0 163.8203125 164.7734375Q163.59375 164.546875 163.59375 164.21875V159.0625Q163.59375 158.28125 163.046875 157.734375Q162.5 157.1875 161.71875 157.1875H159.21875Q158.4375 157.1875 157.890625 157.734375Q157.34375 158.28125 157.34375 159.0625V164.21875Q157.34375 164.546875 157.1171875 164.7734375Q156.890625 165.0 156.5625 165.0Q156.234375 165.0 156.0078125 164.7734375Q155.78125 164.546875 155.78125 164.21875ZM168.28125 161.5625Q168.28125 162.34375 168.828125 162.890625Q169.375 163.4375 170.15625 163.4375H172.65625Q173.4375 163.4375 173.984375 162.890625Q174.53125 162.34375 174.53125 161.5625V159.0625Q174.53125 158.28125 173.984375 157.734375Q173.4375 157.1875 172.65625 157.1875H170.15625Q169.375 157.1875 168.828125 157.734375Q168.28125 158.28125 168.28125 159.0625ZM166.71875 161.5625V159.0625Q166.71875 157.640625 167.7265625 156.6328125Q168.734375 155.625 170.15625 155.625H172.65625Q174.078125 155.625 175.0859375 156.6328125Q176.09375 157.640625 176.09375 159.0625V161.5625Q176.09375 162.984375 175.0859375 163.9921875Q174.078125 165.0 172.65625 165.0H170.15625Q168.734375 165.0 167.7265625 163.9921875Q166.71875 162.984375 166.71875 161.5625ZM177.65625 164.21875V159.0625Q177.65625 157.640625 178.6640625 156.6328125Q179.671875 155.625 181.09375 155.625H184.296875Q185.3125 155.625 186.015625 156.328125Q186.71875 157.03125 186.71875 158.046875V158.671875Q186.71875 159.6875 186.015625 160.390625Q185.3125 161.09375 184.296875 161.09375H179.21875V164.21875Q179.21875 164.546875 178.9921875 164.7734375Q178.765625 165.0 178.4375 165.0Q178.109375 165.0 177.8828125 164.7734375Q177.65625 164.546875 177.65625 164.21875ZM179.21875 159.53125H184.296875Q184.65625 159.53125 184.90625 159.28125Q185.15625 159.03125 185.15625 158.671875V158.046875Q185.15625 157.6875 184.90625 157.4375Q184.65625 157.1875 184.296875 157.1875H181.09375Q180.3125 157.1875 179.765625 157.734375Q179.21875 158.28125 179.21875 159.0625ZM188.28125 161.5625V159.0625Q188.28125 157.640625 189.2890625 156.6328125Q190.296875 155.625 191.71875 155.625H194.21875Q195.640625 155.625 196.6484375 156.6328125Q197.65625 157.640625 197.65625 159.0625V161.5625Q197.65625 162.484375 197.203125 163.265625Q197.25 163.265625 197.3515625 163.2734375Q197.453125 163.28125 197.5 163.28125Q197.828125 163.28125 198.0546875 163.5078125Q198.28125 163.734375 198.28125 164.0625Q198.28125 164.390625 198.0546875 164.6171875Q197.828125 164.84375 197.5 164.84375Q196.71875 164.84375 196.0 164.5Q195.171875 165.0 194.21875 165.0H191.71875Q190.296875 165.0 189.2890625 163.9921875Q188.28125 162.984375 188.28125 161.5625ZM189.84375 161.5625Q189.84375 162.34375 190.390625 162.890625Q190.9375 163.4375 191.71875 163.4375H194.21875Q194.484375 163.4375 194.6875 163.375Q194.0625 162.46875 194.0625 161.40625Q194.0625 161.078125 194.2890625 160.8515625Q194.515625 160.625 194.84375 160.625Q195.171875 160.625 195.3984375 160.8515625Q195.625 161.078125 195.625 161.40625Q195.625 161.90625 195.90625 162.390625Q196.09375 162.015625 196.09375 161.5625V159.0625Q196.09375 158.28125 195.546875 157.734375Q195.0 157.1875 194.21875 157.1875H191.71875Q190.9375 157.1875 190.390625 157.734375Q189.84375 158.28125 189.84375 159.0625ZM199.84375 164.21875V159.0625Q199.84375 157.640625 200.8515625 156.6328125Q201.859375 155.625 203.28125 155.625H206.71875Q207.046875 155.625 207.2734375 155.8515625Q207.5 156.078125 207.5 156.40625Q207.5 156.734375 207.2734375 156.9609375Q207.046875 157.1875 206.71875 157.1875H203.28125Q202.5 157.1875 201.953125 157.734375Q201.40625 158.28125 201.40625 159.0625V164.21875Q201.40625 164.546875 201.1796875 164.7734375Q200.953125 165.0 200.625 165.0Q200.296875 165.0 200.0703125 164.7734375Q199.84375 164.546875 199.84375 164.21875ZM210.0 163.4375H215.546875Q215.90625 163.4375 216.15625 163.1875Q216.40625 162.9375 216.40625 162.578125V161.953125Q216.40625 161.59375 216.15625 161.34375Q215.90625 161.09375 215.546875 161.09375H211.484375Q210.46875 161.09375 209.765625 160.390625Q209.0625 159.6875 209.0625 158.671875V158.046875Q209.0625 157.03125 209.765625 156.328125Q210.46875 155.625 211.484375 155.625H217.03125Q217.359375 155.625 217.5859375 155.8515625Q217.8125 156.078125 217.8125 156.40625Q217.8125 156.734375 217.5859375 156.9609375Q217.359375 157.1875 217.03125 157.1875H211.484375Q211.125 157.1875 210.875 157.4375Q210.625 157.6875 210.625 158.046875V158.671875Q210.625 159.03125 210.875 159.28125Q211.125 159.53125 211.484375 159.53125H215.546875Q216.5625 159.53125 217.265625 160.234375Q217.96875 160.9375 217.96875 161.953125V162.578125Q217.96875 163.59375 217.265625 164.296875Q216.5625 165.0 215.546875 165.0H210.0Q209.671875 165.0 209.4453125 164.7734375Q209.21875 164.546875 209.21875 164.21875Q209.21875 163.890625 209.4453125 163.6640625Q209.671875 163.4375 210.0 163.4375ZM219.53125 161.5625V156.40625Q219.53125 156.078125 219.7578125 155.8515625Q219.984375 155.625 220.3125 155.625Q220.640625 155.625 220.8671875 155.8515625Q221.09375 156.078125 221.09375 156.40625V159.53125H227.1875Q227.515625 159.53125 227.7421875 159.7578125Q227.96875 159.984375 227.96875 160.3125Q227.96875 160.640625 227.7421875 160.8671875Q227.515625 161.09375 227.1875 161.09375H221.09375V161.5625Q221.09375 162.34375 221.640625 162.890625Q222.1875 163.4375 222.96875 163.4375H227.1875Q227.515625 163.4375 227.7421875 163.6640625Q227.96875 163.890625 227.96875 164.21875Q227.96875 164.546875 227.7421875 164.7734375Q227.515625 165.0 227.1875 165.0H222.96875Q221.546875 165.0 220.5390625 163.9921875Q219.53125 162.984375 219.53125 161.5625ZM231.09375 161.5625Q231.09375 162.34375 231.640625 162.890625Q232.1875 163.4375 232.96875 163.4375H235.46875Q236.25 163.4375 236.796875 162.890625Q237.34375 162.34375 237.34375 161.5625V157.1875H231.09375ZM229.53125 161.5625V156.40625Q229.53125 156.078125 229.7578125 155.8515625Q229.984375 155.625 230.3125 155.625H238.125Q238.453125 155.625 238.6796875 155.8515625Q238.90625 156.078125 238.90625 156.40625V161.5625Q238.90625 162.984375 237.8984375 163.9921875Q236.890625 165.0 235.46875 165.0H232.96875Q231.546875 165.0 230.5390625 163.9921875Q229.53125 162.984375 229.53125 161.5625ZM240.46875 161.5625V156.40625Q240.46875 156.078125 240.6953125 155.8515625Q240.921875 155.625 241.25 155.625Q241.578125 155.625 241.8046875 155.8515625Q242.03125 156.078125 242.03125 156.40625V161.5625Q242.03125 162.34375 242.578125 162.890625Q243.125 163.4375 243.90625 163.4375H246.40625Q247.1875 163.4375 247.734375 162.890625Q248.28125 162.34375 248.28125 161.5625V156.40625Q248.28125 156.078125 248.5078125 155.8515625Q248.734375 155.625 249.0625 155.625Q249.390625 155.625 249.6171875 155.8515625Q249.84375 156.078125 249.84375 156.40625V161.5625Q249.84375 162.984375 248.8359375 163.9921875Q247.828125 165.0 246.40625 165.0H243.90625Q242.484375 165.0 241.4765625 163.9921875Q240.46875 162.984375 240.46875 161.5625ZM251.40625 162.578125V156.40625Q251.40625 156.078125 251.6328125 155.8515625Q251.859375 155.625 252.1875 155.625Q252.515625 155.625 252.7421875 155.8515625Q252.96875 156.078125 252.96875 156.40625V162.578125Q252.96875 162.9375 253.21875 163.1875Q253.46875 163.4375 253.828125 163.4375H254.21875Q254.5625 163.4375 254.8203125 163.1875Q255.078125 162.9375 255.078125 162.578125V156.40625Q255.078125 156.078125 255.3046875 155.8515625Q255.53125 155.625 255.859375 155.625Q256.1875 155.625 256.4140625 155.8515625Q256.640625 156.078125 256.640625 156.40625V162.578125Q256.640625 162.9375 256.8984375 163.1875Q257.15625 163.4375 257.5 163.4375H257.890625Q258.25 163.4375 258.5 163.1875Q258.75 162.9375 258.75 162.578125V156.40625Q258.75 156.078125 258.9765625 155.8515625Q259.203125 155.625 259.53125 155.625Q259.859375 155.625 260.0859375 155.8515625Q260.3125 156.078125 260.3125 156.40625V162.578125Q260.3125 163.59375 259.609375 164.296875Q258.90625 165.0 257.890625 165.0H257.5Q256.546875 165.0 255.859375 164.359375Q255.171875 165.0 254.21875 165.0H253.828125Q252.8125 165.0 252.109375 164.296875Q251.40625 163.59375 251.40625 162.578125ZM262.65625 163.4375H264.6875Q265.46875 163.4375 266.015625 162.890625Q266.5625 162.34375 266.5625 161.5625V159.0625Q266.5625 158.28125 266.015625 157.734375Q265.46875 157.1875 264.6875 157.1875H262.65625Q262.328125 157.1875 262.1015625 156.9609375Q261.875 156.734375 261.875 156.40625Q261.875 156.078125 262.1015625 155.8515625Q262.328125 155.625 262.65625 155.625H264.6875Q266.3125 155.625 267.34375 156.890625Q268.375 155.625 270.0 155.625H272.03125Q272.359375 155.625 272.5859375 155.8515625Q272.8125 156.078125 272.8125 156.40625Q272.8125 156.734375 272.5859375 156.9609375Q272.359375 157.1875 272.03125 157.1875H270.0Q269.21875 157.1875 268.671875 157.734375Q268.125 158.28125 268.125 159.0625V161.5625Q268.125 162.34375 268.671875 162.890625Q269.21875 163.4375 270.0 163.4375H272.03125Q272.359375 163.4375 272.5859375 163.6640625Q272.8125 163.890625 272.8125 164.21875Q272.8125 164.546875 272.5859375 164.7734375Q272.359375 165.0 272.03125 165.0H270.0Q268.375 165.0 267.34375 163.734375Q266.3125 165.0 264.6875 165.0H262.65625Q262.328125 165.0 262.1015625 164.7734375Q261.875 164.546875 261.875 164.21875Q261.875 163.890625 262.1015625 163.6640625Q262.328125 163.4375 262.65625 163.4375ZM274.375 158.359375V156.40625Q274.375 156.078125 274.6015625 155.8515625Q274.828125 155.625 275.15625 155.625Q275.484375 155.625 275.7109375 155.8515625Q275.9375 156.078125 275.9375 156.40625V158.359375Q275.9375 159.125 276.484375 159.6796875Q277.03125 160.234375 277.8125 160.234375H280.3125Q281.09375 160.234375 281.640625 159.6796875Q282.1875 159.125 282.1875 158.359375V156.40625Q282.1875 156.078125 282.4140625 155.8515625Q282.640625 155.625 282.96875 155.625Q283.296875 155.625 283.5234375 155.8515625Q283.75 156.078125 283.75 156.40625V158.359375Q283.75 159.78125 282.7421875 160.7890625Q281.734375 161.796875 280.3125 161.796875H279.84375V164.21875Q279.84375 164.546875 279.6171875 164.7734375Q279.390625 165.0 279.0625 165.0Q278.734375 165.0 278.5078125 164.7734375Q278.28125 164.546875 278.28125 164.21875V161.796875H277.8125Q276.390625 161.796875 275.3828125 160.7890625Q274.375 159.78125 274.375 158.359375ZM286.09375 155.625H288.125Q289.546875 155.625 290.5546875 156.6328125Q291.5625 157.640625 291.5625 159.0625V161.5625Q291.5625 162.34375 292.109375 162.890625Q292.65625 163.4375 293.4375 163.4375H295.46875Q295.796875 163.4375 296.0234375 163.6640625Q296.25 163.890625 296.25 164.21875Q296.25 164.546875 296.0234375 164.7734375Q295.796875 165.0 295.46875 165.0H293.4375Q292.015625 165.0 291.0078125 163.9921875Q290.0 162.984375 290.0 161.5625V159.0625Q290.0 158.28125 289.453125 157.734375Q288.90625 157.1875 288.125 157.1875H286.09375Q285.765625 157.1875 285.5390625 156.9609375Q285.3125 156.734375 285.3125 156.40625Q285.3125 156.078125 285.5390625 155.8515625Q285.765625 155.625 286.09375 155.625Z" fill="#6b7280"/><path d="M31.5625 192.4375H37.8125V188.0625Q37.8125 187.28125 37.265625 186.734375Q36.71875 186.1875 35.9375 186.1875H33.4375Q32.65625 186.1875 32.109375 186.734375Q31.5625 187.28125 31.5625 188.0625ZM30.0 193.21875V188.0625Q30.0 186.640625 31.0078125 185.6328125Q32.015625 184.625 33.4375 184.625H35.9375Q37.359375 184.625 38.3671875 185.6328125Q39.375 186.640625 39.375 188.0625V193.21875Q39.375 193.546875 39.1484375 193.7734375Q38.921875 194.0 38.59375 194.0H30.78125Q30.453125 194.0 30.2265625 193.7734375Q30.0 193.546875 30.0 193.21875ZM40.9375 193.21875V188.0625Q40.9375 186.640625 41.9453125 185.6328125Q42.953125 184.625 44.375 184.625H47.421875Q48.4375 184.625 49.140625 185.328125Q49.84375 186.03125 49.84375 187.046875V187.671875Q49.84375 188.625 49.203125 189.3125Q49.84375 190.0 49.84375 190.953125V191.578125Q49.84375 192.59375 49.140625 193.296875Q48.4375 194.0 47.421875 194.0H41.71875Q41.390625 194.0 41.1640625 193.7734375Q40.9375 193.546875 40.9375 193.21875ZM42.5 188.53125H47.421875Q47.78125 188.53125 48.03125 188.28125Q48.28125 188.03125 48.28125 187.671875V187.046875Q48.28125 186.6875 48.03125 186.4375Q47.78125 186.1875 47.421875 186.1875H44.375Q43.59375 186.1875 43.046875 186.734375Q42.5 187.28125 42.5 188.0625ZM42.5 192.4375H47.421875Q47.78125 192.4375 48.03125 192.1875Q48.28125 191.9375 48.28125 191.578125V190.953125Q48.28125 190.59375 48.03125 190.34375Q47.78125 190.09375 47.421875 190.09375H42.5ZM51.40625 190.5625V188.0625Q51.40625 186.640625 52.4140625 185.6328125Q53.421875 184.625 54.84375 184.625H60.0Q60.328125 184.625 60.5546875 184.8515625Q60.78125 185.078125 60.78125 185.40625Q60.78125 185.734375 60.5546875 185.9609375Q60.328125 186.1875 60.0 186.1875H54.84375Q54.0625 186.1875 53.515625 186.734375Q52.96875 187.28125 52.96875 188.0625V190.5625Q52.96875 191.34375 53.515625 191.890625Q54.0625 192.4375 54.84375 192.4375H60.0Q60.328125 192.4375 60.5546875 192.6640625Q60.78125 192.890625 60.78125 193.21875Q60.78125 193.546875 60.5546875 193.7734375Q60.328125 194.0 60.0 194.0H54.84375Q53.421875 194.0 52.4140625 192.9921875Q51.40625 191.984375 51.40625 190.5625ZM63.90625 192.4375H68.28125Q69.0625 192.4375 69.609375 191.890625Q70.15625 191.34375 70.15625 190.5625V188.0625Q70.15625 187.28125 69.609375 186.734375Q69.0625 186.1875 68.28125 186.1875H63.90625ZM62.34375 193.21875V185.40625Q62.34375 185.078125 62.5703125 184.8515625Q62.796875 184.625 63.125 184.625H68.28125Q69.703125 184.625 70.7109375 185.6328125Q71.71875 186.640625 71.71875 188.0625V190.5625Q71.71875 191.984375 70.7109375 192.9921875Q69.703125 194.0 68.28125 194.0H63.125Q62.796875 194.0 62.5703125 193.7734375Q62.34375 193.546875 62.34375 193.21875ZM73.28125 190.5625V188.0625Q73.28125 186.640625 74.2890625 185.6328125Q75.296875 184.625 76.71875 184.625H79.921875Q80.9375 184.625 81.640625 185.328125Q82.34375 186.03125 82.34375 187.046875V187.671875Q82.34375 188.6875 81.640625 189.390625Q80.9375 190.09375 79.921875 190.09375H74.84375V190.5625Q74.84375 191.34375 75.390625 191.890625Q75.9375 192.4375 76.71875 192.4375H81.5625Q81.890625 192.4375 82.1171875 192.6640625Q82.34375 192.890625 82.34375 193.21875Q82.34375 193.546875 82.1171875 193.7734375Q81.890625 194.0 81.5625 194.0H76.71875Q75.296875 194.0 74.2890625 192.9921875Q73.28125 191.984375 73.28125 190.5625ZM74.84375 188.53125H79.921875Q80.28125 188.53125 80.53125 188.28125Q80.78125 188.03125 80.78125 187.671875V187.046875Q80.78125 186.6875 80.53125 186.4375Q80.28125 186.1875 79.921875 186.1875H76.71875Q75.9375 186.1875 75.390625 186.734375Q74.84375 187.28125 74.84375 188.0625ZM83.90625 193.21875V188.0625Q83.90625 186.640625 84.9140625 185.6328125Q85.921875 184.625 87.34375 184.625H89.84375Q90.171875 184.625 90.3984375 184.8515625Q90.625 185.078125 90.625 185.40625Q90.625 185.734375 90.3984375 185.9609375Q90.171875 186.1875 89.84375 186.1875H87.34375Q86.5625 186.1875 86.015625 186.734375Q85.46875 187.28125 85.46875 188.0625V188.53125H89.53125Q89.859375 188.53125 90.0859375 188.7578125Q90.3125 188.984375 90.3125 189.3125Q90.3125 189.640625 90.0859375 189.8671875Q89.859375 190.09375 89.53125 190.09375H85.46875V193.21875Q85.46875 193.546875 85.2421875 193.7734375Q85.015625 194.0 84.6875 194.0Q84.359375 194.0 84.1328125 193.7734375Q83.90625 193.546875 83.90625 193.21875ZM92.1875 190.5625V188.0625Q92.1875 186.640625 93.1953125 185.6328125Q94.203125 184.625 95.625 184.625H100.46875Q100.796875 184.625 101.0234375 184.8515625Q101.25 185.078125 101.25 185.40625Q101.25 185.734375 101.0234375 185.9609375Q100.796875 186.1875 100.46875 186.1875H95.625Q94.84375 186.1875 94.296875 186.734375Q93.75 187.28125 93.75 188.0625V190.5625Q93.75 191.34375 94.296875 191.890625Q94.84375 192.4375 95.625 192.4375H98.828125Q99.1875 192.4375 99.4375 192.1875Q99.6875 191.9375 99.6875 191.578125V190.953125Q99.6875 190.59375 99.4375 190.34375Q99.1875 190.09375 98.828125 190.09375H96.328125Q96.0 190.09375 95.7734375 189.8671875Q95.546875 189.640625 95.546875 189.3125Q95.546875 188.984375 95.7734375 188.7578125Q96.0 188.53125 96.328125 188.53125H98.828125Q99.84375 188.53125 100.546875 189.234375Q101.25 189.9375 101.25 190.953125V191.578125Q101.25 192.59375 100.546875 193.296875Q99.84375 194.0 98.828125 194.0H95.625Q94.203125 194.0 93.1953125 192.9921875Q92.1875 191.984375 92.1875 190.5625ZM102.8125 193.21875V185.40625Q102.8125 185.078125 103.0390625 184.8515625Q103.265625 184.625 103.59375 184.625Q103.921875 184.625 104.1484375 184.8515625Q104.375 185.078125 104.375 185.40625V188.21875H107.5Q108.921875 188.21875 109.9296875 189.2265625Q110.9375 190.234375 110.9375 191.65625V193.21875Q110.9375 193.546875 110.7109375 193.7734375Q110.484375 194.0 110.15625 194.0Q109.828125 194.0 109.6015625 193.7734375Q109.375 193.546875 109.375 193.21875V191.65625Q109.375 190.875 108.828125 190.328125Q108.28125 189.78125 107.5 189.78125H104.375V193.21875Q104.375 193.546875 104.1484375 193.7734375Q103.921875 194.0 103.59375 194.0Q103.265625 194.0 103.0390625 193.7734375Q102.8125 193.546875 102.8125 193.21875ZM112.5 193.21875V185.40625Q112.5 185.078125 112.7265625 184.8515625Q112.953125 184.625 113.28125 184.625Q113.609375 184.625 113.8359375 184.8515625Q114.0625 185.078125 114.0625 185.40625V193.21875Q114.0625 193.546875 113.8359375 193.7734375Q113.609375 194.0 113.28125 194.0Q112.953125 194.0 112.7265625 193.7734375Q112.5 193.546875 112.5 193.21875ZM116.40625 192.4375H120.625Q121.40625 192.4375 121.953125 191.890625Q122.5 191.34375 122.5 190.5625V185.40625Q122.5 185.078125 122.7265625 184.8515625Q122.953125 184.625 123.28125 184.625Q123.609375 184.625 123.8359375 184.8515625Q124.0625 185.078125 124.0625 185.40625V190.5625Q124.0625 191.984375 123.0546875 192.9921875Q122.046875 194.0 120.625 194.0H116.40625Q116.078125 194.0 115.8515625 193.7734375Q115.625 193.546875 115.625 193.21875Q115.625 192.890625 115.8515625 192.6640625Q116.078125 192.4375 116.40625 192.4375ZM125.625 193.21875V185.40625Q125.625 185.078125 125.8515625 184.8515625Q126.078125 184.625 126.40625 184.625Q126.734375 184.625 126.9609375 184.8515625Q127.1875 185.078125 127.1875 185.40625V188.21875H129.375V188.0625Q129.375 186.640625 130.3828125 185.6328125Q131.390625 184.625 132.8125 184.625Q133.140625 184.625 133.3671875 184.8515625Q133.59375 185.078125 133.59375 185.40625Q133.59375 185.734375 133.3671875 185.9609375Q133.140625 186.1875 132.8125 186.1875Q132.03125 186.1875 131.484375 186.734375Q130.9375 187.28125 130.9375 188.0625V188.28125Q132.140625 188.5 132.9453125 189.453125Q133.75 190.40625 133.75 191.65625V193.21875Q133.75 193.546875 133.5234375 193.7734375Q133.296875 194.0 132.96875 194.0Q132.640625 194.0 132.4140625 193.7734375Q132.1875 193.546875 132.1875 193.21875V191.65625Q132.1875 190.875 131.640625 190.328125Q131.09375 189.78125 130.3125 189.78125H127.1875V193.21875Q127.1875 193.546875 126.9609375 193.7734375Q126.734375 194.0 126.40625 194.0Q126.078125 194.0 125.8515625 193.7734375Q125.625 193.546875 125.625 193.21875ZM135.3125 190.5625V185.40625Q135.3125 185.078125 135.5390625 184.8515625Q135.765625 184.625 136.09375 184.625Q136.421875 184.625 136.6484375 184.8515625Q136.875 185.078125 136.875 185.40625V190.5625Q136.875 191.34375 137.421875 191.890625Q137.96875 192.4375 138.75 192.4375H142.96875Q143.296875 192.4375 143.5234375 192.6640625Q143.75 192.890625 143.75 193.21875Q143.75 193.546875 143.5234375 193.7734375Q143.296875 194.0 142.96875 194.0H138.75Q137.328125 194.0 136.3203125 192.9921875Q135.3125 191.984375 135.3125 190.5625ZM145.3125 193.21875V187.046875Q145.3125 186.03125 146.015625 185.328125Q146.71875 184.625 147.734375 184.625H148.125Q149.078125 184.625 149.765625 185.265625Q150.453125 184.625 151.40625 184.625H151.796875Q152.8125 184.625 153.515625 185.328125Q154.21875 186.03125 154.21875 187.046875V193.21875Q154.21875 193.546875 153.9921875 193.7734375Q153.765625 194.0 153.4375 194.0Q153.109375 194.0 152.8828125 193.7734375Q152.65625 193.546875 152.65625 193.21875V187.046875Q152.65625 186.6875 152.40625 186.4375Q152.15625 186.1875 151.796875 186.1875H151.40625Q151.0625 186.1875 150.8046875 186.4375Q150.546875 186.6875 150.546875 187.046875V193.21875Q150.546875 193.546875 150.3203125 193.7734375Q150.09375 194.0 149.765625 194.0Q149.4375 194.0 149.2109375 193.7734375Q148.984375 193.546875 148.984375 193.21875V187.046875Q148.984375 186.6875 148.7265625 186.4375Q148.46875 186.1875 148.125 186.1875H147.734375Q147.375 186.1875 147.125 186.4375Q146.875 186.6875 146.875 187.046875V193.21875Q146.875 193.546875 146.6484375 193.7734375Q146.421875 194.0 146.09375 194.0Q145.765625 194.0 145.5390625 193.7734375Q145.3125 193.546875 145.3125 193.21875ZM155.78125 193.21875V188.0625Q155.78125 186.640625 156.7890625 185.6328125Q157.796875 184.625 159.21875 184.625H161.71875Q163.140625 184.625 164.1484375 185.6328125Q165.15625 186.640625 165.15625 188.0625V193.21875Q165.15625 193.546875 164.9296875 193.7734375Q164.703125 194.0 164.375 194.0Q164.046875 194.0 163.8203125 193.7734375Q163.59375 193.546875 163.59375 193.21875V188.0625Q163.59375 187.28125 163.046875 186.734375Q162.5 186.1875 161.71875 186.1875H159.21875Q158.4375 186.1875 157.890625 186.734375Q157.34375 187.28125 157.34375 188.0625V193.21875Q157.34375 193.546875 157.1171875 193.7734375Q156.890625 194.0 156.5625 194.0Q156.234375 194.0 156.0078125 193.7734375Q155.78125 193.546875 155.78125 193.21875ZM168.28125 190.5625Q168.28125 191.34375 168.828125 191.890625Q169.375 192.4375 170.15625 192.4375H172.65625Q173.4375 192.4375 173.984375 191.890625Q174.53125 191.34375 174.53125 190.5625V188.0625Q174.53125 187.28125 173.984375 186.734375Q173.4375 186.1875 172.65625 186.1875H170.15625Q169.375 186.1875 168.828125 186.734375Q168.28125 187.28125 168.28125 188.0625ZM166.71875 190.5625V188.0625Q166.71875 186.640625 167.7265625 185.6328125Q168.734375 184.625 170.15625 184.625H172.65625Q174.078125 184.625 175.0859375 185.6328125Q176.09375 186.640625 176.09375 188.0625V190.5625Q176.09375 191.984375 175.0859375 192.9921875Q174.078125 194.0 172.65625 194.0H170.15625Q168.734375 194.0 167.7265625 192.9921875Q166.71875 191.984375 166.71875 190.5625ZM177.65625 193.21875V188.0625Q177.65625 186.640625 178.6640625 185.6328125Q179.671875 184.625 181.09375 184.625H184.296875Q185.3125 184.625 186.015625 185.328125Q186.71875 186.03125 186.71875 187.046875V187.671875Q186.71875 188.6875 186.015625 189.390625Q185.3125 190.09375 184.296875 190.09375H179.21875V193.21875Q179.21875 193.546875 178.9921875 193.7734375Q178.765625 194.0 178.4375 194.0Q178.109375 194.0 177.8828125 193.7734375Q177.65625 193.546875 177.65625 193.21875ZM179.21875 188.53125H184.296875Q184.65625 188.53125 184.90625 188.28125Q185.15625 188.03125 185.15625 187.671875V187.046875Q185.15625 186.6875 184.90625 186.4375Q184.65625 186.1875 184.296875 186.1875H181.09375Q180.3125 186.1875 179.765625 186.734375Q179.21875 187.28125 179.21875 188.0625ZM188.28125 190.5625V188.0625Q188.28125 186.640625 189.2890625 185.6328125Q190.296875 184.625 191.71875 184.625H194.21875Q195.640625 184.625 196.6484375 185.6328125Q197.65625 186.640625 197.65625 188.0625V190.5625Q197.65625 191.484375 197.203125 192.265625Q197.25 192.265625 197.3515625 192.2734375Q197.453125 192.28125 197.5 192.28125Q197.828125 192.28125 198.0546875 192.5078125Q198.28125 192.734375 198.28125 193.0625Q198.28125 193.390625 198.0546875 193.6171875Q197.828125 193.84375 197.5 193.84375Q196.71875 193.84375 196.0 193.5Q195.171875 194.0 194.21875 194.0H191.71875Q190.296875 194.0 189.2890625 192.9921875Q188.28125 191.984375 188.28125 190.5625ZM189.84375 190.5625Q189.84375 191.34375 190.390625 191.890625Q190.9375 192.4375 191.71875 192.4375H194.21875Q194.484375 192.4375 194.6875 192.375Q194.0625 191.46875 194.0625 190.40625Q194.0625 190.078125 194.2890625 189.8515625Q194.515625 189.625 194.84375 189.625Q195.171875 189.625 195.3984375 189.8515625Q195.625 190.078125 195.625 190.40625Q195.625 190.90625 195.90625 191.390625Q196.09375 191.015625 196.09375 190.5625V188.0625Q196.09375 187.28125 195.546875 186.734375Q195.0 186.1875 194.21875 186.1875H191.71875Q190.9375 186.1875 190.390625 186.734375Q189.84375 187.28125 189.84375 188.0625ZM199.84375 193.21875V188.0625Q199.84375 186.640625 200.8515625 185.6328125Q201.859375 184.625 203.28125 184.625H206.71875Q207.046875 184.625 207.2734375 184.8515625Q207.5 185.078125 207.5 185.40625Q207.5 185.734375 207.2734375 185.9609375Q207.046875 186.1875 206.71875 186.1875H203.28125Q202.5 186.1875 201.953125 186.734375Q201.40625 187.28125 201.40625 188.0625V193.21875Q201.40625 193.546875 201.1796875 193.7734375Q200.953125 194.0 200.625 194.0Q200.296875 194.0 200.0703125 193.7734375Q199.84375 193.546875 199.84375 193.21875ZM210.0 192.4375H215.546875Q215.90625 192.4375 216.15625 192.1875Q216.40625 191.9375 216.40625 191.578125V190.953125Q216.40625 190.59375 216.15625 190.34375Q215.90625 190.09375 215.546875 190.09375H211.484375Q210.46875 190.09375 209.765625 189.390625Q209.0625 188.6875 209.0625 187.671875V187.046875Q209.0625 186.03125 209.765625 185.328125Q210.46875 184.625 211.484375 184.625H217.03125Q217.359375 184.625 217.5859375 184.8515625Q217.8125 185.078125 217.8125 185.40625Q217.8125 185.734375 217.5859375 185.9609375Q217.359375 186.1875 217.03125 186.1875H211.484375Q211.125 186.1875 210.875 186.4375Q210.625 186.6875 210.625 187.046875V187.671875Q210.625 188.03125 210.875 188.28125Q211.125 188.53125 211.484375 188.53125H215.546875Q216.5625 188.53125 217.265625 189.234375Q217.96875 189.9375 217.96875 190.953125V191.578125Q217.96875 192.59375 217.265625 193.296875Q216.5625 194.0 215.546875 194.0H210.0Q209.671875 194.0 209.4453125 193.7734375Q209.21875 193.546875 209.21875 193.21875Q209.21875 192.890625 209.4453125 192.6640625Q209.671875 192.4375 210.0 192.4375ZM219.53125 190.5625V185.40625Q219.53125 185.078125 219.7578125 184.8515625Q219.984375 184.625 220.3125 184.625Q220.640625 184.625 220.8671875 184.8515625Q221.09375 185.078125 221.09375 185.40625V188.53125H227.1875Q227.515625 188.53125 227.7421875 188.7578125Q227.96875 188.984375 227.96875 189.3125Q227.96875 189.640625 227.7421875 189.8671875Q227.515625 190.09375 227.1875 190.09375H221.09375V190.5625Q221.09375 191.34375 221.640625 191.890625Q222.1875 192.4375 222.96875 192.4375H227.1875Q227.515625 192.4375 227.7421875 192.6640625Q227.96875 192.890625 227.96875 193.21875Q227.96875 193.546875 227.7421875 193.7734375Q227.515625 194.0 227.1875 194.0H222.96875Q221.546875 194.0 220.5390625 192.9921875Q219.53125 191.984375 219.53125 190.5625ZM231.09375 190.5625Q231.09375 191.34375 231.640625 191.890625Q232.1875 192.4375 232.96875 192.4375H235.46875Q236.25 192.4375 236.796875 191.890625Q237.34375 191.34375 237.34375 190.5625V186.1875H231.09375ZM229.53125 190.5625V185.40625Q229.53125 185.078125 229.7578125 184.8515625Q229.984375 184.625 230.3125 184.625H238.125Q238.453125 184.625 238.6796875 184.8515625Q238.90625 185.078125 238.90625 185.40625V190.5625Q238.90625 191.984375 237.8984375 192.9921875Q236.890625 194.0 235.46875 194.0H232.96875Q231.546875 194.0 230.5390625 192.9921875Q229.53125 191.984375 229.53125 190.5625ZM240.46875 190.5625V185.40625Q240.46875 185.078125 240.6953125 184.8515625Q240.921875 184.625 241.25 184.625Q241.578125 184.625 241.8046875 184.8515625Q242.03125 185.078125 242.03125 185.40625V190.5625Q242.03125 191.34375 242.578125 191.890625Q243.125 192.4375 243.90625 192.4375H246.40625Q247.1875 192.4375 247.734375 191.890625Q248.28125 191.34375 248.28125 190.5625V185.40625Q248.28125 185.078125 248.5078125 184.8515625Q248.734375 184.625 249.0625 184.625Q249.390625 184.625 249.6171875 184.8515625Q249.84375 185.078125 249.84375 185.40625V190.5625Q249.84375 191.984375 248.8359375 192.9921875Q247.828125 194.0 246.40625 194.0H243.90625Q242.484375 194.0 241.4765625 192.9921875Q240.46875 191.984375 240.46875 190.5625ZM251.40625 191.578125V185.40625Q251.40625 185.078125 251.6328125 184.8515625Q251.859375 184.625 252.1875 184.625Q252.515625 184.625 252.7421875 184.8515625Q252.96875 185.078125 252.96875 185.40625V191.578125Q252.96875 191.9375 253.21875 192.1875Q253.46875 192.4375 253.828125 192.4375H254.21875Q254.5625 192.4375 254.8203125 192.1875Q255.078125 191.9375 255.078125 191.578125V185.40625Q255.078125 185.078125 255.3046875 184.8515625Q255.53125 184.625 255.859375 184.625Q256.1875 184.625 256.4140625 184.8515625Q256.640625 185.078125 256.640625 185.40625V191.578125Q256.640625 191.9375 256.8984375 192.1875Q257.15625 192.4375 257.5 192.4375H257.890625Q258.25 192.4375 258.5 192.1875Q258.75 191.9375 258.75 191.578125V185.40625Q258.75 185.078125 258.9765625 184.8515625Q259.203125 184.625 259.53125 184.625Q259.859375 184.625 260.0859375 184.8515625Q260.3125 185.078125 260.3125 185.40625V191.578125Q260.3125 192.59375 259.609375 193.296875Q258.90625 194.0 257.890625 194.0H257.5Q256.546875 194.0 255.859375 193.359375Q255.171875 194.0 254.21875 194.0H253.828125Q252.8125 194.0 252.109375 193.296875Q251.40625 192.59375 251.40625 191.578125ZM262.65625 192.4375H264.6875Q265.46875 192.4375 266.015625 191.890625Q266.5625 191.34375 266.5625 190.5625V188.0625Q266.5625 187.28125 266.015625 186.734375Q265.46875 186.1875 264.6875 186.1875H262.65625Q262.328125 186.1875 262.1015625 185.9609375Q261.875 185.734375 261.875 185.40625Q261.875 185.078125 262.1015625 184.8515625Q262.328125 184.625 262.65625 184.625H264.6875Q266.3125 184.625 267.34375 185.890625Q268.375 184.625 270.0 184.625H272.03125Q272.359375 184.625 272.5859375 184.8515625Q272.8125 185.078125 272.8125 185.40625Q272.8125 185.734375 272.5859375 185.9609375Q272.359375 186.1875 272.03125 186.1875H270.0Q269.21875 186.1875 268.671875 186.734375Q268.125 187.28125 268.125 188.0625V190.5625Q268.125 191.34375 268.671875 191.890625Q269.21875 192.4375 270.0 192.4375H272.03125Q272.359375 192.4375 272.5859375 192.6640625Q272.8125 192.890625 272.8125 193.21875Q272.8125 193.546875 272.5859375 193.7734375Q272.359375 194.0 272.03125 194.0H270.0Q268.375 194.0 267.34375 192.734375Q266.3125 194.0 264.6875 194.0H262.65625Q262.328125 194.0 262.1015625 193.7734375Q261.875 193.546875 261.875 193.21875Q261.875 192.890625 262.1015625 192.6640625Q262.328125 192.4375 262.65625 192.4375ZM274.375 187.359375V185.40625Q274.375 185.078125 274.6015625 184.8515625Q274.828125 184.625 275.15625 184.625Q275.484375 184.625 275.7109375 184.8515625Q275.9375 185.078125 275.9375 185.40625V187.359375Q275.9375 188.125 276.484375 188.6796875Q277.03125 189.234375 277.8125 189.234375H280.3125Q281.09375 189.234375 281.640625 188.6796875Q282.1875 188.125 282.1875 187.359375V185.40625Q282.1875 185.078125 282.4140625 184.8515625Q282.640625 184.625 282.96875 184.625Q283.296875 184.625 283.5234375 184.8515625Q283.75 185.078125 283.75 185.40625V187.359375Q283.75 188.78125 282.7421875 189.7890625Q281.734375 190.796875 280.3125 190.796875H279.84375V193.21875Q279.84375 193.546875 279.6171875 193.7734375Q279.390625 194.0 279.0625 194.0Q278.734375 194.0 278.5078125 193.7734375Q278.28125 193.546875 278.28125 193.21875V190.796875H277.8125Q276.390625 190.796875 275.3828125 189.7890625Q274.375 188.78125 274.375 187.359375ZM286.09375 184.625H288.125Q289.546875 184.625 290.5546875 185.6328125Q291.5625 186.640625 291.5625 188.0625V190.5625Q291.5625 191.34375 292.109375 191.890625Q292.65625 192.4375 293.4375 192.4375H295.46875Q295.796875 192.4375 296.0234375 192.6640625Q296.25 192.890625 296.25 193.21875Q296.25 193.546875 296.0234375 193.7734375Q295.796875 194.0 295.46875 194.0H293.4375Q292.015625 194.0 291.0078125 192.9921875Q290.0 191.984375 290.0 190.5625V188.0625Q290.0 187.28125 289.453125 186.734375Q288.90625 186.1875 288.125 186.1875H286.09375Q285.765625 186.1875 285.5390625 185.9609375Q285.3125 185.734375 285.3125 185.40625Q285.3125 185.078125 285.5390625 184.8515625Q285.765625 184.625 286.09375 184.625ZM323.4375 190.5625Q323.4375 191.34375 323.984375 191.890625Q324.53125 192.4375 325.3125 192.4375H327.8125Q328.59375 192.4375 329.140625 191.890625Q329.6875 191.34375 329.6875 190.5625V188.0625Q329.6875 187.28125 329.140625 186.734375Q328.59375 186.1875 327.8125 186.1875H325.3125Q324.53125 186.1875 323.984375 186.734375Q323.4375 187.28125 323.4375 188.0625ZM321.875 190.5625V188.0625Q321.875 186.640625 322.8828125 185.6328125Q323.890625 184.625 325.3125 184.625H327.8125Q329.234375 184.625 330.2421875 185.6328125Q331.25 186.640625 331.25 188.0625V190.5625Q331.25 191.984375 330.2421875 192.9921875Q329.234375 194.0 327.8125 194.0H325.3125Q323.890625 194.0 322.8828125 192.9921875Q321.875 191.984375 321.875 190.5625ZM332.8125 193.21875V185.40625Q332.8125 185.078125 333.0390625 184.8515625Q333.265625 184.625 333.59375 184.625Q333.921875 184.625 334.1484375 184.8515625Q334.375 185.078125 334.375 185.40625V193.21875Q334.375 193.546875 334.1484375 193.7734375Q333.921875 194.0 333.59375 194.0Q333.265625 194.0 333.0390625 193.7734375Q332.8125 193.546875 332.8125 193.21875ZM335.9375 191.578125V190.953125Q335.9375 189.9375 336.640625 189.234375Q337.34375 188.53125 338.359375 188.53125H342.421875Q342.78125 188.53125 343.03125 188.28125Q343.28125 188.03125 343.28125 187.671875V187.046875Q343.28125 186.6875 343.03125 186.4375Q342.78125 186.1875 342.421875 186.1875H336.875Q336.546875 186.1875 336.3203125 185.9609375Q336.09375 185.734375 336.09375 185.40625Q336.09375 185.078125 336.3203125 184.8515625Q336.546875 184.625 336.875 184.625H342.421875Q343.4375 184.625 344.140625 185.328125Q344.84375 186.03125 344.84375 187.046875V187.671875Q344.84375 188.6875 344.140625 189.390625Q343.4375 190.09375 342.421875 190.09375H338.359375Q338.0 190.09375 337.75 190.34375Q337.5 190.59375 337.5 190.953125V191.578125Q337.5 191.9375 337.75 192.1875Q338.0 192.4375 338.359375 192.4375H343.90625Q344.234375 192.4375 344.4609375 192.6640625Q344.6875 192.890625 344.6875 193.21875Q344.6875 193.546875 344.4609375 193.7734375Q344.234375 194.0 343.90625 194.0H338.359375Q337.34375 194.0 336.640625 193.296875Q335.9375 192.59375 335.9375 191.578125ZM347.1875 192.4375H352.734375Q353.09375 192.4375 353.34375 192.1875Q353.59375 191.9375 353.59375 191.578125V190.953125Q353.59375 190.59375 353.34375 190.34375Q353.09375 190.09375 352.734375 190.09375H350.625Q350.296875 190.09375 350.0703125 189.8671875Q349.84375 189.640625 349.84375 189.3125Q349.84375 188.984375 350.0703125 188.7578125Q350.296875 188.53125 350.625 188.53125H352.734375Q353.09375 188.53125 353.34375 188.28125Q353.59375 188.03125 353.59375 187.671875V187.046875Q353.59375 186.6875 353.34375 186.4375Q353.09375 186.1875 352.734375 186.1875H347.1875Q346.859375 186.1875 346.6328125 185.9609375Q346.40625 185.734375 346.40625 185.40625Q346.40625 185.078125 346.6328125 184.8515625Q346.859375 184.625 347.1875 184.625H352.734375Q353.75 184.625 354.453125 185.328125Q355.15625 186.03125 355.15625 187.046875V187.671875Q355.15625 188.625 354.515625 189.3125Q355.15625 190.0 355.15625 190.953125V191.578125Q355.15625 192.59375 354.453125 193.296875Q353.75 194.0 352.734375 194.0H347.1875Q346.859375 194.0 346.6328125 193.7734375Q346.40625 193.546875 346.40625 193.21875Q346.40625 192.890625 346.6328125 192.6640625Q346.859375 192.4375 347.1875 192.4375ZM356.71875 186.65625V185.40625Q356.71875 185.078125 356.9453125 184.8515625Q357.171875 184.625 357.5 184.625Q357.828125 184.625 358.0546875 184.8515625Q358.28125 185.078125 358.28125 185.40625V186.65625Q358.28125 187.4375 358.828125 187.984375Q359.375 188.53125 360.15625 188.53125H363.28125V185.40625Q363.28125 185.078125 363.5078125 184.8515625Q363.734375 184.625 364.0625 184.625Q364.390625 184.625 364.6171875 184.8515625Q364.84375 185.078125 364.84375 185.40625V193.21875Q364.84375 193.546875 364.6171875 193.7734375Q364.390625 194.0 364.0625 194.0Q363.734375 194.0 363.5078125 193.7734375Q363.28125 193.546875 363.28125 193.21875V190.09375H360.15625Q358.734375 190.09375 357.7265625 189.0859375Q356.71875 188.078125 356.71875 186.65625ZM367.34375 192.4375H372.890625Q373.25 192.4375 373.5 192.1875Q373.75 191.9375 373.75 191.578125V190.953125Q373.75 190.59375 373.5 190.34375Q373.25 190.09375 372.890625 190.09375H368.828125Q367.8125 190.09375 367.109375 189.390625Q366.40625 188.6875 366.40625 187.671875V187.046875Q366.40625 186.03125 367.109375 185.328125Q367.8125 184.625 368.828125 184.625H374.375Q374.703125 184.625 374.9296875 184.8515625Q375.15625 185.078125 375.15625 185.40625Q375.15625 185.734375 374.9296875 185.9609375Q374.703125 186.1875 374.375 186.1875H368.828125Q368.46875 186.1875 368.21875 186.4375Q367.96875 186.6875 367.96875 187.046875V187.671875Q367.96875 188.03125 368.21875 188.28125Q368.46875 188.53125 368.828125 188.53125H372.890625Q373.90625 188.53125 374.609375 189.234375Q375.3125 189.9375 375.3125 190.953125V191.578125Q375.3125 192.59375 374.609375 193.296875Q373.90625 194.0 372.890625 194.0H367.34375Q367.015625 194.0 366.7890625 193.7734375Q366.5625 193.546875 366.5625 193.21875Q366.5625 192.890625 366.7890625 192.6640625Q367.015625 192.4375 367.34375 192.4375ZM376.875 190.5625V188.0625Q376.875 186.640625 377.8828125 185.6328125Q378.890625 184.625 380.3125 184.625H385.15625Q385.484375 184.625 385.7109375 184.8515625Q385.9375 185.078125 385.9375 185.40625Q385.9375 185.734375 385.7109375 185.9609375Q385.484375 186.1875 385.15625 186.1875H380.3125Q379.53125 186.1875 378.984375 186.734375Q378.4375 187.28125 378.4375 188.0625V188.53125H383.515625Q384.53125 188.53125 385.234375 189.234375Q385.9375 189.9375 385.9375 190.953125V191.578125Q385.9375 192.59375 385.234375 193.296875Q384.53125 194.0 383.515625 194.0H380.3125Q378.890625 194.0 377.8828125 192.9921875Q376.875 191.984375 376.875 190.5625ZM378.4375 190.09375V190.5625Q378.4375 191.34375 378.984375 191.890625Q379.53125 192.4375 380.3125 192.4375H383.515625Q383.875 192.4375 384.125 192.1875Q384.375 191.9375 384.375 191.578125V190.953125Q384.375 190.59375 384.125 190.34375Q383.875 190.09375 383.515625 190.09375ZM388.28125 184.625H391.71875Q393.140625 184.625 394.1484375 185.6328125Q395.15625 186.640625 395.15625 188.0625V193.21875Q395.15625 193.546875 394.9296875 193.7734375Q394.703125 194.0 394.375 194.0Q394.046875 194.0 393.8203125 193.7734375Q393.59375 193.546875 393.59375 193.21875V188.0625Q393.59375 187.28125 393.046875 186.734375Q392.5 186.1875 391.71875 186.1875H388.28125Q387.953125 186.1875 387.7265625 185.9609375Q387.5 185.734375 387.5 185.40625Q387.5 185.078125 387.7265625 184.8515625Q387.953125 184.625 388.28125 184.625ZM398.28125 191.578125Q398.28125 191.9375 398.53125 192.1875Q398.78125 192.4375 399.140625 192.4375H403.203125Q403.5625 192.4375 403.8125 192.1875Q404.0625 191.9375 404.0625 191.578125V190.953125Q404.0625 190.59375 403.8125 190.34375Q403.5625 190.09375 403.203125 190.09375H399.140625Q398.78125 190.09375 398.53125 190.34375Q398.28125 190.59375 398.28125 190.953125ZM398.28125 187.671875Q398.28125 188.03125 398.53125 188.28125Q398.78125 188.53125 399.140625 188.53125H403.203125Q403.5625 188.53125 403.8125 188.28125Q404.0625 188.03125 404.0625 187.671875V187.046875Q404.0625 186.6875 403.8125 186.4375Q403.5625 186.1875 403.203125 186.1875H399.140625Q398.78125 186.1875 398.53125 186.4375Q398.28125 186.6875 398.28125 187.046875ZM396.71875 191.578125V190.953125Q396.71875 190.0 397.359375 189.3125Q396.71875 188.625 396.71875 187.671875V187.046875Q396.71875 186.03125 397.421875 185.328125Q398.125 184.625 399.140625 184.625H403.203125Q404.21875 184.625 404.921875 185.328125Q405.625 186.03125 405.625 187.046875V187.671875Q405.625 188.625 404.984375 189.3125Q405.625 190.0 405.625 190.953125V191.578125Q405.625 192.59375 404.921875 193.296875Q404.21875 194.0 403.203125 194.0H399.140625Q398.125 194.0 397.421875 193.296875Q396.71875 192.59375 396.71875 191.578125ZM407.96875 192.4375H412.8125Q413.59375 192.4375 414.140625 191.890625Q414.6875 191.34375 414.6875 190.5625V190.09375H409.609375Q408.59375 190.09375 407.890625 189.390625Q407.1875 188.6875 407.1875 187.671875V187.046875Q407.1875 186.03125 407.890625 185.328125Q408.59375 184.625 409.609375 184.625H412.8125Q414.234375 184.625 415.2421875 185.6328125Q416.25 186.640625 416.25 188.0625V190.5625Q416.25 191.984375 415.2421875 192.9921875Q414.234375 194.0 412.8125 194.0H407.96875Q407.640625 194.0 407.4140625 193.7734375Q407.1875 193.546875 407.1875 193.21875Q407.1875 192.890625 407.4140625 192.6640625Q407.640625 192.4375 407.96875 192.4375ZM408.75 187.671875Q408.75 188.03125 409.0 188.28125Q409.25 188.53125 409.609375 188.53125H414.6875V188.0625Q414.6875 187.28125 414.140625 186.734375Q413.59375 186.1875 412.8125 186.1875H409.609375Q409.25 186.1875 409.0 186.4375Q408.75 186.6875 408.75 187.046875Z" fill="#6b7280"/></svg>