<svg xmlns="http://www.w3.org/2000/svg" viewBox="0 0 361.8 222.0" width="362" height="222"><path d="M44.352000000000004 74.574V61.647999999999996L31.426 74.574ZM30.0 76.0V73.838L42.236000000000004 61.647999999999996H30.0V60.176H45.824V76.0ZM47.25 76.0V60.176H48.676V74.574H61.602000000000004V60.176H63.074V76.0ZM64.5 76.0V60.176H80.324V61.647999999999996H65.926V76.0ZM81.75 76.0V60.176H83.176V76.0ZM84.602 76.0V60.176H100.426V61.647999999999996H86.028V74.574H100.426V76.0ZM116.20400000000001 74.574V61.647999999999996H103.278V74.574ZM101.852 76.0V60.176H117.676V76.0ZM119.102 76.0V60.176H120.528L134.92600000000002 74.574V60.176H136.352L152.176 76.0H150.014L136.352 62.338V76.0H134.19L120.528 62.338V76.0Z" fill="#12151a"/><path d="M37.176 126.287V119.824L30.713 126.287ZM30.0 127.0V125.919L36.118 119.824H30.0V119.088H37.912V127.0ZM38.625 127.0V119.088H39.338V126.287H45.801V119.088H46.537V127.0ZM47.25 127.0V119.088H55.162V119.824H47.963V127.0ZM55.875 127.0V119.088H56.588V127.0ZM57.301 127.0V119.088H65.21300000000001V119.824H58.014V126.287H65.21300000000001V127.0ZM73.102 126.287V119.824H66.639V126.287ZM65.926 127.0V119.088H73.83800000000001V127.0ZM74.551 127.0V119.088H75.264L82.46300000000001 126.287V119.088H83.176L91.088 127.0H90.007L83.176 120.169V127.0H82.095L75.264 120.169V127.0ZM98.70100000000001 127.0V119.088H106.61300000000001V119.824H99.414V127.0ZM108.039 126.287 114.50200000000001 119.824H108.039ZM107.32600000000001 127.0V119.088H115.23800000000001V120.169L109.12 126.287H115.23800000000001V127.0ZM115.95100000000001 127.0V126.287H122.414L115.95100000000001 119.824V119.088H123.495V119.824H117.03200000000001L123.495 126.287V127.0ZM124.921 126.287 131.38400000000001 119.824H124.921ZM124.20800000000001 127.0V119.088H132.12V120.169L126.00200000000001 126.287H132.12V127.0ZM140.00900000000001 126.287V119.824L133.54600000000002 126.287ZM132.83300000000003 127.0V125.919L138.95100000000002 119.824H132.83300000000003V119.088H140.74500000000003V127.0ZM141.45800000000003 127.0V119.088H149.37000000000003V119.824H142.17100000000002V127.0ZM150.08300000000003 127.0V119.088H157.99500000000003V119.824H150.79600000000002V126.287H157.99500000000003V127.0ZM159.42100000000002 115.5V118.743L167.70100000000002 127.0H166.62000000000003L159.42100000000002 119.824V127.0H158.70800000000003V115.5ZM176.02700000000002 115.5V118.743L184.30700000000002 127.0H183.22600000000003L176.02700000000002 119.824V127.0H175.31400000000002V115.5ZM192.196 126.287V119.824H185.733V126.287ZM185.02 127.0V119.088H192.93200000000002V127.0ZM193.645 127.0V119.088H194.358V126.287H201.55700000000002V127.0ZM209.446 126.287V119.824L202.983 126.287ZM202.27 127.0V125.919L209.446 118.743V115.5H210.18200000000002V127.0ZM210.895 127.0V126.287H217.358L210.895 119.824V119.088H218.43900000000002V119.824H211.976L218.43900000000002 126.287V127.0ZM226.05200000000002 127.0V115.5H226.76500000000001V119.088H230.353V119.824H226.76500000000001V126.287H233.96400000000003V127.0ZM235.39000000000001 115.5V118.743L243.67000000000002 127.0H242.58900000000003L235.39000000000001 119.824V127.0H234.67700000000002V115.5ZM245.096 126.287 251.559 119.824H245.096ZM244.383 127.0V119.088H252.29500000000002V120.169L246.17700000000002 126.287H252.29500000000002V127.0ZM259.908 127.0V119.088H260.62100000000004V127.0ZM261.334 127.0V119.088H262.047L268.878 125.919V119.088H269.591V127.0H268.878L262.047 120.169V127.0ZM270.327 127.0V126.287H276.79L270.327 119.824V119.088H277.871V119.824H271.408L277.871 126.287V127.0ZM278.584 127.0V119.088H279.297V127.0ZM287.186 126.287V119.824L280.723 126.287ZM280.01 127.0V125.919L287.186 118.743V115.5H287.92199999999997V127.0ZM289.348 126.287 295.811 119.824H289.348ZM288.635 127.0V119.088H296.54699999999997V120.169L290.429 126.287H296.54699999999997V127.0ZM304.15999999999997 127.0V119.088H304.873V126.287H312.07199999999995V127.0ZM312.78499999999997 127.0V119.088H313.498V127.0ZM314.21099999999996 127.0V119.088H314.924L321.75499999999994 125.919V119.088H322.46799999999996V127.0H321.75499999999994L314.924 120.169V127.0ZM323.917 126.287 330.37999999999994 119.824H323.917ZM323.20399999999995 127.0V119.088H331.11599999999993V120.169L324.99799999999993 126.287H331.11599999999993V127.0Z" fill="#3a3f47"/><path d="M34.992 164.504V160.008L30.496 164.504ZM30.0 165.0V164.248L34.256 160.008H30.0V159.496H35.504V165.0ZM40.992 164.504V160.008H36.496V164.504ZM36.0 165.0V157.0H36.496V159.496H41.504V165.0ZM42.0 165.0V159.496H47.504V160.008H42.496V164.504H47.504V165.0ZM52.992 164.504V160.008H48.496V164.504ZM48.0 165.0V159.496H52.992V157.0H53.504V165.0ZM54.496 164.504 58.992 160.008H54.496ZM54.0 165.0V159.496H59.504V160.248L55.248 164.504H59.504V165.0ZM60.0 165.0V159.496H65.504V160.008H60.496V162.008H65.504V162.504H60.496V165.0ZM70.992 164.504V160.008H66.496V164.504ZM68.496 167.496V167.0H70.992V165.0H66.0V159.496H71.504V167.496ZM72.0 165.0V157.0H72.496V159.496H77.504V165.0H76.992V160.008H72.496V165.0ZM78.0 165.0V159.496H78.496V165.0ZM78.992 167.496V167.0H81.488V159.496H81.98400000000001V167.496ZM82.49600000000001 165.0V159.496H88.00000000000001V160.008H83.248L88.24000000000001 165.0H87.48800000000001L82.992 160.504V165.0ZM88.49600000000001 165.0V159.496H88.992V164.504H94.00000000000001V165.0ZM94.49600000000001 165.0V159.496H100.00000000000001V165.0H99.48800000000001V160.008H97.48800000000001V165.0H96.992V160.008H94.992V165.0ZM100.49600000000001 165.0V159.496H106.00000000000001V165.0H105.48800000000001V160.008H100.992V165.0ZM111.48800000000001 164.504V160.008H106.992V164.504ZM106.49600000000001 165.0V159.496H112.00000000000001V165.0ZM117.48800000000001 164.504V160.008H112.992V164.504ZM112.49600000000001 167.496V159.496H118.00000000000001V165.0H112.992V167.496ZM123.48800000000001 164.504V160.008H118.992V164.504ZM123.48800000000001 167.496V165.0H118.49600000000001V159.496H124.00000000000001V167.496ZM124.49600000000001 165.0V159.496H130.0V160.008H124.992V165.0ZM130.496 165.0V164.504H135.488V162.504H130.496V159.496H136.0V160.008H130.99200000000002V162.008H136.0V165.0ZM138.99200000000002 165.0V160.008H136.496V159.496H142.0V160.008H139.488V165.0ZM142.496 165.0V159.496H142.99200000000002V164.504H147.488V159.496H148.0V165.0ZM154.0 165.0 148.496 159.496H149.24800000000002L154.0 164.248V159.496H154.496V165.0ZM154.99200000000002 165.0V159.496H155.48800000000003V164.504H157.48800000000003V159.496H157.984V164.504H159.984V159.496H160.496V165.0ZM160.99200000000002 165.0 163.74400000000003 162.248 160.99200000000002 159.496H161.74400000000003L164.11200000000002 161.88L166.496 159.496H167.24800000000002L164.496 162.248L167.24800000000002 165.0H166.496L164.11200000000002 162.632L161.74400000000003 165.0ZM170.24000000000004 165.0V164.504H172.73600000000002V162.504H167.74400000000003V159.496H168.24000000000004V162.008H172.73600000000002V159.496H173.24800000000002V165.0ZM173.74400000000003 165.0V164.504L178.24000000000004 160.008H173.74400000000003V159.496H178.99200000000002V160.008L174.49600000000004 164.504H178.99200000000002V165.0Z" fill="#6b7280"/><path d="M34.992 193.504V189.008L30.496 193.504ZM30.0 194.0V193.248L34.256 189.008H30.0V188.496H35.504V194.0ZM40.992 193.504 36.496 189.008V193.504ZM36.0 194.0V186.0H36.496V188.256L41.504 193.248V194.0ZM42.0 194.0V188.496H47.504V189.008H42.496V193.504H47.504V194.0ZM52.992 193.504V189.008L48.496 193.504ZM48.0 194.0V193.248L52.992 188.256V186.0H53.504V194.0ZM54.496 193.504 58.992 189.008H54.496ZM54.0 194.0V188.496H59.504V189.248L55.248 193.504H59.504V194.0ZM60.0 194.0V188.496H65.504V189.008H60.496V191.008H65.504V191.504H60.496V194.0ZM70.992 193.504V189.008H66.496V193.504ZM68.496 196.496V196.0H70.992V194.0H66.0V188.496H71.504V196.496ZM72.496 186.0V188.256L78.256 194.0H77.504L72.496 189.008V194.0H72.0V186.0ZM78.752 194.0V188.496H79.24799999999999V194.0ZM79.744 196.496V196.0H82.24V188.496H82.736V196.496ZM83.248 194.0V188.496H88.75200000000001V189.008H84.0L88.992 194.0H88.24000000000001L83.744 189.504V194.0ZM89.248 194.0V188.496H89.744V193.504H94.75200000000001V194.0ZM95.248 194.0V188.496H95.744L100.75200000000001 193.504V188.496H101.248L106.75200000000001 194.0H106.0L101.248 189.248V194.0H100.49600000000001L95.744 189.248V194.0ZM107.248 194.0V188.496H107.744L112.49600000000001 193.248V188.496H112.992V194.0H112.49600000000001L107.744 189.248V194.0ZM118.49600000000001 193.504V189.008H114.0V193.504ZM113.504 194.0V188.496H119.00800000000001V194.0ZM120.0 193.504 124.49600000000001 189.008H120.0ZM119.504 196.496V188.496H125.00800000000001V189.248L120.0 194.256V196.496ZM130.496 193.504V189.008H126.0ZM130.496 196.496V194.256L125.504 189.248V188.496H131.008V196.496ZM131.50400000000002 194.0V188.496H137.008V189.008H132.00000000000003V194.0ZM137.50400000000002 194.0V193.504H142.00000000000003L137.50400000000002 189.008V188.496H142.752V189.008H138.25600000000003L142.752 193.504V194.0ZM143.24800000000002 194.0V186.0H143.74400000000003V188.496H146.24V189.008H143.74400000000003V193.504H148.752V194.0ZM149.24800000000002 194.0V188.496H149.74400000000003V193.504H154.24V188.496H154.752V194.0ZM155.24800000000002 194.0V188.496H155.74400000000003V193.248L160.496 188.496H161.24800000000002L155.74400000000003 194.0ZM161.74400000000003 194.0V188.496H162.24000000000004V193.248L166.99200000000002 188.496H167.74400000000003V193.248L172.49600000000004 188.496H173.24800000000002L167.74400000000003 194.0H167.24800000000002V189.008L162.24000000000004 194.0ZM173.74400000000003 194.0 176.49600000000004 191.248 173.74400000000003 188.496H174.49600000000004L176.86400000000003 190.88L179.24800000000002 188.496H180.00000000000003L177.24800000000002 191.248L180.00000000000003 194.0H179.24800000000002L176.86400000000003 191.632L174.49600000000004 194.0ZM186.24000000000004 196.496V194.256L180.49600000000004 188.496H181.24800000000005L186.24000000000004 193.504V188.496H186.75200000000004V196.496ZM187.24800000000005 194.0V193.504L191.74400000000006 189.008H187.24800000000005V188.496H192.49600000000004V189.008L188.00000000000006 193.504H192.49600000000004V194.0ZM207.58400000000006 193.504V189.008H203.08800000000008V193.504ZM202.59200000000007 194.0V188.496H208.09600000000006V194.0ZM211.08800000000008 194.0V189.008H208.59200000000007V188.496H211.58400000000006V194.0ZM212.09600000000006 194.0V191.008H217.08800000000005V189.008H214.59200000000007V188.496H217.60000000000005V191.504H212.59200000000007V193.504H217.60000000000005V194.0ZM218.09600000000006 194.0V193.504H223.08800000000005V191.504H218.09600000000006V191.008H220.59200000000007V189.008H218.09600000000006V188.496H221.08800000000005V191.008H223.60000000000005V194.0ZM226.59200000000007 194.0V191.504H224.09600000000006V188.496H224.59200000000007V191.008H226.59200000000007V188.496H227.08800000000005V191.008H229.60000000000005V191.504H227.08800000000005V194.0ZM232.59200000000007 194.0V193.504H235.08800000000005V191.504H230.09600000000006V188.496H235.60000000000005V189.008H230.59200000000007V191.008H235.60000000000005V194.0ZM241.08800000000005 193.504V191.504H236.59200000000007V193.504ZM236.09600000000006 194.0V188.496H239.08800000000005V189.008H236.59200000000007V191.008H241.60000000000005V194.0ZM244.59200000000007 194.0V191.504L247.08800000000005 189.008H242.09600000000006V188.496H247.60000000000005V189.248L245.08800000000005 191.744V194.0ZM253.08800000000005 193.504V191.504H248.59200000000007V193.504ZM253.08800000000005 191.008V189.008H248.59200000000007V191.008ZM248.09600000000006 194.0V188.496H253.60000000000005V194.0ZM259.0880000000001 191.008V189.008H254.59200000000007V191.008ZM256.59200000000004 194.0V193.504H259.0880000000001V191.504H254.09600000000006V188.496H259.6000000000001V194.0ZM272.19200000000006 194.0V193.504H272.6880000000001V194.0ZM272.19200000000006 193.008V191.008H274.6880000000001V189.008H269.6960000000001V188.496H275.2000000000001V191.504H272.6880000000001V193.008ZM275.6960000000001 194.0V193.504H276.19200000000006V194.0ZM276.6880000000001 195.008V193.504H277.1840000000001V195.008ZM277.6800000000001 194.0V193.504H278.1760000000001V194.0ZM277.6800000000001 193.008V188.496H278.1760000000001V193.008ZM281.1680000000001 194.0V193.504H281.66400000000016V194.0ZM281.1680000000001 193.008V191.008H283.66400000000016V189.008H278.67200000000014V188.496H284.17600000000016V191.504H281.66400000000016V193.008Z" fill="#6b7280"/></svg>