<svg xmlns="http://www.w3.org/2000/svg" viewBox="0 0 580.8 222.0" width="581" height="222"><path d="M56.726 63.994Q59.623999999999995 65.788 59.623999999999995 69.468Q59.623999999999995 72.136 57.922 73.976Q56.082 76.0 52.954 76.0H30.0V52.31H52.54Q55.668 52.31 57.507999999999996 54.334Q59.164 56.174 59.164 58.842Q59.164 62.153999999999996 56.726 63.994ZM52.54 61.418Q53.736000000000004 61.418 53.736000000000004 59.623999999999995Q53.736000000000004 57.83 52.54 57.83H35.519999999999996V61.418ZM52.954 70.48Q54.15 70.48 54.15 68.686Q54.15 66.892 52.954 66.892H35.519999999999996V70.48ZM66.846 76.0H61.326V52.31H66.846ZM95.366 57.83H84.694V76.0H79.174V57.83H68.502V52.31H95.366ZM125.91 68.686Q125.91 71.676 124.116 73.792Q122.184 76.0 119.24 76.0H98.816V70.48H119.24Q120.39 70.48 120.39 68.686Q120.39 66.892 119.24 66.892H104.38199999999999Q101.438 66.892 99.506 64.684Q97.666 62.614000000000004 97.666 59.623999999999995Q97.666 56.634 99.55199999999999 54.472Q101.438 52.31 104.38199999999999 52.31H124.806V57.83H104.38199999999999Q103.232 57.83 103.232 59.623999999999995Q103.232 61.372 104.38199999999999 61.372H119.24Q122.184 61.372 124.116 63.58Q125.91 65.696 125.91 68.686ZM157.282 68.64Q157.282 71.63 155.39600000000002 73.792Q153.51000000000002 75.954 150.566 75.954H134.92600000000002Q131.936 75.954 130.073 73.792Q128.21 71.63 128.21 68.64V52.31H133.73000000000002V68.64Q133.73000000000002 70.434 134.92600000000002 70.434H150.566Q151.716 70.434 151.716 68.64V52.31H157.282ZM190.31 76.0H184.79V61.556L174.946 75.586L165.102 61.556V76.0H159.582V52.31H165.378L174.946 65.972L184.56 52.31H190.31ZM198.13 76.0H192.60999999999999V52.31H198.13ZM228.67399999999998 68.686Q228.67399999999998 71.676 226.87999999999997 73.792Q224.94799999999998 76.0 222.00399999999996 76.0H201.57999999999998V70.48H222.00399999999996Q223.15399999999997 70.48 223.15399999999997 68.686Q223.15399999999997 66.892 222.00399999999996 66.892H207.146Q204.20199999999997 66.892 202.26999999999998 64.684Q200.42999999999998 62.614000000000004 200.42999999999998 59.623999999999995Q200.42999999999998 56.634 202.31599999999997 54.472Q204.20199999999997 52.31 207.146 52.31H227.57V57.83H207.146Q205.99599999999998 57.83 205.99599999999998 59.623999999999995Q205.99599999999998 61.372 207.146 61.372H222.00399999999996Q224.94799999999998 61.372 226.87999999999997 63.58Q228.67399999999998 65.696 228.67399999999998 68.686ZM260.138 76.0H254.52599999999998V66.892H236.494V76.0H230.974V52.31H236.494V61.372H254.52599999999998V52.31H260.138ZM267.95799999999997 76.0H262.438V52.31H267.95799999999997Z" fill="#12151a"/><path d="M48.423 115.155 44.168 127.0H41.775999999999996L39.039 119.341L36.302 127.0H33.887L29.632 115.155H32.576L35.083 122.216L37.544 115.155H40.534L40.488 115.247L42.949 122.216L45.501999999999995 115.155ZM51.964999999999996 127.0H49.205V115.155H51.964999999999996ZM67.92699999999999 119.157Q67.92699999999999 120.744 67.053 121.871Q66.11 123.136 64.56899999999999 123.136H55.87499999999999V127.0H53.114999999999995V115.155H64.56899999999999Q66.11 115.155 67.053 116.42Q67.92699999999999 117.57 67.92699999999999 119.157ZM65.167 119.157Q65.167 117.915 64.56899999999999 117.915H55.87499999999999V120.376H64.56899999999999Q65.167 120.376 65.167 119.157ZM81.704 117.915H71.837V119.686H81.06V122.446H71.837V124.24H81.681V127.0H69.077V115.155H81.704ZM97.52799999999999 123.251Q97.52799999999999 124.861 96.401 125.9305Q95.274 127.0 93.664 127.0H86.718Q85.108 127.0 83.981 125.9305Q82.854 124.861 82.854 123.251V118.904Q82.854 117.294 83.981 116.2245Q85.108 115.155 86.718 115.155H93.664Q95.274 115.155 96.401 116.2245Q97.52799999999999 117.294 97.52799999999999 118.904ZM94.768 123.251V118.904Q94.768 117.915 93.664 117.915H86.718Q85.614 117.915 85.614 118.904V123.251Q85.614 124.24 86.718 124.24H93.664Q94.768 124.24 94.768 123.251ZM113.214 123.32Q113.214 124.815 112.271 125.896Q111.328 126.977 109.856 126.977H102.036Q100.541 126.977 99.6095 125.896Q98.678 124.815 98.678 123.32V115.155H101.438V123.32Q101.438 124.217 102.036 124.217H109.856Q110.431 124.217 110.431 123.32V115.155H113.214ZM127.474 117.915H122.138V127.0H119.378V117.915H114.042V115.155H127.474ZM152.636 118.812Q152.636 120.307 151.739 121.342Q150.773 122.446 149.301 122.446H146.15Q144.816 122.446 144.218 122.722Q143.367 123.136 143.183 124.24H152.084V127.0H140.147L140.124 125.597Q140.03199999999998 119.686 146.15 119.686H149.301Q149.899 119.686 149.899 118.789Q149.899 117.915 149.301 117.915H140.69899999999998V115.155H149.301Q150.773 115.155 151.739 116.259Q152.636 117.31700000000001 152.636 118.812ZM165.332 123.251Q165.332 124.861 164.2165 125.9305Q163.101 127.0 161.491 127.0H157.65Q156.04 127.0 154.913 125.9305Q153.786 124.861 153.786 123.251V118.904Q153.786 117.294 154.913 116.2245Q156.04 115.155 157.65 115.155H161.491Q163.101 115.155 164.2165 116.2245Q165.332 117.294 165.332 118.904ZM162.572 123.251V118.904Q162.572 117.915 161.491 117.915H157.65Q156.546 117.915 156.546 118.904V123.251Q156.546 124.24 157.65 124.24H161.491Q162.572 124.24 162.572 123.251ZM178.925 124.608H177.016V127.0H174.233V124.608H166.482L166.505 121.917L173.29 115.155H177.016V121.848H178.925ZM174.233 121.848V117.8L169.955 121.848ZM190.72400000000002 120.997Q192.173 121.894 192.173 123.734Q192.173 125.068 191.345 125.988Q190.40200000000002 127.0 188.83800000000002 127.0H182.76600000000002Q181.202 127.0 180.25900000000001 125.988Q179.431 125.068 179.431 123.734Q179.431 121.894 180.857 120.997Q179.638 120.077 179.638 118.42099999999999Q179.638 117.087 180.466 116.167Q181.38600000000002 115.155 182.95000000000002 115.155H188.631Q190.19500000000002 115.155 191.115 116.167Q191.943 117.087 191.943 118.42099999999999Q191.943 120.077 190.72400000000002 120.997ZM188.631 119.709Q189.229 119.709 189.229 118.812Q189.229 117.915 188.631 117.915H182.95000000000002Q182.375 117.915 182.375 118.812Q182.375 119.709 182.95000000000002 119.709ZM188.83800000000002 124.24Q189.436 124.24 189.436 123.343Q189.436 122.446 188.83800000000002 122.446H182.76600000000002Q182.168 122.446 182.168 123.343Q182.168 124.24 182.76600000000002 124.24ZM218.715 127.0H214.943L209.032 120.353H216.139Q216.898 120.353 216.898 119.134Q216.898 117.915 216.139 117.915H207.583V127.0H204.823V115.155H216.3Q217.887 115.155 218.80700000000002 116.397Q219.65800000000002 117.524 219.65800000000002 119.134Q219.65800000000002 120.744 218.80700000000002 121.871Q217.887 123.113 216.3 123.113H215.24200000000002ZM233.435 117.915H223.56799999999998V119.686H232.791V122.446H223.56799999999998V124.24H233.41199999999998V127.0H220.808V115.155H233.435ZM248.36199999999997 115.155 242.33599999999998 127.0H239.98999999999998L233.94099999999997 115.155H237.02299999999997L241.18599999999998 123.251L245.27999999999997 115.155ZM251.94999999999996 127.0H249.18999999999997V115.155H251.94999999999996ZM266.87699999999995 115.155 260.85099999999994 127.0H258.50499999999994L252.45599999999996 115.155H255.53799999999995L259.70099999999996 123.251L263.79499999999996 115.155ZM280.332 117.915H270.465V119.686H279.688V122.446H270.465V124.24H280.30899999999997V127.0H267.705V115.155H280.332ZM295.604 123.343Q295.604 124.838 294.707 125.896Q293.741 127.0 292.26899999999995 127.0H282.05699999999996V124.24H292.26899999999995Q292.844 124.24 292.844 123.343Q292.844 122.446 292.26899999999995 122.446H284.84Q283.368 122.446 282.402 121.342Q281.48199999999997 120.307 281.48199999999997 118.812Q281.48199999999997 117.31700000000001 282.42499999999995 116.236Q283.368 115.155 284.84 115.155H295.05199999999996V117.915H284.84Q284.265 117.915 284.265 118.812Q284.265 119.686 284.84 119.686H292.26899999999995Q293.741 119.686 294.707 120.79Q295.604 121.848 295.604 123.343ZM322.76699999999994 127.0H320.00699999999995V123.228H312.739V120.468H320.00699999999995V118.812Q320.00699999999995 117.915 319.40899999999993 117.915H311.58899999999994Q311.01399999999995 117.915 311.01399999999995 118.812V127.0H308.25399999999996V118.812Q308.25399999999996 117.31700000000001 309.18549999999993 116.236Q310.11699999999996 115.155 311.58899999999994 115.155H319.40899999999993Q320.90399999999994 115.155 321.8354999999999 116.236Q322.76699999999994 117.31700000000001 322.76699999999994 118.812ZM336.544 127.0H333.784L326.67699999999996 119.019V127.0H323.917V115.155H326.67699999999996L333.784 123.06700000000001V115.155H336.544ZM350.804 117.915H345.46799999999996V127.0H342.70799999999997V117.915H337.37199999999996V115.155H350.804ZM354.71399999999994 127.0H351.95399999999995V115.155H354.71399999999994ZM366.28299999999996 122.469H355.864V119.686H366.28299999999996ZM380.45099999999996 127.0H371.29699999999997Q369.687 127.0 368.56 125.9305Q367.433 124.861 367.433 123.251V118.904Q367.433 117.294 368.56 116.2245Q369.687 115.155 371.29699999999997 115.155H380.45099999999996V117.915H371.29699999999997Q370.193 117.915 370.193 118.904V123.251Q370.193 124.24 371.29699999999997 124.24H377.691V122.446H373.942V119.686H380.45099999999996ZM395.493 127.0H391.721L385.81 120.353H392.917Q393.676 120.353 393.676 119.134Q393.676 117.915 392.917 117.915H384.361V127.0H381.601V115.155H393.078Q394.665 115.155 395.585 116.397Q396.436 117.524 396.436 119.134Q396.436 120.744 395.585 121.871Q394.665 123.113 393.078 123.113H392.02ZM412.099 127.0H409.339V123.228H402.071V120.468H409.339V118.812Q409.339 117.915 408.741 117.915H400.921Q400.346 117.915 400.346 118.812V127.0H397.586V118.812Q397.586 117.31700000000001 398.51750000000004 116.236Q399.449 115.155 400.921 115.155H408.741Q410.236 115.155 411.1675 116.236Q412.099 117.31700000000001 412.099 118.812ZM427.026 115.155 421.0 127.0H418.654L412.605 115.155H415.687L419.85 123.251L423.944 115.155ZM430.61400000000003 127.0H427.85400000000004V115.155H430.61400000000003ZM444.8740000000001 117.915H439.53800000000007V127.0H436.7780000000001V117.915H431.44200000000006V115.155H444.8740000000001ZM460.51400000000007 118.812Q460.51400000000007 120.307 459.6170000000001 121.342Q458.65100000000007 122.446 457.17900000000003 122.446H454.6720000000001V127.0H451.91200000000003V122.446H449.35900000000004Q447.88700000000006 122.446 446.9440000000001 121.342Q446.02400000000006 120.307 446.02400000000006 118.812V115.155H448.78400000000005V118.812Q448.78400000000005 119.686 449.35900000000004 119.686H457.17900000000003Q457.7540000000001 119.686 457.7540000000001 118.812V115.155H460.51400000000007ZM487.05600000000004 127.0H483.28400000000005L477.37300000000005 120.353H484.48Q485.23900000000003 120.353 485.23900000000003 119.134Q485.23900000000003 117.915 484.48 117.915H475.92400000000004V127.0H473.16400000000004V115.155H484.641Q486.22800000000007 115.155 487.148 116.397Q487.999 117.524 487.999 119.134Q487.999 120.744 487.148 121.871Q486.22800000000007 123.113 484.641 123.113H483.583ZM503.66200000000003 127.0H500.90200000000004V123.228H493.63400000000007V120.468H500.90200000000004V118.812Q500.90200000000004 117.915 500.30400000000003 117.915H492.48400000000004Q491.90900000000005 117.915 491.90900000000005 118.812V127.0H489.14900000000006V118.812Q489.14900000000006 117.31700000000001 490.08050000000003 116.236Q491.01200000000006 115.155 492.48400000000004 115.155H500.30400000000003Q501.79900000000004 115.155 502.7305 116.236Q503.66200000000003 117.31700000000001 503.66200000000003 118.812ZM517.83 127.0H508.67600000000004Q507.0660000000001 127.0 505.9390000000001 125.9305Q504.81200000000007 124.861 504.81200000000007 123.251V118.904Q504.81200000000007 117.294 505.9390000000001 116.2245Q507.0660000000001 115.155 508.67600000000004 115.155H517.83V117.915H508.67600000000004Q507.57200000000006 117.915 507.57200000000006 118.904V123.251Q507.57200000000006 124.24 508.67600000000004 124.24H517.83ZM521.74 127.0H518.98V115.155H521.74ZM535.5169999999999 127.0H532.757L525.65 119.019V127.0H522.89V115.155H525.65L532.757 123.06700000000001V115.155H535.5169999999999ZM549.6850000000001 127.0H540.5310000000001Q538.921 127.0 537.7940000000001 125.9305Q536.667 124.861 536.667 123.251V118.904Q536.667 117.294 537.7940000000001 116.2245Q538.921 115.155 540.5310000000001 115.155H549.6850000000001V117.915H540.5310000000001Q539.427 117.915 539.427 118.904V123.251Q539.427 124.24 540.5310000000001 124.24H546.9250000000001V122.446H543.176V119.686H549.6850000000001Z" fill="#3a3f47"/><path d="M40.096000000000004 165.0H38.176V162.376H33.12V160.456H38.176V159.304Q38.176 158.68 37.76 158.68H32.32Q31.92 158.68 31.92 159.304V165.0H30.0V159.304Q30.0 158.264 30.648 157.512Q31.296 156.76 32.32 156.76H37.76Q38.8 156.76 39.448 157.512Q40.096000000000004 158.264 40.096000000000004 159.304ZM50.192 160.824Q51.2 161.448 51.2 162.728Q51.2 163.656 50.608000000000004 164.296Q49.968 165.0 48.88 165.0H40.896V156.76H48.736000000000004Q49.824 156.76 50.464 157.464Q51.04 158.104 51.04 159.032Q51.04 160.184 50.192 160.824ZM48.736000000000004 159.928Q49.152 159.928 49.152 159.304Q49.152 158.68 48.736000000000004 158.68H42.816V159.928ZM48.88 163.08Q49.296 163.08 49.296 162.456Q49.296 161.832 48.88 161.832H42.816V163.08ZM60.848 165.0H54.480000000000004Q53.36 165.0 52.576 164.256Q51.792 163.512 51.792 162.392V159.368Q51.792 158.248 52.576 157.504Q53.36 156.76 54.480000000000004 156.76H60.848V158.68H54.480000000000004Q53.712 158.68 53.712 159.368V162.392Q53.712 163.08 54.480000000000004 163.08H60.848ZM70.672 162.392Q70.672 163.512 69.896 164.256Q69.12 165.0 68.0 165.0H61.648V159.8H63.568000000000005V163.08H68.0Q68.736 163.08 68.736 162.392V159.368Q68.736 158.68 68.0 158.68H61.648V156.76H68.0Q69.12 156.76 69.896 157.504Q70.672 158.248 70.672 159.368ZM80.25600000000001 158.68H73.39200000000001V159.912H79.808V161.832H73.39200000000001V163.08H80.24000000000001V165.0H71.47200000000001V156.76H80.25600000000001ZM89.84000000000002 158.68H82.99200000000002V159.912H89.40800000000002V161.832H82.99200000000002V165.0H81.05600000000001V156.76H89.84000000000002ZM99.48800000000001 165.0H93.12000000000002Q92.00000000000001 165.0 91.21600000000001 164.256Q90.43200000000002 163.512 90.43200000000002 162.392V159.368Q90.43200000000002 158.248 91.21600000000001 157.504Q92.00000000000001 156.76 93.12000000000002 156.76H99.48800000000001V158.68H93.12000000000002Q92.35200000000002 158.68 92.35200000000002 159.368V162.392Q92.35200000000002 163.08 93.12000000000002 163.08H97.56800000000001V161.832H94.96000000000002V159.912H99.48800000000001ZM109.07200000000002 165.0H107.13600000000001V161.832H102.20800000000001V165.0H100.28800000000001V156.76H102.20800000000001V159.912H107.13600000000001V156.76H109.07200000000002ZM111.79200000000002 165.0H109.87200000000001V156.76H111.79200000000002ZM119.10400000000001 162.392Q119.10400000000001 163.512 118.32000000000002 164.256Q117.53600000000002 165.0 116.41600000000001 165.0H112.33600000000001V163.08H116.41600000000001Q117.168 163.08 117.168 162.392V156.76H119.10400000000001ZM128.848 165.0H126.22400000000002L123.05600000000001 161.848H121.82400000000001V165.0H119.90400000000001V156.76H121.82400000000001V159.912H123.00800000000001L126.00000000000001 156.76H128.62400000000002L124.68800000000002 160.888ZM137.632 165.0H129.392V156.76H131.31199999999998V163.08H137.632ZM149.11999999999998 165.0H147.2V159.976L143.77599999999998 164.856L140.35199999999998 159.976V165.0H138.432V156.76H140.44799999999998L143.77599999999998 161.512L147.11999999999998 156.76H149.11999999999998ZM158.70399999999998 165.0H156.784L151.83999999999997 159.448V165.0H149.92V156.76H151.83999999999997L156.784 162.264V156.76H158.70399999999998ZM169.712 162.392Q169.712 163.512 168.928 164.256Q168.144 165.0 167.024 165.0H162.19199999999998Q161.072 165.0 160.288 164.256Q159.504 163.512 159.504 162.392V159.368Q159.504 158.248 160.288 157.504Q161.072 156.76 162.19199999999998 156.76H167.024Q168.144 156.76 168.928 157.504Q169.712 158.248 169.712 159.368ZM167.792 162.392V159.368Q167.792 158.68 167.024 158.68H162.19199999999998Q161.42399999999998 158.68 161.42399999999998 159.368V162.392Q161.42399999999998 163.08 162.19199999999998 163.08H167.024Q167.792 163.08 167.792 162.392ZM180.816 159.544Q180.816 160.648 180.208 161.432Q179.552 162.312 178.48 162.312H172.432V165.0H170.512V156.76H178.48Q179.552 156.76 180.208 157.64Q180.816 158.44 180.816 159.544ZM178.89600000000002 159.544Q178.89600000000002 158.68 178.48 158.68H172.432V160.392H178.48Q178.89600000000002 160.392 178.89600000000002 159.544ZM191.84 162.392Q191.84 163.512 191.056 164.256Q190.27200000000002 165.0 189.15200000000002 165.0H187.68V166.232H185.76000000000002V165.0H184.304Q183.18400000000003 165.0 182.40000000000003 164.256Q181.616 163.512 181.616 162.392V159.368Q181.616 158.248 182.40000000000003 157.504Q183.18400000000003 156.76 184.304 156.76H189.15200000000002Q190.27200000000002 156.76 191.056 157.504Q191.84 158.248 191.84 159.368ZM189.92000000000002 162.392V159.368Q189.92000000000002 158.68 189.15200000000002 158.68H184.304Q183.536 158.68 183.536 159.368V162.392Q183.536 163.08 184.304 163.08H185.76000000000002V161.832H187.68V163.08H189.15200000000002Q189.92000000000002 163.08 189.92000000000002 162.392ZM202.304 165.0H199.68L195.568 160.376H200.512Q201.04000000000002 160.376 201.04000000000002 159.528Q201.04000000000002 158.68 200.512 158.68H194.56V165.0H192.64000000000001V156.76H200.62400000000002Q201.728 156.76 202.36800000000002 157.624Q202.96 158.408 202.96 159.528Q202.96 160.648 202.36800000000002 161.432Q201.728 162.296 200.62400000000002 162.296H199.888ZM213.58400000000003 162.456Q213.58400000000003 163.496 212.96 164.232Q212.288 165.0 211.264 165.0H204.16000000000003V163.08H211.264Q211.66400000000002 163.08 211.66400000000002 162.456Q211.66400000000002 161.832 211.264 161.832H206.09600000000003Q205.07200000000003 161.832 204.4 161.064Q203.76000000000002 160.344 203.76000000000002 159.304Q203.76000000000002 158.264 204.41600000000003 157.512Q205.07200000000003 156.76 206.09600000000003 156.76H213.20000000000002V158.68H206.09600000000003Q205.69600000000003 158.68 205.69600000000003 159.304Q205.69600000000003 159.912 206.09600000000003 159.912H211.264Q212.288 159.912 212.96 160.68Q213.58400000000003 161.416 213.58400000000003 162.456ZM223.728 158.68H220.01600000000002V165.0H218.096V158.68H214.38400000000001V156.76H223.728ZM234.52800000000002 162.44Q234.52800000000002 163.48 233.872 164.232Q233.21600000000004 164.984 232.19200000000004 164.984H226.75200000000004Q225.71200000000002 164.984 225.06400000000002 164.232Q224.41600000000003 163.48 224.41600000000003 162.44V156.76H226.336V162.44Q226.336 163.064 226.75200000000004 163.064H232.19200000000004Q232.592 163.064 232.592 162.44V156.76H234.52800000000002ZM244.84800000000004 156.76 240.65600000000003 165.0H239.02400000000003L234.81600000000003 156.76H236.96000000000004L239.85600000000002 162.392L242.70400000000004 156.76ZM258.208 156.76 255.24800000000002 165.0H253.58400000000003L251.68000000000004 159.672L249.776 165.0H248.09600000000003L245.13600000000002 156.76H247.18400000000003L248.92800000000003 161.672L250.64000000000001 156.76H252.72000000000003L252.68800000000002 156.824L254.40000000000003 161.672L256.17600000000004 156.76ZM267.904 165.0H265.408L263.2 162.344L260.992 165.0H258.49600000000004L261.952 160.824L258.592 156.76H261.088L263.2 159.32L265.312 156.76H267.808L264.44800000000004 160.824ZM278.528 159.304Q278.528 160.344 277.90400000000005 161.064Q277.232 161.832 276.208 161.832H274.46400000000006V165.0H272.54400000000004V161.832H270.76800000000003Q269.744 161.832 269.088 161.064Q268.44800000000004 160.344 268.44800000000004 159.304V156.76H270.36800000000005V159.304Q270.36800000000005 159.912 270.76800000000003 159.912H276.208Q276.60800000000006 159.912 276.60800000000006 159.304V156.76H278.528ZM288.144 165.0H279.32800000000003V163.08L284.944 158.68H279.32800000000003V156.76H287.98400000000004L287.95200000000006 158.648L282.432 163.08H288.144Z" fill="#6b7280"/><path d="M40.096000000000004 194.0H38.176V191.376H33.12V189.456H38.176V188.304Q38.176 187.68 37.76 187.68H32.32Q31.92 187.68 31.92 188.304V194.0H30.0V188.304Q30.0 187.264 30.648 186.512Q31.296 185.76 32.32 185.76H37.76Q38.8 185.76 39.448 186.512Q40.096000000000004 187.264 40.096000000000004 188.304ZM50.192 189.824Q51.2 190.448 51.2 191.728Q51.2 192.656 50.608000000000004 193.296Q49.968 194.0 48.88 194.0H40.896V185.76H48.736000000000004Q49.824 185.76 50.464 186.464Q51.04 187.104 51.04 188.032Q51.04 189.184 50.192 189.824ZM48.736000000000004 188.928Q49.152 188.928 49.152 188.304Q49.152 187.68 48.736000000000004 187.68H42.816V188.928ZM48.88 192.08Q49.296 192.08 49.296 191.456Q49.296 190.832 48.88 190.832H42.816V192.08ZM61.056 194.0H54.688Q53.568 194.0 52.784 193.256Q52.0 192.512 52.0 191.392V188.368Q52.0 187.248 52.784 186.504Q53.568 185.76 54.688 185.76H61.056V187.68H54.688Q53.92 187.68 53.92 188.368V191.392Q53.92 192.08 54.688 192.08H61.056ZM70.88 191.392Q70.88 192.512 70.104 193.256Q69.328 194.0 68.208 194.0H61.856V188.8H63.776V192.08H68.208Q68.944 192.08 68.944 191.392V188.368Q68.944 187.68 68.208 187.68H61.856V185.76H68.208Q69.328 185.76 70.104 186.504Q70.88 187.248 70.88 188.368ZM80.46400000000001 187.68H73.60000000000001V188.912H80.016V190.832H73.60000000000001V192.08H80.44800000000001V194.0H71.68V185.76H80.46400000000001ZM90.04800000000002 187.68H83.20000000000002V188.912H89.61600000000001V190.832H83.20000000000002V194.0H81.26400000000001V185.76H90.04800000000002ZM99.64800000000001 194.0H93.28000000000002Q92.16000000000001 194.0 91.376 193.256Q90.59200000000001 192.512 90.59200000000001 191.392V188.368Q90.59200000000001 187.248 91.376 186.504Q92.16000000000001 185.76 93.28000000000002 185.76H99.64800000000001V187.68H93.28000000000002Q92.51200000000001 187.68 92.51200000000001 188.368V191.392Q92.51200000000001 192.08 93.28000000000002 192.08H97.72800000000001V190.832H95.12000000000002V188.912H99.64800000000001ZM110.59200000000001 194.0H108.64000000000001V190.832H102.36800000000001V194.0H100.44800000000001V185.76H102.36800000000001V188.912H108.64000000000001V185.76H110.59200000000001ZM113.31200000000001 194.0H111.39200000000001V185.76H113.31200000000001ZM120.88000000000001 191.392Q120.88000000000001 192.512 120.096 193.256Q119.31200000000001 194.0 118.19200000000001 194.0H114.11200000000001V192.08H118.19200000000001Q118.944 192.08 118.944 191.392V185.76H120.88000000000001ZM131.344 194.0H128.72L124.608 189.888L128.43200000000002 185.76H131.056L127.2 189.888ZM123.60000000000001 194.0H121.68V185.76H123.60000000000001ZM139.90400000000002 194.0H131.66400000000002V185.76H133.584V192.08H139.90400000000002ZM151.392 194.0H149.472V188.976L146.048 193.856L142.624 188.976V194.0H140.704V185.76H142.72L146.048 190.512L149.392 185.76H151.392ZM160.976 194.0H159.056L154.112 188.448V194.0H152.192V185.76H154.112L159.056 191.264V185.76H160.976ZM171.984 191.392Q171.984 192.512 171.2 193.256Q170.416 194.0 169.29600000000002 194.0H164.464Q163.34400000000002 194.0 162.56 193.256Q161.776 192.512 161.776 191.392V188.368Q161.776 187.248 162.56 186.504Q163.34400000000002 185.76 164.464 185.76H169.29600000000002Q170.416 185.76 171.2 186.504Q171.984 187.248 171.984 188.368ZM170.06400000000002 191.392V188.368Q170.06400000000002 187.68 169.29600000000002 187.68H164.464Q163.696 187.68 163.696 188.368V191.392Q163.696 192.08 164.464 192.08H169.29600000000002Q170.06400000000002 192.08 170.06400000000002 191.392ZM183.08800000000002 188.544Q183.08800000000002 189.648 182.48000000000002 190.432Q181.824 191.312 180.752 191.312H174.704V194.0H172.78400000000002V185.76H180.752Q181.824 185.76 182.48000000000002 186.64Q183.08800000000002 187.44 183.08800000000002 188.544ZM181.168 188.544Q181.168 187.68 180.752 187.68H174.704V189.392H180.752Q181.168 189.392 181.168 188.544ZM194.11200000000002 191.392Q194.11200000000002 192.512 193.32800000000003 193.256Q192.54400000000004 194.0 191.42400000000004 194.0H189.95200000000003V195.232H188.03200000000004V194.0H186.57600000000002Q185.45600000000005 194.0 184.67200000000003 193.256Q183.88800000000003 192.512 183.88800000000003 191.392V188.368Q183.88800000000003 187.248 184.67200000000003 186.504Q185.45600000000005 185.76 186.57600000000002 185.76H191.42400000000004Q192.54400000000004 185.76 193.32800000000003 186.504Q194.11200000000002 187.248 194.11200000000002 188.368ZM192.19200000000004 191.392V188.368Q192.19200000000004 187.68 191.42400000000004 187.68H186.57600000000002Q185.80800000000002 187.68 185.80800000000002 188.368V191.392Q185.80800000000002 192.08 186.57600000000002 192.08H188.03200000000004V190.832H189.95200000000003V192.08H191.42400000000004Q192.19200000000004 192.08 192.19200000000004 191.392ZM204.57600000000002 194.0H201.95200000000003L197.84000000000003 189.376H202.78400000000005Q203.31200000000004 189.376 203.31200000000004 188.528Q203.31200000000004 187.68 202.78400000000005 187.68H196.83200000000002V194.0H194.91200000000003V185.76H202.89600000000004Q204.00000000000003 185.76 204.64000000000004 186.624Q205.23200000000003 187.408 205.23200000000003 188.528Q205.23200000000003 189.648 204.64000000000004 190.432Q204.00000000000003 191.296 202.89600000000004 191.296H202.16000000000003ZM215.85600000000005 191.456Q215.85600000000005 192.496 215.23200000000003 193.232Q214.56000000000003 194.0 213.53600000000003 194.0H206.43200000000004V192.08H213.53600000000003Q213.93600000000004 192.08 213.93600000000004 191.456Q213.93600000000004 190.832 213.53600000000003 190.832H208.36800000000005Q207.34400000000005 190.832 206.67200000000003 190.064Q206.03200000000004 189.344 206.03200000000004 188.304Q206.03200000000004 187.264 206.68800000000005 186.512Q207.34400000000005 185.76 208.36800000000005 185.76H215.47200000000004V187.68H208.36800000000005Q207.96800000000005 187.68 207.96800000000005 188.304Q207.96800000000005 188.912 208.36800000000005 188.912H213.53600000000003Q214.56000000000003 188.912 215.23200000000003 189.68Q215.85600000000005 190.416 215.85600000000005 191.456ZM225.77600000000004 187.68H222.06400000000002V194.0H220.14400000000003V187.68H216.43200000000004V185.76H225.77600000000004ZM236.68800000000002 191.44Q236.68800000000002 192.48 236.03200000000004 193.232Q235.37600000000003 193.984 234.35200000000003 193.984H228.91200000000003Q227.872 193.984 227.22400000000002 193.232Q226.57600000000002 192.48 226.57600000000002 191.44V185.76H228.496V191.44Q228.496 192.064 228.91200000000003 192.064H234.35200000000003Q234.752 192.064 234.752 191.44V185.76H236.68800000000002ZM247.07200000000003 185.76 242.88000000000002 194.0H241.24800000000002L237.04000000000002 185.76H239.18400000000003L242.08000000000004 191.392L244.92800000000003 185.76ZM260.49600000000004 185.76 257.536 194.0H255.872L253.96800000000002 188.672L252.06400000000002 194.0H250.38400000000001L247.42400000000004 185.76H249.47200000000004L251.21600000000004 190.672L252.92800000000003 185.76H255.00800000000004L254.97600000000003 185.824L256.68800000000005 190.672L258.464 185.76ZM270.04800000000006 194.0H267.552L265.34400000000005 191.344L263.136 194.0H260.64000000000004L264.09600000000006 189.824L260.73600000000005 185.76H263.232L265.34400000000005 188.32L267.456 185.76H269.95200000000006L266.59200000000004 189.824ZM280.49600000000004 188.304Q280.49600000000004 189.344 279.87200000000007 190.064Q279.20000000000005 190.832 278.17600000000004 190.832H276.4320000000001V194.0H274.51200000000006V190.832H272.73600000000005Q271.71200000000005 190.832 271.05600000000004 190.064Q270.41600000000005 189.344 270.41600000000005 188.304V185.76H272.33600000000007V188.304Q272.33600000000007 188.912 272.73600000000005 188.912H278.17600000000004Q278.5760000000001 188.912 278.5760000000001 188.304V185.76H280.49600000000004ZM290.112 194.0H281.29600000000005V192.08L286.91200000000003 187.68H281.29600000000005V185.76H289.95200000000006L289.9200000000001 187.648L284.40000000000003 192.08H290.112ZM314.944 191.392Q314.944 192.512 314.168 193.256Q313.39200000000005 194.0 312.27200000000005 194.0H309.6Q308.48 194.0 307.696 193.256Q306.91200000000003 192.512 306.91200000000003 191.392V188.368Q306.91200000000003 187.248 307.696 186.504Q308.48 185.76 309.6 185.76H312.27200000000005Q313.39200000000005 185.76 314.168 186.504Q314.944 187.248 314.944 188.368ZM313.02400000000006 191.392V188.368Q313.02400000000006 187.68 312.27200000000005 187.68H309.6Q308.83200000000005 187.68 308.83200000000005 188.368V191.392Q308.83200000000005 192.08 309.6 192.08H312.27200000000005Q313.02400000000006 192.08 313.02400000000006 191.392ZM319.072 194.0H317.15200000000004V187.68H315.29600000000005V185.76H319.072ZM328.576 188.304Q328.576 189.344 327.952 190.064Q327.28000000000003 190.832 326.25600000000003 190.832H324.064Q323.136 190.832 322.72 191.024Q322.12800000000004 191.312 322.0 192.08H328.192V194.0H319.88800000000003L319.872 193.024Q319.808 188.912 324.064 188.912H326.25600000000003Q326.672 188.912 326.672 188.288Q326.672 187.68 326.25600000000003 187.68H320.272V185.76H326.25600000000003Q327.28000000000003 185.76 327.952 186.528Q328.576 187.264 328.576 188.304ZM337.24800000000005 189.824Q338.25600000000003 190.448 338.25600000000003 191.728Q338.25600000000003 192.656 337.66400000000004 193.296Q337.02400000000006 194.0 335.93600000000004 194.0H331.696Q330.60800000000006 194.0 329.968 193.296Q329.37600000000003 192.656 329.37600000000003 191.728V191.456H331.28000000000003Q331.28000000000003 192.08 331.696 192.08H335.93600000000004Q336.35200000000003 192.08 336.35200000000003 191.456Q336.35200000000003 190.832 335.93600000000004 190.832H332.016V188.928H335.776Q336.192 188.928 336.192 188.304Q336.192 187.68 335.776 187.68H331.85600000000005Q331.44000000000005 187.68 331.44000000000005 188.32H329.53600000000006V188.048Q329.53600000000006 187.12 330.112 186.48Q330.752 185.76 331.85600000000005 185.76H335.776Q336.88000000000005 185.76 337.52000000000004 186.464Q338.09600000000006 187.104 338.09600000000006 188.016Q338.09600000000006 189.184 337.24800000000005 189.824ZM347.696 192.336H346.368V194.0H344.432V192.336H339.04L339.05600000000004 190.464L343.776 185.76H346.368V190.416H347.696ZM344.432 190.416V187.6L341.456 190.416ZM356.096 191.392Q356.096 192.512 355.312 193.256Q354.528 194.0 353.408 194.0H350.736Q349.616 194.0 348.832 193.256Q348.048 192.512 348.048 191.392H349.968Q349.968 192.08 350.736 192.08H353.408Q354.176 192.08 354.176 191.392V190.992Q354.176 190.32 353.408 190.32H348.048V185.76H355.632V187.68H349.968V188.4H353.408Q354.528 188.4 355.312 189.13600000000002Q356.096 189.872 356.096 190.992ZM364.944 191.392Q364.944 192.512 364.16 193.256Q363.37600000000003 194.0 362.25600000000003 194.0H359.584Q358.464 194.0 357.68 193.256Q356.896 192.512 356.896 191.392V188.384Q356.896 187.264 357.68 186.512Q358.464 185.76 359.584 185.76H364.144V187.68H359.584Q358.81600000000003 187.68 358.81600000000003 188.384V188.496Q359.184 188.4 359.584 188.4H362.25600000000003Q363.37600000000003 188.4 364.16 189.13600000000002Q364.944 189.872 364.944 190.992ZM363.024 191.392V190.992Q363.024 190.32 362.25600000000003 190.32H359.584Q358.81600000000003 190.32 358.81600000000003 190.992V191.392Q358.81600000000003 192.08 359.584 192.08H362.25600000000003Q363.024 192.08 363.024 191.392ZM373.95200000000006 185.76 373.92 187.648 369.20000000000005 194.0H366.608L371.52000000000004 187.68H365.29600000000005V185.76ZM382.608 189.824Q383.616 190.448 383.616 191.728Q383.616 192.656 383.04 193.296Q382.384 194.0 381.296 194.0H377.072Q375.98400000000004 194.0 375.32800000000003 193.296Q374.752 192.656 374.752 191.728Q374.752 190.448 375.744 189.824Q374.896 189.184 374.896 188.032Q374.896 187.104 375.47200000000004 186.464Q376.112 185.76 377.2 185.76H381.152Q382.24 185.76 382.88 186.464Q383.456 187.104 383.456 188.032Q383.456 189.184 382.608 189.824ZM381.152 188.928Q381.568 188.928 381.568 188.304Q381.568 187.68 381.152 187.68H377.2Q376.8 187.68 376.8 188.304Q376.8 188.928 377.2 188.928ZM381.296 192.08Q381.712 192.08 381.712 191.456Q381.712 190.832 381.296 190.832H377.072Q376.656 190.832 376.656 191.456Q376.656 192.08 377.072 192.08ZM392.448 191.392Q392.448 192.512 391.672 193.256Q390.896 194.0 389.776 194.0H385.69599999999997V192.08H389.776Q390.528 192.08 390.528 191.392V191.376H387.104Q385.968 191.376 385.192 190.64Q384.416 189.904 384.416 188.784V188.384Q384.416 187.264 385.2 186.512Q385.984 185.76 387.104 185.76H389.776Q390.896 185.76 391.672 186.512Q392.448 187.264 392.448 188.384ZM390.528 189.456V188.384Q390.528 187.68 389.776 187.68H387.104Q386.336 187.68 386.336 188.384V188.784Q386.336 189.456 387.104 189.456ZM418.096 191.728Q418.096 192.656 417.536 193.296Q416.896 194.0 415.808 194.0H414.64V195.456H412.704V194.0H411.568Q410.464 194.0 409.824 193.296Q409.248 192.656 409.248 191.744Q409.248 190.464 410.256 189.824Q409.392 189.168 409.392 188.016Q409.392 187.088 409.968 186.464Q410.608 185.76 411.69599999999997 185.76H412.704V184.336H414.64V185.76H415.64799999999997Q416.736 185.76 417.376 186.48Q417.952 187.12 417.952 188.048V188.32H416.06399999999996Q416.06399999999996 187.68 415.64799999999997 187.68H411.69599999999997Q411.296 187.68 411.296 188.304Q411.296 188.928 411.69599999999997 188.928H415.472V190.832H411.568Q411.152 190.832 411.152 191.456Q411.152 192.08 411.568 192.08H415.808Q416.192 192.08 416.192 191.456H418.096ZM421.2 194.0H418.896V192.08H421.2ZM424.304 192.08 423.36 196.256H422.0V192.08ZM427.40799999999996 190.8H425.104V185.76H427.40799999999996ZM427.40799999999996 194.0H425.104V192.08H427.40799999999996ZM436.51199999999994 188.304Q436.51199999999994 189.344 435.888 190.064Q435.21599999999995 190.832 434.19199999999995 190.832H430.09599999999995V188.912H434.19199999999995Q434.60799999999995 188.912 434.60799999999995 188.288Q434.60799999999995 187.68 434.19199999999995 187.68H428.20799999999997V185.76H434.19199999999995Q435.21599999999995 185.76 435.888 186.528Q436.51199999999994 187.264 436.51199999999994 188.304ZM432.4 194.0H430.09599999999995V192.08H432.4Z" fill="#6b7280"/></svg>