<svg xmlns="http://www.w3.org/2000/svg" viewBox="0 0 557.5 222.0" width="557" height="222"><path d="M35.1435546875 48.2607421875V58.705078125H50.708984375V61.625H35.1435546875V73.080078125H51.3828125V76.0H31.6845703125V45.3408203125H51.3828125V48.2607421875ZM73.1923828125 54.52734375V76.0H70.0478515625L70.2724609375 73.1923828125L70.205078125 73.125Q68.5654296875 76.314453125 63.197265625 76.314453125Q55.6728515625 76.314453125 55.6728515625 68.8125V54.52734375H58.8173828125V68.8125Q58.8173828125 71.732421875 59.783203125 72.720703125Q60.7490234375 73.708984375 63.5791015625 73.708984375Q67.28515625 73.708984375 68.66650390625 72.23779296875Q70.0478515625 70.7666015625 70.0478515625 66.8359375V54.52734375ZM79.32421875 54.52734375H82.46875L82.154296875 56.998046875L82.2216796875 57.0654296875Q84.0859375 54.033203125 88.3759765625 54.033203125Q94.3056640625 54.033203125 94.3056640625 60.142578125L94.283203125 61.625H91.18359375L91.2509765625 61.0859375Q91.318359375 60.232421875 91.318359375 59.9404296875Q91.318359375 56.638671875 87.724609375 56.638671875Q82.46875 56.638671875 82.46875 63.1298828125V76.0H79.32421875ZM106.2099609375 54.212890625Q112.162109375 54.212890625 113.9365234375 56.279296875Q115.7109375 58.345703125 115.7109375 65.263671875Q115.7109375 72.181640625 113.9365234375 74.248046875Q112.162109375 76.314453125 106.2099609375 76.314453125Q100.2802734375 76.314453125 98.505859375 74.248046875Q96.7314453125 72.181640625 96.7314453125 65.263671875Q96.7314453125 58.345703125 98.505859375 56.279296875Q100.2802734375 54.212890625 106.2099609375 54.212890625ZM106.2099609375 56.818359375Q102.0322265625 56.818359375 101.03271484375 58.17724609375Q100.033203125 59.5361328125 100.033203125 65.263671875Q100.033203125 70.9912109375 101.03271484375 72.35009765625Q102.0322265625 73.708984375 106.2099609375 73.708984375Q110.41015625 73.708984375 111.40966796875 72.35009765625Q112.4091796875 70.9912109375 112.4091796875 65.263671875Q112.4091796875 59.5361328125 111.40966796875 58.17724609375Q110.41015625 56.818359375 106.2099609375 56.818359375ZM137.2509765625 60.142578125H134.1064453125Q134.1064453125 57.896484375 133.19677734375 57.357421875Q132.287109375 56.818359375 128.513671875 56.818359375Q125.009765625 56.818359375 124.06640625 57.39111328125Q123.123046875 57.9638671875 123.123046875 60.142578125Q123.123046875 63.4443359375 126.2900390625 63.6015625L128.828125 63.736328125L132.0400390625 63.8935546875Q137.8798828125 64.185546875 137.8798828125 70.0029296875Q137.8798828125 73.619140625 135.9482421875 74.966796875Q134.0166015625 76.314453125 128.873046875 76.314453125Q123.5947265625 76.314453125 121.60693359375 75.0341796875Q119.619140625 73.75390625 119.619140625 70.33984375L119.6416015625 69.171875H122.8984375L122.9208984375 70.1826171875Q122.9208984375 72.2939453125 123.9990234375 73.00146484375Q125.0771484375 73.708984375 128.244140625 73.708984375Q132.1298828125 73.708984375 133.35400390625 72.9677734375Q134.578125 72.2265625 134.578125 69.8681640625Q134.578125 66.4765625 131.5009765625 66.4765625Q124.3359375 66.4765625 122.07861328125 65.263671875Q119.8212890625 64.05078125 119.8212890625 60.232421875Q119.8212890625 56.6162109375 121.60693359375 55.41455078125Q123.392578125 54.212890625 128.7158203125 54.212890625Q137.2509765625 54.212890625 137.2509765625 59.3564453125ZM153.7822265625 54.52734375V57.1328125H145.5166015625V70.2724609375Q145.5166015625 73.708984375 148.5712890625 73.708984375Q151.603515625 73.708984375 151.603515625 70.6318359375L151.6259765625 69.576171875L151.6708984375 68.3857421875H154.5908203125L154.61328125 69.98046875Q154.61328125 76.314453125 148.59375 76.314453125Q142.3720703125 76.314453125 142.3720703125 71.0361328125V70.2724609375V57.1328125H139.4072265625V54.52734375H142.3720703125V49.361328125H145.5166015625V54.52734375ZM160.5205078125 45.3408203125V48.8671875H157.3759765625V45.3408203125ZM160.5205078125 54.52734375V76.0H157.3759765625V54.52734375ZM169.16796875 45.3408203125V76.0H166.0234375V45.3408203125ZM189.6298828125 69.5087890625H192.841796875L192.8642578125 70.294921875Q192.8642578125 73.6416015625 190.83154296875 74.97802734375Q188.798828125 76.314453125 183.7001953125 76.314453125Q177.7705078125 76.314453125 175.91748046875 74.14697265625Q174.064453125 71.9794921875 174.064453125 65.0390625Q174.064453125 58.615234375 175.9287109375 56.4140625Q177.79296875 54.212890625 183.228515625 54.212890625Q189.158203125 54.212890625 191.0 56.1220703125Q192.841796875 58.03125 192.841796875 64.1630859375V65.84765625H177.388671875Q177.388671875 70.923828125 178.47802734375 72.31640625Q179.5673828125 73.708984375 183.5654296875 73.708984375Q187.361328125 73.708984375 188.49560546875 73.04638671875Q189.6298828125 72.3837890625 189.6298828125 70.1826171875ZM189.6298828125 63.3994140625 189.607421875 62.388671875Q189.607421875 58.9072265625 188.4619140625 57.86279296875Q187.31640625 56.818359375 183.5205078125 56.818359375Q179.7021484375 56.818359375 178.56787109375 58.04248046875Q177.43359375 59.2666015625 177.43359375 63.3994140625Z" fill="#12151a"/><path d="M32.57177734375 113.13037109375V118.3525390625H40.3544921875V119.8125H32.57177734375V125.5400390625H40.69140625V127.0H30.84228515625V111.67041015625H40.69140625V113.13037109375ZM51.59619140625 116.263671875V127.0H50.02392578125L50.13623046875 125.59619140625L50.1025390625 125.5625Q49.28271484375 127.1572265625 46.5986328125 127.1572265625Q42.83642578125 127.1572265625 42.83642578125 123.40625V116.263671875H44.40869140625V123.40625Q44.40869140625 124.8662109375 44.8916015625 125.3603515625Q45.37451171875 125.8544921875 46.78955078125 125.8544921875Q48.642578125 125.8544921875 49.333251953125 125.118896484375Q50.02392578125 124.38330078125 50.02392578125 122.41796875V116.263671875ZM54.662109375 116.263671875H56.234375L56.0771484375 117.4990234375L56.11083984375 117.53271484375Q57.04296875 116.0166015625 59.18798828125 116.0166015625Q62.15283203125 116.0166015625 62.15283203125 119.0712890625L62.1416015625 119.8125H60.591796875L60.62548828125 119.54296875Q60.6591796875 119.1162109375 60.6591796875 118.97021484375Q60.6591796875 117.3193359375 58.8623046875 117.3193359375Q56.234375 117.3193359375 56.234375 120.56494140625V127.0H54.662109375ZM68.10498046875 116.1064453125Q71.0810546875 116.1064453125 71.96826171875 117.1396484375Q72.85546875 118.1728515625 72.85546875 121.6318359375Q72.85546875 125.0908203125 71.96826171875 126.1240234375Q71.0810546875 127.1572265625 68.10498046875 127.1572265625Q65.14013671875 127.1572265625 64.2529296875 126.1240234375Q63.36572265625 125.0908203125 63.36572265625 121.6318359375Q63.36572265625 118.1728515625 64.2529296875 117.1396484375Q65.14013671875 116.1064453125 68.10498046875 116.1064453125ZM68.10498046875 117.4091796875Q66.01611328125 117.4091796875 65.516357421875 118.088623046875Q65.0166015625 118.76806640625 65.0166015625 121.6318359375Q65.0166015625 124.49560546875 65.516357421875 125.175048828125Q66.01611328125 125.8544921875 68.10498046875 125.8544921875Q70.205078125 125.8544921875 70.704833984375 125.175048828125Q71.20458984375 124.49560546875 71.20458984375 121.6318359375Q71.20458984375 118.76806640625 70.704833984375 118.088623046875Q70.205078125 117.4091796875 68.10498046875 117.4091796875ZM83.62548828125 119.0712890625H82.05322265625Q82.05322265625 117.9482421875 81.598388671875 117.6787109375Q81.1435546875 117.4091796875 79.2568359375 117.4091796875Q77.5048828125 117.4091796875 77.033203125 117.695556640625Q76.5615234375 117.98193359375 76.5615234375 119.0712890625Q76.5615234375 120.72216796875 78.14501953125 120.80078125L79.4140625 120.8681640625L81.02001953125 120.94677734375Q83.93994140625 121.0927734375 83.93994140625 124.00146484375Q83.93994140625 125.8095703125 82.97412109375 126.4833984375Q82.00830078125 127.1572265625 79.4365234375 127.1572265625Q76.79736328125 127.1572265625 75.803466796875 126.51708984375Q74.8095703125 125.876953125 74.8095703125 124.169921875L74.82080078125 123.5859375H76.44921875L76.46044921875 124.09130859375Q76.46044921875 125.14697265625 76.99951171875 125.500732421875Q77.53857421875 125.8544921875 79.1220703125 125.8544921875Q81.06494140625 125.8544921875 81.677001953125 125.48388671875Q82.2890625 125.11328125 82.2890625 123.93408203125Q82.2890625 122.23828125 80.75048828125 122.23828125Q77.16796875 122.23828125 76.039306640625 121.6318359375Q74.91064453125 121.025390625 74.91064453125 119.1162109375Q74.91064453125 117.30810546875 75.803466796875 116.707275390625Q76.6962890625 116.1064453125 79.35791015625 116.1064453125Q83.62548828125 116.1064453125 83.62548828125 118.67822265625ZM91.89111328125 116.263671875V117.56640625H87.75830078125V124.13623046875Q87.75830078125 125.8544921875 89.28564453125 125.8544921875Q90.8017578125 125.8544921875 90.8017578125 124.31591796875L90.81298828125 123.7880859375L90.83544921875 123.19287109375H92.29541015625L92.306640625 123.990234375Q92.306640625 127.1572265625 89.296875 127.1572265625Q86.18603515625 127.1572265625 86.18603515625 124.51806640625V124.13623046875V117.56640625H84.70361328125V116.263671875H86.18603515625V113.6806640625H87.75830078125V116.263671875ZM95.26025390625 111.67041015625V113.43359375H93.68798828125V111.67041015625ZM95.26025390625 116.263671875V127.0H93.68798828125V116.263671875ZM99.583984375 111.67041015625V127.0H98.01171875V111.67041015625ZM109.81494140625 123.75439453125H111.4208984375L111.43212890625 124.1474609375Q111.43212890625 125.82080078125 110.415771484375 126.489013671875Q109.3994140625 127.1572265625 106.85009765625 127.1572265625Q103.88525390625 127.1572265625 102.958740234375 126.073486328125Q102.0322265625 124.98974609375 102.0322265625 121.51953125Q102.0322265625 118.3076171875 102.96435546875 117.20703125Q103.896484375 116.1064453125 106.6142578125 116.1064453125Q109.5791015625 116.1064453125 110.5 117.06103515625Q111.4208984375 118.015625 111.4208984375 121.08154296875V121.923828125H103.6943359375Q103.6943359375 124.4619140625 104.239013671875 125.158203125Q104.78369140625 125.8544921875 106.78271484375 125.8544921875Q108.6806640625 125.8544921875 109.247802734375 125.523193359375Q109.81494140625 125.19189453125 109.81494140625 124.09130859375ZM109.81494140625 120.69970703125 109.8037109375 120.1943359375Q109.8037109375 118.45361328125 109.23095703125 117.931396484375Q108.658203125 117.4091796875 106.76025390625 117.4091796875Q104.85107421875 117.4091796875 104.283935546875 118.021240234375Q103.716796875 118.63330078125 103.716796875 120.69970703125ZM127.974609375 119.0712890625H126.40234375Q126.40234375 117.9482421875 125.947509765625 117.6787109375Q125.49267578125 117.4091796875 123.60595703125 117.4091796875Q121.85400390625 117.4091796875 121.38232421875 117.695556640625Q120.91064453125 117.98193359375 120.91064453125 119.0712890625Q120.91064453125 120.72216796875 122.494140625 120.80078125L123.76318359375 120.8681640625L125.369140625 120.94677734375Q128.2890625 121.0927734375 128.2890625 124.00146484375Q128.2890625 125.8095703125 127.3232421875 126.4833984375Q126.357421875 127.1572265625 123.78564453125 127.1572265625Q121.146484375 127.1572265625 120.152587890625 126.51708984375Q119.15869140625 125.876953125 119.15869140625 124.169921875L119.169921875 123.5859375H120.79833984375L120.8095703125 124.09130859375Q120.8095703125 125.14697265625 121.3486328125 125.500732421875Q121.8876953125 125.8544921875 123.47119140625 125.8544921875Q125.4140625 125.8544921875 126.026123046875 125.48388671875Q126.63818359375 125.11328125 126.63818359375 123.93408203125Q126.63818359375 122.23828125 125.099609375 122.23828125Q121.51708984375 122.23828125 120.388427734375 121.6318359375Q119.259765625 121.025390625 119.259765625 119.1162109375Q119.259765625 117.30810546875 120.152587890625 116.707275390625Q121.04541015625 116.1064453125 123.70703125 116.1064453125Q127.974609375 116.1064453125 127.974609375 118.67822265625ZM139.51953125 116.263671875V131.6044921875H137.947265625V125.697265625L137.91357421875 125.66357421875Q137.2060546875 127.1572265625 134.38720703125 127.1572265625Q132.0625 127.1572265625 131.15283203125 125.9443359375Q130.2431640625 124.7314453125 130.2431640625 121.62060546875Q130.2431640625 118.509765625 131.1640625 117.30810546875Q132.0849609375 116.1064453125 134.47705078125 116.1064453125Q137.10498046875 116.1064453125 137.9921875 117.62255859375L138.02587890625 117.5888671875L137.947265625 116.263671875ZM134.72412109375 117.4091796875Q132.9833984375 117.4091796875 132.438720703125 118.25146484375Q131.89404296875 119.09375 131.89404296875 121.77783203125Q131.89404296875 124.29345703125 132.45556640625 125.073974609375Q133.01708984375 125.8544921875 134.81396484375 125.8544921875Q136.64453125 125.8544921875 137.2734375 125.051513671875Q137.90234375 124.24853515625 137.90234375 121.89013671875Q137.90234375 119.03759765625 137.323974609375 118.223388671875Q136.74560546875 117.4091796875 134.72412109375 117.4091796875ZM151.03076171875 116.263671875V127.0H149.45849609375L149.57080078125 125.59619140625L149.537109375 125.5625Q148.71728515625 127.1572265625 146.033203125 127.1572265625Q142.27099609375 127.1572265625 142.27099609375 123.40625V116.263671875H143.84326171875V123.40625Q143.84326171875 124.8662109375 144.326171875 125.3603515625Q144.80908203125 125.8544921875 146.22412109375 125.8544921875Q148.0771484375 125.8544921875 148.767822265625 125.118896484375Q149.45849609375 124.38330078125 149.45849609375 122.41796875V116.263671875ZM155.5791015625 119.2734375H154.01806640625Q154.01806640625 117.39794921875 154.865966796875 116.752197265625Q155.7138671875 116.1064453125 158.1845703125 116.1064453125Q160.86865234375 116.1064453125 161.81201171875 116.898193359375Q162.75537109375 117.68994140625 162.75537109375 119.91357421875V127.0H161.18310546875L161.306640625 125.84326171875L161.27294921875 125.83203125Q160.37451171875 127.1572265625 157.623046875 127.1572265625Q153.5576171875 127.1572265625 153.5576171875 123.88916015625Q153.5576171875 121.9462890625 154.46728515625 121.205078125Q155.376953125 120.4638671875 157.7578125 120.4638671875Q160.587890625 120.4638671875 161.1494140625 121.57568359375L161.18310546875 121.564453125V120.26171875Q161.18310546875 118.419921875 160.677734375 117.875244140625Q160.17236328125 117.33056640625 158.46533203125 117.33056640625Q155.56787109375 117.33056640625 155.56787109375 118.958984375Q155.56787109375 119.03759765625 155.5791015625 119.2734375ZM158.10595703125 121.68798828125Q156.2978515625 121.68798828125 155.753173828125 122.06982421875Q155.20849609375 122.45166015625 155.20849609375 123.70947265625Q155.20849609375 125.01220703125 155.74755859375 125.433349609375Q156.28662109375 125.8544921875 157.9375 125.8544921875Q161.26171875 125.8544921875 161.26171875 123.8330078125Q161.26171875 122.56396484375 160.615966796875 122.1259765625Q159.97021484375 121.68798828125 158.10595703125 121.68798828125ZM165.8212890625 116.263671875H167.3935546875L167.236328125 117.4990234375L167.27001953125 117.53271484375Q168.2021484375 116.0166015625 170.34716796875 116.0166015625Q173.31201171875 116.0166015625 173.31201171875 119.0712890625L173.30078125 119.8125H171.7509765625L171.78466796875 119.54296875Q171.818359375 119.1162109375 171.818359375 118.97021484375Q171.818359375 117.3193359375 170.021484375 117.3193359375Q167.3935546875 117.3193359375 167.3935546875 120.56494140625V127.0H165.8212890625ZM182.29638671875 123.75439453125H183.90234375L183.91357421875 124.1474609375Q183.91357421875 125.82080078125 182.897216796875 126.489013671875Q181.880859375 127.1572265625 179.33154296875 127.1572265625Q176.36669921875 127.1572265625 175.440185546875 126.073486328125Q174.513671875 124.98974609375 174.513671875 121.51953125Q174.513671875 118.3076171875 175.44580078125 117.20703125Q176.3779296875 116.1064453125 179.095703125 116.1064453125Q182.060546875 116.1064453125 182.9814453125 117.06103515625Q183.90234375 118.015625 183.90234375 121.08154296875V121.923828125H176.17578125Q176.17578125 124.4619140625 176.720458984375 125.158203125Q177.26513671875 125.8544921875 179.26416015625 125.8544921875Q181.162109375 125.8544921875 181.729248046875 125.523193359375Q182.29638671875 125.19189453125 182.29638671875 124.09130859375ZM182.29638671875 120.69970703125 182.28515625 120.1943359375Q182.28515625 118.45361328125 181.71240234375 117.931396484375Q181.1396484375 117.4091796875 179.24169921875 117.4091796875Q177.33251953125 117.4091796875 176.765380859375 118.021240234375Q176.1982421875 118.63330078125 176.1982421875 120.69970703125ZM194.7060546875 119.0712890625H193.1337890625Q193.1337890625 117.9482421875 192.678955078125 117.6787109375Q192.22412109375 117.4091796875 190.33740234375 117.4091796875Q188.58544921875 117.4091796875 188.11376953125 117.695556640625Q187.64208984375 117.98193359375 187.64208984375 119.0712890625Q187.64208984375 120.72216796875 189.2255859375 120.80078125L190.49462890625 120.8681640625L192.1005859375 120.94677734375Q195.0205078125 121.0927734375 195.0205078125 124.00146484375Q195.0205078125 125.8095703125 194.0546875 126.4833984375Q193.0888671875 127.1572265625 190.51708984375 127.1572265625Q187.8779296875 127.1572265625 186.884033203125 126.51708984375Q185.89013671875 125.876953125 185.89013671875 124.169921875L185.9013671875 123.5859375H187.52978515625L187.541015625 124.09130859375Q187.541015625 125.14697265625 188.080078125 125.500732421875Q188.619140625 125.8544921875 190.20263671875 125.8544921875Q192.1455078125 125.8544921875 192.757568359375 125.48388671875Q193.36962890625 125.11328125 193.36962890625 123.93408203125Q193.36962890625 122.23828125 191.8310546875 122.23828125Q188.24853515625 122.23828125 187.119873046875 121.6318359375Q185.9912109375 121.025390625 185.9912109375 119.1162109375Q185.9912109375 117.30810546875 186.884033203125 116.707275390625Q187.77685546875 116.1064453125 190.4384765625 116.1064453125Q194.7060546875 116.1064453125 194.7060546875 118.67822265625ZM207.4638671875 116.1064453125Q210.43994140625 116.1064453125 211.3271484375 117.1396484375Q212.21435546875 118.1728515625 212.21435546875 121.6318359375Q212.21435546875 125.0908203125 211.3271484375 126.1240234375Q210.43994140625 127.1572265625 207.4638671875 127.1572265625Q204.4990234375 127.1572265625 203.61181640625 126.1240234375Q202.724609375 125.0908203125 202.724609375 121.6318359375Q202.724609375 118.1728515625 203.61181640625 117.1396484375Q204.4990234375 116.1064453125 207.4638671875 116.1064453125ZM207.4638671875 117.4091796875Q205.375 117.4091796875 204.875244140625 118.088623046875Q204.37548828125 118.76806640625 204.37548828125 121.6318359375Q204.37548828125 124.49560546875 204.875244140625 125.175048828125Q205.375 125.8544921875 207.4638671875 125.8544921875Q209.56396484375 125.8544921875 210.063720703125 125.175048828125Q210.5634765625 124.49560546875 210.5634765625 121.6318359375Q210.5634765625 118.76806640625 210.063720703125 118.088623046875Q209.56396484375 117.4091796875 207.4638671875 117.4091796875ZM215.078125 127.0V117.56640625H213.4384765625V116.263671875H215.078125V114.6689453125Q215.078125 111.51318359375 218.32373046875 111.51318359375Q218.806640625 111.51318359375 219.4580078125 111.591796875V112.89453125Q218.6943359375 112.81591796875 218.34619140625 112.81591796875Q216.650390625 112.81591796875 216.650390625 114.52294921875V116.263671875H219.4580078125V117.56640625H216.650390625V127.0ZM221.17626953125 127.0V117.56640625H219.53662109375V116.263671875H221.17626953125V114.6689453125Q221.17626953125 111.51318359375 224.421875 111.51318359375Q224.90478515625 111.51318359375 225.55615234375 111.591796875V112.89453125Q224.79248046875 112.81591796875 224.4443359375 112.81591796875Q222.74853515625 112.81591796875 222.74853515625 114.52294921875V116.263671875H225.55615234375V117.56640625H222.74853515625V127.0ZM238.302734375 116.263671875V117.56640625H234.169921875V124.13623046875Q234.169921875 125.8544921875 235.697265625 125.8544921875Q237.21337890625 125.8544921875 237.21337890625 124.31591796875L237.224609375 123.7880859375L237.2470703125 123.19287109375H238.70703125L238.71826171875 123.990234375Q238.71826171875 127.1572265625 235.70849609375 127.1572265625Q232.59765625 127.1572265625 232.59765625 124.51806640625V124.13623046875V117.56640625H231.115234375V116.263671875H232.59765625V113.6806640625H234.169921875V116.263671875ZM241.671875 111.67041015625V117.5888671875L241.70556640625 117.611328125Q242.30078125 116.1064453125 245.02978515625 116.1064453125Q249.07275390625 116.1064453125 249.07275390625 119.7001953125V120.13818359375V127.0H247.50048828125V120.13818359375V119.8349609375Q247.50048828125 117.4091796875 245.0185546875 117.4091796875Q243.01953125 117.4091796875 242.345703125 118.122314453125Q241.671875 118.83544921875 241.671875 120.9580078125V127.0H240.099609375V111.67041015625ZM259.3935546875 123.75439453125H260.99951171875L261.0107421875 124.1474609375Q261.0107421875 125.82080078125 259.994384765625 126.489013671875Q258.97802734375 127.1572265625 256.4287109375 127.1572265625Q253.4638671875 127.1572265625 252.537353515625 126.073486328125Q251.61083984375 124.98974609375 251.61083984375 121.51953125Q251.61083984375 118.3076171875 252.54296875 117.20703125Q253.47509765625 116.1064453125 256.19287109375 116.1064453125Q259.15771484375 116.1064453125 260.07861328125 117.06103515625Q260.99951171875 118.015625 260.99951171875 121.08154296875V121.923828125H253.27294921875Q253.27294921875 124.4619140625 253.817626953125 125.158203125Q254.3623046875 125.8544921875 256.361328125 125.8544921875Q258.25927734375 125.8544921875 258.826416015625 125.523193359375Q259.3935546875 125.19189453125 259.3935546875 124.09130859375ZM259.3935546875 120.69970703125 259.38232421875 120.1943359375Q259.38232421875 118.45361328125 258.8095703125 117.931396484375Q258.23681640625 117.4091796875 256.3388671875 117.4091796875Q254.4296875 117.4091796875 253.862548828125 118.021240234375Q253.29541015625 118.63330078125 253.29541015625 120.69970703125ZM273.66748046875 116.1064453125Q276.6435546875 116.1064453125 277.53076171875 117.1396484375Q278.41796875 118.1728515625 278.41796875 121.6318359375Q278.41796875 125.0908203125 277.53076171875 126.1240234375Q276.6435546875 127.1572265625 273.66748046875 127.1572265625Q270.70263671875 127.1572265625 269.8154296875 126.1240234375Q268.92822265625 125.0908203125 268.92822265625 121.6318359375Q268.92822265625 118.1728515625 269.8154296875 117.1396484375Q270.70263671875 116.1064453125 273.66748046875 116.1064453125ZM273.66748046875 117.4091796875Q271.57861328125 117.4091796875 271.078857421875 118.088623046875Q270.5791015625 118.76806640625 270.5791015625 121.6318359375Q270.5791015625 124.49560546875 271.078857421875 125.175048828125Q271.57861328125 125.8544921875 273.66748046875 125.8544921875Q275.767578125 125.8544921875 276.267333984375 125.175048828125Q276.76708984375 124.49560546875 276.76708984375 121.6318359375Q276.76708984375 118.76806640625 276.267333984375 118.088623046875Q275.767578125 117.4091796875 273.66748046875 117.4091796875ZM281.0234375 116.263671875H282.595703125L282.4384765625 117.4990234375L282.47216796875 117.53271484375Q283.404296875 116.0166015625 285.54931640625 116.0166015625Q288.51416015625 116.0166015625 288.51416015625 119.0712890625L288.5029296875 119.8125H286.953125L286.98681640625 119.54296875Q287.0205078125 119.1162109375 287.0205078125 118.97021484375Q287.0205078125 117.3193359375 285.2236328125 117.3193359375Q282.595703125 117.3193359375 282.595703125 120.56494140625V127.0H281.0234375ZM291.6025390625 111.67041015625V113.43359375H290.0302734375V111.67041015625ZM291.6025390625 116.263671875V127.0H290.0302734375V116.263671875ZM303.33837890625 116.263671875V127.6962890625Q303.33837890625 130.0322265625 302.32763671875 130.908203125Q301.31689453125 131.7841796875 298.62158203125 131.7841796875Q296.21826171875 131.7841796875 295.34228515625 131.04296875Q294.46630859375 130.3017578125 294.46630859375 128.26904296875H295.982421875Q295.982421875 129.650390625 296.493408203125 130.06591796875Q297.00439453125 130.4814453125 298.73388671875 130.4814453125Q300.53076171875 130.4814453125 301.1484375 129.9423828125Q301.76611328125 129.4033203125 301.76611328125 127.8310546875V125.6748046875L301.732421875 125.66357421875Q301.1259765625 127.1572265625 298.228515625 127.1572265625Q295.84765625 127.1572265625 294.94921875 125.983642578125Q294.05078125 124.81005859375 294.05078125 121.69921875Q294.05078125 118.47607421875 294.966064453125 117.291259765625Q295.88134765625 116.1064453125 298.36328125 116.1064453125Q301.00244140625 116.1064453125 301.81103515625 117.7236328125L301.8447265625 117.71240234375L301.76611328125 116.263671875ZM298.6552734375 117.4091796875Q296.80224609375 117.4091796875 296.251953125 118.189697265625Q295.70166015625 118.97021484375 295.70166015625 121.609375Q295.70166015625 124.27099609375 296.251953125 125.062744140625Q296.80224609375 125.8544921875 298.6552734375 125.8544921875Q300.53076171875 125.8544921875 301.1259765625 124.984130859375Q301.72119140625 124.11376953125 301.72119140625 121.3623046875Q301.72119140625 118.9365234375 301.1259765625 118.1728515625Q300.53076171875 117.4091796875 298.6552734375 117.4091796875ZM307.662109375 111.67041015625V113.43359375H306.08984375V111.67041015625ZM307.662109375 116.263671875V127.0H306.08984375V116.263671875ZM310.41357421875 116.263671875H311.9296875L311.884765625 117.7236328125L311.9296875 117.75732421875Q312.6484375 116.1064453125 315.5009765625 116.1064453125Q317.80322265625 116.1064453125 318.617431640625 116.9150390625Q319.431640625 117.7236328125 319.431640625 120.0146484375V127.0H317.859375V120.1494140625V119.7451171875Q317.859375 118.36376953125 317.33154296875 117.886474609375Q316.8037109375 117.4091796875 315.298828125 117.4091796875Q311.98583984375 117.4091796875 311.98583984375 120.54248046875V127.0H310.41357421875ZM323.91259765625 119.2734375H322.3515625Q322.3515625 117.39794921875 323.199462890625 116.752197265625Q324.04736328125 116.1064453125 326.51806640625 116.1064453125Q329.2021484375 116.1064453125 330.1455078125 116.898193359375Q331.0888671875 117.68994140625 331.0888671875 119.91357421875V127.0H329.5166015625L329.64013671875 125.84326171875L329.6064453125 125.83203125Q328.7080078125 127.1572265625 325.95654296875 127.1572265625Q321.89111328125 127.1572265625 321.89111328125 123.88916015625Q321.89111328125 121.9462890625 322.80078125 121.205078125Q323.71044921875 120.4638671875 326.09130859375 120.4638671875Q328.92138671875 120.4638671875 329.48291015625 121.57568359375L329.5166015625 121.564453125V120.26171875Q329.5166015625 118.419921875 329.01123046875 117.875244140625Q328.505859375 117.33056640625 326.798828125 117.33056640625Q323.9013671875 117.33056640625 323.9013671875 118.958984375Q323.9013671875 119.03759765625 323.91259765625 119.2734375ZM326.439453125 121.68798828125Q324.63134765625 121.68798828125 324.086669921875 122.06982421875Q323.5419921875 122.45166015625 323.5419921875 123.70947265625Q323.5419921875 125.01220703125 324.0810546875 125.433349609375Q324.6201171875 125.8544921875 326.27099609375 125.8544921875Q329.59521484375 125.8544921875 329.59521484375 123.8330078125Q329.59521484375 122.56396484375 328.949462890625 122.1259765625Q328.3037109375 121.68798828125 326.439453125 121.68798828125ZM335.56982421875 111.67041015625V127.0H333.99755859375V111.67041015625ZM365.62255859375 111.67041015625 360.79345703125 127.0H358.16552734375L354.9423828125 115.96044921875L354.5380859375 114.5791015625Q354.50439453125 114.466796875 354.34716796875 113.89404296875L354.14501953125 113.19775390625H354.111328125L353.92041015625 113.89404296875L353.71826171875 114.59033203125L353.302734375 115.98291015625L350.0234375 127.0H347.4404296875L342.73486328125 111.67041015625H344.50927734375L347.81103515625 122.6875L348.26025390625 124.18115234375Q348.31640625 124.36083984375 348.48486328125 124.92236328125L348.6982421875 125.6748046875H348.73193359375L348.9453125 124.92236328125L349.15869140625 124.18115234375L349.5966796875 122.69873046875L352.853515625 111.67041015625H355.4140625L358.6484375 122.7099609375L359.08642578125 124.18115234375L359.28857421875 124.93359375L359.501953125 125.6748046875H359.53564453125L359.76025390625 124.92236328125L359.98486328125 124.169921875L360.4453125 122.6650390625L363.814453125 111.67041015625ZM368.62109375 111.67041015625V113.43359375H367.048828125V111.67041015625ZM368.62109375 116.263671875V127.0H367.048828125V116.263671875ZM371.37255859375 116.263671875H372.94482421875L372.8662109375 117.62255859375L372.9111328125 117.65625Q373.73095703125 116.1064453125 376.4375 116.1064453125Q378.82958984375 116.1064453125 379.72802734375 117.3193359375Q380.62646484375 118.5322265625 380.62646484375 121.7890625Q380.62646484375 124.81005859375 379.716796875 125.983642578125Q378.80712890625 127.1572265625 376.482421875 127.1572265625Q373.83203125 127.1572265625 372.978515625 125.73095703125H372.94482421875V131.6044921875H371.37255859375ZM375.99951171875 117.4091796875Q374.11279296875 117.4091796875 373.5400390625 118.223388671875Q372.96728515625 119.03759765625 372.96728515625 121.7216796875Q372.96728515625 124.20361328125 373.5849609375 125.029052734375Q374.20263671875 125.8544921875 376.06689453125 125.8544921875Q377.84130859375 125.8544921875 378.408447265625 125.05712890625Q378.9755859375 124.259765625 378.9755859375 121.7666015625Q378.9755859375 119.0263671875 378.42529296875 118.2177734375Q377.875 117.4091796875 375.99951171875 117.4091796875ZM384.298828125 113.13037109375V118.3525390625H392.08154296875V119.8125H384.298828125V125.5400390625H392.41845703125V127.0H382.5693359375V111.67041015625H392.41845703125V113.13037109375ZM398.99951171875 116.1064453125Q401.9755859375 116.1064453125 402.86279296875 117.1396484375Q403.75 118.1728515625 403.75 121.6318359375Q403.75 125.0908203125 402.86279296875 126.1240234375Q401.9755859375 127.1572265625 398.99951171875 127.1572265625Q396.03466796875 127.1572265625 395.1474609375 126.1240234375Q394.26025390625 125.0908203125 394.26025390625 121.6318359375Q394.26025390625 118.1728515625 395.1474609375 117.1396484375Q396.03466796875 116.1064453125 398.99951171875 116.1064453125ZM398.99951171875 117.4091796875Q396.91064453125 117.4091796875 396.410888671875 118.088623046875Q395.9111328125 118.76806640625 395.9111328125 121.6318359375Q395.9111328125 124.49560546875 396.410888671875 125.175048828125Q396.91064453125 125.8544921875 398.99951171875 125.8544921875Q401.099609375 125.8544921875 401.599365234375 125.175048828125Q402.09912109375 124.49560546875 402.09912109375 121.6318359375Q402.09912109375 118.76806640625 401.599365234375 118.088623046875Q401.099609375 117.4091796875 398.99951171875 117.4091796875ZM414.9580078125 116.263671875V127.0H413.3857421875L413.498046875 125.59619140625L413.46435546875 125.5625Q412.64453125 127.1572265625 409.96044921875 127.1572265625Q406.1982421875 127.1572265625 406.1982421875 123.40625V116.263671875H407.7705078125V123.40625Q407.7705078125 124.8662109375 408.25341796875 125.3603515625Q408.736328125 125.8544921875 410.1513671875 125.8544921875Q412.00439453125 125.8544921875 412.695068359375 125.118896484375Q413.3857421875 124.38330078125 413.3857421875 122.41796875V116.263671875ZM423.560546875 116.263671875V117.56640625H419.427734375V124.13623046875Q419.427734375 125.8544921875 420.955078125 125.8544921875Q422.47119140625 125.8544921875 422.47119140625 124.31591796875L422.482421875 123.7880859375L422.5048828125 123.19287109375H423.96484375L423.97607421875 123.990234375Q423.97607421875 127.1572265625 420.96630859375 127.1572265625Q417.85546875 127.1572265625 417.85546875 124.51806640625V124.13623046875V117.56640625H416.373046875V116.263671875H417.85546875V113.6806640625H419.427734375V116.263671875ZM445.078125 116.263671875 442.068359375 127.0H439.732421875L438.294921875 121.03662109375L437.85693359375 119.21728515625L437.65478515625 118.3076171875L437.44140625 117.39794921875H437.40771484375L437.1943359375 118.3076171875L436.98095703125 119.21728515625L436.54296875 121.03662109375L435.09423828125 127.0H432.71337890625L429.8046875 116.263671875H431.45556640625L432.9716796875 122.20458984375L433.443359375 124.06884765625L433.66796875 125.0009765625L433.892578125 125.93310546875H433.9375L434.15087890625 125.0009765625L434.37548828125 124.06884765625L434.82470703125 122.2158203125L436.2958984375 116.263671875H438.5869140625L440.046875 122.22705078125L440.49609375 124.080078125L440.70947265625 125.0009765625L440.9228515625 125.93310546875H440.95654296875L441.1923828125 125.0009765625L441.4169921875 124.06884765625L441.888671875 122.20458984375L443.3935546875 116.263671875ZM450.962890625 116.1064453125Q453.93896484375 116.1064453125 454.826171875 117.1396484375Q455.71337890625 118.1728515625 455.71337890625 121.6318359375Q455.71337890625 125.0908203125 454.826171875 126.1240234375Q453.93896484375 127.1572265625 450.962890625 127.1572265625Q447.998046875 127.1572265625 447.11083984375 126.1240234375Q446.2236328125 125.0908203125 446.2236328125 121.6318359375Q446.2236328125 118.1728515625 447.11083984375 117.1396484375Q447.998046875 116.1064453125 450.962890625 116.1064453125ZM450.962890625 117.4091796875Q448.8740234375 117.4091796875 448.374267578125 118.088623046875Q447.87451171875 118.76806640625 447.87451171875 121.6318359375Q447.87451171875 124.49560546875 448.374267578125 125.175048828125Q448.8740234375 125.8544921875 450.962890625 125.8544921875Q453.06298828125 125.8544921875 453.562744140625 125.175048828125Q454.0625 124.49560546875 454.0625 121.6318359375Q454.0625 118.76806640625 453.562744140625 118.088623046875Q453.06298828125 117.4091796875 450.962890625 117.4091796875ZM458.31884765625 116.263671875H459.89111328125L459.73388671875 117.4990234375L459.767578125 117.53271484375Q460.69970703125 116.0166015625 462.8447265625 116.0166015625Q465.8095703125 116.0166015625 465.8095703125 119.0712890625L465.79833984375 119.8125H464.24853515625L464.2822265625 119.54296875Q464.31591796875 119.1162109375 464.31591796875 118.97021484375Q464.31591796875 117.3193359375 462.51904296875 117.3193359375Q459.89111328125 117.3193359375 459.89111328125 120.56494140625V127.0H458.31884765625ZM476.298828125 111.67041015625V127.0H474.7265625L474.80517578125 125.607421875L474.76025390625 125.59619140625Q474.01904296875 127.1572265625 471.3125 127.1572265625Q468.841796875 127.1572265625 467.937744140625 125.95556640625Q467.03369140625 124.75390625 467.03369140625 121.474609375Q467.03369140625 118.45361328125 467.943359375 117.280029296875Q468.85302734375 116.1064453125 471.2001953125 116.1064453125Q474.13134765625 116.1064453125 474.69287109375 117.62255859375L474.7265625 117.60009765625V111.67041015625ZM471.57080078125 117.4091796875Q469.830078125 117.4091796875 469.25732421875 118.212158203125Q468.6845703125 119.01513671875 468.6845703125 121.46337890625Q468.6845703125 124.15869140625 469.251708984375 125.006591796875Q469.81884765625 125.8544921875 471.6044921875 125.8544921875Q473.54736328125 125.8544921875 474.13134765625 125.006591796875Q474.71533203125 124.15869140625 474.71533203125 121.3173828125Q474.71533203125 119.01513671875 474.069580078125 118.212158203125Q473.423828125 117.4091796875 471.57080078125 117.4091796875ZM479.0615234375 116.263671875H480.6337890625L480.60009765625 117.880859375L480.6337890625 117.91455078125Q481.54345703125 116.1064453125 484.1376953125 116.1064453125Q486.86669921875 116.1064453125 487.45068359375 117.91455078125H487.49560546875Q488.50634765625 116.1064453125 491.1904296875 116.1064453125Q494.986328125 116.1064453125 494.986328125 119.98095703125V127.0H493.4140625V119.8349609375Q493.4140625 118.419921875 492.90869140625 117.91455078125Q492.4033203125 117.4091796875 490.99951171875 117.4091796875Q489.13525390625 117.4091796875 488.47265625 118.111083984375Q487.81005859375 118.81298828125 487.81005859375 120.78955078125V127.0H486.23779296875V119.98095703125L486.21533203125 119.48681640625Q486.21533203125 117.4091796875 483.845703125 117.4091796875Q480.6337890625 117.4091796875 480.6337890625 120.90185546875V127.0H479.0615234375ZM499.69189453125 119.2734375H498.130859375Q498.130859375 117.39794921875 498.978759765625 116.752197265625Q499.82666015625 116.1064453125 502.29736328125 116.1064453125Q504.9814453125 116.1064453125 505.9248046875 116.898193359375Q506.8681640625 117.68994140625 506.8681640625 119.91357421875V127.0H505.2958984375L505.41943359375 125.84326171875L505.3857421875 125.83203125Q504.4873046875 127.1572265625 501.73583984375 127.1572265625Q497.67041015625 127.1572265625 497.67041015625 123.88916015625Q497.67041015625 121.9462890625 498.580078125 121.205078125Q499.48974609375 120.4638671875 501.87060546875 120.4638671875Q504.70068359375 120.4638671875 505.26220703125 121.57568359375L505.2958984375 121.564453125V120.26171875Q505.2958984375 118.419921875 504.79052734375 117.875244140625Q504.28515625 117.33056640625 502.578125 117.33056640625Q499.6806640625 117.33056640625 499.6806640625 118.958984375Q499.6806640625 119.03759765625 499.69189453125 119.2734375ZM502.21875 121.68798828125Q500.41064453125 121.68798828125 499.865966796875 122.06982421875Q499.3212890625 122.45166015625 499.3212890625 123.70947265625Q499.3212890625 125.01220703125 499.8603515625 125.433349609375Q500.3994140625 125.8544921875 502.05029296875 125.8544921875Q505.37451171875 125.8544921875 505.37451171875 123.8330078125Q505.37451171875 122.56396484375 504.728759765625 122.1259765625Q504.0830078125 121.68798828125 502.21875 121.68798828125ZM509.93408203125 116.263671875H511.50634765625L511.34912109375 117.4990234375L511.3828125 117.53271484375Q512.31494140625 116.0166015625 514.4599609375 116.0166015625Q517.4248046875 116.0166015625 517.4248046875 119.0712890625L517.41357421875 119.8125H515.86376953125L515.8974609375 119.54296875Q515.93115234375 119.1162109375 515.93115234375 118.97021484375Q515.93115234375 117.3193359375 514.13427734375 117.3193359375Q511.50634765625 117.3193359375 511.50634765625 120.56494140625V127.0H509.93408203125ZM520.51318359375 111.67041015625V120.576171875H521.23193359375L525.02783203125 116.263671875H527.00439453125L522.4111328125 121.19384765625L527.83544921875 127.0H525.712890625L521.1533203125 121.80029296875H520.51318359375V127.0H518.94091796875V111.67041015625Z" fill="#3a3f47"/><path d="M37.5703125 162.7421875H32.171875L31.3515625 165.0H30.078125L33.984375 154.3359375H35.671875L39.65625 165.0H38.3984375ZM37.21875 161.8359375 34.8515625 155.3203125 32.515625 161.8359375ZM40.75 165.0V154.3359375H45.46875Q47.4296875 154.3359375 48.03515625 154.875Q48.640625 155.4140625 48.640625 157.15625Q48.640625 158.9296875 47.2734375 159.3984375V159.421875Q48.96875 159.828125 48.96875 161.9296875Q48.96875 163.625 48.30078125 164.3125Q47.6328125 165.0 45.9765625 165.0ZM41.953125 159.0234375H45.1171875Q46.625 159.0234375 47.05859375 158.6640625Q47.4921875 158.3046875 47.4921875 157.0625Q47.4921875 155.984375 47.11328125 155.66796875Q46.734375 155.3515625 45.4453125 155.3515625H41.953125ZM41.953125 163.984375H44.5078125L45.59375 163.9765625Q46.96875 163.9765625 47.39453125 163.62109375Q47.8203125 163.265625 47.8203125 162.1171875Q47.8203125 160.6875 47.390625 160.36328125Q46.9609375 160.0390625 45.0546875 160.0390625H41.953125ZM57.6171875 161.4375H58.8125V161.84375Q58.8125 164.0234375 58.0703125 164.56640625Q57.328125 165.109375 54.3359375 165.109375Q51.65625 165.109375 50.9296875 164.15234375Q50.203125 163.1953125 50.203125 159.6484375Q50.203125 156.875 50.3671875 156.16015625Q50.53125 155.4453125 51.3046875 154.8828125Q52.2109375 154.2265625 55.21875 154.2265625Q57.2578125 154.2265625 57.96484375 154.859375Q58.671875 155.4921875 58.671875 157.3046875L58.6796875 157.59375H57.484375L57.4765625 157.265625Q57.4765625 155.9765625 57.05859375 155.609375Q56.640625 155.2421875 55.171875 155.2421875Q52.59375 155.2421875 52.0234375 155.671875Q51.453125 156.1015625 51.453125 158.0546875Q51.453125 162.546875 51.8359375 163.3203125Q52.21875 164.09375 54.453125 164.09375Q56.578125 164.09375 57.10546875 163.7578125Q57.6328125 163.421875 57.6328125 162.0703125ZM60.171875 165.0V154.3359375H65.109375Q67.3984375 154.3359375 68.2109375 155.34375Q69.0234375 156.3515625 69.0234375 159.203125Q69.0234375 162.671875 68.30078125 163.8359375Q67.578125 165.0 65.4140625 165.0ZM61.375 163.984375H64.8515625Q66.765625 163.984375 67.3203125 163.21875Q67.875 162.453125 67.875 159.8046875Q67.875 156.8984375 67.39453125 156.125Q66.9140625 155.3515625 65.09375 155.3515625H61.375ZM71.3984375 155.3515625V158.984375H76.8125V160.0H71.3984375V163.984375H77.046875V165.0H70.1953125V154.3359375H77.046875V155.3515625ZM79.796875 155.3515625V159.078125H84.9921875V160.09375H79.796875V165.0H78.59375V154.3359375H85.1328125V155.3515625ZM90.21875 159.6953125H94.7890625Q94.8203125 160.109375 94.8203125 160.859375Q94.8203125 163.7421875 94.11328125 164.42578125Q93.40625 165.109375 90.421875 165.109375Q87.6015625 165.109375 86.796875 164.30078125Q85.9921875 163.4921875 85.9921875 160.671875L85.984375 159.1015625L85.9921875 158.15625Q85.9921875 155.7890625 86.88671875 155.0078125Q87.78125 154.2265625 90.4921875 154.2265625Q93.2109375 154.2265625 94.0 154.73828125Q94.7890625 155.25 94.7890625 157.0234375V157.4296875H93.609375V157.1640625Q93.609375 155.859375 93.07421875 155.55078125Q92.5390625 155.2421875 90.28125 155.2421875Q88.1953125 155.2421875 87.671875 155.73828125Q87.1484375 156.234375 87.1484375 158.21875L87.1328125 159.6328125L87.140625 161.15625Q87.140625 163.171875 87.72265625 163.6328125Q88.3046875 164.09375 90.828125 164.09375Q92.7578125 164.09375 93.21484375 163.65625Q93.671875 163.21875 93.671875 161.3671875Q93.671875 161.21875 93.609375 160.7109375H90.21875ZM104.9609375 154.3359375V165.0H103.7578125V160.0546875H97.5234375V165.0H96.3203125V154.3359375H97.5234375V159.0390625H103.7578125V154.3359375ZM108.1875 154.3359375V165.0H106.984375V154.3359375ZM116.2421875 154.3359375V161.859375Q116.2421875 163.7421875 115.5546875 164.42578125Q114.8671875 165.109375 112.9765625 165.109375Q111.0625 165.109375 110.3515625 164.52734375Q109.640625 163.9453125 109.640625 162.3828125Q109.640625 161.65625 109.6640625 161.1171875H110.84375V161.3125V162.1328125Q110.84375 163.4375 111.1953125 163.765625Q111.546875 164.09375 112.9296875 164.09375Q114.296875 164.09375 114.66796875 163.6640625Q115.0390625 163.234375 115.0390625 161.6640625V154.3359375ZM119.4765625 154.3359375V158.9921875H120.53125L124.90625 154.3359375H126.4609375L121.5859375 159.4765625L127.0546875 165.0H125.40625L120.53125 160.0078125H119.4765625V165.0H118.2734375V154.3359375ZM129.125 154.3359375V163.8828125H134.609375V165.0H127.921875V154.3359375ZM147.3828125 154.3359375V165.0H146.1796875V156.46875V155.828125L146.1875 155.5078125L146.1953125 155.1875H146.1640625L146.0703125 155.4375Q146.0 155.625 145.9765625 155.6796875L145.7734375 156.1796875L142.140625 165.0H140.9375L137.296875 156.28125L137.0859375 155.7890625L136.9921875 155.5390625Q136.953125 155.453125 136.8984375 155.296875H136.8671875L136.875 155.5859375L136.8828125 155.8828125V156.46875V165.0H135.6796875V154.3359375H137.765625L140.609375 161.234375L141.0625 162.3515625L141.2890625 162.90625L141.5078125 163.4609375H141.5390625L141.7578125 162.90625Q141.921875 162.5078125 141.9765625 162.3515625L142.4375 161.2421875L145.265625 154.3359375ZM158.515625 154.3359375V165.0H156.5390625L152.0703125 157.7421875L151.34375 156.546875L150.984375 155.953125L150.625 155.359375H150.59375L150.6015625 155.7578125L150.609375 156.1640625V156.9609375V165.0H149.40625V154.3359375H151.375L155.2734375 160.6953125L156.2890625 162.3671875L156.796875 163.1953125L157.296875 164.03125H157.328125L157.3203125 163.6328125L157.3125 163.2265625V162.4296875V154.3359375ZM164.4453125 154.2265625Q167.46875 154.2265625 168.2265625 155.109375Q168.984375 155.9921875 168.984375 159.5234375Q168.984375 163.328125 168.2578125 164.21875Q167.53125 165.109375 164.4453125 165.109375Q161.375 165.109375 160.63671875 164.2265625Q159.8984375 163.34375 159.8984375 159.6640625V158.9140625L159.9140625 157.90625Q159.9140625 155.78125 160.87109375 155.00390625Q161.828125 154.2265625 164.4453125 154.2265625ZM164.4375 155.2421875Q161.90625 155.2421875 161.4765625 155.8046875Q161.046875 156.3671875 161.046875 159.6640625Q161.046875 162.96875 161.4765625 163.53125Q161.90625 164.09375 164.4375 164.09375Q166.9765625 164.09375 167.40625 163.53125Q167.8359375 162.96875 167.8359375 159.6640625V158.96875L167.828125 157.9609375Q167.828125 156.1953125 167.234375 155.71875Q166.640625 155.2421875 164.4375 155.2421875ZM170.359375 165.0V154.3359375H174.8359375H175.2421875Q177.046875 154.3359375 177.703125 155.03125Q178.359375 155.7265625 178.359375 157.6328125Q178.359375 159.4609375 177.67578125 160.125Q176.9921875 160.7890625 175.109375 160.7890625L174.640625 160.796875H171.5625V165.0ZM171.5625 159.78125H174.4140625Q176.203125 159.78125 176.70703125 159.4140625Q177.2109375 159.046875 177.2109375 157.7265625Q177.2109375 156.1796875 176.87109375 155.76953125Q176.53125 155.359375 175.2578125 155.359375L174.796875 155.3515625H171.5625ZM189.109375 163.6953125 188.6171875 164.515625 187.6640625 163.8984375Q186.8046875 165.109375 183.703125 165.109375Q180.5390625 165.109375 179.84765625 164.21484375Q179.15625 163.3203125 179.15625 159.234375Q179.15625 155.96875 179.9453125 155.09765625Q180.734375 154.2265625 183.703125 154.2265625Q186.7265625 154.2265625 187.484375 155.109375Q188.2421875 155.9921875 188.2421875 159.5234375Q188.2421875 162.171875 188.046875 162.9921875ZM183.515625 161.1796875 184.0703125 160.359375 186.984375 162.2890625Q187.09375 161.71875 187.09375 160.2734375Q187.09375 156.4140625 186.69921875 155.828125Q186.3046875 155.2421875 183.6953125 155.2421875Q181.1640625 155.2421875 180.734375 155.8046875Q180.3046875 156.3671875 180.3046875 159.6640625Q180.3046875 162.96875 180.734375 163.53125Q181.1640625 164.09375 183.6796875 164.09375Q186.1796875 164.09375 186.7109375 163.2734375ZM190.28125 165.0V154.3359375H195.359375Q197.078125 154.3359375 197.78125 155.015625Q198.484375 155.6953125 198.484375 157.375Q198.484375 158.8515625 198.1015625 159.43359375Q197.71875 160.015625 196.640625 160.1875V160.2109375Q198.3359375 160.3359375 198.3359375 162.2734375V165.0H197.1328125V162.546875Q197.1328125 160.6796875 195.515625 160.6796875H195.1171875H191.484375V165.0ZM191.484375 159.6640625H194.9609375Q196.3359375 159.6640625 196.8359375 159.24609375Q197.3359375 158.828125 197.3359375 157.671875Q197.3359375 156.2265625 196.96484375 155.7890625Q196.59375 155.3515625 195.375 155.3515625H191.484375ZM207.5625 157.2265625H206.3671875Q206.3671875 155.9375 205.9375 155.58984375Q205.5078125 155.2421875 203.9140625 155.2421875Q202.0234375 155.2421875 201.4765625 155.57421875Q200.9296875 155.90625 200.9296875 157.0546875Q200.9296875 158.34375 201.359375 158.625Q201.7890625 158.90625 203.9140625 159.0078125Q206.40625 159.1171875 207.08203125 159.640625Q207.7578125 160.1640625 207.7578125 161.984375Q207.7578125 163.953125 206.98046875 164.53125Q206.203125 165.109375 203.546875 165.109375Q201.2421875 165.109375 200.48046875 164.52734375Q199.71875 163.9453125 199.71875 162.1796875L199.7109375 161.703125H200.90625V161.96875Q200.90625 163.3984375 201.34375 163.74609375Q201.78125 164.09375 203.5859375 164.09375Q205.65625 164.09375 206.1328125 163.74609375Q206.609375 163.3984375 206.609375 161.890625Q206.609375 160.9140625 206.28515625 160.58984375Q205.9609375 160.265625 204.9296875 160.203125L203.6796875 160.140625L202.4921875 160.078125Q199.78125 159.890625 199.78125 157.265625Q199.78125 155.4453125 200.5703125 154.8359375Q201.359375 154.2265625 203.71875 154.2265625Q206.109375 154.2265625 206.8359375 154.79296875Q207.5625 155.359375 207.5625 157.2265625ZM212.921875 155.453125V165.0H211.71875V155.453125H208.2421875V154.3359375H216.3671875V155.453125ZM224.6875 154.3359375H225.890625V161.8046875Q225.890625 163.8359375 225.07421875 164.47265625Q224.2578125 165.109375 221.6484375 165.109375Q219.203125 165.109375 218.32421875 164.49609375Q217.4453125 163.8828125 217.4453125 162.1640625V161.8046875V154.3359375H218.6484375V161.8046875Q218.6484375 163.3203125 219.140625 163.70703125Q219.6328125 164.09375 221.5625 164.09375Q223.65625 164.09375 224.171875 163.71484375Q224.6875 163.3359375 224.6875 161.8046875ZM234.8359375 154.3359375H236.125L232.3515625 165.0H230.6328125L226.8203125 154.3359375H228.1015625L230.9453125 162.390625L231.2265625 163.2109375Q231.3828125 163.6875 231.484375 164.03125H231.515625Q231.75 163.2421875 232.0390625 162.40625ZM251.9921875 154.3359375 248.6328125 165.0H246.8046875L244.5625 157.3203125L244.28125 156.359375Q244.2578125 156.28125 244.1484375 155.8828125L244.0078125 155.3984375H243.984375L243.8515625 155.8828125L243.7109375 156.3671875L243.421875 157.3359375L241.140625 165.0H239.34375L236.0703125 154.3359375H237.3046875L239.6015625 162.0L239.9140625 163.0390625Q239.953125 163.1640625 240.0703125 163.5546875L240.21875 164.078125H240.2421875L240.390625 163.5546875L240.5390625 163.0390625L240.84375 162.0078125L243.109375 154.3359375H244.890625L247.140625 162.015625L247.4453125 163.0390625L247.5859375 163.5625L247.734375 164.078125H247.7578125L247.9140625 163.5546875L248.0703125 163.03125L248.390625 161.984375L250.734375 154.3359375ZM261.140625 154.3359375 257.734375 159.484375 261.3984375 165.0H259.9765625L257.5078125 161.265625L257.1171875 160.6796875Q257.0859375 160.6328125 256.9375 160.390625L256.75 160.09375H256.71875L256.53125 160.3984375Q256.375 160.625 256.3359375 160.6953125L255.9296875 161.2890625L253.421875 165.0H251.9453125L255.7578125 159.484375L252.25 154.3359375H253.703125L256.0703125 157.890625L256.3984375 158.390625Q256.4609375 158.484375 256.5625 158.640625L256.71875 158.890625H256.75L256.90625 158.6484375Q257.03125 158.4375 257.0625 158.3984375L257.3828125 157.90625L259.71875 154.3359375ZM270.40625 154.3359375 266.375 160.546875V165.0H265.171875V160.546875L261.2421875 154.3359375H262.640625L264.9296875 157.9375L265.3671875 158.6328125Q265.453125 158.7578125 265.5859375 158.9765625L265.796875 159.328125H265.828125Q265.96875 159.09375 266.0390625 158.9765625L266.25 158.6328125L266.6953125 157.9375L268.9765625 154.3359375ZM278.875 154.3359375V155.3515625L272.1640625 163.9609375V163.984375H279.015625V165.0H270.6953125V163.9609375L277.390625 155.375V155.3515625H270.890625V154.3359375Z" fill="#6b7280"/><path d="M32.1015625 188.625H31.015625Q31.015625 187.3203125 31.60546875 186.87109375Q32.1953125 186.421875 33.9140625 186.421875Q35.78125 186.421875 36.4375 186.97265625Q37.09375 187.5234375 37.09375 189.0703125V194.0H36.0L36.0859375 193.1953125L36.0625 193.1875Q35.4375 194.109375 33.5234375 194.109375Q30.6953125 194.109375 30.6953125 191.8359375Q30.6953125 190.484375 31.328125 189.96875Q31.9609375 189.453125 33.6171875 189.453125Q35.5859375 189.453125 35.9765625 190.2265625L36.0 190.21875V189.3125Q36.0 188.03125 35.6484375 187.65234375Q35.296875 187.2734375 34.109375 187.2734375Q32.09375 187.2734375 32.09375 188.40625Q32.09375 188.4609375 32.1015625 188.625ZM33.859375 190.3046875Q32.6015625 190.3046875 32.22265625 190.5703125Q31.84375 190.8359375 31.84375 191.7109375Q31.84375 192.6171875 32.21875 192.91015625Q32.59375 193.203125 33.7421875 193.203125Q36.0546875 193.203125 36.0546875 191.796875Q36.0546875 190.9140625 35.60546875 190.609375Q35.15625 190.3046875 33.859375 190.3046875ZM39.1171875 194.0V183.3359375H40.2109375V187.484375L40.234375 187.5078125Q40.609375 186.421875 42.6875 186.421875Q44.328125 186.421875 44.953125 187.2734375Q45.578125 188.125 45.578125 190.359375Q45.578125 192.4765625 44.91796875 193.29296875Q44.2578125 194.109375 42.53125 194.109375Q40.7734375 194.109375 40.1875 193.0703125L40.15625 193.078125L40.2109375 194.0ZM42.40625 187.328125Q41.1171875 187.328125 40.6796875 187.87890625Q40.2421875 188.4296875 40.2421875 190.0703125Q40.2421875 192.09375 40.63671875 192.6484375Q41.03125 193.203125 42.453125 193.203125Q43.65625 193.203125 44.04296875 192.63671875Q44.4296875 192.0703125 44.4296875 190.3125Q44.4296875 188.4609375 44.046875 187.89453125Q43.6640625 187.328125 42.40625 187.328125ZM52.4296875 191.3046875H53.5234375L53.53125 191.7109375Q53.53125 194.109375 50.390625 194.109375Q48.375 194.109375 47.7265625 193.3515625Q47.078125 192.59375 47.078125 190.2265625Q47.078125 188.0078125 47.73828125 187.21484375Q48.3984375 186.421875 50.25 186.421875Q52.0703125 186.421875 52.734375 186.95703125Q53.3984375 187.4921875 53.3984375 188.96875H52.3046875V188.7734375Q52.3046875 187.90625 51.875 187.6171875Q51.4453125 187.328125 50.1640625 187.328125Q48.9296875 187.328125 48.578125 187.875Q48.2265625 188.421875 48.2265625 190.328125Q48.2265625 192.1875 48.62890625 192.6953125Q49.03125 193.203125 50.5078125 193.203125Q51.7578125 193.203125 52.09375 192.87109375Q52.4296875 192.5390625 52.4296875 191.3046875ZM61.296875 183.3359375V194.0H60.203125L60.2578125 193.03125L60.2265625 193.0234375Q59.7109375 194.109375 57.828125 194.109375Q56.109375 194.109375 55.48046875 193.2734375Q54.8515625 192.4375 54.8515625 190.15625Q54.8515625 188.0546875 55.484375 187.23828125Q56.1171875 186.421875 57.75 186.421875Q59.7890625 186.421875 60.1796875 187.4765625L60.203125 187.4609375V183.3359375ZM58.0078125 187.328125Q56.796875 187.328125 56.3984375 187.88671875Q56.0 188.4453125 56.0 190.1484375Q56.0 192.0234375 56.39453125 192.61328125Q56.7890625 193.203125 58.03125 193.203125Q59.3828125 193.203125 59.7890625 192.61328125Q60.1953125 192.0234375 60.1953125 190.046875Q60.1953125 188.4453125 59.74609375 187.88671875Q59.296875 187.328125 58.0078125 187.328125ZM68.4140625 191.7421875H69.53125L69.5390625 192.015625Q69.5390625 193.1796875 68.83203125 193.64453125Q68.125 194.109375 66.3515625 194.109375Q64.2890625 194.109375 63.64453125 193.35546875Q63.0 192.6015625 63.0 190.1875Q63.0 187.953125 63.6484375 187.1875Q64.296875 186.421875 66.1875 186.421875Q68.25 186.421875 68.890625 187.0859375Q69.53125 187.75 69.53125 189.8828125V190.46875H64.15625Q64.15625 192.234375 64.53515625 192.71875Q64.9140625 193.203125 66.3046875 193.203125Q67.625 193.203125 68.01953125 192.97265625Q68.4140625 192.7421875 68.4140625 191.9765625ZM68.4140625 189.6171875 68.40625 189.265625Q68.40625 188.0546875 68.0078125 187.69140625Q67.609375 187.328125 66.2890625 187.328125Q64.9609375 187.328125 64.56640625 187.75390625Q64.171875 188.1796875 64.171875 189.6171875ZM71.546875 194.0V187.4375H70.40625V186.53125H71.546875V185.421875Q71.546875 183.2265625 73.8046875 183.2265625Q74.140625 183.2265625 74.59375 183.28125V184.1875Q74.0625 184.1328125 73.8203125 184.1328125Q72.640625 184.1328125 72.640625 185.3203125V186.53125H74.59375V187.4375H72.640625V194.0ZM81.75 186.53125V194.484375Q81.75 196.109375 81.046875 196.71875Q80.34375 197.328125 78.46875 197.328125Q76.796875 197.328125 76.1875 196.8125Q75.578125 196.296875 75.578125 194.8828125H76.6328125Q76.6328125 195.84375 76.98828125 196.1328125Q77.34375 196.421875 78.546875 196.421875Q79.796875 196.421875 80.2265625 196.046875Q80.65625 195.671875 80.65625 194.578125V193.078125L80.6328125 193.0703125Q80.2109375 194.109375 78.1953125 194.109375Q76.5390625 194.109375 75.9140625 193.29296875Q75.2890625 192.4765625 75.2890625 190.3125Q75.2890625 188.0703125 75.92578125 187.24609375Q76.5625 186.421875 78.2890625 186.421875Q80.125 186.421875 80.6875 187.546875L80.7109375 187.5390625L80.65625 186.53125ZM78.4921875 187.328125Q77.203125 187.328125 76.8203125 187.87109375Q76.4375 188.4140625 76.4375 190.25Q76.4375 192.1015625 76.8203125 192.65234375Q77.203125 193.203125 78.4921875 193.203125Q79.796875 193.203125 80.2109375 192.59765625Q80.625 191.9921875 80.625 190.078125Q80.625 188.390625 80.2109375 187.859375Q79.796875 187.328125 78.4921875 187.328125ZM84.7578125 183.3359375V187.453125L84.78125 187.46875Q85.1953125 186.421875 87.09375 186.421875Q89.90625 186.421875 89.90625 188.921875V189.2265625V194.0H88.8125V189.2265625V189.015625Q88.8125 187.328125 87.0859375 187.328125Q85.6953125 187.328125 85.2265625 187.82421875Q84.7578125 188.3203125 84.7578125 189.796875V194.0H83.6640625V183.3359375ZM92.984375 183.3359375V184.5625H91.890625V183.3359375ZM92.984375 186.53125V194.0H91.890625V186.53125ZM95.921875 183.3359375V184.5625H94.828125V183.3359375ZM95.921875 186.53125V194.6875V195.0078125Q95.921875 196.859375 94.3828125 196.859375Q94.15625 196.859375 93.859375 196.8046875V196.03125Q93.953125 196.015625 93.984375 196.015625L94.125 196.0078125L94.578125 195.859375Q94.828125 195.6484375 94.828125 194.6875V186.53125ZM98.96875 183.3359375V189.53125H99.46875L102.109375 186.53125H103.484375L100.2890625 189.9609375L104.0625 194.0H102.5859375L99.4140625 190.3828125H98.96875V194.0H97.875V183.3359375ZM105.8515625 183.3359375V194.0H104.7578125V183.3359375ZM107.7734375 186.53125H108.8671875L108.84375 187.65625L108.8671875 187.6796875Q109.5 186.421875 111.3046875 186.421875Q113.203125 186.421875 113.609375 187.6796875H113.640625Q114.34375 186.421875 116.2109375 186.421875Q118.8515625 186.421875 118.8515625 189.1171875V194.0H117.7578125V189.015625Q117.7578125 188.03125 117.40625 187.6796875Q117.0546875 187.328125 116.078125 187.328125Q114.78125 187.328125 114.3203125 187.81640625Q113.859375 188.3046875 113.859375 189.6796875V194.0H112.765625V189.1171875L112.75 188.7734375Q112.75 187.328125 111.1015625 187.328125Q108.8671875 187.328125 108.8671875 189.7578125V194.0H107.7734375ZM120.984375 186.53125H122.0390625L122.0078125 187.546875L122.0390625 187.5703125Q122.5390625 186.421875 124.5234375 186.421875Q126.125 186.421875 126.69140625 186.984375Q127.2578125 187.546875 127.2578125 189.140625V194.0H126.1640625V189.234375V188.953125Q126.1640625 187.9921875 125.796875 187.66015625Q125.4296875 187.328125 124.3828125 187.328125Q122.078125 187.328125 122.078125 189.5078125V194.0H120.984375ZM132.3203125 186.421875Q134.390625 186.421875 135.0078125 187.140625Q135.625 187.859375 135.625 190.265625Q135.625 192.671875 135.0078125 193.390625Q134.390625 194.109375 132.3203125 194.109375Q130.2578125 194.109375 129.640625 193.390625Q129.0234375 192.671875 129.0234375 190.265625Q129.0234375 187.859375 129.640625 187.140625Q130.2578125 186.421875 132.3203125 186.421875ZM132.3203125 187.328125Q130.8671875 187.328125 130.51953125 187.80078125Q130.171875 188.2734375 130.171875 190.265625Q130.171875 192.2578125 130.51953125 192.73046875Q130.8671875 193.203125 132.3203125 193.203125Q133.78125 193.203125 134.12890625 192.73046875Q134.4765625 192.2578125 134.4765625 190.265625Q134.4765625 188.2734375 134.12890625 187.80078125Q133.78125 187.328125 132.3203125 187.328125ZM137.328125 186.53125H138.421875L138.3671875 187.4765625L138.3984375 187.5Q138.96875 186.421875 140.8515625 186.421875Q142.515625 186.421875 143.140625 187.265625Q143.765625 188.109375 143.765625 190.375Q143.765625 192.4765625 143.1328125 193.29296875Q142.5 194.109375 140.8828125 194.109375Q139.0390625 194.109375 138.4453125 193.1171875H138.421875V197.203125H137.328125ZM140.546875 187.328125Q139.234375 187.328125 138.8359375 187.89453125Q138.4375 188.4609375 138.4375 190.328125Q138.4375 192.0546875 138.8671875 192.62890625Q139.296875 193.203125 140.59375 193.203125Q141.828125 193.203125 142.22265625 192.6484375Q142.6171875 192.09375 142.6171875 190.359375Q142.6171875 188.453125 142.234375 187.890625Q141.8515625 187.328125 140.546875 187.328125ZM151.734375 186.53125V197.203125H150.640625V193.09375L150.6171875 193.0703125Q150.125 194.109375 148.1640625 194.109375Q146.546875 194.109375 145.9140625 193.265625Q145.28125 192.421875 145.28125 190.2578125Q145.28125 188.09375 145.921875 187.2578125Q146.5625 186.421875 148.2265625 186.421875Q150.0546875 186.421875 150.671875 187.4765625L150.6953125 187.453125L150.640625 186.53125ZM148.3984375 187.328125Q147.1875 187.328125 146.80859375 187.9140625Q146.4296875 188.5 146.4296875 190.3671875Q146.4296875 192.1171875 146.8203125 192.66015625Q147.2109375 193.203125 148.4609375 193.203125Q149.734375 193.203125 150.171875 192.64453125Q150.609375 192.0859375 150.609375 190.4453125Q150.609375 188.4609375 150.20703125 187.89453125Q149.8046875 187.328125 148.3984375 187.328125ZM153.7578125 186.53125H154.8515625L154.7421875 187.390625L154.765625 187.4140625Q155.4140625 186.359375 156.90625 186.359375Q158.96875 186.359375 158.96875 188.484375L158.9609375 189.0H157.8828125L157.90625 188.8125Q157.9296875 188.515625 157.9296875 188.4140625Q157.9296875 187.265625 156.6796875 187.265625Q154.8515625 187.265625 154.8515625 189.5234375V194.0H153.7578125ZM165.8125 188.484375H164.71875Q164.71875 187.703125 164.40234375 187.515625Q164.0859375 187.328125 162.7734375 187.328125Q161.5546875 187.328125 161.2265625 187.52734375Q160.8984375 187.7265625 160.8984375 188.484375Q160.8984375 189.6328125 162.0 189.6875L162.8828125 189.734375L164.0 189.7890625Q166.03125 189.890625 166.03125 191.9140625Q166.03125 193.171875 165.359375 193.640625Q164.6875 194.109375 162.8984375 194.109375Q161.0625 194.109375 160.37109375 193.6640625Q159.6796875 193.21875 159.6796875 192.03125L159.6875 191.625H160.8203125L160.828125 191.9765625Q160.828125 192.7109375 161.203125 192.95703125Q161.578125 193.203125 162.6796875 193.203125Q164.03125 193.203125 164.45703125 192.9453125Q164.8828125 192.6875 164.8828125 191.8671875Q164.8828125 190.6875 163.8125 190.6875Q161.3203125 190.6875 160.53515625 190.265625Q159.75 189.84375 159.75 188.515625Q159.75 187.2578125 160.37109375 186.83984375Q160.9921875 186.421875 162.84375 186.421875Q165.8125 186.421875 165.8125 188.2109375ZM171.5625 186.53125V187.4375H168.6875V192.0078125Q168.6875 193.203125 169.75 193.203125Q170.8046875 193.203125 170.8046875 192.1328125L170.8125 191.765625L170.828125 191.3515625H171.84375L171.8515625 191.90625Q171.8515625 194.109375 169.7578125 194.109375Q167.59375 194.109375 167.59375 192.2734375V192.0078125V187.4375H166.5625V186.53125H167.59375V184.734375H168.6875V186.53125ZM178.90625 186.53125V194.0H177.8125L177.890625 193.0234375L177.8671875 193.0Q177.296875 194.109375 175.4296875 194.109375Q172.8125 194.109375 172.8125 191.5V186.53125H173.90625V191.5Q173.90625 192.515625 174.2421875 192.859375Q174.578125 193.203125 175.5625 193.203125Q176.8515625 193.203125 177.33203125 192.69140625Q177.8125 192.1796875 177.8125 190.8125V186.53125ZM186.4609375 186.53125 183.9609375 194.0H182.390625L179.9140625 186.53125H181.0390625L182.359375 190.59375L182.7734375 191.8671875L182.96875 192.5078125L183.171875 193.1484375H183.203125L183.390625 192.515625L183.578125 191.875L183.9765625 190.609375L185.2421875 186.53125ZM197.0859375 186.53125 194.9921875 194.0H193.3671875L192.3671875 189.8515625L192.0625 188.5859375L191.921875 187.953125L191.7734375 187.3203125H191.75L191.6015625 187.953125L191.453125 188.5859375L191.1484375 189.8515625L190.140625 194.0H188.484375L186.4609375 186.53125H187.609375L188.6640625 190.6640625L188.9921875 191.9609375L189.1484375 192.609375L189.3046875 193.2578125H189.3359375L189.484375 192.609375L189.640625 191.9609375L189.953125 190.671875L190.9765625 186.53125H192.5703125L193.5859375 190.6796875L193.8984375 191.96875L194.046875 192.609375L194.1953125 193.2578125H194.21875L194.3828125 192.609375L194.5390625 191.9609375L194.8671875 190.6640625L195.9140625 186.53125ZM203.359375 186.53125 200.9375 190.046875 203.6484375 194.0H202.34375L200.3671875 190.984375L198.3828125 194.0H197.078125L199.7890625 190.09375L197.359375 186.53125H198.671875L200.3671875 189.2578125L202.0546875 186.53125ZM209.859375 186.53125 207.7421875 194.4296875Q207.296875 196.1015625 206.75390625 196.7265625Q206.2109375 197.3515625 205.203125 197.3515625Q205.0 197.3515625 204.6796875 197.296875V196.390625Q204.90625 196.4375 205.0625 196.4453125Q205.9453125 196.4921875 206.375 195.015625L206.5859375 194.28125Q206.59375 194.2421875 206.65625 194.0H206.2421875L203.5390625 186.53125H204.703125L205.8515625 189.859375L206.4296875 191.515625L206.7109375 192.3515625L207.0 193.1796875H207.03125L207.234375 192.3515625L207.4296875 191.515625L207.8515625 189.859375L208.6953125 186.53125ZM210.53125 186.53125H215.9140625V187.59375L211.4609375 193.09375H215.9140625V194.0H210.15625V192.9609375L214.625 187.4375H210.53125ZM229.171875 183.2265625Q232.1328125 183.2265625 232.7421875 184.01953125Q233.3515625 184.8125 233.3515625 188.6640625Q233.3515625 192.3359375 232.7734375 193.1171875Q232.03125 194.109375 229.171875 194.109375Q226.3125 194.109375 225.5703125 193.1171875Q224.9921875 192.3359375 224.9921875 188.28125Q224.9921875 184.7734375 225.6328125 184.0Q226.2734375 183.2265625 229.171875 183.2265625ZM229.171875 184.2421875Q226.9296875 184.2421875 226.53515625 184.8203125Q226.140625 185.3984375 226.140625 188.6640625Q226.140625 191.9375 226.53515625 192.515625Q226.9296875 193.09375 229.171875 193.09375Q231.4140625 193.09375 231.80859375 192.515625Q232.203125 191.9375 232.203125 188.6640625Q232.203125 185.3984375 231.80859375 184.8203125Q231.4140625 184.2421875 229.171875 184.2421875ZM240.40625 183.3359375V194.0H239.203125V184.234375L236.4765625 187.2578125L235.71875 186.5390625L238.671875 183.3359375ZM252.4453125 192.984375V194.0H244.765625V191.9921875Q244.765625 190.3046875 245.421875 189.78125Q246.078125 189.2578125 248.5390625 188.9765625Q250.5078125 188.7578125 250.91796875 188.3828125Q251.328125 188.0078125 251.328125 186.4375Q251.328125 185.0625 250.87109375 184.65234375Q250.4140625 184.2421875 248.875 184.2421875Q246.953125 184.2421875 246.44921875 184.57421875Q245.9453125 184.90625 245.9453125 186.171875L245.9609375 186.96875H244.78125L244.7890625 186.4140625Q244.7890625 184.5 245.59765625 183.86328125Q246.40625 183.2265625 248.8359375 183.2265625Q250.9921875 183.2265625 251.734375 183.9140625Q252.4765625 184.6015625 252.4765625 186.59375Q252.4765625 188.5078125 251.78515625 189.15234375Q251.09375 189.796875 248.78125 190.0234375Q246.75 190.2265625 246.359375 190.5859375Q245.96875 190.9453125 245.96875 192.625V192.984375ZM257.6171875 189.0546875V188.03125L258.0234375 188.0390625Q260.1796875 188.0390625 260.66015625 187.765625Q261.140625 187.4921875 261.140625 186.2734375Q261.140625 184.8671875 260.72265625 184.5546875Q260.3046875 184.2421875 258.4140625 184.2421875Q256.671875 184.2421875 256.26171875 184.546875Q255.8515625 184.8515625 255.8515625 186.1484375V186.609375H254.7109375L254.71875 186.1875Q254.71875 184.359375 255.4296875 183.79296875Q256.140625 183.2265625 258.4296875 183.2265625Q260.78125 183.2265625 261.53515625 183.75390625Q262.2890625 184.28125 262.2890625 185.9296875Q262.2890625 187.328125 261.9296875 187.84375Q261.5703125 188.359375 260.4921875 188.4921875V188.546875Q261.703125 188.7109375 262.09765625 189.203125Q262.4921875 189.6953125 262.4921875 191.03125Q262.4921875 192.890625 261.72265625 193.5Q260.953125 194.109375 258.6171875 194.109375Q256.09375 194.109375 255.3125 193.546875Q254.53125 192.984375 254.53125 191.1640625V190.53125H255.703125V191.1484375Q255.703125 192.5078125 256.1640625 192.80078125Q256.625 193.09375 258.78125 193.09375Q260.453125 193.09375 260.8984375 192.72265625Q261.34375 192.3515625 261.34375 190.9453125Q261.34375 189.765625 260.921875 189.41015625Q260.5 189.0546875 259.0859375 189.0546875H258.0703125ZM271.1171875 183.3359375V190.5234375H272.7109375V191.5390625H271.1171875V194.0H269.9140625V191.5390625H263.9453125V190.125L269.2578125 183.3359375ZM269.9140625 190.5234375V184.109375H269.890625L264.9375 190.5234375ZM281.75 183.3359375V184.3515625H275.765625L275.7109375 187.5859375H275.734375Q276.359375 186.703125 278.5390625 186.703125Q280.6484375 186.703125 281.41796875 187.4296875Q282.1875 188.15625 282.1875 190.1640625Q282.1875 192.6171875 281.45703125 193.36328125Q280.7265625 194.109375 278.34375 194.109375Q275.9765625 194.109375 275.17578125 193.5546875Q274.375 193.0 274.375 191.359375V190.953125H275.5078125Q275.5078125 192.3984375 275.95703125 192.74609375Q276.40625 193.09375 278.25 193.09375Q280.1796875 193.09375 280.609375 192.6484375Q281.0390625 192.203125 281.0390625 190.2109375Q281.0390625 188.6015625 280.55859375 188.16015625Q280.078125 187.71875 278.328125 187.71875Q275.890625 187.71875 275.65625 188.7421875H274.5703125V183.3359375ZM291.6015625 186.03125H290.4296875Q290.4609375 185.7421875 290.4609375 185.6484375Q290.4609375 184.796875 290.03125 184.51953125Q289.6015625 184.2421875 288.2734375 184.2421875Q286.2578125 184.2421875 285.72265625 184.5859375Q285.1875 184.9296875 285.1875 186.21875V188.390625H285.2109375Q285.890625 187.4375 288.28125 187.4375Q290.4296875 187.4375 291.15625 188.09375Q291.8828125 188.75 291.8828125 190.6875Q291.8828125 192.7890625 291.125 193.44921875Q290.3671875 194.109375 287.953125 194.109375Q285.4921875 194.109375 284.71875 193.38671875Q283.9453125 192.6640625 283.9453125 190.359375L283.921875 188.421875L283.953125 186.703125Q283.953125 184.59375 284.6875 183.91015625Q285.421875 183.2265625 287.6875 183.2265625Q289.9765625 183.2265625 290.79296875 183.734375Q291.609375 184.2421875 291.609375 185.6640625ZM287.8984375 188.453125Q286.140625 188.453125 285.60546875 188.8046875Q285.0703125 189.15625 285.0703125 190.3125Q285.0703125 192.1875 285.5390625 192.640625Q286.0078125 193.09375 287.9375 193.09375Q289.8125 193.09375 290.2734375 192.7265625Q290.734375 192.359375 290.734375 190.84375Q290.734375 189.21875 290.28125 188.8359375Q289.828125 188.453125 287.8984375 188.453125ZM301.4921875 183.3359375V184.8671875L296.328125 194.0H294.8984375L300.4921875 184.3515625H293.71875V183.3359375ZM309.71875 188.4609375V188.484375Q310.84375 188.7109375 311.19140625 189.18359375Q311.5390625 189.65625 311.5390625 190.9453125Q311.5390625 192.8984375 310.8046875 193.50390625Q310.0703125 194.109375 307.703125 194.109375Q305.1015625 194.109375 304.33984375 193.55078125Q303.578125 192.9921875 303.578125 191.0859375Q303.578125 189.6875 303.9296875 189.1875Q304.28125 188.6875 305.4296875 188.46875V188.4453125Q304.375 188.21875 304.046875 187.74609375Q303.71875 187.2734375 303.71875 185.9765625Q303.71875 184.28125 304.4375 183.75390625Q305.15625 183.2265625 307.453125 183.2265625Q309.984375 183.2265625 310.703125 183.73828125Q311.421875 184.25 311.421875 186.0625Q311.421875 187.28125 311.08203125 187.7578125Q310.7421875 188.234375 309.71875 188.4609375ZM307.46875 184.2421875Q305.6484375 184.2421875 305.2578125 184.52734375Q304.8671875 184.8125 304.8671875 186.1328125Q304.8671875 187.421875 305.3515625 187.70703125Q305.8359375 187.9921875 308.015625 187.9921875Q309.46875 187.9921875 309.87109375 187.6328125Q310.2734375 187.2734375 310.2734375 185.984375Q310.2734375 184.7890625 309.83203125 184.515625Q309.390625 184.2421875 307.46875 184.2421875ZM307.484375 189.0078125Q305.6328125 189.0078125 305.1796875 189.3359375Q304.7265625 189.6640625 304.7265625 191.0078125Q304.7265625 192.28125 305.05859375 192.67578125Q305.390625 193.0703125 306.46875 193.0703125L307.9765625 193.09375L308.9765625 193.03125Q309.84375 192.921875 310.1171875 192.5Q310.390625 192.078125 310.390625 190.84375Q310.390625 189.6484375 309.8828125 189.328125Q309.375 189.0078125 307.484375 189.0078125ZM313.3984375 191.28125H314.53125L314.5234375 191.59375Q314.5234375 192.578125 314.9921875 192.8359375Q315.4609375 193.09375 317.2265625 193.09375Q319.2421875 193.09375 319.6875 192.69921875Q320.1328125 192.3046875 320.1328125 190.515625V188.9140625H320.109375Q319.484375 189.8671875 316.90625 189.8671875Q314.875 189.8671875 314.171875 189.21875Q313.46875 188.5703125 313.46875 186.703125Q313.46875 184.5625 314.2109375 183.89453125Q314.953125 183.2265625 317.328125 183.2265625Q319.765625 183.2265625 320.5546875 183.921875Q321.34375 184.6171875 321.34375 186.7734375L321.375 189.640625L321.3515625 190.7421875Q321.3515625 192.7890625 320.578125 193.44921875Q319.8046875 194.109375 317.3984375 194.109375Q315.03125 194.109375 314.203125 193.62109375Q313.375 193.1328125 313.375 191.7265625Q313.375 191.6015625 313.3984375 191.28125ZM317.21875 184.2421875Q315.4765625 184.2421875 315.046875 184.62109375Q314.6171875 185.0 314.6171875 186.5390625Q314.6171875 188.046875 315.0390625 188.44921875Q315.4609375 188.8515625 317.0546875 188.8515625Q319.125 188.8515625 319.625 188.52734375Q320.125 188.203125 320.125 186.8671875Q320.125 185.078125 319.6640625 184.66015625Q319.203125 184.2421875 317.21875 184.2421875ZM338.640625 189.2890625H339.828125L339.8359375 189.5703125L339.84375 190.109375Q339.84375 190.9609375 339.71875 191.625L341.5859375 193.1640625L340.9296875 194.0L339.3515625 192.6953125Q338.6875 194.109375 335.7734375 194.109375Q332.9609375 194.109375 332.140625 193.484375Q331.3203125 192.859375 331.3203125 190.7109375Q331.3203125 189.296875 331.69921875 188.734375Q332.078125 188.171875 333.1796875 187.9453125Q333.28125 187.921875 333.5 187.875Q332.53125 187.0625 332.53125 186.0078125Q332.53125 184.515625 333.19921875 183.97265625Q333.8671875 183.4296875 335.703125 183.4296875Q337.5 183.4296875 338.15625 183.9609375Q338.8125 184.4921875 338.8125 185.9453125L338.796875 186.609375H337.6171875V186.2109375Q337.6171875 185.0234375 337.296875 184.734375Q336.9765625 184.4453125 335.65625 184.4453125Q334.4609375 184.4453125 334.0703125 184.703125Q333.6796875 184.9609375 333.6796875 185.75Q333.6796875 186.640625 334.359375 187.171875L334.625 187.390625L338.640625 190.734375V190.515625V190.078125V189.53125ZM334.25 188.5234375Q333.0390625 188.7890625 332.75390625 189.14453125Q332.46875 189.5 332.46875 190.7421875Q332.46875 192.3671875 332.94140625 192.73046875Q333.4140625 193.09375 335.546875 193.09375Q338.1015625 193.09375 338.4140625 191.953125ZM343.7734375 192.5625V194.0H342.5703125V192.5625ZM346.9453125 192.5625V194.109375Q346.9453125 195.5703125 345.8828125 195.5703125Q345.78125 195.5703125 345.5859375 195.5546875V194.9609375Q346.2578125 194.921875 346.2578125 194.2734375L346.25 194.0H345.7421875V192.5625ZM350.421875 192.5625V194.0H349.21875V192.5625ZM350.46875 183.3359375 350.3125 191.0546875H349.2890625L349.15625 183.3359375ZM355.96875 192.5625V194.0H354.765625V192.5625ZM356.0078125 190.921875H354.828125L354.8359375 190.6875Q354.8359375 189.6171875 355.13671875 189.1953125Q355.4375 188.7734375 356.46875 188.3828125L357.1171875 188.1328125Q358.1015625 187.7578125 358.1015625 186.2421875Q358.1015625 184.921875 357.73828125 184.58203125Q357.375 184.2421875 355.9453125 184.2421875Q354.4765625 184.2421875 354.09765625 184.6015625Q353.71875 184.9609375 353.71875 186.3671875L353.7265625 186.671875H352.59375L352.6015625 186.3203125Q352.6015625 184.4140625 353.27734375 183.8203125Q353.953125 183.2265625 356.125 183.2265625Q357.953125 183.2265625 358.6015625 183.828125Q359.25 184.4296875 359.25 186.1328125Q359.25 188.5703125 357.7421875 189.109375L357.0859375 189.34375Q356.015625 189.7265625 356.015625 190.65625Z" fill="#6b7280"/></svg>