<svg xmlns="http://www.w3.org/2000/svg" viewBox="0 0 705.4 222.0" width="705" height="222"><path d="M30.0 83.1875V47.25H64.5V53.0H35.75V70.25H64.5V76.0H35.75V83.1875ZM67.375 76.0V70.25H96.125V64.5H67.375V47.25H101.875V53.0H73.125V58.75H101.875V76.0ZM110.5 70.25H133.5V53.0H110.5ZM104.75 76.0V47.25H139.25V76.0ZM147.875 70.25H170.875V53.0H147.875ZM142.125 76.0V47.25H176.625V76.0ZM221.0078125 70.25H244.1875V53.0H243.19921875ZM215.4375 76.0V67.375L233.9453125 53.0H215.4375V47.25H249.9375V76.0ZM252.8125 76.0V47.25H261.4375L287.3125 67.375V76.0H281.5625V70.25L259.55078125 53.0H258.5625V76.0ZM295.9375 70.25H318.9375V53.0H295.9375ZM290.1875 76.0V47.25H324.6875V83.1875H318.9375V76.0ZM327.5625 64.5V58.75H356.3125V64.5ZM359.1875 76.0V47.25H364.9375V70.25H387.9375V47.25H393.6875V76.0ZM396.5625 76.0V40.0625H402.3125V70.25H408.0625V76.0ZM416.5078125 70.25H439.6875V53.0H438.69921875ZM410.9375 76.0V67.375L429.4453125 53.0H410.9375V47.25H445.4375V76.0ZM448.3125 76.0V47.25H482.8125V53.0H454.0625V76.0Z" fill="#12151a"/><path d="M32.78515625 115.5 43.880859375 124.125H44.375V115.5ZM30.0 116.9375V112.625H47.25V130.59375H44.375V128.1005859375ZM48.6875 111.1875V109.03125H51.5625V111.1875ZM48.6875 127.0V112.625H51.5625V127.0ZM53.0 127.0V112.625H70.25V115.5H55.875V127.0ZM74.5625 124.125H75.056640625L86.15234375 115.5H74.5625ZM71.6875 127.0V112.625H88.9375V116.9375L79.68359375 124.125H88.9375V127.0ZM90.375 127.0V124.125L95.9228515625 119.8125L90.375 115.5V112.625H93.25V114.107421875L99.0 118.599609375L104.75 114.107421875V112.625H107.625V115.5L102.0771484375 119.8125L107.625 124.125V127.0H104.75V125.517578125L99.0 121.025390625L93.25 125.517578125V127.0ZM109.0625 121.25V118.375H123.4375V121.25ZM124.875 127.0V112.625H142.125V115.5H127.75V127.0ZM146.34765625 124.125H157.9375V115.5H157.443359375ZM143.5625 127.0V122.6875L157.9375 111.5244140625V109.03125H160.8125V127.0ZM183.09375 124.125H194.68359375L183.587890625 115.5H183.09375ZM180.21875 127.0V109.03125H183.09375V111.5244140625L197.46875 122.6875V127.0ZM201.78125 124.125H213.28125V115.5H201.78125ZM198.90625 127.0V112.625H216.15625V127.0ZM220.46875 124.125H231.96875V115.5H220.46875ZM217.59375 127.0V112.625H234.84375V127.0ZM236.28125 127.0V124.125H250.65625V121.25H236.28125V112.625H253.53125V115.5H239.15625V118.375H253.53125V127.0ZM254.96875 127.0V109.03125H257.84375V112.625H272.21875V115.5H257.84375V124.125H272.21875V127.0ZM273.65625 127.0V124.125H288.03125V121.25H273.65625V112.625H290.90625V115.5H276.53125V118.375H290.90625V127.0ZM310.3125 127.0V109.03125H313.1875V112.625H327.5625V115.5H313.1875V124.125H327.5625V127.0ZM329.0 127.0V109.03125H331.875V111.5244140625L346.25 122.6875V127.0H343.375V124.125L332.369140625 115.5H331.875V127.0ZM347.6875 127.0V112.625H364.9375V115.5H350.5625V127.0ZM369.25 124.125H380.75V115.5H369.25ZM366.375 127.0V112.625H383.625V127.0ZM385.0625 127.0V112.625H387.9375V124.125H399.4375V112.625H402.3125V127.0ZM406.625 124.125H418.125V115.5H406.625ZM403.75 127.0V112.625H421.0V130.59375H418.125V127.0ZM422.4375 127.0V109.03125H425.3125V111.5244140625L439.6875 122.6875V127.0H436.8125V124.125L425.806640625 115.5H425.3125V127.0ZM459.09375 127.0V124.125H473.46875V121.25H459.09375V112.625H476.34375V115.5H461.96875V118.375H476.34375V127.0ZM480.65625 124.125H481.150390625L492.24609375 115.5H480.65625ZM477.78125 127.0V112.625H495.03125V116.9375L485.77734375 124.125H495.03125V127.0ZM499.34375 124.125H510.93359375L499.837890625 115.5H499.34375ZM496.46875 127.0V109.03125H499.34375V111.5244140625L513.71875 122.6875V127.0ZM518.03125 124.125H518.525390625L529.62109375 115.5H518.03125ZM515.15625 127.0V112.625H532.40625V116.9375L523.15234375 124.125H532.40625V127.0ZM533.84375 127.0V112.625H538.15625L551.09375 122.6875V127.0H548.21875V124.125L537.212890625 115.5H536.71875V127.0ZM552.53125 127.0V112.625H569.78125V115.5H555.40625V124.125H569.78125V127.0ZM574.09375 124.125H585.59375V115.5H574.09375ZM571.21875 127.0V112.625H588.46875V127.0ZM607.875 127.0V112.625H625.125V115.5H610.75V124.125H625.125V127.0ZM626.5625 127.0V109.03125H629.4375V124.125H632.3125V127.0ZM633.75 111.1875V109.03125H636.625V111.1875ZM633.75 127.0V112.625H636.625V127.0ZM638.0625 127.0V112.625H655.3125V127.0H652.4375V115.5H648.125V127.0H645.25V115.5H640.9375V127.0ZM659.625 124.125H671.21484375L660.119140625 115.5H659.625ZM656.75 127.0V109.03125H659.625V111.5244140625L674.0 122.6875V127.0Z" fill="#3a3f47"/><path d="M31.9375 163.0H40.0V157.0H39.65625ZM30.0 165.0V162.0L36.4375 157.0H30.0V155.0H42.0V165.0ZM45.0 163.0H53.0625L45.34375 157.0H45.0ZM43.0 165.0V152.5H45.0V154.234375L55.0 162.0V165.0ZM56.0 165.0V155.0H68.0V157.0H58.0V163.0H68.0V165.0ZM70.9375 163.0H79.0V157.0H78.65625ZM69.0 165.0V162.0L79.0 154.234375V152.5H81.0V165.0ZM84.0 163.0H84.34375L92.0625 157.0H84.0ZM82.0 165.0V155.0H94.0V158.0L87.5625 163.0H94.0V165.0ZM95.0 167.5V155.0H107.0V157.0H97.0V163.0H107.0V165.0H97.0V167.5ZM110.0 163.0H118.0V157.0H110.0ZM108.0 165.0V155.0H120.0V167.5H118.0V165.0ZM121.0 165.0V152.5H123.0V154.234375L133.0 162.0V165.0H131.0V163.0L123.34375 157.0H123.0V165.0ZM134.0 154.0V152.5H136.0V154.0ZM134.0 165.0V155.0H136.0V165.0ZM142.0 154.0V152.5H144.0V154.0ZM137.0 167.5V165.5H138.3125L142.0 162.625V155.0H144.0V163.59375L139.0 167.5ZM145.0 165.0V152.5H147.0V157.34375L150.0 155.0H157.0V157.0H150.6875L147.0 159.875V163.0H157.0V165.0ZM158.0 165.0V152.5H160.0V163.0H162.0V165.0ZM163.0 165.0V155.0H175.0V165.0H173.0V157.0H170.0V165.0H168.0V157.0H165.0V165.0ZM176.0 165.0V155.0H179.0L188.0 162.0V165.0H186.0V163.0L178.34375 157.0H178.0V165.0ZM191.0 163.0H199.0V157.0H191.0ZM189.0 165.0V155.0H201.0V165.0ZM204.0 163.0H212.0V157.0H204.0ZM202.0 167.5V155.0H214.0V165.0H204.0V167.5ZM216.9375 157.0 224.65625 163.0H225.0V157.0ZM215.0 158.0V155.0H227.0V167.5H225.0V165.765625ZM228.0 165.0V155.0H240.0V157.0H230.0V165.0ZM241.0 165.0V163.0H251.0V161.0H241.0V155.0H253.0V157.0H243.0V159.0H253.0V165.0ZM254.0 165.0V152.5H256.0V155.0H266.0V157.0H256.0V163.0H266.0V165.0ZM267.0 165.0V155.0H269.0V163.0H277.0V155.0H279.0V165.0ZM280.0 158.0V155.0H282.0V157.0L289.65625 163.0H290.0V155.0H292.0V165.0H289.0ZM293.0 165.0V155.0H295.0V163.0H298.0V155.0H300.0V163.0H303.0V155.0H305.0V165.0ZM306.0 165.0V163.0L309.859375 160.0L306.0 157.0V155.0H308.0V156.03125L312.0 159.15625L316.0 156.03125V155.0H318.0V157.0L314.140625 160.0L318.0 163.0V165.0H316.0V163.96875L312.0 160.84375L308.0 163.96875V165.0ZM319.0 158.0V155.0H321.0V157.0L328.65625 163.0H329.0V155.0H331.0V167.5H329.0V165.765625ZM332.0 157.0V155.0H342.0V158.0L335.5625 163.0H342.0V165.0H332.34375V163.0L340.0625 157.0Z" fill="#6b7280"/><path d="M31.9375 192.0H40.0V186.0H39.65625ZM30.0 194.0V191.0L36.4375 186.0H30.0V184.0H42.0V194.0ZM45.0 192.0H53.0625L45.34375 186.0H45.0ZM43.0 194.0V181.5H45.0V183.234375L55.0 191.0V194.0ZM56.0 194.0V184.0H68.0V186.0H58.0V192.0H68.0V194.0ZM70.9375 192.0H79.0V186.0H78.65625ZM69.0 194.0V191.0L79.0 183.234375V181.5H81.0V194.0ZM84.0 192.0H84.34375L92.0625 186.0H84.0ZM82.0 194.0V184.0H94.0V187.0L87.5625 192.0H94.0V194.0ZM95.0 196.5V184.0H107.0V186.0H97.0V192.0H107.0V194.0H97.0V196.5ZM110.0 192.0H118.0V186.0H110.0ZM108.0 194.0V184.0H120.0V196.5H118.0V194.0ZM121.0 194.0V181.5H123.0V183.234375L133.0 191.0V194.0H131.0V192.0L123.34375 186.0H123.0V194.0ZM134.0 183.0V181.5H136.0V183.0ZM134.0 194.0V184.0H136.0V194.0ZM142.0 183.0V181.5H144.0V183.0ZM137.0 196.5V194.5H138.3125L142.0 191.625V184.0H144.0V192.59375L139.0 196.5ZM145.0 194.0V181.5H147.0V186.34375L150.0 184.0H157.0V186.0H150.6875L147.0 188.875V192.0H157.0V194.0ZM158.0 194.0V181.5H160.0V192.0H162.0V194.0ZM163.0 194.0V184.0H175.0V194.0H173.0V186.0H170.0V194.0H168.0V186.0H165.0V194.0ZM176.0 194.0V184.0H179.0L188.0 191.0V194.0H186.0V192.0L178.34375 186.0H178.0V194.0ZM191.0 192.0H199.0V186.0H191.0ZM189.0 194.0V184.0H201.0V194.0ZM204.0 192.0H212.0V186.0H204.0ZM202.0 196.5V184.0H214.0V194.0H204.0V196.5ZM216.9375 186.0 224.65625 192.0H225.0V186.0ZM215.0 187.0V184.0H227.0V196.5H225.0V194.765625ZM228.0 194.0V184.0H240.0V186.0H230.0V194.0ZM241.0 194.0V192.0H251.0V190.0H241.0V184.0H253.0V186.0H243.0V188.0H253.0V194.0ZM254.0 194.0V181.5H256.0V184.0H266.0V186.0H256.0V192.0H266.0V194.0ZM267.0 194.0V184.0H269.0V192.0H277.0V184.0H279.0V194.0ZM280.0 187.0V184.0H282.0V186.0L289.65625 192.0H290.0V184.0H292.0V194.0H289.0ZM293.0 194.0V184.0H295.0V192.0H298.0V184.0H300.0V192.0H303.0V184.0H305.0V194.0ZM306.0 194.0V192.0L309.859375 189.0L306.0 186.0V184.0H308.0V185.03125L312.0 188.15625L316.0 185.03125V184.0H318.0V186.0L314.140625 189.0L318.0 192.0V194.0H316.0V192.96875L312.0 189.84375L308.0 192.96875V194.0ZM319.0 187.0V184.0H321.0V186.0L328.65625 192.0H329.0V184.0H331.0V196.5H329.0V194.765625ZM332.0 186.0V184.0H342.0V187.0L335.5625 192.0H342.0V194.0H332.34375V192.0L340.0625 186.0ZM370.0 192.0H378.0V186.0H370.0ZM368.0 194.0V184.0H380.0V194.0ZM381.0 186.0V184.0H386.0V194.0H384.0V186.0ZM387.0 194.0V188.0H397.0V186.0H387.0V184.0H399.0V190.0H389.0V192.0H399.0V194.0ZM400.0 194.0V192.0H410.0V190.0H400.0V188.0H410.0V186.0H400.0V184.0H412.0V194.0ZM413.0 194.0V191.0L420.65625 185.03125V184.0H422.65625V186.0L414.9375 192.0H423.0V188.0H425.0V196.5H423.0V194.0ZM426.0 194.0V192.0H436.0V190.0H426.0V184.0H438.0V186.0H428.0V188.0H438.0V194.0ZM441.0 192.0H449.0V188.9375H441.75L441.0 189.53125ZM439.0 194.0V188.5625L442.3125 186.0V184.0H444.25V186.9375H451.0V194.0ZM452.0 186.0V184.0H464.0V187.0L456.34375 192.96875V194.0H454.34375V192.0L462.0625 186.0ZM465.0 194.0V184.0H477.0V194.0ZM467.0 192.0H475.0V190.0H467.0ZM467.0 188.0H475.0V186.0H467.0ZM480.0 189.0625H487.25L488.0 188.46875V186.0H480.0ZM478.0 191.0625V184.0H490.0V189.4375L486.6875 192.0V194.0H484.75V191.0625ZM516.0 194.0V192.0H518.0V194.0ZM516.0 191.0V188.0H526.0V186.0H516.0V184.0H528.0V190.0H518.0V191.0ZM529.0 194.0V192.0H531.0V194.0ZM532.0 196.5V192.0H534.0V196.5ZM535.0 191.0V184.0H537.0V191.0ZM535.0 194.0V192.0H537.0V194.0ZM538.0 194.0V192.0H540.0V194.0ZM538.0 191.0V188.0H548.0V186.0H538.0V184.0H550.0V190.0H540.0V191.0Z" fill="#6b7280"/></svg>