<svg xmlns="http://www.w3.org/2000/svg" viewBox="0 0 700.1 222.0" width="700" height="222"><path d="M30.0 76.0V43.65625H62.34375V49.046875H35.390625V57.1328125H62.34375V62.5234375H35.390625V76.0ZM65.0390625 76.0V70.609375H91.9921875V59.828125H65.0390625V43.65625H97.3828125V49.046875H70.4296875V54.4375H97.3828125V76.0ZM105.46875 70.609375H127.03125V49.046875H105.46875ZM100.078125 76.0V43.65625H132.421875V76.0ZM140.5078125 70.609375H162.0703125V49.046875H140.5078125ZM135.1171875 76.0V43.65625H167.4609375V76.0ZM175.546875 70.609375H197.109375V49.046875H175.546875ZM170.15625 76.0V43.65625H202.5V76.0Z" fill="#12151a"/><path d="M30.0 113.5234375V110.828125H46.171875V113.5234375H39.43359375V127.0H36.73828125V113.5234375ZM47.51953125 127.0V110.828125H50.21484375V117.56640625H60.99609375V110.828125H63.69140625V127.0H60.99609375V120.26171875H50.21484375V127.0ZM65.0390625 127.0V110.828125H81.2109375V113.5234375H67.734375V117.56640625H81.2109375V120.26171875H67.734375V124.3046875H81.2109375V127.0ZM87.94921875 127.0V110.828125H104.12109375V113.5234375H90.64453125V117.56640625H104.12109375V120.26171875H90.64453125V127.0ZM105.46875 127.0V124.3046875H118.9453125V118.9140625H105.46875V110.828125H121.640625V113.5234375H108.1640625V116.21875H121.640625V127.0ZM125.68359375 124.3046875H136.46484375V113.5234375H125.68359375ZM122.98828125 127.0V110.828125H139.16015625V127.0ZM143.203125 124.3046875H153.984375V113.5234375H143.203125ZM140.5078125 127.0V110.828125H156.6796875V127.0ZM160.72265625 124.3046875H171.50390625V113.5234375H160.72265625ZM158.02734375 127.0V110.828125H174.19921875V127.0ZM180.9375 127.0V110.828125H183.6328125V124.3046875H197.109375V127.0ZM198.45703125 127.0V110.828125H214.62890625V113.5234375H201.15234375V117.56640625H214.62890625V120.26171875H201.15234375V124.3046875H214.62890625V127.0ZM218.671875 117.56640625H229.453125V113.5234375H218.671875ZM215.9765625 127.0V110.828125H232.1484375V127.0H229.453125V120.26171875H218.671875V127.0ZM233.49609375 127.0V110.828125H249.66796875V113.5234375H236.19140625V124.3046875H246.97265625V120.26171875H240.234375V117.56640625H249.66796875V127.0ZM251.015625 127.0V110.828125H253.7109375V124.3046875H264.4921875V110.828125H267.1875V127.0ZM268.53515625 127.0V110.828125H284.70703125V113.5234375H271.23046875V117.56640625H284.70703125V120.26171875H271.23046875V124.3046875H284.70703125V127.0ZM291.4453125 127.0V110.828125H294.140625V127.0ZM295.48828125 127.0V110.828125H311.66015625V113.5234375H298.18359375V124.3046875H308.96484375V120.26171875H302.2265625V117.56640625H311.66015625V127.0ZM313.0078125 127.0V110.828125H329.1796875V127.0H326.484375V113.5234375H315.703125V127.0ZM330.52734375 127.0V110.828125H333.22265625V127.0ZM334.5703125 113.5234375V110.828125H350.7421875V113.5234375H344.00390625V127.0H341.30859375V113.5234375ZM352.08984375 127.0V110.828125H368.26171875V113.5234375H354.78515625V117.56640625H368.26171875V120.26171875H354.78515625V124.3046875H368.26171875V127.0ZM369.609375 127.0V124.3046875H383.0859375V120.26171875H369.609375V110.828125H385.78125V113.5234375H372.3046875V117.56640625H385.78125V127.0ZM395.21484375 124.3046875H405.99609375V113.5234375H395.21484375ZM392.51953125 127.0V110.828125H408.69140625V127.0ZM412.734375 127.0V124.3046875H423.515625V127.0ZM423.515625 124.3046875V110.828125H426.2109375V124.3046875ZM410.0390625 124.3046875V110.828125H412.734375V124.3046875ZM427.55859375 127.0V110.828125H443.73046875V113.5234375H430.25390625V117.56640625H443.73046875V120.26171875H430.25390625V124.3046875H443.73046875V127.0ZM445.078125 127.0V110.828125H461.25V120.26171875H458.5546875V124.3046875H461.25V127.0H455.859375V120.26171875H447.7734375V127.0ZM447.7734375 117.56640625H458.5546875V113.5234375H447.7734375ZM467.98828125 113.5234375V110.828125H484.16015625V113.5234375H477.421875V127.0H474.7265625V113.5234375ZM488.203125 117.56640625H498.984375V113.5234375H488.203125ZM485.5078125 127.0V110.828125H501.6796875V127.0H498.984375V120.26171875H488.203125V127.0ZM503.02734375 127.0V110.828125H505.72265625V124.3046875H519.19921875V127.0ZM523.2421875 124.3046875H534.0234375V113.5234375H523.2421875ZM520.546875 127.0V110.828125H536.71875V127.0ZM538.06640625 127.0V110.828125H554.23828125V127.0H551.54296875V113.5234375H540.76171875V127.0ZM555.5859375 116.21875V110.828125H558.28125V116.21875ZM559.62890625 127.0V124.3046875H573.10546875V120.26171875H559.62890625V110.828125H575.80078125V113.5234375H562.32421875V117.56640625H575.80078125V127.0ZM582.5390625 127.0V110.828125H598.7109375V120.26171875H596.015625V124.3046875H598.7109375V127.0H593.3203125V120.26171875H585.234375V127.0ZM585.234375 117.56640625H596.015625V113.5234375H585.234375ZM600.05859375 127.0V110.828125H616.23046875V113.5234375H602.75390625V117.56640625H616.23046875V120.26171875H602.75390625V124.3046875H616.23046875V127.0ZM620.2734375 117.56640625H631.0546875V113.5234375H620.2734375ZM617.578125 127.0V110.828125H633.75V127.0H631.0546875V120.26171875H620.2734375V127.0ZM635.09765625 127.0V110.828125H651.26953125V113.5234375H637.79296875V124.3046875H651.26953125V127.0ZM652.6171875 127.0V110.828125H655.3125V117.56640625H666.09375V110.828125H668.7890625V127.0H666.09375V120.26171875H655.3125V127.0Z" fill="#3a3f47"/><path d="M31.875 158.4375H39.375V155.625H31.875ZM30.0 165.0V153.75H41.25V165.0H39.375V160.3125H31.875V165.0ZM44.0625 158.4375H51.5625V155.625H44.0625ZM44.0625 163.125H51.5625V160.3125H44.0625ZM42.1875 165.0V153.75H53.4375V165.0ZM54.375 165.0V153.75H65.625V155.625H56.25V163.125H65.625V165.0ZM75.9375 163.125V155.625H77.8125V163.125ZM66.5625 165.0V153.75H75.9375V155.625H68.4375V163.125H75.9375V165.0ZM78.75 165.0V153.75H90.0V155.625H80.625V158.4375H90.0V160.3125H80.625V163.125H90.0V165.0ZM90.9375 165.0V153.75H102.1875V155.625H92.8125V158.4375H102.1875V160.3125H92.8125V165.0ZM103.125 165.0V153.75H114.375V155.625H105.0V163.125H112.5V160.3125H107.8125V158.4375H114.375V165.0ZM115.3125 165.0V153.75H117.1875V158.4375H124.6875V153.75H126.5625V165.0H124.6875V160.3125H117.1875V165.0ZM127.5 165.0V153.75H129.375V165.0ZM130.3125 165.0V158.4375H132.1875V163.125H139.6875V153.75H141.5625V165.0ZM142.5 165.0V153.75H144.375V158.4375H150.0V153.75H151.875V158.4375H153.75V165.0H151.875V160.3125H144.375V165.0ZM154.6875 165.0V153.75H156.5625V163.125H165.9375V165.0ZM166.875 165.0V153.75H178.125V165.0H176.25V155.625H173.4375V165.0H171.5625V155.625H168.75V165.0ZM179.0625 165.0V153.75H190.3125V165.0H188.4375V155.625H180.9375V165.0ZM193.125 163.125H200.625V155.625H193.125ZM191.25 165.0V153.75H202.5V165.0ZM205.3125 158.4375H212.8125V155.625H205.3125ZM203.4375 165.0V153.75H214.6875V160.3125H205.3125V165.0ZM219.375 163.125H225.0V155.625H219.375ZM215.625 165.0V163.125H217.5V153.75H226.875V165.0ZM227.8125 165.0V153.75H239.0625V160.3125H237.1875V163.125H239.0625V165.0H235.3125V160.3125H229.6875V165.0ZM229.6875 158.4375H237.1875V155.625H229.6875ZM240.0 165.0V163.125H249.375V160.3125H240.0V153.75H251.25V155.625H241.875V158.4375H251.25V165.0ZM252.1875 155.625V153.75H263.4375V155.625H258.75V165.0H256.875V155.625ZM264.375 165.0V153.75H266.25V163.125H273.75V153.75H275.625V165.0ZM278.4375 165.0V163.125H285.9375V165.0ZM285.9375 163.125V153.75H287.8125V163.125ZM276.5625 163.125V153.75H278.4375V163.125ZM288.75 165.0V153.75H290.625V163.125H293.4375V153.75H295.3125V163.125H298.125V153.75H300.0V165.0ZM300.9375 157.5V153.75H302.8125V157.5ZM310.3125 157.5V153.75H312.1875V157.5ZM310.3125 165.0V159.375H312.1875V165.0ZM300.9375 165.0V159.375H302.8125V165.0ZM302.8125 159.375V157.5H310.3125V159.375ZM313.125 159.375V153.75H315.0V157.5H322.5V153.75H324.375V159.375H319.6875V165.0H317.8125V159.375ZM325.3125 165.0V163.125H327.1875V161.25H329.0625V163.125H336.5625V165.0ZM325.3125 155.625V153.75H336.5625V155.625H334.6875V157.5H332.8125V155.625ZM330.9375 159.375V157.5H332.8125V159.375ZM329.0625 161.25V159.375H330.9375V161.25Z" fill="#6b7280"/><path d="M31.875 187.4375H39.375V184.625H31.875ZM30.0 194.0V182.75H41.25V194.0H39.375V189.3125H31.875V194.0ZM44.0625 187.4375H51.5625V184.625H44.0625ZM44.0625 192.125H51.5625V189.3125H44.0625ZM42.1875 194.0V182.75H53.4375V194.0ZM54.375 194.0V182.75H65.625V184.625H56.25V192.125H65.625V194.0ZM75.9375 192.125V184.625H77.8125V192.125ZM66.5625 194.0V182.75H75.9375V184.625H68.4375V192.125H75.9375V194.0ZM78.75 194.0V182.75H90.0V184.625H80.625V187.4375H90.0V189.3125H80.625V192.125H90.0V194.0ZM90.9375 194.0V182.75H102.1875V184.625H92.8125V187.4375H102.1875V189.3125H92.8125V194.0ZM103.125 194.0V182.75H114.375V184.625H105.0V192.125H112.5V189.3125H107.8125V187.4375H114.375V194.0ZM115.3125 194.0V182.75H117.1875V187.4375H124.6875V182.75H126.5625V194.0H124.6875V189.3125H117.1875V194.0ZM127.5 194.0V182.75H129.375V194.0ZM130.3125 194.0V187.4375H132.1875V192.125H139.6875V182.75H141.5625V194.0ZM142.5 194.0V182.75H144.375V187.4375H150.0V182.75H151.875V187.4375H153.75V194.0H151.875V189.3125H144.375V194.0ZM154.6875 194.0V182.75H156.5625V192.125H165.9375V194.0ZM166.875 194.0V182.75H178.125V194.0H176.25V184.625H173.4375V194.0H171.5625V184.625H168.75V194.0ZM179.0625 194.0V182.75H190.3125V194.0H188.4375V184.625H180.9375V194.0ZM193.125 192.125H200.625V184.625H193.125ZM191.25 194.0V182.75H202.5V194.0ZM205.3125 187.4375H212.8125V184.625H205.3125ZM203.4375 194.0V182.75H214.6875V189.3125H205.3125V194.0ZM219.375 192.125H225.0V184.625H219.375ZM215.625 194.0V192.125H217.5V182.75H226.875V194.0ZM227.8125 194.0V182.75H239.0625V189.3125H237.1875V192.125H239.0625V194.0H235.3125V189.3125H229.6875V194.0ZM229.6875 187.4375H237.1875V184.625H229.6875ZM240.0 194.0V192.125H249.375V189.3125H240.0V182.75H251.25V184.625H241.875V187.4375H251.25V194.0ZM252.1875 184.625V182.75H263.4375V184.625H258.75V194.0H256.875V184.625ZM264.375 194.0V182.75H266.25V192.125H273.75V182.75H275.625V194.0ZM278.4375 194.0V192.125H285.9375V194.0ZM285.9375 192.125V182.75H287.8125V192.125ZM276.5625 192.125V182.75H278.4375V192.125ZM288.75 194.0V182.75H290.625V192.125H293.4375V182.75H295.3125V192.125H298.125V182.75H300.0V194.0ZM300.9375 186.5V182.75H302.8125V186.5ZM310.3125 186.5V182.75H312.1875V186.5ZM310.3125 194.0V188.375H312.1875V194.0ZM300.9375 194.0V188.375H302.8125V194.0ZM302.8125 188.375V186.5H310.3125V188.375ZM313.125 188.375V182.75H315.0V186.5H322.5V182.75H324.375V188.375H319.6875V194.0H317.8125V188.375ZM325.3125 194.0V192.125H327.1875V190.25H329.0625V192.125H336.5625V194.0ZM325.3125 184.625V182.75H336.5625V184.625H334.6875V186.5H332.8125V184.625ZM330.9375 188.375V186.5H332.8125V188.375ZM329.0625 190.25V188.375H330.9375V190.25ZM346.875 192.125H354.375V184.625H346.875ZM345.0 194.0V182.75H356.25V194.0ZM357.1875 194.0V192.125H361.875V184.625H357.1875V182.75H363.75V192.125H368.4375V194.0ZM369.375 194.0V186.5H378.75V184.625H369.375V182.75H380.625V188.375H371.25V192.125H380.625V194.0ZM381.5625 194.0V192.125H390.9375V188.375H381.5625V186.5H390.9375V184.625H381.5625V182.75H392.8125V194.0ZM393.75 188.375V182.75H395.625V186.5H399.375V182.75H401.25V186.5H405.0V188.375H401.25V194.0H399.375V188.375ZM405.9375 194.0V192.125H415.3125V188.375H405.9375V182.75H417.1875V184.625H407.8125V186.5H417.1875V194.0ZM420.0 192.125H427.5V188.375H420.0ZM418.125 194.0V182.75H420.0V186.5H429.375V194.0ZM430.3125 184.625V182.75H441.5625V194.0H439.6875V184.625ZM444.375 186.5H451.875V184.625H444.375ZM444.375 192.125H451.875V188.375H444.375ZM442.5 194.0V182.75H453.75V194.0ZM456.5625 188.375H464.0625V184.625H456.5625ZM454.6875 190.25V182.75H465.9375V194.0H464.0625V190.25ZM476.25 194.0V192.125H478.125V194.0ZM474.375 184.625V182.75H483.75V189.3125H476.25V187.4375H481.875V184.625ZM484.6875 194.0V192.125H486.5625V194.0ZM487.5 195.875V192.125H489.375V195.875ZM490.3125 190.25V182.75H492.1875V190.25ZM490.3125 194.0V192.125H492.1875V194.0ZM495.0 194.0V192.125H496.875V194.0ZM493.125 184.625V182.75H502.5V189.3125H495.0V187.4375H500.625V184.625Z" fill="#6b7280"/></svg>