<svg xmlns="http://www.w3.org/2000/svg" viewBox="0 0 837.7 222.0" width="838" height="222"><path d="M30.0 76.0V44.375H73.125V53.0H38.625V55.875H73.125V64.5H38.625V76.0ZM110.5 55.875V53.0H84.625V55.875ZM76.0 76.0V44.375H119.125V64.5H84.625V67.375H119.125V76.0ZM122.0 76.0V44.375H130.625V76.0ZM133.5 76.0V67.375H168.0V64.5H133.5V44.375H176.625V53.0H142.125V55.875H176.625V76.0ZM214.0 67.375V64.5H188.125V67.375ZM179.5 76.0V55.875H214.0V53.0H179.5V44.375H222.625V76.0ZM225.5 76.0V44.375H268.625V53.0H234.125V76.0Z" fill="#12151a"/><path d="M30.0 127.0V111.1875H51.5625V115.5H34.3125V116.9375H51.5625V121.25H34.3125V127.0ZM70.25 116.9375V115.5H57.3125V116.9375ZM53.0 127.0V111.1875H74.5625V121.25H57.3125V122.6875H74.5625V127.0ZM76.0 127.0V111.1875H80.3125V127.0ZM81.75 127.0V122.6875H99.0V121.25H81.75V111.1875H103.3125V115.5H86.0625V116.9375H103.3125V127.0ZM122.0 122.6875V121.25H109.0625V122.6875ZM104.75 127.0V116.9375H122.0V115.5H104.75V111.1875H126.3125V127.0ZM127.75 127.0V111.1875H149.3125V115.5H132.0625V127.0ZM160.8125 127.0V111.1875H182.375V115.5H165.125V116.9375H182.375V121.25H165.125V127.0ZM183.8125 127.0V111.1875H188.125V122.6875H205.375V127.0ZM206.8125 127.0V111.1875H211.125V127.0ZM229.8125 116.9375V115.5H216.875V116.9375ZM212.5625 127.0V111.1875H234.125V121.25H216.875V122.6875H234.125V127.0ZM235.5625 127.0V122.6875H252.8125V121.25H235.5625V111.1875H257.125V115.5H239.875V116.9375H257.125V127.0ZM285.875 122.6875V121.25H272.9375V122.6875ZM268.625 127.0V111.1875H272.9375V116.9375H290.1875V127.0ZM291.625 127.0V111.1875H295.9375V122.6875H313.1875V127.0ZM314.625 127.0V111.1875H318.9375V122.6875H331.875V111.1875H336.1875V127.0ZM354.875 116.9375V115.5H341.9375V116.9375ZM337.625 127.0V111.1875H359.1875V121.25H341.9375V122.6875H359.1875V127.0ZM387.9375 122.6875V121.25H375.0V122.6875ZM370.6875 127.0V116.9375H387.9375V115.5H370.6875V111.1875H392.25V127.0ZM393.6875 127.0V111.1875H415.25V127.0H410.9375V115.5H398.0V127.0ZM433.9375 122.6875V121.25H421.0V122.6875ZM416.6875 127.0V116.9375H433.9375V111.1875H438.25V127.0ZM467.0 116.9375V115.5H454.0625V116.9375ZM449.75 127.0V122.6875H467.0V121.25H449.75V111.1875H471.3125V127.0ZM490.0 122.6875V115.5H477.0625V122.6875ZM472.75 127.0V111.1875H494.3125V127.0ZM495.75 127.0V111.1875H500.0625V122.6875H517.3125V127.0ZM536.0 122.6875V121.25H523.0625V122.6875ZM518.75 127.0V116.9375H536.0V111.1875H540.3125V127.0ZM569.0625 122.6875V115.5H556.125V122.6875ZM551.8125 127.0V111.1875H573.375V127.0ZM574.8125 127.0V111.1875H579.125V122.6875L580.5625 121.96875L582.0 121.25L583.4375 120.53125L584.875 119.8125L586.3125 119.09375L587.75 118.375L589.1875 117.65625L590.625 116.9375L592.0625 116.21875V111.1875H596.375V118.375L594.9375 119.09375L593.5 119.8125L592.0625 120.53125L590.625 121.25L589.1875 121.96875L587.75 122.6875L586.3125 123.40625L584.875 124.125L583.4375 124.84375L582.0 125.5625L580.5625 126.28125L579.125 127.0ZM615.0625 116.9375V115.5H602.125V116.9375ZM597.8125 127.0V111.1875H619.375V121.25H602.125V122.6875H619.375V127.0ZM620.8125 127.0V111.1875H642.375V115.5H625.125V127.0ZM653.875 127.0V111.1875H658.1875V122.6875L659.625 121.96875L661.0625 121.25L662.5 120.53125L663.9375 119.8125L665.375 119.09375L666.8125 118.375L668.25 117.65625L669.6875 116.9375L671.125 116.21875V111.1875H675.4375V118.375L674.0 119.09375L672.5625 119.8125L671.125 120.53125L669.6875 121.25L668.25 121.96875L666.8125 122.6875L665.375 123.40625L663.9375 124.125L662.5 124.84375L661.0625 125.5625L659.625 126.28125L658.1875 127.0ZM676.875 127.0V111.1875H681.1875V127.0ZM682.625 127.0V111.1875H704.1875V127.0H699.875V115.5H686.9375V127.0ZM722.875 116.9375V115.5H709.9375V116.9375ZM705.625 127.0V111.1875H727.1875V121.25H709.9375V122.6875H727.1875V127.0ZM737.25 127.0V115.5H728.625V111.1875H750.1875V115.5H741.5625V127.0ZM768.875 122.6875V121.25H755.9375V122.6875ZM751.625 127.0V116.9375H768.875V115.5H751.625V111.1875H773.1875V127.0ZM784.6875 127.0V111.1875H789.0V116.9375H799.0625L799.78125 115.5L800.5 114.0625L801.21875 112.625L801.9375 111.1875H806.25L805.53125 112.625L804.8125 114.0625L804.09375 115.5L803.375 116.9375L802.65625 118.375V119.8125L803.375 121.25L804.09375 122.6875L804.8125 124.125L805.53125 125.5625L806.25 127.0H801.9375L801.21875 125.5625L800.5 124.125L799.78125 122.6875L799.0625 121.25H789.0V127.0Z" fill="#3a3f47"/><path d="M42.0 162.0V161.0H33.0V162.0ZM30.0 165.0V158.0H42.0V157.0H30.0V154.0H45.0V165.0ZM58.0 162.0V161.0H49.0V162.0ZM46.0 165.0V154.0H49.0V158.0H61.0V165.0ZM62.0 165.0V154.0H77.0V157.0H65.0V162.0H77.0V165.0ZM90.0 162.0V161.0H81.0V162.0ZM78.0 165.0V158.0H90.0V154.0H93.0V165.0ZM106.0 158.0V157.0H97.0V158.0ZM94.0 165.0V154.0H109.0V161.0H97.0V162.0H109.0V165.0ZM110.0 165.0V154.0H125.0V157.0H113.0V158.0H125.0V161.0H113.0V165.0ZM138.0 158.0V157.0H129.0V158.0ZM126.0 165.0V162.0H138.0V161.0H126.0V154.0H141.0V165.0ZM142.0 165.0V154.0H145.0V158.0H154.0V154.0H157.0V165.0H154.0V161.0H145.0V165.0ZM158.0 165.0V154.0H161.0V165.0ZM162.0 165.0V162.0H174.0V154.0H177.0V165.0ZM178.0 165.0V154.0H181.0V158.0H188.0L188.5 157.0L189.0 156.0L189.5 155.0L190.0 154.0H193.0L192.5 155.0L192.0 156.0L191.5 157.0L191.0 158.0L190.5 159.0V160.0L191.0 161.0L191.5 162.0L192.0 163.0L192.5 164.0L193.0 165.0H190.0L189.5 164.0L189.0 163.0L188.5 162.0L188.0 161.0H181.0V165.0ZM194.0 165.0V154.0H197.0V162.0H209.0V165.0ZM210.0 165.0V154.0H225.0V165.0H222.0V157.0H219.0V165.0H216.0V157.0H213.0V165.0ZM226.0 165.0V154.0H241.0V165.0H238.0V157.0H229.0V165.0ZM254.0 162.0V157.0H245.0V162.0ZM242.0 165.0V154.0H257.0V165.0ZM270.0 158.0V157.0H261.0V158.0ZM258.0 165.0V154.0H273.0V161.0H261.0V165.0ZM286.0 158.0V157.0H277.0V158.0ZM286.0 165.0V161.0H274.0V154.0H289.0V165.0ZM290.0 165.0V154.0H305.0V157.0H293.0V165.0ZM306.0 165.0V162.0H318.0V161.0H306.0V154.0H321.0V157.0H309.0V158.0H321.0V165.0ZM328.0 165.0V157.0H322.0V154.0H337.0V157.0H331.0V165.0ZM338.0 165.0V154.0H341.0V162.0H350.0V154.0H353.0V165.0ZM354.0 165.0V154.0H357.0V162.0L358.0 161.5L359.0 161.0L360.0 160.5L361.0 160.0L362.0 159.5L363.0 159.0L364.0 158.5L365.0 158.0L366.0 157.5V154.0H369.0V159.0L368.0 159.5L367.0 160.0L366.0 160.5L365.0 161.0L364.0 161.5L363.0 162.0L362.0 162.5L361.0 163.0L360.0 163.5L359.0 164.0L358.0 164.5L357.0 165.0ZM370.0 165.0V154.0H373.0V162.0H376.0V154.0H379.0V162.0H382.0V154.0H385.0V165.0ZM386.0 165.0 386.5 164.0 387.0 163.0 387.5 162.0 388.0 161.0 388.5 160.0V159.0L388.0 158.0L387.5 157.0L387.0 156.0L386.5 155.0L386.0 154.0H389.0L389.5 155.0L390.0 156.0L390.5 157.0L391.0 158.0H396.0L396.5 157.0L397.0 156.0L397.5 155.0L398.0 154.0H401.0L400.5 155.0L400.0 156.0L399.5 157.0L399.0 158.0L398.5 159.0V160.0L399.0 161.0L399.5 162.0L400.0 163.0L400.5 164.0L401.0 165.0H398.0L397.5 164.0L397.0 163.0L396.5 162.0L396.0 161.0H391.0L390.5 162.0L390.0 163.0L389.5 164.0L389.0 165.0ZM414.0 165.0V161.0H402.0V154.0H405.0V158.0H414.0V154.0H417.0V165.0ZM418.0 165.0V158.0H430.0V157.0H418.0V154.0H433.0V161.0H421.0V162.0H433.0V165.0Z" fill="#6b7280"/><path d="M42.0 191.0V190.0H33.0V191.0ZM30.0 194.0V187.0H42.0V186.0H30.0V183.0H45.0V194.0ZM58.0 191.0V190.0H49.0V191.0ZM46.0 194.0V183.0H49.0V187.0H61.0V194.0ZM62.0 194.0V183.0H77.0V186.0H65.0V191.0H77.0V194.0ZM90.0 191.0V190.0H81.0V191.0ZM78.0 194.0V187.0H90.0V183.0H93.0V194.0ZM106.0 187.0V186.0H97.0V187.0ZM94.0 194.0V183.0H109.0V190.0H97.0V191.0H109.0V194.0ZM110.0 194.0V183.0H125.0V186.0H113.0V187.0H125.0V190.0H113.0V194.0ZM138.0 187.0V186.0H129.0V187.0ZM126.0 194.0V191.0H138.0V190.0H126.0V183.0H141.0V194.0ZM142.0 194.0V183.0H145.0V187.0H154.0V183.0H157.0V194.0H154.0V190.0H145.0V194.0ZM158.0 194.0V183.0H161.0V194.0ZM162.0 194.0V191.0H174.0V183.0H177.0V194.0ZM178.0 194.0V183.0H181.0V187.0H188.0L188.5 186.0L189.0 185.0L189.5 184.0L190.0 183.0H193.0L192.5 184.0L192.0 185.0L191.5 186.0L191.0 187.0L190.5 188.0V189.0L191.0 190.0L191.5 191.0L192.0 192.0L192.5 193.0L193.0 194.0H190.0L189.5 193.0L189.0 192.0L188.5 191.0L188.0 190.0H181.0V194.0ZM194.0 194.0V183.0H197.0V191.0H209.0V194.0ZM210.0 194.0V183.0H225.0V194.0H222.0V186.0H219.0V194.0H216.0V186.0H213.0V194.0ZM226.0 194.0V183.0H241.0V194.0H238.0V186.0H229.0V194.0ZM254.0 191.0V186.0H245.0V191.0ZM242.0 194.0V183.0H257.0V194.0ZM270.0 187.0V186.0H261.0V187.0ZM258.0 194.0V183.0H273.0V190.0H261.0V194.0ZM286.0 187.0V186.0H277.0V187.0ZM286.0 194.0V190.0H274.0V183.0H289.0V194.0ZM290.0 194.0V183.0H305.0V186.0H293.0V194.0ZM306.0 194.0V191.0H318.0V190.0H306.0V183.0H321.0V186.0H309.0V187.0H321.0V194.0ZM328.0 194.0V186.0H322.0V183.0H337.0V186.0H331.0V194.0ZM338.0 194.0V183.0H341.0V191.0H350.0V183.0H353.0V194.0ZM354.0 194.0V183.0H357.0V191.0L358.0 190.5L359.0 190.0L360.0 189.5L361.0 189.0L362.0 188.5L363.0 188.0L364.0 187.5L365.0 187.0L366.0 186.5V183.0H369.0V188.0L368.0 188.5L367.0 189.0L366.0 189.5L365.0 190.0L364.0 190.5L363.0 191.0L362.0 191.5L361.0 192.0L360.0 192.5L359.0 193.0L358.0 193.5L357.0 194.0ZM370.0 194.0V183.0H373.0V191.0H376.0V183.0H379.0V191.0H382.0V183.0H385.0V194.0ZM386.0 194.0 386.5 193.0 387.0 192.0 387.5 191.0 388.0 190.0 388.5 189.0V188.0L388.0 187.0L387.5 186.0L387.0 185.0L386.5 184.0L386.0 183.0H389.0L389.5 184.0L390.0 185.0L390.5 186.0L391.0 187.0H396.0L396.5 186.0L397.0 185.0L397.5 184.0L398.0 183.0H401.0L400.5 184.0L400.0 185.0L399.5 186.0L399.0 187.0L398.5 188.0V189.0L399.0 190.0L399.5 191.0L400.0 192.0L400.5 193.0L401.0 194.0H398.0L397.5 193.0L397.0 192.0L396.5 191.0L396.0 190.0H391.0L390.5 191.0L390.0 192.0L389.5 193.0L389.0 194.0ZM414.0 194.0V190.0H402.0V183.0H405.0V187.0H414.0V183.0H417.0V194.0ZM418.0 194.0V187.0H430.0V186.0H418.0V183.0H433.0V190.0H421.0V191.0H433.0V194.0Z" fill="#6b7280"/></svg>