<svg xmlns="http://www.w3.org/2000/svg" viewBox="0 0 694.3 222.0" width="694" height="222"><path d="M30.0 76.0V51.921875Q30.0 46.44140625 33.86328125 42.578125Q37.7265625 38.71484375 43.20703125 38.71484375H65.0390625V44.10546875H43.20703125Q39.97265625 44.10546875 37.681640625 46.396484375Q35.390625 48.6875 35.390625 51.921875V54.662109375H65.0390625V60.052734375H35.390625V76.0ZM70.87890625 68.00390625V45.453125H76.26953125V68.00390625Q76.26953125 69.08203125 77.033203125 69.845703125Q77.796875 70.609375 78.875 70.609375H91.6328125Q92.7109375 70.609375 93.474609375 69.845703125Q94.23828125 69.08203125 94.23828125 68.00390625V45.453125H99.62890625V68.00390625Q99.62890625 71.328125 97.29296875 73.6640625Q94.95703125 76.0 91.6328125 76.0H78.875Q75.55078125 76.0 73.21484375 73.6640625Q70.87890625 71.328125 70.87890625 68.00390625ZM105.603515625 76.0V70.609375H126.22265625Q127.30078125 70.609375 128.064453125 69.845703125Q128.828125 69.08203125 128.828125 68.00390625V66.02734375Q128.828125 64.94921875 128.064453125 64.185546875Q127.30078125 63.421875 126.22265625 63.421875H113.46484375Q110.140625 63.421875 107.8046875 61.0859375Q105.46875 58.75 105.46875 55.42578125V53.44921875Q105.46875 50.125 107.8046875 47.7890625Q110.140625 45.453125 113.46484375 45.453125H134.083984375V50.84375H113.46484375Q112.38671875 50.84375 111.623046875 51.607421875Q110.859375 52.37109375 110.859375 53.44921875V55.42578125Q110.859375 56.50390625 111.623046875 57.267578125Q112.38671875 58.03125 113.46484375 58.03125H126.22265625Q129.546875 58.03125 131.8828125 60.3671875Q134.21875 62.703125 134.21875 66.02734375V68.00390625Q134.21875 71.328125 131.8828125 73.6640625Q129.546875 76.0 126.22265625 76.0ZM140.05859375 76.0V45.453125H145.44921875V76.0ZM140.05859375 44.10546875V38.71484375H145.44921875V44.10546875ZM156.6796875 62.79296875Q156.6796875 66.02734375 158.970703125 68.318359375Q161.26171875 70.609375 164.49609375 70.609375H172.04296875Q173.12109375 70.609375 173.884765625 69.845703125Q174.6484375 69.08203125 174.6484375 68.00390625V53.44921875Q174.6484375 52.37109375 173.884765625 51.607421875Q173.12109375 50.84375 172.04296875 50.84375H159.28515625Q158.20703125 50.84375 157.443359375 51.607421875Q156.6796875 52.37109375 156.6796875 53.44921875ZM151.2890625 62.79296875V53.44921875Q151.2890625 50.125 153.625 47.7890625Q155.9609375 45.453125 159.28515625 45.453125H172.04296875Q175.3671875 45.453125 177.703125 47.7890625Q180.0390625 50.125 180.0390625 53.44921875V68.00390625Q180.0390625 71.328125 177.703125 73.6640625Q175.3671875 76.0 172.04296875 76.0H164.49609375Q159.015625 76.0 155.15234375 72.13671875Q151.2890625 68.2734375 151.2890625 62.79296875ZM185.87890625 76.0V53.44921875Q185.87890625 50.125 188.21484375 47.7890625Q190.55078125 45.453125 193.875 45.453125H201.421875Q206.90234375 45.453125 210.765625 49.31640625Q214.62890625 53.1796875 214.62890625 58.66015625V76.0H209.23828125V58.66015625Q209.23828125 55.42578125 206.947265625 53.134765625Q204.65625 50.84375 201.421875 50.84375H193.875Q192.796875 50.84375 192.033203125 51.607421875Q191.26953125 52.37109375 191.26953125 53.44921875V76.0Z" fill="#12151a"/><path d="M30.0 111.052734375V108.357421875H47.51953125V111.052734375H40.107421875V127.0H37.412109375V111.052734375ZM50.439453125 127.0V111.7265625H53.134765625V127.0ZM50.439453125 111.052734375V108.357421875H53.134765625V111.052734375ZM56.0546875 120.396484375V115.724609375Q56.0546875 114.0625 57.22265625 112.89453125Q58.390625 111.7265625 60.052734375 111.7265625H66.431640625Q68.09375 111.7265625 69.26171875 112.89453125Q70.4296875 114.0625 70.4296875 115.724609375V126.37109375Q70.4296875 128.033203125 69.26171875 129.201171875Q68.09375 130.369140625 66.431640625 130.369140625V127.673828125Q67.1953125 127.673828125 67.5771484375 127.0H62.658203125Q59.91796875 127.0 57.986328125 125.068359375Q56.0546875 123.13671875 56.0546875 120.396484375ZM58.75 120.396484375Q58.75 122.013671875 59.8955078125 123.1591796875Q61.041015625 124.3046875 62.658203125 124.3046875H67.734375V115.724609375Q67.734375 115.185546875 67.3525390625 114.8037109375Q66.970703125 114.421875 66.431640625 114.421875H60.052734375Q59.513671875 114.421875 59.1318359375 114.8037109375Q58.75 115.185546875 58.75 115.724609375ZM73.349609375 127.0V118.330078125Q73.349609375 115.58984375 75.28125 113.658203125Q77.212890625 111.7265625 79.953125 111.7265625H86.6015625V114.421875H79.953125Q78.3359375 114.421875 77.1904296875 115.5673828125Q76.044921875 116.712890625 76.044921875 118.330078125V127.0ZM92.216796875 120.396484375Q92.216796875 122.013671875 93.3623046875 123.1591796875Q94.5078125 124.3046875 96.125 124.3046875H99.8984375Q100.4375 124.3046875 100.8193359375 123.9228515625Q101.201171875 123.541015625 101.201171875 123.001953125V115.724609375Q101.201171875 115.185546875 100.8193359375 114.8037109375Q100.4375 114.421875 99.8984375 114.421875H93.51953125Q92.98046875 114.421875 92.5986328125 114.8037109375Q92.216796875 115.185546875 92.216796875 115.724609375ZM89.521484375 120.396484375V115.724609375Q89.521484375 114.0625 90.689453125 112.89453125Q91.857421875 111.7265625 93.51953125 111.7265625H99.8984375Q101.560546875 111.7265625 102.728515625 112.89453125Q103.896484375 114.0625 103.896484375 115.724609375V123.001953125Q103.896484375 124.6640625 102.728515625 125.83203125Q101.560546875 127.0 99.8984375 127.0H96.125Q93.384765625 127.0 91.453125 125.068359375Q89.521484375 123.13671875 89.521484375 120.396484375ZM106.81640625 127.0V115.724609375Q106.81640625 114.0625 107.984375 112.89453125Q109.15234375 111.7265625 110.814453125 111.7265625H114.587890625Q117.328125 111.7265625 119.259765625 113.658203125Q121.19140625 115.58984375 121.19140625 118.330078125V127.0H118.49609375V118.330078125Q118.49609375 116.712890625 117.3505859375 115.5673828125Q116.205078125 114.421875 114.587890625 114.421875H110.814453125Q110.275390625 114.421875 109.8935546875 114.8037109375Q109.51171875 115.185546875 109.51171875 115.724609375V127.0ZM135.341796875 123.001953125V122.013671875Q135.341796875 120.3515625 136.509765625 119.18359375Q137.677734375 118.015625 139.33984375 118.015625H147.021484375Q146.9091796875 116.5107421875 145.77490234375 115.46630859375Q144.640625 114.421875 143.11328125 114.421875H135.4091796875V111.7265625H143.11328125Q145.853515625 111.7265625 147.78515625 113.658203125Q149.716796875 115.58984375 149.716796875 118.330078125V123.001953125Q149.716796875 124.6640625 148.548828125 125.83203125Q147.380859375 127.0 145.71875 127.0H139.33984375Q137.677734375 127.0 136.509765625 125.83203125Q135.341796875 124.6640625 135.341796875 123.001953125ZM138.037109375 123.001953125Q138.037109375 123.541015625 138.4189453125 123.9228515625Q138.80078125 124.3046875 139.33984375 124.3046875H145.71875Q146.2578125 124.3046875 146.6396484375 123.9228515625Q147.021484375 123.541015625 147.021484375 123.001953125V120.7109375H139.33984375Q138.80078125 120.7109375 138.4189453125 121.0927734375Q138.037109375 121.474609375 138.037109375 122.013671875ZM152.63671875 127.0V115.724609375Q152.63671875 114.0625 153.8046875 112.89453125Q154.97265625 111.7265625 156.634765625 111.7265625H160.408203125Q163.1484375 111.7265625 165.080078125 113.658203125Q167.01171875 115.58984375 167.01171875 118.330078125V127.0H164.31640625V118.330078125Q164.31640625 116.712890625 163.1708984375 115.5673828125Q162.025390625 114.421875 160.408203125 114.421875H156.634765625Q156.095703125 114.421875 155.7138671875 114.8037109375Q155.33203125 115.185546875 155.33203125 115.724609375V127.0ZM172.626953125 123.001953125Q172.626953125 123.541015625 173.0087890625 123.9228515625Q173.390625 124.3046875 173.9296875 124.3046875H180.30859375Q180.84765625 124.3046875 181.2294921875 123.9228515625Q181.611328125 123.541015625 181.611328125 123.001953125V114.421875H176.53515625Q174.91796875 114.421875 173.7724609375 115.5673828125Q172.626953125 116.712890625 172.626953125 118.330078125ZM169.931640625 123.001953125V118.330078125Q169.931640625 115.58984375 171.86328125 113.658203125Q173.794921875 111.7265625 176.53515625 111.7265625H181.611328125V108.357421875H184.306640625V123.001953125Q184.306640625 124.6640625 183.138671875 125.83203125Q181.970703125 127.0 180.30859375 127.0H173.9296875Q172.267578125 127.0 171.099609375 125.83203125Q169.931640625 124.6640625 169.931640625 123.001953125ZM198.45703125 120.396484375V112.35546875Q198.45703125 110.693359375 199.625 109.525390625Q200.79296875 108.357421875 202.455078125 108.357421875H215.9765625V111.052734375H202.455078125Q201.916015625 111.052734375 201.5341796875 111.4345703125Q201.15234375 111.81640625 201.15234375 112.35546875V116.3310546875H215.9765625V119.0263671875H201.15234375V120.396484375Q201.15234375 122.013671875 202.2978515625 123.1591796875Q203.443359375 124.3046875 205.060546875 124.3046875H215.9765625V127.0H205.060546875Q202.3203125 127.0 200.388671875 125.068359375Q198.45703125 123.13671875 198.45703125 120.396484375ZM218.896484375 120.396484375V114.9609375Q218.896484375 112.220703125 220.828125 110.2890625Q222.759765625 108.357421875 225.5 108.357421875H236.3486328125V111.052734375H225.5Q223.8828125 111.052734375 222.7373046875 112.1982421875Q221.591796875 113.34375 221.591796875 114.9609375V120.396484375Q221.591796875 122.013671875 222.7373046875 123.1591796875Q223.8828125 124.3046875 225.5 124.3046875H232.41796875Q232.95703125 124.3046875 233.3388671875 123.9228515625Q233.720703125 123.541015625 233.720703125 123.001953125V120.3291015625Q233.720703125 119.7900390625 233.3388671875 119.408203125Q232.95703125 119.0263671875 232.41796875 119.0263671875H227.880859375V116.3310546875H232.41796875Q234.080078125 116.3310546875 235.248046875 117.51025390625Q236.416015625 118.689453125 236.416015625 120.3291015625V123.001953125Q236.416015625 124.6640625 235.248046875 125.83203125Q234.080078125 127.0 232.41796875 127.0H225.5Q222.759765625 127.0 220.828125 125.068359375Q218.896484375 123.13671875 218.896484375 120.396484375ZM239.3359375 120.7109375V118.015625H253.26171875V120.7109375ZM256.181640625 127.0V122.9345703125Q256.181640625 121.3623046875 256.8779296875 119.98095703125Q257.57421875 118.599609375 258.787109375 117.6787109375Q257.57421875 116.7578125 256.8779296875 115.37646484375Q256.181640625 113.9951171875 256.181640625 112.4228515625V108.357421875H258.876953125V112.4228515625Q258.876953125 114.0400390625 260.0224609375 115.185546875Q261.16796875 116.3310546875 262.78515625 116.3310546875H267.09765625Q268.71484375 116.3310546875 269.8603515625 115.185546875Q271.005859375 114.0400390625 271.005859375 112.4228515625V108.357421875H273.701171875V112.4228515625Q273.701171875 113.9951171875 273.0048828125 115.37646484375Q272.30859375 116.7578125 271.095703125 117.6787109375Q272.30859375 118.599609375 273.0048828125 119.98095703125Q273.701171875 121.3623046875 273.701171875 122.9345703125V127.0H271.005859375V122.9345703125Q271.005859375 121.3173828125 269.8603515625 120.171875Q268.71484375 119.0263671875 267.09765625 119.0263671875H262.78515625Q261.16796875 119.0263671875 260.0224609375 120.171875Q258.876953125 121.3173828125 258.876953125 122.9345703125V127.0ZM287.8515625 120.396484375V115.724609375Q287.8515625 114.0625 289.01953125 112.89453125Q290.1875 111.7265625 291.849609375 111.7265625H301.103515625V114.421875H291.849609375Q291.310546875 114.421875 290.9287109375 114.8037109375Q290.546875 115.185546875 290.546875 115.724609375V120.396484375Q290.546875 122.013671875 291.6923828125 123.1591796875Q292.837890625 124.3046875 294.455078125 124.3046875H301.103515625V127.0H294.455078125Q291.71484375 127.0 289.783203125 125.068359375Q287.8515625 123.13671875 287.8515625 120.396484375ZM304.0234375 123.001953125V108.357421875H306.71875V123.001953125Q306.71875 123.541015625 307.1005859375 123.9228515625Q307.482421875 124.3046875 308.021484375 124.3046875V127.0Q306.359375 127.0 305.19140625 125.83203125Q304.0234375 124.6640625 304.0234375 123.001953125ZM310.94140625 123.001953125V122.013671875Q310.94140625 120.3515625 312.109375 119.18359375Q313.27734375 118.015625 314.939453125 118.015625H322.62109375Q322.5087890625 116.5107421875 321.37451171875 115.46630859375Q320.240234375 114.421875 318.712890625 114.421875H311.0087890625V111.7265625H318.712890625Q321.453125 111.7265625 323.384765625 113.658203125Q325.31640625 115.58984375 325.31640625 118.330078125V123.001953125Q325.31640625 124.6640625 324.1484375 125.83203125Q322.98046875 127.0 321.318359375 127.0H314.939453125Q313.27734375 127.0 312.109375 125.83203125Q310.94140625 124.6640625 310.94140625 123.001953125ZM313.63671875 123.001953125Q313.63671875 123.541015625 314.0185546875 123.9228515625Q314.400390625 124.3046875 314.939453125 124.3046875H321.318359375Q321.857421875 124.3046875 322.2392578125 123.9228515625Q322.62109375 123.541015625 322.62109375 123.001953125V120.7109375H314.939453125Q314.400390625 120.7109375 314.0185546875 121.0927734375Q313.63671875 121.474609375 313.63671875 122.013671875ZM328.3037109375 127.0V124.3046875H338.61328125Q339.15234375 124.3046875 339.5341796875 123.9228515625Q339.916015625 123.541015625 339.916015625 123.001953125V122.013671875Q339.916015625 121.474609375 339.5341796875 121.0927734375Q339.15234375 120.7109375 338.61328125 120.7109375H332.234375Q330.572265625 120.7109375 329.404296875 119.54296875Q328.236328125 118.375 328.236328125 116.712890625V115.724609375Q328.236328125 114.0625 329.404296875 112.89453125Q330.572265625 111.7265625 332.234375 111.7265625H342.5439453125V114.421875H332.234375Q331.6953125 114.421875 331.3134765625 114.8037109375Q330.931640625 115.185546875 330.931640625 115.724609375V116.712890625Q330.931640625 117.251953125 331.3134765625 117.6337890625Q331.6953125 118.015625 332.234375 118.015625H338.61328125Q340.275390625 118.015625 341.443359375 119.18359375Q342.611328125 120.3515625 342.611328125 122.013671875V123.001953125Q342.611328125 124.6640625 341.443359375 125.83203125Q340.275390625 127.0 338.61328125 127.0ZM345.53125 127.0V108.357421875H348.2265625V111.7265625H353.302734375Q356.04296875 111.7265625 357.974609375 113.658203125Q359.90625 115.58984375 359.90625 118.330078125V127.0H357.2109375V118.330078125Q357.2109375 116.712890625 356.0654296875 115.5673828125Q354.919921875 114.421875 353.302734375 114.421875H348.2265625V127.0ZM374.056640625 127.0V111.7265625H376.751953125V127.0ZM374.056640625 111.052734375V108.357421875H376.751953125V111.052734375ZM379.671875 127.0V115.724609375Q379.671875 114.0625 380.83984375 112.89453125Q382.0078125 111.7265625 383.669921875 111.7265625H387.443359375Q390.18359375 111.7265625 392.115234375 113.658203125Q394.046875 115.58984375 394.046875 118.330078125V127.0H391.3515625V118.330078125Q391.3515625 116.712890625 390.2060546875 115.5673828125Q389.060546875 114.421875 387.443359375 114.421875H383.669921875Q383.130859375 114.421875 382.7490234375 114.8037109375Q382.3671875 115.185546875 382.3671875 115.724609375V127.0ZM408.197265625 120.396484375V108.357421875H410.892578125V111.7265625H421.44921875V114.421875H410.892578125V120.396484375Q410.892578125 122.013671875 412.0380859375 123.1591796875Q413.18359375 124.3046875 414.80078125 124.3046875H421.44921875V127.0H414.80078125Q412.060546875 127.0 410.12890625 125.068359375Q408.197265625 123.13671875 408.197265625 120.396484375ZM424.369140625 127.0V108.357421875H427.064453125V111.7265625H432.140625Q434.880859375 111.7265625 436.8125 113.658203125Q438.744140625 115.58984375 438.744140625 118.330078125V127.0H436.048828125V118.330078125Q436.048828125 116.712890625 434.9033203125 115.5673828125Q433.7578125 114.421875 432.140625 114.421875H427.064453125V127.0ZM441.6640625 120.396484375V115.724609375Q441.6640625 114.0625 442.83203125 112.89453125Q444.0 111.7265625 445.662109375 111.7265625H452.041015625Q453.703125 111.7265625 454.87109375 112.89453125Q456.0390625 114.0625 456.0390625 115.724609375V116.712890625Q456.0390625 118.375 454.87109375 119.54296875Q453.703125 120.7109375 452.041015625 120.7109375H444.359375Q444.4716796875 122.2158203125 445.60595703125 123.26025390625Q446.740234375 124.3046875 448.267578125 124.3046875H455.9716796875V127.0H448.267578125Q445.52734375 127.0 443.595703125 125.068359375Q441.6640625 123.13671875 441.6640625 120.396484375ZM444.359375 118.015625H452.041015625Q452.580078125 118.015625 452.9619140625 117.6337890625Q453.34375 117.251953125 453.34375 116.712890625V115.724609375Q453.34375 115.185546875 452.9619140625 114.8037109375Q452.580078125 114.421875 452.041015625 114.421875H445.662109375Q445.123046875 114.421875 444.7412109375 114.8037109375Q444.359375 115.185546875 444.359375 115.724609375ZM470.189453125 127.0V114.9609375Q470.189453125 112.220703125 472.12109375 110.2890625Q474.052734375 108.357421875 476.79296875 108.357421875H487.708984375V111.052734375H476.79296875Q475.17578125 111.052734375 474.0302734375 112.1982421875Q472.884765625 113.34375 472.884765625 114.9609375V116.3310546875H487.708984375V119.0263671875H472.884765625V127.0ZM490.6962890625 127.0V124.3046875H498.400390625Q499.927734375 124.3046875 501.06201171875 123.26025390625Q502.1962890625 122.2158203125 502.30859375 120.7109375H494.626953125Q492.96484375 120.7109375 491.796875 119.54296875Q490.62890625 118.375 490.62890625 116.712890625V115.724609375Q490.62890625 114.0625 491.796875 112.89453125Q492.96484375 111.7265625 494.626953125 111.7265625H501.005859375Q502.66796875 111.7265625 503.8359375 112.89453125Q505.00390625 114.0625 505.00390625 115.724609375V120.396484375Q505.00390625 123.13671875 503.072265625 125.068359375Q501.140625 127.0 498.400390625 127.0ZM493.32421875 116.712890625Q493.32421875 117.251953125 493.7060546875 117.6337890625Q494.087890625 118.015625 494.626953125 118.015625H502.30859375V115.724609375Q502.30859375 115.185546875 501.9267578125 114.8037109375Q501.544921875 114.421875 501.005859375 114.421875H494.626953125Q494.087890625 114.421875 493.7060546875 114.8037109375Q493.32421875 115.185546875 493.32421875 115.724609375ZM510.619140625 120.396484375Q510.619140625 122.013671875 511.7646484375 123.1591796875Q512.91015625 124.3046875 514.52734375 124.3046875H518.30078125Q518.83984375 124.3046875 519.2216796875 123.9228515625Q519.603515625 123.541015625 519.603515625 123.001953125V115.724609375Q519.603515625 115.185546875 519.2216796875 114.8037109375Q518.83984375 114.421875 518.30078125 114.421875H511.921875Q511.3828125 114.421875 511.0009765625 114.8037109375Q510.619140625 115.185546875 510.619140625 115.724609375ZM507.923828125 120.396484375V115.724609375Q507.923828125 114.0625 509.091796875 112.89453125Q510.259765625 111.7265625 511.921875 111.7265625H518.30078125Q519.962890625 111.7265625 521.130859375 112.89453125Q522.298828125 114.0625 522.298828125 115.724609375V123.001953125Q522.298828125 124.6640625 521.130859375 125.83203125Q519.962890625 127.0 518.30078125 127.0H514.52734375Q511.787109375 127.0 509.85546875 125.068359375Q507.923828125 123.13671875 507.923828125 120.396484375ZM527.9140625 120.396484375Q527.9140625 122.013671875 529.0595703125 123.1591796875Q530.205078125 124.3046875 531.822265625 124.3046875H535.595703125Q536.134765625 124.3046875 536.5166015625 123.9228515625Q536.8984375 123.541015625 536.8984375 123.001953125V115.724609375Q536.8984375 115.185546875 536.5166015625 114.8037109375Q536.134765625 114.421875 535.595703125 114.421875H529.216796875Q528.677734375 114.421875 528.2958984375 114.8037109375Q527.9140625 115.185546875 527.9140625 115.724609375ZM525.21875 120.396484375V115.724609375Q525.21875 114.0625 526.38671875 112.89453125Q527.5546875 111.7265625 529.216796875 111.7265625H535.595703125Q537.2578125 111.7265625 538.42578125 112.89453125Q539.59375 114.0625 539.59375 115.724609375V123.001953125Q539.59375 124.6640625 538.42578125 125.83203125Q537.2578125 127.0 535.595703125 127.0H531.822265625Q529.08203125 127.0 527.150390625 125.068359375Q525.21875 123.13671875 525.21875 120.396484375ZM545.208984375 120.396484375Q545.208984375 122.013671875 546.3544921875 123.1591796875Q547.5 124.3046875 549.1171875 124.3046875H552.890625Q553.4296875 124.3046875 553.8115234375 123.9228515625Q554.193359375 123.541015625 554.193359375 123.001953125V115.724609375Q554.193359375 115.185546875 553.8115234375 114.8037109375Q553.4296875 114.421875 552.890625 114.421875H546.51171875Q545.97265625 114.421875 545.5908203125 114.8037109375Q545.208984375 115.185546875 545.208984375 115.724609375ZM542.513671875 120.396484375V115.724609375Q542.513671875 114.0625 543.681640625 112.89453125Q544.849609375 111.7265625 546.51171875 111.7265625H552.890625Q554.552734375 111.7265625 555.720703125 112.89453125Q556.888671875 114.0625 556.888671875 115.724609375V123.001953125Q556.888671875 124.6640625 555.720703125 125.83203125Q554.552734375 127.0 552.890625 127.0H549.1171875Q546.376953125 127.0 544.4453125 125.068359375Q542.513671875 123.13671875 542.513671875 120.396484375ZM571.0390625 120.396484375V115.724609375Q571.0390625 114.0625 572.20703125 112.89453125Q573.375 111.7265625 575.037109375 111.7265625H584.291015625V114.421875H575.037109375Q574.498046875 114.421875 574.1162109375 114.8037109375Q573.734375 115.185546875 573.734375 115.724609375V120.396484375Q573.734375 122.013671875 574.8798828125 123.1591796875Q576.025390625 124.3046875 577.642578125 124.3046875H584.291015625V127.0H577.642578125Q574.90234375 127.0 572.970703125 125.068359375Q571.0390625 123.13671875 571.0390625 120.396484375ZM587.2109375 127.0V111.7265625H589.90625V127.0ZM587.2109375 111.052734375V108.357421875H589.90625V111.052734375ZM592.826171875 127.0V118.330078125Q592.826171875 115.58984375 594.7578125 113.658203125Q596.689453125 111.7265625 599.4296875 111.7265625H606.078125V114.421875H599.4296875Q597.8125 114.421875 596.6669921875 115.5673828125Q595.521484375 116.712890625 595.521484375 118.330078125V127.0ZM608.998046875 120.396484375V115.724609375Q608.998046875 114.0625 610.166015625 112.89453125Q611.333984375 111.7265625 612.99609375 111.7265625H622.25V114.421875H612.99609375Q612.45703125 114.421875 612.0751953125 114.8037109375Q611.693359375 115.185546875 611.693359375 115.724609375V120.396484375Q611.693359375 122.013671875 612.8388671875 123.1591796875Q613.984375 124.3046875 615.6015625 124.3046875H622.25V127.0H615.6015625Q612.861328125 127.0 610.9296875 125.068359375Q608.998046875 123.13671875 608.998046875 120.396484375ZM625.169921875 123.001953125V111.7265625H627.865234375V123.001953125Q627.865234375 123.541015625 628.2470703125 123.9228515625Q628.62890625 124.3046875 629.16796875 124.3046875H635.546875Q636.0859375 124.3046875 636.4677734375 123.9228515625Q636.849609375 123.541015625 636.849609375 123.001953125V111.7265625H639.544921875V123.001953125Q639.544921875 124.6640625 638.376953125 125.83203125Q637.208984375 127.0 635.546875 127.0H629.16796875Q627.505859375 127.0 626.337890625 125.83203125Q625.169921875 124.6640625 625.169921875 123.001953125ZM642.46484375 127.0V111.7265625H645.16015625V127.0ZM642.46484375 111.052734375V108.357421875H645.16015625V111.052734375ZM648.080078125 120.396484375V108.357421875H650.775390625V111.7265625H661.33203125V114.421875H650.775390625V120.396484375Q650.775390625 122.013671875 651.9208984375 123.1591796875Q653.06640625 124.3046875 654.68359375 124.3046875H661.33203125V127.0H654.68359375Q651.943359375 127.0 650.01171875 125.068359375Q648.080078125 123.13671875 648.080078125 120.396484375Z" fill="#3a3f47"/><path d="M30.0 165.0V156.625Q30.0 154.71875 31.34375 153.375Q32.6875 152.03125 34.59375 152.03125H39.40625Q40.5625 152.03125 41.375 152.84375Q42.1875 153.65625 42.1875 154.8125V165.0H40.3125V159.453125H31.875V165.0ZM31.875 157.578125H40.3125V154.8125Q40.3125 154.4375 40.046875 154.171875Q39.78125 153.90625 39.40625 153.90625H34.59375Q33.46875 153.90625 32.671875 154.703125Q31.875 155.5 31.875 156.625ZM46.09375 162.21875Q46.09375 162.578125 46.359375 162.8515625Q46.625 163.125 47.0 163.125H53.625Q54.0 163.125 54.265625 162.859375Q54.53125 162.59375 54.53125 162.21875V161.28125Q54.53125 160.515625 54.0 159.984375Q53.46875 159.453125 52.703125 159.453125H46.09375ZM44.21875 162.21875V154.8125Q44.21875 153.65625 45.03125 152.84375Q45.84375 152.03125 47.0 152.03125H52.6875Q54.21875 152.03125 55.3125 153.125Q56.40625 154.21875 56.40625 155.75Q56.40625 157.40625 55.171875 158.515625Q56.40625 159.625 56.40625 161.28125V162.21875Q56.40625 163.375 55.59375 164.1875Q54.78125 165.0 53.625 165.0H47.0Q45.84375 165.0 45.03125 164.1875Q44.21875 163.375 44.21875 162.21875ZM46.09375 157.578125H52.703125Q53.46875 157.578125 54.0 157.046875Q54.53125 156.515625 54.53125 155.75Q54.53125 154.984375 53.9921875 154.4453125Q53.453125 153.90625 52.6875 153.90625H47.0Q46.625 153.90625 46.359375 154.171875Q46.09375 154.4375 46.09375 154.8125ZM58.4375 160.40625V154.8125Q58.4375 153.65625 59.25 152.84375Q60.0625 152.03125 61.21875 152.03125H70.625V153.90625H61.21875Q60.84375 153.90625 60.578125 154.171875Q60.3125 154.4375 60.3125 154.8125V160.40625Q60.3125 161.53125 61.109375 162.328125Q61.90625 163.125 63.03125 163.125H70.625V165.0H63.03125Q61.125 165.0 59.78125 163.65625Q58.4375 162.3125 58.4375 160.40625ZM74.53125 162.21875Q74.53125 162.59375 74.796875 162.859375Q75.0625 163.125 75.4375 163.125H80.25Q81.375 163.125 82.171875 162.328125Q82.96875 161.53125 82.96875 160.40625V156.625Q82.96875 155.5 82.171875 154.703125Q81.375 153.90625 80.25 153.90625H75.4375Q75.0625 153.90625 74.796875 154.171875Q74.53125 154.4375 74.53125 154.8125ZM72.65625 162.21875V154.8125Q72.65625 153.65625 73.46875 152.84375Q74.28125 152.03125 75.4375 152.03125H80.25Q82.15625 152.03125 83.5 153.375Q84.84375 154.71875 84.84375 156.625V160.40625Q84.84375 162.3125 83.5 163.65625Q82.15625 165.0 80.25 165.0H75.4375Q74.28125 165.0 73.46875 164.1875Q72.65625 163.375 72.65625 162.21875ZM86.875 160.40625V154.8125Q86.875 153.65625 87.6875 152.84375Q88.5 152.03125 89.65625 152.03125H99.0625V153.90625H89.65625Q89.28125 153.90625 89.015625 154.171875Q88.75 154.4375 88.75 154.8125V157.578125H99.0625V159.453125H88.75V160.40625Q88.75 161.53125 89.546875 162.328125Q90.34375 163.125 91.46875 163.125H99.0625V165.0H91.46875Q89.5625 165.0 88.21875 163.65625Q86.875 162.3125 86.875 160.40625ZM101.09375 165.0V156.625Q101.09375 154.71875 102.4375 153.375Q103.78125 152.03125 105.6875 152.03125H113.28125V153.90625H105.6875Q104.5625 153.90625 103.765625 154.703125Q102.96875 155.5 102.96875 156.625V157.578125H113.28125V159.453125H102.96875V165.0ZM115.3125 160.40625V156.625Q115.3125 154.71875 116.65625 153.375Q118.0 152.03125 119.90625 152.03125H127.453125V153.90625H119.90625Q118.78125 153.90625 117.984375 154.703125Q117.1875 155.5 117.1875 156.625V160.40625Q117.1875 161.53125 117.984375 162.328125Q118.78125 163.125 119.90625 163.125H124.71875Q125.09375 163.125 125.359375 162.859375Q125.625 162.59375 125.625 162.21875V160.359375Q125.625 159.984375 125.359375 159.71875Q125.09375 159.453125 124.71875 159.453125H121.5625V157.578125H124.71875Q125.875 157.578125 126.6875 158.3984375Q127.5 159.21875 127.5 160.359375V162.21875Q127.5 163.375 126.6875 164.1875Q125.875 165.0 124.71875 165.0H119.90625Q118.0 165.0 116.65625 163.65625Q115.3125 162.3125 115.3125 160.40625ZM129.53125 165.0V152.03125H131.40625V157.578125H139.84375V152.03125H141.71875V165.0H139.84375V159.453125H131.40625V165.0ZM143.75 165.0V152.03125H145.625V165.0ZM147.65625 165.0V163.125H155.25Q156.375 163.125 157.171875 162.328125Q157.96875 161.53125 157.96875 160.40625V154.8125Q157.96875 154.4375 157.703125 154.171875Q157.4375 153.90625 157.0625 153.90625H153.90625V152.03125H157.0625Q158.21875 152.03125 159.03125 152.84375Q159.84375 153.65625 159.84375 154.8125V160.40625Q159.84375 162.3125 158.5 163.65625Q157.15625 165.0 155.25 165.0ZM161.875 165.0V152.03125H163.75V157.578125H169.46875Q170.59375 157.578125 171.390625 156.78125Q172.1875 155.984375 172.1875 154.859375V152.03125H174.0625V154.859375Q174.0625 155.953125 173.578125 156.9140625Q173.09375 157.875 172.25 158.515625Q173.09375 159.15625 173.578125 160.1171875Q174.0625 161.078125 174.0625 162.171875V165.0H172.1875V162.171875Q172.1875 161.046875 171.390625 160.25Q170.59375 159.453125 169.46875 159.453125H163.75V165.0ZM176.09375 160.40625V152.03125H177.96875V160.40625Q177.96875 161.53125 178.765625 162.328125Q179.5625 163.125 180.6875 163.125H188.28125V165.0H180.6875Q178.78125 165.0 177.4375 163.65625Q176.09375 162.3125 176.09375 160.40625ZM190.3125 165.0V154.8125Q190.3125 153.65625 191.125 152.84375Q191.9375 152.03125 193.09375 152.03125H203.0625Q204.96875 152.03125 206.3125 153.375Q207.65625 154.71875 207.65625 156.625V165.0H205.78125V156.625Q205.78125 155.5 204.984375 154.703125Q204.1875 153.90625 203.0625 153.90625H199.921875V165.0H198.046875V153.90625H193.09375Q192.71875 153.90625 192.453125 154.171875Q192.1875 154.4375 192.1875 154.8125V165.0ZM209.6875 165.0V154.8125Q209.6875 153.65625 210.5 152.84375Q211.3125 152.03125 212.46875 152.03125H217.28125Q219.1875 152.03125 220.53125 153.375Q221.875 154.71875 221.875 156.625V165.0H220.0V156.625Q220.0 155.5 219.203125 154.703125Q218.40625 153.90625 217.28125 153.90625H212.46875Q212.09375 153.90625 211.828125 154.171875Q211.5625 154.4375 211.5625 154.8125V165.0ZM225.78125 160.40625Q225.78125 161.53125 226.578125 162.328125Q227.375 163.125 228.5 163.125H233.3125Q233.6875 163.125 233.953125 162.859375Q234.21875 162.59375 234.21875 162.21875V154.8125Q234.21875 154.4375 233.953125 154.171875Q233.6875 153.90625 233.3125 153.90625H226.6875Q226.3125 153.90625 226.046875 154.171875Q225.78125 154.4375 225.78125 154.8125ZM223.90625 160.40625V154.8125Q223.90625 153.65625 224.71875 152.84375Q225.53125 152.03125 226.6875 152.03125H233.3125Q234.46875 152.03125 235.28125 152.84375Q236.09375 153.65625 236.09375 154.8125V162.21875Q236.09375 163.375 235.28125 164.1875Q234.46875 165.0 233.3125 165.0H228.5Q226.59375 165.0 225.25 163.65625Q223.90625 162.3125 223.90625 160.40625ZM240.0 157.578125H247.53125Q247.90625 157.578125 248.171875 157.3125Q248.4375 157.046875 248.4375 156.671875V154.8125Q248.4375 154.4375 248.171875 154.171875Q247.90625 153.90625 247.53125 153.90625H242.71875Q241.59375 153.90625 240.796875 154.703125Q240.0 155.5 240.0 156.625ZM238.125 165.0V156.625Q238.125 154.71875 239.46875 153.375Q240.8125 152.03125 242.71875 152.03125H247.53125Q248.6875 152.03125 249.5 152.84375Q250.3125 153.65625 250.3125 154.8125V156.671875Q250.3125 157.8125 249.5 158.6328125Q248.6875 159.453125 247.53125 159.453125H240.0V165.0ZM252.34375 160.40625V154.8125Q252.34375 153.65625 253.15625 152.84375Q253.96875 152.03125 255.125 152.03125H261.75Q262.90625 152.03125 263.71875 152.84375Q264.53125 153.65625 264.53125 154.8125V162.21875Q264.53125 163.375 263.71875 164.1875Q262.90625 165.0 261.75 165.0H261.5625V167.34375H259.6875V165.0H256.9375Q255.03125 165.0 253.6875 163.65625Q252.34375 162.3125 252.34375 160.40625ZM254.21875 160.40625Q254.21875 161.53125 255.015625 162.328125Q255.8125 163.125 256.9375 163.125H261.75Q262.125 163.125 262.390625 162.859375Q262.65625 162.59375 262.65625 162.21875V154.8125Q262.65625 154.4375 262.390625 154.171875Q262.125 153.90625 261.75 153.90625H255.125Q254.75 153.90625 254.484375 154.171875Q254.21875 154.4375 254.21875 154.8125ZM266.5625 165.0V154.8125Q266.5625 153.65625 267.375 152.84375Q268.1875 152.03125 269.34375 152.03125H275.03125Q276.5625 152.03125 277.65625 153.125Q278.75 154.21875 278.75 155.75Q278.75 157.40625 277.515625 158.515625Q278.75 159.625 278.75 161.28125V165.0H276.875V161.28125Q276.875 160.515625 276.34375 159.984375Q275.8125 159.453125 275.046875 159.453125H268.4375V165.0ZM268.4375 157.578125H275.046875Q275.8125 157.578125 276.34375 157.046875Q276.875 156.515625 276.875 155.75Q276.875 154.984375 276.3359375 154.4453125Q275.796875 153.90625 275.03125 153.90625H269.34375Q268.96875 153.90625 268.703125 154.171875Q268.4375 154.4375 268.4375 154.8125ZM280.828125 165.0V163.125H290.1875Q290.5625 163.125 290.828125 162.859375Q291.09375 162.59375 291.09375 162.21875V160.359375Q291.09375 159.984375 290.828125 159.71875Q290.5625 159.453125 290.1875 159.453125H283.5625Q282.40625 159.453125 281.59375 158.6328125Q280.78125 157.8125 280.78125 156.671875V156.625Q280.78125 154.71875 282.125 153.375Q283.46875 152.03125 285.375 152.03125H292.921875V153.90625H285.375Q284.25 153.90625 283.453125 154.703125Q282.65625 155.5 282.65625 156.625V156.671875Q282.65625 157.046875 282.921875 157.3125Q283.1875 157.578125 283.5625 157.578125H290.1875Q291.34375 157.578125 292.15625 158.3984375Q292.96875 159.21875 292.96875 160.359375V162.21875Q292.96875 163.375 292.15625 164.1875Q291.34375 165.0 290.1875 165.0ZM295.0 153.90625V152.03125H307.1875V153.90625H302.03125V165.0H300.15625V153.90625ZM309.21875 162.21875V152.03125H311.09375V162.21875Q311.09375 162.59375 311.359375 162.859375Q311.625 163.125 312.0 163.125H318.625Q319.0 163.125 319.265625 162.859375Q319.53125 162.59375 319.53125 162.21875V152.03125H321.40625V162.21875Q321.40625 163.375 320.59375 164.1875Q319.78125 165.0 318.625 165.0H312.0Q310.84375 165.0 310.03125 164.1875Q309.21875 163.375 309.21875 162.21875ZM323.4375 160.40625V152.03125H325.3125V160.40625Q325.3125 161.53125 326.109375 162.328125Q326.90625 163.125 328.03125 163.125H332.84375Q333.21875 163.125 333.484375 162.859375Q333.75 162.59375 333.75 162.21875V152.03125H335.625V162.21875Q335.625 163.375 334.8125 164.1875Q334.0 165.0 332.84375 165.0H328.03125Q326.125 165.0 324.78125 163.65625Q323.4375 162.3125 323.4375 160.40625ZM337.65625 160.40625V152.03125H339.53125V160.40625Q339.53125 161.53125 340.328125 162.328125Q341.125 163.125 342.25 163.125H345.390625V152.03125H347.265625V163.125H352.21875Q352.59375 163.125 352.859375 162.859375Q353.125 162.59375 353.125 162.21875V152.03125H355.0V162.21875Q355.0 163.375 354.1875 164.1875Q353.375 165.0 352.21875 165.0H342.25Q340.34375 165.0 339.0 163.65625Q337.65625 162.3125 337.65625 160.40625ZM357.03125 165.0V162.171875Q357.03125 161.078125 357.515625 160.1171875Q358.0 159.15625 358.84375 158.515625Q358.0 157.875 357.515625 156.9140625Q357.03125 155.953125 357.03125 154.859375V152.03125H358.90625V154.859375Q358.90625 155.984375 359.703125 156.78125Q360.5 157.578125 361.625 157.578125H364.625Q365.75 157.578125 366.546875 156.78125Q367.34375 155.984375 367.34375 154.859375V152.03125H369.21875V154.859375Q369.21875 155.953125 368.734375 156.9140625Q368.25 157.875 367.40625 158.515625Q368.25 159.15625 368.734375 160.1171875Q369.21875 161.078125 369.21875 162.171875V165.0H367.34375V162.171875Q367.34375 161.046875 366.546875 160.25Q365.75 159.453125 364.625 159.453125H361.625Q360.5 159.453125 359.703125 160.25Q358.90625 161.046875 358.90625 162.171875V165.0ZM371.25 154.859375V152.03125H373.125V154.859375Q373.125 155.984375 373.921875 156.78125Q374.71875 157.578125 375.84375 157.578125H381.5625V152.03125H383.4375V165.0H381.5625V159.453125H375.84375Q373.9375 159.453125 372.59375 158.1015625Q371.25 156.75 371.25 154.859375ZM385.46875 162.21875V160.359375Q385.46875 159.21875 386.28125 158.3984375Q387.09375 157.578125 388.25 157.578125H394.875Q395.25 157.578125 395.515625 157.3125Q395.78125 157.046875 395.78125 156.671875V156.625Q395.78125 155.5 394.984375 154.703125Q394.1875 153.90625 393.0625 153.90625H385.515625V152.03125H393.0625Q394.96875 152.03125 396.3125 153.375Q397.65625 154.71875 397.65625 156.625V156.671875Q397.65625 157.8125 396.84375 158.6328125Q396.03125 159.453125 394.875 159.453125H388.25Q387.875 159.453125 387.609375 159.71875Q387.34375 159.984375 387.34375 160.359375V162.21875Q387.34375 162.59375 387.609375 162.859375Q387.875 163.125 388.25 163.125H397.609375V165.0H388.25Q387.09375 165.0 386.28125 164.1875Q385.46875 163.375 385.46875 162.21875Z" fill="#6b7280"/><path d="M30.0 191.21875V190.53125Q30.0 189.375 30.8125 188.5625Q31.625 187.75 32.78125 187.75H38.125Q38.046875 186.703125 37.2578125 185.9765625Q36.46875 185.25 35.40625 185.25H30.046875V183.375H35.40625Q37.3125 183.375 38.65625 184.71875Q40.0 186.0625 40.0 187.96875V191.21875Q40.0 192.375 39.1875 193.1875Q38.375 194.0 37.21875 194.0H32.78125Q31.625 194.0 30.8125 193.1875Q30.0 192.375 30.0 191.21875ZM31.875 191.21875Q31.875 191.59375 32.140625 191.859375Q32.40625 192.125 32.78125 192.125H37.21875Q37.59375 192.125 37.859375 191.859375Q38.125 191.59375 38.125 191.21875V189.625H32.78125Q32.40625 189.625 32.140625 189.890625Q31.875 190.15625 31.875 190.53125ZM43.90625 191.21875Q43.90625 191.59375 44.171875 191.859375Q44.4375 192.125 44.8125 192.125H49.25Q49.625 192.125 49.890625 191.859375Q50.15625 191.59375 50.15625 191.21875V187.96875Q50.15625 186.84375 49.359375 186.046875Q48.5625 185.25 47.4375 185.25H43.90625ZM42.03125 191.21875V181.03125H43.90625V183.375H47.4375Q49.34375 183.375 50.6875 184.71875Q52.03125 186.0625 52.03125 187.96875V191.21875Q52.03125 192.375 51.21875 193.1875Q50.40625 194.0 49.25 194.0H44.8125Q43.65625 194.0 42.84375 193.1875Q42.03125 192.375 42.03125 191.21875ZM54.0625 189.40625V186.15625Q54.0625 185.0 54.875 184.1875Q55.6875 183.375 56.84375 183.375H63.28125V185.25H56.84375Q56.46875 185.25 56.203125 185.515625Q55.9375 185.78125 55.9375 186.15625V189.40625Q55.9375 190.53125 56.734375 191.328125Q57.53125 192.125 58.65625 192.125H63.28125V194.0H58.65625Q56.75 194.0 55.40625 192.65625Q54.0625 191.3125 54.0625 189.40625ZM67.1875 191.21875Q67.1875 191.59375 67.453125 191.859375Q67.71875 192.125 68.09375 192.125H72.53125Q72.90625 192.125 73.171875 191.859375Q73.4375 191.59375 73.4375 191.21875V185.25H69.90625Q68.78125 185.25 67.984375 186.046875Q67.1875 186.84375 67.1875 187.96875ZM65.3125 191.21875V187.96875Q65.3125 186.0625 66.65625 184.71875Q68.0 183.375 69.90625 183.375H73.4375V181.03125H75.3125V191.21875Q75.3125 192.375 74.5 193.1875Q73.6875 194.0 72.53125 194.0H68.09375Q66.9375 194.0 66.125 193.1875Q65.3125 192.375 65.3125 191.21875ZM77.34375 189.40625V186.15625Q77.34375 185.0 78.15625 184.1875Q78.96875 183.375 80.125 183.375H84.5625Q85.71875 183.375 86.53125 184.1875Q87.34375 185.0 87.34375 186.15625V186.84375Q87.34375 188.0 86.53125 188.8125Q85.71875 189.625 84.5625 189.625H79.21875Q79.296875 190.671875 80.0859375 191.3984375Q80.875 192.125 81.9375 192.125H87.296875V194.0H81.9375Q80.03125 194.0 78.6875 192.65625Q77.34375 191.3125 77.34375 189.40625ZM79.21875 187.75H84.5625Q84.9375 187.75 85.203125 187.484375Q85.46875 187.21875 85.46875 186.84375V186.15625Q85.46875 185.78125 85.203125 185.515625Q84.9375 185.25 84.5625 185.25H80.125Q79.75 185.25 79.484375 185.515625Q79.21875 185.78125 79.21875 186.15625ZM89.375 196.34375V187.96875Q89.375 186.0625 90.71875 184.71875Q92.0625 183.375 93.96875 183.375H98.59375V185.25H93.96875Q92.84375 185.25 92.046875 186.046875Q91.25 186.84375 91.25 187.96875V192.125H98.59375V194.0H91.25V196.34375ZM100.625 189.40625V186.15625Q100.625 185.0 101.4375 184.1875Q102.25 183.375 103.40625 183.375H107.84375Q109.0 183.375 109.8125 184.1875Q110.625 185.0 110.625 186.15625V193.5625Q110.625 194.71875 109.8125 195.53125Q109.0 196.34375 107.84375 196.34375V194.46875Q108.375 194.46875 108.640625 194.0H105.21875Q103.3125 194.0 101.96875 192.65625Q100.625 191.3125 100.625 189.40625ZM102.5 189.40625Q102.5 190.53125 103.296875 191.328125Q104.09375 192.125 105.21875 192.125H108.75V186.15625Q108.75 185.78125 108.484375 185.515625Q108.21875 185.25 107.84375 185.25H103.40625Q103.03125 185.25 102.765625 185.515625Q102.5 185.78125 102.5 186.15625ZM112.65625 194.0V181.03125H114.53125V183.375H118.0625Q119.96875 183.375 121.3125 184.71875Q122.65625 186.0625 122.65625 187.96875V194.0H120.78125V187.96875Q120.78125 186.84375 119.984375 186.046875Q119.1875 185.25 118.0625 185.25H114.53125V194.0ZM124.6875 194.0V183.375H126.5625V194.0ZM124.6875 182.90625V181.03125H126.5625V182.90625ZM128.59375 196.34375V194.46875Q128.96875 194.46875 129.234375 194.203125Q129.5 193.9375 129.5 193.5625V183.375H131.375V193.5625Q131.375 194.71875 130.5625 195.53125Q129.75 196.34375 128.59375 196.34375ZM129.5 182.90625V181.03125H131.375V182.90625ZM133.40625 194.0V181.03125H135.28125V187.75H137.71875Q138.84375 187.75 139.640625 186.953125Q140.4375 186.15625 140.4375 185.03125V183.375H142.3125V185.03125Q142.3125 186.953125 140.953125 188.28125Q142.0625 188.875 142.734375 189.9609375Q143.40625 191.046875 143.40625 192.34375V194.0H141.53125V192.34375Q141.53125 191.21875 140.734375 190.421875Q139.9375 189.625 138.8125 189.625H135.28125V194.0ZM145.4375 191.21875V181.03125H147.3125V191.21875Q147.3125 191.59375 147.578125 191.859375Q147.84375 192.125 148.21875 192.125V194.0Q147.0625 194.0 146.25 193.1875Q145.4375 192.375 145.4375 191.21875ZM150.25 194.0V186.15625Q150.25 185.0 151.0625 184.1875Q151.875 183.375 153.03125 183.375H159.875Q161.78125 183.375 163.125 184.71875Q164.46875 186.0625 164.46875 187.96875V194.0H162.59375V187.96875Q162.59375 186.84375 161.796875 186.046875Q161.0 185.25 159.875 185.25H158.296875V194.0H156.421875V185.25H153.03125Q152.65625 185.25 152.390625 185.515625Q152.125 185.78125 152.125 186.15625V194.0ZM166.5 194.0V186.15625Q166.5 185.0 167.3125 184.1875Q168.125 183.375 169.28125 183.375H171.90625Q173.8125 183.375 175.15625 184.71875Q176.5 186.0625 176.5 187.96875V194.0H174.625V187.96875Q174.625 186.84375 173.828125 186.046875Q173.03125 185.25 171.90625 185.25H169.28125Q168.90625 185.25 168.640625 185.515625Q168.375 185.78125 168.375 186.15625V194.0ZM180.40625 189.40625Q180.40625 190.53125 181.203125 191.328125Q182.0 192.125 183.125 192.125H185.75Q186.125 192.125 186.390625 191.859375Q186.65625 191.59375 186.65625 191.21875V186.15625Q186.65625 185.78125 186.390625 185.515625Q186.125 185.25 185.75 185.25H181.3125Q180.9375 185.25 180.671875 185.515625Q180.40625 185.78125 180.40625 186.15625ZM178.53125 189.40625V186.15625Q178.53125 185.0 179.34375 184.1875Q180.15625 183.375 181.3125 183.375H185.75Q186.90625 183.375 187.71875 184.1875Q188.53125 185.0 188.53125 186.15625V191.21875Q188.53125 192.375 187.71875 193.1875Q186.90625 194.0 185.75 194.0H183.125Q181.21875 194.0 179.875 192.65625Q178.53125 191.3125 178.53125 189.40625ZM192.4375 192.125H195.96875Q197.09375 192.125 197.890625 191.328125Q198.6875 190.53125 198.6875 189.40625V186.15625Q198.6875 185.78125 198.421875 185.515625Q198.15625 185.25 197.78125 185.25H193.34375Q192.96875 185.25 192.703125 185.515625Q192.4375 185.78125 192.4375 186.15625ZM190.5625 196.34375V186.15625Q190.5625 185.0 191.375 184.1875Q192.1875 183.375 193.34375 183.375H197.78125Q198.9375 183.375 199.75 184.1875Q200.5625 185.0 200.5625 186.15625V189.40625Q200.5625 191.3125 199.21875 192.65625Q197.875 194.0 195.96875 194.0H192.4375V196.34375ZM204.46875 189.40625Q204.46875 190.53125 205.265625 191.328125Q206.0625 192.125 207.1875 192.125H210.71875V186.15625Q210.71875 185.78125 210.453125 185.515625Q210.1875 185.25 209.8125 185.25H205.375Q205.0 185.25 204.734375 185.515625Q204.46875 185.78125 204.46875 186.15625ZM202.59375 189.40625V186.15625Q202.59375 185.0 203.40625 184.1875Q204.21875 183.375 205.375 183.375H209.8125Q210.96875 183.375 211.78125 184.1875Q212.59375 185.0 212.59375 186.15625V196.34375H210.71875V194.0H207.1875Q205.28125 194.0 203.9375 192.65625Q202.59375 191.3125 202.59375 189.40625ZM214.625 194.0V187.96875Q214.625 186.0625 215.96875 184.71875Q217.3125 183.375 219.21875 183.375H223.84375V185.25H219.21875Q218.09375 185.25 217.296875 186.046875Q216.5 186.84375 216.5 187.96875V194.0ZM225.921875 194.0V192.125H233.09375Q233.46875 192.125 233.734375 191.859375Q234.0 191.59375 234.0 191.21875V190.53125Q234.0 190.15625 233.734375 189.890625Q233.46875 189.625 233.09375 189.625H228.65625Q227.5 189.625 226.6875 188.8125Q225.875 188.0 225.875 186.84375V186.15625Q225.875 185.0 226.6875 184.1875Q227.5 183.375 228.65625 183.375H235.828125V185.25H228.65625Q228.28125 185.25 228.015625 185.515625Q227.75 185.78125 227.75 186.15625V186.84375Q227.75 187.21875 228.015625 187.484375Q228.28125 187.75 228.65625 187.75H233.09375Q234.25 187.75 235.0625 188.5625Q235.875 189.375 235.875 190.53125V191.21875Q235.875 192.375 235.0625 193.1875Q234.25 194.0 233.09375 194.0ZM237.90625 189.40625V181.03125H239.78125V183.375H247.125V185.25H239.78125V189.40625Q239.78125 190.53125 240.578125 191.328125Q241.375 192.125 242.5 192.125H247.125V194.0H242.5Q240.59375 194.0 239.25 192.65625Q237.90625 191.3125 237.90625 189.40625ZM249.15625 191.21875V183.375H251.03125V191.21875Q251.03125 191.59375 251.296875 191.859375Q251.5625 192.125 251.9375 192.125H256.375Q256.75 192.125 257.015625 191.859375Q257.28125 191.59375 257.28125 191.21875V183.375H259.15625V191.21875Q259.15625 192.375 258.34375 193.1875Q257.53125 194.0 256.375 194.0H251.9375Q250.78125 194.0 249.96875 193.1875Q249.15625 192.375 249.15625 191.21875ZM261.1875 189.40625V183.375H263.0625V189.40625Q263.0625 190.53125 263.859375 191.328125Q264.65625 192.125 265.78125 192.125H268.40625Q268.78125 192.125 269.046875 191.859375Q269.3125 191.59375 269.3125 191.21875V183.375H271.1875V191.21875Q271.1875 192.375 270.375 193.1875Q269.5625 194.0 268.40625 194.0H265.78125Q263.875 194.0 262.53125 192.65625Q261.1875 191.3125 261.1875 189.40625ZM273.21875 189.40625V183.375H275.09375V189.40625Q275.09375 190.53125 275.890625 191.328125Q276.6875 192.125 277.8125 192.125H279.390625V183.375H281.265625V192.125H284.65625Q285.03125 192.125 285.296875 191.859375Q285.5625 191.59375 285.5625 191.21875V183.375H287.4375V191.21875Q287.4375 192.375 286.625 193.1875Q285.8125 194.0 284.65625 194.0H277.8125Q275.90625 194.0 274.5625 192.65625Q273.21875 191.3125 273.21875 189.40625ZM289.46875 194.0V192.34375Q289.46875 191.25 289.953125 190.2890625Q290.4375 189.328125 291.28125 188.6875Q290.4375 188.046875 289.953125 187.0859375Q289.46875 186.125 289.46875 185.03125V183.375H291.34375V185.03125Q291.34375 186.15625 292.140625 186.953125Q292.9375 187.75 294.0625 187.75H294.875Q296.0 187.75 296.796875 186.953125Q297.59375 186.15625 297.59375 185.03125V183.375H299.46875V185.03125Q299.46875 186.125 298.984375 187.0859375Q298.5 188.046875 297.65625 188.6875Q298.5 189.328125 298.984375 190.2890625Q299.46875 191.25 299.46875 192.34375V194.0H297.59375V192.34375Q297.59375 191.21875 296.796875 190.421875Q296.0 189.625 294.875 189.625H294.0625Q292.9375 189.625 292.140625 190.421875Q291.34375 191.21875 291.34375 192.34375V194.0ZM301.5 189.40625V183.375H303.375V189.40625Q303.375 190.53125 304.171875 191.328125Q304.96875 192.125 306.09375 192.125H309.625V183.375H311.5V193.5625Q311.5 194.71875 310.6875 195.53125Q309.875 196.34375 308.71875 196.34375V194.46875Q309.25 194.46875 309.515625 194.0H306.09375Q304.1875 194.0 302.84375 192.65625Q301.5 191.3125 301.5 189.40625ZM313.53125 191.21875V190.53125Q313.53125 189.375 314.34375 188.5625Q315.15625 187.75 316.3125 187.75H320.75Q321.125 187.75 321.390625 187.484375Q321.65625 187.21875 321.65625 186.84375V186.15625Q321.65625 185.78125 321.390625 185.515625Q321.125 185.25 320.75 185.25H313.578125V183.375H320.75Q321.90625 183.375 322.71875 184.1875Q323.53125 185.0 323.53125 186.15625V186.84375Q323.53125 188.0 322.71875 188.8125Q321.90625 189.625 320.75 189.625H316.3125Q315.9375 189.625 315.671875 189.890625Q315.40625 190.15625 315.40625 190.53125V191.21875Q315.40625 191.59375 315.671875 191.859375Q315.9375 192.125 316.3125 192.125H323.484375V194.0H316.3125Q315.15625 194.0 314.34375 193.1875Q313.53125 192.375 313.53125 191.21875ZM343.0625 189.40625Q343.0625 190.53125 343.859375 191.328125Q344.65625 192.125 345.78125 192.125H348.40625Q348.78125 192.125 349.046875 191.859375Q349.3125 191.59375 349.3125 191.21875V186.15625Q349.3125 185.78125 349.046875 185.515625Q348.78125 185.25 348.40625 185.25H343.96875Q343.59375 185.25 343.328125 185.515625Q343.0625 185.78125 343.0625 186.15625ZM341.1875 189.40625V186.15625Q341.1875 185.0 342.0 184.1875Q342.8125 183.375 343.96875 183.375H348.40625Q349.5625 183.375 350.375 184.1875Q351.1875 185.0 351.1875 186.15625V191.21875Q351.1875 192.375 350.375 193.1875Q349.5625 194.0 348.40625 194.0H345.78125Q343.875 194.0 342.53125 192.65625Q341.1875 191.3125 341.1875 189.40625ZM353.21875 185.25V183.375H354.5Q355.65625 183.375 356.46875 184.1875Q357.28125 185.0 357.28125 186.15625V194.0H355.40625V186.15625Q355.40625 185.78125 355.140625 185.515625Q354.875 185.25 354.5 185.25ZM359.3125 191.21875V190.53125Q359.3125 189.375 360.125 188.5625Q360.9375 187.75 362.09375 187.75H366.53125Q366.90625 187.75 367.171875 187.484375Q367.4375 187.21875 367.4375 186.84375V186.15625Q367.4375 185.78125 367.171875 185.515625Q366.90625 185.25 366.53125 185.25H359.359375V183.375H366.53125Q367.6875 183.375 368.5 184.1875Q369.3125 185.0 369.3125 186.15625V186.84375Q369.3125 188.0 368.5 188.8125Q367.6875 189.625 366.53125 189.625H362.09375Q361.71875 189.625 361.453125 189.890625Q361.1875 190.15625 361.1875 190.53125V191.21875Q361.1875 191.59375 361.453125 191.859375Q361.71875 192.125 362.09375 192.125H369.265625V194.0H362.09375Q360.9375 194.0 360.125 193.1875Q359.3125 192.375 359.3125 191.21875ZM371.34375 194.0V192.125H378.5625Q378.9375 192.125 379.203125 191.859375Q379.46875 191.59375 379.46875 191.21875V189.625H371.34375V187.75H379.46875Q379.390625 186.703125 378.6015625 185.9765625Q377.8125 185.25 376.75 185.25H371.34375V183.375H376.75Q378.65625 183.375 380.0 184.71875Q381.34375 186.0625 381.34375 187.96875V191.21875Q381.34375 192.375 380.53125 193.1875Q379.71875 194.0 378.5625 194.0ZM383.375 185.03125V183.375H385.25V185.03125Q385.25 186.15625 386.046875 186.953125Q386.84375 187.75 387.96875 187.75H391.5V183.375H393.375V194.0H391.5V189.625H387.96875Q386.0625 189.625 384.71875 188.28125Q383.375 186.9375 383.375 185.03125ZM395.453125 194.0V192.125H402.625Q403.0 192.125 403.265625 191.859375Q403.53125 191.59375 403.53125 191.21875V190.53125Q403.53125 190.15625 403.265625 189.890625Q403.0 189.625 402.625 189.625H398.1875Q397.03125 189.625 396.21875 188.8125Q395.40625 188.0 395.40625 186.84375V186.15625Q395.40625 185.0 396.21875 184.1875Q397.03125 183.375 398.1875 183.375H405.359375V185.25H398.1875Q397.8125 185.25 397.546875 185.515625Q397.28125 185.78125 397.28125 186.15625V186.84375Q397.28125 187.21875 397.546875 187.484375Q397.8125 187.75 398.1875 187.75H402.625Q403.78125 187.75 404.59375 188.5625Q405.40625 189.375 405.40625 190.53125V191.21875Q405.40625 192.375 404.59375 193.1875Q403.78125 194.0 402.625 194.0ZM407.4375 191.21875V187.96875Q407.4375 186.0625 408.78125 184.71875Q410.125 183.375 412.03125 183.375H417.390625V185.25H412.03125Q410.96875 185.25 410.1796875 185.9765625Q409.390625 186.703125 409.3125 187.75H414.65625Q415.8125 187.75 416.625 188.5625Q417.4375 189.375 417.4375 190.53125V191.21875Q417.4375 192.375 416.625 193.1875Q415.8125 194.0 414.65625 194.0H410.21875Q409.0625 194.0 408.25 193.1875Q407.4375 192.375 407.4375 191.21875ZM409.3125 191.21875Q409.3125 191.59375 409.578125 191.859375Q409.84375 192.125 410.21875 192.125H414.65625Q415.03125 192.125 415.296875 191.859375Q415.5625 191.59375 415.5625 191.21875V190.53125Q415.5625 190.15625 415.296875 189.890625Q415.03125 189.625 414.65625 189.625H409.3125ZM419.46875 185.25V183.375H424.875Q426.78125 183.375 428.125 184.71875Q429.46875 186.0625 429.46875 187.96875V194.0H427.59375V187.96875Q427.59375 186.84375 426.796875 186.046875Q426.0 185.25 424.875 185.25ZM433.375 191.21875Q433.375 191.59375 433.640625 191.859375Q433.90625 192.125 434.28125 192.125H438.71875Q439.09375 192.125 439.359375 191.859375Q439.625 191.59375 439.625 191.21875V190.53125Q439.625 190.15625 439.359375 189.890625Q439.09375 189.625 438.71875 189.625H434.28125Q433.90625 189.625 433.640625 189.890625Q433.375 190.15625 433.375 190.53125ZM431.5 191.21875V190.53125Q431.5 189.46875 432.203125 188.6875Q431.5 187.90625 431.5 186.84375V186.15625Q431.5 185.0 432.3125 184.1875Q433.125 183.375 434.28125 183.375H438.71875Q439.875 183.375 440.6875 184.1875Q441.5 185.0 441.5 186.15625V186.84375Q441.5 187.90625 440.796875 188.6875Q441.5 189.46875 441.5 190.53125V191.21875Q441.5 192.375 440.6875 193.1875Q439.875 194.0 438.71875 194.0H434.28125Q433.125 194.0 432.3125 193.1875Q431.5 192.375 431.5 191.21875ZM433.375 186.84375Q433.375 187.21875 433.640625 187.484375Q433.90625 187.75 434.28125 187.75H438.71875Q439.09375 187.75 439.359375 187.484375Q439.625 187.21875 439.625 186.84375V186.15625Q439.625 185.78125 439.359375 185.515625Q439.09375 185.25 438.71875 185.25H434.28125Q433.90625 185.25 433.640625 185.515625Q433.375 185.78125 433.375 186.15625ZM443.578125 194.0V192.125H448.9375Q450.0 192.125 450.7890625 191.3984375Q451.578125 190.671875 451.65625 189.625H446.3125Q445.15625 189.625 444.34375 188.8125Q443.53125 188.0 443.53125 186.84375V186.15625Q443.53125 185.0 444.34375 184.1875Q445.15625 183.375 446.3125 183.375H450.75Q451.90625 183.375 452.71875 184.1875Q453.53125 185.0 453.53125 186.15625V189.40625Q453.53125 191.3125 452.1875 192.65625Q450.84375 194.0 448.9375 194.0ZM445.40625 186.84375Q445.40625 187.21875 445.671875 187.484375Q445.9375 187.75 446.3125 187.75H451.65625V186.15625Q451.65625 185.78125 451.390625 185.515625Q451.125 185.25 450.75 185.25H446.3125Q445.9375 185.25 445.671875 185.515625Q445.40625 185.78125 445.40625 186.15625ZM471.1875 191.21875V190.53125Q471.1875 189.46875 471.890625 188.6875Q471.1875 187.90625 471.1875 186.84375V186.15625Q471.1875 185.0 472.0 184.1875Q472.8125 183.375 473.96875 183.375H475.75V185.25H473.96875Q473.59375 185.25 473.328125 185.515625Q473.0625 185.78125 473.0625 186.15625V186.84375Q473.0625 187.21875 473.328125 187.484375Q473.59375 187.75 473.96875 187.75H478.59375V186.1875H480.46875V187.75H481.8125V189.625H480.46875V191.21875Q480.46875 192.375 479.65625 193.1875Q478.84375 194.0 477.6875 194.0H473.96875Q472.8125 194.0 472.0 193.1875Q471.1875 192.375 471.1875 191.21875ZM473.0625 191.21875Q473.0625 191.59375 473.328125 191.859375Q473.59375 192.125 473.96875 192.125H477.6875Q478.0625 192.125 478.328125 191.859375Q478.59375 191.59375 478.59375 191.21875V189.625H473.96875Q473.59375 189.625 473.328125 189.890625Q473.0625 190.15625 473.0625 190.53125ZM483.84375 194.0V192.125H485.71875V194.0ZM487.75 195.25V192.125H489.625V195.25ZM491.65625 191.34375V183.375H493.53125V191.34375ZM491.65625 194.0V192.125H493.53125V194.0ZM498.0625 194.0V192.125H499.9375V194.0ZM495.5625 185.25V183.375H502.78125Q503.9375 183.375 504.75 184.1875Q505.5625 185.0 505.5625 186.15625V186.84375Q505.5625 188.0 504.75 188.8125Q503.9375 189.625 502.78125 189.625H500.84375Q500.46875 189.625 500.203125 189.890625Q499.9375 190.15625 499.9375 190.53125V191.34375H498.0625V190.53125Q498.0625 189.375 498.875 188.5625Q499.6875 187.75 500.84375 187.75H502.78125Q503.15625 187.75 503.421875 187.484375Q503.6875 187.21875 503.6875 186.84375V186.15625Q503.6875 185.78125 503.421875 185.515625Q503.15625 185.25 502.78125 185.25Z" fill="#6b7280"/></svg>