<svg xmlns="http://www.w3.org/2000/svg" viewBox="0 0 737.5 222.0" width="738" height="222"><path d="M30.0 76.0V54.16796875L41.005859375 40.0625H73.125V47.33984375H44.5546875L39.208984375 54.16796875H73.125V61.4453125H37.27734375V76.0ZM75.19140625 76.0V68.72265625H85.748046875L93.115234375 59.333984375V56.728515625L85.748046875 47.33984375H75.19140625V40.0625H89.296875L96.75390625 49.31640625L104.2109375 40.0625H118.31640625V47.33984375H107.759765625L100.392578125 56.728515625V59.333984375L107.759765625 68.72265625H118.31640625V76.0H104.2109375L96.75390625 66.431640625L89.296875 76.0ZM122.1796875 76.0V68.72265625H150.75L156.455078125 61.4453125H122.1796875V54.16796875H158.02734375V47.33984375H122.1796875V40.0625H165.3046875V61.89453125L154.298828125 76.0ZM176.4453125 59.423828125 183.72265625 68.72265625H205.015625V47.33984375H176.4453125ZM169.16796875 61.89453125V40.0625H212.29296875V76.0H180.173828125ZM223.43359375 59.423828125 230.7109375 68.72265625H252.00390625V47.33984375H223.43359375ZM216.15625 61.89453125V40.0625H259.28125V76.0H227.162109375ZM293.017578125 54.16796875H319.65625V47.33984375H298.36328125ZM283.80859375 76.0V54.16796875L294.814453125 40.0625H326.93359375V76.0H319.65625V61.4453125H291.0859375V76.0ZM329.0 76.0V40.0625H361.119140625L372.125 54.16796875V76.0H364.84765625V56.638671875L357.5703125 47.33984375H336.27734375V76.0ZM374.19140625 76.0V54.16796875L385.197265625 40.0625H417.31640625V47.33984375H388.74609375L381.46875 56.638671875V68.72265625H410.0390625V54.16796875H417.31640625V76.0ZM419.3828125 76.0V40.0625H426.66015625V68.72265625H455.23046875V40.0625H462.5078125V76.0ZM464.57421875 61.89453125V40.0625H471.8515625V59.423828125L479.12890625 68.72265625H507.69921875V76.0H475.580078125ZM518.974609375 54.16796875H545.61328125V47.33984375H524.3203125ZM509.765625 76.0V54.16796875L520.771484375 40.0625H552.890625V76.0H545.61328125V61.4453125H517.04296875V76.0ZM564.166015625 54.16796875H590.8046875V47.33984375H569.51171875ZM554.95703125 76.0V54.16796875L565.962890625 40.0625H598.08203125V61.4453125H581.37109375L587.076171875 68.72265625H598.08203125V76.0H583.52734375L572.162109375 61.4453125H562.234375V76.0Z" fill="#12151a"/><path d="M34.6044921875 116.083984375H47.923828125V112.669921875H37.27734375ZM30.0 127.0V116.083984375L35.5029296875 109.03125H51.5625V119.72265625H33.638671875V127.0ZM52.595703125 127.0V109.03125H56.234375V127.0ZM62.0517578125 116.083984375H75.37109375V112.669921875H64.724609375ZM57.447265625 127.0V116.083984375L62.9501953125 109.03125H79.009765625V119.72265625H70.654296875L73.5068359375 123.361328125H79.009765625V127.0H71.732421875L66.0498046875 119.72265625H61.0859375V127.0ZM84.6474609375 116.083984375H97.966796875V112.669921875H87.3203125ZM80.04296875 127.0V116.083984375L85.5458984375 109.03125H101.60546875V127.0H97.966796875V119.72265625H83.681640625V127.0ZM102.638671875 127.0V109.03125H118.6982421875L124.201171875 116.083984375V127.0H120.5625V117.3193359375L116.923828125 112.669921875H106.27734375V127.0ZM125.234375 127.0V109.03125H128.873046875V116.083984375H143.158203125V109.03125H146.796875V127.0H143.158203125V119.72265625H128.873046875V127.0ZM152.4345703125 116.083984375H165.75390625V112.669921875H155.107421875ZM147.830078125 127.0V116.083984375L153.3330078125 109.03125H169.392578125V127.0H165.75390625V119.72265625H151.46875V127.0ZM185.294921875 116.083984375H199.5126953125L196.83984375 112.669921875H185.294921875ZM185.294921875 123.361328125H200.478515625V119.72265625H185.294921875ZM181.65625 127.0V109.03125H198.6142578125L204.1171875 116.083984375V127.0ZM205.150390625 127.0V109.03125H208.7890625V127.0ZM210.001953125 112.669921875V109.03125H231.33984375V112.669921875H222.490234375V127.0H218.8515625V112.669921875ZM232.373046875 127.0V116.083984375L237.8759765625 109.03125H253.935546875V112.669921875H239.650390625L236.9775390625 116.083984375H253.935546875V119.72265625H236.01171875V123.361328125H253.935546875V127.0ZM254.96875 127.0V123.361328125H272.892578125V119.72265625H254.96875V109.03125H276.53125V112.669921875H258.607421875V116.083984375H276.53125V127.0ZM288.794921875 127.0V109.03125H292.43359375V116.083984375H306.71875V109.03125H310.357421875V127.0H306.71875V119.72265625H292.43359375V127.0ZM315.9951171875 116.083984375H329.314453125V112.669921875H318.66796875ZM311.390625 127.0V116.083984375L316.8935546875 109.03125H332.953125V127.0H329.314453125V119.72265625H315.029296875V127.0ZM338.5908203125 116.083984375H351.91015625V112.669921875H341.263671875ZM333.986328125 127.0V116.083984375L339.4892578125 109.03125H355.548828125V119.72265625H347.193359375L350.0458984375 123.361328125H355.548828125V127.0H348.271484375L342.5888671875 119.72265625H337.625V127.0ZM360.220703125 123.361328125H375.404296875V117.3193359375L371.765625 112.669921875H360.220703125ZM356.58203125 127.0V109.03125H373.5400390625L379.04296875 116.083984375V127.0ZM394.9453125 118.7119140625 398.583984375 123.361328125H409.23046875V112.669921875H394.9453125ZM391.306640625 119.947265625V109.03125H412.869140625V127.0H396.8095703125ZM413.90234375 127.0V109.03125H429.9619140625L435.46484375 116.083984375V127.0H431.826171875V117.3193359375L428.1875 112.669921875H417.541015625V127.0ZM452.3330078125 116.083984375H465.65234375V112.669921875H455.005859375ZM447.728515625 127.0V116.083984375L453.2314453125 109.03125H469.291015625V127.0H465.65234375V119.72265625H451.3671875V127.0ZM470.32421875 127.0V109.03125H486.3837890625L491.88671875 116.083984375V127.0H488.248046875V117.3193359375L484.609375 112.669921875H473.962890625V127.0ZM492.919921875 127.0V109.03125H496.55859375V123.361328125H510.84375V109.03125H514.482421875V127.0ZM515.515625 119.947265625V109.03125H519.154296875V118.7119140625L522.79296875 123.361328125H537.078125V127.0H521.0185546875ZM542.7158203125 116.083984375H556.03515625V112.669921875H545.388671875ZM538.111328125 127.0V116.083984375L543.6142578125 109.03125H559.673828125V119.72265625H541.75V127.0ZM560.70703125 127.0V109.03125H564.345703125V116.083984375H578.630859375V109.03125H582.26953125V127.0H578.630859375V119.72265625H564.345703125V127.0ZM587.9072265625 116.083984375H601.2265625V112.669921875H590.580078125ZM583.302734375 127.0V116.083984375L588.8056640625 109.03125H604.865234375V127.0H601.2265625V119.72265625H586.94140625V127.0ZM621.7333984375 116.083984375H635.052734375V112.669921875H624.40625ZM617.12890625 127.0V116.083984375L622.6318359375 109.03125H638.69140625V119.72265625H620.767578125V127.0ZM644.3291015625 116.083984375H657.6484375V112.669921875H647.001953125ZM639.724609375 127.0V116.083984375L645.2275390625 109.03125H661.287109375V127.0H657.6484375V119.72265625H643.36328125V127.0ZM662.3203125 127.0V123.361328125H680.244140625V119.72265625H662.3203125V109.03125H683.8828125V112.669921875H665.958984375V116.083984375H683.8828125V127.0ZM684.916015625 127.0V123.361328125H702.83984375V119.72265625H684.916015625V109.03125H706.478515625V112.669921875H688.5546875V116.083984375H706.478515625V127.0Z" fill="#3a3f47"/><path d="M33.203125 157.40625H42.46875V155.03125H35.0625ZM30.0 165.0V157.40625L33.828125 152.5H45.0V165.0H42.46875V159.9375H32.53125V165.0ZM48.25 157.40625H58.140625L56.28125 155.03125H48.25ZM48.25 162.46875H58.8125V159.9375H48.25ZM45.71875 165.0V152.5H57.515625L61.34375 157.40625V165.0ZM62.0625 165.0V157.40625L65.890625 152.5H77.0625V155.03125H67.125L64.59375 158.265625V162.46875H77.0625V165.0ZM80.3125 162.46875H90.875V158.265625L88.34375 155.03125H80.3125ZM77.78125 165.0V152.5H89.578125L93.40625 157.40625V165.0ZM94.125 165.0V157.40625L97.953125 152.5H109.125V155.03125H99.1875L97.203125 157.5625H109.125V160.09375H96.65625V162.46875H109.125V165.0ZM109.84375 165.0V157.40625L113.671875 152.5H124.84375V155.03125H114.90625L113.046875 157.40625H124.84375V159.9375H112.375V165.0ZM125.5625 165.0V157.40625L129.390625 152.5H140.5625V155.03125H130.625L128.09375 158.265625V162.46875H138.03125V157.40625H140.5625V165.0ZM141.28125 165.0V152.5H143.8125V157.40625H153.75V152.5H156.28125V165.0H153.75V159.9375H143.8125V165.0ZM157.0 165.0V152.5H159.53125V165.0ZM160.375 165.0V162.46875H170.3125L172.84375 159.234375V152.5H175.375V160.09375L171.546875 165.0ZM176.09375 165.0V152.5H178.625V157.40625H182.078125L186.03125 152.5H190.9375V155.03125H187.265625L184.703125 158.296875V159.203125L187.265625 162.46875H190.9375V165.0H186.03125L182.078125 159.9375H178.625V165.0ZM191.65625 160.09375V152.5H194.1875V159.234375L196.71875 162.46875H206.65625V165.0H195.484375ZM207.375 165.0V157.40625L211.203125 152.5H225.03125V165.0H222.5V155.03125H218.78125V165.0H216.25V155.03125H212.4375L209.90625 158.265625V165.0ZM225.875 165.0V152.5H237.046875L240.875 157.40625V165.0H238.34375V158.265625L235.8125 155.03125H228.40625V165.0ZM244.125 159.234375 246.65625 162.46875H254.0625V155.03125H244.125ZM241.59375 160.09375V152.5H256.59375V165.0H245.421875ZM260.515625 157.40625H269.78125V155.03125H262.375ZM257.3125 165.0V157.40625L261.140625 152.5H272.3125V159.9375H259.84375V165.0ZM275.5625 159.234375 278.09375 162.46875H285.5V155.03125H275.5625ZM273.03125 160.09375V152.5H288.03125V162.46875H290.84375V165.0H276.859375ZM294.890625 157.40625H304.15625V155.03125H296.75ZM291.6875 165.0V157.40625L295.515625 152.5H306.6875V159.9375H300.875L302.859375 162.46875H306.6875V165.0H301.625L297.671875 159.9375H294.21875V165.0ZM307.40625 165.0V162.46875H319.875V159.9375H307.40625V152.5H322.40625V155.03125H309.9375V157.40625H322.40625V165.0ZM323.125 155.03125V152.5H337.96875V155.03125H331.8125V165.0H329.28125V155.03125ZM338.6875 165.0V152.5H341.21875V162.46875H351.15625V152.5H353.6875V165.0ZM354.40625 165.0V152.5H356.9375V162.46875H364.34375L366.875 159.234375V152.5H369.40625V160.09375L365.578125 165.0ZM370.125 160.09375V152.5H372.65625V159.234375L375.1875 162.46875H379.0V152.5H381.53125V162.46875H385.25V152.5H387.78125V165.0H373.953125ZM388.625 165.0V162.46875H392.296875L394.859375 159.203125V158.296875L392.296875 155.03125H388.625V152.5H393.53125L396.125 155.71875L398.71875 152.5H403.625V155.03125H399.953125L397.390625 158.296875V159.203125L399.953125 162.46875H403.625V165.0H398.71875L396.125 161.671875L393.53125 165.0ZM404.34375 159.9375V152.5H406.875V157.40625H416.8125V152.5H419.34375V159.9375H413.109375V165.0H410.578125V159.9375ZM420.0625 165.0V157.40625H432.53125V155.03125H420.0625V152.5H435.0625V159.9375H422.59375V162.46875H435.0625V165.0Z" fill="#6b7280"/><path d="M33.203125 186.40625H42.46875V184.03125H35.0625ZM30.0 194.0V186.40625L33.828125 181.5H45.0V194.0H42.46875V188.9375H32.53125V194.0ZM48.25 186.40625H58.140625L56.28125 184.03125H48.25ZM48.25 191.46875H58.8125V188.9375H48.25ZM45.71875 194.0V181.5H57.515625L61.34375 186.40625V194.0ZM62.0625 194.0V186.40625L65.890625 181.5H77.0625V184.03125H67.125L64.59375 187.265625V191.46875H77.0625V194.0ZM80.3125 191.46875H90.875V187.265625L88.34375 184.03125H80.3125ZM77.78125 194.0V181.5H89.578125L93.40625 186.40625V194.0ZM94.125 194.0V186.40625L97.953125 181.5H109.125V184.03125H99.1875L97.328125 186.40625H109.125V188.9375H96.65625V191.46875H109.125V194.0ZM109.84375 194.0V186.40625L113.671875 181.5H124.84375V184.03125H114.90625L113.046875 186.40625H124.84375V188.9375H112.375V194.0ZM125.5625 194.0V186.40625L129.390625 181.5H140.5625V184.03125H130.625L128.09375 187.265625V191.46875H138.03125V186.40625H140.5625V194.0ZM141.28125 194.0V181.5H143.8125V186.40625H153.75V181.5H156.28125V194.0H153.75V188.9375H143.8125V194.0ZM157.0 194.0V181.5H159.53125V194.0ZM160.375 194.0V191.46875H170.3125L172.84375 188.234375V181.5H175.375V189.09375L171.546875 194.0ZM176.09375 194.0V181.5H178.625V186.40625H182.078125L186.03125 181.5H190.9375V184.03125H187.265625L184.703125 187.296875V188.203125L187.265625 191.46875H190.9375V194.0H186.03125L182.078125 188.9375H178.625V194.0ZM191.65625 189.09375V181.5H194.1875V188.234375L196.71875 191.46875H206.65625V194.0H195.484375ZM207.375 194.0V186.40625L211.203125 181.5H225.03125V194.0H222.5V184.03125H218.78125V194.0H216.25V184.03125H212.4375L209.90625 187.265625V194.0ZM225.875 194.0V181.5H237.046875L240.875 186.40625V194.0H238.34375V187.265625L235.8125 184.03125H228.40625V194.0ZM244.125 188.234375 246.65625 191.46875H254.0625V184.03125H244.125ZM241.59375 189.09375V181.5H256.59375V194.0H245.421875ZM260.515625 186.40625H269.78125V184.03125H262.375ZM257.3125 194.0V186.40625L261.140625 181.5H272.3125V188.9375H259.84375V194.0ZM275.5625 188.234375 278.09375 191.46875H285.5V184.03125H275.5625ZM273.03125 189.09375V181.5H288.03125V191.46875H290.84375V194.0H276.859375ZM294.890625 186.40625H304.15625V184.03125H296.75ZM291.6875 194.0V186.40625L295.515625 181.5H306.6875V188.9375H300.875L302.859375 191.46875H306.6875V194.0H301.625L297.671875 188.9375H294.21875V194.0ZM307.40625 194.0V191.46875H319.875V188.9375H307.40625V181.5H322.40625V184.03125H309.9375V186.40625H322.40625V194.0ZM323.125 184.03125V181.5H337.96875V184.03125H331.8125V194.0H329.28125V184.03125ZM338.6875 194.0V181.5H341.21875V191.46875H351.15625V181.5H353.6875V194.0ZM354.40625 194.0V181.5H356.9375V191.46875H364.34375L366.875 188.234375V181.5H369.40625V189.09375L365.578125 194.0ZM370.125 189.09375V181.5H372.65625V188.234375L375.1875 191.46875H379.0V181.5H381.53125V191.46875H385.25V181.5H387.78125V194.0H373.953125ZM388.625 194.0V191.46875H392.296875L394.859375 188.203125V187.296875L392.296875 184.03125H388.625V181.5H393.53125L396.125 184.71875L398.71875 181.5H403.625V184.03125H399.953125L397.390625 187.296875V188.203125L399.953125 191.46875H403.625V194.0H398.71875L396.125 190.671875L393.53125 194.0ZM404.34375 188.9375V181.5H406.875V186.40625H416.8125V181.5H419.34375V188.9375H413.109375V194.0H410.578125V188.9375ZM420.0625 194.0V186.40625H432.53125V184.03125H420.0625V181.5H435.0625V188.9375H422.59375V191.46875H435.0625V194.0ZM454.5625 188.234375 457.09375 191.46875H464.5V184.03125H454.5625ZM452.03125 189.09375V181.5H467.03125V194.0H455.859375ZM468.59375 194.0V181.5H471.125V194.0ZM472.59375 194.0V186.40625H484.390625L482.53125 184.03125H472.59375V181.5H483.765625L487.59375 186.40625V188.9375H475.125V191.46875H487.59375V194.0ZM488.9375 194.0V191.46875H498.875L500.859375 188.9375H488.9375V186.40625H501.40625V184.03125H488.9375V181.5H503.9375V189.09375L500.109375 194.0ZM505.28125 188.9375V181.5H507.8125V186.40625H517.75V181.5H520.28125V194.0H517.75V188.9375ZM521.625 194.0V191.46875H531.4375L533.421875 188.9375H521.625V181.5H536.625V184.03125H524.15625V186.40625H536.625V188.9375L532.671875 194.0ZM537.96875 194.0V186.40625L541.796875 181.5H552.96875V184.03125H543.03125L541.171875 186.40625H552.96875V194.0ZM540.5 191.46875H550.4375V188.9375H540.5ZM554.3125 184.03125V181.5H565.484375L569.3125 186.40625V194.0H566.78125V187.265625L564.25 184.03125ZM573.1875 186.40625H583.125V184.03125H573.1875ZM573.734375 188.9375 575.71875 191.46875H583.125V188.9375ZM570.65625 189.09375V181.5H585.65625V194.0H574.484375ZM589.53125 186.40625H599.46875V184.03125H589.53125ZM587.0 194.0V191.46875H596.8125L598.796875 188.9375H587.0V181.5H602.0V188.9375L598.046875 194.0ZM621.265625 187.640625 622.640625 189.6875H623.640625V187.640625ZM625.6875 185.59375H627.734375V183.546875H625.6875ZM618.6875 187.640625V185.59375H623.640625V181.5H629.78125V187.640625H625.6875V189.6875H629.78125V191.734375H625.6875V194.0H623.640625V191.734375H621.71875ZM632.75 194.0V191.34375H635.28125V194.0ZM640.5625 194.0V191.34375H643.09375V196.65625H641.828125V194.0ZM648.375 190.625V181.5H650.90625V190.625ZM648.375 194.0V191.46875H650.90625V194.0ZM654.65625 188.9375V186.40625H666.453125L664.59375 184.03125H654.65625V181.5H665.828125L669.65625 186.40625V188.9375ZM654.65625 194.0V191.34375H657.1875V194.0Z" fill="#6b7280"/></svg>