<svg xmlns="http://www.w3.org/2000/svg" viewBox="0 0 839.8 222.0" width="840" height="222"><path d="M30.0 76.0V40.0625H65.9375V47.25H37.1875V54.4375H58.75V61.625H37.1875V76.0ZM101.875 76.0V68.8125H109.0625V76.0ZM94.6875 68.8125V61.625H101.875V68.8125ZM101.875 47.25V40.0625H109.0625V47.25ZM94.6875 54.4375V47.25H101.875V54.4375ZM73.125 47.25V40.0625H80.3125V47.25ZM80.3125 54.4375V47.25H87.5V54.4375ZM87.5 61.625V54.4375H94.6875V61.625ZM80.3125 68.8125V61.625H87.5V68.8125ZM73.125 76.0V68.8125H80.3125V76.0ZM116.25 76.0V68.8125H145.0V61.625H116.25V54.4375H145.0V47.25H116.25V40.0625H152.1875V76.0ZM166.5625 68.8125H188.125V47.25H166.5625ZM159.375 76.0V40.0625H195.3125V76.0ZM209.6875 68.8125H231.25V47.25H209.6875ZM202.5 76.0V40.0625H238.4375V76.0Z" fill="#12151a"/><path d="M33.59375 116.21875H44.375V112.625H33.59375ZM30.0 127.0V109.03125H47.96875V127.0H44.375V119.8125H33.59375V127.0ZM51.5625 127.0V123.40625H65.9375V119.8125H51.5625V109.03125H69.53125V112.625H55.15625V116.21875H69.53125V127.0ZM73.125 127.0V123.40625H87.5V119.8125H73.125V109.03125H91.09375V112.625H76.71875V116.21875H91.09375V127.0ZM94.6875 127.0V109.03125H112.65625V112.625H98.28125V116.21875H109.0625V119.8125H98.28125V123.40625H112.65625V127.0ZM116.25 127.0V109.03125H134.21875V112.625H119.84375V123.40625H130.625V119.8125H127.03125V116.21875H134.21875V127.0ZM141.40625 116.21875H152.1875V112.625H141.40625ZM137.8125 127.0V109.03125H155.78125V127.0H152.1875V119.8125H141.40625V127.0ZM159.375 127.0V109.03125H162.96875V127.0ZM191.71875 123.40625V112.625H195.3125V123.40625ZM177.34375 127.0V109.03125H191.71875V112.625H180.9375V123.40625H191.71875V127.0ZM198.90625 127.0V109.03125H216.875V112.625H202.5V116.21875H213.28125V119.8125H202.5V123.40625H216.875V127.0ZM234.84375 123.40625V109.03125H238.4375V123.40625ZM220.46875 123.40625V109.03125H224.0625V123.40625ZM224.0625 127.0V123.40625H234.84375V127.0ZM242.03125 127.0V109.03125H260.0V112.625H245.625V116.21875H256.40625V119.8125H245.625V123.40625H260.0V127.0ZM263.59375 127.0V109.03125H267.1875V123.40625H281.5625V127.0ZM288.75 123.40625H299.53125V112.625H288.75ZM285.15625 127.0V109.03125H303.125V127.0ZM310.3125 116.21875H321.09375V112.625H310.3125ZM306.71875 127.0V109.03125H324.6875V119.8125H310.3125V127.0ZM328.28125 127.0V109.03125H346.25V127.0H342.65625V112.625H339.0625V127.0H335.46875V112.625H331.875V127.0ZM349.84375 127.0V109.03125H367.8125V112.625H353.4375V116.21875H364.21875V119.8125H353.4375V123.40625H367.8125V127.0ZM371.40625 127.0V109.03125H389.375V127.0H385.78125V112.625H375.0V127.0ZM392.96875 112.625V109.03125H410.9375V112.625H403.75V127.0H400.15625V112.625ZM414.53125 127.0V123.40625H428.90625V119.8125H414.53125V109.03125H432.5V112.625H418.125V116.21875H432.5V127.0ZM446.875 112.625V109.03125H464.84375V112.625H457.65625V127.0H454.0625V112.625ZM468.4375 127.0V109.03125H472.03125V123.40625H482.8125V109.03125H486.40625V127.0ZM490.0 127.0V109.03125H507.96875V127.0H504.375V112.625H493.59375V127.0ZM511.5625 127.0V109.03125H529.53125V112.625H515.15625V116.21875H525.9375V119.8125H515.15625V123.40625H529.53125V127.0ZM533.125 127.0V123.40625H547.5V119.8125H533.125V109.03125H551.09375V112.625H536.71875V116.21875H551.09375V127.0ZM569.0625 116.21875H579.84375V112.625H569.0625ZM565.46875 127.0V109.03125H583.4375V127.0H579.84375V119.8125H569.0625V127.0ZM587.03125 127.0V109.03125H605.0V127.0H601.40625V112.625H590.625V127.0ZM619.375 127.0V109.03125H637.34375V112.625H622.96875V116.21875H633.75V119.8125H622.96875V127.0ZM655.3125 127.0V123.40625H658.90625V127.0ZM651.71875 123.40625V119.8125H655.3125V123.40625ZM655.3125 112.625V109.03125H658.90625V112.625ZM651.71875 116.21875V112.625H655.3125V116.21875ZM640.9375 112.625V109.03125H644.53125V112.625ZM644.53125 116.21875V112.625H648.125V116.21875ZM648.125 119.8125V116.21875H651.71875V119.8125ZM644.53125 123.40625V119.8125H648.125V123.40625ZM640.9375 127.0V123.40625H644.53125V127.0ZM662.5 127.0V123.40625H676.875V119.8125H662.5V116.21875H676.875V112.625H662.5V109.03125H680.46875V127.0ZM687.65625 123.40625H698.4375V112.625H687.65625ZM684.0625 127.0V109.03125H702.03125V127.0ZM709.21875 123.40625H720.0V112.625H709.21875ZM705.625 127.0V109.03125H723.59375V127.0ZM737.96875 127.0V123.40625H752.34375V119.8125H737.96875V109.03125H755.9375V112.625H741.5625V116.21875H755.9375V127.0ZM759.53125 127.0V109.03125H763.125V116.21875H773.90625V109.03125H777.5V127.0H773.90625V119.8125H763.125V127.0ZM781.09375 127.0V109.03125H784.6875V127.0ZM791.875 116.21875H802.65625V112.625H791.875ZM788.28125 127.0V109.03125H806.25V119.8125H791.875V127.0Z" fill="#3a3f47"/><path d="M32.5 157.5H40.0V155.0H32.5ZM30.0 165.0V152.5H42.5V165.0H40.0V160.0H32.5V165.0ZM47.5 162.5H55.0V160.0H47.5ZM45.0 165.0V152.5H55.0V157.5H57.5V165.0ZM47.5 157.5H52.5V155.0H47.5ZM60.0 165.0V152.5H72.5V157.5H70.0V155.0H62.5V162.5H70.0V160.0H72.5V165.0ZM85.0 162.5V155.0H87.5V162.5ZM75.0 165.0V152.5H85.0V155.0H77.5V162.5H85.0V165.0ZM90.0 165.0V152.5H102.5V155.0H92.5V157.5H100.0V160.0H92.5V162.5H102.5V165.0ZM105.0 165.0V152.5H117.5V155.0H107.5V157.5H115.0V160.0H107.5V165.0ZM120.0 165.0V152.5H132.5V155.0H122.5V162.5H130.0V160.0H127.5V157.5H132.5V165.0ZM135.0 165.0V152.5H137.5V157.5H145.0V152.5H147.5V165.0H145.0V160.0H137.5V165.0ZM150.0 165.0V152.5H152.5V165.0ZM155.0 165.0V157.5H157.5V162.5H165.0V152.5H167.5V165.0ZM180.0 165.0V160.0H182.5V165.0ZM170.0 165.0V152.5H172.5V157.5H177.5V155.0H180.0V152.5H182.5V157.5H180.0V160.0H172.5V165.0ZM185.0 165.0V152.5H187.5V162.5H197.5V165.0ZM200.0 165.0V152.5H212.5V165.0H210.0V155.0H207.5V165.0H205.0V155.0H202.5V165.0ZM215.0 165.0V152.5H227.5V165.0H225.0V155.0H217.5V165.0ZM232.5 162.5H240.0V155.0H232.5ZM230.0 165.0V152.5H242.5V165.0ZM247.5 157.5H255.0V155.0H247.5ZM245.0 165.0V152.5H257.5V160.0H247.5V165.0ZM260.0 165.0V152.5H272.5V165.0H267.5V167.5H265.0V165.0ZM262.5 162.5H265.0V160.0H267.5V162.5H270.0V155.0H262.5ZM275.0 165.0V152.5H287.5V160.0H285.0V162.5H287.5V165.0H282.5V160.0H277.5V165.0ZM277.5 157.5H285.0V155.0H277.5ZM290.0 165.0V162.5H300.0V160.0H290.0V152.5H302.5V155.0H292.5V157.5H302.5V165.0ZM305.0 155.0V152.5H317.5V155.0H312.5V165.0H310.0V155.0ZM320.0 165.0V152.5H322.5V162.5H330.0V152.5H332.5V165.0ZM345.0 162.5V152.5H347.5V162.5ZM335.0 162.5V152.5H337.5V162.5ZM337.5 165.0V162.5H345.0V165.0ZM350.0 165.0V152.5H352.5V162.5H355.0V152.5H357.5V162.5H360.0V152.5H362.5V165.0ZM375.0 165.0V162.5H377.5V165.0ZM372.5 162.5V160.0H375.0V162.5ZM375.0 155.0V152.5H377.5V155.0ZM372.5 157.5V155.0H375.0V157.5ZM365.0 155.0V152.5H367.5V155.0ZM367.5 157.5V155.0H370.0V157.5ZM370.0 160.0V157.5H372.5V160.0ZM367.5 162.5V160.0H370.0V162.5ZM365.0 165.0V162.5H367.5V165.0ZM380.0 160.0V152.5H382.5V157.5H390.0V152.5H392.5V160.0H387.5V165.0H385.0V160.0ZM395.0 165.0V157.5H405.0V155.0H395.0V152.5H407.5V160.0H397.5V162.5H407.5V165.0Z" fill="#6b7280"/><path d="M32.5 186.5H40.0V184.0H32.5ZM30.0 194.0V181.5H42.5V194.0H40.0V189.0H32.5V194.0ZM47.5 191.5H55.0V189.0H47.5ZM45.0 194.0V181.5H55.0V186.5H57.5V194.0ZM47.5 186.5H52.5V184.0H47.5ZM60.0 194.0V181.5H72.5V186.5H70.0V184.0H62.5V191.5H70.0V189.0H72.5V194.0ZM85.0 191.5V184.0H87.5V191.5ZM75.0 194.0V181.5H85.0V184.0H77.5V191.5H85.0V194.0ZM90.0 194.0V181.5H102.5V184.0H92.5V186.5H100.0V189.0H92.5V191.5H102.5V194.0ZM105.0 194.0V181.5H117.5V184.0H107.5V186.5H115.0V189.0H107.5V194.0ZM120.0 194.0V181.5H132.5V184.0H122.5V191.5H130.0V189.0H127.5V186.5H132.5V194.0ZM135.0 194.0V181.5H137.5V186.5H145.0V181.5H147.5V194.0H145.0V189.0H137.5V194.0ZM150.0 194.0V181.5H152.5V194.0ZM155.0 194.0V186.5H157.5V191.5H165.0V181.5H167.5V194.0ZM180.0 194.0V189.0H182.5V194.0ZM170.0 194.0V181.5H172.5V186.5H177.5V184.0H180.0V181.5H182.5V186.5H180.0V189.0H172.5V194.0ZM185.0 194.0V181.5H187.5V191.5H197.5V194.0ZM200.0 194.0V181.5H212.5V194.0H210.0V184.0H207.5V194.0H205.0V184.0H202.5V194.0ZM215.0 194.0V181.5H227.5V194.0H225.0V184.0H217.5V194.0ZM232.5 191.5H240.0V184.0H232.5ZM230.0 194.0V181.5H242.5V194.0ZM247.5 186.5H255.0V184.0H247.5ZM245.0 194.0V181.5H257.5V189.0H247.5V194.0ZM260.0 194.0V181.5H272.5V194.0H267.5V196.5H265.0V194.0ZM262.5 191.5H265.0V189.0H267.5V191.5H270.0V184.0H262.5ZM275.0 194.0V181.5H287.5V189.0H285.0V191.5H287.5V194.0H282.5V189.0H277.5V194.0ZM277.5 186.5H285.0V184.0H277.5ZM290.0 194.0V191.5H300.0V189.0H290.0V181.5H302.5V184.0H292.5V186.5H302.5V194.0ZM305.0 184.0V181.5H317.5V184.0H312.5V194.0H310.0V184.0ZM320.0 194.0V181.5H322.5V191.5H330.0V181.5H332.5V194.0ZM345.0 191.5V181.5H347.5V191.5ZM335.0 191.5V181.5H337.5V191.5ZM337.5 194.0V191.5H345.0V194.0ZM350.0 194.0V181.5H352.5V191.5H355.0V181.5H357.5V191.5H360.0V181.5H362.5V194.0ZM375.0 194.0V191.5H377.5V194.0ZM372.5 191.5V189.0H375.0V191.5ZM375.0 184.0V181.5H377.5V184.0ZM372.5 186.5V184.0H375.0V186.5ZM365.0 184.0V181.5H367.5V184.0ZM367.5 186.5V184.0H370.0V186.5ZM370.0 189.0V186.5H372.5V189.0ZM367.5 191.5V189.0H370.0V191.5ZM365.0 194.0V191.5H367.5V194.0ZM380.0 189.0V181.5H382.5V186.5H390.0V181.5H392.5V189.0H387.5V194.0H385.0V189.0ZM395.0 194.0V186.5H405.0V184.0H395.0V181.5H407.5V189.0H397.5V191.5H407.5V194.0ZM427.5 191.5H435.0V184.0H427.5ZM425.0 194.0V181.5H437.5V194.0ZM445.0 194.0V181.5H447.5V194.0ZM455.0 194.0V186.5H465.0V184.0H455.0V181.5H467.5V189.0H457.5V191.5H467.5V194.0ZM470.0 194.0V191.5H480.0V189.0H470.0V186.5H480.0V184.0H470.0V181.5H482.5V194.0ZM485.0 191.5V181.5H487.5V189.0H490.0V181.5H492.5V189.0H497.5V191.5H492.5V194.0H490.0V191.5ZM500.0 194.0V191.5H510.0V189.0H500.0V181.5H512.5V184.0H502.5V186.5H512.5V194.0ZM517.5 191.5H525.0V189.0H517.5ZM515.0 194.0V181.5H517.5V186.5H527.5V194.0ZM530.0 184.0V181.5H542.5V194.0H540.0V184.0ZM547.5 186.5H555.0V184.0H547.5ZM547.5 191.5H555.0V189.0H547.5ZM545.0 194.0V181.5H557.5V194.0ZM562.5 186.5H570.0V184.0H562.5ZM560.0 189.0V181.5H572.5V194.0H570.0V189.0ZM590.0 194.0V191.5H592.5V194.0Z" fill="#6b7280"/></svg>