<svg xmlns="http://www.w3.org/2000/svg" viewBox="0 0 607.7 222.0" width="608" height="222"><path d="M38.625 76.0 35.75 73.125 32.875 70.25 30.0 67.375V53.0H58.75V58.75H35.75V64.5L38.625 67.375L41.5 70.25H53.0V64.5H58.75V76.0ZM84.625 70.25V58.75H67.375V64.5L70.25 67.375L73.125 70.25ZM70.25 76.0 67.375 73.125 64.5 70.25 61.625 67.375V53.0H90.375V76.0ZM104.75 76.0V58.75H93.25V53.0H122.0V58.75H110.5V76.0ZM133.5 76.0 130.625 73.125 127.75 70.25 124.875 67.375V53.0H153.625V58.75H130.625V61.625H153.625V67.375H133.5L136.375 70.25H153.625V76.0ZM156.5 76.0V53.0H162.25V61.625H168.0L170.875 58.75L173.75 55.875L176.625 53.0H182.375V58.75H179.5L176.625 61.625L173.75 64.5L176.625 67.375L179.5 70.25H182.375V76.0H176.625L173.75 73.125L170.875 70.25L168.0 67.375H162.25V76.0ZM185.25 76.0V53.0H191.0V76.0Z" fill="#12151a"/><path d="M34.3125 127.0 32.875 125.5625 31.4375 124.125 30.0 122.6875V115.5H44.375V118.375H32.875V121.25L34.3125 122.6875L35.75 124.125H41.5V121.25H44.375V127.0ZM57.3125 124.125V118.375H48.6875V121.25L50.125 122.6875L51.5625 124.125ZM50.125 127.0 48.6875 125.5625 47.25 124.125 45.8125 122.6875V115.5H60.1875V127.0ZM67.375 127.0V118.375H61.625V115.5H76.0V118.375H70.25V127.0ZM81.75 127.0 80.3125 125.5625 78.875 124.125 77.4375 122.6875V115.5H91.8125V118.375H80.3125V119.8125H91.8125V122.6875H81.75L83.1875 124.125H91.8125V127.0ZM93.25 127.0V115.5H96.125V119.8125H99.0L100.4375 118.375L101.875 116.9375L103.3125 115.5H106.1875V118.375H104.75L103.3125 119.8125L101.875 121.25L103.3125 122.6875L104.75 124.125H106.1875V127.0H103.3125L101.875 125.5625L100.4375 124.125L99.0 122.6875H96.125V127.0ZM107.625 127.0V115.5H110.5V127.0ZM130.625 127.0 129.1875 125.5625 127.75 124.125 126.3125 122.6875V115.5H140.6875V118.375H129.1875V121.25L130.625 122.6875L132.0625 124.125H137.8125V121.25H140.6875V127.0ZM146.4375 127.0 145.0 125.5625 143.5625 124.125 142.125 122.6875V115.5H145.0V121.25L146.4375 122.6875L147.875 124.125H153.625V115.5H156.5V127.0ZM157.9375 127.0V115.5H172.3125V127.0H169.4375V118.375H160.8125V127.0ZM173.75 127.0V124.125H185.25V122.6875H173.75V115.5H188.125V118.375H176.625V119.8125H188.125V127.0ZM196.75 127.0V115.5H199.625V127.0ZM206.8125 127.0V118.375H201.0625V115.5H215.4375V118.375H209.6875V127.0ZM229.8125 127.0V118.375H224.0625V115.5H238.4375V118.375H232.6875V127.0ZM239.875 127.0V115.5H242.75V119.8125H251.375V115.5H254.25V127.0H251.375V122.6875H242.75V127.0ZM267.1875 119.8125V118.375H258.5625V119.8125ZM255.6875 127.0V115.5H270.0625V122.6875H267.90625L268.625 124.125L269.34375 125.5625L270.0625 127.0H266.46875L265.75 125.5625L265.03125 124.125L264.3125 122.6875H258.5625V127.0ZM283.0 124.125V118.375H274.375V121.25L275.8125 122.6875L277.25 124.125ZM275.8125 127.0 274.375 125.5625 272.9375 124.125 271.5 122.6875V115.5H285.875V127.0ZM291.625 127.0 290.1875 125.5625 288.75 124.125 287.3125 122.6875V115.5H290.1875V121.25L291.625 122.6875L293.0625 124.125H298.8125V115.5H301.6875V127.0ZM307.4375 127.0 306.0 125.5625 304.5625 124.125 303.125 122.6875V115.5H317.5V118.375H306.0V121.25L307.4375 122.6875L308.875 124.125H314.625V121.25H317.5V127.0ZM318.9375 127.0V115.5H321.8125V119.8125H330.4375V115.5H333.3125V127.0H330.4375V122.6875H321.8125V127.0ZM346.25 127.0 344.8125 125.5625 343.375 124.125 341.9375 122.6875V115.5H356.3125V118.375H344.8125V121.25L346.25 122.6875L347.6875 124.125H356.3125V127.0ZM357.75 127.0V115.5H360.625V119.8125H369.25V115.5H372.125V127.0H369.25V122.6875H360.625V127.0ZM377.875 127.0 376.4375 125.5625 375.0 124.125 373.5625 122.6875V115.5H387.9375V118.375H376.4375V119.8125H387.9375V122.6875H377.875L379.3125 124.125H387.9375V127.0ZM389.375 127.0V115.5H403.75V127.0H400.875V118.375H392.25V127.0ZM409.5 127.0 408.0625 125.5625 406.625 124.125 405.1875 122.6875V115.5H419.5625V118.375H408.0625V121.25L409.5 122.6875L410.9375 124.125H416.6875V121.25H419.5625V127.0ZM421.0 127.0V115.5H423.875V119.8125H432.5V115.5H435.375V127.0H432.5V122.6875H423.875V127.0ZM448.3125 124.125V118.375H439.6875V121.25L441.125 122.6875L442.5625 124.125ZM441.125 127.0 439.6875 125.5625 438.25 124.125 436.8125 122.6875V115.5H451.1875V127.0ZM456.9375 127.0 455.5 125.5625 454.0625 124.125 452.625 122.6875V115.5H455.5V121.25L456.9375 122.6875L458.375 124.125H464.125V115.5H467.0V127.0ZM487.125 119.8125V118.375H478.5V119.8125ZM475.625 127.0V115.5H490.0V122.6875H478.5V127.0ZM502.9375 119.8125V118.375H494.3125V119.8125ZM491.4375 127.0V115.5H505.8125V122.6875H503.65625L504.375 124.125L505.09375 125.5625L505.8125 127.0H502.21875L501.5 125.5625L500.78125 124.125L500.0625 122.6875H494.3125V127.0ZM518.75 124.125V118.375H510.125V121.25L511.5625 122.6875L513.0 124.125ZM511.5625 127.0 510.125 125.5625 508.6875 124.125 507.25 122.6875V115.5H521.625V127.0ZM523.0625 127.0V124.125H525.9375V115.5H528.8125V127.0ZM534.5625 127.0 533.125 125.5625 531.6875 124.125 530.25 122.6875V115.5H544.625V118.375H533.125V119.8125H544.625V122.6875H534.5625L536.0 124.125H544.625V127.0ZM550.375 127.0 548.9375 125.5625 547.5 124.125 546.0625 122.6875V115.5H560.4375V118.375H548.9375V121.25L550.375 122.6875L551.8125 124.125H560.4375V127.0ZM567.625 127.0V118.375H561.875V115.5H576.25V118.375H570.5V127.0Z" fill="#3a3f47"/><path d="M38.0 160.0V159.0H32.0V160.0ZM30.0 165.0V157.0H40.0V165.0H38.0V162.0H32.0V165.0ZM48.0 163.0 49.0 162.0H43.0V163.0ZM49.0 160.0 48.0 159.0H43.0V160.0ZM41.0 165.0V157.0H49.0L50.0 158.0L51.0 159.0V163.0L50.0 164.0L49.0 165.0ZM55.0 165.0 54.0 164.0 53.0 163.0 52.0 162.0V157.0H62.0V159.0H54.0V161.0L55.0 162.0L56.0 163.0H62.0V165.0ZM70.0 163.0 71.0 162.0V160.0L70.0 159.0H65.0V163.0ZM63.0 165.0V157.0H71.0L72.0 158.0L73.0 159.0V163.0L72.0 164.0L71.0 165.0ZM77.0 165.0 76.0 164.0 75.0 163.0 74.0 162.0V157.0H84.0V159.0H76.0V160.0H84.0V162.0H77.0L78.0 163.0H84.0V165.0ZM85.0 165.0V157.0H95.0V159.0H87.0V160.0H95.0V162.0H87.0V165.0ZM99.0 165.0 98.0 164.0 97.0 163.0 96.0 162.0V157.0H106.0V159.0H98.0V161.0L99.0 162.0L100.0 163.0H104.0V161.0H106.0V165.0ZM107.0 165.0V157.0H109.0V160.0H115.0V157.0H117.0V165.0H115.0V162.0H109.0V165.0ZM118.0 165.0V157.0H120.0V165.0ZM121.0 165.0V163.0H123.0V157.0H125.0V165.0ZM126.0 165.0V157.0H128.0V160.0H130.0L131.0 159.0L132.0 158.0L133.0 157.0H135.0V159.0H134.0L133.0 160.0L132.0 161.0L133.0 162.0L134.0 163.0H135.0V165.0H133.0L132.0 164.0L131.0 163.0L130.0 162.0H128.0V165.0ZM139.0 165.0 138.0 164.0 137.0 163.0 136.0 162.0V157.0H138.0V161.0L139.0 162.0L140.0 163.0H146.0V165.0ZM147.0 165.0V157.0H157.0V165.0H155.0V159.0H153.0V165.0H151.0V159.0H149.0V165.0ZM158.0 165.0V157.0H168.0V165.0H166.0V159.0H160.0V165.0ZM177.0 163.0V159.0H171.0V161.0L172.0 162.0L173.0 163.0ZM172.0 165.0 171.0 164.0 170.0 163.0 169.0 162.0V157.0H179.0V165.0ZM188.0 160.0V159.0H182.0V160.0ZM180.0 165.0V157.0H190.0V162.0H182.0V165.0ZM199.0 163.0V159.0H193.0V161.0L194.0 162.0L195.0 163.0ZM198.0 167.0 197.0 166.0 196.0 165.0H194.0L193.0 164.0L192.0 163.0L191.0 162.0V157.0H201.0V165.0H199.0L200.0 166.0L201.0 167.0ZM210.0 160.0V159.0H204.0V160.0ZM202.0 165.0V157.0H212.0V162.0H210.5L211.0 163.0L211.5 164.0L212.0 165.0H209.5L209.0 164.0L208.5 163.0L208.0 162.0H204.0V165.0ZM213.0 165.0V163.0H221.0V162.0H213.0V157.0H223.0V159.0H215.0V160.0H223.0V165.0ZM228.0 165.0V159.0H224.0V157.0H234.0V159.0H230.0V165.0ZM238.0 165.0 237.0 164.0 236.0 163.0 235.0 162.0V157.0H237.0V161.0L238.0 162.0L239.0 163.0H243.0V157.0H245.0V165.0ZM249.0 165.0 248.0 164.0 247.0 163.0 246.0 162.0V157.0H248.0V161.0L249.0 162.0L250.0 163.0H252.0L253.0 162.0L254.0 161.0V157.0H256.0V162.0L255.0 163.0L254.0 164.0L253.0 165.0ZM260.0 165.0 259.0 164.0 258.0 163.0 257.0 162.0V157.0H259.0V161.0L260.0 162.0L261.0 163.0V159.0H263.0V163.0H265.0V157.0H267.0V165.0ZM268.0 165.0V163.0H269.0L270.0 162.0L271.0 161.0L270.0 160.0L269.0 159.0H268.0V157.0H270.0L271.0 158.0L272.0 159.0L273.0 160.0L274.0 159.0L275.0 158.0L276.0 157.0H278.0V159.0H277.0L276.0 160.0L275.0 161.0L276.0 162.0L277.0 163.0H278.0V165.0H276.0L275.0 164.0L274.0 163.0L273.0 162.0L272.0 163.0L271.0 164.0L270.0 165.0ZM283.0 165.0V162.0L282.0 161.0L281.0 160.0L280.0 159.0H279.0V157.0H281.0L282.0 158.0L283.0 159.0L284.0 160.0L285.0 159.0L286.0 158.0L287.0 157.0H289.0V159.0H288.0L287.0 160.0L286.0 161.0L285.0 162.0V165.0ZM293.0 165.0 292.0 164.0 291.0 163.0 290.0 162.0V160.0H298.0V159.0H290.0V157.0H300.0V162.0H293.0L294.0 163.0H300.0V165.0Z" fill="#6b7280"/><path d="M38.0 189.0V188.0H32.0V189.0ZM30.0 194.0V186.0H40.0V194.0H38.0V191.0H32.0V194.0ZM48.0 192.0 49.0 191.0H43.0V192.0ZM49.0 189.0 48.0 188.0H43.0V189.0ZM41.0 194.0V186.0H49.0L50.0 187.0L51.0 188.0V192.0L50.0 193.0L49.0 194.0ZM55.0 194.0 54.0 193.0 53.0 192.0 52.0 191.0V186.0H62.0V188.0H54.0V190.0L55.0 191.0L56.0 192.0H62.0V194.0ZM70.0 192.0 71.0 191.0V189.0L70.0 188.0H65.0V192.0ZM63.0 194.0V186.0H71.0L72.0 187.0L73.0 188.0V192.0L72.0 193.0L71.0 194.0ZM77.0 194.0 76.0 193.0 75.0 192.0 74.0 191.0V186.0H84.0V188.0H76.0V189.0H84.0V191.0H77.0L78.0 192.0H84.0V194.0ZM85.0 194.0V186.0H95.0V188.0H87.0V189.0H95.0V191.0H87.0V194.0ZM99.0 194.0 98.0 193.0 97.0 192.0 96.0 191.0V186.0H106.0V188.0H98.0V190.0L99.0 191.0L100.0 192.0H104.0V190.0H106.0V194.0ZM107.0 194.0V186.0H109.0V189.0H115.0V186.0H117.0V194.0H115.0V191.0H109.0V194.0ZM118.0 194.0V186.0H120.0V194.0ZM121.0 194.0V192.0H123.0V186.0H125.0V194.0ZM126.0 194.0V186.0H128.0V189.0H130.0L131.0 188.0L132.0 187.0L133.0 186.0H135.0V188.0H134.0L133.0 189.0L132.0 190.0L133.0 191.0L134.0 192.0H135.0V194.0H133.0L132.0 193.0L131.0 192.0L130.0 191.0H128.0V194.0ZM139.0 194.0 138.0 193.0 137.0 192.0 136.0 191.0V186.0H138.0V190.0L139.0 191.0L140.0 192.0H146.0V194.0ZM147.0 194.0V186.0H157.0V194.0H155.0V188.0H153.0V194.0H151.0V188.0H149.0V194.0ZM158.0 194.0V186.0H168.0V194.0H166.0V188.0H160.0V194.0ZM177.0 192.0V188.0H171.0V190.0L172.0 191.0L173.0 192.0ZM172.0 194.0 171.0 193.0 170.0 192.0 169.0 191.0V186.0H179.0V194.0ZM188.0 189.0V188.0H182.0V189.0ZM180.0 194.0V186.0H190.0V191.0H182.0V194.0ZM199.0 192.0V188.0H193.0V190.0L194.0 191.0L195.0 192.0ZM198.0 196.0 197.0 195.0 196.0 194.0H194.0L193.0 193.0L192.0 192.0L191.0 191.0V186.0H201.0V194.0H199.0L200.0 195.0L201.0 196.0ZM210.0 189.0V188.0H204.0V189.0ZM202.0 194.0V186.0H212.0V191.0H210.5L211.0 192.0L211.5 193.0L212.0 194.0H209.5L209.0 193.0L208.5 192.0L208.0 191.0H204.0V194.0ZM213.0 194.0V192.0H221.0V191.0H213.0V186.0H223.0V188.0H215.0V189.0H223.0V194.0ZM228.0 194.0V188.0H224.0V186.0H234.0V188.0H230.0V194.0ZM238.0 194.0 237.0 193.0 236.0 192.0 235.0 191.0V186.0H237.0V190.0L238.0 191.0L239.0 192.0H243.0V186.0H245.0V194.0ZM249.0 194.0 248.0 193.0 247.0 192.0 246.0 191.0V186.0H248.0V190.0L249.0 191.0L250.0 192.0H252.0L253.0 191.0L254.0 190.0V186.0H256.0V191.0L255.0 192.0L254.0 193.0L253.0 194.0ZM260.0 194.0 259.0 193.0 258.0 192.0 257.0 191.0V186.0H259.0V190.0L260.0 191.0L261.0 192.0V188.0H263.0V192.0H265.0V186.0H267.0V194.0ZM268.0 194.0V192.0H269.0L270.0 191.0L271.0 190.0L270.0 189.0L269.0 188.0H268.0V186.0H270.0L271.0 187.0L272.0 188.0L273.0 189.0L274.0 188.0L275.0 187.0L276.0 186.0H278.0V188.0H277.0L276.0 189.0L275.0 190.0L276.0 191.0L277.0 192.0H278.0V194.0H276.0L275.0 193.0L274.0 192.0L273.0 191.0L272.0 192.0L271.0 193.0L270.0 194.0ZM283.0 194.0V191.0L282.0 190.0L281.0 189.0L280.0 188.0H279.0V186.0H281.0L282.0 187.0L283.0 188.0L284.0 189.0L285.0 188.0L286.0 187.0L287.0 186.0H289.0V188.0H288.0L287.0 189.0L286.0 190.0L285.0 191.0V194.0ZM293.0 194.0 292.0 193.0 291.0 192.0 290.0 191.0V189.0H298.0V188.0H290.0V186.0H300.0V191.0H293.0L294.0 192.0H300.0V194.0Z" fill="#6b7280"/></svg>