<svg xmlns="http://www.w3.org/2000/svg" viewBox="0 0 720.4 222.0" width="720" height="222"><path d="M40.35 42.972V56.358000000000004H53.092V42.972H60.038V76.0H53.092V62.2H40.35V76.0H33.403999999999996V42.972H40.35ZM66.708 51.757999999999996H79.818Q81.934 51.804 83.889 52.241Q85.844 52.678 87.408 54.242000000000004Q88.742 55.53 89.271 57.278Q89.8 59.025999999999996 89.8 60.866V76.0H72.596Q68.87 76.0 66.892 73.953Q64.914 71.906 65.098 68.272Q65.42 63.902 68.18 62.614000000000004Q70.94 61.326 74.758 61.326L83.176 61.28Q83.314 58.29 81.63499999999999 57.554Q79.956 56.818 77.38 56.818L66.708 56.772000000000006V51.757999999999996ZM75.218 71.124H83.22200000000001V66.11H75.678Q75.586 66.156 75.494 66.156Q75.402 66.156 75.31 66.156Q74.022 66.202 72.918 66.639Q71.814 67.076 71.768 68.686Q71.676 70.48 72.757 70.80199999999999Q73.838 71.124 75.218 71.17ZM95.412 51.757999999999996H107.464Q112.248 51.804 114.916 53.644000000000005Q117.584 55.484 117.584 60.682V76.0H111.19V61.418Q111.19 58.888000000000005 110.362 58.014Q109.534 57.14 106.958 57.14L101.806 57.094V76.0H95.412V51.757999999999996ZM145.45999999999998 76.0H133.178Q127.75 76.0 124.691 72.941Q121.63199999999999 69.882 121.356 64.54599999999999Q121.264 62.108000000000004 121.862 59.785000000000004Q122.46 57.462 123.978 55.53Q125.86399999999999 53.184 128.325 52.494Q130.786 51.804 133.59199999999998 51.804L139.066 51.757999999999996V42.972H145.45999999999998V76.0ZM139.066 70.802V57.001999999999995Q138.69799999999998 57.048 138.32999999999998 57.048Q137.962 57.048 137.64 57.048Q137.18 57.048 136.72 57.048Q136.26 57.048 135.79999999999998 57.048Q134.97199999999998 57.048 134.16699999999997 57.071Q133.362 57.094 132.534 57.186Q131.798 57.232 131.131 57.6Q130.464 57.968 129.912 58.474000000000004Q128.946 59.44 128.555 60.705Q128.164 61.97 128.072 63.258Q128.072 63.626 128.072 63.94799999999999Q128.072 64.27 128.072 64.592Q128.21 69.468 130.85500000000002 70.20400000000001Q133.5 70.94 137.18 70.894Q137.64 70.848 138.123 70.848Q138.606 70.848 139.066 70.848ZM161.83599999999998 76.0Q159.26 76.0 156.84499999999997 75.37899999999999Q154.42999999999998 74.758 152.59 72.78Q151.118 71.17 150.451 69.1Q149.784 67.03 149.646 64.868Q149.646 64.638 149.646 64.408Q149.646 64.178 149.646 63.948Q149.646 63.626 149.646 63.327Q149.646 63.028 149.69199999999998 62.706Q149.82999999999998 60.636 150.49699999999999 58.635000000000005Q151.164 56.634 152.59 55.07Q154.42999999999998 53.046 156.84499999999997 52.425Q159.26 51.804 161.83599999999998 51.804L171.17399999999998 51.757999999999996V56.818H162.70999999999998Q160.042 56.864000000000004 158.43200000000002 57.623000000000005Q156.822 58.382000000000005 156.73 61.418L171.17399999999998 61.372V66.432H156.73Q156.822 69.606 158.34 70.29599999999999Q159.858 70.986 162.664 70.986L171.17399999999998 70.94V76.0H161.83599999999998ZM181.84599999999998 76.0H175.176V42.972H181.84599999999998V76.0ZM217.77199999999996 62.246V56.403999999999996H234.19399999999996V76.0H219.24399999999997Q216.39199999999997 76.0 213.72399999999996 75.517Q211.05599999999995 75.034 208.75599999999997 73.148Q205.99599999999995 70.894 204.89199999999994 67.65100000000001Q203.78799999999995 64.408 203.69599999999997 61.004Q203.64999999999998 60.268 203.67299999999997 59.578Q203.69599999999997 58.888000000000005 203.74199999999996 58.198Q204.24799999999996 50.378 207.99699999999996 46.698Q211.74599999999998 43.018 219.24399999999997 43.018L234.19399999999996 42.972V48.676H219.24399999999997Q214.32199999999997 48.722 212.873 52.149Q211.42399999999998 55.576 211.42399999999998 59.67Q211.42399999999998 59.716 211.42399999999998 59.739000000000004Q211.42399999999998 59.762 211.42399999999998 59.808Q211.42399999999998 63.994 212.873 67.03Q214.32199999999997 70.066 219.24399999999997 70.066L227.06399999999996 70.02V62.246H217.77199999999996ZM259.77 73.102Q258.022 74.85 255.56099999999998 75.678Q253.09999999999997 76.506 250.47799999999998 76.506Q247.85599999999997 76.506 245.41799999999995 75.678Q242.97999999999996 74.85 241.23199999999997 73.148Q239.43799999999996 71.4 238.54099999999997 68.962Q237.64399999999998 66.524 237.64399999999998 63.948Q237.64399999999998 61.372 238.54099999999997 58.934Q239.43799999999996 56.495999999999995 241.23199999999997 54.748000000000005Q242.97999999999996 53.046 245.44099999999997 52.195Q247.90199999999996 51.344 250.52399999999997 51.344Q253.09999999999997 51.344 255.56099999999998 52.195Q258.022 53.046 259.77 54.748000000000005Q261.56399999999996 56.495999999999995 262.46099999999996 58.934Q263.35799999999995 61.372 263.35799999999995 63.948Q263.35799999999995 66.524 262.46099999999996 68.962Q261.56399999999996 71.4 259.77 73.148ZM248.31599999999997 70.848Q248.63799999999998 70.986 248.93699999999995 71.078Q249.23599999999996 71.17 249.51199999999997 71.216Q251.71999999999997 71.538 253.652 70.388Q255.58399999999997 69.238 256.22799999999995 67.03Q256.45799999999997 66.248 256.573 65.351Q256.688 64.45400000000001 256.688 63.534Q256.59599999999995 61.51 255.72199999999995 59.693Q254.84799999999996 57.876000000000005 252.91599999999997 57.048Q252.50199999999998 56.864000000000004 252.04199999999997 56.772000000000006Q251.58199999999997 56.68 251.16799999999998 56.634Q249.05199999999996 56.45 247.21199999999996 57.6Q245.37199999999996 58.75 244.72799999999998 60.82Q244.49799999999996 61.602000000000004 244.38299999999998 62.453Q244.26799999999997 63.304 244.31399999999996 64.132Q244.35999999999996 66.294 245.30299999999997 68.203Q246.24599999999998 70.112 248.31599999999997 70.894ZM264.876 51.757999999999996H269.38399999999996V42.972H275.77799999999996V51.757999999999996H282.53999999999996V56.588H275.77799999999996V66.386Q275.73199999999997 70.02 277.43399999999997 70.618Q279.13599999999997 71.216 282.126 71.216Q282.21799999999996 71.216 282.33299999999997 71.216Q282.448 71.216 282.53999999999996 71.216V76.0H276.698Q273.06399999999996 76.0 271.22399999999993 73.976Q269.38399999999996 71.952 269.38399999999996 68.456V56.588H264.876V51.757999999999996ZM286.31199999999995 42.972H292.65999999999997V51.757999999999996H298.364Q303.056 51.85 305.74699999999996 53.69Q308.438 55.53 308.484 60.682V76.0H302.044V61.372Q302.044 59.072 301.12399999999997 58.106Q300.20399999999995 57.14 297.76599999999996 57.14L292.65999999999997 57.094V76.0H286.31199999999995V42.972ZM320.71999999999997 76.0H314.00399999999996V51.757999999999996H320.71999999999997V76.0ZM320.71999999999997 48.998000000000005H314.00399999999996V42.972H320.71999999999997V48.998000000000005ZM339.44199999999995 70.802H346.24999999999994V76.0H337.556Q335.07199999999995 76.0 332.703 75.471Q330.33399999999995 74.942 328.448 73.148Q326.88399999999996 71.63 326.01 69.583Q325.13599999999997 67.536 324.90599999999995 65.374Q324.90599999999995 65.05199999999999 324.8829999999999 64.707Q324.85999999999996 64.362 324.85999999999996 64.04Q324.85999999999996 63.626 324.8829999999999 63.212Q324.90599999999995 62.798 324.95199999999994 62.384Q325.13599999999997 60.268 326.01 58.244Q326.88399999999996 56.22 328.448 54.702Q330.33399999999995 52.908 332.703 52.356Q335.07199999999995 51.804 337.556 51.804L346.24999999999994 51.757999999999996V57.001999999999995H339.44199999999995Q339.304 57.048 339.143 57.048Q338.98199999999997 57.048 338.84399999999994 57.048Q338.568 57.048 338.31499999999994 57.048Q338.06199999999995 57.048 337.83199999999994 57.048Q336.912 57.048 336.038 57.186Q335.164 57.324 334.38199999999995 57.784Q332.67999999999995 58.796 332.10499999999996 60.498000000000005Q331.53 62.2 331.53 64.04Q331.57599999999996 65.834 332.174 67.467Q332.77199999999993 69.1 334.38199999999995 70.066Q335.164 70.526 336.038 70.664Q336.912 70.802 337.83199999999994 70.848Q338.10799999999995 70.848 338.4069999999999 70.848Q338.70599999999996 70.848 338.98199999999997 70.848Q339.11999999999995 70.848 339.23499999999996 70.848Q339.34999999999997 70.848 339.44199999999995 70.848Z" fill="#12151a"/><path d="M35.175 110.486V117.179H41.546V110.486H45.019V127.0H41.546V120.1H35.175V127.0H31.701999999999998V110.486H35.175ZM48.354000000000006 114.879H54.909000000000006Q55.967000000000006 114.902 56.944500000000005 115.12049999999999Q57.922000000000004 115.339 58.70400000000001 116.121Q59.371 116.765 59.63550000000001 117.63900000000001Q59.900000000000006 118.513 59.900000000000006 119.43299999999999V127.0H51.298Q49.435 127.0 48.446 125.9765Q47.457 124.953 47.54900000000001 123.136Q47.71 120.951 49.09 120.30699999999999Q50.470000000000006 119.663 52.379000000000005 119.663L56.588 119.64Q56.657000000000004 118.145 55.8175 117.777Q54.978 117.409 53.690000000000005 117.409L48.354000000000006 117.386V114.879ZM52.609 124.562H56.611000000000004V122.055H52.839000000000006Q52.793000000000006 122.078 52.747 122.078Q52.701 122.078 52.655 122.078Q52.011 122.101 51.459 122.3195Q50.907000000000004 122.538 50.884 123.343Q50.838 124.24 51.3785 124.401Q51.919000000000004 124.562 52.609 124.585ZM62.70600000000001 114.879H68.73200000000001Q71.12400000000001 114.902 72.458 115.822Q73.792 116.742 73.792 119.341V127.0H70.59500000000001V119.709Q70.59500000000001 118.444 70.18100000000001 118.007Q69.76700000000001 117.57 68.47900000000001 117.57L65.903 117.547V127.0H62.70600000000001V114.879ZM87.73 127.0H81.589Q78.875 127.0 77.3455 125.4705Q75.816 123.941 75.67800000000001 121.273Q75.632 120.054 75.93100000000001 118.8925Q76.23 117.731 76.989 116.765Q77.932 115.592 79.1625 115.247Q80.393 114.902 81.796 114.902L84.533 114.879V110.486H87.73V127.0ZM84.533 124.401V117.501Q84.349 117.524 84.165 117.524Q83.98100000000001 117.524 83.82000000000001 117.524Q83.59 117.524 83.36000000000001 117.524Q83.13000000000001 117.524 82.9 117.524Q82.486 117.524 82.08350000000002 117.5355Q81.68100000000001 117.547 81.26700000000001 117.593Q80.899 117.616 80.5655 117.8Q80.232 117.984 79.956 118.237Q79.473 118.72 79.2775 119.35249999999999Q79.08200000000001 119.985 79.036 120.629Q79.036 120.813 79.036 120.974Q79.036 121.135 79.036 121.296Q79.105 123.734 80.42750000000001 124.102Q81.75 124.47 83.59 124.447Q83.82000000000001 124.424 84.0615 124.424Q84.303 124.424 84.533 124.424ZM95.918 127.0Q94.63000000000001 127.0 93.42250000000001 126.68950000000001Q92.215 126.379 91.29500000000002 125.39Q90.55900000000001 124.585 90.22550000000001 123.55Q89.89200000000001 122.515 89.82300000000001 121.434Q89.82300000000001 121.319 89.82300000000001 121.20400000000001Q89.82300000000001 121.089 89.82300000000001 120.974Q89.82300000000001 120.813 89.82300000000001 120.6635Q89.82300000000001 120.514 89.846 120.353Q89.915 119.318 90.2485 118.3175Q90.58200000000001 117.31700000000001 91.29500000000002 116.535Q92.215 115.523 93.42250000000001 115.2125Q94.63000000000001 114.902 95.918 114.902L100.58700000000002 114.879V117.409H96.355Q95.02100000000002 117.432 94.21600000000001 117.8115Q93.41100000000002 118.191 93.36500000000001 119.709L100.58700000000002 119.686V122.216H93.36500000000001Q93.41100000000002 123.803 94.17000000000002 124.148Q94.92900000000002 124.493 96.33200000000001 124.493L100.58700000000002 124.47V127.0H95.918ZM105.923 127.0H102.58800000000001V110.486H105.923V127.0ZM123.886 120.123V117.202H132.097V127.0H124.622Q123.196 127.0 121.862 126.7585Q120.52799999999999 126.517 119.378 125.574Q117.99799999999999 124.447 117.446 122.8255Q116.89399999999999 121.204 116.848 119.502Q116.825 119.134 116.8365 118.789Q116.848 118.444 116.871 118.099Q117.124 114.189 118.99849999999999 112.34899999999999Q120.87299999999999 110.509 124.622 110.509L132.097 110.486V113.338H124.622Q122.161 113.361 121.4365 115.0745Q120.712 116.788 120.712 118.83500000000001Q120.712 118.858 120.712 118.8695Q120.712 118.881 120.712 118.904Q120.712 120.997 121.4365 122.515Q122.161 124.033 124.622 124.033L128.53199999999998 124.01V120.123H123.886ZM144.885 125.551Q144.011 126.425 142.7805 126.839Q141.54999999999998 127.253 140.23899999999998 127.253Q138.928 127.253 137.709 126.839Q136.48999999999998 126.425 135.61599999999999 125.574Q134.719 124.7 134.27049999999997 123.481Q133.82199999999997 122.262 133.82199999999997 120.974Q133.82199999999997 119.686 134.27049999999997 118.46700000000001Q134.719 117.248 135.61599999999999 116.374Q136.48999999999998 115.523 137.7205 115.0975Q138.951 114.672 140.26199999999997 114.672Q141.54999999999998 114.672 142.7805 115.0975Q144.011 115.523 144.885 116.374Q145.78199999999998 117.248 146.23049999999998 118.46700000000001Q146.67899999999997 119.686 146.67899999999997 120.974Q146.67899999999997 122.262 146.23049999999998 123.481Q145.78199999999998 124.7 144.885 125.574ZM139.158 124.424Q139.319 124.493 139.4685 124.53899999999999Q139.618 124.585 139.75599999999997 124.608Q140.85999999999999 124.769 141.82599999999996 124.194Q142.79199999999997 123.619 143.11399999999998 122.515Q143.22899999999998 122.124 143.2865 121.6755Q143.344 121.227 143.344 120.767Q143.29799999999997 119.755 142.861 118.84649999999999Q142.42399999999998 117.938 141.458 117.524Q141.25099999999998 117.432 141.021 117.386Q140.791 117.34 140.58399999999997 117.31700000000001Q139.52599999999998 117.225 138.606 117.8Q137.68599999999998 118.375 137.36399999999998 119.41Q137.249 119.801 137.1915 120.2265Q137.134 120.652 137.15699999999998 121.066Q137.17999999999998 122.147 137.6515 123.1015Q138.123 124.056 139.158 124.447ZM147.438 114.879H149.69199999999998V110.486H152.88899999999998V114.879H156.26999999999998V117.294H152.88899999999998V122.193Q152.86599999999999 124.01 153.71699999999998 124.309Q154.56799999999998 124.608 156.063 124.608Q156.10899999999998 124.608 156.16649999999998 124.608Q156.224 124.608 156.26999999999998 124.608V127.0H153.349Q151.53199999999998 127.0 150.61199999999997 125.988Q149.69199999999998 124.976 149.69199999999998 123.228V117.294H147.438V114.879ZM158.15599999999998 110.486H161.32999999999998V114.879H164.182Q166.528 114.925 167.87349999999998 115.845Q169.219 116.765 169.242 119.341V127.0H166.022V119.686Q166.022 118.536 165.56199999999998 118.053Q165.10199999999998 117.57 163.88299999999998 117.57L161.32999999999998 117.547V127.0H158.15599999999998V110.486ZM175.35999999999999 127.0H172.00199999999998V114.879H175.35999999999999V127.0ZM175.35999999999999 113.499H172.00199999999998V110.486H175.35999999999999V113.499ZM184.72099999999998 124.401H188.12499999999997V127.0H183.778Q182.53599999999997 127.0 181.3515 126.7355Q180.16699999999997 126.471 179.224 125.574Q178.44199999999998 124.815 178.005 123.7915Q177.56799999999998 122.768 177.45299999999997 121.687Q177.45299999999997 121.526 177.44149999999996 121.3535Q177.42999999999998 121.181 177.42999999999998 121.02Q177.42999999999998 120.813 177.44149999999996 120.606Q177.45299999999997 120.399 177.47599999999997 120.19200000000001Q177.56799999999998 119.134 178.005 118.122Q178.44199999999998 117.11 179.224 116.351Q180.16699999999997 115.45400000000001 181.3515 115.178Q182.53599999999997 114.902 183.778 114.902L188.12499999999997 114.879V117.501H184.72099999999998Q184.652 117.524 184.5715 117.524Q184.49099999999999 117.524 184.42199999999997 117.524Q184.284 117.524 184.15749999999997 117.524Q184.03099999999998 117.524 183.91599999999997 117.524Q183.456 117.524 183.019 117.593Q182.582 117.662 182.19099999999997 117.892Q181.33999999999997 118.398 181.05249999999998 119.249Q180.765 120.1 180.765 121.02Q180.78799999999998 121.917 181.087 122.73349999999999Q181.38599999999997 123.55 182.19099999999997 124.033Q182.582 124.263 183.019 124.332Q183.456 124.401 183.91599999999997 124.424Q184.05399999999997 124.424 184.20349999999996 124.424Q184.35299999999998 124.424 184.49099999999999 124.424Q184.55999999999997 124.424 184.61749999999998 124.424Q184.67499999999998 124.424 184.72099999999998 124.424ZM200.246 117.294H197.946V114.879H200.246Q200.246 114.787 200.246 114.695Q200.246 114.603 200.246 114.488Q200.246 112.51 200.6485 111.521Q201.051 110.532 203.558 110.509L206.594 110.486V112.832Q206.502 112.855 206.364 112.8435Q206.226 112.832 206.065 112.832Q205.881 112.832 205.674 112.8205Q205.467 112.809 205.283 112.809Q204.869 112.809 204.501 112.8665Q204.133 112.924 203.949 113.08500000000001Q203.696 113.269 203.6155 113.56800000000001Q203.535 113.867 203.535 114.166Q203.535 114.281 203.535 114.373Q203.535 114.465 203.558 114.557Q203.558 114.649 203.558 114.741Q203.558 114.833 203.558 114.902L206.594 114.879V117.294H203.558V127.0H200.246V117.294ZM208.158 114.879H213.54Q216.13899999999998 114.902 216.553 116.075Q216.96699999999998 117.248 216.944 119.226Q216.944 119.41 216.944 119.594Q216.944 119.778 216.944 119.985L213.885 119.962Q213.885 119.847 213.885 119.709Q213.885 119.571 213.885 119.456Q213.885 117.777 213.6205 117.501Q213.356 117.225 211.7 117.225Q211.608 117.225 211.5275 117.225Q211.447 117.225 211.355 117.225V127.0H208.158V114.879ZM219.221 114.879H225.77599999999998Q226.834 114.902 227.8115 115.12049999999999Q228.789 115.339 229.571 116.121Q230.238 116.765 230.5025 117.63900000000001Q230.767 118.513 230.767 119.43299999999999V127.0H222.165Q220.302 127.0 219.313 125.9765Q218.32399999999998 124.953 218.416 123.136Q218.577 120.951 219.957 120.30699999999999Q221.337 119.663 223.24599999999998 119.663L227.45499999999998 119.64Q227.524 118.145 226.6845 117.777Q225.845 117.409 224.557 117.409L219.221 117.386V114.879ZM223.476 124.562H227.478V122.055H223.706Q223.66 122.078 223.61399999999998 122.078Q223.56799999999998 122.078 223.522 122.078Q222.878 122.101 222.326 122.3195Q221.774 122.538 221.751 123.343Q221.70499999999998 124.24 222.2455 124.401Q222.786 124.562 223.476 124.585ZM233.57299999999998 114.879H245.855Q248.201 114.925 249.53499999999997 115.845Q250.86899999999997 116.765 250.892 119.341V127.0H247.67199999999997V119.732Q247.67199999999997 118.03 246.9475 117.7655Q246.22299999999998 117.501 244.77399999999997 117.547Q244.54399999999998 117.57 244.30249999999998 117.57Q244.06099999999998 117.57 243.808 117.57V127.0H240.54199999999997V117.547H236.79299999999998V127.0H233.57299999999998V114.879ZM259.149 127.0Q257.861 127.0 256.6535 126.68950000000001Q255.44599999999997 126.379 254.52599999999998 125.39Q253.78999999999996 124.585 253.45649999999995 123.55Q253.12299999999996 122.515 253.05399999999997 121.434Q253.05399999999997 121.319 253.05399999999997 121.20400000000001Q253.05399999999997 121.089 253.05399999999997 120.974Q253.05399999999997 120.813 253.05399999999997 120.6635Q253.05399999999997 120.514 253.07699999999997 120.353Q253.146 119.318 253.47949999999997 118.3175Q253.813 117.31700000000001 254.52599999999998 116.535Q255.44599999999997 115.523 256.6535 115.2125Q257.861 114.902 259.149 114.902L263.818 114.879V117.409H259.58599999999996Q258.25199999999995 117.432 257.447 117.8115Q256.642 118.191 256.596 119.709L263.818 119.686V122.216H256.596Q256.642 123.803 257.40099999999995 124.148Q258.15999999999997 124.493 259.563 124.493L263.818 124.47V127.0H259.149ZM265.681 124.47H272.41999999999996Q272.46599999999995 124.493 272.51199999999994 124.493Q272.55799999999994 124.493 272.6039999999999 124.493Q273.179 124.47 273.662 124.24000000000001Q274.145 124.01 274.145 123.297Q274.145 122.63 273.68499999999995 122.4Q273.22499999999997 122.17 272.69599999999997 122.124Q272.62699999999995 122.124 272.558 122.124Q272.489 122.124 272.41999999999996 122.124L269.65999999999997 122.101Q267.72799999999995 122.124 266.61249999999995 121.572Q265.49699999999996 121.02 265.47399999999993 118.766Q265.45099999999996 116.65 266.62399999999997 115.77600000000001Q267.79699999999997 114.902 269.75199999999995 114.902L276.62899999999996 114.879V117.409H270.97099999999995Q270.90199999999993 117.432 270.8444999999999 117.432Q270.787 117.432 270.71799999999996 117.432Q270.55699999999996 117.432 270.40749999999997 117.432Q270.258 117.432 270.07399999999996 117.432Q269.65999999999997 117.455 269.28049999999996 117.616Q268.90099999999995 117.777 268.78599999999994 118.214Q268.602 119.019 269.10799999999995 119.31800000000001Q269.614 119.617 270.28099999999995 119.617L273.179 119.594Q274.881 119.617 276.03099999999995 120.3875Q277.181 121.158 277.24999999999994 123.044Q277.24999999999994 123.06700000000001 277.24999999999994 123.0785Q277.24999999999994 123.09 277.24999999999994 123.113Q277.27299999999997 124.585 276.41049999999996 125.79249999999999Q275.54799999999994 127.0 273.93799999999993 127.0H265.681V124.47ZM287.23199999999997 114.879H289.48599999999993V110.486H292.68299999999994V114.879H296.06399999999996V117.294H292.68299999999994V122.193Q292.65999999999997 124.01 293.51099999999997 124.309Q294.36199999999997 124.608 295.85699999999997 124.608Q295.90299999999996 124.608 295.96049999999997 124.608Q296.018 124.608 296.06399999999996 124.608V127.0H293.143Q291.32599999999996 127.0 290.40599999999995 125.988Q289.48599999999993 124.976 289.48599999999993 123.228V117.294H287.23199999999997V114.879ZM297.94999999999993 110.486H301.1239999999999V114.879H303.97599999999994Q306.32199999999995 114.925 307.6674999999999 115.845Q309.0129999999999 116.765 309.03599999999994 119.341V127.0H305.8159999999999V119.686Q305.8159999999999 118.536 305.35599999999994 118.053Q304.89599999999996 117.57 303.67699999999996 117.57L301.1239999999999 117.547V127.0H297.94999999999993V110.486ZM317.20099999999996 127.0Q315.91299999999995 127.0 314.7054999999999 126.68950000000001Q313.49799999999993 126.379 312.5779999999999 125.39Q311.8419999999999 124.585 311.5084999999999 123.55Q311.17499999999995 122.515 311.10599999999994 121.434Q311.10599999999994 121.319 311.10599999999994 121.20400000000001Q311.10599999999994 121.089 311.10599999999994 120.974Q311.10599999999994 120.813 311.10599999999994 120.6635Q311.10599999999994 120.514 311.12899999999996 120.353Q311.1979999999999 119.318 311.53149999999994 118.3175Q311.86499999999995 117.31700000000001 312.5779999999999 116.535Q313.49799999999993 115.523 314.7054999999999 115.2125Q315.91299999999995 114.902 317.20099999999996 114.902L321.86999999999995 114.879V117.409H317.6379999999999Q316.3039999999999 117.432 315.4989999999999 117.8115Q314.69399999999996 118.191 314.64799999999997 119.709L321.86999999999995 119.686V122.216H314.64799999999997Q314.69399999999996 123.803 315.453 124.148Q316.21199999999993 124.493 317.61499999999995 124.493L321.86999999999995 124.47V127.0H317.20099999999996ZM343.0759999999999 125.551Q342.20199999999994 126.425 340.97149999999993 126.839Q339.74099999999993 127.253 338.42999999999995 127.253Q337.1189999999999 127.253 335.8999999999999 126.839Q334.6809999999999 126.425 333.8069999999999 125.574Q332.9099999999999 124.7 332.4614999999999 123.481Q332.0129999999999 122.262 332.0129999999999 120.974Q332.0129999999999 119.686 332.4614999999999 118.46700000000001Q332.9099999999999 117.248 333.8069999999999 116.374Q334.6809999999999 115.523 335.91149999999993 115.0975Q337.14199999999994 114.672 338.4529999999999 114.672Q339.74099999999993 114.672 340.97149999999993 115.0975Q342.20199999999994 115.523 343.0759999999999 116.374Q343.97299999999996 117.248 344.4214999999999 118.46700000000001Q344.86999999999995 119.686 344.86999999999995 120.974Q344.86999999999995 122.262 344.4214999999999 123.481Q343.97299999999996 124.7 343.0759999999999 125.574ZM337.34899999999993 124.424Q337.50999999999993 124.493 337.6594999999999 124.53899999999999Q337.8089999999999 124.585 337.94699999999995 124.608Q339.05099999999993 124.769 340.01699999999994 124.194Q340.98299999999995 123.619 341.30499999999995 122.515Q341.41999999999996 122.124 341.47749999999996 121.6755Q341.5349999999999 121.227 341.5349999999999 120.767Q341.4889999999999 119.755 341.0519999999999 118.84649999999999Q340.61499999999995 117.938 339.64899999999994 117.524Q339.44199999999995 117.432 339.21199999999993 117.386Q338.9819999999999 117.34 338.7749999999999 117.31700000000001Q337.7169999999999 117.225 336.7969999999999 117.8Q335.87699999999995 118.375 335.55499999999995 119.41Q335.43999999999994 119.801 335.38249999999994 120.2265Q335.32499999999993 120.652 335.34799999999996 121.066Q335.3709999999999 122.147 335.8424999999999 123.1015Q336.3139999999999 124.056 337.34899999999993 124.447ZM346.82499999999993 114.879H352.20699999999994Q354.8059999999999 114.902 355.2199999999999 116.075Q355.63399999999996 117.248 355.61099999999993 119.226Q355.61099999999993 119.41 355.61099999999993 119.594Q355.61099999999993 119.778 355.61099999999993 119.985L352.55199999999996 119.962Q352.55199999999996 119.847 352.55199999999996 119.709Q352.55199999999996 119.571 352.55199999999996 119.456Q352.55199999999996 117.777 352.2874999999999 117.501Q352.0229999999999 117.225 350.36699999999996 117.225Q350.2749999999999 117.225 350.19449999999995 117.225Q350.1139999999999 117.225 350.02199999999993 117.225V127.0H346.82499999999993V114.879ZM360.99299999999994 127.0H357.63499999999993V114.879H360.99299999999994V127.0ZM360.99299999999994 113.499H357.63499999999993V110.486H360.99299999999994V113.499ZM375.11499999999995 126.563Q375.11499999999995 128.932 374.0569999999999 130.151Q372.9989999999999 131.37 370.53799999999995 131.37H364.25899999999996V128.909H369.98599999999993Q370.95199999999994 128.886 371.4464999999999 128.4145Q371.9409999999999 127.943 371.8949999999999 127.0H369.29599999999994Q367.96199999999993 127.0 366.85799999999995 126.839Q365.7539999999999 126.678 364.74199999999996 125.689Q363.93699999999995 124.907 363.51149999999996 123.84899999999999Q363.08599999999996 122.791 362.97099999999995 121.687Q362.97099999999995 121.503 362.95949999999993 121.3305Q362.9479999999999 121.158 362.9479999999999 120.997Q362.9479999999999 120.79 362.95949999999993 120.583Q362.97099999999995 120.376 362.9939999999999 120.169Q363.1089999999999 119.111 363.5344999999999 118.099Q363.9599999999999 117.087 364.74199999999996 116.328Q365.68499999999995 115.431 366.85799999999995 115.1665Q368.03099999999995 114.902 369.29599999999994 114.902L375.11499999999995 114.879V126.563ZM370.2389999999999 124.493H371.8949999999999V117.478Q371.68799999999993 117.501 371.48099999999994 117.501Q371.27399999999994 117.501 371.06699999999995 117.478Q370.90599999999995 117.478 370.75649999999996 117.478Q370.6069999999999 117.478 370.46899999999994 117.478Q368.97399999999993 117.455 367.69749999999993 117.892Q366.42099999999994 118.32900000000001 366.3059999999999 120.353Q366.3059999999999 120.491 366.29449999999997 120.62899999999999Q366.28299999999996 120.767 366.28299999999996 120.905Q366.25999999999993 121.779 366.50149999999996 122.6185Q366.74299999999994 123.458 367.5249999999999 124.01Q367.9389999999999 124.309 368.4334999999999 124.401Q368.92799999999994 124.493 369.4339999999999 124.516Q369.5949999999999 124.516 369.7444999999999 124.516Q369.89399999999995 124.516 370.0319999999999 124.516Q370.10099999999994 124.516 370.14699999999993 124.516Q370.1929999999999 124.516 370.2389999999999 124.516ZM381.1409999999999 127.0H377.7829999999999V114.879H381.1409999999999V127.0ZM381.1409999999999 113.499H377.7829999999999V110.486H381.1409999999999V113.499ZM383.9009999999999 114.879H389.9269999999999Q392.3189999999999 114.902 393.6529999999999 115.822Q394.9869999999999 116.742 394.9869999999999 119.341V127.0H391.7899999999999V119.709Q391.7899999999999 118.444 391.37599999999986 118.007Q390.9619999999999 117.57 389.6739999999999 117.57L387.0979999999999 117.547V127.0H383.9009999999999V114.879ZM397.9539999999999 114.879H404.5089999999999Q405.5669999999999 114.902 406.5444999999999 115.12049999999999Q407.52199999999993 115.339 408.3039999999999 116.121Q408.9709999999999 116.765 409.2354999999999 117.63900000000001Q409.4999999999999 118.513 409.4999999999999 119.43299999999999V127.0H400.8979999999999Q399.0349999999999 127.0 398.04599999999994 125.9765Q397.0569999999999 124.953 397.1489999999999 123.136Q397.3099999999999 120.951 398.68999999999994 120.30699999999999Q400.06999999999994 119.663 401.9789999999999 119.663L406.18799999999993 119.64Q406.2569999999999 118.145 405.4174999999999 117.777Q404.5779999999999 117.409 403.2899999999999 117.409L397.9539999999999 117.386V114.879ZM402.2089999999999 124.562H406.2109999999999V122.055H402.4389999999999Q402.3929999999999 122.078 402.3469999999999 122.078Q402.30099999999993 122.078 402.25499999999994 122.078Q401.61099999999993 122.101 401.0589999999999 122.3195Q400.5069999999999 122.538 400.4839999999999 123.343Q400.43799999999993 124.24 400.97849999999994 124.401Q401.5189999999999 124.562 402.2089999999999 124.585ZM415.5949999999999 127.0H412.25999999999993V110.486H415.5949999999999V127.0ZM425.715 110.486H429.41799999999995L433.23599999999993 123.182L436.45599999999996 110.486H440.54999999999995L444.25299999999993 123.182L447.8179999999999 110.486H451.3829999999999L446.27699999999993 127.0H442.02199999999993L438.50299999999993 114.672L435.42099999999994 127.0H431.18899999999996L425.715 110.486ZM456.02899999999994 127.0H452.67099999999994V114.879H456.02899999999994V127.0ZM456.02899999999994 113.499H452.67099999999994V110.486H456.02899999999994V113.499ZM458.81199999999995 114.879H464.97599999999994Q467.68999999999994 114.902 469.2194999999999 116.443Q470.7489999999999 117.984 470.8639999999999 120.652Q470.93299999999994 121.871 470.6339999999999 123.044Q470.3349999999999 124.217 469.5759999999999 125.16Q468.65599999999995 126.356 467.41399999999993 126.678Q466.1719999999999 127.0 464.76899999999995 127.0H462.00899999999996V131.37H458.81199999999995V114.879ZM462.00899999999996 117.501V124.401Q462.16999999999996 124.424 462.31949999999995 124.424Q462.46899999999994 124.424 462.62999999999994 124.424Q464.8379999999999 124.447 466.21799999999996 123.97550000000001Q467.59799999999996 123.504 467.52899999999994 120.629Q467.4599999999999 118.214 466.1489999999999 117.846Q464.8379999999999 117.478 462.99799999999993 117.501Q462.74499999999995 117.524 462.5034999999999 117.524Q462.26199999999994 117.524 462.00899999999996 117.524ZM479.9719999999999 113.361Q478.06299999999993 113.384 477.1199999999999 114.3845Q476.1769999999999 115.385 476.06199999999995 117.225L485.67599999999993 117.202V120.077H476.03899999999993Q476.03899999999993 120.951 476.2344999999999 121.756Q476.42999999999995 122.561 477.0279999999999 123.228Q477.55699999999996 123.849 478.28149999999994 123.9985Q479.0059999999999 124.148 479.76499999999993 124.148Q479.8109999999999 124.148 479.8684999999999 124.148Q479.92599999999993 124.148 479.9719999999999 124.148L485.67599999999993 124.125V127.0H479.8109999999999Q478.40799999999996 127.0 477.10849999999994 126.747Q475.8089999999999 126.494 474.65899999999993 125.574Q473.27899999999994 124.447 472.727 122.8255Q472.17499999999995 121.204 472.1289999999999 119.502Q472.10599999999994 119.134 472.11749999999995 118.789Q472.1289999999999 118.444 472.15199999999993 118.099Q472.4049999999999 114.189 474.2794999999999 112.34899999999999Q476.15399999999994 110.509 479.9029999999999 110.509L485.67599999999993 110.486V113.361H479.9719999999999ZM498.6479999999999 125.551Q497.77399999999994 126.425 496.54349999999994 126.839Q495.31299999999993 127.253 494.00199999999995 127.253Q492.6909999999999 127.253 491.4719999999999 126.839Q490.25299999999993 126.425 489.3789999999999 125.574Q488.4819999999999 124.7 488.0334999999999 123.481Q487.5849999999999 122.262 487.5849999999999 120.974Q487.5849999999999 119.686 488.0334999999999 118.46700000000001Q488.4819999999999 117.248 489.3789999999999 116.374Q490.25299999999993 115.523 491.48349999999994 115.0975Q492.71399999999994 114.672 494.0249999999999 114.672Q495.31299999999993 114.672 496.54349999999994 115.0975Q497.77399999999994 115.523 498.6479999999999 116.374Q499.54499999999996 117.248 499.9934999999999 118.46700000000001Q500.44199999999995 119.686 500.44199999999995 120.974Q500.44199999999995 122.262 499.9934999999999 123.481Q499.54499999999996 124.7 498.6479999999999 125.574ZM492.92099999999994 124.424Q493.08199999999994 124.493 493.2314999999999 124.53899999999999Q493.3809999999999 124.585 493.51899999999995 124.608Q494.62299999999993 124.769 495.58899999999994 124.194Q496.55499999999995 123.619 496.87699999999995 122.515Q496.99199999999996 122.124 497.04949999999997 121.6755Q497.1069999999999 121.227 497.1069999999999 120.767Q497.0609999999999 119.755 496.6239999999999 118.84649999999999Q496.18699999999995 117.938 495.22099999999995 117.524Q495.01399999999995 117.432 494.78399999999993 117.386Q494.5539999999999 117.34 494.3469999999999 117.31700000000001Q493.28899999999993 117.225 492.3689999999999 117.8Q491.44899999999996 118.375 491.12699999999995 119.41Q491.01199999999994 119.801 490.95449999999994 120.2265Q490.89699999999993 120.652 490.91999999999996 121.066Q490.9429999999999 122.147 491.4144999999999 123.1015Q491.8859999999999 124.056 492.92099999999994 124.447ZM513.3679999999999 127.0H507.3419999999999Q505.01899999999995 127.0 503.6619999999999 126.08Q502.30499999999995 125.16 502.30499999999995 122.584V114.879H505.50199999999995V122.30799999999999Q505.50199999999995 123.527 505.96199999999993 123.941Q506.4219999999999 124.355 507.5949999999999 124.355L510.17099999999994 124.332V114.879H513.3679999999999V127.0ZM515.0469999999999 114.879H517.3009999999999V110.486H520.4979999999999V114.879H523.8789999999999V117.294H520.4979999999999V122.193Q520.4749999999999 124.01 521.3259999999999 124.309Q522.1769999999999 124.608 523.6719999999999 124.608Q523.718 124.608 523.7755 124.608Q523.833 124.608 523.8789999999999 124.608V127.0H520.958Q519.141 127.0 518.221 125.988Q517.3009999999999 124.976 517.3009999999999 123.228V117.294H515.0469999999999V114.879ZM534.6659999999999 114.879H546.948Q549.294 114.925 550.6279999999999 115.845Q551.962 116.765 551.9849999999999 119.341V127.0H548.765V119.732Q548.765 118.03 548.0405 117.7655Q547.3159999999999 117.501 545.867 117.547Q545.637 117.57 545.3955 117.57Q545.154 117.57 544.901 117.57V127.0H541.635V117.547H537.886V127.0H534.6659999999999V114.879ZM560.242 127.0Q558.954 127.0 557.7465 126.68950000000001Q556.539 126.379 555.619 125.39Q554.883 124.585 554.5495000000001 123.55Q554.216 122.515 554.147 121.434Q554.147 121.319 554.147 121.20400000000001Q554.147 121.089 554.147 120.974Q554.147 120.813 554.147 120.6635Q554.147 120.514 554.17 120.353Q554.239 119.318 554.5725 118.3175Q554.906 117.31700000000001 555.619 116.535Q556.539 115.523 557.7465 115.2125Q558.954 114.902 560.242 114.902L564.911 114.879V117.409H560.679Q559.345 117.432 558.54 117.8115Q557.735 118.191 557.689 119.709L564.911 119.686V122.216H557.689Q557.735 123.803 558.494 124.148Q559.253 124.493 560.656 124.493L564.911 124.47V127.0H560.242ZM566.958 114.879H572.9839999999999Q575.376 114.902 576.71 115.822Q578.044 116.742 578.044 119.341V127.0H574.847V119.709Q574.847 118.444 574.433 118.007Q574.019 117.57 572.731 117.57L570.155 117.547V127.0H566.958V114.879ZM591.7289999999999 127.0H585.703Q583.3799999999999 127.0 582.0229999999999 126.08Q580.6659999999999 125.16 580.6659999999999 122.584V114.879H583.8629999999999V122.30799999999999Q583.8629999999999 123.527 584.3229999999999 123.941Q584.7829999999999 124.355 585.9559999999999 124.355L588.5319999999999 124.332V114.879H591.7289999999999V127.0ZM603.3209999999999 124.47H610.0599999999998Q610.1059999999999 124.493 610.1519999999998 124.493Q610.1979999999999 124.493 610.2439999999999 124.493Q610.8189999999998 124.47 611.3019999999999 124.24000000000001Q611.7849999999999 124.01 611.7849999999999 123.297Q611.7849999999999 122.63 611.3249999999998 122.4Q610.8649999999999 122.17 610.3359999999999 122.124Q610.2669999999999 122.124 610.1979999999999 122.124Q610.1289999999999 122.124 610.0599999999998 122.124L607.2999999999998 122.101Q605.3679999999999 122.124 604.2524999999998 121.572Q603.1369999999998 121.02 603.1139999999999 118.766Q603.0909999999999 116.65 604.2639999999999 115.77600000000001Q605.4369999999999 114.902 607.3919999999999 114.902L614.2689999999999 114.879V117.409H608.6109999999999Q608.5419999999999 117.432 608.4844999999999 117.432Q608.4269999999999 117.432 608.3579999999998 117.432Q608.1969999999999 117.432 608.0474999999999 117.432Q607.8979999999999 117.432 607.7139999999999 117.432Q607.2999999999998 117.455 606.9205 117.616Q606.5409999999999 117.777 606.4259999999999 118.214Q606.2419999999998 119.019 606.7479999999998 119.31800000000001Q607.2539999999999 119.617 607.9209999999999 119.617L610.8189999999998 119.594Q612.5209999999998 119.617 613.6709999999998 120.3875Q614.8209999999999 121.158 614.8899999999999 123.044Q614.8899999999999 123.06700000000001 614.8899999999999 123.0785Q614.8899999999999 123.09 614.8899999999999 123.113Q614.9129999999999 124.585 614.0504999999998 125.79249999999999Q613.1879999999999 127.0 611.5779999999999 127.0H603.3209999999999V124.47ZM623.7679999999999 124.401H627.1719999999999V127.0H622.8249999999999Q621.583 127.0 620.3985 126.7355Q619.2139999999999 126.471 618.271 125.574Q617.4889999999999 124.815 617.0519999999999 123.7915Q616.6149999999999 122.768 616.4999999999999 121.687Q616.4999999999999 121.526 616.4884999999999 121.3535Q616.477 121.181 616.477 121.02Q616.477 120.813 616.4884999999999 120.606Q616.4999999999999 120.399 616.5229999999999 120.19200000000001Q616.6149999999999 119.134 617.0519999999999 118.122Q617.4889999999999 117.11 618.271 116.351Q619.2139999999999 115.45400000000001 620.3985 115.178Q621.583 114.902 622.8249999999999 114.902L627.1719999999999 114.879V117.501H623.7679999999999Q623.699 117.524 623.6184999999999 117.524Q623.5379999999999 117.524 623.4689999999999 117.524Q623.3309999999999 117.524 623.2044999999999 117.524Q623.078 117.524 622.963 117.524Q622.5029999999999 117.524 622.0659999999999 117.593Q621.6289999999999 117.662 621.2379999999999 117.892Q620.387 118.398 620.0994999999999 119.249Q619.8119999999999 120.1 619.8119999999999 121.02Q619.8349999999999 121.917 620.1339999999999 122.73349999999999Q620.4329999999999 123.55 621.2379999999999 124.033Q621.6289999999999 124.263 622.0659999999999 124.332Q622.5029999999999 124.401 622.963 124.424Q623.1009999999999 124.424 623.2504999999999 124.424Q623.3999999999999 124.424 623.5379999999999 124.424Q623.607 124.424 623.6644999999999 124.424Q623.7219999999999 124.424 623.7679999999999 124.424ZM629.2879999999999 114.879H634.6699999999998Q637.2689999999999 114.902 637.6829999999999 116.075Q638.0969999999999 117.248 638.074 119.226Q638.074 119.41 638.074 119.594Q638.074 119.778 638.074 119.985L635.0149999999999 119.962Q635.0149999999999 119.847 635.0149999999999 119.709Q635.0149999999999 119.571 635.0149999999999 119.456Q635.0149999999999 117.777 634.7504999999999 117.501Q634.4859999999999 117.225 632.8299999999999 117.225Q632.7379999999999 117.225 632.6574999999999 117.225Q632.5769999999999 117.225 632.4849999999999 117.225V127.0H629.2879999999999V114.879ZM645.5029999999998 127.0Q644.2149999999998 127.0 643.0074999999998 126.68950000000001Q641.7999999999998 126.379 640.8799999999999 125.39Q640.1439999999999 124.585 639.8104999999998 123.55Q639.4769999999999 122.515 639.4079999999999 121.434Q639.4079999999999 121.319 639.4079999999999 121.20400000000001Q639.4079999999999 121.089 639.4079999999999 120.974Q639.4079999999999 120.813 639.4079999999999 120.6635Q639.4079999999999 120.514 639.4309999999998 120.353Q639.4999999999999 119.318 639.8334999999998 118.3175Q640.1669999999998 117.31700000000001 640.8799999999999 116.535Q641.7999999999998 115.523 643.0074999999998 115.2125Q644.2149999999998 114.902 645.5029999999998 114.902L650.1719999999998 114.879V117.409H645.9399999999998Q644.6059999999999 117.432 643.8009999999999 117.8115Q642.9959999999999 118.191 642.9499999999998 119.709L650.1719999999998 119.686V122.216H642.9499999999998Q642.9959999999999 123.803 643.7549999999999 124.148Q644.5139999999999 124.493 645.9169999999998 124.493L650.1719999999998 124.47V127.0H645.5029999999998ZM657.6239999999998 127.0Q656.3359999999998 127.0 655.1284999999998 126.68950000000001Q653.9209999999998 126.379 653.0009999999999 125.39Q652.2649999999999 124.585 651.9314999999999 123.55Q651.5979999999998 122.515 651.5289999999999 121.434Q651.5289999999999 121.319 651.5289999999999 121.20400000000001Q651.5289999999999 121.089 651.5289999999999 120.974Q651.5289999999999 120.813 651.5289999999999 120.6635Q651.5289999999999 120.514 651.5519999999998 120.353Q651.6209999999999 119.318 651.9544999999998 118.3175Q652.2879999999998 117.31700000000001 653.0009999999999 116.535Q653.9209999999998 115.523 655.1284999999998 115.2125Q656.3359999999998 114.902 657.6239999999998 114.902L662.2929999999998 114.879V117.409H658.0609999999998Q656.7269999999999 117.432 655.9219999999998 117.8115Q655.1169999999998 118.191 655.0709999999998 119.709L662.2929999999998 119.686V122.216H655.0709999999998Q655.1169999999998 123.803 655.8759999999999 124.148Q656.6349999999999 124.493 658.0379999999998 124.493L662.2929999999998 124.47V127.0H657.6239999999998ZM664.3399999999998 114.879H670.3659999999998Q672.7579999999998 114.902 674.0919999999999 115.822Q675.4259999999998 116.742 675.4259999999998 119.341V127.0H672.2289999999998V119.709Q672.2289999999998 118.444 671.8149999999998 118.007Q671.4009999999998 117.57 670.1129999999998 117.57L667.5369999999998 117.547V127.0H664.3399999999998V114.879ZM677.9559999999998 124.47H684.6949999999997Q684.7409999999998 124.493 684.7869999999998 124.493Q684.8329999999997 124.493 684.8789999999998 124.493Q685.4539999999997 124.47 685.9369999999997 124.24000000000001Q686.4199999999997 124.01 686.4199999999997 123.297Q686.4199999999997 122.63 685.9599999999998 122.4Q685.4999999999998 122.17 684.9709999999998 122.124Q684.9019999999998 122.124 684.8329999999999 122.124Q684.7639999999998 122.124 684.6949999999997 122.124L681.9349999999997 122.101Q680.0029999999998 122.124 678.8874999999998 121.572Q677.7719999999997 121.02 677.7489999999998 118.766Q677.7259999999998 116.65 678.8989999999998 115.77600000000001Q680.0719999999998 114.902 682.0269999999998 114.902L688.9039999999998 114.879V117.409H683.2459999999998Q683.1769999999998 117.432 683.1194999999998 117.432Q683.0619999999998 117.432 682.9929999999997 117.432Q682.8319999999998 117.432 682.6824999999998 117.432Q682.5329999999998 117.432 682.3489999999998 117.432Q681.9349999999997 117.455 681.5554999999997 117.616Q681.1759999999998 117.777 681.0609999999998 118.214Q680.8769999999997 119.019 681.3829999999998 119.31800000000001Q681.8889999999998 119.617 682.5559999999998 119.617L685.4539999999997 119.594Q687.1559999999997 119.617 688.3059999999998 120.3875Q689.4559999999998 121.158 689.5249999999997 123.044Q689.5249999999997 123.06700000000001 689.5249999999997 123.0785Q689.5249999999997 123.09 689.5249999999997 123.113Q689.5479999999998 124.585 688.6854999999998 125.79249999999999Q687.8229999999998 127.0 686.2129999999997 127.0H677.9559999999998V124.47Z" fill="#3a3f47"/><path d="M34.480000000000004 153.512H37.04L41.936 165.0H39.248L38.192 162.264H33.2L32.176 165.0H29.632L34.480000000000004 153.512ZM35.664 155.8 33.984 160.216H37.408L35.664 155.8ZM49.056 165.0H42.736V153.512H48.64Q48.784 153.528 48.928 153.528Q49.072 153.528 49.216 153.544Q50.4 153.592 51.432 153.99200000000002Q52.464 154.392 52.784 155.752Q53.056 156.984 52.632 157.824Q52.208 158.664 51.168 159.272Q52.32 159.816 52.704 160.68Q53.088 161.544 52.816 162.824Q52.528 164.136 51.512 164.56Q50.496 164.984 49.344 165.0Q49.263999999999996 165.0 49.19199999999999 165.0Q49.12 165.0 49.056 165.0ZM48.72 162.968Q49.424 163.0 49.864000000000004 162.704Q50.304 162.408 50.304 161.64Q50.304 160.856 49.864000000000004 160.56799999999998Q49.424 160.28 48.72 160.28L45.152 160.264V162.968H48.72ZM45.152 155.576V158.232H48.688Q49.376 158.248 49.824 157.968Q50.272 157.688 50.272 156.92Q50.288 156.168 49.824 155.88Q49.36 155.592 48.688 155.592L45.152 155.576ZM59.552 155.48Q57.808 155.496 57.296 156.632Q56.784 157.768 56.736 159.272Q56.736 159.528 56.736 159.792Q56.736 160.056 56.751999999999995 160.328Q56.8 160.888 56.959999999999994 161.424Q57.12 161.96 57.488 162.376Q57.872 162.808 58.376 162.91199999999998Q58.879999999999995 163.016 59.408 163.016Q59.44 163.016 59.48 163.016Q59.519999999999996 163.016 59.552 163.016L63.519999999999996 163.0V165.0H59.44Q58.464 165.0 57.56 164.824Q56.656 164.648 55.855999999999995 164.008Q54.896 163.224 54.512 162.096Q54.128 160.968 54.096 159.784Q54.08 159.528 54.087999999999994 159.288Q54.096 159.048 54.111999999999995 158.808Q54.288 156.088 55.592 154.808Q56.896 153.528 59.504 153.528L63.519999999999996 153.512V155.48H59.552ZM65.29599999999999 153.512H70.56Q73.184 153.528 74.47999999999999 154.808Q75.776 156.088 75.952 158.808Q75.96799999999999 159.048 75.976 159.288Q75.984 159.528 75.96799999999999 159.784Q75.93599999999999 160.968 75.55199999999999 162.096Q75.16799999999999 163.224 74.208 164.008Q73.42399999999999 164.648 72.52 164.824Q71.616 165.0 70.624 165.0H65.29599999999999V153.512ZM70.512 155.512H67.71199999999999V163.0H70.512Q70.544 163.016 70.584 163.016Q70.624 163.016 70.65599999999999 163.016Q71.184 163.016 71.68799999999999 162.91199999999998Q72.192 162.808 72.576 162.376Q72.96 161.928 73.112 161.368Q73.264 160.808 73.312 160.232Q73.328 159.992 73.328 159.752Q73.328 159.512 73.328 159.272Q73.328 159.032 73.328 158.768Q73.328 158.504 73.29599999999999 158.248Q73.264 157.688 73.112 157.144Q72.96 156.6 72.576 156.184Q72.192 155.752 71.68799999999999 155.64Q71.184 155.528 70.65599999999999 155.528Q70.624 155.528 70.584 155.528Q70.544 155.528 70.512 155.528ZM82.368 155.512Q81.03999999999999 155.528 80.38399999999999 156.224Q79.728 156.92 79.648 158.2L86.336 158.184V160.184H79.63199999999999Q79.63199999999999 160.792 79.768 161.352Q79.904 161.912 80.32 162.376Q80.68799999999999 162.808 81.192 162.91199999999998Q81.696 163.016 82.22399999999999 163.016Q82.256 163.016 82.29599999999999 163.016Q82.336 163.016 82.368 163.016L86.336 163.0V165.0H82.256Q81.27999999999999 165.0 80.37599999999999 164.824Q79.472 164.648 78.672 164.008Q77.71199999999999 163.224 77.32799999999999 162.096Q76.94399999999999 160.968 76.91199999999999 159.784Q76.89599999999999 159.528 76.904 159.288Q76.91199999999999 159.048 76.928 158.808Q77.104 156.088 78.40799999999999 154.808Q79.71199999999999 153.528 82.32 153.528L86.336 153.512V155.512H82.368ZM88.368 159.72Q88.368 156.408 89.416 154.968Q90.464 153.528 94.01599999999999 153.528L97.696 153.512V155.512H93.80799999999999Q92.288 155.544 91.576 156.168Q90.86399999999999 156.792 90.78399999999999 158.328L97.696 158.312V160.296H90.78399999999999V165.0H88.368V159.72ZM103.472 160.216V158.184H109.184V165.0H103.984Q102.99199999999999 165.0 102.064 164.832Q101.136 164.664 100.336 164.008Q99.37599999999999 163.224 98.99199999999999 162.096Q98.60799999999999 160.968 98.576 159.784Q98.55999999999999 159.528 98.56799999999998 159.288Q98.576 159.048 98.592 158.808Q98.768 156.088 100.072 154.808Q101.37599999999999 153.528 103.984 153.528L109.184 153.512V155.496H103.984Q102.27199999999999 155.512 101.768 156.704Q101.264 157.896 101.264 159.32Q101.264 159.336 101.264 159.344Q101.264 159.352 101.264 159.368Q101.264 160.824 101.768 161.88Q102.27199999999999 162.936 103.984 162.936L106.704 162.92V160.216H103.472ZM113.58399999999999 153.512V158.168H118.01599999999999V153.512H120.43199999999999V165.0H118.01599999999999V160.2H113.58399999999999V165.0H111.16799999999999V153.512H113.58399999999999ZM125.344 165.0H122.816V153.512H125.344V165.0ZM126.496 163.096H129.328Q131.136 163.112 131.54399999999998 162.248Q131.952 161.384 131.952 159.832V153.512H134.464V160.344Q134.464 160.536 134.45600000000002 160.704Q134.448 160.872 134.448 161.048Q134.4 161.8 134.176 162.52Q133.952 163.24 133.44 163.816Q132.72 164.632 131.768 164.816Q130.816 165.0 129.808 165.0Q129.76 165.0 129.72 165.0Q129.68 165.0 129.648 165.0H126.496V163.096ZM136.656 153.512H139.072V159.032L143.60000000000002 153.512H146.496L141.888 159.128L146.544 165.0H143.45600000000002L139.072 159.288V165.0H136.656V153.512ZM151.952 165.0Q150.864 165.0 149.912 164.832Q148.96 164.664 148.16 163.816Q147.472 163.096 147.296 162.2Q147.12 161.304 147.12 160.36V153.512H149.536V159.816Q149.52 161.416 149.888 162.264Q150.256 163.112 152.16 163.112L155.008 163.096V165.0H151.952ZM156.28799999999998 153.512H159.83999999999997L162.76799999999997 162.328L165.696 153.512H169.23199999999997V165.0H166.86399999999998L167.05599999999998 156.056L164.112 165.0H161.552L158.51199999999997 155.96L158.75199999999998 165.0H156.28799999999998V153.512ZM171.6 153.512H174.656L179.35999999999999 161.768L179.248 153.512H181.712V165.0H178.912L173.968 156.312L174.07999999999998 165.0H171.6V153.512ZM186.12800000000001 157.528Q186.016 157.96 185.96800000000002 158.4Q185.92000000000002 158.84 185.92000000000002 159.272Q185.92000000000002 159.72 185.976 160.16Q186.032 160.6 186.12800000000001 161.016Q186.304 161.752 186.712 162.296Q187.12 162.84 187.856 163.096Q188.12800000000001 163.192 188.43200000000002 163.24Q188.736 163.288 189.04 163.288Q189.344 163.288 189.648 163.24Q189.952 163.192 190.22400000000002 163.096Q190.96 162.84 191.376 162.296Q191.792 161.752 191.952 161.016Q192.048 160.6 192.10399999999998 160.16Q192.16 159.72 192.16 159.272Q192.16 158.84 192.10399999999998 158.4Q192.048 157.96 191.952 157.544Q191.792 156.808 191.376 156.256Q190.96 155.704 190.22400000000002 155.464Q189.952 155.368 189.648 155.32Q189.344 155.272 189.04 155.272Q188.736 155.272 188.43200000000002 155.32Q188.12800000000001 155.368 187.856 155.464Q187.12 155.72 186.72 156.264Q186.32 156.808 186.12800000000001 157.544ZM183.632 156.712Q184.048 155.448 184.856 154.656Q185.66400000000002 153.864 186.976 153.528Q187.45600000000002 153.416 187.96800000000002 153.352Q188.48000000000002 153.288 188.99200000000002 153.288Q189.536 153.272 190.096 153.336Q190.656 153.4 191.168 153.544Q192.448 153.864 193.264 154.664Q194.08 155.464 194.464 156.728Q194.624 157.304 194.712 157.94400000000002Q194.8 158.584 194.8 159.224Q194.8 159.912 194.72000000000003 160.56799999999998Q194.64000000000001 161.224 194.464 161.816Q194.08 163.112 193.248 163.904Q192.416 164.696 191.104 165.0Q190.592 165.128 190.048 165.184Q189.50400000000002 165.24 188.94400000000002 165.24Q188.448 165.24 187.952 165.176Q187.45600000000002 165.112 186.976 165.0Q185.68 164.696 184.848 163.904Q184.016 163.112 183.632 161.816Q183.472 161.256 183.38400000000001 160.6Q183.296 159.944 183.296 159.272Q183.296 158.6 183.376 157.93599999999998Q183.45600000000002 157.272 183.632 156.728ZM201.632 155.56H198.832V158.952H201.776Q202.656 158.952 203.296 158.608Q203.936 158.264 203.936 157.272Q203.968 156.168 203.256 155.872Q202.544 155.576 201.632 155.576ZM196.416 153.512H201.664Q201.68 153.528 201.704 153.528Q201.728 153.528 201.744 153.528Q202.048 153.528 202.352 153.528Q202.656 153.528 202.96 153.56Q203.504 153.592 204.04 153.712Q204.576 153.832 205.04 154.10399999999998Q205.888 154.6 206.248 155.464Q206.608 156.328 206.624 157.272Q206.64 158.136 206.32799999999997 158.93599999999998Q206.016 159.736 205.296 160.264Q204.688 160.696 203.976 160.832Q203.264 160.968 202.528 161.0Q202.336 161.0 202.144 161.0Q201.952 161.0 201.76 161.0L198.832 160.984V165.0H196.416V153.512ZM215.552 162.376Q215.98399999999998 161.912 216.19199999999998 161.05599999999998Q216.39999999999998 160.2 216.39999999999998 159.272Q216.39999999999998 158.344 216.18399999999997 157.488Q215.968 156.632 215.552 156.152Q215.152 155.704 214.54399999999998 155.48000000000002Q213.93599999999998 155.256 213.296 155.256Q212.64 155.256 212.03199999999998 155.48000000000002Q211.42399999999998 155.704 211.02399999999997 156.152Q210.60799999999998 156.632 210.392 157.488Q210.176 158.344 210.176 159.272Q210.176 160.2 210.384 161.05599999999998Q210.59199999999998 161.912 211.02399999999997 162.392Q211.42399999999998 162.84 212.03199999999998 163.072Q212.64 163.304 213.296 163.304Q213.93599999999998 163.304 214.54399999999998 163.072Q215.152 162.84 215.552 162.392ZM216.48 164.6Q216.07999999999998 164.776 215.71999999999997 164.888Q215.35999999999999 165.0 215.00799999999998 165.064Q214.528 165.176 214.024 165.208Q213.51999999999998 165.24 212.896 165.208Q212.72 165.208 212.54399999999998 165.192Q212.368 165.176 212.19199999999998 165.16Q211.16799999999998 165.048 210.20799999999997 164.656Q209.248 164.264 208.624 163.4Q208.07999999999998 162.616 207.79199999999997 161.448Q207.504 160.28 207.53599999999997 159.048Q207.56799999999998 157.464 208.152 156.04Q208.736 154.61599999999999 209.98399999999998 153.992Q210.672 153.656 211.432 153.488Q212.19199999999998 153.32 212.95999999999998 153.304Q213.408 153.288 213.856 153.32Q214.30399999999997 153.352 214.736 153.416Q216.112 153.624 217.07999999999998 154.304Q218.04799999999997 154.984 218.54399999999998 156.296Q218.784 156.92 218.904 157.648Q219.02399999999997 158.376 219.04 159.112Q219.04 159.832 218.95999999999998 160.51999999999998Q218.88 161.208 218.70399999999998 161.816Q218.59199999999998 162.216 218.416 162.57600000000002Q218.23999999999998 162.936 218.016 163.288L219.76 165.0H216.86399999999998L216.48 164.6ZM220.65599999999998 153.512H226.60799999999998Q226.784 153.528 226.952 153.528Q227.11999999999998 153.528 227.296 153.544Q227.95199999999997 153.576 228.58399999999997 153.752Q229.21599999999998 153.928 229.69599999999997 154.408Q230.128 154.824 230.344 155.38400000000001Q230.55999999999997 155.944 230.60799999999998 156.536Q230.60799999999998 156.648 230.61599999999999 156.76Q230.62399999999997 156.872 230.62399999999997 156.984Q230.64 158.184 230.072 159.05599999999998Q229.504 159.928 228.30399999999997 160.216L231.16799999999998 165.0H228.44799999999998L225.92 160.488H223.07199999999997V165.0H220.65599999999998V153.512ZM226.03199999999998 155.56H223.07199999999997V158.456H226.03199999999998Q226.064 158.472 226.096 158.472Q226.128 158.472 226.15999999999997 158.472Q226.92799999999997 158.472 227.55999999999997 158.24Q228.19199999999998 158.008 228.176 157.016Q228.176 155.992 227.512 155.784Q226.84799999999998 155.576 226.03199999999998 155.576ZM242.368 155.56H236.39999999999998Q235.61599999999999 155.576 235.07999999999998 155.88799999999998Q234.54399999999998 156.2 234.54399999999998 157.08Q234.54399999999998 157.752 235.0 158.04000000000002Q235.456 158.328 236.064 158.328L239.26399999999998 158.312Q239.43999999999997 158.328 239.63199999999998 158.328Q239.82399999999998 158.328 240.016 158.344Q240.576 158.376 241.12 158.52800000000002Q241.664 158.68 242.07999999999998 159.08Q242.46399999999997 159.432 242.65599999999998 159.928Q242.84799999999998 160.424 242.896 160.952Q242.91199999999998 161.112 242.91999999999996 161.264Q242.92799999999997 161.416 242.92799999999997 161.576Q242.896 163.576 241.82399999999998 164.288Q240.75199999999998 165.0 238.91199999999998 165.0H232.48V162.952H238.528Q239.32799999999997 162.968 239.91199999999998 162.696Q240.49599999999998 162.424 240.384 161.464Q240.30399999999997 160.712 239.82399999999998 160.536Q239.344 160.36 238.688 160.344L235.83999999999997 160.328Q234.064 160.344 233.03199999999998 159.61599999999999Q231.99999999999997 158.888 232.016 156.984Q232.04799999999997 154.984 233.128 154.256Q234.20799999999997 153.528 236.04799999999997 153.528L242.368 153.512V155.56ZM247.248 155.528H243.552V153.528H253.47199999999998V155.528H249.744V165.0H247.248V155.528ZM257.008 153.512V160.392Q257.008 161.848 257.52 162.568Q258.032 163.288 259.59999999999997 163.288Q261.168 163.288 261.672 162.568Q262.176 161.848 262.176 160.408V153.512H264.592V160.456Q264.592 160.664 264.592 160.872Q264.592 161.08 264.57599999999996 161.272Q264.56 161.88 264.424 162.464Q264.288 163.048 263.92 163.56Q263.408 164.264 262.6 164.60000000000002Q261.792 164.936 260.928 165.032Q260.592 165.08 260.256 165.096Q259.92 165.112 259.59999999999997 165.112Q259.296 165.112 258.96799999999996 165.096Q258.64 165.08 258.304 165.032Q257.424 164.952 256.608 164.61599999999999Q255.792 164.28 255.26399999999998 163.56Q254.896 163.048 254.76799999999997 162.464Q254.64 161.88 254.624 161.272Q254.60799999999998 161.08 254.60799999999998 160.872Q254.60799999999998 160.664 254.60799999999998 160.472V153.512H257.008ZM270.23999999999995 165.0 265.248 153.512H267.96799999999996L271.424 162.072L274.96 153.512H277.53599999999994L272.736 165.0H270.23999999999995ZM276.864 153.512H279.44L282.096 162.344L284.33599999999996 153.512H287.18399999999997L289.76 162.344L292.24 153.512H294.71999999999997L291.168 165.0H288.20799999999997L285.76 156.424L283.616 165.0H280.67199999999997L276.864 153.512ZM298.432 159.256 294.56 153.512H297.37600000000003L299.744 157.144L302.096 153.512H304.88L301.184 159.096L305.152 165.0H302.25600000000003L299.84000000000003 161.0L297.28000000000003 165.0H294.432L298.432 159.256ZM304.35200000000003 153.512H307.05600000000004L309.88800000000003 157.896L312.76800000000003 153.512H315.56800000000004L311.136 159.928V165.0H308.72V159.928L304.35200000000003 153.512ZM325.52000000000004 155.56 319.05600000000004 162.968H325.52000000000004V165.0H315.824V162.968L322.384 155.56H315.824V153.512H325.52000000000004V155.56Z" fill="#6b7280"/><path d="M31.136 185.568H35.696Q36.432 185.584 37.112 185.736Q37.792 185.888 38.336 186.432Q38.8 186.88 38.983999999999995 187.488Q39.168 188.096 39.168 188.736V194.0H33.184Q31.888 194.0 31.200000000000003 193.288Q30.512 192.576 30.576 191.312Q30.688 189.792 31.647999999999996 189.344Q32.608 188.896 33.936 188.896L36.864 188.88Q36.912 187.84 36.328 187.584Q35.744 187.328 34.848 187.328L31.136 187.312V185.568ZM34.096000000000004 192.304H36.88V190.56H34.256Q34.224000000000004 190.576 34.192 190.576Q34.16 190.576 34.128 190.576Q33.68 190.592 33.296 190.744Q32.912 190.896 32.896 191.456Q32.864 192.08 33.239999999999995 192.192Q33.616 192.304 34.096000000000004 192.32ZM44.72 187.392H43.36V192.192Q43.519999999999996 192.208 43.687999999999995 192.216Q43.855999999999995 192.224 44.016 192.224Q45.135999999999996 192.256 46.087999999999994 192.048Q47.04 191.84 47.168 190.4Q47.184 190.208 47.19199999999999 190.00799999999998Q47.199999999999996 189.808 47.199999999999996 189.61599999999999Q47.184 189.264 47.104 188.928Q47.023999999999994 188.592 46.848 188.304Q46.495999999999995 187.664 45.943999999999996 187.536Q45.391999999999996 187.408 44.72 187.408ZM43.36 182.512V185.568H45.279999999999994Q46.256 185.584 47.12 185.824Q47.983999999999995 186.064 48.623999999999995 186.88Q49.152 187.552 49.36 188.36Q49.568 189.168 49.519999999999996 190.016Q49.44 191.872 48.376 192.936Q47.312 194.0 45.424 194.0H41.135999999999996V182.512H43.36ZM55.48799999999999 192.192H57.855999999999995V194.0H54.831999999999994Q53.96799999999999 194.0 53.14399999999999 193.816Q52.31999999999999 193.632 51.663999999999994 193.008Q51.11999999999999 192.48 50.81599999999999 191.768Q50.51199999999999 191.056 50.431999999999995 190.304Q50.431999999999995 190.192 50.42399999999999 190.072Q50.41599999999999 189.952 50.41599999999999 189.84Q50.41599999999999 189.696 50.42399999999999 189.552Q50.431999999999995 189.408 50.44799999999999 189.264Q50.51199999999999 188.528 50.81599999999999 187.824Q51.11999999999999 187.12 51.663999999999994 186.592Q52.31999999999999 185.968 53.14399999999999 185.776Q53.96799999999999 185.584 54.831999999999994 185.584L57.855999999999995 185.568V187.392H55.48799999999999Q55.43999999999999 187.408 55.38399999999999 187.408Q55.327999999999996 187.408 55.279999999999994 187.408Q55.18399999999999 187.408 55.09599999999999 187.408Q55.007999999999996 187.408 54.92799999999999 187.408Q54.60799999999999 187.408 54.30399999999999 187.456Q53.99999999999999 187.504 53.727999999999994 187.664Q53.135999999999996 188.016 52.93599999999999 188.608Q52.73599999999999 189.2 52.73599999999999 189.84Q52.751999999999995 190.464 52.959999999999994 191.03199999999998Q53.16799999999999 191.6 53.727999999999994 191.936Q53.99999999999999 192.096 54.30399999999999 192.144Q54.60799999999999 192.192 54.92799999999999 192.208Q55.023999999999994 192.208 55.12799999999999 192.208Q55.23199999999999 192.208 55.327999999999996 192.208Q55.37599999999999 192.208 55.416 192.208Q55.455999999999996 192.208 55.48799999999999 192.208ZM67.136 194.0H62.864Q60.97599999999999 194.0 59.91199999999999 192.936Q58.84799999999999 191.872 58.751999999999995 190.016Q58.71999999999999 189.168 58.928 188.36Q59.135999999999996 187.552 59.663999999999994 186.88Q60.31999999999999 186.064 61.175999999999995 185.824Q62.032 185.584 63.007999999999996 185.584L64.91199999999999 185.568V182.512H67.136V194.0ZM64.91199999999999 192.192V187.392Q64.78399999999999 187.408 64.65599999999999 187.408Q64.52799999999999 187.408 64.416 187.408Q64.256 187.408 64.096 187.408Q63.93599999999999 187.408 63.775999999999996 187.408Q63.48799999999999 187.408 63.208 187.416Q62.928 187.424 62.63999999999999 187.456Q62.38399999999999 187.472 62.151999999999994 187.60000000000002Q61.919999999999995 187.728 61.727999999999994 187.904Q61.391999999999996 188.24 61.256 188.68Q61.12 189.12 61.087999999999994 189.568Q61.087999999999994 189.696 61.087999999999994 189.808Q61.087999999999994 189.92 61.087999999999994 190.032Q61.135999999999996 191.728 62.056 191.984Q62.976 192.24 64.256 192.224Q64.416 192.208 64.584 192.208Q64.752 192.208 64.91199999999999 192.208ZM72.832 194.0Q71.93599999999999 194.0 71.096 193.784Q70.256 193.568 69.616 192.88Q69.104 192.32 68.872 191.6Q68.64 190.88 68.592 190.128Q68.592 190.048 68.592 189.96800000000002Q68.592 189.888 68.592 189.808Q68.592 189.696 68.592 189.59199999999998Q68.592 189.488 68.60799999999999 189.376Q68.65599999999999 188.656 68.88799999999999 187.96Q69.11999999999999 187.264 69.616 186.72Q70.256 186.016 71.096 185.8Q71.93599999999999 185.584 72.832 185.584L76.08 185.568V187.328H73.136Q72.208 187.344 71.648 187.608Q71.088 187.872 71.056 188.928L76.08 188.912V190.672H71.056Q71.088 191.776 71.61599999999999 192.01600000000002Q72.14399999999999 192.256 73.11999999999999 192.256L76.08 192.24V194.0H72.832ZM78.27199999999999 187.248H76.672V185.568H78.27199999999999Q78.27199999999999 185.504 78.27199999999999 185.44Q78.27199999999999 185.376 78.27199999999999 185.296Q78.27199999999999 183.92 78.55199999999999 183.232Q78.832 182.544 80.576 182.528L82.688 182.512V184.144Q82.624 184.16 82.52799999999999 184.152Q82.432 184.144 82.32 184.144Q82.192 184.144 82.048 184.136Q81.904 184.128 81.776 184.128Q81.488 184.128 81.232 184.168Q80.976 184.208 80.848 184.32Q80.672 184.448 80.616 184.656Q80.56 184.864 80.56 185.072Q80.56 185.152 80.56 185.216Q80.56 185.28 80.576 185.344Q80.576 185.408 80.576 185.47199999999998Q80.576 185.536 80.576 185.584L82.688 185.568V187.248H80.576V194.0H78.27199999999999V187.248ZM91.68 193.696Q91.68 195.344 90.944 196.192Q90.208 197.04 88.49600000000001 197.04H84.128V195.328H88.11200000000001Q88.784 195.312 89.12800000000001 194.984Q89.47200000000001 194.656 89.44 194.0H87.632Q86.70400000000001 194.0 85.936 193.888Q85.168 193.776 84.464 193.088Q83.904 192.544 83.608 191.808Q83.312 191.072 83.232 190.304Q83.232 190.176 83.224 190.05599999999998Q83.21600000000001 189.936 83.21600000000001 189.824Q83.21600000000001 189.68 83.224 189.536Q83.232 189.392 83.248 189.248Q83.328 188.512 83.624 187.808Q83.92 187.104 84.464 186.576Q85.12 185.952 85.936 185.768Q86.75200000000001 185.584 87.632 185.584L91.68 185.568V193.696ZM88.288 192.256H89.44V187.376Q89.296 187.392 89.15200000000002 187.392Q89.00800000000001 187.392 88.864 187.376Q88.75200000000001 187.376 88.648 187.376Q88.544 187.376 88.44800000000001 187.376Q87.408 187.36 86.52000000000001 187.664Q85.632 187.968 85.552 189.376Q85.552 189.472 85.54400000000001 189.56799999999998Q85.536 189.664 85.536 189.76Q85.52 190.368 85.688 190.952Q85.85600000000001 191.536 86.4 191.92Q86.688 192.128 87.03200000000001 192.192Q87.376 192.256 87.72800000000001 192.272Q87.84 192.272 87.944 192.272Q88.048 192.272 88.144 192.272Q88.19200000000001 192.272 88.224 192.272Q88.256 192.272 88.288 192.272ZM93.536 182.512H95.74400000000001V185.568H97.72800000000001Q99.36000000000001 185.6 100.29600000000002 186.24Q101.23200000000001 186.88 101.248 188.672V194.0H99.00800000000001V188.912Q99.00800000000001 188.112 98.68800000000002 187.776Q98.36800000000001 187.44 97.52000000000001 187.44L95.74400000000001 187.424V194.0H93.536V182.512ZM105.50400000000002 194.0H103.168V185.568H105.50400000000002V194.0ZM105.50400000000002 184.608H103.168V182.512H105.50400000000002V184.608ZM109.76000000000002 184.608H107.424V182.512H109.76000000000002V184.608ZM106.33600000000001 195.264Q107.02400000000002 195.248 107.21600000000001 194.784Q107.40800000000002 194.32 107.424 193.792Q107.424 193.728 107.424 193.656Q107.424 193.584 107.424 193.52V185.568H109.76000000000002V193.584Q109.76000000000002 193.76 109.75200000000001 193.91199999999998Q109.74400000000001 194.064 109.74400000000001 194.24Q109.69600000000001 194.8 109.52000000000001 195.352Q109.34400000000001 195.904 108.912 196.32Q108.41600000000001 196.8 107.792 196.928Q107.168 197.056 106.51200000000001 197.056Q106.38400000000001 197.056 106.22400000000002 197.056Q106.06400000000001 197.056 105.92000000000002 197.056Q105.77600000000001 197.04 105.64000000000001 197.04Q105.50400000000002 197.04 105.37600000000002 197.04L105.36000000000001 195.264H106.33600000000001ZM111.74400000000001 182.512H113.96800000000002V189.61599999999999L117.552 185.568H120.36800000000001L116.46400000000001 189.696L120.36800000000001 194.0H117.37600000000002L113.96800000000002 189.904V194.0H111.74400000000001V182.512ZM123.60000000000002 194.0H121.28000000000002V182.512H123.60000000000002V194.0ZM125.504 185.568H134.048Q135.68 185.6 136.608 186.24Q137.536 186.88 137.55200000000002 188.672V194.0H135.312V188.944Q135.312 187.76 134.808 187.576Q134.304 187.392 133.29600000000002 187.424Q133.13600000000002 187.44 132.96800000000002 187.44Q132.8 187.44 132.62400000000002 187.44V194.0H130.352V187.424H127.74400000000001V194.0H125.504V185.568ZM139.53600000000003 185.568H143.728Q145.39200000000002 185.584 146.32000000000002 186.224Q147.24800000000002 186.864 147.24800000000002 188.672V194.0H145.02400000000003V188.928Q145.02400000000003 188.048 144.73600000000005 187.744Q144.44800000000004 187.44 143.55200000000002 187.44L141.76000000000002 187.424V194.0H139.53600000000003V185.568ZM156.27200000000002 192.992Q155.66400000000002 193.6 154.80800000000002 193.88799999999998Q153.95200000000003 194.176 153.04000000000002 194.176Q152.12800000000001 194.176 151.28000000000003 193.88799999999998Q150.43200000000002 193.6 149.824 193.008Q149.20000000000002 192.4 148.88800000000003 191.55200000000002Q148.57600000000002 190.704 148.57600000000002 189.808Q148.57600000000002 188.912 148.88800000000003 188.06400000000002Q149.20000000000002 187.216 149.824 186.608Q150.43200000000002 186.016 151.288 185.72Q152.144 185.424 153.056 185.424Q153.95200000000003 185.424 154.80800000000002 185.72Q155.66400000000002 186.016 156.27200000000002 186.608Q156.89600000000002 187.216 157.20800000000003 188.06400000000002Q157.52 188.912 157.52 189.808Q157.52 190.704 157.20800000000003 191.55200000000002Q156.89600000000002 192.4 156.27200000000002 193.008ZM152.288 192.208Q152.4 192.256 152.50400000000002 192.288Q152.608 192.32 152.704 192.336Q153.472 192.448 154.144 192.048Q154.81600000000003 191.648 155.04000000000002 190.88Q155.12 190.608 155.16000000000003 190.296Q155.20000000000002 189.984 155.20000000000002 189.664Q155.168 188.96 154.864 188.328Q154.56 187.696 153.888 187.408Q153.74400000000003 187.344 153.584 187.312Q153.424 187.28 153.28000000000003 187.264Q152.544 187.2 151.904 187.6Q151.264 188.0 151.04000000000002 188.72Q150.96 188.992 150.92000000000002 189.288Q150.88000000000002 189.584 150.89600000000002 189.872Q150.912 190.624 151.24 191.288Q151.568 191.952 152.288 192.224ZM158.89600000000002 185.568H163.18400000000003Q165.072 185.584 166.13600000000002 186.656Q167.20000000000002 187.728 167.28000000000003 189.584Q167.328 190.432 167.12 191.248Q166.912 192.064 166.38400000000001 192.72Q165.74400000000003 193.552 164.88000000000002 193.776Q164.01600000000002 194.0 163.04000000000002 194.0H161.12V197.04H158.89600000000002V185.568ZM161.12 187.392V192.192Q161.23200000000003 192.208 161.336 192.208Q161.44000000000003 192.208 161.55200000000002 192.208Q163.08800000000002 192.224 164.048 191.89600000000002Q165.008 191.568 164.96 189.568Q164.912 187.888 164.0 187.632Q163.08800000000002 187.376 161.80800000000002 187.392Q161.632 187.408 161.464 187.408Q161.29600000000002 187.408 161.12 187.408ZM174.25600000000003 197.04V194.0H172.35200000000003Q171.37600000000003 194.0 170.51200000000003 193.776Q169.64800000000002 193.552 168.99200000000002 192.72Q168.46400000000003 192.064 168.25600000000003 191.248Q168.04800000000003 190.432 168.09600000000003 189.584Q168.19200000000004 187.728 169.24800000000005 186.656Q170.30400000000003 185.584 172.19200000000004 185.584L176.48000000000002 185.568V197.04H174.25600000000003ZM172.89600000000002 192.192H174.25600000000003V187.392Q174.09600000000003 187.408 173.92800000000003 187.39999999999998Q173.76000000000002 187.392 173.60000000000002 187.392Q173.58400000000003 187.392 173.56800000000004 187.392Q173.55200000000002 187.392 173.53600000000003 187.392Q172.44800000000004 187.36 171.51200000000003 187.57600000000002Q170.57600000000002 187.792 170.44800000000004 189.2Q170.43200000000002 189.376 170.42400000000004 189.56Q170.41600000000003 189.744 170.41600000000003 189.92Q170.43200000000002 190.288 170.512 190.64Q170.592 190.992 170.76800000000003 191.312Q171.13600000000002 191.952 171.68 192.072Q172.22400000000002 192.192 172.89600000000002 192.208ZM178.41600000000003 185.568H182.16000000000003Q183.96800000000002 185.584 184.25600000000003 186.4Q184.544 187.216 184.52800000000002 188.592Q184.52800000000002 188.72 184.52800000000002 188.848Q184.52800000000002 188.976 184.52800000000002 189.12L182.4 189.104Q182.4 189.024 182.4 188.928Q182.4 188.832 182.4 188.752Q182.4 187.584 182.216 187.392Q182.032 187.2 180.88000000000002 187.2Q180.81600000000003 187.2 180.76000000000002 187.2Q180.704 187.2 180.64000000000001 187.2V194.0H178.41600000000003V185.568ZM185.80800000000002 192.24H190.49600000000004Q190.52800000000002 192.256 190.56000000000003 192.256Q190.59200000000004 192.256 190.62400000000002 192.256Q191.02400000000003 192.24 191.36 192.07999999999998Q191.69600000000003 191.92 191.69600000000003 191.424Q191.69600000000003 190.96 191.37600000000003 190.8Q191.05600000000004 190.64 190.68800000000002 190.608Q190.64000000000001 190.608 190.59200000000004 190.608Q190.54400000000004 190.608 190.49600000000004 190.608L188.57600000000002 190.592Q187.23200000000003 190.608 186.45600000000002 190.224Q185.68000000000004 189.84 185.66400000000002 188.272Q185.64800000000002 186.8 186.46400000000003 186.192Q187.28000000000003 185.584 188.64000000000001 185.584L193.42400000000004 185.568V187.328H189.48800000000003Q189.44000000000003 187.344 189.40000000000003 187.344Q189.36 187.344 189.31200000000004 187.344Q189.20000000000002 187.344 189.096 187.344Q188.99200000000002 187.344 188.86400000000003 187.344Q188.57600000000002 187.36 188.312 187.472Q188.04800000000003 187.584 187.96800000000002 187.888Q187.84000000000003 188.448 188.19200000000004 188.656Q188.54400000000004 188.864 189.00800000000004 188.864L191.02400000000003 188.848Q192.20800000000003 188.864 193.00800000000004 189.4Q193.80800000000002 189.936 193.85600000000002 191.248Q193.85600000000002 191.264 193.85600000000002 191.272Q193.85600000000002 191.28 193.85600000000002 191.296Q193.872 192.32 193.27200000000002 193.16Q192.67200000000003 194.0 191.55200000000002 194.0H185.80800000000002V192.24ZM194.608 185.568H196.17600000000002V182.512H198.4V185.568H200.752V187.248H198.4V190.656Q198.38400000000001 191.92 198.976 192.128Q199.568 192.336 200.608 192.336Q200.64000000000001 192.336 200.68 192.336Q200.72000000000003 192.336 200.752 192.336V194.0H198.72000000000003Q197.45600000000002 194.0 196.81600000000003 193.296Q196.17600000000002 192.592 196.17600000000002 191.376V187.248H194.608V185.568ZM209.69600000000003 194.0H205.50400000000002Q203.888 194.0 202.94400000000002 193.36Q202.0 192.72 202.0 190.928V185.568H204.22400000000002V190.736Q204.22400000000002 191.584 204.544 191.872Q204.864 192.16 205.68 192.16L207.472 192.144V185.568H209.69600000000003V194.0ZM210.752 185.568H213.24800000000002L215.58400000000003 191.552L218.06400000000002 185.568H220.46400000000003L216.72000000000003 194.0H214.32000000000002L210.752 185.568ZM227.424 188.24 225.66400000000002 194.0H223.20000000000002L220.27200000000002 185.568H222.592L224.448 191.472L226.288 185.568H228.656L230.52800000000002 191.472L232.38400000000001 185.568H234.672L231.824 194.0H229.264L227.424 188.24ZM237.61599999999999 189.792 234.48 185.568H237.072L238.88 188.112L240.736 185.568H243.296L240.176 189.84L243.248 194.0H240.656L238.88 191.552L237.088 194.0H234.512L237.61599999999999 189.792ZM247.888 192.144H249.68V185.568H251.90400000000002V193.776Q251.90400000000002 195.392 251.15200000000002 196.216Q250.4 197.04 248.73600000000002 197.04H244.36800000000002V195.328H248.352Q249.024 195.312 249.36 194.99200000000002Q249.69600000000003 194.672 249.68 194.0H247.71200000000002Q246.0 194.0 245.10399999999998 193.312Q244.208 192.624 244.208 190.784V185.568H246.41600000000003V190.592Q246.41600000000003 191.52 246.69600000000003 191.84Q246.976 192.16 247.888 192.16ZM253.66400000000002 192.192 258.656 187.392H253.66400000000002V185.568H261.56800000000004V187.392L256.576 192.192H261.56800000000004V194.0H253.66400000000002V192.192ZM283.184 191.392Q283.61600000000004 190.928 283.84000000000003 190.072Q284.064 189.216 284.064 188.288Q284.064 187.36 283.84000000000003 186.50400000000002Q283.61600000000004 185.648 283.184 185.168Q282.78400000000005 184.72 282.15200000000004 184.49599999999998Q281.52000000000004 184.272 280.83200000000005 184.288Q280.17600000000004 184.288 279.54400000000004 184.50400000000002Q278.91200000000003 184.72 278.512 185.168Q278.08000000000004 185.648 277.86400000000003 186.50400000000002Q277.648 187.36 277.648 188.288Q277.648 189.216 277.86400000000003 190.072Q278.08000000000004 190.928 278.512 191.408Q278.928 191.856 279.552 192.072Q280.17600000000004 192.288 280.848 192.288Q281.52000000000004 192.288 282.15200000000004 192.06400000000002Q282.78400000000005 191.84 283.184 191.408ZM278.8 193.936Q277.488 193.616 276.664 192.864Q275.84000000000003 192.112 275.44 190.8Q275.28000000000003 190.224 275.192 189.584Q275.10400000000004 188.944 275.10400000000004 188.272Q275.10400000000004 187.61599999999999 275.192 186.976Q275.28000000000003 186.336 275.44 185.76Q275.84000000000003 184.48 276.664 183.704Q277.488 182.928 278.8 182.608Q279.312 182.48 279.856 182.42399999999998Q280.40000000000003 182.368 280.96000000000004 182.368Q281.456 182.368 281.952 182.43200000000002Q282.44800000000004 182.496 282.928 182.608Q284.22400000000005 182.928 285.05600000000004 183.704Q285.88800000000003 184.48 286.27200000000005 185.76Q286.44800000000004 186.336 286.528 186.976Q286.608 187.61599999999999 286.608 188.272Q286.608 188.944 286.528 189.584Q286.44800000000004 190.224 286.27200000000005 190.8Q285.88800000000003 192.08 285.05600000000004 192.856Q284.22400000000005 193.632 282.928 193.952Q282.44800000000004 194.048 281.944 194.10399999999998Q281.44 194.16 280.944 194.176Q280.384 194.176 279.848 194.12Q279.312 194.064 278.8 193.952ZM287.88800000000003 182.512H290.416V194.0H287.88800000000003V182.512ZM291.712 190.544Q291.712 189.632 291.96000000000004 188.904Q292.208 188.176 293.088 187.68Q293.664 187.36 294.336 187.272Q295.00800000000004 187.184 295.696 187.184Q295.88800000000003 187.184 296.072 187.184Q296.25600000000003 187.184 296.44800000000004 187.184Q296.8 187.2 297.144 187.2Q297.488 187.2 297.808 187.184Q298.49600000000004 187.152 298.832 186.728Q299.168 186.304 299.088 185.61599999999999Q298.992 184.816 298.432 184.664Q297.872 184.512 297.216 184.512L291.712 184.496V182.512H297.728Q297.808 182.528 297.896 182.528Q297.98400000000004 182.528 298.08 182.528Q298.16 182.528 298.24 182.528Q298.32 182.528 298.40000000000003 182.528Q298.91200000000003 182.528 299.41600000000005 182.59199999999998Q299.92 182.656 300.368 182.912Q301.104 183.312 301.432 184.04000000000002Q301.76 184.768 301.808 185.552Q301.808 185.584 301.808 185.608Q301.808 185.632 301.808 185.648Q301.88800000000003 187.392 301.0 188.32Q300.112 189.248 298.35200000000003 189.248L296.176 189.232Q294.752 189.248 294.52 189.89600000000002Q294.288 190.544 294.30400000000003 191.664Q294.30400000000003 191.744 294.30400000000003 191.848Q294.30400000000003 191.952 294.30400000000003 192.048L301.76 192.032V194.0H291.712V190.544ZM302.36800000000005 192.032H307.10400000000004Q307.84000000000003 192.048 308.408 191.784Q308.976 191.52 308.976 190.64Q308.976 189.792 308.4 189.512Q307.824 189.232 307.10400000000004 189.232L303.28000000000003 189.216V187.248H307.04Q307.76000000000005 187.264 308.336 187.008Q308.91200000000003 186.752 308.91200000000003 185.888Q308.928 185.008 308.34400000000005 184.752Q307.76000000000005 184.496 307.04 184.496L302.36800000000005 184.48V182.512H307.88800000000003Q309.12 182.544 310.136 182.89600000000002Q311.15200000000004 183.248 311.536 184.576Q311.904 185.808 311.488 186.664Q311.072 187.52 310.12800000000004 188.256Q310.64000000000004 188.56 311.024 188.94400000000002Q311.408 189.328 311.56800000000004 189.936Q311.648 190.192 311.68000000000006 190.45600000000002Q311.71200000000005 190.72 311.696 190.992Q311.696 191.216 311.664 191.44Q311.632 191.664 311.584 191.872Q311.28000000000003 193.072 310.27200000000005 193.536Q309.264 194.0 308.12800000000004 194.0H302.36800000000005V192.032ZM320.16 191.904H312.76800000000003V189.68L319.52000000000004 182.496H322.576V189.936H324.14400000000006V191.904H322.576V194.0H320.16V191.904ZM320.16 184.96 315.52000000000004 189.936H320.16V184.96ZM325.15200000000004 192.032H330.72Q331.47200000000004 192.048 331.9680000000001 191.76Q332.46400000000006 191.472 332.46400000000006 190.608Q332.46400000000006 189.744 331.97600000000006 189.45600000000002Q331.48800000000006 189.168 330.72 189.168L325.15200000000004 189.152V182.512H334.70400000000006V184.48H327.696V187.184H331.80800000000005Q333.42400000000004 187.2 334.36 188.072Q335.29600000000005 188.944 335.29600000000005 190.608Q335.28000000000003 192.512 334.144 193.256Q333.00800000000004 194.0 331.26400000000007 194.0H325.15200000000004V192.032ZM342.96000000000004 187.36Q344.72 187.376 345.88800000000003 188.096Q347.05600000000004 188.816 346.944 190.832Q346.848 192.592 345.51200000000006 193.312Q344.17600000000004 194.032 342.59200000000004 194.128Q341.98400000000004 194.176 341.37600000000003 194.136Q340.76800000000003 194.096 340.24 194.016Q337.632 193.632 336.776 191.8Q335.92 189.968 336.096 187.568Q336.32000000000005 184.736 337.928 183.632Q339.536 182.528 342.208 182.528L346.30400000000003 182.512V184.48H342.144Q340.49600000000004 184.496 339.736 185.10399999999998Q338.976 185.712 338.86400000000003 187.376L342.96000000000004 187.36ZM342.81600000000003 189.328H338.86400000000003Q338.86400000000003 189.424 338.872 189.50400000000002Q338.88 189.584 338.88 189.664Q338.944 190.304 339.16 190.89600000000002Q339.37600000000003 191.488 340.0 191.824Q340.368 192.016 340.832 192.12Q341.29600000000005 192.224 341.776 192.24Q342.192 192.256 342.592 192.208Q342.992 192.16 343.32800000000003 192.048Q343.76000000000005 191.92 344.00800000000004 191.536Q344.25600000000003 191.152 344.25600000000003 190.72Q344.288 190.208 343.944 189.776Q343.6 189.344 342.81600000000003 189.344ZM354.59200000000004 184.48H347.232V182.512H357.408V184.48L350.512 194.0H347.44000000000005L354.59200000000004 184.48ZM362.41600000000005 184.48Q361.696 184.496 361.12 184.752Q360.54400000000004 185.008 360.54400000000004 185.888Q360.54400000000004 186.752 361.12 187.008Q361.696 187.264 362.41600000000005 187.264L364.16 187.248Q364.88000000000005 187.264 365.456 187.008Q366.03200000000004 186.752 366.03200000000004 185.888Q366.04800000000006 185.008 365.46400000000006 184.752Q364.88000000000005 184.496 364.16 184.496L362.41600000000005 184.48ZM362.40000000000003 189.216Q361.66400000000004 189.232 361.0880000000001 189.512Q360.51200000000006 189.792 360.5280000000001 190.64Q360.51200000000006 191.52 361.0880000000001 191.784Q361.66400000000004 192.048 362.40000000000003 192.048L364.16 192.032Q364.88000000000005 192.048 365.456 191.784Q366.03200000000004 191.52 366.03200000000004 190.64Q366.03200000000004 189.792 365.456 189.512Q364.88000000000005 189.232 364.16 189.232L362.40000000000003 189.216ZM359.47200000000004 188.24Q358.54400000000004 187.536 358.1360000000001 186.656Q357.72800000000007 185.776 358.0640000000001 184.576Q358.4320000000001 183.248 359.46400000000006 182.89600000000002Q360.49600000000004 182.544 361.71200000000005 182.528L364.81600000000003 182.512Q366.0160000000001 182.544 367.07200000000006 182.89600000000002Q368.12800000000004 183.248 368.4800000000001 184.576Q368.5280000000001 184.784 368.56000000000006 184.98399999999998Q368.59200000000004 185.184 368.59200000000004 185.392Q368.60800000000006 185.744 368.53600000000006 186.088Q368.46400000000006 186.432 368.33600000000007 186.752Q368.14400000000006 187.232 367.81600000000003 187.584Q367.48800000000006 187.936 367.07200000000006 188.256Q367.63200000000006 188.544 368.0400000000001 188.92000000000002Q368.44800000000004 189.296 368.6240000000001 189.936Q368.68800000000005 190.16 368.72 190.40800000000002Q368.75200000000007 190.656 368.75200000000007 190.896Q368.75200000000007 191.152 368.72800000000007 191.39999999999998Q368.70400000000006 191.648 368.64000000000004 191.872Q368.30400000000003 193.088 367.32000000000005 193.54399999999998Q366.33600000000007 194.0 365.184 194.0H361.37600000000003Q360.208 194.0 359.22400000000005 193.54399999999998Q358.24000000000007 193.088 357.90400000000005 191.872Q357.84000000000003 191.648 357.81600000000003 191.39999999999998Q357.79200000000003 191.152 357.79200000000003 190.896Q357.79200000000003 190.656 357.83200000000005 190.40800000000002Q357.87200000000007 190.16 357.93600000000004 189.936Q358.1120000000001 189.296 358.51200000000006 188.928Q358.91200000000003 188.56 359.47200000000004 188.256ZM373.44000000000005 189.152Q371.696 189.168 370.52000000000004 188.448Q369.34400000000005 187.728 369.456 185.728Q369.552 183.968 370.88 183.24Q372.208 182.512 373.776 182.4Q374.40000000000003 182.352 375.016 182.392Q375.632 182.432 376.16 182.512Q378.76800000000003 182.912 379.624 184.752Q380.48 186.592 380.288 188.976Q380.08000000000004 191.792 378.47200000000004 192.89600000000002Q376.86400000000003 194.0 374.192 194.0H370.08000000000004V192.032H374.25600000000003Q375.85600000000005 192.064 376.63200000000006 191.416Q377.408 190.768 377.536 189.168L373.44000000000005 189.152ZM373.584 187.2H377.536Q377.536 187.12 377.528 187.03199999999998Q377.52000000000004 186.944 377.504 186.848Q377.44000000000005 186.208 377.22400000000005 185.624Q377.00800000000004 185.04 376.40000000000003 184.72Q376.064 184.544 375.60800000000006 184.448Q375.15200000000004 184.352 374.656 184.336Q374.22400000000005 184.32 373.80800000000005 184.36Q373.39200000000005 184.4 373.072 184.496Q372.624 184.64 372.384 185.016Q372.144 185.392 372.12800000000004 185.824Q372.12800000000004 186.336 372.47200000000004 186.776Q372.81600000000003 187.216 373.584 187.216ZM404.17600000000004 189.28Q403.88800000000003 190.416 403.384 191.464Q402.88000000000005 192.512 401.90400000000005 193.232Q401.24800000000005 193.696 400.432 193.928Q399.61600000000004 194.16 398.76800000000003 194.208Q398.22400000000005 194.224 397.696 194.176Q397.16800000000006 194.128 396.672 194.016Q395.744 193.824 395.024 193.192Q394.30400000000003 192.56 394.12800000000004 191.584Q393.95200000000006 190.464 394.384 189.728Q394.81600000000003 188.992 395.648 188.4Q395.24800000000005 188.096 394.91200000000003 187.768Q394.576 187.44 394.36800000000005 186.96Q394.22400000000005 186.64 394.15200000000004 186.288Q394.08000000000004 185.936 394.08000000000004 185.568Q394.064 185.44 394.08000000000004 185.296Q394.09600000000006 185.152 394.112 185.008Q394.33600000000007 183.664 395.32000000000005 183.096Q396.30400000000003 182.528 397.552 182.528L401.42400000000004 182.512V184.64H398.16Q397.42400000000004 184.656 396.86400000000003 185.05599999999998Q396.30400000000003 185.456 396.48 186.304Q396.624 186.976 397.12 187.152Q397.61600000000004 187.328 398.19200000000006 187.328Q398.27200000000005 187.328 398.3520000000001 187.328Q398.4320000000001 187.328 398.51200000000006 187.328Q398.56000000000006 187.328 398.6 187.328Q398.64000000000004 187.328 398.68800000000005 187.328V189.28Q398.672 189.296 398.65600000000006 189.296Q398.64000000000004 189.296 398.624 189.296Q398.60800000000006 189.296 398.576 189.296Q398.54400000000004 189.296 398.51200000000006 189.296Q397.87200000000007 189.296 397.31200000000007 189.42399999999998Q396.75200000000007 189.552 396.59200000000004 190.368Q396.48 190.944 396.80000000000007 191.44Q397.12000000000006 191.936 397.66400000000004 192.096Q397.88800000000003 192.16 398.1360000000001 192.176Q398.38400000000007 192.192 398.624 192.192Q399.15200000000004 192.16 399.66400000000004 191.96800000000002Q400.17600000000004 191.776 400.56000000000006 191.408Q400.992 191.008 401.216 190.496Q401.44000000000005 189.984 401.6 189.456Q401.61600000000004 189.408 401.624 189.368Q401.63200000000006 189.328 401.648 189.296L400.03200000000004 189.28V187.312H405.6V189.28H404.17600000000004ZM406.70400000000006 192.0H408.624V194.0H406.70400000000006V192.0ZM410.76800000000003 195.488V194.0H409.87200000000007V192.0H411.79200000000003Q411.79200000000003 192.176 411.79200000000003 192.32799999999997Q411.79200000000003 192.48 411.79200000000003 192.608Q411.80800000000005 193.248 411.77600000000007 193.728Q411.744 194.208 411.48800000000006 194.656Q411.37600000000003 194.864 411.20000000000005 195.06400000000002Q411.02400000000006 195.264 410.76800000000003 195.488ZM413.71200000000005 191.936H416.12800000000004V194.0H413.71200000000005V191.936ZM413.696 182.512H416.1120000000001V191.056H413.696V182.512ZM420.68800000000005 190.88V191.168H418.064Q418.064 190.224 418.22400000000005 189.32799999999997Q418.384 188.432 419.24800000000005 187.824Q419.824 187.44 420.504 187.32Q421.184 187.2 421.88800000000003 187.184Q422.112 187.184 422.32800000000003 187.192Q422.54400000000004 187.2 422.76800000000003 187.2Q423.02400000000006 187.216 423.27200000000005 187.216Q423.52000000000004 187.216 423.76000000000005 187.216Q424.48 187.2 424.928 186.88Q425.37600000000003 186.56 425.32800000000003 185.76Q425.28000000000003 184.896 424.72800000000007 184.704Q424.17600000000004 184.512 423.44000000000005 184.512L417.824 184.496V182.512H423.968Q424.03200000000004 182.528 424.0880000000001 182.528Q424.14400000000006 182.528 424.208 182.528Q424.40000000000003 182.528 424.6 182.528Q424.8 182.528 425.00800000000004 182.544Q425.42400000000004 182.56 425.832 182.64Q426.24 182.72 426.60800000000006 182.912Q427.32800000000003 183.296 427.648 184.00799999999998Q427.968 184.72 428.016 185.488Q428.03200000000004 185.536 428.03200000000004 185.576Q428.03200000000004 185.61599999999999 428.03200000000004 185.664Q428.112 187.376 427.22400000000005 188.32Q426.336 189.264 424.576 189.264L422.56000000000006 189.248Q421.68000000000006 189.264 421.1840000000001 189.59199999999998Q420.68800000000005 189.92 420.68800000000005 190.896ZM418.08000000000004 191.968H420.68800000000005V194.0H418.08000000000004V191.968Z" fill="#6b7280"/></svg>