<svg xmlns="http://www.w3.org/2000/svg" viewBox="0 0 560.5 222.0" width="561" height="222"><path d="M34.3125 76.0 32.875 74.5625 31.4375 73.125 30.0 71.6875V50.125H38.625V76.0ZM44.509765625 76.0 43.072265625 74.5625 41.634765625 73.125 40.197265625 71.6875V50.125H66.072265625V58.75H48.822265625V67.375H66.072265625V76.0ZM71.95703125 76.0 70.51953125 74.5625 69.08203125 73.125 67.64453125 71.6875V50.125H93.51953125V76.0H89.20703125L87.76953125 74.5625L86.33203125 73.125L84.89453125 71.6875V58.75H76.26953125V67.375H83.45703125V76.0ZM99.404296875 76.0 97.966796875 74.5625 96.529296875 73.125 95.091796875 71.6875V50.125H120.966796875V58.75H103.716796875V76.0ZM126.8515625 76.0 125.4140625 74.5625 123.9765625 73.125 122.5390625 71.6875V50.125H148.4140625V76.0H144.1015625L142.6640625 74.5625L141.2265625 73.125L139.7890625 71.6875V58.75H131.1640625V67.375H138.3515625V76.0ZM154.298828125 76.0 152.861328125 74.5625 151.423828125 73.125 149.986328125 71.6875V67.375H167.236328125V65.9375H154.298828125L152.861328125 64.5L151.423828125 63.0625L149.986328125 61.625V50.125H175.861328125V58.75H158.611328125V60.1875H175.861328125V76.0Z" fill="#12151a"/><path d="M32.15625 127.0 31.4375 126.28125 30.71875 125.5625 30.0 124.84375V114.0625H34.3125V127.0ZM37.2548828125 127.0 36.5361328125 126.28125 35.8173828125 125.5625 35.0986328125 124.84375V114.0625H48.0361328125V118.375H39.4111328125V122.6875H48.0361328125V127.0ZM50.978515625 127.0 50.259765625 126.28125 49.541015625 125.5625 48.822265625 124.84375V114.0625H61.759765625V127.0H59.603515625L58.884765625 126.28125L58.166015625 125.5625L57.447265625 124.84375V118.375H53.134765625V122.6875H56.728515625V127.0ZM64.7021484375 127.0 63.9833984375 126.28125 63.2646484375 125.5625 62.5458984375 124.84375V114.0625H75.4833984375V118.375H66.8583984375V127.0ZM78.42578125 127.0 77.70703125 126.28125 76.98828125 125.5625 76.26953125 124.84375V114.0625H89.20703125V127.0H87.05078125L86.33203125 126.28125L85.61328125 125.5625L84.89453125 124.84375V118.375H80.58203125V122.6875H84.17578125V127.0ZM92.1494140625 127.0 91.4306640625 126.28125 90.7119140625 125.5625 89.9931640625 124.84375V122.6875H98.6181640625V121.96875H92.1494140625L91.4306640625 121.25L90.7119140625 120.53125L89.9931640625 119.8125V114.0625H102.9306640625V118.375H94.3056640625V119.09375H102.9306640625V127.0ZM118.810546875 122.6875V121.96875H114.498046875V122.6875ZM112.341796875 127.0 111.623046875 126.28125 110.904296875 125.5625 110.185546875 124.84375V114.0625H114.498046875V117.65625H123.123046875V127.0ZM126.0654296875 127.0 125.3466796875 126.28125 124.6279296875 125.5625 123.9091796875 124.84375V114.0625H128.2216796875V122.6875H132.5341796875V114.0625H136.8466796875V127.0ZM139.7890625 127.0 139.0703125 126.28125 138.3515625 125.5625 137.6328125 124.84375V114.0625H150.5703125V118.375H141.9453125V127.0ZM153.5126953125 127.0 152.7939453125 126.28125 152.0751953125 125.5625 151.3564453125 124.84375V114.0625H164.2939453125V127.0H162.1376953125L161.4189453125 126.28125L160.7001953125 125.5625L159.9814453125 124.84375V118.375H155.6689453125V127.0ZM167.236328125 127.0 166.517578125 126.28125 165.798828125 125.5625 165.080078125 124.84375V122.6875H173.705078125V121.96875H167.236328125L166.517578125 121.25L165.798828125 120.53125L165.080078125 119.8125V114.0625H178.017578125V118.375H169.392578125V119.09375H178.017578125V127.0ZM193.8974609375 122.6875V121.96875H189.5849609375V122.6875ZM187.4287109375 127.0 186.7099609375 126.28125 185.9912109375 125.5625 185.2724609375 124.84375V114.0625H189.5849609375V117.65625H198.2099609375V127.0ZM201.15234375 127.0 200.43359375 126.28125 199.71484375 125.5625 198.99609375 124.84375V114.0625H211.93359375V118.375H203.30859375V127.0ZM214.8759765625 127.0 214.1572265625 126.28125 213.4384765625 125.5625 212.7197265625 124.84375V114.0625H217.0322265625V127.0ZM219.974609375 127.0 219.255859375 126.28125 218.537109375 125.5625 217.818359375 124.84375V114.0625H230.755859375V118.375H222.130859375V122.6875H226.443359375V121.96875L225.724609375 121.25L225.005859375 120.53125L224.287109375 119.8125V119.09375H230.755859375V127.0ZM233.6982421875 127.0 232.9794921875 126.28125 232.2607421875 125.5625 231.5419921875 124.84375V114.0625H235.8544921875V119.09375H240.1669921875V114.0625H244.4794921875V127.0H242.3232421875L241.6044921875 126.28125L240.8857421875 125.5625L240.1669921875 124.84375V121.96875H235.8544921875V127.0ZM251.734375 127.0 251.015625 126.28125 250.296875 125.5625 249.578125 124.84375V118.375H247.421875L246.703125 117.65625L245.984375 116.9375L245.265625 116.21875V114.0625H258.203125V118.375H253.890625V127.0ZM267.6142578125 127.0 266.8955078125 126.28125 266.1767578125 125.5625 265.4580078125 124.84375V114.0625H278.3955078125V127.0H276.2392578125L275.5205078125 126.28125L274.8017578125 125.5625L274.0830078125 124.84375V118.375H269.7705078125V122.6875H273.3642578125V127.0ZM287.806640625 122.6875V121.96875H283.494140625V122.6875ZM281.337890625 127.0 280.619140625 126.28125 279.900390625 125.5625 279.181640625 124.84375V114.0625H283.494140625V117.65625H292.119140625V127.0ZM301.5302734375 122.6875V118.375H297.2177734375V122.6875ZM295.0615234375 127.0 294.3427734375 126.28125 293.6240234375 125.5625 292.9052734375 124.84375V114.0625H305.8427734375V127.0ZM308.78515625 127.0 308.06640625 126.28125 307.34765625 125.5625 306.62890625 124.84375V114.0625H310.94140625V122.6875L311.66015625 121.96875L312.37890625 121.25L313.09765625 120.53125L313.81640625 119.8125L314.53515625 119.09375L315.25390625 118.375V114.0625H319.56640625V119.09375L318.84765625 119.8125L318.12890625 120.53125L317.41015625 121.25L316.69140625 121.96875L315.97265625 122.6875L315.25390625 123.40625L314.53515625 124.125L313.81640625 124.84375L313.09765625 125.5625L312.37890625 126.28125L311.66015625 127.0ZM328.9775390625 119.09375V118.375H324.6650390625V119.09375ZM322.5087890625 127.0 321.7900390625 126.28125 321.0712890625 125.5625 320.3525390625 124.84375V114.0625H333.2900390625V121.96875H324.6650390625V122.6875H333.2900390625V127.0ZM342.701171875 127.0 341.982421875 126.28125 341.263671875 125.5625 340.544921875 124.84375V114.0625H353.482421875V127.0H351.326171875L350.607421875 126.28125L349.888671875 125.5625L349.169921875 124.84375V118.375H348.451171875V127.0H347.013671875L346.294921875 126.28125L345.576171875 125.5625V118.375H344.857421875V127.0ZM362.8935546875 122.6875V118.375H358.5810546875V122.6875ZM356.4248046875 127.0 355.7060546875 126.28125 354.9873046875 125.5625 354.2685546875 124.84375V114.0625H367.2060546875V127.0ZM376.6171875 122.6875V121.96875H372.3046875V122.6875ZM370.1484375 127.0 369.4296875 126.28125 368.7109375 125.5625 367.9921875 124.84375V117.65625H376.6171875V114.0625H380.9296875V127.0ZM390.3408203125 119.09375V118.375H386.0283203125V119.09375ZM383.8720703125 127.0 383.1533203125 126.28125 382.4345703125 125.5625 381.7158203125 124.84375V114.0625H394.6533203125V121.96875H386.0283203125V122.6875H394.6533203125V127.0ZM397.595703125 127.0 396.876953125 126.28125 396.158203125 125.5625 395.439453125 124.84375V122.6875H404.064453125V121.96875H397.595703125L396.876953125 121.25L396.158203125 120.53125L395.439453125 119.8125V114.0625H408.376953125V118.375H399.751953125V119.09375H408.376953125V127.0ZM415.6318359375 127.0 414.9130859375 126.28125 414.1943359375 125.5625 413.4755859375 124.84375V118.375H411.3193359375L410.6005859375 117.65625L409.8818359375 116.9375L409.1630859375 116.21875V114.0625H422.1005859375V118.375H417.7880859375V127.0ZM431.51171875 122.6875V118.375H427.19921875V122.6875ZM425.04296875 127.0 424.32421875 126.28125 423.60546875 125.5625 422.88671875 124.84375V114.0625H435.82421875V127.0ZM445.2353515625 127.0 444.5166015625 126.28125 443.7978515625 125.5625 443.0791015625 124.84375V114.0625H447.3916015625V119.09375H451.7041015625V114.0625H456.0166015625V127.0H453.8603515625L453.1416015625 126.28125L452.4228515625 125.5625L451.7041015625 124.84375V121.96875H447.3916015625V127.0ZM465.427734375 119.09375V118.375H461.115234375V119.09375ZM458.958984375 127.0 458.240234375 126.28125 457.521484375 125.5625 456.802734375 124.84375V114.0625H469.740234375V121.96875H461.115234375V122.6875H469.740234375V127.0ZM472.6826171875 127.0 471.9638671875 126.28125 471.2451171875 125.5625 470.5263671875 124.84375V114.0625H474.8388671875V127.0ZM477.78125 127.0 477.0625 126.28125 476.34375 125.5625 475.625 124.84375V114.0625H488.5625V118.375H479.9375V122.6875H484.25V121.96875L483.53125 121.25L482.8125 120.53125L482.09375 119.8125V119.09375H488.5625V127.0ZM491.5048828125 127.0 490.7861328125 126.28125 490.0673828125 125.5625 489.3486328125 124.84375V114.0625H493.6611328125V119.09375H497.9736328125V114.0625H502.2861328125V127.0H500.1298828125L499.4111328125 126.28125L498.6923828125 125.5625L497.9736328125 124.84375V121.96875H493.6611328125V127.0ZM509.541015625 127.0 508.822265625 126.28125 508.103515625 125.5625 507.384765625 124.84375V118.375H505.228515625L504.509765625 117.65625L503.791015625 116.9375L503.072265625 116.21875V114.0625H516.009765625V118.375H511.697265625V127.0ZM518.9521484375 127.0 518.2333984375 126.28125 517.5146484375 125.5625 516.7958984375 124.84375V122.6875H525.4208984375V121.96875H518.9521484375L518.2333984375 121.25L517.5146484375 120.53125L516.7958984375 119.8125V114.0625H529.7333984375V118.375H521.1083984375V119.09375H529.7333984375V127.0Z" fill="#3a3f47"/><path d="M31.5 165.0 31.0 164.5 30.5 164.0 30.0 163.5V156.0H39.0V165.0H37.5L37.0 164.5L36.5 164.0L36.0 163.5V159.0H33.0V162.0H35.5V165.0ZM45.546875 162.0V161.5H42.546875V162.0ZM41.046875 165.0 40.546875 164.5 40.046875 164.0 39.546875 163.5V156.0H42.546875V158.5H48.546875V165.0ZM50.59375 165.0 50.09375 164.5 49.59375 164.0 49.09375 163.5V156.0H58.09375V159.0H52.09375V162.0H58.09375V165.0ZM64.640625 162.0V161.5H61.640625V162.0ZM60.140625 165.0 59.640625 164.5 59.140625 164.0 58.640625 163.5V158.5H64.640625V156.0H67.640625V165.0ZM74.1875 159.5V159.0H71.1875V159.5ZM69.6875 165.0 69.1875 164.5 68.6875 164.0 68.1875 163.5V156.0H77.1875V161.5H71.1875V162.0H77.1875V165.0ZM79.234375 165.0 78.734375 164.5 78.234375 164.0 77.734375 163.5V156.0H86.734375V159.0H80.734375V159.5H84.734375V161.5H80.734375V165.0ZM88.78125 165.0 88.28125 164.5 87.78125 164.0 87.28125 163.5V156.0H96.28125V159.0H90.28125V162.0H93.28125V161.5L92.78125 161.0L92.28125 160.5L91.78125 160.0V159.5H96.28125V165.0ZM98.328125 165.0 97.828125 164.5 97.328125 164.0 96.828125 163.5V156.0H99.828125V159.5H102.828125V156.0H105.828125V165.0H104.328125L103.828125 164.5L103.328125 164.0L102.828125 163.5V161.5H99.828125V165.0ZM107.875 165.0 107.375 164.5 106.875 164.0 106.375 163.5V156.0H109.375V165.0ZM111.421875 165.0 110.921875 164.5 110.421875 164.0 109.921875 163.5V162.0H115.921875V156.0H118.921875V165.0ZM120.96875 165.0 120.46875 164.5 119.96875 164.0 119.46875 163.5V156.0H122.46875V159.5H123.46875L123.96875 159.0L124.46875 158.5L124.96875 158.0L125.46875 157.5L125.96875 157.0L126.46875 156.5L126.96875 156.0H128.46875V158.0L127.96875 158.5L127.46875 159.0L126.96875 159.5L126.46875 160.0L125.96875 160.5L126.46875 161.0L126.96875 161.5L127.46875 162.0L127.96875 162.5L128.46875 163.0V165.0H126.96875L126.46875 164.5L125.96875 164.0L125.46875 163.5L124.96875 163.0L124.46875 162.5L123.96875 162.0L123.46875 161.5H122.46875V165.0ZM130.515625 165.0 130.015625 164.5 129.515625 164.0 129.015625 163.5V156.0H132.015625V162.0H138.015625V165.0ZM140.0625 165.0 139.5625 164.5 139.0625 164.0 138.5625 163.5V156.0H147.5625V165.0H146.0625L145.5625 164.5L145.0625 164.0L144.5625 163.5V159.0H144.0625V165.0H143.0625L142.5625 164.5L142.0625 164.0V159.0H141.5625V165.0ZM149.609375 165.0 149.109375 164.5 148.609375 164.0 148.109375 163.5V156.0H157.109375V165.0H155.609375L155.109375 164.5L154.609375 164.0L154.109375 163.5V159.0H151.109375V165.0ZM163.65625 162.0V159.0H160.65625V162.0ZM159.15625 165.0 158.65625 164.5 158.15625 164.0 157.65625 163.5V156.0H166.65625V165.0ZM173.203125 159.5V159.0H170.203125V159.5ZM168.703125 165.0 168.203125 164.5 167.703125 164.0 167.203125 163.5V156.0H176.203125V161.5H170.203125V165.0ZM182.75 162.0V159.0H179.75V162.0ZM178.25 165.0 177.75 164.5 177.25 164.0 176.75 163.5V156.0H185.75V162.0H187.25V165.0ZM189.296875 165.0 188.796875 164.5 188.296875 164.0 187.796875 163.5V156.0H196.796875V159.0H190.796875V165.0ZM198.84375 165.0 198.34375 164.5 197.84375 164.0 197.34375 163.5V162.0H203.34375V161.5H198.84375L198.34375 161.0L197.84375 160.5L197.34375 160.0V156.0H206.34375V159.0H200.34375V159.5H206.34375V165.0ZM211.390625 165.0 210.890625 164.5 210.390625 164.0 209.890625 163.5V159.0H208.390625L207.890625 158.5L207.390625 158.0L206.890625 157.5V156.0H215.890625V159.0H212.890625V165.0ZM217.9375 165.0 217.4375 164.5 216.9375 164.0 216.4375 163.5V156.0H219.4375V162.0H222.4375V156.0H225.4375V165.0ZM227.484375 165.0 226.984375 164.5 226.484375 164.0 225.984375 163.5V156.0H228.984375V162.0L229.484375 161.5L229.984375 161.0L230.484375 160.5L230.984375 160.0L231.484375 159.5L231.984375 159.0V156.0H234.984375V159.5L234.484375 160.0L233.984375 160.5L233.484375 161.0L232.984375 161.5L232.484375 162.0L231.984375 162.5L231.484375 163.0L230.984375 163.5L230.484375 164.0L229.984375 164.5L229.484375 165.0ZM237.03125 165.0 236.53125 164.5 236.03125 164.0 235.53125 163.5V156.0H238.53125V162.0H239.03125V156.0H241.03125V162.0H241.53125V156.0H244.53125V165.0ZM245.078125 165.0V163.0L245.578125 162.5L246.078125 162.0L246.578125 161.5L247.078125 161.0L247.578125 160.5L247.078125 160.0L246.578125 159.5L246.078125 159.0L245.578125 158.5L245.078125 158.0V156.0H246.578125L247.078125 156.5L247.578125 157.0L248.078125 157.5L248.578125 158.0L249.078125 158.5L249.578125 159.0L250.078125 158.5L250.578125 158.0L251.078125 157.5L251.578125 157.0L252.078125 156.5L252.578125 156.0H254.078125V158.0L253.578125 158.5L253.078125 159.0L252.578125 159.5L252.078125 160.0L251.578125 160.5L252.078125 161.0L252.578125 161.5L253.078125 162.0L253.578125 162.5L254.078125 163.0V165.0H252.578125L252.078125 164.5L251.578125 164.0L251.078125 163.5L250.578125 163.0L250.078125 162.5L249.578125 162.0L249.078125 162.5L248.578125 163.0L248.078125 163.5L247.578125 164.0L247.078125 164.5L246.578125 165.0ZM259.125 165.0 258.625 164.5 258.125 164.0 257.625 163.5V161.5H256.125L255.625 161.0L255.125 160.5L254.625 160.0V156.0H257.625V159.0H260.625V156.0H263.625V161.5H260.625V165.0ZM264.171875 165.0V163.0L264.671875 162.5L265.171875 162.0L265.671875 161.5L266.171875 161.0L266.671875 160.5L267.171875 160.0L267.671875 159.5L268.171875 159.0H264.171875V156.0H273.171875V158.0L272.671875 158.5L272.171875 159.0L271.671875 159.5L271.171875 160.0L270.671875 160.5L270.171875 161.0L269.671875 161.5L269.171875 162.0H273.171875V165.0Z" fill="#6b7280"/><path d="M31.5 194.0 31.0 193.5 30.5 193.0 30.0 192.5V185.0H39.0V194.0H37.5L37.0 193.5L36.5 193.0L36.0 192.5V188.0H33.0V191.0H35.5V194.0ZM45.546875 191.0V190.5H42.546875V191.0ZM41.046875 194.0 40.546875 193.5 40.046875 193.0 39.546875 192.5V185.0H42.546875V187.5H48.546875V194.0ZM50.59375 194.0 50.09375 193.5 49.59375 193.0 49.09375 192.5V185.0H58.09375V188.0H52.09375V191.0H58.09375V194.0ZM64.640625 191.0V190.5H61.640625V191.0ZM60.140625 194.0 59.640625 193.5 59.140625 193.0 58.640625 192.5V187.5H64.640625V185.0H67.640625V194.0ZM74.1875 188.5V188.0H71.1875V188.5ZM69.6875 194.0 69.1875 193.5 68.6875 193.0 68.1875 192.5V185.0H77.1875V190.5H71.1875V191.0H77.1875V194.0ZM79.234375 194.0 78.734375 193.5 78.234375 193.0 77.734375 192.5V185.0H86.734375V188.0H80.734375V188.5H84.734375V190.5H80.734375V194.0ZM88.78125 194.0 88.28125 193.5 87.78125 193.0 87.28125 192.5V185.0H96.28125V188.0H90.28125V191.0H93.28125V190.5L92.78125 190.0L92.28125 189.5L91.78125 189.0V188.5H96.28125V194.0ZM98.328125 194.0 97.828125 193.5 97.328125 193.0 96.828125 192.5V185.0H99.828125V188.5H102.828125V185.0H105.828125V194.0H104.328125L103.828125 193.5L103.328125 193.0L102.828125 192.5V190.5H99.828125V194.0ZM107.875 194.0 107.375 193.5 106.875 193.0 106.375 192.5V185.0H109.375V194.0ZM111.421875 194.0 110.921875 193.5 110.421875 193.0 109.921875 192.5V191.0H115.921875V185.0H118.921875V194.0ZM120.96875 194.0 120.46875 193.5 119.96875 193.0 119.46875 192.5V185.0H122.46875V188.5H123.46875L123.96875 188.0L124.46875 187.5L124.96875 187.0L125.46875 186.5L125.96875 186.0L126.46875 185.5L126.96875 185.0H128.46875V187.0L127.96875 187.5L127.46875 188.0L126.96875 188.5L126.46875 189.0L125.96875 189.5L126.46875 190.0L126.96875 190.5L127.46875 191.0L127.96875 191.5L128.46875 192.0V194.0H126.96875L126.46875 193.5L125.96875 193.0L125.46875 192.5L124.96875 192.0L124.46875 191.5L123.96875 191.0L123.46875 190.5H122.46875V194.0ZM130.515625 194.0 130.015625 193.5 129.515625 193.0 129.015625 192.5V185.0H132.015625V191.0H138.015625V194.0ZM140.0625 194.0 139.5625 193.5 139.0625 193.0 138.5625 192.5V185.0H147.5625V194.0H146.0625L145.5625 193.5L145.0625 193.0L144.5625 192.5V188.0H144.0625V194.0H143.0625L142.5625 193.5L142.0625 193.0V188.0H141.5625V194.0ZM149.609375 194.0 149.109375 193.5 148.609375 193.0 148.109375 192.5V185.0H157.109375V194.0H155.609375L155.109375 193.5L154.609375 193.0L154.109375 192.5V188.0H151.109375V194.0ZM163.65625 191.0V188.0H160.65625V191.0ZM159.15625 194.0 158.65625 193.5 158.15625 193.0 157.65625 192.5V185.0H166.65625V194.0ZM173.203125 188.5V188.0H170.203125V188.5ZM168.703125 194.0 168.203125 193.5 167.703125 193.0 167.203125 192.5V185.0H176.203125V190.5H170.203125V194.0ZM182.75 191.0V188.0H179.75V191.0ZM178.25 194.0 177.75 193.5 177.25 193.0 176.75 192.5V185.0H185.75V191.0H187.25V194.0ZM189.296875 194.0 188.796875 193.5 188.296875 193.0 187.796875 192.5V185.0H196.796875V188.0H190.796875V194.0ZM198.84375 194.0 198.34375 193.5 197.84375 193.0 197.34375 192.5V191.0H203.34375V190.5H198.84375L198.34375 190.0L197.84375 189.5L197.34375 189.0V185.0H206.34375V188.0H200.34375V188.5H206.34375V194.0ZM211.390625 194.0 210.890625 193.5 210.390625 193.0 209.890625 192.5V188.0H208.390625L207.890625 187.5L207.390625 187.0L206.890625 186.5V185.0H215.890625V188.0H212.890625V194.0ZM217.9375 194.0 217.4375 193.5 216.9375 193.0 216.4375 192.5V185.0H219.4375V191.0H222.4375V185.0H225.4375V194.0ZM227.484375 194.0 226.984375 193.5 226.484375 193.0 225.984375 192.5V185.0H228.984375V191.0L229.484375 190.5L229.984375 190.0L230.484375 189.5L230.984375 189.0L231.484375 188.5L231.984375 188.0V185.0H234.984375V188.5L234.484375 189.0L233.984375 189.5L233.484375 190.0L232.984375 190.5L232.484375 191.0L231.984375 191.5L231.484375 192.0L230.984375 192.5L230.484375 193.0L229.984375 193.5L229.484375 194.0ZM237.03125 194.0 236.53125 193.5 236.03125 193.0 235.53125 192.5V185.0H238.53125V191.0H239.03125V185.0H241.03125V191.0H241.53125V185.0H244.53125V194.0ZM245.078125 194.0V192.0L245.578125 191.5L246.078125 191.0L246.578125 190.5L247.078125 190.0L247.578125 189.5L247.078125 189.0L246.578125 188.5L246.078125 188.0L245.578125 187.5L245.078125 187.0V185.0H246.578125L247.078125 185.5L247.578125 186.0L248.078125 186.5L248.578125 187.0L249.078125 187.5L249.578125 188.0L250.078125 187.5L250.578125 187.0L251.078125 186.5L251.578125 186.0L252.078125 185.5L252.578125 185.0H254.078125V187.0L253.578125 187.5L253.078125 188.0L252.578125 188.5L252.078125 189.0L251.578125 189.5L252.078125 190.0L252.578125 190.5L253.078125 191.0L253.578125 191.5L254.078125 192.0V194.0H252.578125L252.078125 193.5L251.578125 193.0L251.078125 192.5L250.578125 192.0L250.078125 191.5L249.578125 191.0L249.078125 191.5L248.578125 192.0L248.078125 192.5L247.578125 193.0L247.078125 193.5L246.578125 194.0ZM259.125 194.0 258.625 193.5 258.125 193.0 257.625 192.5V190.5H256.125L255.625 190.0L255.125 189.5L254.625 189.0V185.0H257.625V188.0H260.625V185.0H263.625V190.5H260.625V194.0ZM264.171875 194.0V192.0L264.671875 191.5L265.171875 191.0L265.671875 190.5L266.171875 190.0L266.671875 189.5L267.171875 189.0L267.671875 188.5L268.171875 188.0H264.171875V185.0H273.171875V187.0L272.671875 187.5L272.171875 188.0L271.671875 188.5L271.171875 189.0L270.671875 189.5L270.171875 190.0L269.671875 190.5L269.171875 191.0H273.171875V194.0Z" fill="#6b7280"/></svg>