<svg xmlns="http://www.w3.org/2000/svg" viewBox="0 0 655.4 222.0" width="655" height="222"><path d="M43.9033203125 46.1044921875Q48.328125 46.1044921875 51.32666015625 50.439453125Q54.3251953125 54.7744140625 54.3251953125 61.1533203125Q54.3251953125 67.9140625 51.4052734375 72.13671875Q48.4853515625 76.359375 43.8359375 76.359375Q39.298828125 76.359375 36.3564453125 72.1591796875Q33.4140625 67.958984375 33.4140625 61.4677734375Q33.4140625 54.8642578125 36.4013671875 50.484375Q39.388671875 46.1044921875 43.9033203125 46.1044921875ZM43.9033203125 50.0576171875Q41.05078125 50.0576171875 39.5908203125 52.595703125Q37.7490234375 55.78515625 37.7490234375 61.4228515625Q37.7490234375 66.611328125 39.35498046875 69.5087890625Q40.9609375 72.40625 43.8583984375 72.40625Q46.7333984375 72.40625 48.36181640625 69.43017578125Q49.990234375 66.4541015625 49.990234375 61.130859375Q49.990234375 56.0771484375 48.33935546875 53.0673828125Q46.6884765625 50.0576171875 43.9033203125 50.0576171875ZM80.626953125 53.044921875H76.44921875Q76.2021484375 51.697265625 75.18017578125 50.87744140625Q74.158203125 50.0576171875 72.67578125 50.0576171875Q70.115234375 50.0576171875 68.5654296875 53.07861328125Q67.015625 56.099609375 67.015625 61.0634765625Q67.015625 66.2744140625 68.54296875 69.34033203125Q70.0703125 72.40625 72.67578125 72.40625Q74.1357421875 72.40625 75.19140625 71.49658203125Q76.2470703125 70.5869140625 76.44921875 69.1494140625H80.8515625V69.486328125Q80.8515625 72.271484375 78.48193359375 74.3154296875Q76.1123046875 76.359375 72.900390625 76.359375Q68.228515625 76.359375 65.45458984375 72.31640625Q62.6806640625 68.2734375 62.6806640625 61.53515625Q62.6806640625 54.2578125 65.43212890625 50.18115234375Q68.18359375 46.1044921875 73.080078125 46.1044921875Q76.359375 46.1044921875 78.4931640625 48.06982421875Q80.626953125 50.03515625 80.626953125 53.044921875ZM94.732421875 63.69140625V76.0H90.419921875V46.4638671875H99.4267578125Q103.626953125 46.4638671875 106.09765625 48.77734375Q108.568359375 51.0908203125 108.568359375 55.021484375Q108.568359375 58.12109375 106.98486328125 60.15380859375Q105.4013671875 62.1865234375 102.5712890625 62.7705078125L110.3427734375 76.0H105.3115234375L98.4833984375 63.69140625ZM94.732421875 59.693359375H98.685546875Q104.2333984375 59.693359375 104.2333984375 55.111328125Q104.2333984375 50.4169921875 98.640625 50.4169921875H94.732421875ZM144.5283203125 76.0V46.4638671875H154.4560546875Q157.4208984375 46.4638671875 159.16162109375 46.94677734375Q160.90234375 47.4296875 162.1826171875 48.6201171875Q164.9453125 51.158203125 164.9453125 54.6396484375Q164.9453125 58.9521484375 161.037109375 60.4794921875Q163.1484375 61.041015625 164.43994140625 62.82666015625Q165.7314453125 64.6123046875 165.7314453125 66.970703125Q165.7314453125 70.6318359375 163.193359375 73.3720703125Q160.7451171875 76.0 156.095703125 76.0ZM148.8408203125 58.5927734375H155.3544921875Q158.341796875 58.5927734375 159.4423828125 57.447265625Q160.6103515625 56.2568359375 160.6103515625 54.751953125Q160.6103515625 52.7529296875 159.0380859375 51.5849609375Q157.4658203125 50.4169921875 154.748046875 50.4169921875H148.8408203125ZM148.8408203125 72.046875H155.466796875Q158.2744140625 72.046875 159.83544921875 70.744140625Q161.396484375 69.44140625 161.396484375 67.0830078125Q161.396484375 64.994140625 159.8466796875 63.5341796875Q158.431640625 62.1865234375 155.2646484375 62.1865234375H148.8408203125Z" fill="#12151a"/><path d="M31.87548828125 127.0V112.23193359375H36.83935546875Q38.32177734375 112.23193359375 39.192138671875 112.473388671875Q40.0625 112.71484375 40.70263671875 113.31005859375Q42.083984375 114.5791015625 42.083984375 116.31982421875Q42.083984375 118.47607421875 40.1298828125 119.23974609375Q41.185546875 119.5205078125 41.831298828125 120.413330078125Q42.47705078125 121.30615234375 42.47705078125 122.4853515625Q42.47705078125 124.31591796875 41.2080078125 125.68603515625Q39.98388671875 127.0 37.6591796875 127.0ZM34.03173828125 118.29638671875H37.28857421875Q38.7822265625 118.29638671875 39.33251953125 117.7236328125Q39.91650390625 117.12841796875 39.91650390625 116.3759765625Q39.91650390625 115.37646484375 39.13037109375 114.79248046875Q38.34423828125 114.20849609375 36.9853515625 114.20849609375H34.03173828125ZM34.03173828125 125.0234375H37.3447265625Q38.74853515625 125.0234375 39.529052734375 124.3720703125Q40.3095703125 123.720703125 40.3095703125 122.54150390625Q40.3095703125 121.4970703125 39.53466796875 120.76708984375Q38.8271484375 120.09326171875 37.24365234375 120.09326171875H34.03173828125ZM52.865234375 120.16064453125V119.228515625Q52.865234375 117.521484375 50.7763671875 117.521484375Q48.7998046875 117.521484375 48.36181640625 118.79052734375H46.20556640625Q46.3515625 115.904296875 50.78759765625 115.904296875Q52.98876953125 115.904296875 53.943359375 116.84765625Q54.89794921875 117.791015625 54.89794921875 119.95849609375V127.0H52.865234375V125.91064453125Q51.4951171875 127.19091796875 49.64208984375 127.19091796875Q47.8564453125 127.19091796875 46.783935546875 126.28125Q45.71142578125 125.37158203125 45.71142578125 123.86669921875Q45.71142578125 122.1708984375 47.019775390625 121.165771484375Q48.328125 120.16064453125 50.54052734375 120.16064453125ZM52.865234375 121.8115234375H50.22607421875Q49.12548828125 121.8115234375 48.457275390625 122.33935546875Q47.7890625 122.8671875 47.7890625 123.73193359375Q47.7890625 124.529296875 48.322509765625 125.051513671875Q48.85595703125 125.57373046875 49.68701171875 125.57373046875Q51.0234375 125.57373046875 51.9443359375 124.69775390625Q52.865234375 123.82177734375 52.865234375 122.54150390625ZM61.05224609375 116.09521484375H63.0849609375V117.341796875Q64.2978515625 115.904296875 66.0498046875 115.904296875Q67.49853515625 115.904296875 68.413818359375 116.819580078125Q69.3291015625 117.73486328125 69.3291015625 119.18359375Q69.3291015625 119.2958984375 69.306640625 119.587890625H67.18408203125Q67.1953125 119.39697265625 67.1953125 119.2958984375Q67.1953125 118.52099609375 66.785400390625 118.032470703125Q66.37548828125 117.5439453125 65.72412109375 117.5439453125Q64.5224609375 117.5439453125 63.69140625 118.65576171875Q63.0849609375 119.46435546875 63.0849609375 121.12646484375V127.0H61.05224609375ZM83.13134765625 118.99267578125H80.93017578125Q80.45849609375 117.68994140625 79.0771484375 117.68994140625Q76.30322265625 117.68994140625 76.30322265625 121.5419921875Q76.30322265625 123.40625 76.993896484375 124.40576171875Q77.6845703125 125.4052734375 78.96484375 125.4052734375Q79.728515625 125.4052734375 80.2900390625 124.92236328125Q80.8515625 124.439453125 80.93017578125 123.720703125H83.13134765625Q83.06396484375 125.23681640625 81.89599609375 126.2138671875Q80.72802734375 127.19091796875 78.9873046875 127.19091796875Q76.8984375 127.19091796875 75.74169921875 125.95556640625Q75.04541015625 125.2255859375 74.635498046875 124.018310546875Q74.2255859375 122.81103515625 74.2255859375 121.53076171875Q74.2255859375 119.01513671875 75.56201171875 117.459716796875Q76.8984375 115.904296875 79.0546875 115.904296875Q80.75048828125 115.904296875 81.822998046875 116.718505859375Q82.8955078125 117.53271484375 83.13134765625 118.99267578125ZM92.2841796875 115.904296875Q94.90087890625 115.904296875 96.259765625 117.4765625Q96.87744140625 118.20654296875 97.264892578125 119.318359375Q97.65234375 120.43017578125 97.65234375 121.51953125Q97.65234375 123.990234375 96.1474609375 125.590576171875Q94.642578125 127.19091796875 92.31787109375 127.19091796875Q89.91455078125 127.19091796875 88.448974609375 125.6298828125Q86.9833984375 124.06884765625 86.9833984375 121.50830078125Q86.9833984375 118.9814453125 88.437744140625 117.44287109375Q89.89208984375 115.904296875 92.2841796875 115.904296875ZM92.40771484375 117.48779296875Q90.85791015625 117.48779296875 89.95947265625 118.5771484375Q89.06103515625 119.66650390625 89.06103515625 121.51953125Q89.06103515625 123.40625 89.93701171875 124.5068359375Q90.81298828125 125.607421875 92.31787109375 125.607421875Q93.8115234375 125.607421875 94.693115234375 124.529296875Q95.57470703125 123.451171875 95.57470703125 121.62060546875Q95.57470703125 119.677734375 94.738037109375 118.582763671875Q93.9013671875 117.48779296875 92.40771484375 117.48779296875ZM110.98291015625 111.10888671875V127.0H108.9501953125V125.8095703125Q107.580078125 127.19091796875 105.7607421875 127.19091796875Q103.5595703125 127.19091796875 102.228759765625 125.66357421875Q100.89794921875 124.13623046875 100.89794921875 121.62060546875Q100.89794921875 119.00390625 102.172607421875 117.4541015625Q103.447265625 115.904296875 105.603515625 115.904296875Q107.7373046875 115.904296875 108.9501953125 117.28564453125V111.10888671875ZM105.828125 117.68994140625Q104.53662109375 117.68994140625 103.76171875 118.7119140625Q102.98681640625 119.73388671875 102.98681640625 121.4296875Q102.98681640625 123.2490234375 103.801025390625 124.3271484375Q104.615234375 125.4052734375 105.9853515625 125.4052734375Q107.3330078125 125.4052734375 108.147216796875 124.31591796875Q108.96142578125 123.2265625 108.96142578125 121.44091796875Q108.96142578125 119.68896484375 108.124755859375 118.689453125Q107.2880859375 117.68994140625 105.828125 117.68994140625ZM124.875 121.9912109375H117.328125L117.31689453125 122.373046875Q117.31689453125 123.70947265625 118.2265625 124.557373046875Q119.13623046875 125.4052734375 120.55126953125 125.4052734375Q121.7529296875 125.4052734375 122.2470703125 124.6416015625H124.48193359375Q124.36962890625 125.876953125 123.31396484375 126.533935546875Q122.25830078125 127.19091796875 120.39404296875 127.19091796875Q117.8896484375 127.19091796875 116.502685546875 125.702880859375Q115.11572265625 124.21484375 115.11572265625 121.53076171875Q115.11572265625 119.2734375 116.30615234375 117.64501953125Q117.5751953125 115.9267578125 120.1357421875 115.9267578125Q122.48291015625 115.9267578125 123.69580078125 117.30810546875Q124.90869140625 118.689453125 124.90869140625 121.3623046875Q124.90869140625 121.5419921875 124.875 121.9912109375ZM122.71875 120.216796875Q122.71875 119.09375 122.005615234375 118.403076171875Q121.29248046875 117.71240234375 120.12451171875 117.71240234375Q118.9677734375 117.71240234375 118.2041015625 118.391845703125Q117.4404296875 119.0712890625 117.31689453125 120.216796875ZM147.650390625 112.8271484375V115.9716796875H151.74951171875V117.74609375H147.650390625V123.451171875Q147.650390625 124.38330078125 148.06591796875 124.894287109375Q148.4814453125 125.4052734375 149.2451171875 125.4052734375Q149.806640625 125.4052734375 150.531005859375 125.152587890625Q151.25537109375 124.89990234375 151.74951171875 124.54052734375V126.55078125Q150.7724609375 127.19091796875 149.2001953125 127.19091796875Q147.4482421875 127.19091796875 146.532958984375 126.185791015625Q145.61767578125 125.1806640625 145.61767578125 123.2490234375V117.74609375H143.3603515625V115.9716796875H145.61767578125V113.39990234375ZM166.41650390625 121.9912109375H158.86962890625L158.8583984375 122.373046875Q158.8583984375 123.70947265625 159.76806640625 124.557373046875Q160.677734375 125.4052734375 162.0927734375 125.4052734375Q163.29443359375 125.4052734375 163.78857421875 124.6416015625H166.0234375Q165.9111328125 125.876953125 164.85546875 126.533935546875Q163.7998046875 127.19091796875 161.935546875 127.19091796875Q159.43115234375 127.19091796875 158.044189453125 125.702880859375Q156.6572265625 124.21484375 156.6572265625 121.53076171875Q156.6572265625 119.2734375 157.84765625 117.64501953125Q159.11669921875 115.9267578125 161.67724609375 115.9267578125Q164.0244140625 115.9267578125 165.2373046875 117.30810546875Q166.4501953125 118.689453125 166.4501953125 121.3623046875Q166.4501953125 121.5419921875 166.41650390625 121.9912109375ZM164.26025390625 120.216796875Q164.26025390625 119.09375 163.547119140625 118.403076171875Q162.833984375 117.71240234375 161.666015625 117.71240234375Q160.50927734375 117.71240234375 159.74560546875 118.391845703125Q158.98193359375 119.0712890625 158.8583984375 120.216796875ZM174.90673828125 111.10888671875V123.0244140625Q174.90673828125 125.2255859375 177.298828125 125.2255859375H179.0283203125V127.0H176.70361328125Q174.693359375 127.0 173.78369140625 125.921875Q172.8740234375 124.84375 172.8740234375 122.47412109375V111.10888671875ZM194.11083984375 121.9912109375H186.56396484375L186.552734375 122.373046875Q186.552734375 123.70947265625 187.46240234375 124.557373046875Q188.3720703125 125.4052734375 189.787109375 125.4052734375Q190.98876953125 125.4052734375 191.48291015625 124.6416015625H193.7177734375Q193.60546875 125.876953125 192.5498046875 126.533935546875Q191.494140625 127.19091796875 189.6298828125 127.19091796875Q187.12548828125 127.19091796875 185.738525390625 125.702880859375Q184.3515625 124.21484375 184.3515625 121.53076171875Q184.3515625 119.2734375 185.5419921875 117.64501953125Q186.81103515625 115.9267578125 189.37158203125 115.9267578125Q191.71875 115.9267578125 192.931640625 117.30810546875Q194.14453125 118.689453125 194.14453125 121.3623046875Q194.14453125 121.5419921875 194.11083984375 121.9912109375ZM191.95458984375 120.216796875Q191.95458984375 119.09375 191.241455078125 118.403076171875Q190.5283203125 117.71240234375 189.3603515625 117.71240234375Q188.20361328125 117.71240234375 187.43994140625 118.391845703125Q186.67626953125 119.0712890625 186.552734375 120.216796875ZM197.72705078125 116.09521484375H199.759765625V116.92626953125Q200.82666015625 115.904296875 202.10693359375 115.904296875Q202.78076171875 115.904296875 203.145751953125 116.078369140625Q203.5107421875 116.25244140625 203.90380859375 116.76904296875Q204.791015625 115.904296875 206.2060546875 115.904296875Q207.34033203125 115.904296875 208.01416015625 116.67919921875Q208.68798828125 117.4541015625 208.68798828125 118.734375V127.0H206.6552734375V118.734375Q206.6552734375 117.48779296875 205.61083984375 117.48779296875Q204.21826171875 117.48779296875 204.21826171875 119.6552734375V127.0H202.185546875V118.67822265625Q202.185546875 117.48779296875 201.14111328125 117.48779296875Q199.759765625 117.48779296875 199.759765625 119.59912109375V127.0H197.72705078125ZM221.80517578125 121.9912109375H214.25830078125L214.2470703125 122.373046875Q214.2470703125 123.70947265625 215.15673828125 124.557373046875Q216.06640625 125.4052734375 217.4814453125 125.4052734375Q218.68310546875 125.4052734375 219.17724609375 124.6416015625H221.412109375Q221.2998046875 125.876953125 220.244140625 126.533935546875Q219.1884765625 127.19091796875 217.32421875 127.19091796875Q214.81982421875 127.19091796875 213.432861328125 125.702880859375Q212.0458984375 124.21484375 212.0458984375 121.53076171875Q212.0458984375 119.2734375 213.236328125 117.64501953125Q214.50537109375 115.9267578125 217.06591796875 115.9267578125Q219.4130859375 115.9267578125 220.6259765625 117.30810546875Q221.8388671875 118.689453125 221.8388671875 121.3623046875Q221.8388671875 121.5419921875 221.80517578125 121.9912109375ZM219.64892578125 120.216796875Q219.64892578125 119.09375 218.935791015625 118.403076171875Q218.22265625 117.71240234375 217.0546875 117.71240234375Q215.89794921875 117.71240234375 215.13427734375 118.391845703125Q214.37060546875 119.0712890625 214.2470703125 120.216796875ZM230.7333984375 112.8271484375V115.9716796875H234.83251953125V117.74609375H230.7333984375V123.451171875Q230.7333984375 124.38330078125 231.14892578125 124.894287109375Q231.564453125 125.4052734375 232.328125 125.4052734375Q232.8896484375 125.4052734375 233.614013671875 125.152587890625Q234.33837890625 124.89990234375 234.83251953125 124.54052734375V126.55078125Q233.85546875 127.19091796875 232.283203125 127.19091796875Q230.53125 127.19091796875 229.615966796875 126.185791015625Q228.70068359375 125.1806640625 228.70068359375 123.2490234375V117.74609375H226.443359375V115.9716796875H228.70068359375V113.39990234375ZM241.0654296875 116.09521484375H243.09814453125V117.341796875Q244.31103515625 115.904296875 246.06298828125 115.904296875Q247.51171875 115.904296875 248.427001953125 116.819580078125Q249.34228515625 117.73486328125 249.34228515625 119.18359375Q249.34228515625 119.2958984375 249.31982421875 119.587890625H247.197265625Q247.20849609375 119.39697265625 247.20849609375 119.2958984375Q247.20849609375 118.52099609375 246.798583984375 118.032470703125Q246.388671875 117.5439453125 245.7373046875 117.5439453125Q244.53564453125 117.5439453125 243.70458984375 118.65576171875Q243.09814453125 119.46435546875 243.09814453125 121.12646484375V127.0H241.0654296875ZM258.7197265625 122.38427734375 262.23486328125 116.09521484375H264.36865234375L257.57421875 128.572265625Q256.41748046875 130.7060546875 254.44091796875 130.7060546875H253.5986328125V128.89794921875H254.41845703125Q255.04736328125 128.89794921875 255.33935546875 128.38134765625L255.54150390625 128.033203125L257.63037109375 124.349609375L252.8125 116.09521484375H255.3955078125ZM290.31103515625 118.83544921875H288.1884765625Q288.06494140625 117.56640625 286.2119140625 117.56640625Q284.02197265625 117.56640625 284.02197265625 118.92529296875Q284.02197265625 120.07080078125 285.54931640625 120.36279296875Q288.53662109375 120.94677734375 289.34521484375 121.4072265625Q290.81640625 122.2607421875 290.81640625 123.95654296875Q290.81640625 125.4951171875 289.52490234375 126.343017578125Q288.2333984375 127.19091796875 285.875 127.19091796875Q283.80859375 127.19091796875 282.67431640625 126.410400390625Q281.5400390625 125.6298828125 281.5400390625 124.1923828125H283.673828125Q283.7861328125 124.98974609375 284.342041015625 125.321044921875Q284.89794921875 125.65234375 286.1220703125 125.65234375Q287.27880859375 125.65234375 288.003173828125 125.21435546875Q288.7275390625 124.7763671875 288.7275390625 124.080078125Q288.7275390625 123.3837890625 288.33447265625 123.0693359375Q287.94140625 122.7548828125 286.7958984375 122.54150390625Q283.99951171875 122.013671875 282.96630859375 121.2724609375Q281.93310546875 120.53125 281.93310546875 119.048828125Q281.93310546875 115.904296875 286.59375 115.904296875Q288.37939453125 115.904296875 289.3564453125 116.583740234375Q290.33349609375 117.26318359375 290.33349609375 118.49853515625Q290.33349609375 118.599609375 290.31103515625 118.83544921875ZM299.96923828125 112.8271484375V115.9716796875H304.068359375V117.74609375H299.96923828125V123.451171875Q299.96923828125 124.38330078125 300.384765625 124.894287109375Q300.80029296875 125.4052734375 301.56396484375 125.4052734375Q302.12548828125 125.4052734375 302.849853515625 125.152587890625Q303.57421875 124.89990234375 304.068359375 124.54052734375V126.55078125Q303.09130859375 127.19091796875 301.51904296875 127.19091796875Q299.76708984375 127.19091796875 298.851806640625 126.185791015625Q297.9365234375 125.1806640625 297.9365234375 123.2490234375V117.74609375H295.67919921875V115.9716796875H297.9365234375V113.39990234375ZM310.30126953125 116.09521484375H312.333984375V117.341796875Q313.546875 115.904296875 315.298828125 115.904296875Q316.74755859375 115.904296875 317.662841796875 116.819580078125Q318.578125 117.73486328125 318.578125 119.18359375Q318.578125 119.2958984375 318.5556640625 119.587890625H316.43310546875Q316.4443359375 119.39697265625 316.4443359375 119.2958984375Q316.4443359375 118.52099609375 316.034423828125 118.032470703125Q315.62451171875 117.5439453125 314.97314453125 117.5439453125Q313.771484375 117.5439453125 312.9404296875 118.65576171875Q312.333984375 119.46435546875 312.333984375 121.12646484375V127.0H310.30126953125ZM332.58251953125 121.9912109375H325.03564453125L325.0244140625 122.373046875Q325.0244140625 123.70947265625 325.93408203125 124.557373046875Q326.84375 125.4052734375 328.2587890625 125.4052734375Q329.46044921875 125.4052734375 329.95458984375 124.6416015625H332.189453125Q332.0771484375 125.876953125 331.021484375 126.533935546875Q329.9658203125 127.19091796875 328.1015625 127.19091796875Q325.59716796875 127.19091796875 324.210205078125 125.702880859375Q322.8232421875 124.21484375 322.8232421875 121.53076171875Q322.8232421875 119.2734375 324.013671875 117.64501953125Q325.28271484375 115.9267578125 327.84326171875 115.9267578125Q330.1904296875 115.9267578125 331.4033203125 117.30810546875Q332.6162109375 118.689453125 332.6162109375 121.3623046875Q332.6162109375 121.5419921875 332.58251953125 121.9912109375ZM330.42626953125 120.216796875Q330.42626953125 119.09375 329.713134765625 118.403076171875Q329.0 117.71240234375 327.83203125 117.71240234375Q326.67529296875 117.71240234375 325.91162109375 118.391845703125Q325.14794921875 119.0712890625 325.0244140625 120.216796875ZM343.65576171875 120.16064453125V119.228515625Q343.65576171875 117.521484375 341.56689453125 117.521484375Q339.59033203125 117.521484375 339.15234375 118.79052734375H336.99609375Q337.14208984375 115.904296875 341.578125 115.904296875Q343.779296875 115.904296875 344.73388671875 116.84765625Q345.6884765625 117.791015625 345.6884765625 119.95849609375V127.0H343.65576171875V125.91064453125Q342.28564453125 127.19091796875 340.4326171875 127.19091796875Q338.64697265625 127.19091796875 337.574462890625 126.28125Q336.501953125 125.37158203125 336.501953125 123.86669921875Q336.501953125 122.1708984375 337.810302734375 121.165771484375Q339.11865234375 120.16064453125 341.3310546875 120.16064453125ZM343.65576171875 121.8115234375H341.0166015625Q339.916015625 121.8115234375 339.247802734375 122.33935546875Q338.57958984375 122.8671875 338.57958984375 123.73193359375Q338.57958984375 124.529296875 339.113037109375 125.051513671875Q339.646484375 125.57373046875 340.4775390625 125.57373046875Q341.81396484375 125.57373046875 342.73486328125 124.69775390625Q343.65576171875 123.82177734375 343.65576171875 122.54150390625ZM350.0458984375 116.09521484375H352.07861328125V116.92626953125Q353.1455078125 115.904296875 354.42578125 115.904296875Q355.099609375 115.904296875 355.464599609375 116.078369140625Q355.82958984375 116.25244140625 356.22265625 116.76904296875Q357.10986328125 115.904296875 358.52490234375 115.904296875Q359.6591796875 115.904296875 360.3330078125 116.67919921875Q361.0068359375 117.4541015625 361.0068359375 118.734375V127.0H358.97412109375V118.734375Q358.97412109375 117.48779296875 357.9296875 117.48779296875Q356.537109375 117.48779296875 356.537109375 119.6552734375V127.0H354.50439453125V118.67822265625Q354.50439453125 117.48779296875 353.4599609375 117.48779296875Q352.07861328125 117.48779296875 352.07861328125 119.59912109375V127.0H350.0458984375ZM373.39404296875 118.83544921875H371.271484375Q371.14794921875 117.56640625 369.294921875 117.56640625Q367.10498046875 117.56640625 367.10498046875 118.92529296875Q367.10498046875 120.07080078125 368.63232421875 120.36279296875Q371.61962890625 120.94677734375 372.42822265625 121.4072265625Q373.8994140625 122.2607421875 373.8994140625 123.95654296875Q373.8994140625 125.4951171875 372.60791015625 126.343017578125Q371.31640625 127.19091796875 368.9580078125 127.19091796875Q366.8916015625 127.19091796875 365.75732421875 126.410400390625Q364.623046875 125.6298828125 364.623046875 124.1923828125H366.7568359375Q366.869140625 124.98974609375 367.425048828125 125.321044921875Q367.98095703125 125.65234375 369.205078125 125.65234375Q370.36181640625 125.65234375 371.086181640625 125.21435546875Q371.810546875 124.7763671875 371.810546875 124.080078125Q371.810546875 123.3837890625 371.41748046875 123.0693359375Q371.0244140625 122.7548828125 369.87890625 122.54150390625Q367.08251953125 122.013671875 366.04931640625 121.2724609375Q365.01611328125 120.53125 365.01611328125 119.048828125Q365.01611328125 115.904296875 369.6767578125 115.904296875Q371.46240234375 115.904296875 372.439453125 116.583740234375Q373.41650390625 117.26318359375 373.41650390625 118.49853515625Q373.41650390625 118.599609375 373.39404296875 118.83544921875ZM397.7978515625 116.09521484375H401.02099609375V117.86962890625H397.7978515625V127.0H395.76513671875V117.86962890625H392.59814453125V116.09521484375H395.76513671875V115.1630859375Q395.76513671875 113.2314453125 396.770263671875 112.170166015625Q397.775390625 111.10888671875 399.6171875 111.10888671875H401.0546875V112.90576171875H399.931640625Q397.7978515625 112.90576171875 397.7978515625 115.0283203125ZM407.2314453125 116.09521484375H409.26416015625V117.341796875Q410.47705078125 115.904296875 412.22900390625 115.904296875Q413.677734375 115.904296875 414.593017578125 116.819580078125Q415.50830078125 117.73486328125 415.50830078125 119.18359375Q415.50830078125 119.2958984375 415.48583984375 119.587890625H413.36328125Q413.37451171875 119.39697265625 413.37451171875 119.2958984375Q413.37451171875 118.52099609375 412.964599609375 118.032470703125Q412.5546875 117.5439453125 411.9033203125 117.5439453125Q410.70166015625 117.5439453125 409.87060546875 118.65576171875Q409.26416015625 119.46435546875 409.26416015625 121.12646484375V127.0H407.2314453125ZM424.6162109375 115.904296875Q427.23291015625 115.904296875 428.591796875 117.4765625Q429.20947265625 118.20654296875 429.596923828125 119.318359375Q429.984375 120.43017578125 429.984375 121.51953125Q429.984375 123.990234375 428.4794921875 125.590576171875Q426.974609375 127.19091796875 424.64990234375 127.19091796875Q422.24658203125 127.19091796875 420.781005859375 125.6298828125Q419.3154296875 124.06884765625 419.3154296875 121.50830078125Q419.3154296875 118.9814453125 420.769775390625 117.44287109375Q422.22412109375 115.904296875 424.6162109375 115.904296875ZM424.73974609375 117.48779296875Q423.18994140625 117.48779296875 422.29150390625 118.5771484375Q421.39306640625 119.66650390625 421.39306640625 121.51953125Q421.39306640625 123.40625 422.26904296875 124.5068359375Q423.14501953125 125.607421875 424.64990234375 125.607421875Q426.1435546875 125.607421875 427.025146484375 124.529296875Q427.90673828125 123.451171875 427.90673828125 121.62060546875Q427.90673828125 119.677734375 427.070068359375 118.582763671875Q426.2333984375 117.48779296875 424.73974609375 117.48779296875ZM433.12890625 116.09521484375H435.16162109375V116.92626953125Q436.228515625 115.904296875 437.5087890625 115.904296875Q438.1826171875 115.904296875 438.547607421875 116.078369140625Q438.91259765625 116.25244140625 439.3056640625 116.76904296875Q440.19287109375 115.904296875 441.60791015625 115.904296875Q442.7421875 115.904296875 443.416015625 116.67919921875Q444.08984375 117.4541015625 444.08984375 118.734375V127.0H442.05712890625V118.734375Q442.05712890625 117.48779296875 441.0126953125 117.48779296875Q439.6201171875 117.48779296875 439.6201171875 119.6552734375V127.0H437.58740234375V118.67822265625Q437.58740234375 117.48779296875 436.54296875 117.48779296875Q435.16162109375 117.48779296875 435.16162109375 119.59912109375V127.0H433.12890625ZM466.13525390625 112.8271484375V115.9716796875H470.234375V117.74609375H466.13525390625V123.451171875Q466.13525390625 124.38330078125 466.55078125 124.894287109375Q466.96630859375 125.4052734375 467.72998046875 125.4052734375Q468.29150390625 125.4052734375 469.015869140625 125.152587890625Q469.740234375 124.89990234375 470.234375 124.54052734375V126.55078125Q469.25732421875 127.19091796875 467.68505859375 127.19091796875Q465.93310546875 127.19091796875 465.017822265625 126.185791015625Q464.1025390625 125.1806640625 464.1025390625 123.2490234375V117.74609375H461.84521484375V115.9716796875H464.1025390625V113.39990234375ZM477.79248046875 111.10888671875V117.01611328125Q479.09521484375 115.904296875 480.92578125 115.904296875Q482.453125 115.904296875 483.45263671875 116.90380859375Q484.05908203125 117.521484375 484.28369140625 118.223388671875Q484.50830078125 118.92529296875 484.50830078125 120.18310546875V127.0H482.4755859375V119.947265625Q482.4755859375 117.77978515625 480.4765625 117.77978515625Q479.30859375 117.77978515625 478.53369140625 118.509765625Q478.095703125 118.92529296875 477.944091796875 119.408203125Q477.79248046875 119.89111328125 477.79248046875 120.85693359375V127.0H475.759765625V111.10888671875ZM498.74853515625 121.9912109375H491.20166015625L491.1904296875 122.373046875Q491.1904296875 123.70947265625 492.10009765625 124.557373046875Q493.009765625 125.4052734375 494.4248046875 125.4052734375Q495.62646484375 125.4052734375 496.12060546875 124.6416015625H498.35546875Q498.2431640625 125.876953125 497.1875 126.533935546875Q496.1318359375 127.19091796875 494.267578125 127.19091796875Q491.76318359375 127.19091796875 490.376220703125 125.702880859375Q488.9892578125 124.21484375 488.9892578125 121.53076171875Q488.9892578125 119.2734375 490.1796875 117.64501953125Q491.44873046875 115.9267578125 494.00927734375 115.9267578125Q496.3564453125 115.9267578125 497.5693359375 117.30810546875Q498.7822265625 118.689453125 498.7822265625 121.3623046875Q498.7822265625 121.5419921875 498.74853515625 121.9912109375ZM496.59228515625 120.216796875Q496.59228515625 119.09375 495.879150390625 118.403076171875Q495.166015625 117.71240234375 493.998046875 117.71240234375Q492.84130859375 117.71240234375 492.07763671875 118.391845703125Q491.31396484375 119.0712890625 491.1904296875 120.216796875ZM516.73974609375 116.09521484375H518.7724609375V117.1396484375Q520.22119140625 115.904296875 521.89453125 115.904296875Q524.05078125 115.904296875 525.448974609375 117.470947265625Q526.84716796875 119.03759765625 526.84716796875 121.4521484375Q526.84716796875 124.03515625 525.493896484375 125.613037109375Q524.140625 127.19091796875 521.92822265625 127.19091796875Q520.99609375 127.19091796875 520.125732421875 126.837158203125Q519.25537109375 126.4833984375 518.7724609375 125.921875V130.6162109375H516.73974609375ZM521.77099609375 117.68994140625Q520.33349609375 117.68994140625 519.52490234375 118.7119140625Q518.71630859375 119.73388671875 518.71630859375 121.564453125Q518.71630859375 123.361328125 519.519287109375 124.38330078125Q520.322265625 125.4052734375 521.7373046875 125.4052734375Q523.16357421875 125.4052734375 523.966552734375 124.40576171875Q524.76953125 123.40625 524.76953125 121.64306640625Q524.76953125 117.68994140625 521.77099609375 117.68994140625ZM531.6650390625 116.09521484375H537.3251953125V127.0H535.1689453125V118.150390625H531.6650390625ZM534.248046875 111.10888671875H537.3251953125V113.837890625H534.248046875ZM549.21826171875 112.8271484375V115.9716796875H553.3173828125V117.74609375H549.21826171875V123.451171875Q549.21826171875 124.38330078125 549.6337890625 124.894287109375Q550.04931640625 125.4052734375 550.81298828125 125.4052734375Q551.37451171875 125.4052734375 552.098876953125 125.152587890625Q552.8232421875 124.89990234375 553.3173828125 124.54052734375V126.55078125Q552.34033203125 127.19091796875 550.76806640625 127.19091796875Q549.01611328125 127.19091796875 548.100830078125 126.185791015625Q547.185546875 125.1806640625 547.185546875 123.2490234375V117.74609375H544.92822265625V115.9716796875H547.185546875V113.39990234375ZM573.76806640625 116.09521484375 574.62158203125 124.3271484375 575.87939453125 120.34033203125H578.0693359375L579.3271484375 124.56298828125L580.21435546875 116.09521484375H582.2919921875L580.966796875 127.0H578.31640625L576.95751953125 122.4404296875L575.62109375 127.0H573.015625L571.623046875 116.09521484375ZM592.90478515625 120.16064453125V119.228515625Q592.90478515625 117.521484375 590.81591796875 117.521484375Q588.83935546875 117.521484375 588.4013671875 118.79052734375H586.2451171875Q586.39111328125 115.904296875 590.8271484375 115.904296875Q593.0283203125 115.904296875 593.98291015625 116.84765625Q594.9375 117.791015625 594.9375 119.95849609375V127.0H592.90478515625V125.91064453125Q591.53466796875 127.19091796875 589.681640625 127.19091796875Q587.89599609375 127.19091796875 586.823486328125 126.28125Q585.7509765625 125.37158203125 585.7509765625 123.86669921875Q585.7509765625 122.1708984375 587.059326171875 121.165771484375Q588.36767578125 120.16064453125 590.580078125 120.16064453125ZM592.90478515625 121.8115234375H590.265625Q589.1650390625 121.8115234375 588.496826171875 122.33935546875Q587.82861328125 122.8671875 587.82861328125 123.73193359375Q587.82861328125 124.529296875 588.362060546875 125.051513671875Q588.8955078125 125.57373046875 589.7265625 125.57373046875Q591.06298828125 125.57373046875 591.98388671875 124.69775390625Q592.90478515625 123.82177734375 592.90478515625 122.54150390625ZM604.1689453125 111.10888671875V123.0244140625Q604.1689453125 125.2255859375 606.56103515625 125.2255859375H608.29052734375V127.0H605.9658203125Q603.95556640625 127.0 603.0458984375 125.921875Q602.13623046875 124.84375 602.13623046875 122.47412109375V111.10888671875ZM618.01611328125 111.10888671875V123.0244140625Q618.01611328125 125.2255859375 620.408203125 125.2255859375H622.1376953125V127.0H619.81298828125Q617.802734375 127.0 616.89306640625 125.921875Q615.9833984375 124.84375 615.9833984375 122.47412109375V111.10888671875Z" fill="#3a3f47"/><path d="M36.2265625 162.03125H33.3125L32.5625 165.0H31.015625L33.8203125 154.7265625H35.984375L38.609375 165.0H36.9375ZM35.8984375 160.65625 34.828125 156.0546875 33.65625 160.65625ZM40.9375 165.0V154.7265625H44.390625Q45.421875 154.7265625 46.02734375 154.89453125Q46.6328125 155.0625 47.078125 155.4765625Q48.0390625 156.359375 48.0390625 157.5703125Q48.0390625 159.0703125 46.6796875 159.6015625Q47.4140625 159.796875 47.86328125 160.41796875Q48.3125 161.0390625 48.3125 161.859375Q48.3125 163.1328125 47.4296875 164.0859375Q46.578125 165.0 44.9609375 165.0ZM42.4375 158.9453125H44.703125Q45.7421875 158.9453125 46.125 158.546875Q46.53125 158.1328125 46.53125 157.609375Q46.53125 156.9140625 45.984375 156.5078125Q45.4375 156.1015625 44.4921875 156.1015625H42.4375ZM42.4375 163.625H44.7421875Q45.71875 163.625 46.26171875 163.171875Q46.8046875 162.71875 46.8046875 161.8984375Q46.8046875 161.171875 46.265625 160.6640625Q45.7734375 160.1953125 44.671875 160.1953125H42.4375ZM57.2421875 157.015625H55.7890625Q55.703125 156.546875 55.34765625 156.26171875Q54.9921875 155.9765625 54.4765625 155.9765625Q53.5859375 155.9765625 53.046875 157.02734375Q52.5078125 158.078125 52.5078125 159.8046875Q52.5078125 161.6171875 53.0390625 162.68359375Q53.5703125 163.75 54.4765625 163.75Q54.984375 163.75 55.3515625 163.43359375Q55.71875 163.1171875 55.7890625 162.6171875H57.3203125V162.734375Q57.3203125 163.703125 56.49609375 164.4140625Q55.671875 165.125 54.5546875 165.125Q52.9296875 165.125 51.96484375 163.71875Q51.0 162.3125 51.0 159.96875Q51.0 157.4375 51.95703125 156.01953125Q52.9140625 154.6015625 54.6171875 154.6015625Q55.7578125 154.6015625 56.5 155.28515625Q57.2421875 155.96875 57.2421875 157.015625ZM60.796875 165.0V154.7265625H61.890625Q63.9921875 154.7265625 65.4375 156.1171875Q66.2265625 156.8828125 66.671875 157.9296875Q67.1171875 158.9765625 67.1171875 160.0703125Q67.1171875 162.234375 65.609375 163.71875Q64.3046875 165.0 62.0859375 165.0ZM62.296875 163.6171875Q63.7890625 163.6171875 64.69921875 162.63671875Q65.609375 161.65625 65.609375 160.046875Q65.609375 158.46875 64.6171875 157.2890625Q63.625 156.109375 62.296875 156.109375ZM71.9296875 156.1015625V158.9609375H75.9921875V160.3359375H71.9296875V163.625H76.765625V165.0H70.4296875V154.7265625H76.59375V156.1015625ZM82.3359375 156.1015625V158.9453125H85.4375V160.3203125H82.3359375V165.0H80.8359375V154.7265625H86.203125V156.1015625ZM94.4921875 160.8984375H92.34375V159.5234375H95.9921875V164.5234375Q94.4609375 165.125 93.0546875 165.125Q91.1171875 165.125 90.08984375 163.76171875Q89.0625 162.3984375 89.0625 159.84375Q89.0625 158.2109375 89.41015625 157.21484375Q89.7578125 156.21875 90.5625 155.515625Q91.625 154.6015625 93.2109375 154.6015625Q94.4453125 154.6015625 95.171875 155.2265625Q95.53125 155.53125 95.765625 155.93359375Q96.0 156.3359375 96.0 156.640625Q96.0 156.6640625 95.9921875 156.75H94.4921875Q94.25 155.9765625 93.28125 155.9765625Q91.8984375 155.9765625 91.234375 156.9140625Q90.5703125 157.8515625 90.5703125 159.796875Q90.5703125 163.75 93.1953125 163.75Q93.796875 163.75 94.4921875 163.4921875ZM104.015625 160.3671875H100.46875V165.0H98.96875V154.7265625H100.46875V158.9921875H104.015625V154.7265625H105.515625V165.0H104.015625ZM112.6171875 156.1015625V163.625H114.5V165.0H109.2578125V163.625H111.1171875V156.1015625H109.5625V154.7265625H114.171875V156.1015625ZM122.171875 154.7265625H123.671875V162.3359375Q123.671875 163.6640625 122.98828125 164.39453125Q122.3046875 165.125 121.0703125 165.125Q119.765625 165.125 119.09375 164.3828125Q118.421875 163.640625 118.421875 162.1875V161.6796875H119.9453125V162.3359375Q119.9453125 162.84375 120.00390625 163.05859375Q120.0625 163.2734375 120.2421875 163.453125Q120.5546875 163.75 121.0546875 163.75Q121.59375 163.75 121.8828125 163.4609375Q122.0625 163.28125 122.1171875 163.015625Q122.171875 162.75 122.171875 162.0546875ZM129.25 158.96875 133.453125 154.7265625H135.4296875L130.4765625 159.625L135.7421875 165.0H133.640625L129.25 160.3359375V165.0H127.75V154.7265625H129.25ZM139.3515625 163.625H144.6640625V165.0H137.8515625V154.7265625H139.3515625ZM150.4140625 158.734375 151.6171875 154.7265625H154.015625V165.0H152.515625V156.265625L151.0546875 161.640625H149.796875L148.3046875 156.265625V165.0H146.8046875V154.7265625H149.1796875ZM162.078125 162.2734375V154.7265625H163.453125V165.0H161.7890625L158.0078125 157.1171875V165.0H156.6328125V154.7265625H158.4375ZM169.6953125 154.6015625Q171.234375 154.6015625 172.27734375 156.109375Q173.3203125 157.6171875 173.3203125 159.8359375Q173.3203125 162.1875 172.3046875 163.65625Q171.2890625 165.125 169.671875 165.125Q168.09375 165.125 167.0703125 163.6640625Q166.046875 162.203125 166.046875 159.9453125Q166.046875 157.6484375 167.0859375 156.125Q168.125 154.6015625 169.6953125 154.6015625ZM169.6953125 155.9765625Q168.703125 155.9765625 168.1953125 156.859375Q167.5546875 157.96875 167.5546875 159.9296875Q167.5546875 161.734375 168.11328125 162.7421875Q168.671875 163.75 169.6796875 163.75Q170.6796875 163.75 171.24609375 162.71484375Q171.8125 161.6796875 171.8125 159.828125Q171.8125 158.0703125 171.23828125 157.0234375Q170.6640625 155.9765625 169.6953125 155.9765625ZM177.7265625 160.7421875V165.0H176.2265625V154.7265625H179.8671875Q180.7734375 154.7265625 181.30859375 154.9140625Q181.84375 155.1015625 182.34375 155.59375Q183.1953125 156.4375 183.1953125 157.7734375Q183.1953125 159.09375 182.234375 159.9609375Q181.359375 160.7421875 179.75 160.7421875ZM177.7265625 159.3671875H179.7890625Q180.6875 159.3671875 181.1875 158.94140625Q181.6875 158.515625 181.6875 157.7578125Q181.6875 156.1015625 179.8046875 156.1015625H177.7265625ZM191.40625 162.7109375 193.1796875 165.0H191.34375L190.4296875 163.828125Q189.6640625 164.4453125 188.6171875 164.4453125Q187.484375 164.4453125 186.5703125 163.6328125Q185.8203125 162.96875 185.48046875 161.98046875Q185.140625 160.9921875 185.140625 159.4765625Q185.140625 157.2421875 186.07421875 155.921875Q187.0078125 154.6015625 188.5859375 154.6015625Q189.78125 154.6015625 190.6875 155.4375Q192.109375 156.7421875 192.109375 159.5625Q192.109375 161.5859375 191.40625 162.7109375ZM190.390625 161.34375Q190.6015625 160.640625 190.6015625 159.6015625Q190.6015625 157.890625 190.0859375 156.93359375Q189.5703125 155.9765625 188.65625 155.9765625Q187.703125 155.9765625 187.234375 156.7578125Q186.6484375 157.734375 186.6484375 159.4140625Q186.6484375 161.125 187.171875 162.09765625Q187.6953125 163.0703125 188.6171875 163.0703125Q189.203125 163.0703125 189.578125 162.7109375L187.4921875 159.9765625H189.3046875ZM197.0078125 160.71875V165.0H195.5078125V154.7265625H198.640625Q200.1015625 154.7265625 200.9609375 155.53125Q201.8203125 156.3359375 201.8203125 157.703125Q201.8203125 158.78125 201.26953125 159.48828125Q200.71875 160.1953125 199.734375 160.3984375L202.4375 165.0H200.6875L198.3125 160.71875ZM197.0078125 159.328125H198.3828125Q200.3125 159.328125 200.3125 157.734375Q200.3125 156.1015625 198.3671875 156.1015625H197.0078125ZM211.359375 157.2734375H209.84375Q209.84375 156.6484375 209.44140625 156.3125Q209.0390625 155.9765625 208.296875 155.9765625Q207.6015625 155.9765625 207.15625 156.3515625Q206.7109375 156.7265625 206.7109375 157.3125Q206.7109375 158.109375 207.796875 158.6328125L209.0078125 159.2109375Q210.328125 159.84375 210.89453125 160.546875Q211.4609375 161.25 211.4609375 162.2578125Q211.4609375 163.5 210.53515625 164.3125Q209.609375 165.125 208.1953125 165.125Q206.8359375 165.125 205.89453125 164.359375Q204.953125 163.59375 204.953125 162.484375Q204.953125 162.3984375 204.96875 162.1875H206.4453125Q206.4921875 162.90625 206.9609375 163.328125Q207.4296875 163.75 208.1796875 163.75Q208.9296875 163.75 209.44140625 163.3203125Q209.953125 162.890625 209.953125 162.2578125Q209.953125 161.65625 209.44921875 161.19921875Q208.9453125 160.7421875 207.65625 160.171875Q206.2890625 159.5703125 205.74609375 158.95703125Q205.203125 158.34375 205.203125 157.4140625Q205.203125 156.1796875 206.1015625 155.390625Q207.0 154.6015625 208.40625 154.6015625Q209.6015625 154.6015625 210.48046875 155.328125Q211.359375 156.0546875 211.359375 157.046875ZM218.578125 156.1015625V165.0H217.078125V156.1015625H214.296875V154.7265625H221.3984375V156.1015625ZM224.0 154.7265625H225.5V161.578125Q225.5 162.7109375 225.98046875 163.23046875Q226.4609375 163.75 227.5 163.75Q228.484375 163.75 229.046875 163.125Q229.3046875 162.8359375 229.375 162.54296875Q229.4453125 162.25 229.4453125 161.4921875V154.7265625H230.9453125V161.4921875Q230.9453125 162.515625 230.7890625 163.078125Q230.6328125 163.640625 230.21875 164.109375Q229.3203125 165.125 227.421875 165.125Q225.78125 165.125 224.828125 164.1640625Q224.375 163.703125 224.1875 163.14453125Q224.0 162.5859375 224.0 161.6875ZM237.125 163.546875 239.453125 154.7265625H240.9765625L238.171875 165.0H236.0078125L233.234375 154.7265625H234.7734375ZM246.765625 161.34375 245.8203125 165.0H244.15625Q243.6875 163.0703125 243.36328125 160.35546875Q243.0390625 157.640625 243.0390625 155.7109375V154.7265625H244.5703125L244.5625 155.328125Q244.5625 159.3203125 245.078125 162.421875L246.171875 158.6796875H247.3515625L248.46875 162.4921875L248.53125 162.0234375Q248.953125 158.5 248.953125 155.515625L248.9375 154.7265625H250.453125V155.7890625Q250.453125 158.0703125 250.16015625 160.59765625Q249.8671875 163.125 249.3828125 165.0H247.7109375ZM256.375 158.328125 258.46875 154.7265625H259.984375L257.21875 159.578125L260.1640625 165.0H258.46875L256.375 161.0546875L254.265625 165.0H252.5859375L255.4765625 159.78125L252.5859375 154.7265625H254.375ZM265.9765625 158.640625 268.0390625 154.7265625H269.7109375L266.734375 160.1875V165.0H265.234375V160.1875L262.3046875 154.7265625H263.984375ZM274.3046875 163.625H278.734375V165.0H272.5390625V163.9375L276.5859375 156.1015625H272.671875V154.7265625H278.2421875V155.890625Z" fill="#6b7280"/><path d="M36.2734375 189.2421875V188.59375Q36.2734375 187.40625 34.8203125 187.40625Q33.4453125 187.40625 33.140625 188.2890625H31.640625Q31.7421875 186.28125 34.828125 186.28125Q36.359375 186.28125 37.0234375 186.9375Q37.6875 187.59375 37.6875 189.1015625V194.0H36.2734375V193.2421875Q35.3203125 194.1328125 34.03125 194.1328125Q32.7890625 194.1328125 32.04296875 193.5Q31.296875 192.8671875 31.296875 191.8203125Q31.296875 190.640625 32.20703125 189.94140625Q33.1171875 189.2421875 34.65625 189.2421875ZM36.2734375 190.390625H34.4375Q33.671875 190.390625 33.20703125 190.7578125Q32.7421875 191.125 32.7421875 191.7265625Q32.7421875 192.28125 33.11328125 192.64453125Q33.484375 193.0078125 34.0625 193.0078125Q34.9921875 193.0078125 35.6328125 192.3984375Q36.2734375 191.7890625 36.2734375 190.8984375ZM42.5 182.9453125V187.28125Q43.34375 186.28125 44.8359375 186.28125Q46.328125 186.28125 47.21875 187.375Q48.109375 188.46875 48.109375 190.3046875Q48.109375 192.0078125 47.1640625 193.07421875Q46.21875 194.140625 44.7109375 194.140625Q43.4140625 194.140625 42.5 193.1953125V194.0H41.0859375V182.9453125ZM44.6640625 187.5234375Q43.65625 187.5234375 43.078125 188.234375Q42.5 188.9453125 42.5 190.1875Q42.5 191.4609375 43.05859375 192.17578125Q43.6171875 192.890625 44.6171875 192.890625Q45.5546875 192.890625 46.10546875 192.16796875Q46.65625 191.4453125 46.65625 190.2109375Q46.65625 188.984375 46.11328125 188.25390625Q45.5703125 187.5234375 44.6640625 187.5234375ZM57.328125 188.4296875H55.796875Q55.46875 187.5234375 54.5078125 187.5234375Q52.578125 187.5234375 52.578125 190.203125Q52.578125 191.5 53.05859375 192.1953125Q53.5390625 192.890625 54.4296875 192.890625Q54.9609375 192.890625 55.3515625 192.5546875Q55.7421875 192.21875 55.796875 191.71875H57.328125Q57.28125 192.7734375 56.46875 193.453125Q55.65625 194.1328125 54.4453125 194.1328125Q52.9921875 194.1328125 52.1875 193.2734375Q51.703125 192.765625 51.41796875 191.92578125Q51.1328125 191.0859375 51.1328125 190.1953125Q51.1328125 188.4453125 52.0625 187.36328125Q52.9921875 186.28125 54.4921875 186.28125Q55.671875 186.28125 56.41796875 186.84765625Q57.1640625 187.4140625 57.328125 188.4296875ZM67.0703125 182.9453125V194.0H65.65625V193.171875Q64.703125 194.1328125 63.4375 194.1328125Q61.90625 194.1328125 60.98046875 193.0703125Q60.0546875 192.0078125 60.0546875 190.2578125Q60.0546875 188.4375 60.94140625 187.359375Q61.828125 186.28125 63.328125 186.28125Q64.8125 186.28125 65.65625 187.2421875V182.9453125ZM63.484375 187.5234375Q62.5859375 187.5234375 62.046875 188.234375Q61.5078125 188.9453125 61.5078125 190.125Q61.5078125 191.390625 62.07421875 192.140625Q62.640625 192.890625 63.59375 192.890625Q64.53125 192.890625 65.09765625 192.1328125Q65.6640625 191.375 65.6640625 190.1328125Q65.6640625 188.9140625 65.08203125 188.21875Q64.5 187.5234375 63.484375 187.5234375ZM76.734375 190.515625H71.484375L71.4765625 190.78125Q71.4765625 191.7109375 72.109375 192.30078125Q72.7421875 192.890625 73.7265625 192.890625Q74.5625 192.890625 74.90625 192.359375H76.4609375Q76.3828125 193.21875 75.6484375 193.67578125Q74.9140625 194.1328125 73.6171875 194.1328125Q71.875 194.1328125 70.91015625 193.09765625Q69.9453125 192.0625 69.9453125 190.1953125Q69.9453125 188.625 70.7734375 187.4921875Q71.65625 186.296875 73.4375 186.296875Q75.0703125 186.296875 75.9140625 187.2578125Q76.7578125 188.21875 76.7578125 190.078125Q76.7578125 190.203125 76.734375 190.515625ZM75.234375 189.28125Q75.234375 188.5 74.73828125 188.01953125Q74.2421875 187.5390625 73.4296875 187.5390625Q72.625 187.5390625 72.09375 188.01171875Q71.5625 188.484375 71.4765625 189.28125ZM83.5703125 186.4140625H85.8125V187.6484375H83.5703125V194.0H82.15625V187.6484375H79.953125V186.4140625H82.15625V185.765625Q82.15625 184.421875 82.85546875 183.68359375Q83.5546875 182.9453125 84.8359375 182.9453125H85.8359375V184.1953125H85.0546875Q83.5703125 184.1953125 83.5703125 185.671875ZM95.8125 186.4140625V193.8984375Q95.8125 195.265625 94.953125 195.921875Q94.09375 196.578125 92.3125 196.578125Q89.46875 196.578125 89.46875 194.859375L89.4765625 194.71875H90.9453125Q91.0 195.46875 92.265625 195.46875Q93.6875 195.46875 94.1484375 194.96875Q94.3984375 194.6953125 94.3984375 194.015625V192.6875L94.2109375 192.8359375Q93.375 193.515625 92.25 193.515625Q90.7890625 193.515625 89.94921875 192.52734375Q89.109375 191.5390625 89.109375 189.8125Q89.109375 188.1953125 89.94921875 187.23828125Q90.7890625 186.28125 92.2109375 186.28125Q93.640625 186.28125 94.3984375 187.1875V186.4140625ZM92.4296875 187.4296875Q91.5390625 187.4296875 91.046875 188.05859375Q90.5546875 188.6875 90.5546875 189.8203125Q90.5546875 192.3984375 92.5078125 192.3984375Q93.3984375 192.3984375 93.91015625 191.71484375Q94.421875 191.03125 94.421875 189.8359375Q94.421875 188.703125 93.89453125 188.06640625Q93.3671875 187.4296875 92.4296875 187.4296875ZM100.6875 182.9453125V187.0546875Q101.59375 186.28125 102.8671875 186.28125Q103.9296875 186.28125 104.625 186.9765625Q105.046875 187.40625 105.203125 187.89453125Q105.359375 188.3828125 105.359375 189.2578125V194.0H103.9453125V189.09375Q103.9453125 187.5859375 102.5546875 187.5859375Q101.7421875 187.5859375 101.203125 188.09375Q100.8984375 188.3828125 100.79296875 188.71875Q100.6875 189.0546875 100.6875 189.7265625V194.0H99.2734375V182.9453125ZM109.265625 186.4140625H113.203125V194.0H111.703125V187.84375H109.265625ZM111.0625 182.9453125H113.203125V184.84375H111.0625ZM119.9765625 186.4140625H123.234375V193.7734375Q123.234375 194.65625 123.09375 195.1015625Q122.953125 195.546875 122.5546875 195.9296875Q121.8125 196.6328125 120.2578125 196.6328125H118.96875V195.3984375H120.21875Q121.015625 195.3984375 121.4140625 194.984375Q121.6640625 194.7265625 121.7421875 194.4765625Q121.8203125 194.2265625 121.8203125 193.703125V187.828125H119.9765625ZM121.2421875 182.9453125H123.234375V184.859375H121.2421875ZM129.8984375 182.9453125V189.15625L132.828125 186.4140625H134.8359375L131.2109375 189.6953125L135.1796875 194.0H133.1953125L129.8984375 190.40625V194.0H128.484375V182.9453125ZM140.4375 182.9453125V191.234375Q140.4375 192.765625 142.1015625 192.765625H143.3046875V194.0H141.6875Q140.2890625 194.0 139.65625 193.25Q139.0234375 192.5 139.0234375 190.8515625V182.9453125ZM146.6796875 186.4140625H148.09375V186.9921875Q148.8359375 186.28125 149.7265625 186.28125Q150.1953125 186.28125 150.44921875 186.40234375Q150.703125 186.5234375 150.9765625 186.8828125Q151.59375 186.28125 152.578125 186.28125Q153.3671875 186.28125 153.8359375 186.8203125Q154.3046875 187.359375 154.3046875 188.25V194.0H152.890625V188.25Q152.890625 187.3828125 152.1640625 187.3828125Q151.1953125 187.3828125 151.1953125 188.890625V194.0H149.78125V188.2109375Q149.78125 187.3828125 149.0546875 187.3828125Q148.09375 187.3828125 148.09375 188.8515625V194.0H146.6796875ZM156.6796875 186.4140625H158.09375V187.28125Q159.0859375 186.28125 160.5703125 186.28125Q161.859375 186.28125 162.62890625 187.0390625Q163.3984375 187.796875 163.3984375 189.0625V194.0H161.984375V188.953125Q161.984375 188.28125 161.5703125 187.90234375Q161.15625 187.5234375 160.40625 187.5234375Q159.3671875 187.5234375 158.73046875 188.171875Q158.09375 188.8203125 158.09375 189.875V194.0H156.6796875ZM169.65625 186.28125Q171.4765625 186.28125 172.421875 187.375Q172.8515625 187.8828125 173.12109375 188.65625Q173.390625 189.4296875 173.390625 190.1875Q173.390625 191.90625 172.34375 193.01953125Q171.296875 194.1328125 169.6796875 194.1328125Q168.0078125 194.1328125 166.98828125 193.046875Q165.96875 191.9609375 165.96875 190.1796875Q165.96875 188.421875 166.98046875 187.3515625Q167.9921875 186.28125 169.65625 186.28125ZM169.7421875 187.3828125Q168.6640625 187.3828125 168.0390625 188.140625Q167.4140625 188.8984375 167.4140625 190.1875Q167.4140625 191.5 168.0234375 192.265625Q168.6328125 193.03125 169.6796875 193.03125Q170.71875 193.03125 171.33203125 192.28125Q171.9453125 191.53125 171.9453125 190.2578125Q171.9453125 188.90625 171.36328125 188.14453125Q170.78125 187.3828125 169.7421875 187.3828125ZM175.9453125 186.4140625H177.359375V187.140625Q178.3671875 186.28125 179.53125 186.28125Q181.03125 186.28125 182.00390625 187.37109375Q182.9765625 188.4609375 182.9765625 190.140625Q182.9765625 191.9375 182.03515625 193.03515625Q181.09375 194.1328125 179.5546875 194.1328125Q178.90625 194.1328125 178.30078125 193.88671875Q177.6953125 193.640625 177.359375 193.25V196.515625H175.9453125ZM179.4453125 187.5234375Q178.4453125 187.5234375 177.8828125 188.234375Q177.3203125 188.9453125 177.3203125 190.21875Q177.3203125 191.46875 177.87890625 192.1796875Q178.4375 192.890625 179.421875 192.890625Q180.4140625 192.890625 180.97265625 192.1953125Q181.53125 191.5 181.53125 190.2734375Q181.53125 187.5234375 179.4453125 187.5234375ZM192.3359375 186.4140625V196.515625H190.921875V193.21875Q190.0234375 194.1328125 188.6875 194.1328125Q187.15625 194.1328125 186.21875 193.05859375Q185.28125 191.984375 185.28125 190.2421875Q185.28125 189.328125 185.62890625 188.4296875Q185.9765625 187.53125 186.5 187.0703125Q187.40625 186.28125 188.671875 186.28125Q189.890625 186.28125 190.921875 187.1875V186.4140625ZM188.8359375 187.5234375Q187.84375 187.5234375 187.28515625 188.22265625Q186.7265625 188.921875 186.7265625 190.1640625Q186.7265625 192.890625 188.7890625 192.890625Q189.8203125 192.890625 190.37109375 192.17578125Q190.921875 191.4609375 190.921875 190.1171875Q190.921875 188.9140625 190.36328125 188.21875Q189.8046875 187.5234375 188.8359375 187.5234375ZM196.09375 186.4140625H197.5078125V187.28125Q198.3515625 186.28125 199.5703125 186.28125Q200.578125 186.28125 201.21484375 186.91796875Q201.8515625 187.5546875 201.8515625 188.5625Q201.8515625 188.640625 201.8359375 188.84375H200.359375Q200.3671875 188.7109375 200.3671875 188.640625Q200.3671875 188.1015625 200.08203125 187.76171875Q199.796875 187.421875 199.34375 187.421875Q198.5078125 187.421875 197.9296875 188.1953125Q197.5078125 188.7578125 197.5078125 189.9140625V194.0H196.09375ZM211.0859375 188.3203125H209.609375Q209.5234375 187.4375 208.234375 187.4375Q206.7109375 187.4375 206.7109375 188.3828125Q206.7109375 189.1796875 207.7734375 189.3828125Q209.8515625 189.7890625 210.4140625 190.109375Q211.4375 190.703125 211.4375 191.8828125Q211.4375 192.953125 210.5390625 193.54296875Q209.640625 194.1328125 208.0 194.1328125Q206.5625 194.1328125 205.7734375 193.58984375Q204.984375 193.046875 204.984375 192.046875H206.46875Q206.546875 192.6015625 206.93359375 192.83203125Q207.3203125 193.0625 208.171875 193.0625Q208.9765625 193.0625 209.48046875 192.7578125Q209.984375 192.453125 209.984375 191.96875Q209.984375 191.484375 209.7109375 191.265625Q209.4375 191.046875 208.640625 190.8984375Q206.6953125 190.53125 205.9765625 190.015625Q205.2578125 189.5 205.2578125 188.46875Q205.2578125 186.28125 208.5 186.28125Q209.7421875 186.28125 210.421875 186.75390625Q211.1015625 187.2265625 211.1015625 188.0859375Q211.1015625 188.15625 211.0859375 188.3203125ZM217.8046875 184.140625V186.328125H220.65625V187.5625H217.8046875V191.53125Q217.8046875 192.1796875 218.09375 192.53515625Q218.3828125 192.890625 218.9140625 192.890625Q219.3046875 192.890625 219.80859375 192.71484375Q220.3125 192.5390625 220.65625 192.2890625V193.6875Q219.9765625 194.1328125 218.8828125 194.1328125Q217.6640625 194.1328125 217.02734375 193.43359375Q216.390625 192.734375 216.390625 191.390625V187.5625H214.8203125V186.328125H216.390625V184.5390625ZM230.8046875 186.4140625V194.0H229.390625V193.125Q228.3671875 194.1328125 226.7265625 194.1328125Q225.5390625 194.1328125 224.82421875 193.42578125Q224.109375 192.71875 224.109375 191.53125V186.4140625H225.5234375V191.53125Q225.5234375 192.890625 227.03125 192.890625Q228.0859375 192.890625 228.7734375 192.203125Q229.390625 191.5859375 229.390625 190.421875V186.4140625ZM234.84375 186.4140625 237.109375 192.9765625 239.5078125 186.4140625H240.96875L238.15625 194.0H236.0L233.234375 186.4140625ZM244.515625 186.4140625 245.109375 192.140625 245.984375 189.3671875H247.5078125L248.3828125 192.3046875L249.0 186.4140625H250.4453125L249.5234375 194.0H247.6796875L246.734375 190.828125L245.8046875 194.0H243.9921875L243.0234375 186.4140625ZM254.65625 186.4140625 256.390625 189.140625 258.1015625 186.4140625H259.78125L257.171875 190.1640625L260.0703125 194.0H258.2421875L256.2734375 191.078125L254.34375 194.0H252.671875L255.453125 190.1640625L252.671875 186.4140625ZM266.171875 190.7890625 268.6171875 186.4140625H270.1015625L265.375 195.09375Q264.5703125 196.578125 263.1953125 196.578125H262.609375V195.3203125H263.1796875Q263.6171875 195.3203125 263.8203125 194.9609375L263.9609375 194.71875L265.4140625 192.15625L262.0625 186.4140625H263.859375ZM278.390625 186.4140625V187.8046875L274.125 192.765625H278.71875V194.0H272.5546875V192.53125L276.78125 187.6484375H272.84375V186.4140625ZM304.6953125 182.828125Q305.8984375 182.828125 306.55078125 183.109375Q307.203125 183.390625 307.515625 184.0546875Q308.21875 185.5078125 308.21875 188.4921875Q308.21875 192.234375 307.25 193.3125Q306.515625 194.125 304.3984375 194.125Q302.203125 194.125 301.6171875 193.0390625Q300.8515625 191.6171875 300.8515625 188.4140625Q300.8515625 185.203125 301.6171875 183.8828125Q301.9375 183.328125 302.66796875 183.078125Q303.3984375 182.828125 304.6953125 182.828125ZM304.6640625 184.234375Q303.8203125 184.234375 303.42578125 184.32421875Q303.03125 184.4140625 302.8515625 184.6484375Q302.640625 184.921875 302.484375 186.03515625Q302.328125 187.1484375 302.328125 188.40625Q302.328125 189.453125 302.44921875 190.5625Q302.5703125 191.671875 302.7265625 192.0703125Q302.875 192.453125 303.24609375 192.609375Q303.6171875 192.765625 304.3828125 192.765625Q305.265625 192.765625 305.69921875 192.6484375Q306.1328125 192.53125 306.28125 192.2578125Q306.75 191.3671875 306.75 188.78125Q306.75 187.2578125 306.59375 186.08984375Q306.4375 184.921875 306.1796875 184.6015625Q306.015625 184.390625 305.6953125 184.3125Q305.375 184.234375 304.6640625 184.234375ZM314.0234375 184.65625 311.203125 187.09375V185.203125L313.8828125 182.953125H315.546875V194.0H314.0234375ZM321.8828125 192.5859375H326.8984375V194.0H320.40625Q320.34375 193.3984375 320.34375 193.1171875Q320.34375 191.6328125 320.7890625 190.71875Q321.140625 190.0 321.71484375 189.44140625Q322.2890625 188.8828125 323.4453125 188.15625Q324.671875 187.375 325.09765625 186.8984375Q325.5234375 186.421875 325.5234375 185.8359375Q325.5234375 185.15625 325.0 184.64453125Q324.4765625 184.1328125 323.7734375 184.1328125Q322.2109375 184.1328125 320.546875 185.2890625V183.6484375Q321.84375 182.734375 323.5625 182.734375Q325.1484375 182.734375 326.09765625 183.5625Q327.046875 184.390625 327.046875 185.765625Q327.046875 186.7578125 326.5546875 187.5Q326.25 187.96875 325.83984375 188.30078125Q325.4296875 188.6328125 324.0859375 189.5Q322.9140625 190.265625 322.3984375 190.9375Q321.8828125 191.609375 321.8828125 192.375ZM334.6171875 184.3203125H329.8828125V182.953125H336.5546875V184.46875L333.7265625 187.2890625Q335.328125 187.421875 336.171875 188.26171875Q337.015625 189.1015625 337.015625 190.546875Q337.015625 192.1484375 335.85546875 193.13671875Q334.6953125 194.125 332.8046875 194.125Q331.4296875 194.125 329.8828125 193.46875V191.9609375Q331.1484375 192.7421875 332.6484375 192.7421875Q333.984375 192.7421875 334.73828125 192.12890625Q335.4921875 191.515625 335.4921875 190.4296875Q335.4921875 189.5703125 334.8125 189.0078125Q334.1328125 188.4453125 333.0859375 188.4453125H331.7421875V187.28125ZM345.25 190.1875H346.625V191.6015625H345.25V194.0H343.7265625V191.6015625H339.5234375V189.9453125L342.7734375 182.953125H344.34375L340.9921875 190.1875H343.7265625V187.8828125H345.25ZM351.3046875 184.3359375 351.1171875 186.546875 351.515625 186.5390625Q353.546875 186.5390625 354.6796875 187.46875Q355.8125 188.3984375 355.8125 190.0625Q355.8125 192.4921875 353.4375 193.53125Q352.1328125 194.1015625 349.6171875 194.1015625V192.7578125H349.78125L350.5625 192.765625Q351.25 192.765625 351.859375 192.6484375Q353.0078125 192.4140625 353.6484375 191.73046875Q354.2890625 191.046875 354.2890625 190.046875Q354.2890625 187.921875 351.546875 187.921875Q350.890625 187.921875 350.3828125 187.9765625L349.828125 188.0390625Q349.7890625 188.046875 349.6171875 188.0625L349.953125 182.953125H355.515625V184.3359375ZM362.96875 182.953125H364.9609375L364.78125 183.125Q362.828125 184.9921875 362.046875 186.0390625L361.3828125 186.9453125Q361.34375 186.9921875 361.1640625 187.2265625Q361.9609375 186.8984375 362.578125 186.8984375Q364.046875 186.8984375 365.05078125 187.921875Q366.0546875 188.9453125 366.0546875 190.4375Q366.0546875 192.1015625 365.0390625 193.11328125Q364.0234375 194.125 362.34375 194.125Q360.578125 194.125 359.6015625 193.13671875Q358.625 192.1484375 358.625 190.3515625Q358.625 189.2421875 359.015625 188.2421875Q359.40625 187.2421875 360.328125 185.96875Q361.4140625 184.4765625 362.96875 182.953125ZM362.359375 188.296875Q361.390625 188.296875 360.76171875 188.90625Q360.1328125 189.515625 360.1328125 190.4609375Q360.1328125 191.4609375 360.75 192.09375Q361.3671875 192.7265625 362.3359375 192.7265625Q363.3046875 192.7265625 363.92578125 192.09375Q364.546875 191.4609375 364.546875 190.46875Q364.546875 189.5390625 363.921875 188.91796875Q363.296875 188.296875 362.359375 188.296875ZM373.84375 184.3203125H368.40625V182.953125H375.671875V183.390625Q375.671875 184.1953125 375.390625 184.78515625Q375.109375 185.375 374.234375 186.3984375Q372.640625 188.265625 372.078125 189.4453125Q371.515625 190.625 371.515625 192.0859375V194.0H369.9921875V192.0859375Q369.9921875 190.671875 370.6640625 189.12890625Q371.3359375 187.5859375 372.5546875 186.1875L373.3359375 185.296875Q373.7578125 184.8125 373.84375 184.3203125ZM382.9375 187.8515625 383.2578125 188.046875Q384.40625 188.7578125 384.85546875 189.41796875Q385.3046875 190.078125 385.3046875 191.0625Q385.3046875 192.53125 384.328125 193.328125Q383.3515625 194.125 381.5625 194.125Q379.8125 194.125 378.84765625 193.328125Q377.8828125 192.53125 377.8828125 191.0859375Q377.8828125 188.9140625 380.2265625 187.8515625Q379.09375 187.09375 378.703125 186.546875Q378.3125 186.0 378.3125 185.1796875Q378.3125 184.1328125 379.2109375 183.48046875Q380.109375 182.828125 381.546875 182.828125Q383.046875 182.828125 383.9375 183.484375Q384.828125 184.140625 384.828125 185.2421875Q384.828125 185.9765625 384.44921875 186.53125Q384.0703125 187.0859375 383.1484375 187.7109375ZM381.578125 187.109375Q382.390625 186.765625 382.859375 186.3046875Q383.328125 185.84375 383.328125 185.3984375Q383.328125 184.8359375 382.8515625 184.5Q382.375 184.1640625 381.5859375 184.1640625Q380.765625 184.1640625 380.2890625 184.48828125Q379.8125 184.8125 379.8125 185.375Q379.8125 186.40625 381.578125 187.109375ZM381.59375 188.609375 381.28125 188.78125Q380.2109375 189.3359375 379.796875 189.81640625Q379.3828125 190.296875 379.3828125 190.9765625Q379.3828125 191.7890625 380.0 192.27734375Q380.6171875 192.765625 381.6484375 192.765625Q382.625 192.765625 383.2109375 192.2890625Q383.796875 191.8125 383.796875 191.0234375Q383.796875 190.3125 383.2109375 189.671875Q382.625 189.03125 381.59375 188.609375ZM390.6015625 194.0H388.578125Q391.15625 191.59375 392.359375 189.703125Q391.6171875 190.0234375 390.9296875 190.0234375Q389.4765625 190.0234375 388.484375 189.00390625Q387.4921875 187.984375 387.4921875 186.5Q387.4921875 184.8515625 388.5234375 183.83984375Q389.5546875 182.828125 391.2265625 182.828125Q392.921875 182.828125 393.9375 183.85546875Q394.953125 184.8828125 394.953125 186.6015625Q394.953125 188.171875 394.02734375 189.77734375Q393.1015625 191.3828125 390.828125 193.7578125ZM391.234375 184.1953125Q390.2421875 184.1953125 389.61328125 184.8203125Q388.984375 185.4453125 388.984375 186.4453125Q388.984375 187.40625 389.6171875 188.015625Q390.25 188.625 391.25 188.625Q392.2109375 188.625 392.828125 188.00390625Q393.4453125 187.3828125 393.4453125 186.40625Q393.4453125 185.5546875 392.8828125 184.890625Q392.2890625 184.1953125 391.234375 184.1953125ZM419.9296875 188.484375 422.0546875 191.375Q422.375 190.2734375 422.375 189.3125L422.3671875 189.03125H423.875L423.8828125 189.2578125Q423.8828125 190.0859375 423.60546875 191.015625Q423.328125 191.9453125 422.9140625 192.5078125L424.0 194.0H422.1484375L421.8125 193.5546875Q420.8984375 194.09375 419.71875 194.09375Q418.015625 194.09375 417.140625 193.1015625Q416.3984375 192.265625 416.3984375 191.1875Q416.3984375 189.4453125 418.0703125 188.2421875Q416.7734375 186.5 416.7734375 185.3515625Q416.7734375 184.2890625 417.65625 183.578125Q418.5390625 182.8671875 419.859375 182.8671875Q421.078125 182.8671875 421.8984375 183.5234375Q422.71875 184.1796875 422.71875 185.1484375Q422.71875 185.921875 422.17578125 186.58984375Q421.6328125 187.2578125 420.1171875 188.3515625Q420.0546875 188.390625 419.9296875 188.484375ZM419.1796875 187.484375Q419.375 187.328125 419.4765625 187.2578125Q420.53125 186.453125 420.84375 186.109375Q421.15625 185.765625 421.15625 185.421875Q421.15625 184.875 420.78515625 184.56640625Q420.4140625 184.2578125 419.7578125 184.2578125Q419.1015625 184.2578125 418.69921875 184.65625Q418.296875 185.0546875 418.296875 185.6953125Q418.296875 186.34375 419.1796875 187.484375ZM418.8359375 189.375Q417.9296875 190.140625 417.9296875 191.0078125Q417.9296875 191.734375 418.4921875 192.22265625Q419.0546875 192.7109375 419.8828125 192.7109375Q420.515625 192.7109375 421.0390625 192.453125ZM427.9453125 191.6640625H430.8125V194.0H427.9453125ZM439.1796875 191.2265625H441.9375V192.3515625L437.8046875 196.5H436.078125ZM447.2109375 182.953125H449.3203125L449.0078125 189.859375H447.484375ZM447.2109375 192.2265625H449.3203125V194.0H447.2109375ZM459.8203125 190.34375H458.3125V189.65625Q458.3125 189.2265625 458.5 188.9375Q458.6875 188.6484375 459.4296875 187.953125Q459.8984375 187.5078125 460.05859375 187.19140625Q460.21875 186.875 460.21875 186.40625Q460.21875 185.796875 459.83984375 185.40625Q459.4609375 185.015625 458.875 185.015625Q457.375 185.015625 457.375 186.765625L457.3671875 186.953125H455.8359375V186.6875L456.0 185.3359375Q456.21875 184.6015625 457.015625 184.1328125Q457.8125 183.6640625 458.84375 183.6640625Q460.1328125 183.6640625 460.9296875 184.375Q461.7265625 185.0859375 461.7265625 186.234375Q461.7265625 187.640625 460.6640625 188.640625Q460.0234375 189.2421875 459.921875 189.3828125Q459.8203125 189.5234375 459.8203125 189.8125ZM457.9921875 192.0703125H460.1328125V194.0H457.9921875Z" fill="#6b7280"/></svg>