<svg xmlns="http://www.w3.org/2000/svg" viewBox="0 0 431.8 222.0" width="432" height="222"><path d="M37.544 72.228C36.256 72.228 36.256 71.906 36.256 70.572V48.400000000000006C36.256 47.296 36.486 46.974000000000004 37.544 46.974000000000004H54.242000000000004C55.438 46.974000000000004 55.622 47.25 55.622 48.400000000000006V55.53C55.622 57.094 55.622 57.001999999999995 55.024 58.198L53.92 60.406C53.322 61.647999999999996 53.184 62.522 53.184 63.166C53.184 63.763999999999996 53.275999999999996 64.132 53.275999999999996 64.408V70.572C53.275999999999996 71.86 53.184 72.228 51.942 72.228ZM59.9 73.654V45.501999999999995C59.9 44.444 58.980000000000004 43.524 57.784 43.524H34.232C33.036 43.524 32.116 44.444 32.116 45.501999999999995V73.654C32.116 74.988 33.174 76.0 34.6 76.0H57.416C58.842 76.0 59.9 74.988 59.9 73.654ZM63.948 74.344C63.948 75.31 64.638 76.0 65.512 76.0H69.1C70.112 76.0 70.618 75.54 70.618 74.528V67.582C70.618 66.984 70.572 66.294 70.02 65.19L68.68599999999999 62.66C68.318 62.016 68.17999999999999 61.28 68.17999999999999 60.406V58.152C68.17999999999999 57.462 68.27199999999999 57.14 68.962 57.14H75.862C76.55199999999999 57.14 76.598 57.278 76.598 57.968V59.394000000000005C76.598 60.176 76.92 60.452 77.74799999999999 60.452H79.634C80.646 60.452 80.876 60.038 80.876 58.980000000000004V55.391999999999996C80.876 54.426 80.094 53.644000000000005 78.99 53.644000000000005H66.11C64.776 53.644000000000005 63.948 54.472 63.948 55.576ZM98.44800000000001 72.274H91.548C90.214 72.274 90.168 72.044 90.168 70.894V58.566C90.168 57.692 90.39800000000001 57.370000000000005 91.31800000000001 57.370000000000005H98.77000000000001C99.78200000000001 57.370000000000005 99.78200000000001 57.462 99.78200000000001 58.704V70.894C99.78200000000001 72.09 99.69 72.274 98.44800000000001 72.274ZM101.714 76.0C103.14 76.0 104.06 75.08 104.06 73.424V55.576C104.06 54.564 103.14 53.644000000000005 102.08200000000001 53.644000000000005H90.95C89.524 53.644000000000005 88.512 53.69 87.546 54.61V44.582C87.546 43.754 87.17800000000001 43.524 86.212 43.524H84.83200000000001C83.82000000000001 43.524 83.31400000000001 43.892 83.31400000000001 44.582V73.47C83.31400000000001 74.942 84.372 76.0 85.75200000000001 76.0ZM111.006 53.644000000000005H108.84400000000001C108.2 53.644000000000005 107.924 53.966 107.924 54.61V74.62C107.924 75.494 108.476 76.0 109.58 76.0H113.352C114.08800000000001 76.0 114.59400000000001 75.448 114.59400000000001 74.528V67.766C114.59400000000001 66.938 114.59400000000001 66.202 114.226 65.466L112.47800000000001 62.108000000000004C112.248 61.647999999999996 111.97200000000001 61.418 111.97200000000001 60.314V54.61C111.97200000000001 54.012 111.604 53.644000000000005 111.006 53.644000000000005ZM107.55600000000001 48.17C107.55600000000001 49.504000000000005 108.614 50.562 109.94800000000001 50.562C111.28200000000001 50.562 112.34 49.504000000000005 112.34 48.17C112.34 46.836 111.28200000000001 45.778000000000006 109.94800000000001 45.778000000000006C108.614 45.778000000000006 107.55600000000001 46.836 107.55600000000001 48.17ZM121.44800000000001 76.0H126.876C127.84200000000001 76.0 127.93400000000001 75.816 127.93400000000001 74.85V73.47C127.93400000000001 72.688 127.65800000000002 72.504 126.876 72.504H124.852C124.162 72.504 124.11600000000001 72.458 124.11600000000001 71.538V60.36H128.762C129.59 60.36 130.00400000000002 59.946 130.00400000000002 59.21V55.116C130.00400000000002 54.150000000000006 129.544 53.644000000000005 128.762 53.644000000000005H124.11600000000001V48.262C124.11600000000001 47.388000000000005 123.748 46.974000000000004 123.01200000000001 46.974000000000004H121.218C120.34400000000001 46.974000000000004 119.93 47.388000000000005 119.93 48.262V53.644000000000005H118.22800000000001C117.72200000000001 53.644000000000005 117.4 54.012 117.4 54.472V56.495999999999995C117.4 56.956 117.76800000000001 57.370000000000005 118.22800000000001 57.370000000000005H119.93V74.436C119.93 75.356 120.62 76.0 121.44800000000001 76.0ZM134.65 66.662H148.864C149.738 66.662 150.06 66.478 150.06 65.696V64.086C150.06 63.258 149.784 62.936 149.002 62.936H134.74200000000002C134.144 62.936 133.73000000000002 63.35 133.73000000000002 63.902V65.65C133.73000000000002 66.34 134.098 66.662 134.65 66.662ZM173.842 47.112C174.62400000000002 47.112 174.946 47.158 174.946 47.894000000000005V57.370000000000005C174.946 58.06 174.67000000000002 58.106 174.072 58.106H159.168C158.478 58.106 158.202 58.013999999999996 158.202 57.370000000000005V47.894000000000005C158.202 47.204 158.478 47.112 159.168 47.112ZM177.108 61.878C177.89000000000001 61.878 178.21200000000002 61.924 178.21200000000002 62.614000000000004V71.492C178.21200000000002 72.136 177.982 72.182 177.38400000000001 72.182H161.97400000000002C161.28400000000002 72.182 161.008 72.09 161.008 71.492V62.614000000000004C161.008 61.97 161.28400000000002 61.878 161.97400000000002 61.878ZM176.602 43.524H156.40800000000002C155.21200000000002 43.524 154.292 44.444 154.292 45.501999999999995V73.654C154.292 74.988 155.35000000000002 76.0 156.776 76.0H179.546C180.972 76.0 182.03 74.988 182.03 73.654V62.982C182.03 61.326 181.984 61.004 180.88 59.854L179.22400000000002 58.152C178.764 57.692 178.71800000000002 57.14 178.71800000000002 56.45V45.501999999999995C178.71800000000002 44.444 177.798 43.524 176.602 43.524Z" fill="#12151a"/><path d="M33.772 125.114C33.128 125.114 33.128 124.953 33.128 124.286V113.2C33.128 112.648 33.243 112.487 33.772 112.487H42.121C42.719 112.487 42.811 112.625 42.811 113.2V116.765C42.811 117.547 42.811 117.501 42.512 118.099L41.96 119.203C41.661 119.824 41.592 120.261 41.592 120.583C41.592 120.882 41.638 121.066 41.638 121.204V124.286C41.638 124.93 41.592 125.114 40.971000000000004 125.114ZM44.95 125.827V111.751C44.95 111.222 44.49 110.762 43.891999999999996 110.762H32.116C31.518 110.762 31.058 111.222 31.058 111.751V125.827C31.058 126.494 31.587 127.0 32.3 127.0H43.708C44.421 127.0 44.95 126.494 44.95 125.827ZM46.974 126.172C46.974 126.655 47.318999999999996 127.0 47.75599999999999 127.0H49.55C50.056 127.0 50.309 126.77 50.309 126.264V122.791C50.309 122.492 50.285999999999994 122.147 50.01 121.595L49.342999999999996 120.33C49.15899999999999 120.008 49.089999999999996 119.64 49.089999999999996 119.203V118.076C49.089999999999996 117.731 49.135999999999996 117.57 49.480999999999995 117.57H52.931C53.275999999999996 117.57 53.29899999999999 117.639 53.29899999999999 117.984V118.697C53.29899999999999 119.088 53.459999999999994 119.226 53.873999999999995 119.226H54.81699999999999C55.32299999999999 119.226 55.437999999999995 119.019 55.437999999999995 118.49V116.696C55.437999999999995 116.213 55.047 115.822 54.495 115.822H48.05499999999999C47.388 115.822 46.974 116.236 46.974 116.788ZM64.22399999999999 125.137H60.773999999999994C60.107 125.137 60.083999999999996 125.022 60.083999999999996 124.447V118.283C60.083999999999996 117.846 60.199 117.685 60.65899999999999 117.685H64.38499999999999C64.89099999999999 117.685 64.89099999999999 117.731 64.89099999999999 118.352V124.447C64.89099999999999 125.045 64.845 125.137 64.22399999999999 125.137ZM65.857 127.0C66.57 127.0 67.03 126.54 67.03 125.712V116.788C67.03 116.282 66.57 115.822 66.041 115.822H60.474999999999994C59.76199999999999 115.822 59.25599999999999 115.845 58.772999999999996 116.305V111.291C58.772999999999996 110.877 58.589 110.762 58.105999999999995 110.762H57.416C56.91 110.762 56.657 110.946 56.657 111.291V125.735C56.657 126.471 57.18599999999999 127.0 57.876 127.0ZM70.503 115.822H69.422C69.1 115.822 68.96199999999999 115.983 68.96199999999999 116.305V126.31C68.96199999999999 126.747 69.238 127.0 69.78999999999999 127.0H71.67599999999999C72.044 127.0 72.297 126.724 72.297 126.264V122.883C72.297 122.469 72.297 122.101 72.113 121.733L71.23899999999999 120.054C71.124 119.824 70.98599999999999 119.709 70.98599999999999 119.157V116.305C70.98599999999999 116.006 70.80199999999999 115.822 70.503 115.822ZM68.77799999999999 113.08500000000001C68.77799999999999 113.752 69.30699999999999 114.281 69.97399999999999 114.281C70.64099999999999 114.281 71.17 113.752 71.17 113.08500000000001C71.17 112.418 70.64099999999999 111.889 69.97399999999999 111.889C69.30699999999999 111.889 68.77799999999999 112.418 68.77799999999999 113.08500000000001ZM75.724 127.0H78.438C78.92099999999999 127.0 78.967 126.908 78.967 126.425V125.735C78.967 125.344 78.829 125.252 78.438 125.252H77.426C77.081 125.252 77.05799999999999 125.229 77.05799999999999 124.769V119.18H79.381C79.795 119.18 80.002 118.973 80.002 118.605V116.55799999999999C80.002 116.075 79.77199999999999 115.822 79.381 115.822H77.05799999999999V113.131C77.05799999999999 112.694 76.874 112.487 76.506 112.487H75.609C75.172 112.487 74.965 112.694 74.965 113.131V115.822H74.114C73.861 115.822 73.7 116.006 73.7 116.236V117.248C73.7 117.478 73.884 117.685 74.114 117.685H74.965V126.218C74.965 126.678 75.31 127.0 75.724 127.0ZM82.693 127.0H92.35300000000001C92.69800000000001 127.0 92.928 126.77 92.928 126.402V125.643C92.928 125.275 92.744 125.114 92.44500000000001 125.114H92.054C91.732 125.114 91.571 124.93 91.571 124.562V116.834C91.571 116.167 91.249 115.822 90.58200000000001 115.822H82.348C81.773 115.822 81.681 115.937 81.681 116.42V117.179C81.681 117.639 81.911 117.662 82.348 117.662H89.202C89.524 117.662 89.662 117.731 89.662 118.007V119.065C89.662 119.387 89.593 119.41 89.31700000000001 119.41H82.808C82.118 119.41 81.681 119.87 81.681 120.376V125.896C81.681 126.563 82.095 127.0 82.693 127.0ZM85.384 125.022C85.08500000000001 125.022 84.97 124.884 84.97 124.562V121.71C84.97 121.365 84.993 121.273 85.384 121.273H89.202C89.616 121.273 89.662 121.388 89.662 121.825V124.562C89.662 124.953 89.616 125.022 89.202 125.022ZM93.71 111.245V126.31C93.71 126.747 93.986 127.0 94.538 127.0H96.424C96.792 127.0 97.045 126.724 97.045 126.264V122.883C97.045 122.469 97.045 122.101 96.861 121.733L95.987 120.054C95.872 119.824 95.734 119.709 95.734 119.157V111.245C95.734 110.946 95.55 110.762 95.251 110.762H94.17C93.848 110.762 93.71 110.923 93.71 111.245ZM115.28399999999999 110.762H108.66C107.97 110.762 107.60199999999999 111.107 107.60199999999999 111.544V115.822H106.383C105.99199999999999 115.822 105.785 116.006 105.785 116.305V117.156C105.785 117.501 105.99199999999999 117.685 106.383 117.685H107.60199999999999V126.425C107.60199999999999 126.77 107.85499999999999 127.0 108.17699999999999 127.0H109.005C109.419 127.0 109.62599999999999 126.816 109.62599999999999 126.448V124.125C109.62599999999999 123.872 109.649 123.573 109.925 123.113L110.569 121.963C110.822 121.526 110.845 121.158 110.845 120.813V117.685H112.34C112.823 117.685 113.03 117.616 113.03 117.179V116.42C113.03 116.006 112.869 115.822 112.478 115.822H110.845V112.602H114.042V113.292C114.042 113.614 114.17999999999999 113.752 114.502 113.752H115.583C115.951 113.752 116.13499999999999 113.66 116.13499999999999 113.292V111.544C116.13499999999999 110.992 115.859 110.762 115.28399999999999 110.762ZM115.215 127.0H123.771C124.461 127.0 124.668 126.77 124.668 126.08V124.033C124.668 123.642 124.576 123.55 124.231 123.55H122.989C122.713 123.55 122.598 123.573 122.598 123.849V124.792C122.598 125.114 122.529 125.137 122.276 125.137H117.791C117.515 125.137 117.492 125.091 117.492 124.631V122.101C117.492 121.71 117.538 121.572 117.952 121.572H123.84C124.369 121.572 124.668 121.273 124.668 120.859V116.673C124.668 116.236 124.231 115.822 123.633 115.822H115.33C114.64 115.822 114.249 116.19 114.249 116.673V126.08C114.249 126.517 114.732 127.0 115.215 127.0ZM117.883 117.57H122.207C122.506 117.57 122.598 117.708 122.598 118.03V119.525C122.598 119.778 122.506 119.87 122.207 119.87H117.81400000000001C117.538 119.87 117.492 119.778 117.492 119.502V117.892C117.492 117.662 117.538 117.57 117.883 117.57ZM127.382 127.0H135.938C136.62800000000001 127.0 136.835 126.77 136.835 126.08V124.033C136.835 123.642 136.743 123.55 136.398 123.55H135.156C134.88 123.55 134.76500000000001 123.573 134.76500000000001 123.849V124.792C134.76500000000001 125.114 134.696 125.137 134.443 125.137H129.958C129.68200000000002 125.137 129.659 125.091 129.659 124.631V122.101C129.659 121.71 129.705 121.572 130.119 121.572H136.007C136.536 121.572 136.835 121.273 136.835 120.859V116.673C136.835 116.236 136.398 115.822 135.8 115.822H127.497C126.807 115.822 126.416 116.19 126.416 116.673V126.08C126.416 126.517 126.899 127.0 127.382 127.0ZM130.05 117.57H134.374C134.673 117.57 134.76500000000001 117.708 134.76500000000001 118.03V119.525C134.76500000000001 119.778 134.673 119.87 134.374 119.87H129.981C129.705 119.87 129.659 119.778 129.659 119.502V117.892C129.659 117.662 129.705 117.57 130.05 117.57ZM142.677 125.137C142.033 125.137 142.01 125.091 142.01 124.447V118.352C142.01 117.708 142.01 117.685 142.608 117.685H146.38C146.771 117.685 146.81699999999998 117.731 146.81699999999998 118.352V124.447C146.81699999999998 125.022 146.79399999999998 125.137 146.12699999999998 125.137ZM139.756 127.0H147.714C148.404 127.0 148.956 126.471 148.956 125.735V111.291C148.956 110.946 148.703 110.762 148.197 110.762H147.507C147.024 110.762 146.81699999999998 110.877 146.81699999999998 111.291V116.19C146.196 115.845 145.667 115.822 145.11499999999998 115.822H139.54899999999998C139.01999999999998 115.822 138.583 116.282 138.583 116.788V125.712C138.583 126.54 139.04299999999998 127.0 139.756 127.0ZM151.808 127.0H160.31799999999998C160.663 127.0 160.98499999999999 126.655 160.98499999999999 126.172V121.112C160.98499999999999 120.629 160.709 120.353 160.203 120.353L153.487 120.33C153.073 120.33 153.004 120.307 153.004 119.916V118.145C153.004 117.731 153.05 117.616 153.487 117.616H158.225C158.708 117.616 158.754 117.639 158.754 118.076V118.766C158.754 118.95 158.984 119.157 159.352 119.157H160.47899999999998C160.847 119.157 160.98499999999999 118.92699999999999 160.98499999999999 118.467V116.466C160.98499999999999 116.121 160.686 115.822 160.31799999999998 115.822H151.992C151.302 115.822 150.888 116.236 150.888 116.696V121.48C150.888 121.917 151.21 122.262 151.739 122.262H157.259C157.581 122.262 157.696 122.285 157.696 122.607V124.723C157.696 125.091 157.60399999999998 125.16 157.259 125.16H153.37199999999999C153.05 125.16 153.004 125.137 153.004 124.723V124.125C153.004 123.78 152.935 123.573 152.659 123.573H151.325C151.026 123.573 150.888 123.757 150.888 124.125V126.126C150.888 126.632 151.233 127.0 151.808 127.0ZM170.898 111.245V126.31C170.898 126.747 171.17399999999998 127.0 171.726 127.0H173.612C173.98 127.0 174.23299999999998 126.724 174.23299999999998 126.264V122.883C174.23299999999998 122.469 174.23299999999998 122.101 174.04899999999998 121.733L173.17499999999998 120.054C173.06 119.824 172.922 119.709 172.922 119.157V111.245C172.922 110.946 172.738 110.762 172.439 110.762H171.35799999999998C171.036 110.762 170.898 110.923 170.898 111.245ZM182.72 124.769C182.72 125.045 182.67399999999998 125.183 182.398 125.183H178.23499999999999C177.959 125.183 177.91299999999998 125.045 177.91299999999998 124.769V118.053C177.91299999999998 117.777 177.959 117.639 178.23499999999999 117.639H183.709C183.98499999999999 117.639 184.054 117.777 184.054 118.053V119.203C184.054 119.64 183.87 119.847 183.709 120.1L183.17999999999998 120.974C182.743 121.687 182.72 122.239 182.72 122.837ZM186.03199999999998 126.264V116.627C186.03199999999998 116.075 185.756 115.822 185.18099999999998 115.822H176.92399999999998C176.28 115.822 175.958 115.983 175.958 116.535V126.356C175.958 126.793 176.21099999999998 127.0 176.73999999999998 127.0H185.25C185.802 127.0 186.03199999999998 126.793 186.03199999999998 126.264ZM190.563 121.986C190.172 121.986 190.07999999999998 121.94 190.07999999999998 121.549V118.122C190.07999999999998 117.754 190.172 117.639 190.54 117.639H194.611C195.071 117.639 195.14 117.639 195.14 118.122V121.549C195.14 121.986 195.094 121.986 194.611 121.986ZM188.884 132.06H196.819C197.39399999999998 132.06 197.69299999999998 131.761 197.69299999999998 131.163V126.517C197.69299999999998 125.873 197.417 125.597 196.773 125.597H191.69V123.849H196.49699999999999C196.957 123.849 197.20999999999998 123.596 197.20999999999998 123.297V117.639H198.35999999999999C198.72799999999998 117.639 198.843 117.478 198.843 117.11V116.443C198.843 116.029 198.72799999999998 115.822 198.35999999999999 115.822H189.06799999999998C188.332 115.822 187.964 116.144 187.964 116.673V123.09C187.964 123.619 188.26299999999998 123.849 188.884 123.849H189.75799999999998V125.597H188.953C188.309 125.597 187.964 125.896 187.964 126.333V131.186C187.964 131.738 188.286 132.06 188.884 132.06ZM191.80499999999998 130.358C191.45999999999998 130.358 191.29899999999998 130.22 191.29899999999998 129.875V127.667C191.29899999999998 127.368 191.345 127.253 191.69 127.253H195.255C195.577 127.253 195.66899999999998 127.391 195.66899999999998 127.713V130.013C195.66899999999998 130.243 195.53099999999998 130.358 195.301 130.358ZM209.03199999999998 127.0H217.588C218.278 127.0 218.48499999999999 126.77 218.48499999999999 126.08V124.033C218.48499999999999 123.642 218.393 123.55 218.048 123.55H216.80599999999998C216.53 123.55 216.415 123.573 216.415 123.849V124.792C216.415 125.114 216.346 125.137 216.093 125.137H211.608C211.332 125.137 211.309 125.091 211.309 124.631V122.101C211.309 121.71 211.355 121.572 211.769 121.572H217.65699999999998C218.186 121.572 218.48499999999999 121.273 218.48499999999999 120.859V116.673C218.48499999999999 116.236 218.048 115.822 217.45 115.822H209.147C208.457 115.822 208.066 116.19 208.066 116.673V126.08C208.066 126.517 208.549 127.0 209.03199999999998 127.0ZM211.7 117.57H216.024C216.32299999999998 117.57 216.415 117.708 216.415 118.03V119.525C216.415 119.778 216.32299999999998 119.87 216.024 119.87H211.631C211.355 119.87 211.309 119.778 211.309 119.502V117.892C211.309 117.662 211.355 117.57 211.7 117.57ZM228.352 116.351 224.971 124.769 221.567 116.351C221.383 115.891 221.291 115.822 220.831 115.822H219.98C219.635 115.822 219.474 115.914 219.474 116.121C219.474 116.213 219.49699999999999 116.282 219.543 116.397L223.614 126.287C223.821 126.793 223.936 127.0 224.396 127.0H225.5C225.96 127.0 226.075 126.793 226.28199999999998 126.287L230.353 116.397C230.399 116.282 230.422 116.213 230.422 116.121C230.422 115.914 230.261 115.822 229.916 115.822H229.088C228.628 115.822 228.536 115.891 228.352 116.351ZM232.58399999999997 127.0H241.14C241.82999999999998 127.0 242.03699999999998 126.77 242.03699999999998 126.08V124.033C242.03699999999998 123.642 241.945 123.55 241.6 123.55H240.35799999999998C240.082 123.55 239.96699999999998 123.573 239.96699999999998 123.849V124.792C239.96699999999998 125.114 239.898 125.137 239.64499999999998 125.137H235.16C234.884 125.137 234.861 125.091 234.861 124.631V122.101C234.861 121.71 234.90699999999998 121.572 235.321 121.572H241.20899999999997C241.738 121.572 242.03699999999998 121.273 242.03699999999998 120.859V116.673C242.03699999999998 116.236 241.6 115.822 241.00199999999998 115.822H232.69899999999998C232.009 115.822 231.618 116.19 231.618 116.673V126.08C231.618 126.517 232.101 127.0 232.58399999999997 127.0ZM235.25199999999998 117.57H239.576C239.875 117.57 239.96699999999998 117.708 239.96699999999998 118.03V119.525C239.96699999999998 119.778 239.875 119.87 239.576 119.87H235.183C234.90699999999998 119.87 234.861 119.778 234.861 119.502V117.892C234.861 117.662 234.90699999999998 117.57 235.25199999999998 117.57ZM243.785 126.172C243.785 126.655 244.13 127.0 244.56699999999998 127.0H246.361C246.867 127.0 247.11999999999998 126.77 247.11999999999998 126.264V122.791C247.11999999999998 122.492 247.09699999999998 122.147 246.821 121.595L246.154 120.33C245.97 120.008 245.90099999999998 119.64 245.90099999999998 119.203V118.076C245.90099999999998 117.731 245.947 117.57 246.292 117.57H249.742C250.087 117.57 250.10999999999999 117.639 250.10999999999999 117.984V118.697C250.10999999999999 119.088 250.271 119.226 250.685 119.226H251.628C252.134 119.226 252.249 119.019 252.249 118.49V116.696C252.249 116.213 251.85799999999998 115.822 251.30599999999998 115.822H244.86599999999999C244.19899999999998 115.822 243.785 116.236 243.785 116.788ZM254.73299999999998 127.0H259.70099999999996C260.27599999999995 127.0 260.46 127.023 260.46 127.69V131.416C260.46 131.807 260.736 132.06 261.19599999999997 132.06H262.99C263.496 132.06 263.68 131.83 263.68 131.324V116.282C263.68 116.029 263.47299999999996 115.822 263.15099999999995 115.822H262.162C261.93199999999996 115.822 261.656 116.075 261.656 116.282V124.516C261.656 125.091 261.633 125.137 261.012 125.137H256.159C255.63 125.137 255.42299999999997 125.091 255.42299999999997 124.516V116.466C255.42299999999997 116.029 255.308 115.822 254.89399999999998 115.822H254.08899999999997C253.67499999999998 115.822 253.468 115.96000000000001 253.468 116.282V125.942C253.468 126.448 254.01999999999998 127.0 254.73299999999998 127.0ZM274.444 127.0H284.104C284.449 127.0 284.679 126.77 284.679 126.402V125.643C284.679 125.275 284.495 125.114 284.19599999999997 125.114H283.805C283.483 125.114 283.322 124.93 283.322 124.562V116.834C283.322 116.167 283.0 115.822 282.33299999999997 115.822H274.099C273.524 115.822 273.432 115.937 273.432 116.42V117.179C273.432 117.639 273.662 117.662 274.099 117.662H280.953C281.275 117.662 281.413 117.731 281.413 118.007V119.065C281.413 119.387 281.344 119.41 281.068 119.41H274.55899999999997C273.86899999999997 119.41 273.432 119.87 273.432 120.376V125.896C273.432 126.563 273.846 127.0 274.444 127.0ZM277.135 125.022C276.836 125.022 276.721 124.884 276.721 124.562V121.71C276.721 121.365 276.74399999999997 121.273 277.135 121.273H280.953C281.367 121.273 281.413 121.388 281.413 121.825V124.562C281.413 124.953 281.367 125.022 280.953 125.022ZM287.784 117.593H293.488C293.764 117.593 293.81 117.731 293.81 118.007V126.54C293.81 126.816 294.017 127.0 294.15500000000003 127.0H295.48900000000003C295.696 127.0 295.834 126.839 295.834 126.54V116.673C295.834 116.075 295.558 115.822 294.914 115.822H286.358C285.76 115.822 285.461 115.96000000000001 285.461 116.42V126.54C285.461 126.816 285.645 127.0 285.783 127.0H288.428C288.56600000000003 127.0 288.75 126.816 288.75 126.54V122.676C288.75 122.147 288.72700000000003 121.641 288.313 120.974L287.669 119.939C287.55400000000003 119.755 287.531 119.548 287.531 119.318V117.892C287.531 117.685 287.623 117.593 287.784 117.593ZM299.468 127.0H302.182C302.665 127.0 302.711 126.908 302.711 126.425V125.735C302.711 125.344 302.57300000000004 125.252 302.182 125.252H301.17C300.825 125.252 300.802 125.229 300.802 124.769V119.18H303.125C303.539 119.18 303.74600000000004 118.973 303.74600000000004 118.605V116.55799999999999C303.74600000000004 116.075 303.516 115.822 303.125 115.822H300.802V113.131C300.802 112.694 300.618 112.487 300.25 112.487H299.353C298.916 112.487 298.709 112.694 298.709 113.131V115.822H297.858C297.605 115.822 297.444 116.006 297.444 116.236V117.248C297.444 117.478 297.628 117.685 297.858 117.685H298.709V126.218C298.709 126.678 299.05400000000003 127.0 299.468 127.0ZM307.058 115.822H305.977C305.655 115.822 305.517 115.983 305.517 116.305V126.31C305.517 126.747 305.793 127.0 306.34499999999997 127.0H308.231C308.599 127.0 308.852 126.724 308.852 126.264V122.883C308.852 122.469 308.852 122.101 308.668 121.733L307.794 120.054C307.679 119.824 307.541 119.709 307.541 119.157V116.305C307.541 116.006 307.35699999999997 115.822 307.058 115.822ZM305.33299999999997 113.08500000000001C305.33299999999997 113.752 305.86199999999997 114.281 306.529 114.281C307.19599999999997 114.281 307.72499999999997 113.752 307.72499999999997 113.08500000000001C307.72499999999997 112.418 307.19599999999997 111.889 306.529 111.889C305.86199999999997 111.889 305.33299999999997 112.418 305.33299999999997 113.08500000000001ZM311.12899999999996 122.331H318.236C318.673 122.331 318.834 122.239 318.834 121.848V121.043C318.834 120.629 318.69599999999997 120.468 318.305 120.468H311.175C310.876 120.468 310.669 120.675 310.669 120.951V121.825C310.669 122.17 310.853 122.331 311.12899999999996 122.331ZM323.47999999999996 121.986C323.08899999999994 121.986 322.99699999999996 121.94 322.99699999999996 121.549V118.122C322.99699999999996 117.754 323.08899999999994 117.639 323.45699999999994 117.639H327.52799999999996C327.98799999999994 117.639 328.05699999999996 117.639 328.05699999999996 118.122V121.549C328.05699999999996 121.986 328.01099999999997 121.986 327.52799999999996 121.986ZM321.801 132.06H329.736C330.311 132.06 330.60999999999996 131.761 330.60999999999996 131.163V126.517C330.60999999999996 125.873 330.33399999999995 125.597 329.68999999999994 125.597H324.60699999999997V123.849H329.414C329.87399999999997 123.849 330.12699999999995 123.596 330.12699999999995 123.297V117.639H331.277C331.645 117.639 331.76 117.478 331.76 117.11V116.443C331.76 116.029 331.645 115.822 331.277 115.822H321.98499999999996C321.24899999999997 115.822 320.881 116.144 320.881 116.673V123.09C320.881 123.619 321.17999999999995 123.849 321.801 123.849H322.67499999999995V125.597H321.86999999999995C321.22599999999994 125.597 320.881 125.896 320.881 126.333V131.186C320.881 131.738 321.203 132.06 321.801 132.06ZM324.722 130.358C324.37699999999995 130.358 324.21599999999995 130.22 324.21599999999995 129.875V127.667C324.21599999999995 127.368 324.26199999999994 127.253 324.60699999999997 127.253H328.17199999999997C328.49399999999997 127.253 328.58599999999996 127.391 328.58599999999996 127.713V130.013C328.58599999999996 130.243 328.448 130.358 328.21799999999996 130.358ZM333.00199999999995 126.172C333.00199999999995 126.655 333.3469999999999 127.0 333.78399999999993 127.0H335.5779999999999C336.08399999999995 127.0 336.33699999999993 126.77 336.33699999999993 126.264V122.791C336.33699999999993 122.492 336.31399999999996 122.147 336.03799999999995 121.595L335.3709999999999 120.33C335.18699999999995 120.008 335.11799999999994 119.64 335.11799999999994 119.203V118.076C335.11799999999994 117.731 335.16399999999993 117.57 335.50899999999996 117.57H338.95899999999995C339.3039999999999 117.57 339.32699999999994 117.639 339.32699999999994 117.984V118.697C339.32699999999994 119.088 339.48799999999994 119.226 339.90199999999993 119.226H340.84499999999997C341.35099999999994 119.226 341.46599999999995 119.019 341.46599999999995 118.49V116.696C341.46599999999995 116.213 341.07499999999993 115.822 340.52299999999997 115.822H334.08299999999997C333.41599999999994 115.822 333.00199999999995 116.236 333.00199999999995 116.788ZM343.60499999999996 127.0H353.26499999999993C353.60999999999996 127.0 353.8399999999999 126.77 353.8399999999999 126.402V125.643C353.8399999999999 125.275 353.65599999999995 125.114 353.3569999999999 125.114H352.96599999999995C352.64399999999995 125.114 352.48299999999995 124.93 352.48299999999995 124.562V116.834C352.48299999999995 116.167 352.16099999999994 115.822 351.4939999999999 115.822H343.25999999999993C342.68499999999995 115.822 342.59299999999996 115.937 342.59299999999996 116.42V117.179C342.59299999999996 117.639 342.8229999999999 117.662 343.25999999999993 117.662H350.1139999999999C350.4359999999999 117.662 350.57399999999996 117.731 350.57399999999996 118.007V119.065C350.57399999999996 119.387 350.50499999999994 119.41 350.2289999999999 119.41H343.7199999999999C343.0299999999999 119.41 342.59299999999996 119.87 342.59299999999996 120.376V125.896C342.59299999999996 126.563 343.00699999999995 127.0 343.60499999999996 127.0ZM346.29599999999994 125.022C345.99699999999996 125.022 345.88199999999995 124.884 345.88199999999995 124.562V121.71C345.88199999999995 121.365 345.9049999999999 121.273 346.29599999999994 121.273H350.1139999999999C350.52799999999996 121.273 350.57399999999996 121.388 350.57399999999996 121.825V124.562C350.57399999999996 124.953 350.52799999999996 125.022 350.1139999999999 125.022ZM362.74099999999993 116.351 359.35999999999996 124.769 355.95599999999996 116.351C355.77199999999993 115.891 355.67999999999995 115.822 355.21999999999997 115.822H354.36899999999997C354.02399999999994 115.822 353.86299999999994 115.914 353.86299999999994 116.121C353.86299999999994 116.213 353.88599999999997 116.282 353.93199999999996 116.397L358.00299999999993 126.287C358.2099999999999 126.793 358.32499999999993 127.0 358.78499999999997 127.0H359.88899999999995C360.34899999999993 127.0 360.46399999999994 126.793 360.67099999999994 126.287L364.74199999999996 116.397C364.78799999999995 116.282 364.8109999999999 116.213 364.8109999999999 116.121C364.8109999999999 115.914 364.65 115.822 364.30499999999995 115.822H363.477C363.01699999999994 115.822 362.92499999999995 115.891 362.74099999999993 116.351ZM373.98799999999994 111.245V126.31C373.98799999999994 126.747 374.26399999999995 127.0 374.8159999999999 127.0H376.70199999999994C377.06999999999994 127.0 377.3229999999999 126.724 377.3229999999999 126.264V122.883C377.3229999999999 122.469 377.3229999999999 122.101 377.13899999999995 121.733L376.26499999999993 120.054C376.1499999999999 119.824 376.01199999999994 119.709 376.01199999999994 119.157V111.245C376.01199999999994 110.946 375.8279999999999 110.762 375.52899999999994 110.762H374.4479999999999C374.1259999999999 110.762 373.98799999999994 110.923 373.98799999999994 111.245ZM379.96799999999996 127.0H389.62799999999993C389.97299999999996 127.0 390.2029999999999 126.77 390.2029999999999 126.402V125.643C390.2029999999999 125.275 390.01899999999995 125.114 389.7199999999999 125.114H389.32899999999995C389.00699999999995 125.114 388.84599999999995 124.93 388.84599999999995 124.562V116.834C388.84599999999995 116.167 388.52399999999994 115.822 387.8569999999999 115.822H379.62299999999993C379.04799999999994 115.822 378.95599999999996 115.937 378.95599999999996 116.42V117.179C378.95599999999996 117.639 379.1859999999999 117.662 379.62299999999993 117.662H386.4769999999999C386.7989999999999 117.662 386.93699999999995 117.731 386.93699999999995 118.007V119.065C386.93699999999995 119.387 386.86799999999994 119.41 386.5919999999999 119.41H380.0829999999999C379.3929999999999 119.41 378.95599999999996 119.87 378.95599999999996 120.376V125.896C378.95599999999996 126.563 379.36999999999995 127.0 379.96799999999996 127.0ZM382.65899999999993 125.022C382.35999999999996 125.022 382.24499999999995 124.884 382.24499999999995 124.562V121.71C382.24499999999995 121.365 382.2679999999999 121.273 382.65899999999993 121.273H386.4769999999999C386.89099999999996 121.273 386.93699999999995 121.388 386.93699999999995 121.825V124.562C386.93699999999995 124.953 386.89099999999996 125.022 386.4769999999999 125.022ZM393.83699999999993 125.183C393.078 125.183 393.00899999999996 125.183 393.00899999999996 124.493V118.32900000000001C393.00899999999996 117.708 393.14699999999993 117.662 393.65299999999996 117.662H398.22999999999996C398.667 117.662 398.89699999999993 117.685 398.89699999999993 118.191V124.47C398.89699999999993 125.16 398.828 125.183 398.18399999999997 125.183ZM399.54099999999994 115.822H392.11199999999997C391.46799999999996 115.822 390.98499999999996 116.305 390.98499999999996 116.903V131.531C390.98499999999996 131.876 391.23799999999994 132.06 391.74399999999997 132.06H393.44599999999997C393.929 132.06 394.11299999999994 131.945 394.11299999999994 131.531V127.437C394.11299999999994 127.161 394.34299999999996 127.0 394.80299999999994 127.0H399.74799999999993C400.46099999999996 127.0 400.87499999999994 126.586 400.87499999999994 125.827V117.018C400.87499999999994 116.328 400.34599999999995 115.822 399.54099999999994 115.822Z" fill="#3a3f47"/><path d="M38.224000000000004 154.952C38.656 154.952 38.784 154.952 38.784 155.4V158.376C38.784 158.808 38.672 158.824 38.304 158.824H33.312C32.944 158.824 32.848 158.808 32.848 158.376V155.4C32.848 154.952 32.96 154.952 33.392 154.952ZM40.112 158.136V154.10399999999998C40.112 153.88 39.936 153.704 39.775999999999996 153.704H31.84C31.68 153.704 31.52 153.864 31.52 154.10399999999998V158.232C31.52 158.472 31.504 158.712 31.264 159.016L30.928 159.416C30.72 159.672 30.56 159.784 30.56 160.36V164.536C30.56 164.824 30.736 165.0 31.072 165.0H32.464C32.8 165.0 32.848 164.84 32.848 164.52V160.568C32.848 160.136 32.944 160.088 33.392 160.088H38.224000000000004C38.672 160.088 38.784 160.136 38.784 160.568V164.52C38.784 164.856 38.8 165.0 39.168 165.0H40.56C40.896 165.0 41.072 164.824 41.072 164.536V160.36C41.072 159.784 40.912 159.672 40.704 159.416L40.368 159.016C40.128 158.712 40.112 158.472 40.112 158.232ZM49.152 154.952C49.424 154.952 49.536 154.968 49.536 155.224V158.52C49.536 158.76 49.44 158.776 49.232 158.776H44.047999999999995C43.808 158.776 43.711999999999996 158.744 43.711999999999996 158.52V155.224C43.711999999999996 154.984 43.808 154.952 44.047999999999995 154.952ZM50.288 160.088C50.56 160.088 50.672 160.104 50.672 160.344V163.432C50.672 163.656 50.592 163.672 50.384 163.672H45.024C44.784 163.672 44.687999999999995 163.64 44.687999999999995 163.432V160.344C44.687999999999995 160.12 44.784 160.088 45.024 160.088ZM50.111999999999995 153.704H43.088C42.672 153.704 42.352 154.024 42.352 154.392V164.184C42.352 164.648 42.72 165.0 43.216 165.0H51.135999999999996C51.632 165.0 52.0 164.648 52.0 164.184V160.472C52.0 159.896 51.983999999999995 159.784 51.599999999999994 159.384L51.024 158.792C50.864 158.632 50.848 158.44 50.848 158.2V154.392C50.848 154.024 50.528 153.704 50.111999999999995 153.704ZM62.96 156.2V154.392C62.96 154.024 62.64 153.704 62.224000000000004 153.704H54.032000000000004C53.616 153.704 53.296 154.024 53.296 154.392V164.184C53.296 164.648 53.664 165.0 54.160000000000004 165.0H62.096000000000004C62.592 165.0 62.96 164.648 62.96 164.184V161.304C62.96 160.904 62.816 160.696 62.512 160.696H62.08C61.760000000000005 160.696 61.616 160.888 61.616 161.304V163.112C61.616 163.56 61.584 163.688 61.152 163.688H55.184000000000005C54.736000000000004 163.688 54.736000000000004 163.576 54.736000000000004 163.112V155.4C54.736000000000004 155.016 54.816 154.904 55.184000000000005 154.904H60.096000000000004C60.512 154.904 60.592 155.0 60.592 155.4V156.2C60.592 156.456 60.800000000000004 156.664 61.056000000000004 156.664H62.496C62.800000000000004 156.664 62.96 156.504 62.96 156.2ZM72.016 163.816H67.04C66.64 163.816 66.57600000000001 163.56 66.57600000000001 163.112V160.696C66.57600000000001 159.928 66.44800000000001 159.768 66.28800000000001 159.496L65.936 158.872C65.792 158.61599999999999 65.64800000000001 158.456 65.64800000000001 157.88V155.4C65.64800000000001 155.016 65.824 154.92 66.24000000000001 154.92H72.016C72.36800000000001 154.92 72.49600000000001 155.016 72.49600000000001 155.4V163.112C72.49600000000001 163.576 72.304 163.816 72.016 163.816ZM64.24000000000001 164.216C64.24000000000001 164.648 64.608 165.0 65.12 165.0H72.54400000000001C73.52000000000001 165.0 73.90400000000001 164.664 73.90400000000001 163.752V154.968C73.90400000000001 154.168 73.408 153.704 72.464 153.704H64.976C64.56 153.704 64.24000000000001 154.024 64.24000000000001 154.392ZM76.11200000000001 165.0H82.144C82.64 165.0 82.80000000000001 165.0 82.80000000000001 164.6V164.072C82.80000000000001 163.688 82.57600000000001 163.672 82.144 163.672H77.90400000000001C77.664 163.672 77.552 163.64 77.552 163.432V160.344C77.552 160.152 77.68 160.04 77.90400000000001 160.04H82.144C82.528 160.04 82.67200000000001 159.944 82.67200000000001 159.592V159.144C82.67200000000001 158.84 82.512 158.776 82.144 158.776H77.104C76.864 158.776 76.768 158.728 76.768 158.52V155.224C76.768 154.968 76.84800000000001 154.968 77.08800000000001 154.968H82.144C82.59200000000001 154.968 82.67200000000001 154.936 82.67200000000001 154.472V154.10399999999998C82.67200000000001 153.704 82.57600000000001 153.704 82.144 153.704H76.144C75.72800000000001 153.704 75.408 154.024 75.408 154.392V164.408C75.408 164.744 75.68 165.0 76.11200000000001 165.0ZM86.24000000000001 164.408V160.344C86.24000000000001 160.152 86.352 160.04 86.57600000000001 160.04H90.816C91.2 160.04 91.34400000000001 159.944 91.34400000000001 159.592V159.144C91.34400000000001 158.84 91.18400000000001 158.776 90.816 158.776H85.77600000000001C85.536 158.776 85.44000000000001 158.728 85.44000000000001 158.52V155.224C85.44000000000001 154.968 85.536 154.968 85.77600000000001 154.968H90.816C91.26400000000001 154.968 91.34400000000001 154.936 91.34400000000001 154.472V154.10399999999998C91.34400000000001 153.704 91.248 153.704 90.816 153.704H84.816C84.4 153.704 84.08000000000001 154.024 84.08000000000001 154.392V164.408C84.08000000000001 164.744 84.36800000000001 165.0 84.80000000000001 165.0H85.584C85.98400000000001 165.0 86.24000000000001 164.76 86.24000000000001 164.408ZM93.328 165.0H101.26400000000001C101.76 165.0 102.12800000000001 164.648 102.12800000000001 164.184V160.312C102.12800000000001 159.96 101.92000000000002 159.784 101.552 159.784H98.608C98.32000000000001 159.784 98.17600000000002 159.912 98.17600000000002 160.168V160.728C98.17600000000002 161.032 98.32000000000001 161.144 98.656 161.144H100.224C100.62400000000001 161.144 100.72000000000001 161.256 100.72000000000001 161.656V163.112C100.72000000000001 163.56 100.67200000000001 163.688 100.224 163.688H95.26400000000001C94.83200000000001 163.688 94.80000000000001 163.56 94.80000000000001 163.112V160.968C94.80000000000001 160.872 94.83200000000001 160.744 94.83200000000001 160.536C94.83200000000001 160.312 94.784 160.008 94.57600000000001 159.576L94.19200000000001 158.808C93.98400000000001 158.392 93.98400000000001 158.424 93.98400000000001 157.88V155.4C93.98400000000001 155.0 94.048 154.904 94.46400000000001 154.904H100.224C100.54400000000001 154.904 100.72000000000001 155.032 100.72000000000001 155.288V156.136C100.72000000000001 156.472 100.76800000000001 156.632 101.10400000000001 156.632L101.68 156.61599999999999C102.048 156.61599999999999 102.12800000000001 156.488 102.12800000000001 156.12V154.392C102.12800000000001 154.024 101.808 153.704 101.39200000000001 153.704H93.2C92.784 153.704 92.46400000000001 154.024 92.46400000000001 154.392V164.184C92.46400000000001 164.648 92.83200000000001 165.0 93.328 165.0ZM113.72800000000001 164.536V160.472C113.72800000000001 160.168 113.71200000000002 159.896 113.50400000000002 159.56L113.02400000000002 158.808C112.80000000000001 158.44 112.76800000000001 158.2 112.76800000000001 157.992V154.10399999999998C112.76800000000001 153.864 112.608 153.704 112.44800000000001 153.704H111.808C111.60000000000001 153.704 111.44000000000001 153.864 111.44000000000001 154.088V158.376C111.44000000000001 158.808 111.34400000000001 158.824 110.97600000000001 158.824H105.98400000000001C105.61600000000001 158.824 105.52000000000001 158.808 105.52000000000001 158.376V154.088C105.52000000000001 153.864 105.36000000000001 153.704 105.15200000000002 153.704H104.51200000000001C104.35200000000002 153.704 104.19200000000001 153.864 104.19200000000001 154.10399999999998V157.992C104.19200000000001 158.2 104.16000000000001 158.44 103.936 158.808L103.45600000000002 159.56C103.248 159.896 103.23200000000001 160.168 103.23200000000001 160.472V164.536C103.23200000000001 164.824 103.40800000000002 165.0 103.74400000000001 165.0H105.13600000000001C105.504 165.0 105.52000000000001 164.856 105.52000000000001 164.52V160.568C105.52000000000001 160.136 105.61600000000001 160.088 106.06400000000001 160.088H110.89600000000002C111.34400000000001 160.088 111.44000000000001 160.136 111.44000000000001 160.568V164.52C111.44000000000001 164.856 111.45600000000002 165.0 111.82400000000001 165.0H113.21600000000001C113.552 165.0 113.72800000000001 164.84 113.72800000000001 164.536ZM115.21600000000001 164.52C115.21600000000001 164.856 115.23200000000001 165.0 115.60000000000001 165.0H116.992C117.32800000000002 165.0 117.504 164.824 117.504 164.536V160.472C117.504 160.168 117.48800000000001 159.896 117.28000000000002 159.56L116.80000000000001 158.808C116.75200000000001 158.744 116.68800000000002 158.376 116.68800000000002 157.736V154.10399999999998C116.68800000000002 153.864 116.528 153.704 116.36800000000001 153.704H115.58400000000002C115.376 153.704 115.21600000000001 153.864 115.21600000000001 154.088ZM119.34400000000001 165.0H126.608C126.84800000000001 165.0 127.13600000000001 164.712 127.13600000000001 164.296V154.088C127.13600000000001 153.864 126.97600000000001 153.704 126.768 153.704H126.16000000000001C125.95200000000001 153.704 125.84 153.848 125.84 154.10399999999998V157.736C125.84 157.848 125.85600000000001 157.944 125.85600000000001 158.04C125.85600000000001 158.248 125.808 158.456 125.584 158.776L125.024 159.56C124.83200000000001 159.832 124.80000000000001 160.12 124.80000000000001 160.472V163.336C124.80000000000001 163.656 124.75200000000001 163.704 124.256 163.704H120.272C120.016 163.704 119.98400000000001 163.688 119.98400000000001 163.528V161.256C119.98400000000001 160.952 119.888 160.792 119.61600000000001 160.792H119.024C118.736 160.792 118.62400000000001 160.936 118.62400000000001 161.256V164.296C118.62400000000001 164.728 118.896 165.0 119.34400000000001 165.0ZM128.94400000000002 165.0H130.336C130.57600000000002 165.0 130.72000000000003 164.84 130.72000000000003 164.52V160.568C130.72000000000003 160.136 130.848 160.04 131.264 160.04H135.872C136.4 160.04 136.656 160.072 136.656 160.712V164.552C136.656 164.856 136.78400000000002 165.0 137.04000000000002 165.0H137.55200000000002C137.776 165.0 137.92000000000002 164.84 137.92000000000002 164.52V160.296C137.92000000000002 159.624 137.68 159.336 137.072 159.304C137.68 159.272 137.92000000000002 159.0 137.92000000000002 158.328V154.184C137.92000000000002 153.864 137.76000000000002 153.704 137.50400000000002 153.704H137.04000000000002C136.78400000000002 153.704 136.656 153.848 136.656 154.152V158.104C136.656 158.792 136.27200000000002 158.792 135.74400000000003 158.792H131.12C130.83200000000002 158.792 130.72000000000003 158.76 130.72000000000003 158.376V154.088C130.72000000000003 153.864 130.56 153.704 130.352 153.704H129.71200000000002C129.55200000000002 153.704 129.39200000000002 153.864 129.39200000000002 154.10399999999998V157.912C129.39200000000002 158.152 129.376 158.392 129.13600000000002 158.792L128.656 159.56C128.448 159.912 128.43200000000002 160.184 128.43200000000002 160.472V164.536C128.43200000000002 164.792 128.62400000000002 165.0 128.94400000000002 165.0ZM141.232 153.704H140.496C140.336 153.704 140.17600000000002 153.864 140.17600000000002 154.10399999999998V157.992C140.17600000000002 158.2 140.144 158.408 139.92000000000002 158.792L139.44 159.56C139.232 159.912 139.216 160.184 139.216 160.472V164.536C139.216 164.792 139.40800000000002 165.0 139.728 165.0H147.024C147.392 165.0 147.568 164.952 147.568 164.664V164.12C147.568 163.8 147.424 163.736 147.088 163.736H141.952C141.632 163.736 141.584 163.672 141.584 163.352V154.168C141.584 153.848 141.488 153.704 141.232 153.704ZM154.432 154.536C154.4 153.928 154.112 153.704 153.44 153.704H149.472C148.928 153.704 148.64 153.944 148.64 154.424V164.52C148.64 164.824 148.79999999999998 165.0 149.024 165.0H150.416C150.736 165.0 150.944 164.792 150.944 164.536V160.472C150.944 160.168 150.912 159.896 150.704 159.56L150.224 158.808C150.016 158.472 149.968 158.248 149.968 158.04C149.968 157.944 149.984 157.848 149.984 157.736V155.544C149.984 155.016 150.128 154.968 150.512 154.968H153.024C153.504 154.968 153.76 155.24 153.76 155.752V164.52C153.76 164.808 153.968 165.0 154.208 165.0H154.688C154.96 165.0 155.10399999999998 164.856 155.10399999999998 164.552V155.752C155.10399999999998 155.24 155.344 154.968 155.82399999999998 154.968H158.256C158.48 154.968 158.608 155.112 158.608 155.416V164.552C158.608 164.856 158.736 165.0 158.96 165.0H159.392C159.584 165.0 159.76 164.808 159.76 164.52V154.408C159.76 154.04 159.424 153.704 158.96 153.704H155.408C154.736 153.704 154.464 153.928 154.432 154.536ZM162.12800000000001 153.704H161.80800000000002C161.28 153.704 161.232 153.864 161.232 154.328V164.52C161.232 164.84 161.36 165.0 161.648 165.0H162.928C163.24800000000002 165.0 163.45600000000002 164.792 163.45600000000002 164.52V160.472C163.45600000000002 160.136 163.40800000000002 159.848 163.216 159.56L162.73600000000002 158.808C162.496 158.424 162.496 158.088 162.496 157.736V155.944L168.8 164.392C169.12 164.808 169.488 165.0 169.696 165.0H170.416C170.864 165.0 170.89600000000002 164.616 170.89600000000002 163.944V154.328C170.89600000000002 153.928 170.704 153.704 170.4 153.704H169.92000000000002C169.616 153.704 169.488 153.912 169.488 154.328V163.224L163.056 154.248C162.73600000000002 153.8 162.64000000000001 153.704 162.12800000000001 153.704ZM174.27200000000002 163.688C173.824 163.688 173.824 163.576 173.824 163.112V155.4C173.824 155.016 173.90400000000002 154.904 174.27200000000002 154.904H180.08C180.49600000000004 154.904 180.56000000000003 155.0 180.56000000000003 155.4V157.88C180.56000000000003 158.424 180.56000000000003 158.392 180.35200000000003 158.808L179.96800000000002 159.576C179.76000000000002 160.008 179.71200000000002 160.312 179.71200000000002 160.536C179.71200000000002 160.744 179.74400000000003 160.872 179.74400000000003 160.968V163.112C179.74400000000003 163.56 179.71200000000002 163.688 179.28000000000003 163.688ZM182.04800000000003 164.184V154.392C182.04800000000003 154.024 181.72800000000004 153.704 181.312 153.704H173.12000000000003C172.70400000000004 153.704 172.38400000000001 154.024 172.38400000000001 154.392V164.184C172.38400000000001 164.648 172.75200000000004 165.0 173.24800000000002 165.0H181.18400000000003C181.68000000000004 165.0 182.04800000000003 164.648 182.04800000000003 164.184ZM191.28000000000003 155.0C191.58400000000003 155.0 191.71200000000002 155.016 191.71200000000002 155.272V158.552C191.71200000000002 158.792 191.616 158.808 191.37600000000003 158.808H185.34400000000002C185.08800000000002 158.808 184.96 158.776 184.96 158.552V155.272C184.96 155.032 185.08800000000002 155.0 185.34400000000002 155.0ZM186.336 160.056H192.35200000000003C192.72000000000003 160.056 193.08800000000002 159.704 193.08800000000002 159.336V154.392C193.08800000000002 154.024 192.76800000000003 153.704 192.35200000000003 153.704H184.25600000000003C183.84000000000003 153.704 183.52 154.024 183.52 154.392V164.248C183.52 164.776 183.69600000000003 165.0 184.192 165.0H185.13600000000002C185.728 165.0 185.824 164.824 185.824 164.248V160.504C185.824 160.088 185.872 160.056 186.14400000000003 160.056ZM204.03200000000004 164.184V154.392C204.03200000000004 153.992 203.72800000000004 153.704 203.312 153.704H195.13600000000002C194.72000000000003 153.704 194.40000000000003 154.024 194.40000000000003 154.392V164.184C194.40000000000003 164.648 194.76800000000003 165.0 195.26400000000004 165.0H199.568C199.93600000000004 165.0 200.01600000000002 165.112 200.01600000000002 165.496V165.656C200.01600000000002 166.04 200.09600000000003 166.152 200.46400000000003 166.152H202.04800000000003C202.41600000000003 166.152 202.49600000000004 166.04 202.49600000000004 165.656V165.496C202.49600000000004 165.112 202.57600000000002 165.0 202.94400000000002 165.0H203.16800000000003C203.66400000000002 165.0 204.03200000000004 164.648 204.03200000000004 164.184ZM202.54400000000004 162.264C202.54400000000004 162.568 202.46400000000003 162.648 202.16000000000003 162.648H200.94400000000002C200.49600000000004 162.648 200.19200000000004 162.68 199.80800000000002 163.016L199.32800000000003 163.432C199.056 163.672 198.83200000000002 163.688 198.592 163.688H196.288C195.84000000000003 163.688 195.84000000000003 163.576 195.84000000000003 163.112V155.4C195.84000000000003 155.016 195.92000000000002 154.904 196.288 154.904H202.06400000000002C202.48000000000002 154.904 202.54400000000004 155.0 202.54400000000004 155.4ZM207.37600000000003 158.584C207.056 158.584 206.88000000000002 158.552 206.88000000000002 158.264V155.448C206.88000000000002 155.096 206.97600000000003 155.096 207.29600000000002 155.096H211.984C212.38400000000001 155.096 212.448 155.128 212.448 155.56V158.152C212.448 158.568 212.41600000000003 158.584 212.04800000000003 158.584ZM207.824 164.552V160.504C207.824 160.136 208.00000000000003 159.96 208.38400000000001 159.96H213.39200000000002C213.69600000000003 159.96 213.93600000000004 160.2 213.93600000000004 160.424V164.552C213.93600000000004 164.888 214.04800000000003 165.0 214.38400000000001 165.0H214.83200000000002C215.168 165.0 215.23200000000003 164.888 215.23200000000003 164.552V159.672C215.23200000000003 159.192 215.13600000000002 158.92 214.73600000000002 158.808L214.17600000000002 158.648C213.80800000000002 158.536 213.80800000000002 158.488 213.80800000000002 158.088V154.456C213.80800000000002 154.072 213.44000000000003 153.704 213.008 153.704H206.25600000000003C205.776 153.704 205.52 153.96 205.52 154.456V164.552C205.52 164.84 205.69600000000003 165.0 205.96800000000002 165.0H207.28000000000003C207.616 165.0 207.824 164.792 207.824 164.552ZM216.336 162.44V164.056C216.336 164.6 216.73600000000002 165.016 217.184 165.016H225.04000000000002C225.632 165.016 225.92000000000002 164.712 225.92000000000002 164.12V159.592C225.92000000000002 159.064 225.60000000000002 158.744 225.04000000000002 158.744H218.12800000000001C217.76000000000002 158.744 217.744 158.744 217.744 158.344V155.432C217.744 155.096 217.824 154.952 218.12800000000001 154.952H224.0C224.416 154.952 224.512 155.016 224.512 155.432V156.2C224.512 156.488 224.68800000000002 156.664 224.976 156.664H225.536C225.776 156.664 225.92000000000002 156.504 225.92000000000002 156.2V154.456C225.92000000000002 154.072 225.568 153.704 225.04000000000002 153.704H217.28C216.672 153.704 216.336 154.04 216.336 154.664V159.176C216.336 159.672 216.656 160.008 217.13600000000002 160.008H223.264C223.60000000000002 160.008 223.632 160.12 223.632 160.456V163.304C223.632 163.688 223.60000000000002 163.688 223.12 163.688H218.12800000000001C217.85600000000002 163.688 217.744 163.64 217.744 163.336V162.44C217.744 162.12 217.584 161.96 217.28 161.96H216.816C216.496 161.96 216.336 162.136 216.336 162.44ZM231.32800000000003 165.0H231.888C232.17600000000002 165.0 232.336 164.808 232.336 164.44V156.632C232.336 156.168 232.62400000000002 156.10399999999998 233.15200000000002 156.10399999999998H235.84000000000003C236.336 156.10399999999998 236.52800000000002 155.976 236.52800000000002 155.512V154.312C236.52800000000002 153.976 236.25600000000003 153.704 235.776 153.704H227.23200000000003C226.912 153.704 226.752 153.8 226.752 153.976V154.456C226.752 154.728 226.912 154.856 227.23200000000003 154.856H230.38400000000001C230.76800000000003 154.856 230.89600000000002 155.048 230.89600000000002 155.496V164.44C230.89600000000002 164.808 231.07200000000003 165.0 231.32800000000003 165.0ZM237.536 154.088V164.2C237.536 164.712 237.872 165.0 238.512 165.0H246.48000000000002C246.94400000000002 165.0 247.24800000000002 164.648 247.24800000000002 164.008V154.056C247.24800000000002 153.832 247.072 153.704 246.704 153.704H246.192C245.872 153.704 245.728 153.768 245.728 154.056V163.144C245.728 163.496 245.728 163.656 245.376 163.656H240.32000000000002C239.80800000000002 163.656 239.76000000000002 163.56 239.76000000000002 163.064V160.472C239.76000000000002 160.168 239.744 159.896 239.536 159.56L239.056 158.808C239.04000000000002 158.792 238.99200000000002 158.424 238.99200000000002 157.736V154.10399999999998C238.99200000000002 153.832 238.89600000000002 153.704 238.704 153.704H237.90400000000002C237.696 153.704 237.536 153.864 237.536 154.088ZM256.192 154.408 252.89600000000002 163.416 249.60000000000002 154.408C249.424 153.928 249.36 153.704 249.04000000000002 153.704H248.52800000000002C248.256 153.704 248.112 153.848 248.112 154.072C248.112 154.136 248.12800000000001 154.232 248.17600000000002 154.36L251.888 164.488C252.01600000000002 164.84 252.16 165.0 252.464 165.0H253.312C253.616 165.0 253.76000000000002 164.84 253.888 164.488L257.6 154.36C257.648 154.232 257.664 154.136 257.664 154.072C257.664 153.848 257.52 153.704 257.248 153.704H256.736C256.416 153.704 256.368 153.928 256.192 154.408ZM264.32000000000005 164.168C264.35200000000003 164.776 264.624 165.0 265.29600000000005 165.0H268.91200000000003C269.32800000000003 165.0 269.648 164.68 269.648 164.344V154.184C269.648 153.864 269.52000000000004 153.704 269.264 153.704H268.672C268.36800000000005 153.704 268.27200000000005 153.832 268.27200000000005 154.152V163.288C268.27200000000005 163.592 268.144 163.736 267.92 163.736H265.71200000000005C265.232 163.736 264.97600000000006 163.464 264.97600000000006 162.952V154.152C264.97600000000006 153.848 264.848 153.704 264.576 153.704H264.00000000000006C263.71200000000005 153.704 263.648 153.864 263.648 154.184V162.952C263.648 163.464 263.39200000000005 163.736 262.91200000000003 163.736H261.42400000000004C261.04 163.736 260.896 163.688 260.896 163.16V160.968C260.896 160.664 260.88000000000005 160.392 260.672 160.056L260.192 159.304C259.968 158.936 259.93600000000004 158.712 259.93600000000004 158.488V154.168C259.93600000000004 153.88 259.76000000000005 153.704 259.504 153.704H258.97600000000006C258.656 153.704 258.528 153.864 258.528 154.216V164.28C258.528 164.664 258.86400000000003 165.0 259.34400000000005 165.0H263.32800000000003C264.00000000000006 165.0 264.288 164.776 264.32000000000005 164.168ZM271.408 165.0H272.608C273.04 165.0 273.136 164.888 273.136 164.472V163.288C273.136 162.84 273.136 162.632 273.536 162.248L275.68 160.216L278.81600000000003 162.84C279.072 163.048 279.088 163.128 279.088 163.464V164.472C279.088 164.808 279.296 165.0 279.56800000000004 165.0H280.144C280.49600000000004 165.0 280.59200000000004 164.84 280.59200000000004 164.472V163.128C280.59200000000004 162.776 280.59200000000004 162.664 280.272 162.392L276.64 159.352L280.096 156.136C280.416 155.832 280.59200000000004 155.576 280.59200000000004 155.24V154.216C280.59200000000004 153.912 280.384 153.704 279.968 153.704H278.91200000000003C278.56 153.704 278.336 153.912 278.336 154.216V155.336C278.336 155.784 278.30400000000003 156.04 277.776 156.552L275.664 158.536L272.432 155.816C272.208 155.64 272.192 155.576 272.192 155.38400000000001V154.216C272.192 153.864 272.112 153.704 271.79200000000003 153.704H271.136C270.896 153.704 270.784 153.88 270.784 154.216V155.48C270.784 156.072 270.784 156.056 271.248 156.456L274.72 159.416L271.168 162.776C270.88 163.048 270.784 163.224 270.784 163.624V164.472C270.784 164.808 271.00800000000004 165.0 271.408 165.0ZM287.552 159.848H289.968C290.448 159.848 290.816 159.48 290.816 159.032V154.2C290.816 153.768 290.704 153.704 290.304 153.704H289.936C289.552 153.704 289.488 153.816 289.488 154.2V158.088C289.488 158.376 289.472 158.552 289.168 158.552H283.12C282.688 158.552 282.672 158.504 282.672 158.088V154.2C282.672 153.848 282.576 153.704 282.24 153.704H281.776C281.52 153.704 281.344 153.88 281.344 154.2V159.032C281.344 159.512 281.68 159.848 282.272 159.848H284.432C284.864 159.848 284.96 159.896 284.96 160.328V164.264C284.96 164.808 285.024 165.0 285.504 165.0H286.72C287.2 165.0 287.216 164.808 287.216 164.344V160.248C287.216 159.944 287.23199999999997 159.848 287.552 159.848ZM292.32000000000005 165.0H300.64000000000004C300.992 165.0 301.12 164.76 301.12 164.296V162.408C301.12 162.088 301.05600000000004 162.008 300.704 162.008H300.17600000000004C299.968 162.008 299.872 162.136 299.872 162.408V163.416C299.872 163.624 299.84000000000003 163.704 299.632 163.704H293.29600000000005L300.64000000000004 155.48C301.00800000000004 155.064 301.24800000000005 154.728 301.24800000000005 154.344C301.24800000000005 153.736 300.78400000000005 153.704 300.096 153.704H292.192C291.61600000000004 153.704 291.552 153.848 291.552 154.408V156.088C291.552 156.44 291.61600000000004 156.552 291.93600000000004 156.552H292.49600000000004C292.88000000000005 156.552 292.91200000000003 156.408 292.91200000000003 156.024V155.256C292.91200000000003 155.016 292.96000000000004 154.984 293.136 154.984H299.52000000000004L297.32800000000003 157.4C297.168 157.576 297.088 157.768 296.59200000000004 157.96L295.584 158.344C295.32800000000003 158.44 295.072 158.568 294.78400000000005 158.872L291.88800000000003 162.008C291.56800000000004 162.344 291.552 162.664 291.552 163.08V164.296C291.552 164.728 291.84000000000003 165.0 292.32000000000005 165.0Z" fill="#6b7280"/><path d="M31.312 194.0H38.032C38.272 194.0 38.432 193.84 38.432 193.584V193.056C38.432 192.8 38.304 192.688 38.096000000000004 192.688H37.824C37.6 192.688 37.488 192.56 37.488 192.304V186.928C37.488 186.464 37.264 186.224 36.8 186.224H31.072C30.672 186.224 30.608 186.304 30.608 186.64V187.168C30.608 187.488 30.768 187.504 31.072 187.504H35.84C36.064 187.504 36.16 187.552 36.16 187.744V188.48C36.16 188.704 36.112 188.72 35.92 188.72H31.392C30.912 188.72 30.608 189.04 30.608 189.392V193.232C30.608 193.696 30.896 194.0 31.312 194.0ZM33.184 192.624C32.976 192.624 32.896 192.528 32.896 192.304V190.32C32.896 190.08 32.912 190.016 33.184 190.016H35.84C36.128 190.016 36.16 190.096 36.16 190.4V192.304C36.16 192.576 36.128 192.624 35.84 192.624ZM44.24 192.704H41.84C41.376000000000005 192.704 41.36 192.624 41.36 192.224V187.936C41.36 187.632 41.440000000000005 187.52 41.760000000000005 187.52H44.352000000000004C44.704 187.52 44.704 187.552 44.704 187.984V192.224C44.704 192.64 44.672000000000004 192.704 44.24 192.704ZM45.376000000000005 194.0C45.872 194.0 46.192 193.68 46.192 193.104V186.896C46.192 186.544 45.872 186.224 45.504000000000005 186.224H41.632000000000005C41.136 186.224 40.784 186.24 40.448 186.56V183.072C40.448 182.784 40.32 182.704 39.984 182.704H39.504000000000005C39.152 182.704 38.976 182.832 38.976 183.072V193.12C38.976 193.632 39.344 194.0 39.824000000000005 194.0ZM48.368 194.0H53.984C54.480000000000004 194.0 54.672000000000004 193.792 54.672000000000004 193.296V191.984C54.672000000000004 191.696 54.544000000000004 191.6 54.24 191.6H53.6C53.29600000000001 191.6 53.232000000000006 191.664 53.232000000000006 191.952V192.4C53.232000000000006 192.672 53.21600000000001 192.672 52.944 192.672H49.42400000000001C49.136 192.672 49.056000000000004 192.608 49.056000000000004 192.336V187.84C49.056000000000004 187.536 49.120000000000005 187.504 49.42400000000001 187.504H51.824000000000005C52.048 187.504 52.144000000000005 187.52 52.144000000000005 187.808V188.144C52.144000000000005 188.496 52.352000000000004 188.512 52.736000000000004 188.512H54.096000000000004C54.624 188.512 54.672000000000004 188.432 54.672000000000004 187.92V186.88C54.672000000000004 186.512 54.38400000000001 186.224 53.952000000000005 186.224H48.288000000000004C47.87200000000001 186.224 47.536 186.56 47.536 187.104V192.992C47.536 193.536 47.984 194.0 48.368 194.0ZM58.75200000000001 192.704C58.30400000000001 192.704 58.288000000000004 192.672 58.288000000000004 192.224V187.984C58.288000000000004 187.536 58.288000000000004 187.52 58.70400000000001 187.52H61.328C61.60000000000001 187.52 61.632000000000005 187.552 61.632000000000005 187.984V192.224C61.632000000000005 192.624 61.61600000000001 192.704 61.15200000000001 192.704ZM56.720000000000006 194.0H62.25600000000001C62.736000000000004 194.0 63.120000000000005 193.632 63.120000000000005 193.12V183.072C63.120000000000005 182.832 62.944 182.704 62.592000000000006 182.704H62.11200000000001C61.77600000000001 182.704 61.632000000000005 182.784 61.632000000000005 183.072V186.48C61.2 186.24 60.83200000000001 186.224 60.44800000000001 186.224H56.57600000000001C56.208000000000006 186.224 55.904 186.544 55.904 186.896V193.104C55.904 193.68 56.224000000000004 194.0 56.720000000000006 194.0ZM65.13600000000001 194.0H71.08800000000001C71.56800000000001 194.0 71.712 193.84 71.712 193.36V191.936C71.712 191.664 71.64800000000001 191.6 71.40800000000002 191.6H70.54400000000001C70.352 191.6 70.272 191.616 70.272 191.808V192.464C70.272 192.688 70.224 192.704 70.048 192.704H66.92800000000001C66.736 192.704 66.72000000000001 192.672 66.72000000000001 192.352V190.592C66.72000000000001 190.32 66.75200000000001 190.224 67.04 190.224H71.13600000000001C71.504 190.224 71.712 190.016 71.712 189.728V186.816C71.712 186.512 71.40800000000002 186.224 70.992 186.224H65.21600000000001C64.736 186.224 64.46400000000001 186.48 64.46400000000001 186.816V193.36C64.46400000000001 193.664 64.80000000000001 194.0 65.13600000000001 194.0ZM66.992 187.44H70.00000000000001C70.20800000000001 187.44 70.272 187.536 70.272 187.76V188.8C70.272 188.976 70.20800000000001 189.04 70.00000000000001 189.04H66.944C66.75200000000001 189.04 66.72000000000001 188.976 66.72000000000001 188.784V187.664C66.72000000000001 187.504 66.75200000000001 187.44 66.992 187.44ZM78.86400000000002 182.704H74.25600000000001C73.77600000000001 182.704 73.52000000000001 182.944 73.52000000000001 183.248V186.224H72.67200000000001C72.40000000000002 186.224 72.25600000000001 186.352 72.25600000000001 186.56V187.152C72.25600000000001 187.392 72.40000000000002 187.52 72.67200000000001 187.52H73.52000000000001V193.6C73.52000000000001 193.84 73.69600000000001 194.0 73.92000000000002 194.0H74.49600000000001C74.78400000000002 194.0 74.92800000000001 193.872 74.92800000000001 193.616V192.0C74.92800000000001 191.824 74.94400000000002 191.616 75.13600000000001 191.296L75.58400000000002 190.496C75.76000000000002 190.192 75.77600000000001 189.936 75.77600000000001 189.696V187.52H76.81600000000002C77.15200000000002 187.52 77.29600000000002 187.472 77.29600000000002 187.168V186.64C77.29600000000002 186.352 77.18400000000001 186.224 76.91200000000002 186.224H75.77600000000001V183.984H78.00000000000001V184.464C78.00000000000001 184.688 78.09600000000002 184.784 78.32000000000002 184.784H79.07200000000002C79.32800000000002 184.784 79.45600000000002 184.72 79.45600000000002 184.464V183.248C79.45600000000002 182.864 79.26400000000001 182.704 78.86400000000002 182.704ZM79.95200000000001 190.512C79.68 190.512 79.61600000000001 190.48 79.61600000000001 190.208V187.824C79.61600000000001 187.568 79.68 187.488 79.936 187.488H82.76800000000001C83.08800000000001 187.488 83.13600000000001 187.488 83.13600000000001 187.824V190.208C83.13600000000001 190.512 83.10400000000001 190.512 82.76800000000001 190.512ZM78.784 197.52H84.304C84.70400000000001 197.52 84.912 197.312 84.912 196.896V193.664C84.912 193.216 84.72000000000001 193.024 84.272 193.024H80.736V191.808H84.08000000000001C84.4 191.808 84.57600000000001 191.632 84.57600000000001 191.424V187.488H85.376C85.632 187.488 85.712 187.376 85.712 187.12V186.656C85.712 186.368 85.632 186.224 85.376 186.224H78.912C78.4 186.224 78.144 186.448 78.144 186.816V191.28C78.144 191.648 78.352 191.808 78.784 191.808H79.39200000000001V193.024H78.83200000000001C78.38400000000001 193.024 78.144 193.232 78.144 193.536V196.912C78.144 197.296 78.36800000000001 197.52 78.784 197.52ZM80.816 196.336C80.57600000000001 196.336 80.46400000000001 196.24 80.46400000000001 196.0V194.464C80.46400000000001 194.256 80.49600000000001 194.176 80.736 194.176H83.21600000000001C83.44000000000001 194.176 83.504 194.272 83.504 194.496V196.096C83.504 196.256 83.40800000000002 196.336 83.248 196.336ZM89.36000000000001 187.536H91.71200000000002C92.12800000000001 187.536 92.16000000000001 187.584 92.16000000000001 187.984V193.536C92.16000000000001 193.872 92.28800000000001 194.0 92.608 194.0H93.26400000000001C93.504 194.0 93.64800000000001 193.84 93.64800000000001 193.536V187.008C93.64800000000001 186.56 93.296 186.224 92.76800000000001 186.224H88.4C88.06400000000001 186.224 87.936 186.208 87.936 185.808V183.136C87.936 182.848 87.82400000000001 182.704 87.56800000000001 182.704H86.96000000000001C86.656 182.704 86.57600000000001 182.768 86.57600000000001 183.088V193.536C86.57600000000001 193.824 86.75200000000001 194.0 87.08800000000001 194.0H88.4C88.67200000000001 194.0 88.864 193.792 88.864 193.536V187.968C88.864 187.568 88.88000000000001 187.536 89.36000000000001 187.536ZM96.04800000000002 186.224H95.29600000000002C95.07200000000002 186.224 94.97600000000001 186.336 94.97600000000001 186.56V193.52C94.97600000000001 193.824 95.16800000000002 194.0 95.55200000000002 194.0H96.86400000000002C97.12000000000002 194.0 97.29600000000002 193.808 97.29600000000002 193.488V191.136C97.29600000000002 190.848 97.29600000000002 190.592 97.16800000000002 190.336L96.56000000000002 189.168C96.48000000000002 189.008 96.38400000000001 188.928 96.38400000000001 188.544V186.56C96.38400000000001 186.352 96.25600000000001 186.224 96.04800000000002 186.224ZM94.84800000000001 184.32C94.84800000000001 184.784 95.21600000000002 185.152 95.68000000000002 185.152C96.14400000000002 185.152 96.51200000000001 184.784 96.51200000000001 184.32C96.51200000000001 183.856 96.14400000000002 183.488 95.68000000000002 183.488C95.21600000000002 183.488 94.84800000000001 183.856 94.84800000000001 184.32ZM95.34400000000001 197.52H99.936C100.41600000000001 197.52 100.67200000000001 197.28 100.67200000000001 196.976V186.624C100.67200000000001 186.384 100.51200000000001 186.224 100.28800000000001 186.224H99.69600000000001C99.40800000000002 186.224 99.28000000000002 186.352 99.28000000000002 186.608V188.16C99.28000000000002 188.368 99.26400000000001 188.576 99.05600000000001 188.928L98.60800000000002 189.728C98.43200000000002 190.032 98.41600000000001 190.288 98.41600000000001 190.528V196.24H96.19200000000001V195.76C96.19200000000001 195.536 96.09600000000002 195.44 95.87200000000001 195.44H95.12000000000002C94.86400000000002 195.44 94.75200000000001 195.504 94.75200000000001 195.76V196.976C94.75200000000001 197.36 94.94400000000002 197.52 95.34400000000001 197.52ZM99.13600000000001 184.32C99.13600000000001 184.784 99.50400000000002 185.152 99.96800000000002 185.152C100.43200000000002 185.152 100.80000000000001 184.784 100.80000000000001 184.32C100.80000000000001 183.856 100.43200000000002 183.488 99.96800000000002 183.488C99.50400000000002 183.488 99.13600000000001 183.856 99.13600000000001 184.32ZM104.84800000000001 190.048H106.992C107.44000000000001 190.048 107.66400000000002 190.224 107.66400000000002 190.56V193.648C107.66400000000002 193.856 107.808 194.0 108.08000000000001 194.0H108.72000000000001C108.992 194.0 109.18400000000001 193.824 109.18400000000001 193.648V189.984C109.18400000000001 189.552 108.96000000000001 189.376 108.44800000000001 189.312C108.912 189.28 109.18400000000001 189.04 109.18400000000001 188.624V186.512C109.18400000000001 186.352 109.024 186.176 108.76800000000001 186.176H108.048C107.82400000000001 186.176 107.66400000000002 186.336 107.66400000000002 186.496V188.256C107.66400000000002 188.56 107.424 188.752 107.00800000000001 188.752H104.656C104.33600000000001 188.752 104.32000000000001 188.72 104.32000000000001 188.384V188.144C104.32000000000001 187.888 104.24000000000001 187.664 104.096 187.424L103.61600000000001 186.656C103.47200000000001 186.416 103.456 186.064 103.456 185.6V183.10399999999998C103.456 182.848 103.31200000000001 182.704 103.13600000000001 182.704H102.36800000000001C102.16000000000001 182.704 102.016 182.864 102.016 183.088V193.52C102.016 193.84 102.16000000000001 194.0 102.4 194.0H103.792C104.096 194.0 104.32000000000001 193.776 104.32000000000001 193.536V190.352C104.32000000000001 190.08 104.432 190.048 104.656 190.048ZM110.512 183.04V193.52C110.512 193.824 110.70400000000001 194.0 111.08800000000001 194.0H112.4C112.656 194.0 112.83200000000001 193.808 112.83200000000001 193.488V191.136C112.83200000000001 190.848 112.83200000000001 190.592 112.70400000000001 190.336L112.096 189.168C112.016 189.008 111.92 188.928 111.92 188.544V183.04C111.92 182.832 111.792 182.704 111.584 182.704H110.83200000000001C110.608 182.704 110.512 182.816 110.512 183.04ZM114.016 186.8V193.664C114.016 193.92 114.064 194.0 114.352 194.0H115.984C116.192 194.0 116.32 193.872 116.32 193.696V191.088C116.32 190.832 116.288 190.64 116.176 190.496L115.664 189.792C115.52 189.584 115.504 189.504 115.504 189.312V187.808C115.504 187.552 115.55199999999999 187.488 115.84 187.488H118.096C118.24 187.488 118.32 187.584 118.32 187.792V193.696C118.32 193.888 118.432 194.0 118.56 194.0H119.504C119.632 194.0 119.728 193.888 119.728 193.696V187.792C119.728 187.584 119.80799999999999 187.488 119.952 187.488H122.016C122.16 187.488 122.24 187.584 122.24 187.792V193.696C122.24 193.888 122.336 194.0 122.464 194.0H123.36C123.536 194.0 123.696 193.856 123.696 193.664V186.816C123.696 186.512 123.408 186.224 123.056 186.224H119.904C119.328 186.224 119.072 186.368 119.056 186.8C119.024 186.368 118.768 186.224 118.192 186.224H114.704C114.288 186.224 114.016 186.496 114.016 186.8ZM126.64 187.456H130.608C130.8 187.456 130.832 187.552 130.832 187.744V193.68C130.832 193.872 130.976 194.0 131.072 194.0H132.0C132.144 194.0 132.24 193.888 132.24 193.68V186.816C132.24 186.4 132.048 186.224 131.6 186.224H125.64800000000001C125.232 186.224 125.024 186.32 125.024 186.64V193.68C125.024 193.872 125.152 194.0 125.248 194.0H127.08800000000001C127.184 194.0 127.312 193.872 127.312 193.68V190.992C127.312 190.624 127.296 190.272 127.00800000000001 189.808L126.56 189.088C126.48 188.96 126.464 188.816 126.464 188.656V187.664C126.464 187.52 126.528 187.456 126.64 187.456ZM138.288 192.448C138.288 192.64 138.256 192.736 138.064 192.736H135.168C134.976 192.736 134.94400000000002 192.64 134.94400000000002 192.448V187.776C134.94400000000002 187.584 134.976 187.488 135.168 187.488H138.976C139.168 187.488 139.216 187.584 139.216 187.776V188.576C139.216 188.88 139.088 189.024 138.976 189.2L138.608 189.808C138.304 190.304 138.288 190.688 138.288 191.104ZM140.592 193.488V186.784C140.592 186.4 140.4 186.224 140.0 186.224H134.256C133.808 186.224 133.584 186.336 133.584 186.72V193.552C133.584 193.856 133.76000000000002 194.0 134.12800000000001 194.0H140.048C140.43200000000002 194.0 140.592 193.856 140.592 193.488ZM143.92000000000002 192.736C143.392 192.736 143.34400000000002 192.736 143.34400000000002 192.256V187.968C143.34400000000002 187.536 143.44 187.504 143.792 187.504H146.976C147.28 187.504 147.44 187.52 147.44 187.872V192.24C147.44 192.72 147.392 192.736 146.94400000000002 192.736ZM147.888 186.224H142.72C142.27200000000002 186.224 141.936 186.56 141.936 186.976V197.152C141.936 197.392 142.11200000000002 197.52 142.464 197.52H143.648C143.984 197.52 144.11200000000002 197.44 144.11200000000002 197.152V194.304C144.11200000000002 194.112 144.27200000000002 194.0 144.592 194.0H148.032C148.52800000000002 194.0 148.816 193.712 148.816 193.184V187.056C148.816 186.576 148.448 186.224 147.888 186.224ZM151.072 186.224C150.512 186.224 150.16 186.576 150.16 187.056V193.184C150.16 193.712 150.432 194.0 150.928 194.0H154.384C154.72 194.0 154.848 194.096 154.848 194.416V197.152C154.848 197.44 154.992 197.52 155.328 197.52H156.512C156.864 197.52 157.04 197.392 157.04 197.152V186.976C157.04 186.56 156.704 186.224 156.256 186.224ZM155.056 192.736H152.128C151.568 192.736 151.52 192.736 151.52 192.24V187.872C151.52 187.52 151.68 187.504 152.048 187.504H155.12C155.536 187.504 155.632 187.52 155.632 187.968V192.256C155.632 192.72 155.568 192.736 155.152 192.736ZM158.384 193.424C158.384 193.76 158.624 194.0 158.928 194.0H160.176C160.528 194.0 160.70399999999998 193.84 160.70399999999998 193.488V191.072C160.70399999999998 190.864 160.688 190.624 160.49599999999998 190.24L160.03199999999998 189.36C159.904 189.136 159.856 188.88 159.856 188.576V187.792C159.856 187.552 159.88799999999998 187.44 160.128 187.44H162.528C162.768 187.44 162.784 187.488 162.784 187.728V188.224C162.784 188.496 162.896 188.592 163.184 188.592H163.83999999999997C164.19199999999998 188.592 164.272 188.448 164.272 188.08V186.832C164.272 186.496 164.0 186.224 163.61599999999999 186.224H159.136C158.672 186.224 158.384 186.512 158.384 186.896ZM165.76 194.0H171.67999999999998C171.92 194.0 172.14399999999998 193.76 172.14399999999998 193.424V189.904C172.14399999999998 189.568 171.95199999999997 189.376 171.59999999999997 189.376L166.92799999999997 189.36C166.64 189.36 166.59199999999998 189.344 166.59199999999998 189.072V187.84C166.59199999999998 187.552 166.62399999999997 187.472 166.92799999999997 187.472H170.224C170.55999999999997 187.472 170.59199999999998 187.488 170.59199999999998 187.792V188.272C170.59199999999998 188.4 170.75199999999998 188.544 171.00799999999998 188.544H171.79199999999997C172.04799999999997 188.544 172.14399999999998 188.384 172.14399999999998 188.064V186.672C172.14399999999998 186.432 171.93599999999998 186.224 171.67999999999998 186.224H165.88799999999998C165.408 186.224 165.11999999999998 186.512 165.11999999999998 186.832V190.16C165.11999999999998 190.464 165.34399999999997 190.704 165.712 190.704H169.552C169.77599999999998 190.704 169.85599999999997 190.72 169.85599999999997 190.944V192.416C169.85599999999997 192.672 169.79199999999997 192.72 169.552 192.72H166.84799999999998C166.62399999999997 192.72 166.59199999999998 192.704 166.59199999999998 192.416V192.0C166.59199999999998 191.76 166.54399999999998 191.616 166.35199999999998 191.616H165.42399999999998C165.21599999999998 191.616 165.11999999999998 191.744 165.11999999999998 192.0V193.392C165.11999999999998 193.744 165.35999999999999 194.0 165.76 194.0ZM174.67199999999997 194.0H176.55999999999997C176.896 194.0 176.92799999999997 193.936 176.92799999999997 193.6V193.12C176.92799999999997 192.848 176.83199999999997 192.784 176.55999999999997 192.784H175.85599999999997C175.61599999999999 192.784 175.59999999999997 192.768 175.59999999999997 192.448V188.56H177.21599999999998C177.50399999999996 188.56 177.64799999999997 188.416 177.64799999999997 188.16V186.736C177.64799999999997 186.4 177.48799999999997 186.224 177.21599999999998 186.224H175.59999999999997V184.352C175.59999999999997 184.048 175.47199999999998 183.904 175.21599999999998 183.904H174.59199999999998C174.28799999999998 183.904 174.14399999999998 184.048 174.14399999999998 184.352V186.224H173.55199999999996C173.37599999999998 186.224 173.26399999999998 186.352 173.26399999999998 186.512V187.216C173.26399999999998 187.376 173.39199999999997 187.52 173.55199999999996 187.52H174.14399999999998V193.456C174.14399999999998 193.776 174.384 194.0 174.67199999999997 194.0ZM184.46399999999997 192.768H181.40799999999996C181.29599999999996 192.768 181.24799999999996 192.704 181.24799999999996 192.56V191.456C181.24799999999996 191.04 181.23199999999997 190.656 180.92799999999997 190.144L180.49599999999998 189.44C180.41599999999997 189.312 180.39999999999998 189.168 180.39999999999998 189.008V186.544C180.39999999999998 186.336 180.33599999999996 186.224 180.15999999999997 186.224H179.10399999999996C178.95999999999998 186.224 178.87999999999997 186.336 178.87999999999997 186.544V193.584C178.87999999999997 193.872 179.05599999999998 194.0 179.42399999999998 194.0H185.55199999999996C185.91999999999996 194.0 186.09599999999998 193.856 186.09599999999998 193.584V186.544C186.09599999999998 186.336 185.99999999999997 186.224 185.85599999999997 186.224H184.92799999999997C184.78399999999996 186.224 184.68799999999996 186.336 184.68799999999996 186.544V192.48C184.68799999999996 192.672 184.65599999999998 192.768 184.46399999999997 192.768ZM193.08799999999997 186.592 190.73599999999996 192.448 188.36799999999997 186.592C188.23999999999998 186.272 188.17599999999996 186.224 187.85599999999997 186.224H187.26399999999998C187.02399999999997 186.224 186.91199999999998 186.288 186.91199999999998 186.432C186.91199999999998 186.496 186.92799999999997 186.544 186.95999999999998 186.624L189.79199999999997 193.504C189.93599999999998 193.856 190.01599999999996 194.0 190.33599999999998 194.0H191.10399999999998C191.42399999999998 194.0 191.50399999999996 193.856 191.64799999999997 193.504L194.47999999999996 186.624C194.51199999999997 186.544 194.52799999999996 186.496 194.52799999999996 186.432C194.52799999999996 186.288 194.41599999999997 186.224 194.17599999999996 186.224H193.59999999999997C193.27999999999997 186.224 193.21599999999998 186.272 193.08799999999997 186.592ZM200.23999999999995 193.6C200.43199999999996 193.952 200.62399999999997 194.0 201.00799999999995 194.0H204.12799999999996C204.57599999999996 194.0 204.73599999999996 193.76 204.73599999999996 193.248V186.496C204.73599999999996 186.304 204.63999999999996 186.224 204.43199999999996 186.224H203.69599999999997C203.50399999999996 186.224 203.40799999999996 186.304 203.40799999999996 186.496V192.448C203.40799999999996 192.608 203.39199999999997 192.672 203.19999999999996 192.672H201.03999999999996C200.76799999999997 192.672 200.73599999999996 192.624 200.73599999999996 192.336V186.496C200.73599999999996 186.32 200.63999999999996 186.224 200.47999999999996 186.224H199.69599999999997C199.48799999999997 186.224 199.39199999999997 186.288 199.39199999999997 186.496V192.496C199.39199999999997 192.64 199.35999999999996 192.672 199.10399999999996 192.672H198.03199999999995C197.74399999999997 192.672 197.71199999999996 192.608 197.71199999999996 192.336V191.232C197.71199999999996 191.008 197.67999999999995 190.816 197.55199999999996 190.576L196.94399999999996 189.392C196.83199999999997 189.168 196.81599999999997 189.088 196.81599999999997 188.992V186.496C196.81599999999997 186.352 196.67199999999997 186.224 196.49599999999995 186.224H195.82399999999996C195.55199999999996 186.224 195.40799999999996 186.304 195.40799999999996 186.496V193.344C195.40799999999996 193.744 195.67999999999995 194.0 196.12799999999996 194.0H199.39199999999997C199.82399999999996 194.0 200.04799999999997 193.952 200.23999999999995 193.6ZM206.31999999999996 194.0H207.75999999999996C208.12799999999996 194.0 208.20799999999994 193.952 208.20799999999994 193.616V192.576C208.20799999999994 192.272 208.20799999999994 192.288 208.46399999999994 192.032L209.47199999999995 191.056L211.40799999999996 192.864C211.58399999999995 193.024 211.59999999999997 193.008 211.59999999999997 193.264V193.712C211.59999999999997 193.856 211.75999999999996 194.0 211.93599999999995 194.0H212.70399999999995C212.89599999999996 194.0 212.97599999999994 193.872 212.97599999999994 193.616V192.928C212.97599999999994 192.72 212.97599999999994 192.56 212.81599999999995 192.416L210.41599999999994 190.128L212.75199999999995 187.84C212.91199999999995 187.696 212.97599999999994 187.488 212.97599999999994 187.248V186.464C212.97599999999994 186.304 212.84799999999996 186.224 212.60799999999995 186.224H211.11999999999995C210.89599999999996 186.224 210.81599999999995 186.288 210.81599999999995 186.464V187.584C210.81599999999995 187.776 210.79999999999995 187.856 210.57599999999996 188.064L209.40799999999996 189.184L207.51999999999995 187.424C207.32799999999995 187.264 207.31199999999995 187.184 207.31199999999995 187.072V186.464C207.31199999999995 186.304 207.19999999999996 186.224 206.97599999999994 186.224H206.33599999999996C206.04799999999994 186.224 205.90399999999994 186.32 205.90399999999994 186.464V187.344C205.90399999999994 187.504 205.93599999999995 187.632 206.14399999999995 187.84L208.46399999999994 190.096L206.36799999999994 192.16C206.06399999999996 192.464 205.90399999999994 192.72 205.90399999999994 192.96V193.568C205.90399999999994 193.84 206.06399999999996 194.0 206.31999999999996 194.0ZM214.94399999999993 194.0H218.39999999999995C218.79999999999993 194.0 218.92799999999994 194.016 218.92799999999994 194.48V197.072C218.92799999999994 197.344 219.11999999999995 197.52 219.43999999999994 197.52H220.68799999999993C221.03999999999994 197.52 221.16799999999995 197.36 221.16799999999995 197.008V186.544C221.16799999999995 186.368 221.02399999999994 186.224 220.79999999999993 186.224H220.11199999999994C219.95199999999994 186.224 219.75999999999993 186.4 219.75999999999993 186.544V192.272C219.75999999999993 192.672 219.74399999999994 192.704 219.31199999999993 192.704H215.93599999999995C215.56799999999993 192.704 215.42399999999995 192.672 215.42399999999995 192.272V186.672C215.42399999999995 186.368 215.34399999999994 186.224 215.05599999999993 186.224H214.49599999999995C214.20799999999994 186.224 214.06399999999994 186.32 214.06399999999994 186.544V193.264C214.06399999999994 193.616 214.44799999999995 194.0 214.94399999999993 194.0ZM228.81599999999995 186.224H222.59199999999996C222.36799999999994 186.224 222.14399999999995 186.432 222.14399999999995 186.736V188.256C222.14399999999995 188.448 222.30399999999995 188.592 222.49599999999995 188.592H223.16799999999995C223.34399999999994 188.592 223.48799999999994 188.448 223.48799999999994 188.256V187.408H227.58399999999995L226.20799999999994 188.816C225.93599999999995 189.088 225.74399999999994 189.264 225.58399999999995 189.328L224.73599999999993 189.632C224.30399999999995 189.792 224.12799999999996 189.984 223.95199999999994 190.16L222.55999999999995 191.584C222.27199999999993 191.872 222.14399999999995 192.0 222.14399999999995 192.528V193.6C222.14399999999995 193.92 222.33599999999996 194.0 222.70399999999995 194.0H228.84799999999996C229.19999999999993 194.0 229.34399999999994 193.936 229.34399999999994 193.6V192.096C229.34399999999994 191.856 229.24799999999993 191.728 229.00799999999995 191.728H228.33599999999996C228.07999999999996 191.728 227.99999999999994 191.84 227.99999999999994 192.096V192.448C227.99999999999994 192.688 227.95199999999994 192.704 227.74399999999994 192.704H224.39999999999995L229.00799999999995 187.936C229.18399999999994 187.76 229.34399999999994 187.664 229.34399999999994 187.408V186.656C229.34399999999994 186.384 229.15199999999996 186.224 228.81599999999995 186.224ZM243.40799999999993 192.688C242.95999999999992 192.688 242.95999999999992 192.576 242.95999999999992 192.112V184.4C242.95999999999992 184.016 243.03999999999994 183.904 243.40799999999993 183.904H249.1839999999999C249.59999999999994 183.904 249.66399999999993 184.0 249.66399999999993 184.4V186.88C249.66399999999993 187.424 249.66399999999993 187.392 249.45599999999993 187.808L249.07199999999992 188.576C248.86399999999992 189.008 248.81599999999992 189.312 248.81599999999992 189.536C248.81599999999992 189.744 248.84799999999993 189.872 248.84799999999993 189.968V192.112C248.84799999999993 192.56 248.81599999999992 192.688 248.38399999999993 192.688ZM251.1839999999999 193.184V183.392C251.1839999999999 183.024 250.86399999999992 182.704 250.44799999999992 182.704H242.25599999999991C241.83999999999992 182.704 241.51999999999992 183.024 241.51999999999992 183.392V193.184C241.51999999999992 193.648 241.88799999999992 194.0 242.38399999999993 194.0H250.31999999999994C250.81599999999992 194.0 251.1839999999999 193.648 251.1839999999999 193.184ZM256.5439999999999 194.0H258.47999999999996C258.8639999999999 194.0 259.1039999999999 193.776 259.1039999999999 193.44V192.176C259.1039999999999 191.936 258.89599999999996 191.728 258.7199999999999 191.728H258.38399999999996C258.2559999999999 191.728 258.12799999999993 191.584 258.12799999999993 191.344V183.12C258.12799999999993 182.864 257.96799999999996 182.704 257.6959999999999 182.704H256.3039999999999C255.98399999999995 182.704 255.82399999999993 182.848 255.82399999999993 183.12V183.744C255.82399999999993 183.968 255.98399999999995 184.128 256.19199999999995 184.128H256.47999999999996C256.65599999999995 184.128 256.7679999999999 184.24 256.7679999999999 184.464V191.36C256.7679999999999 191.6 256.70399999999995 191.728 256.51199999999994 191.728H256.27199999999993C256.0319999999999 191.728 255.82399999999993 191.92 255.82399999999993 192.24V193.44C255.82399999999993 193.808 256.06399999999996 194.0 256.5439999999999 194.0ZM272.8479999999999 194.0C273.1839999999999 194.0 273.3599999999999 193.936 273.3599999999999 193.648V193.056C273.3599999999999 192.816 273.1839999999999 192.624 272.8479999999999 192.624H265.7439999999999C265.3759999999999 192.624 265.21599999999995 192.512 265.21599999999995 192.192V188.976C265.21599999999995 188.672 265.29599999999994 188.672 265.5519999999999 188.672H272.51199999999994C273.0559999999999 188.672 273.3599999999999 188.336 273.3599999999999 187.68V183.648C273.3599999999999 183.008 273.11999999999995 182.704 272.51199999999994 182.704H264.27199999999993C263.9359999999999 182.704 263.75999999999993 182.8 263.75999999999993 183.10399999999998V183.632C263.75999999999993 183.888 263.95199999999994 184.08 264.27199999999993 184.08H271.4719999999999C271.80799999999994 184.08 271.9199999999999 184.096 271.9199999999999 184.496V186.912C271.9199999999999 187.264 271.8879999999999 187.328 271.5519999999999 187.328H264.3999999999999C264.0319999999999 187.328 263.75999999999993 187.61599999999999 263.75999999999993 187.936V193.232C263.75999999999993 193.696 264.0639999999999 194.0 264.4799999999999 194.0ZM275.5359999999999 194.0H283.61599999999993C284.0959999999999 194.0 284.4159999999999 193.664 284.4159999999999 193.184V188.56C284.4159999999999 187.776 284.1599999999999 187.744 283.6959999999999 187.376C283.3759999999999 187.12 283.3759999999999 187.024 283.3759999999999 186.592V183.376C283.3759999999999 182.944 283.0559999999999 182.704 282.4319999999999 182.704H275.5359999999999C275.1199999999999 182.704 274.9279999999999 182.72 274.9279999999999 183.136V183.61599999999999C274.9279999999999 184.0 275.1199999999999 184.032 275.5359999999999 184.032H281.5679999999999C281.9999999999999 184.032 282.0799999999999 184.128 282.0799999999999 184.528V186.704C282.0799999999999 187.152 282.0479999999999 187.296 281.5679999999999 187.296H275.5359999999999C275.1359999999999 187.296 274.9279999999999 187.392 274.9279999999999 187.696V188.208C274.9279999999999 188.512 275.1359999999999 188.672 275.5359999999999 188.672H281.71199999999993C282.0639999999999 188.672 282.0799999999999 188.704 282.0799999999999 189.136V192.192C282.0799999999999 192.528 282.0479999999999 192.592 281.5679999999999 192.592H275.5359999999999C275.1359999999999 192.592 274.9279999999999 192.704 274.9279999999999 193.04V193.536C274.9279999999999 193.904 275.1199999999999 194.0 275.5359999999999 194.0ZM294.0479999999999 194.0H295.0879999999999C295.4399999999999 194.0 295.56799999999987 193.856 295.56799999999987 193.504V190.144C295.56799999999987 189.808 295.47199999999987 189.664 295.1679999999999 189.664H293.9839999999999C293.6799999999999 189.664 293.51999999999987 189.824 293.51999999999987 190.08V190.432C293.51999999999987 190.736 293.4079999999999 190.784 293.0719999999999 190.784H288.8159999999999C288.3999999999999 190.784 288.2239999999999 190.64 288.2239999999999 190.256V183.184C288.2239999999999 182.832 288.0959999999999 182.704 287.7279999999999 182.704H286.5599999999999C286.1599999999999 182.704 285.9679999999999 182.816 285.9679999999999 183.184V191.232C285.9679999999999 191.808 286.3039999999999 192.144 286.8159999999999 192.144H293.0719999999999C293.4079999999999 192.144 293.51999999999987 192.144 293.51999999999987 192.48V193.536C293.51999999999987 193.92 293.6479999999999 194.0 294.0479999999999 194.0ZM297.59999999999985 194.0H305.9679999999999C306.3839999999999 194.0 306.67199999999985 193.696 306.67199999999985 193.232V187.936C306.67199999999985 187.61599999999999 306.39999999999986 187.328 306.03199999999987 187.328H298.8959999999999C298.5599999999999 187.328 298.5119999999999 187.264 298.5119999999999 186.912V184.496C298.5119999999999 184.096 298.62399999999985 184.08 298.95999999999987 184.08H306.1759999999999C306.49599999999987 184.08 306.67199999999985 183.888 306.67199999999985 183.632V183.10399999999998C306.67199999999985 182.8 306.5119999999999 182.704 306.1759999999999 182.704H297.9199999999999C297.3119999999999 182.704 297.0719999999999 183.008 297.0719999999999 183.648V187.68C297.0719999999999 188.336 297.37599999999986 188.672 297.9199999999999 188.672H304.8799999999999C305.13599999999985 188.672 305.23199999999986 188.672 305.23199999999986 188.976V192.192C305.23199999999986 192.512 305.0719999999999 192.624 304.7039999999999 192.624H297.59999999999985C297.2639999999999 192.624 297.0719999999999 192.816 297.0719999999999 193.056V193.648C297.0719999999999 193.936 297.2639999999999 194.0 297.59999999999985 194.0ZM309.9999999999999 192.624C309.5359999999999 192.624 309.50399999999985 192.496 309.50399999999985 192.016V189.488H315.9519999999999C316.43199999999985 189.488 316.43199999999985 189.584 316.43199999999985 190.048V192.016C316.43199999999985 192.544 316.4159999999999 192.624 315.91999999999985 192.624ZM308.1279999999999 183.664V193.296C308.1279999999999 193.696 308.4639999999999 194.0 309.03999999999985 194.0H317.00799999999987C317.4879999999999 194.0 317.82399999999984 193.664 317.82399999999984 193.216V189.024C317.82399999999984 188.592 317.4879999999999 188.256 317.00799999999987 188.256H309.50399999999985V184.032H314.7359999999999C315.10399999999987 184.032 315.27999999999986 184.192 315.27999999999986 184.448V185.184C315.27999999999986 185.536 315.37599999999986 185.696 315.69599999999986 185.696H316.1759999999999C316.52799999999985 185.696 316.62399999999985 185.552 316.62399999999985 185.184V183.52C316.62399999999985 182.992 316.35199999999986 182.704 315.8559999999999 182.704H309.2479999999999C308.5119999999999 182.704 308.1279999999999 183.04 308.1279999999999 183.664ZM320.65599999999984 194.0H321.3439999999998C321.77599999999984 194.0 321.91999999999985 193.984 322.20799999999986 193.568L328.55999999999983 184.432C328.6879999999999 184.24 328.8319999999998 184.08 328.8319999999998 183.76V183.28C328.8319999999998 182.88 328.57599999999985 182.704 328.06399999999985 182.704H320.09599999999983C319.67999999999984 182.704 319.32799999999986 183.04 319.32799999999986 183.36V185.344C319.32799999999986 185.6 319.50399999999985 185.76 319.6639999999999 185.76H320.3199999999998C320.49599999999987 185.76 320.65599999999984 185.6 320.65599999999984 185.344V184.512C320.65599999999984 184.08 320.67199999999985 184.048 321.03999999999985 184.048H327.26399999999984L325.47199999999987 186.704C325.23199999999986 187.056 325.10399999999987 187.328 324.39999999999986 187.61599999999999C323.82399999999984 187.856 323.40799999999984 187.84 322.91199999999986 188.56L320.43199999999985 192.144C320.1759999999999 192.528 320.07999999999987 192.72 320.07999999999987 193.168V193.536C320.07999999999987 193.904 320.25599999999986 194.0 320.65599999999984 194.0ZM333.55199999999985 187.248C333.1039999999998 187.248 332.97599999999983 187.152 332.97599999999983 186.672V184.544C332.97599999999983 184.192 333.07199999999983 184.064 333.4399999999998 184.064H336.7839999999998C337.13599999999985 184.064 337.27999999999986 184.208 337.27999999999986 184.544V186.672C337.27999999999986 187.12 337.26399999999984 187.248 336.7839999999998 187.248ZM333.16799999999984 192.624C332.71999999999986 192.624 332.57599999999985 192.56 332.57599999999985 192.144V189.136C332.57599999999985 188.688 332.7359999999998 188.56 333.16799999999984 188.56H337.16799999999984C337.59999999999985 188.56 337.79199999999986 188.72 337.79199999999986 189.136V192.128C337.79199999999986 192.56 337.77599999999984 192.624 337.27999999999986 192.624ZM331.27999999999986 194.0H339.18399999999986C339.83999999999986 194.0 340.1279999999998 193.68 340.1279999999998 193.008V189.712C340.1279999999998 188.72 339.9039999999998 188.56 339.31199999999984 188.032C338.76799999999986 187.552 338.57599999999985 187.424 338.57599999999985 186.64V183.488C338.57599999999985 183.04 338.2239999999998 182.704 337.67999999999984 182.704H332.57599999999985C331.9839999999998 182.704 331.6159999999998 183.056 331.6159999999998 183.488V186.64C331.6159999999998 187.312 331.55199999999985 187.472 330.99199999999985 188.016C330.67199999999985 188.32 330.3999999999998 188.544 330.28799999999984 188.816C330.23999999999984 188.912 330.23999999999984 189.216 330.23999999999984 189.712V193.152C330.23999999999984 193.616 330.6399999999998 194.0 331.27999999999986 194.0ZM343.3439999999998 187.264C342.99199999999985 187.264 342.9119999999998 187.232 342.9119999999998 186.848V184.48C342.9119999999998 184.064 342.9119999999998 184.032 343.3439999999998 184.032H349.1999999999998C349.5519999999998 184.032 349.6479999999998 184.128 349.6479999999998 184.48V186.848C349.6479999999998 187.232 349.5999999999998 187.264 349.1999999999998 187.264ZM349.3919999999998 194.0H350.55999999999983C351.0399999999998 194.0 351.11999999999983 193.824 351.11999999999983 193.376V183.568C351.11999999999983 183.024 350.7839999999998 182.704 350.2079999999998 182.704H342.2719999999998C341.7439999999998 182.704 341.45599999999985 182.992 341.45599999999985 183.44V187.888C341.45599999999985 188.368 341.7439999999998 188.624 342.2719999999998 188.624H348.2079999999998C348.7199999999998 188.624 348.75199999999984 188.64 348.75199999999984 189.2V193.376C348.75199999999984 193.888 348.9119999999998 194.0 349.3919999999998 194.0ZM366.6879999999999 187.248 365.99999999999983 186.544C365.77599999999984 186.304 365.7599999999998 186.192 365.7599999999998 185.936V184.128C365.7599999999998 183.952 365.79199999999986 183.936 366.09599999999983 183.936H370.59199999999987C370.94399999999985 183.936 370.94399999999985 183.952 370.94399999999985 184.288V184.896C370.94399999999985 185.184 370.94399999999985 185.184 370.6879999999999 185.312ZM364.2239999999998 194.0H372.84799999999984C373.2479999999998 194.0 373.42399999999986 193.76 373.42399999999986 193.264V192.112H373.93599999999986C374.1279999999999 192.112 374.20799999999986 192.064 374.20799999999986 191.872V191.264C374.20799999999986 191.04 374.1279999999999 191.008 373.91999999999985 191.008H373.42399999999986V188.048C373.42399999999986 187.744 373.2479999999998 187.6 372.8799999999998 187.6H370.7359999999998C370.51199999999983 187.6 370.3199999999998 187.792 370.3199999999998 188.064V189.536C370.3199999999998 189.808 370.44799999999987 189.92 370.7359999999998 189.92H371.88799999999986C371.96799999999985 189.92 372.04799999999983 190.0 372.04799999999983 190.096V190.752C372.04799999999983 190.928 371.96799999999985 191.008 371.7599999999998 191.008H370.75199999999984C370.35199999999986 191.008 370.33599999999984 191.008 370.04799999999983 190.704L368.1759999999999 188.752L369.23199999999986 187.488C369.3439999999998 187.344 369.4399999999998 187.152 369.87199999999984 186.96L371.56799999999987 186.208C372.1759999999998 185.936 372.20799999999986 185.712 372.20799999999986 185.2V183.376C372.20799999999986 182.912 372.04799999999983 182.704 371.6159999999999 182.704H365.11999999999983C364.6879999999999 182.704 364.4639999999998 182.912 364.4639999999998 183.264V185.632C364.4639999999998 186.416 364.51199999999983 186.88 365.48799999999983 187.808L364.11199999999985 188.512C363.6639999999999 188.736 363.50399999999985 188.912 363.50399999999985 189.376V193.264C363.50399999999985 193.808 363.69599999999986 194.0 364.2239999999998 194.0ZM364.79999999999984 191.248V190.432L367.02399999999983 189.392L369.3439999999998 191.776C369.63199999999983 192.08 369.82399999999984 192.112 370.09599999999983 192.112H372.04799999999983V192.512C372.04799999999983 192.768 371.91999999999985 192.784 371.6639999999999 192.784H366.1279999999999C365.91999999999985 192.784 365.77599999999984 192.656 365.77599999999984 192.448V192.272C365.77599999999984 192.032 365.69599999999986 191.952 365.53599999999983 191.824ZM378.01599999999985 193.296C378.01599999999985 192.816 377.64799999999985 192.448 377.16799999999984 192.448C376.6879999999998 192.448 376.30399999999986 192.816 376.30399999999986 193.296C376.30399999999986 193.776 376.6879999999998 194.144 377.16799999999984 194.144C377.64799999999985 194.144 378.01599999999985 193.776 378.01599999999985 193.296ZM382.5119999999999 195.056H383.56799999999987V193.408C383.56799999999987 192.768 383.27999999999986 192.448 382.71999999999986 192.448C382.23999999999984 192.448 381.8559999999999 192.816 381.8559999999999 193.296C381.8559999999999 193.776 382.23999999999984 194.144 382.71999999999986 194.144C382.81599999999986 194.144 382.9759999999999 194.096 383.1999999999999 194.016ZM386.5119999999999 193.264C386.5119999999999 193.776 386.91199999999986 194.192 387.4399999999999 194.192C387.9519999999999 194.192 388.35199999999986 193.776 388.35199999999986 193.264C388.35199999999986 192.752 387.9519999999999 192.336 387.4399999999999 192.336C386.9279999999999 192.336 386.5119999999999 192.752 386.5119999999999 193.264ZM388.6399999999999 191.424V189.456C388.6399999999999 189.216 388.6079999999999 188.928 388.3199999999999 188.32L387.9679999999999 187.584C387.83999999999986 187.328 387.6799999999999 187.104 387.6799999999999 186.576V183.264C387.6799999999999 182.88 387.56799999999987 182.704 387.2479999999999 182.704H386.6399999999999C386.35199999999986 182.704 386.2239999999999 182.896 386.2239999999999 183.264V191.424C386.2239999999999 191.76 386.4639999999999 191.984 386.7199999999999 191.984H388.07999999999987C388.5119999999999 191.984 388.6399999999999 191.872 388.6399999999999 191.424ZM392.5919999999999 192.0H393.8399999999999C394.27199999999993 192.0 394.41599999999994 191.904 394.41599999999994 191.504V190.512C394.41599999999994 190.384 394.3999999999999 190.256 394.2559999999999 190.112L393.4879999999999 189.36C393.34399999999994 189.216 393.2799999999999 189.216 393.2799999999999 189.008V188.544C393.2799999999999 188.272 393.2799999999999 188.272 393.5519999999999 188.192L397.1359999999999 187.104C397.6479999999999 186.944 397.80799999999994 186.768 397.80799999999994 186.256V183.216C397.80799999999994 182.896 397.5999999999999 182.704 397.1839999999999 182.704H390.2559999999999C389.9359999999999 182.704 389.7439999999999 182.912 389.7439999999999 183.216V185.136C389.7439999999999 185.472 389.9519999999999 185.68 390.17599999999993 185.68H391.6479999999999C391.9679999999999 185.68 392.0959999999999 185.52 392.0959999999999 185.168V184.0H396.0959999999999C396.4319999999999 184.0 396.4799999999999 184.016 396.4799999999999 184.336V185.68C396.4799999999999 186.048 396.4799999999999 185.984 396.0959999999999 186.112L392.5439999999999 187.2C392.1919999999999 187.312 392.0959999999999 187.488 392.0959999999999 187.872V191.504C392.0959999999999 191.84 392.27199999999993 192.0 392.5919999999999 192.0ZM392.31999999999994 193.264C392.31999999999994 193.776 392.7039999999999 194.192 393.2319999999999 194.192C393.7439999999999 194.192 394.1599999999999 193.776 394.1599999999999 193.264C394.1599999999999 192.752 393.7439999999999 192.336 393.2319999999999 192.336C392.7199999999999 192.336 392.31999999999994 192.752 392.31999999999994 193.264Z" fill="#6b7280"/></svg>