<svg xmlns="http://www.w3.org/2000/svg" viewBox="0 0 983.2 222.0" width="983" height="222"><path d="M70.25 58.75V53.0H35.75V58.75ZM30.0 76.0V53.0L35.75 47.25H70.25L76.0 53.0V58.75L70.25 64.5H35.75V76.0ZM78.740234375 76.0V47.25H84.490234375V76.0ZM127.48046875 58.75V53.0H92.98046875V58.75ZM87.23046875 76.0V53.0L92.98046875 47.25H127.48046875L133.23046875 53.0V58.75L127.48046875 64.5L130.35546875 70.25L133.23046875 76.0H127.48046875L124.60546875 70.25L121.73046875 64.5H92.98046875V76.0ZM176.220703125 58.75V53.0H141.720703125V58.75ZM135.970703125 76.0V53.0L141.720703125 47.25H176.220703125L181.970703125 53.0V76.0H176.220703125V64.5H141.720703125V76.0ZM184.7109375 76.0V53.0L190.4609375 47.25H224.9609375L230.7109375 53.0V76.0H224.9609375V53.0H190.4609375V76.0ZM233.451171875 76.0V47.25H239.201171875V58.75H273.701171875V47.25H279.451171875V76.0H273.701171875V64.5H239.201171875V76.0ZM322.44140625 58.75V53.0H287.94140625V58.75ZM282.19140625 76.0V53.0L287.94140625 47.25H322.44140625L328.19140625 53.0V76.0H322.44140625V64.5H287.94140625V76.0Z" fill="#12151a"/><path d="M50.125 118.375V115.5H32.875V118.375ZM30.0 127.0V115.5L32.875 112.625H50.125L53.0 115.5V118.375L50.125 121.25H32.875V127.0ZM54.3701171875 127.0V112.625H57.2451171875V127.0ZM78.740234375 118.375V115.5H61.490234375V118.375ZM58.615234375 127.0V115.5L61.490234375 112.625H78.740234375L81.615234375 115.5V118.375L78.740234375 121.25L80.177734375 124.125L81.615234375 127.0H78.740234375L77.302734375 124.125L75.865234375 121.25H61.490234375V127.0ZM103.1103515625 118.375V115.5H85.8603515625V118.375ZM82.9853515625 127.0V115.5L85.8603515625 112.625H103.1103515625L105.9853515625 115.5V127.0H103.1103515625V121.25H85.8603515625V127.0ZM107.35546875 127.0V115.5L110.23046875 112.625H127.48046875L130.35546875 115.5V127.0H127.48046875V115.5H110.23046875V127.0ZM131.7255859375 127.0V112.625H134.6005859375V118.375H151.8505859375V112.625H154.7255859375V127.0H151.8505859375V121.25H134.6005859375V127.0ZM176.220703125 118.375V115.5H158.970703125V118.375ZM156.095703125 127.0V115.5L158.970703125 112.625H176.220703125L179.095703125 115.5V127.0H176.220703125V121.25H158.970703125V127.0ZM212.0908203125 118.375V115.5H194.8408203125V118.375ZM191.9658203125 127.0V115.5L194.8408203125 112.625H212.0908203125L214.9658203125 115.5V127.0H212.0908203125V121.25H194.8408203125V127.0ZM236.4609375 124.125V115.5H219.2109375V124.125ZM216.3359375 127.0V112.625H236.4609375L239.3359375 115.5V124.125L236.4609375 127.0ZM250.7685546875 127.0 249.3310546875 125.5625 247.8935546875 124.125 246.4560546875 122.6875 245.0185546875 121.25 243.5810546875 119.8125 242.1435546875 118.375 240.7060546875 116.9375V112.625L243.5810546875 115.5L246.4560546875 118.375L249.3310546875 121.25L252.2060546875 124.125L255.0810546875 121.25L257.9560546875 118.375L260.8310546875 115.5L263.7060546875 112.625V116.9375L262.2685546875 118.375H262.24609375L260.8310546875 119.8125L259.3935546875 121.25H259.37109375L257.9560546875 122.6875L256.5185546875 124.125H256.49609375L255.0810546875 125.5625L253.6435546875 127.0ZM285.201171875 118.375V115.5H267.951171875V118.375ZM265.076171875 127.0V115.5L267.951171875 112.625H285.201171875L288.076171875 115.5V127.0H285.201171875V121.25H267.951171875V127.0ZM289.4462890625 127.0V115.5L292.3212890625 112.625H309.5712890625L312.4462890625 115.5V127.0H309.5712890625V115.5H292.3212890625V127.0ZM316.69140625 127.0 313.81640625 124.125V115.5L316.69140625 112.625H333.94140625L336.81640625 115.5H316.69140625V124.125H336.81640625L333.94140625 127.0ZM341.0615234375 127.0 338.1865234375 124.125V115.5L341.0615234375 112.625H361.1865234375V115.5H341.0615234375V118.375H361.1865234375V121.25H341.0615234375V124.125H361.1865234375V127.0ZM362.556640625 127.0V115.5L365.431640625 112.625H382.681640625L385.556640625 115.5V127.0H382.681640625V115.5H375.494140625V127.0H372.619140625V115.5H365.431640625V127.0ZM389.8017578125 127.0 386.9267578125 124.125V115.5L389.8017578125 112.625H409.9267578125V115.5H389.8017578125V118.375H409.9267578125V121.25H389.8017578125V124.125H409.9267578125V127.0ZM411.296875 127.0V115.5L414.171875 112.625H431.421875L434.296875 115.5V127.0H431.421875V115.5H414.171875V127.0ZM445.7294921875 127.0V115.5H435.6669921875V112.625H458.6669921875V115.5H448.6044921875V127.0ZM460.037109375 127.0V124.125H480.162109375V121.25H462.912109375L460.037109375 118.375V115.5L462.912109375 112.625H483.037109375V115.5H462.912109375V118.375H480.162109375L483.037109375 121.25V124.125L480.162109375 127.0ZM516.0322265625 124.125V121.25H498.7822265625V124.125ZM516.0322265625 118.375V115.5H498.7822265625V118.375ZM495.9072265625 127.0V112.625H516.0322265625L518.9072265625 115.5V124.125L516.0322265625 127.0ZM520.27734375 127.0V112.625H523.15234375V127.0ZM534.5849609375 127.0V115.5H524.5224609375V112.625H547.5224609375V115.5H537.4599609375V127.0ZM551.767578125 127.0 548.892578125 124.125V115.5L551.767578125 112.625H571.892578125V115.5H551.767578125V118.375H571.892578125V121.25H551.767578125V124.125H571.892578125V127.0ZM573.2626953125 127.0V124.125H593.3876953125V121.25H576.1376953125L573.2626953125 118.375V115.5L576.1376953125 112.625H596.2626953125V115.5H576.1376953125V118.375H593.3876953125L596.2626953125 121.25V124.125L593.3876953125 127.0ZM629.2578125 118.375V115.5H612.0078125V118.375ZM609.1328125 127.0V115.5L612.0078125 112.625H629.2578125L632.1328125 115.5V127.0H629.2578125V121.25H612.0078125V127.0ZM643.5654296875 127.0V115.5H633.5029296875V112.625H656.5029296875V115.5H646.4404296875V127.0ZM669.373046875 127.0V124.125H689.498046875V121.25H672.248046875L669.373046875 118.375V115.5L672.248046875 112.625H692.373046875V115.5H672.248046875V118.375H689.498046875L692.373046875 121.25V124.125L689.498046875 127.0ZM696.6181640625 127.0 693.7431640625 124.125V115.5L696.6181640625 112.625H716.7431640625V115.5H696.6181640625V118.375H716.7431640625V121.25H696.6181640625V124.125H716.7431640625V127.0ZM738.23828125 124.125V121.25H720.98828125V124.125ZM738.23828125 118.375V115.5H720.98828125V118.375ZM718.11328125 127.0V112.625H738.23828125L741.11328125 115.5V124.125L738.23828125 127.0ZM745.3583984375 127.0 742.4833984375 124.125V115.5L745.3583984375 112.625H765.4833984375V115.5H745.3583984375V118.375H765.4833984375V121.25H745.3583984375V124.125H765.4833984375V127.0ZM766.853515625 127.0V115.5L769.728515625 112.625H786.978515625L789.853515625 115.5V127.0H786.978515625V115.5H769.728515625V127.0ZM794.0986328125 127.0 791.2236328125 124.125V115.5L794.0986328125 112.625H811.3486328125L814.2236328125 115.5H794.0986328125V124.125H814.2236328125L811.3486328125 127.0ZM835.71875 124.125V115.5H818.46875V124.125ZM818.46875 127.0 815.59375 124.125V115.5L818.46875 112.625H835.71875L838.59375 115.5V124.125L835.71875 127.0ZM854.3388671875 127.0 851.4638671875 124.125V115.5L854.3388671875 112.625H871.5888671875L874.4638671875 115.5H854.3388671875V124.125H874.4638671875L871.5888671875 127.0ZM878.708984375 127.0 875.833984375 124.125V112.625H878.708984375V124.125H898.833984375L895.958984375 127.0ZM900.2041015625 127.0V112.625H903.0791015625V127.0ZM904.44921875 127.0V115.5L907.32421875 112.625H924.57421875L927.44921875 115.5V127.0H924.57421875V115.5H917.38671875V127.0H914.51171875V115.5H907.32421875V127.0ZM948.9443359375 124.125V121.25H931.6943359375V124.125ZM948.9443359375 118.375V115.5H931.6943359375V118.375ZM928.8193359375 127.0V112.625H948.9443359375L951.8193359375 115.5V124.125L948.9443359375 127.0Z" fill="#3a3f47"/><path d="M44.0 159.0V157.0H32.0V159.0ZM30.0 165.0V157.0L32.0 155.0H44.0L46.0 157.0V165.0H44.0V161.0H32.0V165.0ZM60.953125 163.0V161.0H48.953125V163.0ZM60.953125 159.0V157.0H48.953125V159.0ZM46.953125 165.0V155.0H60.953125L62.953125 157.0V163.0L60.953125 165.0ZM65.90625 165.0 63.90625 163.0V157.0L65.90625 155.0H77.90625L79.90625 157.0H65.90625V163.0H79.90625L77.90625 165.0ZM94.859375 163.0V157.0H82.859375V163.0ZM80.859375 165.0V155.0H94.859375L96.859375 157.0V163.0L94.859375 165.0ZM99.8125 165.0 97.8125 163.0V157.0L99.8125 155.0H113.8125V157.0H99.8125V159.0H113.8125V161.0H99.8125V163.0H113.8125V165.0ZM114.765625 165.0V157.0L116.765625 155.0H130.765625V157.0H116.765625V159.0H130.765625V161.0H116.765625V165.0ZM133.71875 165.0 131.71875 163.0V157.0L133.71875 155.0H147.71875V157.0H133.71875V163.0H145.71875V161.0H135.71875V159.0H145.71875L147.71875 161.0V163.0L145.71875 165.0ZM148.671875 165.0V155.0H150.671875V159.0H162.671875V155.0H164.671875V165.0H162.671875V161.0H150.671875V165.0ZM165.625 165.0V155.0H167.625V165.0ZM170.578125 165.0 168.578125 163.0H182.578125V155.0H184.578125V163.0L182.578125 165.0ZM185.53125 165.0V155.0H187.53125V159.0H194.53125L195.53125 158.0L196.53125 157.0L197.53125 156.0L198.53125 155.0H201.53125V157.0H199.53125L197.53125 159.0H197.515625L196.53125 160.0L197.53125 161.0L199.53125 163.0H201.53125V165.0H198.53125L197.53125 164.0L196.53125 163.0L195.53125 162.0L194.53125 161.0H187.53125V165.0ZM204.484375 165.0 202.484375 163.0V155.0H204.484375V163.0H218.484375L216.484375 165.0ZM219.4375 165.0V157.0L221.4375 155.0H233.4375L235.4375 157.0V165.0H233.4375V157.0H228.4375V165.0H226.4375V157.0H221.4375V165.0ZM236.390625 165.0V157.0L238.390625 155.0H250.390625L252.390625 157.0V165.0H250.390625V157.0H238.390625V165.0ZM267.34375 163.0V157.0H255.34375V163.0ZM255.34375 165.0 253.34375 163.0V157.0L255.34375 155.0H267.34375L269.34375 157.0V163.0L267.34375 165.0ZM284.296875 159.0V157.0H272.296875V159.0ZM270.296875 165.0V157.0L272.296875 155.0H284.296875L286.296875 157.0V159.0L284.296875 161.0H272.296875V165.0ZM301.25 163.0V157.0H289.25V163.0ZM289.25 165.0 287.25 163.0V157.0L289.25 155.0H301.25L303.25 157.0V163.0L301.25 165.0ZM318.203125 159.0V157.0H306.203125V159.0ZM304.203125 165.0V157.0L306.203125 155.0H318.203125L320.203125 157.0V159.0L318.203125 161.0L319.203125 163.0L320.203125 165.0H318.203125L317.203125 163.0L316.203125 161.0H306.203125V165.0ZM321.15625 165.0V163.0H335.15625V161.0H323.15625L321.15625 159.0V157.0L323.15625 155.0H337.15625V157.0H323.15625V159.0H335.15625L337.15625 161.0V163.0L335.15625 165.0ZM345.109375 165.0V157.0H338.109375V155.0H354.109375V157.0H347.109375V165.0ZM357.0625 165.0 355.0625 163.0V155.0H357.0625V163.0H369.0625V155.0H371.0625V163.0L369.0625 165.0ZM379.015625 165.0 378.015625 164.0 377.015625 163.0 376.015625 162.0 375.015625 161.0 374.015625 160.0 373.015625 159.0 372.015625 158.0V155.0L374.015625 157.0L376.015625 159.0L378.015625 161.0L380.015625 163.0L382.015625 161.0L384.015625 159.0L386.015625 157.0L388.015625 155.0V158.0L387.015625 159.0H387.0L386.015625 160.0L385.015625 161.0H385.0L384.015625 162.0L383.015625 163.0H383.0L382.015625 164.0L381.015625 165.0ZM390.96875 165.0 388.96875 163.0V155.0H390.96875V163.0H395.96875V155.0H397.96875V163.0H402.96875V155.0H404.96875V163.0L402.96875 165.0ZM405.921875 165.0V163.0H407.921875L409.921875 161.0L410.921875 160.0L409.921875 159.015625V159.0L407.921875 157.0H405.921875V155.0H408.921875L409.921875 156.0V156.015625L410.921875 157.0L411.921875 158.0V158.015625L412.921875 159.0H414.921875L415.921875 158.0L416.921875 157.0L417.921875 156.0L418.921875 155.0H421.921875V157.0H419.921875L417.921875 159.0H417.90625L416.921875 160.0L417.921875 161.0L419.921875 163.0H421.921875V165.0H418.921875L417.921875 164.0L416.921875 163.0L415.921875 162.0L414.921875 161.0H412.90625L411.921875 162.0L410.921875 163.0H410.90625L409.921875 164.0L408.921875 165.0ZM429.875 165.0V161.0L428.875 160.0L427.875 159.0L426.875 158.0L425.875 157.0H422.875V155.0H426.875L428.875 157.0L430.875 159.0L432.875 157.0L434.875 155.0H438.875V157.0H435.859375L434.875 158.0L433.875 159.0H433.859375L432.875 160.0L431.875 161.0V165.0ZM439.828125 165.0V163.0L441.828125 162.0L443.828125 161.0L445.828125 160.0L447.828125 159.0L449.828125 158.0L451.828125 157.0H439.828125V155.0H455.828125V157.0L453.828125 158.0L451.828125 159.0L449.828125 160.0L447.828125 161.0L445.828125 162.0L443.828125 163.0H455.828125V165.0Z" fill="#6b7280"/><path d="M44.0 188.0V186.0H32.0V188.0ZM30.0 194.0V186.0L32.0 184.0H44.0L46.0 186.0V194.0H44.0V190.0H32.0V194.0ZM60.953125 192.0V190.0H48.953125V192.0ZM60.953125 188.0V186.0H48.953125V188.0ZM46.953125 194.0V184.0H60.953125L62.953125 186.0V192.0L60.953125 194.0ZM65.90625 194.0 63.90625 192.0V186.0L65.90625 184.0H77.90625L79.90625 186.0H65.90625V192.0H79.90625L77.90625 194.0ZM94.859375 192.0V186.0H82.859375V192.0ZM80.859375 194.0V184.0H94.859375L96.859375 186.0V192.0L94.859375 194.0ZM99.8125 194.0 97.8125 192.0V186.0L99.8125 184.0H113.8125V186.0H99.8125V188.0H113.8125V190.0H99.8125V192.0H113.8125V194.0ZM114.765625 194.0V186.0L116.765625 184.0H130.765625V186.0H116.765625V188.0H130.765625V190.0H116.765625V194.0ZM133.71875 194.0 131.71875 192.0V186.0L133.71875 184.0H147.71875V186.0H133.71875V192.0H145.71875V190.0H135.71875V188.0H145.71875L147.71875 190.0V192.0L145.71875 194.0ZM148.671875 194.0V184.0H150.671875V188.0H162.671875V184.0H164.671875V194.0H162.671875V190.0H150.671875V194.0ZM165.625 194.0V184.0H167.625V194.0ZM170.578125 194.0 168.578125 192.0H182.578125V184.0H184.578125V192.0L182.578125 194.0ZM185.53125 194.0V184.0H187.53125V188.0H194.53125L195.53125 187.0L196.53125 186.0L197.53125 185.0L198.53125 184.0H201.53125V186.0H199.53125L197.53125 188.0H197.515625L196.53125 189.0L197.53125 190.0L199.53125 192.0H201.53125V194.0H198.53125L197.53125 193.0L196.53125 192.0L195.53125 191.0L194.53125 190.0H187.53125V194.0ZM204.484375 194.0 202.484375 192.0V184.0H204.484375V192.0H218.484375L216.484375 194.0ZM219.4375 194.0V186.0L221.4375 184.0H233.4375L235.4375 186.0V194.0H233.4375V186.0H228.4375V194.0H226.4375V186.0H221.4375V194.0ZM236.390625 194.0V186.0L238.390625 184.0H250.390625L252.390625 186.0V194.0H250.390625V186.0H238.390625V194.0ZM267.34375 192.0V186.0H255.34375V192.0ZM255.34375 194.0 253.34375 192.0V186.0L255.34375 184.0H267.34375L269.34375 186.0V192.0L267.34375 194.0ZM284.296875 188.0V186.0H272.296875V188.0ZM270.296875 194.0V186.0L272.296875 184.0H284.296875L286.296875 186.0V188.0L284.296875 190.0H272.296875V194.0ZM301.25 192.0V186.0H289.25V192.0ZM289.25 194.0 287.25 192.0V186.0L289.25 184.0H301.25L303.25 186.0V192.0L301.25 194.0ZM318.203125 188.0V186.0H306.203125V188.0ZM304.203125 194.0V186.0L306.203125 184.0H318.203125L320.203125 186.0V188.0L318.203125 190.0L319.203125 192.0L320.203125 194.0H318.203125L317.203125 192.0L316.203125 190.0H306.203125V194.0ZM321.15625 194.0V192.0H335.15625V190.0H323.15625L321.15625 188.0V186.0L323.15625 184.0H337.15625V186.0H323.15625V188.0H335.15625L337.15625 190.0V192.0L335.15625 194.0ZM345.109375 194.0V186.0H338.109375V184.0H354.109375V186.0H347.109375V194.0ZM357.0625 194.0 355.0625 192.0V184.0H357.0625V192.0H369.0625V184.0H371.0625V192.0L369.0625 194.0ZM379.015625 194.0 378.015625 193.0 377.015625 192.0 376.015625 191.0 375.015625 190.0 374.015625 189.0 373.015625 188.0 372.015625 187.0V184.0L374.015625 186.0L376.015625 188.0L378.015625 190.0L380.015625 192.0L382.015625 190.0L384.015625 188.0L386.015625 186.0L388.015625 184.0V187.0L387.015625 188.0H387.0L386.015625 189.0L385.015625 190.0H385.0L384.015625 191.0L383.015625 192.0H383.0L382.015625 193.0L381.015625 194.0ZM390.96875 194.0 388.96875 192.0V184.0H390.96875V192.0H395.96875V184.0H397.96875V192.0H402.96875V184.0H404.96875V192.0L402.96875 194.0ZM405.921875 194.0V192.0H407.921875L409.921875 190.0L410.921875 189.0L409.921875 188.015625V188.0L407.921875 186.0H405.921875V184.0H408.921875L409.921875 185.0V185.015625L410.921875 186.0L411.921875 187.0V187.015625L412.921875 188.0H414.921875L415.921875 187.0L416.921875 186.0L417.921875 185.0L418.921875 184.0H421.921875V186.0H419.921875L417.921875 188.0H417.90625L416.921875 189.0L417.921875 190.0L419.921875 192.0H421.921875V194.0H418.921875L417.921875 193.0L416.921875 192.0L415.921875 191.0L414.921875 190.0H412.90625L411.921875 191.0L410.921875 192.0H410.90625L409.921875 193.0L408.921875 194.0ZM429.875 194.0V190.0L428.875 189.0L427.875 188.0L426.875 187.0L425.875 186.0H422.875V184.0H426.875L428.875 186.0L430.875 188.0L432.875 186.0L434.875 184.0H438.875V186.0H435.859375L434.875 187.0L433.875 188.0H433.859375L432.875 189.0L431.875 190.0V194.0ZM439.828125 194.0V192.0L441.828125 191.0L443.828125 190.0L445.828125 189.0L447.828125 188.0L449.828125 187.0L451.828125 186.0H439.828125V184.0H455.828125V186.0L453.828125 187.0L451.828125 188.0L449.828125 189.0L447.828125 190.0L445.828125 191.0L443.828125 192.0H455.828125V194.0Z" fill="#6b7280"/></svg>