<svg xmlns="http://www.w3.org/2000/svg" viewBox="0 0 423.7 222.0" width="424" height="222"><path d="M42.9375 70.25 44.375 68.8125V57.3125L42.9375 55.875H37.1875L35.75 57.3125V68.8125L37.1875 70.25ZM34.3125 76.0 32.875 74.5625 31.4375 73.125 30.0 71.6875V54.4375L31.4375 53.0L32.875 51.5625L34.3125 50.125H45.8125L47.25 51.5625L48.6875 53.0L50.125 54.4375V70.25H53.0V76.0ZM54.4375 76.0V50.125H60.1875V76.0ZM61.625 76.0V50.125H81.75V55.875H67.375V76.0ZM83.1875 76.0V50.125H103.3125V55.875H88.9375V60.1875H103.3125V65.9375H88.9375V70.25H103.3125V76.0ZM104.75 76.0V70.25H109.0625L109.78125 68.8125L110.5 67.375L111.21875 65.9375L111.9375 64.5L112.65625 63.0625L111.9375 61.625L111.21875 60.1875L110.5 58.75L109.78125 57.3125L109.0625 55.875H104.75V50.125H114.09375L114.8125 51.5625L115.53125 53.0L116.25 54.4375L116.96875 55.875L117.6875 57.3125L118.40625 58.75L119.125 60.1875H120.5625V50.125H126.3125V60.1875H127.75L128.46875 58.75L129.1875 57.3125L129.90625 55.875L130.625 54.4375L131.34375 53.0L132.0625 51.5625L132.78125 50.125H142.125V55.875H137.8125L137.09375 57.3125L136.375 58.75L135.65625 60.1875L134.9375 61.625L134.21875 63.0625L134.9375 64.5L135.65625 65.9375L136.375 67.375L137.09375 68.8125L137.8125 70.25H142.125V76.0H132.78125L132.0625 74.5625L131.34375 73.125L130.625 71.6875L129.90625 70.25L129.1875 68.8125L128.46875 67.375L127.75 65.9375H126.3125V76.0H120.5625V65.9375H119.125L118.40625 67.375L117.6875 68.8125L116.96875 70.25L116.25 71.6875L115.53125 73.125L114.8125 74.5625L114.09375 76.0Z" fill="#12151a"/><path d="M36.46875 124.125 37.1875 123.40625V117.65625L36.46875 116.9375H33.59375L32.875 117.65625V123.40625L33.59375 124.125ZM32.15625 127.0 31.4375 126.28125 30.71875 125.5625 30.0 124.84375V116.21875L30.71875 115.5L31.4375 114.78125L32.15625 114.0625H37.90625L38.625 114.78125L39.34375 115.5L40.0625 116.21875V124.125H41.5V127.0ZM42.21875 127.0V114.0625H45.09375V127.0ZM45.8125 127.0V114.0625H55.875V116.9375H48.6875V127.0ZM56.59375 127.0V114.0625H66.65625V116.9375H59.46875V119.09375H66.65625V121.96875H59.46875V124.125H66.65625V127.0ZM67.375 127.0V124.125H69.53125L69.890625 123.40625L70.25 122.6875L70.609375 121.96875L70.96875 121.25L71.328125 120.53125L70.96875 119.8125L70.609375 119.09375L70.25 118.375L69.890625 117.65625L69.53125 116.9375H67.375V114.0625H72.046875L72.40625 114.78125L72.765625 115.5L73.125 116.21875L73.484375 116.9375L73.84375 117.65625L74.203125 118.375L74.5625 119.09375H75.28125V114.0625H78.15625V119.09375H78.875L79.234375 118.375L79.59375 117.65625L79.953125 116.9375L80.3125 116.21875L80.671875 115.5L81.03125 114.78125L81.390625 114.0625H86.0625V116.9375H83.90625L83.546875 117.65625L83.1875 118.375L82.828125 119.09375L82.46875 119.8125L82.109375 120.53125L82.46875 121.25L82.828125 121.96875L83.1875 122.6875L83.546875 123.40625L83.90625 124.125H86.0625V127.0H81.390625L81.03125 126.28125L80.671875 125.5625L80.3125 124.84375L79.953125 124.125L79.59375 123.40625L79.234375 122.6875L78.875 121.96875H78.15625V127.0H75.28125V121.96875H74.5625L74.203125 122.6875L73.84375 123.40625L73.484375 124.125L73.125 124.84375L72.765625 125.5625L72.40625 126.28125L72.046875 127.0ZM86.78125 127.0V114.0625H96.84375V116.9375H89.65625V127.0ZM104.03125 124.125 104.75 123.40625V117.65625L104.03125 116.9375H100.4375V124.125ZM97.5625 127.0V114.0625H105.46875L106.1875 114.78125L106.90625 115.5L107.625 116.21875V124.84375L106.90625 125.5625L106.1875 126.28125L105.46875 127.0ZM113.375 127.0V114.0625H123.4375V116.9375H116.25V124.125H123.4375V127.0ZM124.15625 127.0V114.0625H127.03125V119.09375H131.34375V114.0625H134.21875V127.0H131.34375V121.96875H127.03125V127.0ZM142.125 119.09375V116.9375H137.8125V119.09375ZM134.9375 127.0V114.0625H145.0V127.0H142.125V121.96875H137.8125V127.0ZM145.71875 127.0V124.125H152.1875L152.90625 123.40625V121.96875H145.71875V116.21875L146.4375 115.5L147.15625 114.78125L147.875 114.0625H155.78125V116.9375H149.3125L148.59375 117.65625V119.09375H155.78125V124.125L155.0625 124.84375L154.34375 125.5625L153.625 126.28125L152.90625 127.0ZM156.5 127.0V114.0625H166.5625V116.9375H159.375V119.09375H166.5625V121.96875H159.375V124.125H166.5625V127.0ZM167.28125 127.0V124.125H173.75L174.46875 123.40625V121.96875H167.28125V116.21875L168.0 115.5L168.71875 114.78125L169.4375 114.0625H177.34375V116.9375H170.875L170.15625 117.65625V119.09375H177.34375V124.125L176.625 124.84375L175.90625 125.5625L175.1875 126.28125L174.46875 127.0ZM186.6875 127.0V116.9375H183.09375V114.0625H193.15625V116.9375H189.5625V127.0ZM193.875 127.0V114.0625H196.75V119.09375H201.0625V114.0625H203.9375V127.0H201.0625V121.96875H196.75V127.0ZM204.65625 127.0V114.0625H214.71875V116.9375H207.53125V119.09375H214.71875V121.96875H207.53125V124.125H214.71875V127.0ZM226.9375 119.09375 227.65625 118.375V116.9375H223.34375V119.09375ZM220.46875 127.0V114.0625H230.53125V119.09375L229.8125 119.8125L229.09375 120.53125L228.375 121.25L227.65625 121.96875H223.34375V127.0ZM237.71875 124.125 238.4375 123.40625V117.65625L237.71875 116.9375H234.84375L234.125 117.65625V123.40625L234.84375 124.125ZM233.40625 127.0 232.6875 126.28125 231.96875 125.5625 231.25 124.84375V116.21875L231.96875 115.5L232.6875 114.78125L233.40625 114.0625H239.15625L239.875 114.78125L240.59375 115.5L241.3125 116.21875V124.84375L240.59375 125.5625L239.875 126.28125L239.15625 127.0ZM248.5 124.125 249.21875 123.40625V117.65625L248.5 116.9375H244.90625V124.125ZM242.03125 127.0V114.0625H249.9375L250.65625 114.78125L251.375 115.5L252.09375 116.21875V124.84375L251.375 125.5625L250.65625 126.28125L249.9375 127.0ZM252.8125 127.0V114.0625H255.6875V127.0ZM258.5625 127.0 257.84375 126.28125 257.125 125.5625 256.40625 124.84375V114.0625H259.28125V123.40625L260.0 124.125H262.875L263.59375 123.40625V114.0625H266.46875V124.84375L265.75 125.5625L265.03125 126.28125L264.3125 127.0ZM267.1875 127.0V114.0625H274.375L275.09375 114.78125L275.8125 115.5L276.53125 116.21875L277.25 116.9375V127.0H274.375V117.65625L273.65625 116.9375V121.96875H270.78125V116.9375H270.0625V127.0ZM289.46875 124.125 290.1875 123.40625V117.65625L289.46875 116.9375H286.59375L285.875 117.65625V123.40625L286.59375 124.125ZM285.15625 127.0 284.4375 126.28125 283.71875 125.5625 283.0 124.84375V116.21875L283.71875 115.5L284.4375 114.78125L285.15625 114.0625H290.90625L291.625 114.78125L292.34375 115.5L293.0625 116.21875V124.84375L292.34375 125.5625L291.625 126.28125L290.90625 127.0ZM293.78125 127.0V114.0625H300.96875L301.6875 114.78125L302.40625 115.5L303.125 116.21875L303.84375 116.9375V127.0H300.96875V117.65625L300.25 116.9375H296.65625V127.0ZM309.59375 127.0V114.0625H319.65625V116.9375H312.46875V124.125H319.65625V127.0ZM326.84375 124.125 327.5625 123.40625V117.65625L326.84375 116.9375H323.96875L323.25 117.65625V123.40625L323.96875 124.125ZM322.53125 127.0 321.8125 126.28125 321.09375 125.5625 320.375 124.84375V116.21875L321.09375 115.5L321.8125 114.78125L322.53125 114.0625H328.28125L329.0 114.78125L329.71875 115.5L330.4375 116.21875V124.84375L329.71875 125.5625L329.0 126.28125L328.28125 127.0ZM331.15625 127.0V114.0625H341.21875V116.9375H334.03125V127.0ZM341.9375 127.0V114.0625H352.0V116.9375H344.8125V127.0ZM352.71875 127.0V114.0625H355.59375V127.0ZM362.78125 124.125 363.5 123.40625V117.65625L362.78125 116.9375H359.1875V124.125ZM356.3125 127.0V114.0625H364.21875L364.9375 114.78125L365.65625 115.5L366.375 116.21875V124.84375L365.65625 125.5625L364.9375 126.28125L364.21875 127.0ZM373.5625 124.125 374.28125 123.40625V117.65625L373.5625 116.9375H370.6875L369.96875 117.65625V123.40625L370.6875 124.125ZM369.25 127.0 368.53125 126.28125 367.8125 125.5625 367.09375 124.84375V116.21875L367.8125 115.5L368.53125 114.78125L369.25 114.0625H375.0L375.71875 114.78125L376.4375 115.5L377.15625 116.21875V124.84375L376.4375 125.5625L375.71875 126.28125L375.0 127.0ZM377.875 127.0V114.0625H385.0625L385.78125 114.78125L386.5 115.5L387.21875 116.21875L387.9375 116.9375V127.0H385.0625V117.65625L384.34375 116.9375H380.75V127.0Z" fill="#3a3f47"/><path d="M35.0 159.5V158.0H32.0V159.5ZM30.0 165.0V156.0H37.0V165.0H35.0V161.5H32.0V165.0ZM42.0 163.0 42.5 162.5V161.5H39.5V163.0ZM42.5 159.5V158.5L42.0 158.0H39.5V159.5ZM37.5 165.0V156.0H42.5L43.0 156.5L43.5 157.0L44.0 157.5L44.5 158.0V163.0L44.0 163.5L43.5 164.0L43.0 164.5L42.5 165.0ZM45.0 165.0V156.0H52.0V158.0H47.0V163.0H52.0V165.0ZM57.0 163.0 57.5 162.5V158.5L57.0 158.0H54.5V163.0ZM52.5 165.0V156.0H58.0L58.5 156.5L59.0 157.0L59.5 157.5V163.5L59.0 164.0L58.5 164.5L58.0 165.0ZM60.0 165.0V156.0H67.0V158.0H62.0V159.5H67.0V161.5H62.0V163.0H67.0V165.0ZM67.5 165.0V156.0H74.5V158.0H69.5V159.5H74.5V161.5H69.5V165.0ZM76.5 165.0 76.0 164.5 75.5 164.0 75.0 163.5V157.5L75.5 157.0L76.0 156.5L76.5 156.0H82.0V158.0H77.5L77.0 158.5V162.5L77.5 163.0H80.0V161.5H78.5V159.5H82.0V165.0ZM82.5 165.0V156.0H84.5V159.5H87.5V156.0H89.5V165.0H87.5V161.5H84.5V165.0ZM90.0 165.0V156.0H92.0V165.0ZM92.5 165.0V163.0H97.5V156.0H99.5V165.0ZM100.0 165.0V156.0H102.0V159.5H103.0L103.25 159.0L103.5 158.5L103.75 158.0L104.0 157.5L104.25 157.0L104.5 156.5L104.75 156.0H107.0V158.0H106.5L106.25 158.5L106.0 159.0L105.75 159.5L105.5 160.0L105.25 160.5L105.5 161.0L105.75 161.5L106.0 162.0L106.25 162.5L106.5 163.0H107.0V165.0H104.75L104.5 164.5L104.25 164.0L104.0 163.5L103.75 163.0L103.5 162.5L103.25 162.0L103.0 161.5H102.0V165.0ZM107.5 165.0V156.0H109.5V163.0H114.5V165.0ZM115.0 165.0V156.0H120.0L120.5 156.5L121.0 157.0L121.5 157.5L122.0 158.0V165.0H120.0V158.5L119.5 158.0V161.5H117.5V158.0H117.0V165.0ZM122.5 165.0V156.0H127.5L128.0 156.5L128.5 157.0L129.0 157.5L129.5 158.0V165.0H127.5V158.5L127.0 158.0H124.5V165.0ZM134.5 163.0 135.0 162.5V158.5L134.5 158.0H132.5L132.0 158.5V162.5L132.5 163.0ZM131.5 165.0 131.0 164.5 130.5 164.0 130.0 163.5V157.5L130.5 157.0L131.0 156.5L131.5 156.0H135.5L136.0 156.5L136.5 157.0L137.0 157.5V163.5L136.5 164.0L136.0 164.5L135.5 165.0ZM142.0 159.5 142.5 159.0V158.0H139.5V159.5ZM137.5 165.0V156.0H144.5V159.5L144.0 160.0L143.5 160.5L143.0 161.0L142.5 161.5H139.5V165.0ZM149.5 163.0 150.0 162.5V158.5L149.5 158.0H147.5L147.0 158.5V162.5L147.5 163.0ZM146.5 165.0 146.0 164.5 145.5 164.0 145.0 163.5V157.5L145.5 157.0L146.0 156.5L146.5 156.0H150.5L151.0 156.5L151.5 157.0L152.0 157.5V163.0H153.0V165.0ZM153.5 165.0V156.0H160.5V158.0H155.5V165.0ZM161.0 165.0V163.0H165.5L166.0 162.5V161.5H161.0V157.5L161.5 157.0L162.0 156.5L162.5 156.0H168.0V158.0H163.5L163.0 158.5V159.5H168.0V163.0L167.5 163.5L167.0 164.0L166.5 164.5L166.0 165.0ZM171.0 165.0V158.0H168.5V156.0H175.5V158.0H173.0V165.0ZM177.5 165.0 177.0 164.5 176.5 164.0 176.0 163.5V156.0H178.0V162.5L178.5 163.0H180.5L181.0 162.5V156.0H183.0V163.5L182.5 164.0L182.0 164.5L181.5 165.0ZM185.75 165.0 185.5 164.5 185.25 164.0 185.0 163.5 184.75 163.0 184.5 162.5 184.25 162.0 184.0 161.5 183.75 161.0 183.5 160.5V156.0H185.5V160.0L185.75 160.5L186.0 161.0L186.25 161.5L186.5 162.0L186.75 162.5L187.0 163.0L187.25 162.5L187.5 162.0L187.75 161.5L188.0 161.0L188.25 160.5L188.5 160.0V156.0H190.5V160.5L190.25 161.0L190.0 161.5L189.75 162.0L189.5 162.5L189.25 163.0L189.0 163.5L188.75 164.0L188.5 164.5L188.25 165.0ZM191.0 165.0V156.0H193.0V163.0H193.5V159.5H195.5V163.0L196.0 162.5V156.0H198.0V163.0L197.5 163.5L197.0 164.0L196.5 164.5L196.0 165.0ZM198.5 165.0V163.0H200.0L200.25 162.5L200.5 162.0L200.75 161.5L201.0 161.0L201.25 160.5L201.0 160.0L200.75 159.5L200.5 159.0L200.25 158.5L200.0 158.0H198.5V156.0H201.75L202.0 156.5L202.25 157.0L202.5 157.5L202.75 158.0L203.0 158.5L203.25 159.0L203.5 159.5H204.0V156.0H206.0V159.5H206.5L206.75 159.0L207.0 158.5L207.25 158.0L207.5 157.5L207.75 157.0L208.0 156.5L208.25 156.0H211.5V158.0H210.0L209.75 158.5L209.5 159.0L209.25 159.5L209.0 160.0L208.75 160.5L209.0 161.0L209.25 161.5L209.5 162.0L209.75 162.5L210.0 163.0H211.5V165.0H208.25L208.0 164.5L207.75 164.0L207.5 163.5L207.25 163.0L207.0 162.5L206.75 162.0L206.5 161.5H206.0V165.0H204.0V161.5H203.5L203.25 162.0L203.0 162.5L202.75 163.0L202.5 163.5L202.25 164.0L202.0 164.5L201.75 165.0ZM214.5 165.0V161.5H212.0V156.0H214.0V159.5H217.0V156.0H219.0V161.5H216.5V165.0ZM222.0 165.0V158.0H219.5V156.0H224.0V163.0H226.5V165.0Z" fill="#6b7280"/><path d="M35.0 188.5V187.0H32.0V188.5ZM30.0 194.0V185.0H37.0V194.0H35.0V190.5H32.0V194.0ZM42.0 192.0 42.5 191.5V190.5H39.5V192.0ZM42.5 188.5V187.5L42.0 187.0H39.5V188.5ZM37.5 194.0V185.0H42.5L43.0 185.5L43.5 186.0L44.0 186.5L44.5 187.0V192.0L44.0 192.5L43.5 193.0L43.0 193.5L42.5 194.0ZM45.0 194.0V185.0H52.0V187.0H47.0V192.0H52.0V194.0ZM57.0 192.0 57.5 191.5V187.5L57.0 187.0H54.5V192.0ZM52.5 194.0V185.0H58.0L58.5 185.5L59.0 186.0L59.5 186.5V192.5L59.0 193.0L58.5 193.5L58.0 194.0ZM60.0 194.0V185.0H67.0V187.0H62.0V188.5H67.0V190.5H62.0V192.0H67.0V194.0ZM67.5 194.0V185.0H74.5V187.0H69.5V188.5H74.5V190.5H69.5V194.0ZM76.5 194.0 76.0 193.5 75.5 193.0 75.0 192.5V186.5L75.5 186.0L76.0 185.5L76.5 185.0H82.0V187.0H77.5L77.0 187.5V191.5L77.5 192.0H80.0V190.5H78.5V188.5H82.0V194.0ZM82.5 194.0V185.0H84.5V188.5H87.5V185.0H89.5V194.0H87.5V190.5H84.5V194.0ZM90.0 194.0V185.0H92.0V194.0ZM92.5 194.0V192.0H97.5V185.0H99.5V194.0ZM100.0 194.0V185.0H102.0V188.5H103.0L103.25 188.0L103.5 187.5L103.75 187.0L104.0 186.5L104.25 186.0L104.5 185.5L104.75 185.0H107.0V187.0H106.5L106.25 187.5L106.0 188.0L105.75 188.5L105.5 189.0L105.25 189.5L105.5 190.0L105.75 190.5L106.0 191.0L106.25 191.5L106.5 192.0H107.0V194.0H104.75L104.5 193.5L104.25 193.0L104.0 192.5L103.75 192.0L103.5 191.5L103.25 191.0L103.0 190.5H102.0V194.0ZM107.5 194.0V185.0H109.5V192.0H114.5V194.0ZM115.0 194.0V185.0H120.0L120.5 185.5L121.0 186.0L121.5 186.5L122.0 187.0V194.0H120.0V187.5L119.5 187.0V190.5H117.5V187.0H117.0V194.0ZM122.5 194.0V185.0H127.5L128.0 185.5L128.5 186.0L129.0 186.5L129.5 187.0V194.0H127.5V187.5L127.0 187.0H124.5V194.0ZM134.5 192.0 135.0 191.5V187.5L134.5 187.0H132.5L132.0 187.5V191.5L132.5 192.0ZM131.5 194.0 131.0 193.5 130.5 193.0 130.0 192.5V186.5L130.5 186.0L131.0 185.5L131.5 185.0H135.5L136.0 185.5L136.5 186.0L137.0 186.5V192.5L136.5 193.0L136.0 193.5L135.5 194.0ZM142.0 188.5 142.5 188.0V187.0H139.5V188.5ZM137.5 194.0V185.0H144.5V188.5L144.0 189.0L143.5 189.5L143.0 190.0L142.5 190.5H139.5V194.0ZM149.5 192.0 150.0 191.5V187.5L149.5 187.0H147.5L147.0 187.5V191.5L147.5 192.0ZM146.5 194.0 146.0 193.5 145.5 193.0 145.0 192.5V186.5L145.5 186.0L146.0 185.5L146.5 185.0H150.5L151.0 185.5L151.5 186.0L152.0 186.5V192.0H153.0V194.0ZM153.5 194.0V185.0H160.5V187.0H155.5V194.0ZM161.0 194.0V192.0H165.5L166.0 191.5V190.5H161.0V186.5L161.5 186.0L162.0 185.5L162.5 185.0H168.0V187.0H163.5L163.0 187.5V188.5H168.0V192.0L167.5 192.5L167.0 193.0L166.5 193.5L166.0 194.0ZM171.0 194.0V187.0H168.5V185.0H175.5V187.0H173.0V194.0ZM177.5 194.0 177.0 193.5 176.5 193.0 176.0 192.5V185.0H178.0V191.5L178.5 192.0H180.5L181.0 191.5V185.0H183.0V192.5L182.5 193.0L182.0 193.5L181.5 194.0ZM185.75 194.0 185.5 193.5 185.25 193.0 185.0 192.5 184.75 192.0 184.5 191.5 184.25 191.0 184.0 190.5 183.75 190.0 183.5 189.5V185.0H185.5V189.0L185.75 189.5L186.0 190.0L186.25 190.5L186.5 191.0L186.75 191.5L187.0 192.0L187.25 191.5L187.5 191.0L187.75 190.5L188.0 190.0L188.25 189.5L188.5 189.0V185.0H190.5V189.5L190.25 190.0L190.0 190.5L189.75 191.0L189.5 191.5L189.25 192.0L189.0 192.5L188.75 193.0L188.5 193.5L188.25 194.0ZM191.0 194.0V185.0H193.0V192.0H193.5V188.5H195.5V192.0L196.0 191.5V185.0H198.0V192.0L197.5 192.5L197.0 193.0L196.5 193.5L196.0 194.0ZM198.5 194.0V192.0H200.0L200.25 191.5L200.5 191.0L200.75 190.5L201.0 190.0L201.25 189.5L201.0 189.0L200.75 188.5L200.5 188.0L200.25 187.5L200.0 187.0H198.5V185.0H201.75L202.0 185.5L202.25 186.0L202.5 186.5L202.75 187.0L203.0 187.5L203.25 188.0L203.5 188.5H204.0V185.0H206.0V188.5H206.5L206.75 188.0L207.0 187.5L207.25 187.0L207.5 186.5L207.75 186.0L208.0 185.5L208.25 185.0H211.5V187.0H210.0L209.75 187.5L209.5 188.0L209.25 188.5L209.0 189.0L208.75 189.5L209.0 190.0L209.25 190.5L209.5 191.0L209.75 191.5L210.0 192.0H211.5V194.0H208.25L208.0 193.5L207.75 193.0L207.5 192.5L207.25 192.0L207.0 191.5L206.75 191.0L206.5 190.5H206.0V194.0H204.0V190.5H203.5L203.25 191.0L203.0 191.5L202.75 192.0L202.5 192.5L202.25 193.0L202.0 193.5L201.75 194.0ZM214.5 194.0V190.5H212.0V185.0H214.0V188.5H217.0V185.0H219.0V190.5H216.5V194.0ZM222.0 194.0V187.0H219.5V185.0H224.0V192.0H226.5V194.0Z" fill="#6b7280"/></svg>