<svg xmlns="http://www.w3.org/2000/svg" viewBox="0 0 513.2 222.0" width="513" height="222"><path d="M57.462 39.2 56.128 44.996H53.828V39.2ZM53.322 39.2 51.988 44.996H49.688V39.2ZM57.462 65.374Q57.462 71.124 54.977999999999994 73.654Q52.632 76.0 47.664 76.0H39.798Q34.83 76.0 32.53 73.654Q30.0 71.124 30.0 65.374H37.728Q37.728 70.204 42.42 70.204H45.042Q49.733999999999995 70.204 49.733999999999995 65.374Q49.733999999999995 60.498000000000005 45.042 60.498000000000005H39.798Q34.83 60.498000000000005 32.484 58.152Q30.0 55.622 30.0 49.872H37.728Q37.728 54.702 42.42 54.702H47.664Q52.632 54.702 54.977999999999994 57.048Q57.462 59.578 57.462 65.374ZM67.49 42.328Q67.49 45.456 64.45400000000001 45.456H62.798Q59.762 45.456 59.762 42.328Q59.762 39.2 62.798 39.2H64.45400000000001Q67.49 39.2 67.49 42.328ZM72.182 76.0H69.56Q64.638 76.0 62.292 73.608Q59.808 71.078 59.762 65.374V54.702H67.49V65.374Q67.536 70.204 72.182 70.204ZM98.356 70.204 97.02199999999999 76.0H94.722V70.204ZM94.216 70.204 92.882 76.0H90.582V70.204ZM89.524 76.0H84.28Q79.358 76.0 77.012 73.654Q74.528 71.124 74.482 65.466V49.826H82.21V65.466Q82.348 70.204 86.902 70.204H89.524ZM121.95400000000001 66.248Q121.95400000000001 71.216 119.608 73.516Q117.078 76.0 111.328 76.0Q105.578 76.0 103.048 73.516Q100.656 71.216 100.656 66.248V61.004H106.45200000000001V63.58Q106.45200000000001 68.272 111.328 68.272Q116.158 68.272 116.158 63.58V61.004H121.95400000000001ZM143.988 39.2 142.654 44.996H140.354V39.2ZM139.296 76.0H134.052Q129.084 76.0 126.738 73.654Q124.254 71.124 124.254 65.374Q124.254 60.13 126.278 57.6Q124.254 55.07 124.254 49.872Q124.254 44.076 126.738 41.546Q129.084 39.2 134.052 39.2H139.296V44.996H136.674Q131.982 44.996 131.982 49.872Q131.982 54.702 136.674 54.702V60.498000000000005Q131.982 60.498000000000005 131.982 65.374Q131.982 70.204 136.674 70.204H139.296ZM163.44600000000003 54.702 162.11200000000002 60.498000000000005H159.812V54.702ZM158.708 60.498000000000005Q154.062 60.498000000000005 154.01600000000002 65.328V76.0H146.288V65.328Q146.334 59.623999999999995 148.818 57.048Q151.16400000000002 54.702 156.086 54.702H158.708ZM193.208 39.2 191.87400000000002 44.996H189.574V39.2ZM189.068 39.2 187.734 44.996H185.434V39.2ZM193.208 65.374Q193.208 71.124 190.72400000000002 73.654Q188.37800000000001 76.0 183.41000000000003 76.0H175.544Q170.57600000000002 76.0 168.276 73.654Q165.746 71.124 165.746 65.374H173.47400000000002Q173.47400000000002 70.204 178.166 70.204H180.788Q185.48000000000002 70.204 185.48000000000002 65.374Q185.48000000000002 60.498000000000005 180.788 60.498000000000005H175.544Q170.57600000000002 60.498000000000005 168.23000000000002 58.152Q165.746 55.622 165.746 49.872H173.47400000000002Q173.47400000000002 54.702 178.166 54.702H183.41000000000003Q188.37800000000001 54.702 190.72400000000002 57.048Q193.208 59.578 193.208 65.374ZM222.97 39.2 221.63600000000002 44.996H219.336V39.2ZM218.83 39.2 217.496 44.996H215.196V39.2ZM222.97 65.374Q222.97 71.124 220.44 73.654Q218.14000000000001 76.0 213.17200000000003 76.0H205.306Q200.33800000000002 76.0 197.99200000000002 73.654Q195.508 71.124 195.508 65.374Q195.508 60.13 197.532 57.6Q195.508 55.024 195.508 49.872H203.23600000000002Q203.23600000000002 54.702 207.928 54.702H210.55V60.498000000000005H207.928Q203.23600000000002 60.498000000000005 203.23600000000002 65.374Q203.23600000000002 70.204 207.928 70.204H210.55Q215.196 70.204 215.24200000000002 65.374ZM242.428 54.702 241.09400000000002 60.498000000000005H238.794V54.702ZM237.69 60.498000000000005Q233.044 60.498000000000005 232.99800000000002 65.328V76.0H225.27V65.328Q225.316 59.623999999999995 227.8 57.048Q230.14600000000002 54.702 235.068 54.702H237.69ZM264.462 39.2 263.128 44.996H260.82800000000003V39.2ZM259.77 76.0H254.526Q249.55800000000002 76.0 247.21200000000002 73.654Q244.728 71.124 244.728 65.374Q244.728 60.13 246.752 57.6Q244.728 55.07 244.728 49.872Q244.728 44.076 247.21200000000002 41.546Q249.55800000000002 39.2 254.526 39.2H259.77V44.996H257.148Q252.45600000000002 44.996 252.45600000000002 49.872Q252.45600000000002 54.702 257.148 54.702V60.498000000000005Q252.45600000000002 60.498000000000005 252.45600000000002 65.374Q252.45600000000002 70.204 257.148 70.204H259.77ZM274.536 39.2 273.202 44.996H270.902V39.2ZM270.396 39.2 269.062 44.996H266.762V39.2ZM294.224 65.374Q294.224 71.124 291.74 73.654Q289.394 76.0 284.426 76.0H276.56Q271.592 76.0 269.246 73.654Q266.762 71.124 266.762 65.374Q266.762 59.578 269.246 57.048Q271.592 54.702 276.56 54.702H281.804Q286.496 54.702 286.496 49.872Q286.496 44.996 281.804 44.996H279.182V39.2H284.426Q289.394 39.2 291.74 41.546Q294.224 44.076 294.224 49.872Q294.224 55.07 292.2 57.6Q294.224 60.13 294.224 65.374ZM286.496 65.374Q286.496 60.498000000000005 281.804 60.498000000000005H279.182Q274.49 60.498000000000005 274.49 65.374Q274.49 70.204 279.182 70.204H281.804Q286.496 70.204 286.496 65.374ZM333.324 76.0H327.528V73.424Q327.528 68.686 322.698 68.686Q317.822 68.686 317.822 73.424H312.026Q312.026 68.686 307.196 68.686Q302.32 68.686 302.32 73.424V76.0H296.524V70.756Q296.524 65.788 298.916 63.488Q301.446 61.004 307.196 61.004Q312.394 61.004 314.924 62.982Q317.5 61.004 322.698 61.004Q328.448 61.004 330.978 63.488Q333.324 65.788 333.324 70.756Z" fill="#12151a"/><path d="M43.731 108.6 43.064 111.498H41.914V108.6ZM41.661 108.6 40.994 111.498H39.844V108.6ZM43.731 121.687Q43.731 124.562 42.466 125.827Q41.316 127.0 38.832 127.0H34.899Q32.415 127.0 31.242 125.827Q30.0 124.562 30.0 121.687Q30.0 119.065 31.012 117.8Q30.0 116.512 30.0 113.936H33.864Q33.864 116.351 36.21 116.351H37.521V119.249H36.21Q33.864 119.249 33.864 121.687Q33.864 124.102 36.21 124.102H37.521Q39.844 124.102 39.867 121.687ZM56.818 113.936 56.150999999999996 116.834H55.001V113.936ZM54.748 113.936 54.081 116.834H52.931V113.936ZM58.612 127.0H54.748Q54.748 124.562 52.402 124.562H51.091Q48.745 124.562 48.745 127.0H44.881Q44.881 124.401 45.893 123.136Q44.881 121.848 44.881 119.249Q44.881 116.374 46.123 115.109Q47.296 113.936 49.78 113.936H52.402V116.834H51.091Q48.745 116.834 48.745 119.249Q48.745 121.687 51.091 121.687H53.713Q56.197 121.687 57.37 122.86Q58.612 124.125 58.612 127.0ZM69.629 108.6 68.962 111.498H67.812V108.6ZM67.283 127.0H64.661Q62.177 127.0 61.004 125.827Q59.762 124.562 59.762 121.687Q59.762 119.065 60.774 117.8Q59.762 116.535 59.762 113.936Q59.762 111.038 61.004 109.773Q62.177 108.6 64.661 108.6H67.283V111.498H65.972Q63.626 111.498 63.626 113.936Q63.626 116.351 65.972 116.351V119.249Q63.626 119.249 63.626 121.687Q63.626 124.102 65.972 124.102H67.283ZM87.5 111.498H86.189Q83.843 111.498 83.843 113.936Q83.843 116.351 86.189 116.351V119.249Q83.843 119.249 83.843 121.687V127.0H79.979V121.687Q79.979 119.111 81.014 117.82300000000001Q79.979 116.535 79.979 113.936Q79.979 111.038 81.221 109.773Q82.394 108.6 84.878 108.6H87.5ZM99.0 113.522Q99.0 114.166 98.19500000000001 114.166Q97.39 114.166 97.39 113.522V109.244Q97.39 108.6 98.19500000000001 108.6Q99.0 108.6 99.0 109.244ZM96.33200000000001 113.867Q96.424 114.005 96.424 114.189Q96.424 114.534 96.13650000000001 114.787Q95.849 115.04 95.527 115.04Q95.182 115.04 95.021 114.81L92.51400000000001 111.36Q92.399 111.222 92.399 111.038Q92.399 110.693 92.6865 110.4285Q92.974 110.164 93.319 110.164Q93.641 110.164 93.825 110.417ZM99.322 117.777Q99.322 118.26 98.9885 118.5935Q98.655 118.92699999999999 98.19500000000001 118.92699999999999Q97.735 118.92699999999999 97.4015 118.5935Q97.06800000000001 118.26 97.06800000000001 117.777Q97.06800000000001 117.31700000000001 97.4015 116.9835Q97.735 116.65 98.19500000000001 116.65Q98.655 116.65 98.9885 116.9835Q99.322 117.31700000000001 99.322 117.777ZM94.03200000000001 117.271Q93.94000000000001 117.271 93.87100000000001 117.248L89.80000000000001 115.937Q89.38600000000001 115.799 89.38600000000001 115.27Q89.38600000000001 114.925 89.6045 114.649Q89.82300000000001 114.373 90.14500000000001 114.373Q90.23700000000001 114.373 90.30600000000001 114.396L94.354 115.707Q94.768 115.845 94.768 116.374Q94.768 116.696 94.561 116.98349999999999Q94.354 117.271 94.03200000000001 117.271ZM118.504 113.522Q118.504 114.166 117.69900000000001 114.166Q116.894 114.166 116.894 113.522V109.244Q116.894 108.6 117.69900000000001 108.6Q118.504 108.6 118.504 109.244ZM115.83600000000001 113.867Q115.92800000000001 114.005 115.92800000000001 114.189Q115.92800000000001 114.534 115.6405 114.787Q115.35300000000001 115.04 115.031 115.04Q114.686 115.04 114.525 114.81L112.01800000000001 111.36Q111.903 111.222 111.903 111.038Q111.903 110.693 112.19050000000001 110.4285Q112.47800000000001 110.164 112.82300000000001 110.164Q113.14500000000001 110.164 113.32900000000001 110.417ZM118.82600000000001 117.777Q118.82600000000001 118.26 118.4925 118.5935Q118.159 118.92699999999999 117.69900000000001 118.92699999999999Q117.239 118.92699999999999 116.9055 118.5935Q116.572 118.26 116.572 117.777Q116.572 117.31700000000001 116.9055 116.9835Q117.239 116.65 117.69900000000001 116.65Q118.159 116.65 118.4925 116.9835Q118.82600000000001 117.31700000000001 118.82600000000001 117.777ZM113.53600000000002 117.271Q113.44400000000002 117.271 113.37500000000001 117.248L109.30400000000002 115.937Q108.89000000000001 115.799 108.89000000000001 115.27Q108.89000000000001 114.925 109.10850000000002 114.649Q109.32700000000001 114.373 109.64900000000002 114.373Q109.74100000000001 114.373 109.81000000000002 114.396L113.858 115.707Q114.272 115.845 114.272 116.374Q114.272 116.696 114.065 116.98349999999999Q113.858 117.271 113.53600000000002 117.271ZM118.48100000000001 122.078V126.356Q118.48100000000001 127.0 117.67600000000002 127.0Q116.87100000000001 127.0 116.87100000000001 126.356V122.078Q116.87100000000001 121.434 117.67600000000002 121.434Q118.48100000000001 121.434 118.48100000000001 122.078ZM114.29500000000002 119.226Q114.29500000000002 119.755 113.88100000000001 119.893L109.81000000000002 121.204Q109.74100000000001 121.227 109.64900000000002 121.227Q109.32700000000001 121.227 109.12 120.951Q108.91300000000001 120.675 108.91300000000001 120.353Q108.91300000000001 119.824 109.32700000000001 119.686L113.37500000000001 118.352Q113.46700000000001 118.32900000000001 113.53600000000002 118.32900000000001Q113.858 118.32900000000001 114.07650000000001 118.6165Q114.29500000000002 118.904 114.29500000000002 119.226ZM115.81300000000002 121.733 113.30600000000001 125.183Q113.14500000000001 125.413 112.82300000000001 125.413Q112.47800000000001 125.413 112.19050000000001 125.16Q111.903 124.907 111.903 124.562Q111.903 124.378 112.01800000000001 124.24L114.525 120.79Q114.686 120.56 115.00800000000001 120.56Q115.35300000000001 120.56 115.6405 120.813Q115.92800000000001 121.066 115.92800000000001 121.411Q115.92800000000001 121.595 115.81300000000002 121.733ZM138.675 117.777Q138.675 118.26 138.353 118.5935Q138.031 118.92699999999999 137.548 118.92699999999999Q137.08800000000002 118.92699999999999 136.7545 118.5935Q136.42100000000002 118.26 136.42100000000002 117.777Q136.42100000000002 117.31700000000001 136.7545 116.9835Q137.08800000000002 116.65 137.548 116.65Q138.031 116.65 138.353 116.9835Q138.675 117.31700000000001 138.675 117.777ZM158.179 117.777Q158.179 118.26 157.857 118.5935Q157.535 118.92699999999999 157.05200000000002 118.92699999999999Q156.592 118.92699999999999 156.25850000000003 118.5935Q155.925 118.26 155.925 117.777Q155.925 117.31700000000001 156.25850000000003 116.9835Q156.592 116.65 157.05200000000002 116.65Q157.535 116.65 157.857 116.9835Q158.179 117.31700000000001 158.179 117.777ZM187.803 124.102 187.136 127.0H185.986V124.102ZM185.73299999999998 124.102 185.06599999999997 127.0H183.916V124.102ZM183.38699999999997 127.0H180.765Q178.30399999999997 127.0 177.13099999999997 125.827Q175.88899999999998 124.562 175.86599999999999 121.733V113.913H179.73V121.733Q179.79899999999998 124.102 182.076 124.102H183.38699999999997ZM198.81999999999996 108.6 198.15299999999996 111.498H197.003V108.6ZM196.47399999999996 127.0H193.85199999999998Q191.36799999999997 127.0 190.19499999999996 125.827Q188.95299999999997 124.562 188.95299999999997 121.687Q188.95299999999997 119.065 189.96499999999997 117.8Q188.95299999999997 116.535 188.95299999999997 113.936Q188.95299999999997 111.038 190.19499999999996 109.773Q191.36799999999997 108.6 193.85199999999998 108.6H196.47399999999996V111.498H195.16299999999998Q192.81699999999998 111.498 192.81699999999998 113.936Q192.81699999999998 116.351 195.16299999999998 116.351V119.249Q192.81699999999998 119.249 192.81699999999998 121.687Q192.81699999999998 124.102 195.16299999999998 124.102H196.47399999999996ZM203.85699999999997 108.6 203.18999999999997 111.498H202.03999999999996V108.6ZM201.78699999999998 108.6 201.11999999999998 111.498H199.96999999999997V108.6ZM213.70099999999996 121.687Q213.70099999999996 124.562 212.45899999999997 125.827Q211.28599999999997 127.0 208.80199999999996 127.0H204.86899999999997Q202.38499999999996 127.0 201.21199999999996 125.827Q199.96999999999997 124.562 199.96999999999997 121.687Q199.96999999999997 118.789 201.21199999999996 117.524Q202.38499999999996 116.351 204.86899999999997 116.351H207.49099999999996Q209.83699999999996 116.351 209.83699999999996 113.936Q209.83699999999996 111.498 207.49099999999996 111.498H206.17999999999998V108.6H208.80199999999996Q211.28599999999997 108.6 212.45899999999997 109.773Q213.70099999999996 111.038 213.70099999999996 113.936Q213.70099999999996 116.535 212.68899999999996 117.8Q213.70099999999996 119.065 213.70099999999996 121.687ZM209.83699999999996 121.687Q209.83699999999996 119.249 207.49099999999996 119.249H206.17999999999998Q203.83399999999997 119.249 203.83399999999997 121.687Q203.83399999999997 124.102 206.17999999999998 124.102H207.49099999999996Q209.83699999999996 124.102 209.83699999999996 121.687ZM228.58199999999997 129.461H224.71799999999996Q224.71799999999996 127.023 222.37199999999996 127.023H219.74999999999997Q217.26599999999996 127.023 216.09299999999996 125.85Q214.85099999999997 124.585 214.85099999999997 121.71Q214.85099999999997 118.812 216.09299999999996 117.547Q217.26599999999996 116.374 219.74999999999997 116.374H223.68299999999996Q226.16699999999997 116.374 227.33999999999997 117.547Q228.58199999999997 118.812 228.58199999999997 121.71Q228.58199999999997 124.309 227.56999999999996 125.574Q228.58199999999997 126.839 228.58199999999997 129.461ZM218.73799999999997 131.876 218.07099999999997 134.774H216.92099999999996V131.876ZM216.66799999999998 131.876 216.00099999999998 134.774H214.85099999999997V131.876ZM224.71799999999996 121.71Q224.71799999999996 119.272 222.37199999999996 119.272H221.06099999999998Q218.71499999999997 119.272 218.71499999999997 121.71Q218.71499999999997 124.125 221.06099999999998 124.125H222.37199999999996Q224.71799999999996 124.125 224.71799999999996 121.71ZM243.46299999999997 121.687Q243.46299999999997 124.562 242.22099999999998 125.827Q241.04799999999997 127.0 238.56399999999996 127.0H234.63099999999997Q232.14699999999996 127.0 230.97399999999996 125.827Q229.73199999999997 124.562 229.73199999999997 121.687V119.502H233.59599999999998V121.687Q233.59599999999998 124.102 235.94199999999998 124.102H237.25299999999996Q239.59899999999996 124.102 239.59899999999996 121.687V119.502H243.46299999999997ZM254.47999999999996 108.6 253.81299999999996 111.498H252.66299999999998V108.6ZM252.13399999999996 127.0H249.51199999999997Q247.02799999999996 127.0 245.85499999999996 125.827Q244.61299999999997 124.562 244.61299999999997 121.687Q244.61299999999997 119.065 245.62499999999997 117.8Q244.61299999999997 116.535 244.61299999999997 113.936Q244.61299999999997 111.038 245.85499999999996 109.773Q247.02799999999996 108.6 249.51199999999997 108.6H252.13399999999996V111.498H250.82299999999998Q248.47699999999998 111.498 248.47699999999998 113.936Q248.47699999999998 116.351 250.82299999999998 116.351V119.249Q248.47699999999998 119.249 248.47699999999998 121.687Q248.47699999999998 124.102 250.82299999999998 124.102H252.13399999999996ZM276.767 124.102 276.09999999999997 127.0H274.95V124.102ZM274.697 124.102 274.03 127.0H272.88V124.102ZM272.351 127.0H269.729Q267.268 127.0 266.09499999999997 125.827Q264.853 124.562 264.83 121.733V113.913H268.69399999999996V121.733Q268.763 124.102 271.03999999999996 124.102H272.351ZM281.804 108.6 281.137 111.498H279.98699999999997V108.6ZM279.734 108.6 279.06699999999995 111.498H277.917V108.6ZM291.64799999999997 121.687Q291.64799999999997 124.562 290.40599999999995 125.827Q289.23299999999995 127.0 286.74899999999997 127.0H282.816Q280.332 127.0 279.159 125.827Q277.917 124.562 277.917 121.687Q277.917 118.789 279.159 117.524Q280.332 116.351 282.816 116.351H285.438Q287.784 116.351 287.784 113.936Q287.784 111.498 285.438 111.498H284.12699999999995V108.6H286.74899999999997Q289.23299999999995 108.6 290.40599999999995 109.773Q291.64799999999997 111.038 291.64799999999997 113.936Q291.64799999999997 116.535 290.63599999999997 117.8Q291.64799999999997 119.065 291.64799999999997 121.687ZM287.784 121.687Q287.784 119.249 285.438 119.249H284.12699999999995Q281.78099999999995 119.249 281.78099999999995 121.687Q281.78099999999995 124.102 284.12699999999995 124.102H285.438Q287.784 124.102 287.784 121.687ZM306.529 121.687Q306.529 124.562 305.287 125.827Q304.114 127.0 301.63 127.0H297.697Q295.213 127.0 294.04 125.827Q292.798 124.562 292.798 121.687V119.502H296.662V121.687Q296.662 124.102 299.008 124.102H300.319Q302.665 124.102 302.665 121.687V119.502H306.529ZM318.328 127.0H315.42999999999995V125.712Q315.42999999999995 123.343 312.99199999999996 123.343Q310.577 123.343 310.577 125.712V127.0H307.679V124.378Q307.679 121.894 308.852 120.744Q310.11699999999996 119.502 312.99199999999996 119.502Q315.89 119.502 317.155 120.744Q318.328 121.894 318.328 124.378ZM325.68799999999993 127.0H324.37699999999995Q321.893 127.0 320.71999999999997 125.827Q319.47799999999995 124.562 319.47799999999995 121.687Q319.47799999999995 118.789 320.71999999999997 117.524Q321.893 116.351 324.37699999999995 116.351H325.68799999999993V119.249Q323.3419999999999 119.249 323.3419999999999 121.687Q323.3419999999999 124.102 325.68799999999993 124.102ZM338.775 113.936 338.10799999999995 116.834H336.95799999999997V113.936ZM336.705 113.936 336.03799999999995 116.834H334.888V113.936ZM340.56899999999996 127.0H336.705Q336.705 124.562 334.359 124.562H333.04799999999994Q330.70199999999994 124.562 330.70199999999994 127.0H326.83799999999997Q326.83799999999997 124.401 327.84999999999997 123.136Q326.83799999999997 121.848 326.83799999999997 119.249Q326.83799999999997 116.374 328.08 115.109Q329.253 113.936 331.73699999999997 113.936H334.359V116.834H333.04799999999994Q330.70199999999994 116.834 330.70199999999994 119.249Q330.70199999999994 121.687 333.04799999999994 121.687H335.66999999999996Q338.15399999999994 121.687 339.32699999999994 122.86Q340.56899999999996 124.125 340.56899999999996 127.0ZM351.58599999999996 108.6 350.9189999999999 111.498H349.76899999999995V108.6ZM349.23999999999995 127.0H346.61799999999994Q344.13399999999996 127.0 342.96099999999996 125.827Q341.71899999999994 124.562 341.71899999999994 121.687Q341.71899999999994 119.065 342.73099999999994 117.8Q341.71899999999994 116.535 341.71899999999994 113.936Q341.71899999999994 111.038 342.96099999999996 109.773Q344.13399999999996 108.6 346.61799999999994 108.6H349.23999999999995V111.498H347.9289999999999Q345.5829999999999 111.498 345.5829999999999 113.936Q345.5829999999999 116.351 347.9289999999999 116.351V119.249Q345.5829999999999 119.249 345.5829999999999 121.687Q345.5829999999999 124.102 347.9289999999999 124.102H349.23999999999995ZM366.4669999999999 108.6 365.79999999999995 111.498H364.6499999999999V108.6ZM364.39699999999993 108.6 363.7299999999999 111.498H362.5799999999999V108.6ZM366.4669999999999 121.687Q366.4669999999999 124.562 365.2249999999999 125.827Q364.0519999999999 127.0 361.5679999999999 127.0H357.63499999999993Q355.15099999999995 127.0 354.0009999999999 125.827Q352.73599999999993 124.562 352.73599999999993 121.687H356.5999999999999Q356.5999999999999 124.102 358.9459999999999 124.102H360.25699999999995Q362.60299999999995 124.102 362.60299999999995 121.687Q362.60299999999995 119.249 360.25699999999995 119.249H357.63499999999993Q355.15099999999995 119.249 353.97799999999995 118.076Q352.73599999999993 116.811 352.73599999999993 113.936H356.5999999999999Q356.5999999999999 116.351 358.9459999999999 116.351H361.5679999999999Q364.0519999999999 116.351 365.2249999999999 117.524Q366.4669999999999 118.789 366.4669999999999 121.687ZM380.6809999999999 110.164Q380.6809999999999 111.728 379.16299999999995 111.728H378.3349999999999Q376.81699999999995 111.728 376.81699999999995 110.164Q376.81699999999995 108.6 378.3349999999999 108.6H379.16299999999995Q380.6809999999999 108.6 380.6809999999999 110.164ZM383.02699999999993 127.0H381.71599999999995Q379.25499999999994 127.0 378.08199999999994 125.804Q376.84 124.539 376.81699999999995 121.687V116.351H380.6809999999999V121.687Q380.70399999999995 124.102 383.02699999999993 124.102ZM394.82599999999996 127.0H391.92799999999994V125.712Q391.92799999999994 123.343 389.48999999999995 123.343Q387.075 123.343 387.075 125.712V127.0H384.17699999999996V124.378Q384.17699999999996 121.894 385.34999999999997 120.744Q386.61499999999995 119.502 389.48999999999995 119.502Q392.388 119.502 393.65299999999996 120.744Q394.82599999999996 121.894 394.82599999999996 124.378ZM415.77899999999994 113.522Q415.77899999999994 114.166 414.97399999999993 114.166Q414.1689999999999 114.166 414.1689999999999 113.522V109.244Q414.1689999999999 108.6 414.97399999999993 108.6Q415.77899999999994 108.6 415.77899999999994 109.244ZM413.0879999999999 113.867Q413.2029999999999 114.005 413.2029999999999 114.189Q413.2029999999999 114.534 412.91549999999995 114.787Q412.62799999999993 115.04 412.28299999999996 115.04Q411.96099999999996 115.04 411.79999999999995 114.81L409.2699999999999 111.36Q409.17799999999994 111.222 409.17799999999994 111.038Q409.17799999999994 110.693 409.4654999999999 110.4285Q409.75299999999993 110.164 410.09799999999996 110.164Q410.41999999999996 110.164 410.5809999999999 110.417ZM416.10099999999994 117.777Q416.10099999999994 118.26 415.7674999999999 118.5935Q415.4339999999999 118.92699999999999 414.97399999999993 118.92699999999999Q414.49099999999993 118.92699999999999 414.1574999999999 118.5935Q413.82399999999996 118.26 413.82399999999996 117.777Q413.82399999999996 117.31700000000001 414.1574999999999 116.9835Q414.49099999999993 116.65 414.97399999999993 116.65Q415.4339999999999 116.65 415.7674999999999 116.9835Q416.10099999999994 117.31700000000001 416.10099999999994 117.777ZM435.69699999999995 117.777Q435.69699999999995 118.26 435.37499999999994 118.5935Q435.05299999999994 118.92699999999999 434.56999999999994 118.92699999999999Q434.10999999999996 118.92699999999999 433.77649999999994 118.5935Q433.4429999999999 118.26 433.4429999999999 117.777Q433.4429999999999 117.31700000000001 433.77649999999994 116.9835Q434.10999999999996 116.65 434.56999999999994 116.65Q435.05299999999994 116.65 435.37499999999994 116.9835Q435.69699999999995 117.31700000000001 435.69699999999995 117.777ZM454.534 113.522Q454.534 114.166 453.729 114.166Q452.924 114.166 452.924 113.522V109.244Q452.924 108.6 453.729 108.6Q454.534 108.6 454.534 109.244ZM451.866 113.867Q451.95799999999997 114.005 451.95799999999997 114.189Q451.95799999999997 114.534 451.67049999999995 114.787Q451.383 115.04 451.061 115.04Q450.71599999999995 115.04 450.55499999999995 114.81L448.04799999999994 111.36Q447.933 111.222 447.933 111.038Q447.933 110.693 448.2205 110.4285Q448.508 110.164 448.85299999999995 110.164Q449.17499999999995 110.164 449.359 110.417ZM454.856 117.777Q454.856 118.26 454.5225 118.5935Q454.18899999999996 118.92699999999999 453.729 118.92699999999999Q453.26899999999995 118.92699999999999 452.93549999999993 118.5935Q452.602 118.26 452.602 117.777Q452.602 117.31700000000001 452.93549999999993 116.9835Q453.26899999999995 116.65 453.729 116.65Q454.18899999999996 116.65 454.5225 116.9835Q454.856 117.31700000000001 454.856 117.777ZM449.566 117.271Q449.474 117.271 449.405 117.248L445.33399999999995 115.937Q444.91999999999996 115.799 444.91999999999996 115.27Q444.91999999999996 114.925 445.13849999999996 114.649Q445.35699999999997 114.373 445.679 114.373Q445.77099999999996 114.373 445.84 114.396L449.888 115.707Q450.30199999999996 115.845 450.30199999999996 116.374Q450.30199999999996 116.696 450.09499999999997 116.98349999999999Q449.888 117.271 449.566 117.271ZM450.325 119.226Q450.325 119.755 449.91099999999994 119.893L445.84 121.204Q445.77099999999996 121.227 445.679 121.227Q445.35699999999997 121.227 445.15 120.951Q444.943 120.675 444.943 120.353Q444.943 119.824 445.35699999999997 119.686L449.405 118.352Q449.49699999999996 118.32900000000001 449.566 118.32900000000001Q449.888 118.32900000000001 450.1065 118.6165Q450.325 118.904 450.325 119.226ZM451.84299999999996 121.733 449.33599999999996 125.183Q449.17499999999995 125.413 448.85299999999995 125.413Q448.508 125.413 448.2205 125.16Q447.933 124.907 447.933 124.562Q447.933 124.378 448.04799999999994 124.24L450.55499999999995 120.79Q450.71599999999995 120.56 451.03799999999995 120.56Q451.383 120.56 451.67049999999995 120.813Q451.95799999999997 121.066 451.95799999999997 121.411Q451.95799999999997 121.595 451.84299999999996 121.733ZM474.291 113.522Q474.291 114.166 473.486 114.166Q472.681 114.166 472.681 113.522V109.244Q472.681 108.6 473.486 108.6Q474.291 108.6 474.291 109.244ZM471.59999999999997 113.867Q471.715 114.005 471.715 114.189Q471.715 114.534 471.4275 114.787Q471.14 115.04 470.795 115.04Q470.473 115.04 470.312 114.81L467.782 111.36Q467.69 111.222 467.69 111.038Q467.69 110.693 467.97749999999996 110.4285Q468.265 110.164 468.61 110.164Q468.932 110.164 469.09299999999996 110.417ZM474.613 117.777Q474.613 118.26 474.2795 118.5935Q473.94599999999997 118.92699999999999 473.486 118.92699999999999Q473.003 118.92699999999999 472.66949999999997 118.5935Q472.336 118.26 472.336 117.777Q472.336 117.31700000000001 472.66949999999997 116.9835Q473.003 116.65 473.486 116.65Q473.94599999999997 116.65 474.2795 116.9835Q474.613 117.31700000000001 474.613 117.777Z" fill="#3a3f47"/><path d="M32.704 152.2 32.24 154.216H31.44V152.2ZM31.264 152.2 30.8 154.216H30.0V152.2ZM39.552 161.304Q39.552 163.304 38.688 164.184Q37.872 165.0 36.144 165.0H33.408Q31.68 165.0 30.864 164.184Q30.0 163.304 30.0 161.304Q30.0 159.288 30.864 158.408Q31.68 157.592 33.408 157.592H35.232Q36.864 157.592 36.864 155.912Q36.864 154.216 35.232 154.216H34.32V152.2H36.144Q37.872 152.2 38.688 153.016Q39.552 153.896 39.552 155.912Q39.552 157.72 38.848 158.6Q39.552 159.48 39.552 161.304ZM36.864 161.304Q36.864 159.608 35.232 159.608H34.32Q32.688 159.608 32.688 161.304Q32.688 162.984 34.32 162.984H35.232Q36.864 162.984 36.864 161.304ZM49.904 161.304Q49.904 163.304 49.040000000000006 164.184Q48.224000000000004 165.0 46.496 165.0H43.760000000000005Q42.032000000000004 165.0 41.216 164.184Q40.352000000000004 163.304 40.352000000000004 161.304Q40.352000000000004 159.48 41.056000000000004 158.6Q40.352000000000004 157.704 40.352000000000004 155.896H43.040000000000006Q43.040000000000006 157.592 44.672000000000004 157.592H46.496Q48.224000000000004 157.592 49.040000000000006 158.408Q49.904 159.288 49.904 161.304ZM47.216 161.304Q47.216 159.608 45.584 159.608H44.672000000000004Q43.040000000000006 159.608 43.040000000000006 161.304Q43.040000000000006 162.984 44.672000000000004 162.984H45.584Q47.216 162.984 47.216 161.304ZM55.02400000000001 165.0H54.11200000000001Q52.38400000000001 165.0 51.568000000000005 164.184Q50.70400000000001 163.304 50.70400000000001 161.304Q50.70400000000001 159.288 51.568000000000005 158.408Q52.38400000000001 157.592 54.11200000000001 157.592H55.02400000000001V159.608Q53.39200000000001 159.608 53.39200000000001 161.304Q53.39200000000001 162.984 55.02400000000001 162.984ZM65.376 161.304Q65.376 163.304 64.512 164.184Q63.696000000000005 165.0 61.968 165.0H59.232000000000006Q57.504000000000005 165.0 56.688 164.184Q55.824000000000005 163.304 55.824000000000005 161.304Q55.824000000000005 159.288 56.688 158.408Q57.504000000000005 157.592 59.232000000000006 157.592H61.056000000000004Q62.688 157.592 62.688 155.896H65.376Q65.376 157.704 64.67200000000001 158.6Q65.376 159.48 65.376 161.304ZM62.688 161.304Q62.688 159.608 61.056000000000004 159.608H60.144000000000005Q58.51200000000001 159.608 58.51200000000001 161.304Q58.51200000000001 162.984 60.144000000000005 162.984H61.056000000000004Q62.688 162.984 62.688 161.304ZM73.04 152.2 72.57600000000001 154.216H71.776V152.2ZM71.408 165.0H69.584Q67.85600000000001 165.0 67.04 164.184Q66.176 163.304 66.176 161.304Q66.176 159.48 66.88 158.6Q66.176 157.72 66.176 155.912Q66.176 153.896 67.04 153.016Q67.85600000000001 152.2 69.584 152.2H71.408V154.216H70.49600000000001Q68.864 154.216 68.864 155.912Q68.864 157.592 70.49600000000001 157.592V159.608Q68.864 159.608 68.864 161.304Q68.864 162.984 70.49600000000001 162.984H71.408ZM79.072 154.216H78.16Q76.528 154.216 76.528 155.912Q76.528 157.592 78.16 157.592V159.608Q76.528 159.608 76.528 161.304V165.0H73.84V161.304Q73.84 159.512 74.56 158.61599999999999Q73.84 157.72 73.84 155.912Q73.84 153.896 74.70400000000001 153.016Q75.52000000000001 152.2 77.248 152.2H79.072ZM89.424 166.712H86.736Q86.736 165.016 85.104 165.016H83.28Q81.552 165.016 80.736 164.2Q79.872 163.32 79.872 161.32Q79.872 159.304 80.736 158.424Q81.552 157.608 83.28 157.608H86.016Q87.744 157.608 88.56 158.424Q89.424 159.304 89.424 161.32Q89.424 163.128 88.72 164.008Q89.424 164.888 89.424 166.712ZM82.576 168.392 82.112 170.408H81.312V168.392ZM81.136 168.392 80.672 170.408H79.872V168.392ZM86.736 161.32Q86.736 159.624 85.104 159.624H84.19200000000001Q82.56 159.624 82.56 161.32Q82.56 163.0 84.19200000000001 163.0H85.104Q86.736 163.0 86.736 161.32ZM98.528 155.912 98.06400000000001 157.928H97.26400000000001V155.912ZM97.08800000000001 155.912 96.62400000000001 157.928H95.824V155.912ZM99.77600000000001 165.0H97.08800000000001Q97.08800000000001 163.304 95.456 163.304H94.54400000000001Q92.912 163.304 92.912 165.0H90.224Q90.224 163.192 90.928 162.312Q90.224 161.416 90.224 159.608Q90.224 157.608 91.08800000000001 156.728Q91.90400000000001 155.912 93.632 155.912H95.456V157.928H94.54400000000001Q92.912 157.928 92.912 159.608Q92.912 161.304 94.54400000000001 161.304H96.36800000000001Q98.096 161.304 98.912 162.12Q99.77600000000001 163.0 99.77600000000001 165.0ZM103.26400000000001 153.288Q103.26400000000001 154.376 102.20800000000001 154.376H101.632Q100.57600000000001 154.376 100.57600000000001 153.288Q100.57600000000001 152.2 101.632 152.2H102.20800000000001Q103.26400000000001 152.2 103.26400000000001 153.288ZM104.89600000000002 165.0H103.98400000000001Q102.272 165.0 101.456 164.168Q100.59200000000001 163.288 100.57600000000001 161.304V157.592H103.26400000000001V161.304Q103.28 162.984 104.89600000000002 162.984ZM108.48000000000002 152.2 108.00000000000001 154.28H107.18400000000001V152.2ZM107.00800000000001 152.2 106.528 154.28H105.69600000000001V152.2ZM115.53600000000002 155.64V161.24Q115.53600000000002 163.272 114.66400000000002 164.144Q113.79200000000002 165.016 112.03200000000001 165.016H109.20000000000002Q107.424 165.016 106.59200000000001 164.168Q105.69600000000001 163.272 105.69600000000001 161.208Q105.69600000000001 159.144 106.59200000000001 158.232Q107.424 157.384 109.20000000000002 157.384H111.08800000000001V159.464H110.16000000000001Q108.46400000000001 159.464 108.46400000000001 161.208Q108.46400000000001 162.936 110.16000000000001 162.936H111.08800000000001Q111.87200000000001 162.936 112.32000000000002 162.488Q112.76800000000001 162.04 112.76800000000001 161.24V155.64ZM123.20000000000002 155.912 122.73600000000002 157.928H121.936V155.912ZM125.888 165.0H123.20000000000002Q123.20000000000002 163.304 121.56800000000001 163.304H120.656Q119.02400000000002 163.304 119.02400000000002 165.0H116.33600000000001Q116.33600000000001 163.192 117.04 162.312Q116.33600000000001 161.416 116.33600000000001 159.608Q116.33600000000001 157.608 117.20000000000002 156.728Q118.01600000000002 155.912 119.74400000000001 155.912H121.56800000000001V157.928H120.656Q119.02400000000002 157.928 119.02400000000002 159.608Q119.02400000000002 161.304 120.656 161.304H121.56800000000001Q123.21600000000001 161.304 123.20000000000002 159.608V159.576H125.888V159.608Q125.888 161.416 125.18400000000001 162.312Q125.888 163.192 125.888 165.0ZM134.99200000000002 162.984 134.52800000000002 165.0H133.728V162.984ZM133.55200000000002 162.984 133.08800000000002 165.0H132.288V162.984ZM131.92000000000002 165.0H130.096Q128.38400000000001 165.0 127.56800000000001 164.184Q126.70400000000002 163.304 126.68800000000002 161.336V155.896H129.376V161.336Q129.424 162.984 131.008 162.984H131.92000000000002ZM148.59200000000004 165.0H146.57600000000002V164.104Q146.57600000000002 162.456 144.89600000000004 162.456Q143.20000000000002 162.456 143.20000000000002 164.104H141.18400000000003Q141.18400000000003 162.456 139.50400000000002 162.456Q137.80800000000002 162.456 137.80800000000002 164.104V165.0H135.79200000000003V163.176Q135.79200000000003 161.448 136.62400000000002 160.648Q137.50400000000002 159.784 139.50400000000002 159.784Q141.31200000000004 159.784 142.19200000000004 160.472Q143.08800000000002 159.784 144.89600000000004 159.784Q146.89600000000004 159.784 147.77600000000004 160.648Q148.59200000000004 161.448 148.59200000000004 163.176ZM156.8 165.0H154.78400000000002V164.104Q154.78400000000002 162.456 153.08800000000002 162.456Q151.40800000000002 162.456 151.40800000000002 164.104V165.0H149.39200000000002V163.176Q149.39200000000002 161.448 150.20800000000003 160.648Q151.08800000000002 159.784 153.08800000000002 159.784Q155.104 159.784 155.98400000000004 160.648Q156.8 161.448 156.8 163.176ZM167.13600000000002 161.304Q167.13600000000002 163.304 166.27200000000002 164.184Q165.47200000000004 165.0 163.74400000000003 165.0H161.008Q159.28000000000003 165.0 158.46400000000003 164.184Q157.60000000000002 163.304 157.60000000000002 161.304Q157.60000000000002 159.304 158.46400000000003 158.424Q159.28000000000003 157.592 161.008 157.592H163.74400000000003Q165.47200000000004 157.592 166.27200000000002 158.424Q167.13600000000002 159.304 167.13600000000002 161.304ZM164.46400000000003 161.304Q164.46400000000003 159.608 162.83200000000002 159.608H161.92000000000002Q160.288 159.608 160.288 161.304Q160.288 162.984 161.92000000000002 162.984H162.83200000000002Q164.46400000000003 162.984 164.46400000000003 161.304ZM177.47200000000004 161.32Q177.47200000000004 163.32 176.60800000000003 164.2Q175.80800000000005 165.016 174.08000000000004 165.016H172.25600000000003Q170.62400000000002 165.016 170.62400000000002 166.712H167.93600000000004Q167.93600000000004 164.904 168.64000000000004 164.008Q167.93600000000004 163.128 167.93600000000004 161.32Q167.93600000000004 159.32 168.80000000000004 158.44Q169.61600000000004 157.608 171.34400000000002 157.608H174.08000000000004Q175.80800000000005 157.608 176.60800000000003 158.44Q177.47200000000004 159.32 177.47200000000004 161.32ZM174.80000000000004 161.32Q174.80000000000004 159.624 173.16800000000003 159.624H172.25600000000003Q170.62400000000002 159.624 170.62400000000002 161.32Q170.62400000000002 163.0 172.25600000000003 163.0H173.16800000000003Q174.80000000000004 163.0 174.80000000000004 161.32ZM187.77600000000004 161.304Q187.77600000000004 163.288 186.91200000000003 164.168Q186.11200000000005 164.984 184.40000000000003 164.984H182.57600000000005Q180.94400000000005 164.984 180.94400000000005 166.664Q180.94400000000005 168.344 182.57600000000005 168.344H183.47200000000004V170.36H181.66400000000004Q179.93600000000004 170.36 179.13600000000005 169.544Q178.27200000000005 168.664 178.27200000000005 166.664Q178.27200000000005 164.872 178.97600000000006 163.976Q178.27200000000005 163.096 178.27200000000005 161.304Q178.27200000000005 159.304 179.13600000000005 158.424Q179.93600000000004 157.608 181.66400000000004 157.608H183.68000000000004Q184.35200000000006 157.608 184.72800000000007 157.16Q185.10400000000004 156.712 185.10400000000004 155.928H187.77600000000004Q187.77600000000004 157.736 187.07200000000006 158.61599999999999Q187.77600000000004 159.496 187.77600000000004 161.304ZM187.77600000000004 168.344 187.31200000000004 170.36H186.51200000000006V168.344ZM186.35200000000006 168.344 185.88800000000006 170.36H185.08800000000005V168.344ZM185.10400000000004 161.304Q185.10400000000004 160.536 184.72800000000007 160.07999999999998Q184.35200000000006 159.624 183.68000000000004 159.624H182.57600000000005Q180.94400000000005 159.624 180.94400000000005 161.304Q180.94400000000005 162.984 182.57600000000005 162.984H183.47200000000004Q185.10400000000004 162.984 185.10400000000004 161.304ZM194.54400000000004 157.592 194.08000000000004 159.608H193.28000000000006V157.592ZM192.89600000000004 159.608Q191.28000000000006 159.608 191.26400000000004 161.288V165.0H188.57600000000005V161.288Q188.59200000000004 159.304 189.45600000000005 158.408Q190.27200000000005 157.592 191.98400000000004 157.592H192.89600000000004ZM204.89600000000004 152.2 204.43200000000004 154.216H203.63200000000006V152.2ZM203.45600000000005 152.2 202.99200000000005 154.216H202.19200000000006V152.2ZM204.89600000000004 161.304Q204.89600000000004 163.304 204.03200000000004 164.184Q203.21600000000007 165.0 201.48800000000006 165.0H198.75200000000004Q197.02400000000006 165.0 196.22400000000005 164.184Q195.34400000000005 163.304 195.34400000000005 161.304H198.03200000000004Q198.03200000000004 162.984 199.66400000000004 162.984H200.57600000000005Q202.20800000000006 162.984 202.20800000000006 161.304Q202.20800000000006 159.608 200.57600000000005 159.608H198.75200000000004Q197.02400000000006 159.608 196.20800000000006 158.792Q195.34400000000005 157.912 195.34400000000005 155.912H198.03200000000004Q198.03200000000004 157.592 199.66400000000004 157.592H201.48800000000006Q203.21600000000007 157.592 204.03200000000004 158.408Q204.89600000000004 159.288 204.89600000000004 161.304ZM215.24800000000005 152.2 214.78400000000005 154.216H213.98400000000007V152.2ZM213.80800000000005 152.2 213.34400000000005 154.216H212.54400000000007V152.2ZM215.24800000000005 161.304Q215.24800000000005 163.304 214.36800000000005 164.184Q213.56800000000004 165.0 211.84000000000006 165.0H209.10400000000004Q207.37600000000006 165.0 206.56000000000006 164.184Q205.69600000000005 163.304 205.69600000000005 161.304Q205.69600000000005 159.48 206.40000000000006 158.6Q205.69600000000005 157.704 205.69600000000005 155.912H208.38400000000004Q208.38400000000004 157.592 210.01600000000005 157.592H210.92800000000005V159.608H210.01600000000005Q208.38400000000004 159.608 208.38400000000004 161.304Q208.38400000000004 162.984 210.01600000000005 162.984H210.92800000000005Q212.54400000000007 162.984 212.56000000000006 161.304ZM225.60000000000005 161.304Q225.60000000000005 163.304 224.73600000000005 164.184Q223.92000000000007 165.0 222.19200000000006 165.0H219.45600000000005Q217.72800000000007 165.0 216.91200000000006 164.184Q216.04800000000006 163.304 216.04800000000006 161.304V159.784H218.73600000000005V161.304Q218.73600000000005 162.984 220.36800000000005 162.984H221.28000000000006Q222.91200000000006 162.984 222.91200000000006 161.304V159.784H225.60000000000005ZM233.80800000000005 161.608Q233.80800000000005 163.336 232.99200000000008 164.136Q232.11200000000005 165.0 230.11200000000005 165.0Q228.11200000000005 165.0 227.23200000000006 164.136Q226.40000000000006 163.336 226.40000000000006 161.608V159.784H228.41600000000005V160.68Q228.41600000000005 162.312 230.11200000000005 162.312Q231.79200000000006 162.312 231.79200000000006 160.68V159.784H233.80800000000005ZM247.40800000000007 161.608Q247.40800000000007 163.336 246.59200000000007 164.136Q245.71200000000007 165.0 243.71200000000007 165.0Q241.90400000000005 165.0 241.00800000000007 164.296Q240.12800000000007 165.0 238.32000000000005 165.0Q236.32000000000005 165.0 235.44000000000005 164.136Q234.60800000000006 163.336 234.60800000000006 161.608V159.784H236.62400000000005V160.68Q236.62400000000005 162.312 238.32000000000005 162.312Q240.00000000000006 162.312 240.00000000000006 160.68H242.01600000000005Q242.01600000000005 162.312 243.71200000000007 162.312Q245.39200000000005 162.312 245.39200000000005 160.68V159.784H247.40800000000007ZM257.77600000000007 153.912 257.31200000000007 155.928H256.51200000000006V153.912ZM256.33600000000007 153.912 255.87200000000004 155.928H255.07200000000006V153.912ZM257.76000000000005 157.592Q257.76000000000005 159.464 257.00800000000004 160.376Q257.72800000000007 161.272 257.76000000000005 163.016Q257.76000000000005 163.096 257.76000000000005 165.0H255.07200000000006Q255.07200000000006 164.024 255.07200000000006 163.016Q255.02400000000006 162.248 254.60000000000005 161.808Q254.17600000000004 161.368 253.44000000000005 161.368H252.52800000000005Q251.79200000000006 161.368 251.36800000000005 161.808Q250.94400000000005 162.248 250.89600000000004 163.016Q250.89600000000004 163.992 250.89600000000004 165.0H248.20800000000006Q248.20800000000006 163.096 248.20800000000006 163.016Q248.24000000000007 161.272 248.96000000000006 160.376Q248.20800000000006 159.464 248.20800000000006 157.592H250.89600000000004Q250.89600000000004 159.352 252.52800000000005 159.352H253.44000000000005Q254.20800000000006 159.352 254.64000000000004 158.88Q255.07200000000006 158.408 255.07200000000006 157.592ZM268.1120000000001 170.376H266.84800000000007V168.36H267.6480000000001ZM268.1120000000001 161.32Q268.1120000000001 163.32 267.2480000000001 164.184Q266.4480000000001 165.0 264.7200000000001 165.0H262.8960000000001Q261.26400000000007 165.0 261.26400000000007 166.68Q261.26400000000007 168.36 262.8960000000001 168.36H263.7920000000001V170.376H261.9680000000001Q260.2560000000001 170.376 259.44000000000005 169.56Q258.5760000000001 168.68 258.5760000000001 166.68Q258.5760000000001 164.888 259.2800000000001 163.992Q258.5760000000001 163.112 258.5760000000001 161.32V161.288H261.26400000000007V161.32Q261.2480000000001 162.984 262.8960000000001 162.984H263.7920000000001Q265.44000000000005 162.984 265.4240000000001 161.32V161.288H268.1120000000001ZM266.6720000000001 170.376H265.4080000000001V168.36H266.2080000000001ZM271.6000000000001 155.88 271.1520000000001 157.896H270.3520000000001V155.88ZM278.4320000000001 162.984 277.9680000000001 165.0H277.1680000000001V162.984ZM270.1760000000001 155.88 269.7120000000001 157.896H268.9120000000001V155.88ZM278.4320000000001 157.576Q278.4320000000001 159.592 277.5680000000001 160.488Q276.7680000000001 161.336 275.0400000000001 161.336H273.2320000000001Q272.4800000000001 161.336 272.0560000000001 161.784Q271.6320000000001 162.232 271.6000000000001 162.984Q271.6000000000001 163.96 271.6000000000001 164.968H268.9120000000001Q268.9120000000001 163.08 268.9120000000001 162.984Q268.9920000000001 159.32 272.3040000000001 159.32H274.1280000000001Q274.8960000000001 159.32 275.3280000000001 158.856Q275.7600000000001 158.392 275.7600000000001 157.576ZM277.0080000000001 162.984 276.5440000000001 165.0H275.7440000000001V162.984Z" fill="#6b7280"/><path d="M32.704 181.2 32.24 183.216H31.44V181.2ZM31.264 181.2 30.8 183.216H30.0V181.2ZM39.552 190.304Q39.552 192.304 38.688 193.184Q37.872 194.0 36.144 194.0H33.408Q31.68 194.0 30.864 193.184Q30.0 192.304 30.0 190.304Q30.0 188.288 30.864 187.408Q31.68 186.592 33.408 186.592H35.232Q36.864 186.592 36.864 184.912Q36.864 183.216 35.232 183.216H34.32V181.2H36.144Q37.872 181.2 38.688 182.016Q39.552 182.896 39.552 184.912Q39.552 186.72 38.848 187.6Q39.552 188.48 39.552 190.304ZM36.864 190.304Q36.864 188.608 35.232 188.608H34.32Q32.688 188.608 32.688 190.304Q32.688 191.984 34.32 191.984H35.232Q36.864 191.984 36.864 190.304ZM49.904 190.304Q49.904 192.304 49.040000000000006 193.184Q48.224000000000004 194.0 46.496 194.0H43.760000000000005Q42.032000000000004 194.0 41.216 193.184Q40.352000000000004 192.304 40.352000000000004 190.304Q40.352000000000004 188.48 41.056000000000004 187.6Q40.352000000000004 186.704 40.352000000000004 184.896H43.040000000000006Q43.040000000000006 186.592 44.672000000000004 186.592H46.496Q48.224000000000004 186.592 49.040000000000006 187.408Q49.904 188.288 49.904 190.304ZM47.216 190.304Q47.216 188.608 45.584 188.608H44.672000000000004Q43.040000000000006 188.608 43.040000000000006 190.304Q43.040000000000006 191.984 44.672000000000004 191.984H45.584Q47.216 191.984 47.216 190.304ZM55.02400000000001 194.0H54.11200000000001Q52.38400000000001 194.0 51.568000000000005 193.184Q50.70400000000001 192.304 50.70400000000001 190.304Q50.70400000000001 188.288 51.568000000000005 187.408Q52.38400000000001 186.592 54.11200000000001 186.592H55.02400000000001V188.608Q53.39200000000001 188.608 53.39200000000001 190.304Q53.39200000000001 191.984 55.02400000000001 191.984ZM65.376 190.304Q65.376 192.304 64.512 193.184Q63.696000000000005 194.0 61.968 194.0H59.232000000000006Q57.504000000000005 194.0 56.688 193.184Q55.824000000000005 192.304 55.824000000000005 190.304Q55.824000000000005 188.288 56.688 187.408Q57.504000000000005 186.592 59.232000000000006 186.592H61.056000000000004Q62.688 186.592 62.688 184.896H65.376Q65.376 186.704 64.67200000000001 187.6Q65.376 188.48 65.376 190.304ZM62.688 190.304Q62.688 188.608 61.056000000000004 188.608H60.144000000000005Q58.51200000000001 188.608 58.51200000000001 190.304Q58.51200000000001 191.984 60.144000000000005 191.984H61.056000000000004Q62.688 191.984 62.688 190.304ZM73.04 181.2 72.57600000000001 183.216H71.776V181.2ZM71.408 194.0H69.584Q67.85600000000001 194.0 67.04 193.184Q66.176 192.304 66.176 190.304Q66.176 188.48 66.88 187.6Q66.176 186.72 66.176 184.912Q66.176 182.896 67.04 182.016Q67.85600000000001 181.2 69.584 181.2H71.408V183.216H70.49600000000001Q68.864 183.216 68.864 184.912Q68.864 186.592 70.49600000000001 186.592V188.608Q68.864 188.608 68.864 190.304Q68.864 191.984 70.49600000000001 191.984H71.408ZM79.072 183.216H78.16Q76.528 183.216 76.528 184.912Q76.528 186.592 78.16 186.592V188.608Q76.528 188.608 76.528 190.304V194.0H73.84V190.304Q73.84 188.512 74.56 187.61599999999999Q73.84 186.72 73.84 184.912Q73.84 182.896 74.70400000000001 182.016Q75.52000000000001 181.2 77.248 181.2H79.072ZM89.424 195.712H86.736Q86.736 194.016 85.104 194.016H83.28Q81.552 194.016 80.736 193.2Q79.872 192.32 79.872 190.32Q79.872 188.304 80.736 187.424Q81.552 186.608 83.28 186.608H86.016Q87.744 186.608 88.56 187.424Q89.424 188.304 89.424 190.32Q89.424 192.128 88.72 193.008Q89.424 193.888 89.424 195.712ZM82.576 197.392 82.112 199.408H81.312V197.392ZM81.136 197.392 80.672 199.408H79.872V197.392ZM86.736 190.32Q86.736 188.624 85.104 188.624H84.19200000000001Q82.56 188.624 82.56 190.32Q82.56 192.0 84.19200000000001 192.0H85.104Q86.736 192.0 86.736 190.32ZM98.528 184.912 98.06400000000001 186.928H97.26400000000001V184.912ZM97.08800000000001 184.912 96.62400000000001 186.928H95.824V184.912ZM99.77600000000001 194.0H97.08800000000001Q97.08800000000001 192.304 95.456 192.304H94.54400000000001Q92.912 192.304 92.912 194.0H90.224Q90.224 192.192 90.928 191.312Q90.224 190.416 90.224 188.608Q90.224 186.608 91.08800000000001 185.728Q91.90400000000001 184.912 93.632 184.912H95.456V186.928H94.54400000000001Q92.912 186.928 92.912 188.608Q92.912 190.304 94.54400000000001 190.304H96.36800000000001Q98.096 190.304 98.912 191.12Q99.77600000000001 192.0 99.77600000000001 194.0ZM103.26400000000001 182.288Q103.26400000000001 183.376 102.20800000000001 183.376H101.632Q100.57600000000001 183.376 100.57600000000001 182.288Q100.57600000000001 181.2 101.632 181.2H102.20800000000001Q103.26400000000001 181.2 103.26400000000001 182.288ZM104.89600000000002 194.0H103.98400000000001Q102.272 194.0 101.456 193.168Q100.59200000000001 192.288 100.57600000000001 190.304V186.592H103.26400000000001V190.304Q103.28 191.984 104.89600000000002 191.984ZM108.48000000000002 181.2 108.00000000000001 183.28H107.18400000000001V181.2ZM107.00800000000001 181.2 106.528 183.28H105.69600000000001V181.2ZM115.53600000000002 184.64V190.24Q115.53600000000002 192.272 114.66400000000002 193.144Q113.79200000000002 194.016 112.03200000000001 194.016H109.20000000000002Q107.424 194.016 106.59200000000001 193.168Q105.69600000000001 192.272 105.69600000000001 190.208Q105.69600000000001 188.144 106.59200000000001 187.232Q107.424 186.384 109.20000000000002 186.384H111.08800000000001V188.464H110.16000000000001Q108.46400000000001 188.464 108.46400000000001 190.208Q108.46400000000001 191.936 110.16000000000001 191.936H111.08800000000001Q111.87200000000001 191.936 112.32000000000002 191.488Q112.76800000000001 191.04 112.76800000000001 190.24V184.64ZM123.20000000000002 184.912 122.73600000000002 186.928H121.936V184.912ZM125.888 194.0H123.20000000000002Q123.20000000000002 192.304 121.56800000000001 192.304H120.656Q119.02400000000002 192.304 119.02400000000002 194.0H116.33600000000001Q116.33600000000001 192.192 117.04 191.312Q116.33600000000001 190.416 116.33600000000001 188.608Q116.33600000000001 186.608 117.20000000000002 185.728Q118.01600000000002 184.912 119.74400000000001 184.912H121.56800000000001V186.928H120.656Q119.02400000000002 186.928 119.02400000000002 188.608Q119.02400000000002 190.304 120.656 190.304H121.56800000000001Q123.21600000000001 190.304 123.20000000000002 188.608V188.576H125.888V188.608Q125.888 190.416 125.18400000000001 191.312Q125.888 192.192 125.888 194.0ZM134.99200000000002 191.984 134.52800000000002 194.0H133.728V191.984ZM133.55200000000002 191.984 133.08800000000002 194.0H132.288V191.984ZM131.92000000000002 194.0H130.096Q128.38400000000001 194.0 127.56800000000001 193.184Q126.70400000000002 192.304 126.68800000000002 190.336V184.896H129.376V190.336Q129.424 191.984 131.008 191.984H131.92000000000002ZM148.59200000000004 194.0H146.57600000000002V193.104Q146.57600000000002 191.456 144.89600000000004 191.456Q143.20000000000002 191.456 143.20000000000002 193.104H141.18400000000003Q141.18400000000003 191.456 139.50400000000002 191.456Q137.80800000000002 191.456 137.80800000000002 193.104V194.0H135.79200000000003V192.176Q135.79200000000003 190.448 136.62400000000002 189.648Q137.50400000000002 188.784 139.50400000000002 188.784Q141.31200000000004 188.784 142.19200000000004 189.472Q143.08800000000002 188.784 144.89600000000004 188.784Q146.89600000000004 188.784 147.77600000000004 189.648Q148.59200000000004 190.448 148.59200000000004 192.176ZM156.8 194.0H154.78400000000002V193.104Q154.78400000000002 191.456 153.08800000000002 191.456Q151.40800000000002 191.456 151.40800000000002 193.104V194.0H149.39200000000002V192.176Q149.39200000000002 190.448 150.20800000000003 189.648Q151.08800000000002 188.784 153.08800000000002 188.784Q155.104 188.784 155.98400000000004 189.648Q156.8 190.448 156.8 192.176ZM167.13600000000002 190.304Q167.13600000000002 192.304 166.27200000000002 193.184Q165.47200000000004 194.0 163.74400000000003 194.0H161.008Q159.28000000000003 194.0 158.46400000000003 193.184Q157.60000000000002 192.304 157.60000000000002 190.304Q157.60000000000002 188.304 158.46400000000003 187.424Q159.28000000000003 186.592 161.008 186.592H163.74400000000003Q165.47200000000004 186.592 166.27200000000002 187.424Q167.13600000000002 188.304 167.13600000000002 190.304ZM164.46400000000003 190.304Q164.46400000000003 188.608 162.83200000000002 188.608H161.92000000000002Q160.288 188.608 160.288 190.304Q160.288 191.984 161.92000000000002 191.984H162.83200000000002Q164.46400000000003 191.984 164.46400000000003 190.304ZM177.47200000000004 190.32Q177.47200000000004 192.32 176.60800000000003 193.2Q175.80800000000005 194.016 174.08000000000004 194.016H172.25600000000003Q170.62400000000002 194.016 170.62400000000002 195.712H167.93600000000004Q167.93600000000004 193.904 168.64000000000004 193.008Q167.93600000000004 192.128 167.93600000000004 190.32Q167.93600000000004 188.32 168.80000000000004 187.44Q169.61600000000004 186.608 171.34400000000002 186.608H174.08000000000004Q175.80800000000005 186.608 176.60800000000003 187.44Q177.47200000000004 188.32 177.47200000000004 190.32ZM174.80000000000004 190.32Q174.80000000000004 188.624 173.16800000000003 188.624H172.25600000000003Q170.62400000000002 188.624 170.62400000000002 190.32Q170.62400000000002 192.0 172.25600000000003 192.0H173.16800000000003Q174.80000000000004 192.0 174.80000000000004 190.32ZM187.77600000000004 190.304Q187.77600000000004 192.288 186.91200000000003 193.168Q186.11200000000005 193.984 184.40000000000003 193.984H182.57600000000005Q180.94400000000005 193.984 180.94400000000005 195.664Q180.94400000000005 197.344 182.57600000000005 197.344H183.47200000000004V199.36H181.66400000000004Q179.93600000000004 199.36 179.13600000000005 198.544Q178.27200000000005 197.664 178.27200000000005 195.664Q178.27200000000005 193.872 178.97600000000006 192.976Q178.27200000000005 192.096 178.27200000000005 190.304Q178.27200000000005 188.304 179.13600000000005 187.424Q179.93600000000004 186.608 181.66400000000004 186.608H183.68000000000004Q184.35200000000006 186.608 184.72800000000007 186.16Q185.10400000000004 185.712 185.10400000000004 184.928H187.77600000000004Q187.77600000000004 186.736 187.07200000000006 187.61599999999999Q187.77600000000004 188.496 187.77600000000004 190.304ZM187.77600000000004 197.344 187.31200000000004 199.36H186.51200000000006V197.344ZM186.35200000000006 197.344 185.88800000000006 199.36H185.08800000000005V197.344ZM185.10400000000004 190.304Q185.10400000000004 189.536 184.72800000000007 189.07999999999998Q184.35200000000006 188.624 183.68000000000004 188.624H182.57600000000005Q180.94400000000005 188.624 180.94400000000005 190.304Q180.94400000000005 191.984 182.57600000000005 191.984H183.47200000000004Q185.10400000000004 191.984 185.10400000000004 190.304ZM194.54400000000004 186.592 194.08000000000004 188.608H193.28000000000006V186.592ZM192.89600000000004 188.608Q191.28000000000006 188.608 191.26400000000004 190.288V194.0H188.57600000000005V190.288Q188.59200000000004 188.304 189.45600000000005 187.408Q190.27200000000005 186.592 191.98400000000004 186.592H192.89600000000004ZM204.89600000000004 181.2 204.43200000000004 183.216H203.63200000000006V181.2ZM203.45600000000005 181.2 202.99200000000005 183.216H202.19200000000006V181.2ZM204.89600000000004 190.304Q204.89600000000004 192.304 204.03200000000004 193.184Q203.21600000000007 194.0 201.48800000000006 194.0H198.75200000000004Q197.02400000000006 194.0 196.22400000000005 193.184Q195.34400000000005 192.304 195.34400000000005 190.304H198.03200000000004Q198.03200000000004 191.984 199.66400000000004 191.984H200.57600000000005Q202.20800000000006 191.984 202.20800000000006 190.304Q202.20800000000006 188.608 200.57600000000005 188.608H198.75200000000004Q197.02400000000006 188.608 196.20800000000006 187.792Q195.34400000000005 186.912 195.34400000000005 184.912H198.03200000000004Q198.03200000000004 186.592 199.66400000000004 186.592H201.48800000000006Q203.21600000000007 186.592 204.03200000000004 187.408Q204.89600000000004 188.288 204.89600000000004 190.304ZM215.24800000000005 181.2 214.78400000000005 183.216H213.98400000000007V181.2ZM213.80800000000005 181.2 213.34400000000005 183.216H212.54400000000007V181.2ZM215.24800000000005 190.304Q215.24800000000005 192.304 214.36800000000005 193.184Q213.56800000000004 194.0 211.84000000000006 194.0H209.10400000000004Q207.37600000000006 194.0 206.56000000000006 193.184Q205.69600000000005 192.304 205.69600000000005 190.304Q205.69600000000005 188.48 206.40000000000006 187.6Q205.69600000000005 186.704 205.69600000000005 184.912H208.38400000000004Q208.38400000000004 186.592 210.01600000000005 186.592H210.92800000000005V188.608H210.01600000000005Q208.38400000000004 188.608 208.38400000000004 190.304Q208.38400000000004 191.984 210.01600000000005 191.984H210.92800000000005Q212.54400000000007 191.984 212.56000000000006 190.304ZM225.60000000000005 190.304Q225.60000000000005 192.304 224.73600000000005 193.184Q223.92000000000007 194.0 222.19200000000006 194.0H219.45600000000005Q217.72800000000007 194.0 216.91200000000006 193.184Q216.04800000000006 192.304 216.04800000000006 190.304V188.784H218.73600000000005V190.304Q218.73600000000005 191.984 220.36800000000005 191.984H221.28000000000006Q222.91200000000006 191.984 222.91200000000006 190.304V188.784H225.60000000000005ZM233.80800000000005 190.608Q233.80800000000005 192.336 232.99200000000008 193.136Q232.11200000000005 194.0 230.11200000000005 194.0Q228.11200000000005 194.0 227.23200000000006 193.136Q226.40000000000006 192.336 226.40000000000006 190.608V188.784H228.41600000000005V189.68Q228.41600000000005 191.312 230.11200000000005 191.312Q231.79200000000006 191.312 231.79200000000006 189.68V188.784H233.80800000000005ZM247.40800000000007 190.608Q247.40800000000007 192.336 246.59200000000007 193.136Q245.71200000000007 194.0 243.71200000000007 194.0Q241.90400000000005 194.0 241.00800000000007 193.296Q240.12800000000007 194.0 238.32000000000005 194.0Q236.32000000000005 194.0 235.44000000000005 193.136Q234.60800000000006 192.336 234.60800000000006 190.608V188.784H236.62400000000005V189.68Q236.62400000000005 191.312 238.32000000000005 191.312Q240.00000000000006 191.312 240.00000000000006 189.68H242.01600000000005Q242.01600000000005 191.312 243.71200000000007 191.312Q245.39200000000005 191.312 245.39200000000005 189.68V188.784H247.40800000000007ZM257.77600000000007 182.912 257.31200000000007 184.928H256.51200000000006V182.912ZM256.33600000000007 182.912 255.87200000000004 184.928H255.07200000000006V182.912ZM257.76000000000005 186.592Q257.76000000000005 188.464 257.00800000000004 189.376Q257.72800000000007 190.272 257.76000000000005 192.016Q257.76000000000005 192.096 257.76000000000005 194.0H255.07200000000006Q255.07200000000006 193.024 255.07200000000006 192.016Q255.02400000000006 191.248 254.60000000000005 190.808Q254.17600000000004 190.368 253.44000000000005 190.368H252.52800000000005Q251.79200000000006 190.368 251.36800000000005 190.808Q250.94400000000005 191.248 250.89600000000004 192.016Q250.89600000000004 192.992 250.89600000000004 194.0H248.20800000000006Q248.20800000000006 192.096 248.20800000000006 192.016Q248.24000000000007 190.272 248.96000000000006 189.376Q248.20800000000006 188.464 248.20800000000006 186.592H250.89600000000004Q250.89600000000004 188.352 252.52800000000005 188.352H253.44000000000005Q254.20800000000006 188.352 254.64000000000004 187.88Q255.07200000000006 187.408 255.07200000000006 186.592ZM268.1120000000001 199.376H266.84800000000007V197.36H267.6480000000001ZM268.1120000000001 190.32Q268.1120000000001 192.32 267.2480000000001 193.184Q266.4480000000001 194.0 264.7200000000001 194.0H262.8960000000001Q261.26400000000007 194.0 261.26400000000007 195.68Q261.26400000000007 197.36 262.8960000000001 197.36H263.7920000000001V199.376H261.9680000000001Q260.2560000000001 199.376 259.44000000000005 198.56Q258.5760000000001 197.68 258.5760000000001 195.68Q258.5760000000001 193.888 259.2800000000001 192.992Q258.5760000000001 192.112 258.5760000000001 190.32V190.288H261.26400000000007V190.32Q261.2480000000001 191.984 262.8960000000001 191.984H263.7920000000001Q265.44000000000005 191.984 265.4240000000001 190.32V190.288H268.1120000000001ZM266.6720000000001 199.376H265.4080000000001V197.36H266.2080000000001ZM271.6000000000001 184.88 271.1520000000001 186.896H270.3520000000001V184.88ZM278.4320000000001 191.984 277.9680000000001 194.0H277.1680000000001V191.984ZM270.1760000000001 184.88 269.7120000000001 186.896H268.9120000000001V184.88ZM278.4320000000001 186.576Q278.4320000000001 188.592 277.5680000000001 189.488Q276.7680000000001 190.336 275.0400000000001 190.336H273.2320000000001Q272.4800000000001 190.336 272.0560000000001 190.784Q271.6320000000001 191.232 271.6000000000001 191.984Q271.6000000000001 192.96 271.6000000000001 193.968H268.9120000000001Q268.9120000000001 192.08 268.9120000000001 191.984Q268.9920000000001 188.32 272.3040000000001 188.32H274.1280000000001Q274.8960000000001 188.32 275.3280000000001 187.856Q275.7600000000001 187.392 275.7600000000001 186.576ZM277.0080000000001 191.984 276.5440000000001 194.0H275.7440000000001V191.984ZM299.696 187.584Q299.696 187.92 299.47200000000004 188.152Q299.24800000000005 188.384 298.91200000000003 188.384Q298.59200000000004 188.384 298.36 188.152Q298.12800000000004 187.92 298.12800000000004 187.584Q298.12800000000004 187.264 298.36 187.032Q298.59200000000004 186.8 298.91200000000003 186.8Q299.24800000000005 186.8 299.47200000000004 187.032Q299.696 187.264 299.696 187.584ZM312.76800000000003 184.624Q312.76800000000003 185.072 312.208 185.072Q311.648 185.072 311.648 184.624V181.648Q311.648 181.2 312.208 181.2Q312.76800000000003 181.2 312.76800000000003 181.648ZM312.992 187.584Q312.992 187.92 312.76800000000003 188.152Q312.54400000000004 188.384 312.208 188.384Q311.88800000000003 188.384 311.65600000000006 188.152Q311.42400000000004 187.92 311.42400000000004 187.584Q311.42400000000004 187.264 311.65600000000006 187.032Q311.88800000000003 186.8 312.208 186.8Q312.54400000000004 186.8 312.76800000000003 187.032Q312.992 187.264 312.992 187.584ZM326.544 184.624Q326.544 185.072 325.984 185.072Q325.424 185.072 325.424 184.624V181.648Q325.424 181.2 325.984 181.2Q326.544 181.2 326.544 181.648ZM324.672 184.864Q324.752 184.96 324.752 185.088Q324.752 185.328 324.552 185.50400000000002Q324.35200000000003 185.68 324.112 185.68Q323.88800000000003 185.68 323.776 185.52L322.016 183.12Q321.952 183.024 321.952 182.896Q321.952 182.656 322.15200000000004 182.472Q322.35200000000003 182.288 322.592 182.288Q322.81600000000003 182.288 322.928 182.464ZM326.76800000000003 187.584Q326.76800000000003 187.92 326.53600000000006 188.152Q326.30400000000003 188.384 325.984 188.384Q325.648 188.384 325.41600000000005 188.152Q325.184 187.92 325.184 187.584Q325.184 187.264 325.41600000000005 187.032Q325.648 186.8 325.984 186.8Q326.30400000000003 186.8 326.53600000000006 187.032Q326.76800000000003 187.264 326.76800000000003 187.584ZM339.936 184.624Q339.936 185.072 339.376 185.072Q338.816 185.072 338.816 184.624V181.648Q338.816 181.2 339.376 181.2Q339.936 181.2 339.936 181.648ZM338.08 184.864Q338.144 184.96 338.144 185.088Q338.144 185.328 337.94399999999996 185.50400000000002Q337.74399999999997 185.68 337.52 185.68Q337.28 185.68 337.168 185.52L335.424 183.12Q335.344 183.024 335.344 182.896Q335.344 182.656 335.544 182.472Q335.74399999999997 182.288 335.984 182.288Q336.20799999999997 182.288 336.336 182.464ZM340.15999999999997 187.584Q340.15999999999997 187.92 339.928 188.152Q339.69599999999997 188.384 339.376 188.384Q339.056 188.384 338.82399999999996 188.152Q338.592 187.92 338.592 187.584Q338.592 187.264 338.82399999999996 187.032Q339.056 186.8 339.376 186.8Q339.69599999999997 186.8 339.928 187.032Q340.15999999999997 187.264 340.15999999999997 187.584ZM336.48 187.232Q336.416 187.232 336.368 187.216L333.536 186.304Q333.248 186.208 333.248 185.84Q333.248 185.6 333.4 185.40800000000002Q333.55199999999996 185.216 333.776 185.216Q333.84 185.216 333.888 185.232L336.704 186.144Q336.99199999999996 186.24 336.99199999999996 186.608Q336.99199999999996 186.832 336.84799999999996 187.03199999999998Q336.704 187.232 336.48 187.232ZM353.50399999999996 184.624Q353.50399999999996 185.072 352.94399999999996 185.072Q352.38399999999996 185.072 352.38399999999996 184.624V181.648Q352.38399999999996 181.2 352.94399999999996 181.2Q353.50399999999996 181.2 353.50399999999996 181.648ZM351.64799999999997 184.864Q351.712 184.96 351.712 185.088Q351.712 185.328 351.51199999999994 185.50400000000002Q351.31199999999995 185.68 351.08799999999997 185.68Q350.84799999999996 185.68 350.736 185.52L348.99199999999996 183.12Q348.912 183.024 348.912 182.896Q348.912 182.656 349.11199999999997 182.472Q349.31199999999995 182.288 349.55199999999996 182.288Q349.77599999999995 182.288 349.904 182.464ZM353.72799999999995 187.584Q353.72799999999995 187.92 353.496 188.152Q353.26399999999995 188.384 352.94399999999996 188.384Q352.62399999999997 188.384 352.39199999999994 188.152Q352.15999999999997 187.92 352.15999999999997 187.584Q352.15999999999997 187.264 352.39199999999994 187.032Q352.62399999999997 186.8 352.94399999999996 186.8Q353.26399999999995 186.8 353.496 187.032Q353.72799999999995 187.264 353.72799999999995 187.584ZM350.048 187.232Q349.984 187.232 349.936 187.216L347.104 186.304Q346.816 186.208 346.816 185.84Q346.816 185.6 346.96799999999996 185.40800000000002Q347.11999999999995 185.216 347.344 185.216Q347.40799999999996 185.216 347.45599999999996 185.232L350.272 186.144Q350.55999999999995 186.24 350.55999999999995 186.608Q350.55999999999995 186.832 350.41599999999994 187.03199999999998Q350.272 187.232 350.048 187.232ZM350.57599999999996 188.592Q350.57599999999996 188.96 350.28799999999995 189.056L347.45599999999996 189.968Q347.40799999999996 189.984 347.344 189.984Q347.11999999999995 189.984 346.976 189.792Q346.832 189.6 346.832 189.376Q346.832 189.008 347.11999999999995 188.912L349.936 187.984Q350.0 187.968 350.048 187.968Q350.272 187.968 350.424 188.168Q350.57599999999996 188.368 350.57599999999996 188.592ZM367.07199999999995 184.624Q367.07199999999995 185.072 366.51199999999994 185.072Q365.95199999999994 185.072 365.95199999999994 184.624V181.648Q365.95199999999994 181.2 366.51199999999994 181.2Q367.07199999999995 181.2 367.07199999999995 181.648ZM365.21599999999995 184.864Q365.28 184.96 365.28 185.088Q365.28 185.328 365.0799999999999 185.50400000000002Q364.87999999999994 185.68 364.65599999999995 185.68Q364.41599999999994 185.68 364.304 185.52L362.55999999999995 183.12Q362.47999999999996 183.024 362.47999999999996 182.896Q362.47999999999996 182.656 362.67999999999995 182.472Q362.87999999999994 182.288 363.11999999999995 182.288Q363.34399999999994 182.288 363.472 182.464ZM367.29599999999994 187.584Q367.29599999999994 187.92 367.06399999999996 188.152Q366.83199999999994 188.384 366.51199999999994 188.384Q366.19199999999995 188.384 365.9599999999999 188.152Q365.72799999999995 187.92 365.72799999999995 187.584Q365.72799999999995 187.264 365.9599999999999 187.032Q366.19199999999995 186.8 366.51199999999994 186.8Q366.83199999999994 186.8 367.06399999999996 187.032Q367.29599999999994 187.264 367.29599999999994 187.584ZM363.616 187.232Q363.55199999999996 187.232 363.50399999999996 187.216L360.67199999999997 186.304Q360.38399999999996 186.208 360.38399999999996 185.84Q360.38399999999996 185.6 360.53599999999994 185.40800000000002Q360.68799999999993 185.216 360.912 185.216Q360.97599999999994 185.216 361.02399999999994 185.232L363.84 186.144Q364.12799999999993 186.24 364.12799999999993 186.608Q364.12799999999993 186.832 363.9839999999999 187.03199999999998Q363.84 187.232 363.616 187.232ZM364.14399999999995 188.592Q364.14399999999995 188.96 363.85599999999994 189.056L361.02399999999994 189.968Q360.97599999999994 189.984 360.912 189.984Q360.68799999999993 189.984 360.544 189.792Q360.4 189.6 360.4 189.376Q360.4 189.008 360.68799999999993 188.912L363.50399999999996 187.984Q363.568 187.968 363.616 187.968Q363.84 187.968 363.99199999999996 188.168Q364.14399999999995 188.368 364.14399999999995 188.592ZM365.19999999999993 190.336 363.45599999999996 192.736Q363.34399999999994 192.896 363.11999999999995 192.896Q362.87999999999994 192.896 362.67999999999995 192.72Q362.47999999999996 192.544 362.47999999999996 192.304Q362.47999999999996 192.176 362.55999999999995 192.08L364.304 189.68Q364.41599999999994 189.52 364.63999999999993 189.52Q364.87999999999994 189.52 365.0799999999999 189.69600000000003Q365.28 189.872 365.28 190.112Q365.28 190.24 365.19999999999993 190.336ZM380.63999999999993 184.624Q380.63999999999993 185.072 380.0799999999999 185.072Q379.5199999999999 185.072 379.5199999999999 184.624V181.648Q379.5199999999999 181.2 380.0799999999999 181.2Q380.63999999999993 181.2 380.63999999999993 181.648ZM378.78399999999993 184.864Q378.84799999999996 184.96 378.84799999999996 185.088Q378.84799999999996 185.328 378.6479999999999 185.50400000000002Q378.4479999999999 185.68 378.22399999999993 185.68Q377.9839999999999 185.68 377.87199999999996 185.52L376.12799999999993 183.12Q376.04799999999994 183.024 376.04799999999994 182.896Q376.04799999999994 182.656 376.24799999999993 182.472Q376.4479999999999 182.288 376.68799999999993 182.288Q376.9119999999999 182.288 377.03999999999996 182.464ZM380.8639999999999 187.584Q380.8639999999999 187.92 380.63199999999995 188.152Q380.3999999999999 188.384 380.0799999999999 188.384Q379.75999999999993 188.384 379.5279999999999 188.152Q379.29599999999994 187.92 379.29599999999994 187.584Q379.29599999999994 187.264 379.5279999999999 187.032Q379.75999999999993 186.8 380.0799999999999 186.8Q380.3999999999999 186.8 380.63199999999995 187.032Q380.8639999999999 187.264 380.8639999999999 187.584ZM377.18399999999997 187.232Q377.11999999999995 187.232 377.07199999999995 187.216L374.23999999999995 186.304Q373.95199999999994 186.208 373.95199999999994 185.84Q373.95199999999994 185.6 374.1039999999999 185.40800000000002Q374.2559999999999 185.216 374.47999999999996 185.216Q374.5439999999999 185.216 374.5919999999999 185.232L377.40799999999996 186.144Q377.6959999999999 186.24 377.6959999999999 186.608Q377.6959999999999 186.832 377.5519999999999 187.03199999999998Q377.40799999999996 187.232 377.18399999999997 187.232ZM380.62399999999997 190.576V193.552Q380.62399999999997 194.0 380.06399999999996 194.0Q379.50399999999996 194.0 379.50399999999996 193.552V190.576Q379.50399999999996 190.128 380.06399999999996 190.128Q380.62399999999997 190.128 380.62399999999997 190.576ZM377.71199999999993 188.592Q377.71199999999993 188.96 377.4239999999999 189.056L374.5919999999999 189.968Q374.5439999999999 189.984 374.47999999999996 189.984Q374.2559999999999 189.984 374.11199999999997 189.792Q373.96799999999996 189.6 373.96799999999996 189.376Q373.96799999999996 189.008 374.2559999999999 188.912L377.07199999999995 187.984Q377.13599999999997 187.968 377.18399999999997 187.968Q377.40799999999996 187.968 377.55999999999995 188.168Q377.71199999999993 188.368 377.71199999999993 188.592ZM378.7679999999999 190.336 377.02399999999994 192.736Q376.9119999999999 192.896 376.68799999999993 192.896Q376.4479999999999 192.896 376.24799999999993 192.72Q376.04799999999994 192.544 376.04799999999994 192.304Q376.04799999999994 192.176 376.12799999999993 192.08L377.87199999999996 189.68Q377.9839999999999 189.52 378.2079999999999 189.52Q378.4479999999999 189.52 378.6479999999999 189.69600000000003Q378.84799999999996 189.872 378.84799999999996 190.112Q378.84799999999996 190.24 378.7679999999999 190.336ZM394.2079999999999 184.624Q394.2079999999999 185.072 393.6479999999999 185.072Q393.0879999999999 185.072 393.0879999999999 184.624V181.648Q393.0879999999999 181.2 393.6479999999999 181.2Q394.2079999999999 181.2 394.2079999999999 181.648ZM392.3519999999999 184.864Q392.41599999999994 184.96 392.41599999999994 185.088Q392.41599999999994 185.328 392.2159999999999 185.50400000000002Q392.0159999999999 185.68 391.7919999999999 185.68Q391.5519999999999 185.68 391.43999999999994 185.52L389.6959999999999 183.12Q389.61599999999993 183.024 389.61599999999993 182.896Q389.61599999999993 182.656 389.8159999999999 182.472Q390.0159999999999 182.288 390.2559999999999 182.288Q390.4799999999999 182.288 390.60799999999995 182.464ZM394.4319999999999 187.584Q394.4319999999999 187.92 394.19999999999993 188.152Q393.9679999999999 188.384 393.6479999999999 188.384Q393.3279999999999 188.384 393.0959999999999 188.152Q392.8639999999999 187.92 392.8639999999999 187.584Q392.8639999999999 187.264 393.0959999999999 187.032Q393.3279999999999 186.8 393.6479999999999 186.8Q393.9679999999999 186.8 394.19999999999993 187.032Q394.4319999999999 187.264 394.4319999999999 187.584ZM397.5999999999999 192.08Q397.66399999999993 192.176 397.66399999999993 192.304Q397.66399999999993 192.544 397.46399999999994 192.72Q397.2639999999999 192.896 397.02399999999994 192.896Q396.7999999999999 192.896 396.68799999999993 192.736L394.9439999999999 190.336Q394.8639999999999 190.24 394.8639999999999 190.112Q394.8639999999999 189.872 395.0639999999999 189.69600000000003Q395.2639999999999 189.52 395.5039999999999 189.52Q395.72799999999995 189.52 395.8399999999999 189.68ZM390.75199999999995 187.232Q390.68799999999993 187.232 390.63999999999993 187.216L387.80799999999994 186.304Q387.5199999999999 186.208 387.5199999999999 185.84Q387.5199999999999 185.6 387.6719999999999 185.40800000000002Q387.8239999999999 185.216 388.04799999999994 185.216Q388.1119999999999 185.216 388.1599999999999 185.232L390.97599999999994 186.144Q391.2639999999999 186.24 391.2639999999999 186.608Q391.2639999999999 186.832 391.1199999999999 187.03199999999998Q390.97599999999994 187.232 390.75199999999995 187.232ZM394.19199999999995 190.576V193.552Q394.19199999999995 194.0 393.63199999999995 194.0Q393.07199999999995 194.0 393.07199999999995 193.552V190.576Q393.07199999999995 190.128 393.63199999999995 190.128Q394.19199999999995 190.128 394.19199999999995 190.576ZM391.2799999999999 188.592Q391.2799999999999 188.96 390.9919999999999 189.056L388.1599999999999 189.968Q388.1119999999999 189.984 388.04799999999994 189.984Q387.8239999999999 189.984 387.67999999999995 189.792Q387.53599999999994 189.6 387.53599999999994 189.376Q387.53599999999994 189.008 387.8239999999999 188.912L390.63999999999993 187.984Q390.70399999999995 187.968 390.75199999999995 187.968Q390.97599999999994 187.968 391.12799999999993 188.168Q391.2799999999999 188.368 391.2799999999999 188.592ZM392.3359999999999 190.336 390.5919999999999 192.736Q390.4799999999999 192.896 390.2559999999999 192.896Q390.0159999999999 192.896 389.8159999999999 192.72Q389.61599999999993 192.544 389.61599999999993 192.304Q389.61599999999993 192.176 389.6959999999999 192.08L391.43999999999994 189.68Q391.5519999999999 189.52 391.7759999999999 189.52Q392.0159999999999 189.52 392.2159999999999 189.69600000000003Q392.41599999999994 189.872 392.41599999999994 190.112Q392.41599999999994 190.24 392.3359999999999 190.336ZM407.7759999999999 184.624Q407.7759999999999 185.072 407.2159999999999 185.072Q406.6559999999999 185.072 406.6559999999999 184.624V181.648Q406.6559999999999 181.2 407.2159999999999 181.2Q407.7759999999999 181.2 407.7759999999999 181.648ZM412.7999999999999 190.0Q412.73599999999993 190.0 412.68799999999993 189.984L409.8559999999999 189.056Q409.5679999999999 188.96 409.5679999999999 188.592Q409.5679999999999 188.368 409.7199999999999 188.168Q409.8719999999999 187.968 410.0959999999999 187.968Q410.1599999999999 187.968 410.2079999999999 188.0L413.0399999999999 188.912Q413.3279999999999 189.008 413.3279999999999 189.376Q413.3279999999999 189.6 413.17599999999993 189.8Q413.0239999999999 190.0 412.7999999999999 190.0ZM405.9199999999999 184.864Q405.9839999999999 184.96 405.9839999999999 185.088Q405.9839999999999 185.328 405.7839999999999 185.50400000000002Q405.5839999999999 185.68 405.3599999999999 185.68Q405.1199999999999 185.68 405.0079999999999 185.52L403.2639999999999 183.12Q403.1839999999999 183.024 403.1839999999999 182.896Q403.1839999999999 182.656 403.3839999999999 182.472Q403.5839999999999 182.288 403.8239999999999 182.288Q404.0479999999999 182.288 404.17599999999993 182.464ZM407.9999999999999 187.584Q407.9999999999999 187.92 407.7679999999999 188.152Q407.5359999999999 188.384 407.2159999999999 188.384Q406.8959999999999 188.384 406.6639999999999 188.152Q406.4319999999999 187.92 406.4319999999999 187.584Q406.4319999999999 187.264 406.6639999999999 187.032Q406.8959999999999 186.8 407.2159999999999 186.8Q407.5359999999999 186.8 407.7679999999999 187.032Q407.9999999999999 187.264 407.9999999999999 187.584ZM411.1679999999999 192.08Q411.2319999999999 192.176 411.2319999999999 192.304Q411.2319999999999 192.544 411.0319999999999 192.72Q410.8319999999999 192.896 410.5919999999999 192.896Q410.3679999999999 192.896 410.2559999999999 192.736L408.5119999999999 190.336Q408.4319999999999 190.24 408.4319999999999 190.112Q408.4319999999999 189.872 408.6319999999999 189.69600000000003Q408.8319999999999 189.52 409.0719999999999 189.52Q409.29599999999994 189.52 409.4079999999999 189.68ZM404.31999999999994 187.232Q404.2559999999999 187.232 404.2079999999999 187.216L401.3759999999999 186.304Q401.0879999999999 186.208 401.0879999999999 185.84Q401.0879999999999 185.6 401.2399999999999 185.40800000000002Q401.3919999999999 185.216 401.61599999999993 185.216Q401.6799999999999 185.216 401.7279999999999 185.232L404.5439999999999 186.144Q404.8319999999999 186.24 404.8319999999999 186.608Q404.8319999999999 186.832 404.6879999999999 187.03199999999998Q404.5439999999999 187.232 404.31999999999994 187.232ZM407.75999999999993 190.576V193.552Q407.75999999999993 194.0 407.19999999999993 194.0Q406.63999999999993 194.0 406.63999999999993 193.552V190.576Q406.63999999999993 190.128 407.19999999999993 190.128Q407.75999999999993 190.128 407.75999999999993 190.576ZM404.8479999999999 188.592Q404.8479999999999 188.96 404.5599999999999 189.056L401.7279999999999 189.968Q401.6799999999999 189.984 401.61599999999993 189.984Q401.3919999999999 189.984 401.24799999999993 189.792Q401.1039999999999 189.6 401.1039999999999 189.376Q401.1039999999999 189.008 401.3919999999999 188.912L404.2079999999999 187.984Q404.27199999999993 187.968 404.31999999999994 187.968Q404.5439999999999 187.968 404.6959999999999 188.168Q404.8479999999999 188.368 404.8479999999999 188.592ZM405.9039999999999 190.336 404.1599999999999 192.736Q404.0479999999999 192.896 403.8239999999999 192.896Q403.5839999999999 192.896 403.3839999999999 192.72Q403.1839999999999 192.544 403.1839999999999 192.304Q403.1839999999999 192.176 403.2639999999999 192.08L405.0079999999999 189.68Q405.1199999999999 189.52 405.3439999999999 189.52Q405.5839999999999 189.52 405.7839999999999 189.69600000000003Q405.9839999999999 189.872 405.9839999999999 190.112Q405.9839999999999 190.24 405.9039999999999 190.336ZM426.8959999999999 185.84Q426.8959999999999 186.208 426.6079999999999 186.288L423.7759999999999 187.216Q423.7279999999999 187.232 423.6639999999999 187.232Q423.4399999999999 187.232 423.2959999999999 187.03199999999998Q423.1519999999999 186.832 423.1519999999999 186.608Q423.1519999999999 186.24 423.4399999999999 186.144L426.2559999999999 185.232Q426.3199999999999 185.216 426.3679999999999 185.216Q426.59199999999987 185.216 426.7439999999999 185.40800000000002Q426.8959999999999 185.6 426.8959999999999 185.84ZM421.3439999999999 184.624Q421.3439999999999 185.072 420.7839999999999 185.072Q420.2239999999999 185.072 420.2239999999999 184.624V181.648Q420.2239999999999 181.2 420.7839999999999 181.2Q421.3439999999999 181.2 421.3439999999999 181.648ZM426.3679999999999 190.0Q426.3039999999999 190.0 426.2559999999999 189.984L423.42399999999986 189.056Q423.1359999999999 188.96 423.1359999999999 188.592Q423.1359999999999 188.368 423.2879999999999 188.168Q423.4399999999999 187.968 423.6639999999999 187.968Q423.7119999999999 187.968 423.7759999999999 188.0L426.59199999999987 188.912Q426.8799999999999 189.008 426.8799999999999 189.376Q426.8799999999999 189.6 426.7359999999999 189.8Q426.59199999999987 190.0 426.3679999999999 190.0ZM419.47199999999987 184.864Q419.5519999999999 184.96 419.5519999999999 185.088Q419.5519999999999 185.328 419.35199999999986 185.50400000000002Q419.1519999999999 185.68 418.91199999999986 185.68Q418.6879999999999 185.68 418.5759999999999 185.52L416.8319999999999 183.12Q416.7519999999999 183.024 416.7519999999999 182.896Q416.7519999999999 182.656 416.9519999999999 182.472Q417.1519999999999 182.288 417.3919999999999 182.288Q417.6159999999999 182.288 417.7279999999999 182.464ZM421.56799999999987 187.584Q421.56799999999987 187.92 421.3359999999999 188.152Q421.10399999999987 188.384 420.7839999999999 188.384Q420.44799999999987 188.384 420.2159999999999 188.152Q419.98399999999987 187.92 419.98399999999987 187.584Q419.98399999999987 187.264 420.2159999999999 187.032Q420.44799999999987 186.8 420.7839999999999 186.8Q421.10399999999987 186.8 421.3359999999999 187.032Q421.56799999999987 187.264 421.56799999999987 187.584ZM424.7199999999999 192.08Q424.7999999999999 192.176 424.7999999999999 192.304Q424.7999999999999 192.544 424.5999999999999 192.72Q424.39999999999986 192.896 424.1599999999999 192.896Q423.93599999999986 192.896 423.8239999999999 192.736L422.0639999999999 190.336Q421.9999999999999 190.24 421.9999999999999 190.112Q421.9999999999999 189.872 422.1999999999999 189.69600000000003Q422.39999999999986 189.52 422.6399999999999 189.52Q422.8639999999999 189.52 422.9759999999999 189.68ZM417.8879999999999 187.232Q417.8239999999999 187.232 417.7759999999999 187.216L414.9439999999999 186.304Q414.6559999999999 186.208 414.6559999999999 185.84Q414.6559999999999 185.6 414.8079999999999 185.40800000000002Q414.95999999999987 185.216 415.1839999999999 185.216Q415.2319999999999 185.216 415.2959999999999 185.232L418.1119999999999 186.144Q418.39999999999986 186.24 418.39999999999986 186.608Q418.39999999999986 186.832 418.2479999999999 187.03199999999998Q418.0959999999999 187.232 417.8879999999999 187.232ZM421.3279999999999 190.576V193.552Q421.3279999999999 194.0 420.7679999999999 194.0Q420.2079999999999 194.0 420.2079999999999 193.552V190.576Q420.2079999999999 190.128 420.7679999999999 190.128Q421.3279999999999 190.128 421.3279999999999 190.576ZM418.39999999999986 188.592Q418.39999999999986 188.96 418.1119999999999 189.056L415.2959999999999 189.968Q415.2319999999999 189.984 415.1839999999999 189.984Q414.95999999999987 189.984 414.8079999999999 189.792Q414.6559999999999 189.6 414.6559999999999 189.376Q414.6559999999999 189.008 414.9439999999999 188.912L417.7759999999999 187.984Q417.8239999999999 187.968 417.8879999999999 187.968Q418.1119999999999 187.968 418.25599999999986 188.168Q418.39999999999986 188.368 418.39999999999986 188.592ZM419.47199999999987 190.336 417.7279999999999 192.736Q417.6159999999999 192.896 417.3759999999999 192.896Q417.1519999999999 192.896 416.9519999999999 192.72Q416.7519999999999 192.544 416.7519999999999 192.304Q416.7519999999999 192.176 416.8159999999999 192.08L418.5599999999999 189.68Q418.6879999999999 189.52 418.91199999999986 189.52Q419.1519999999999 189.52 419.35199999999986 189.69600000000003Q419.5519999999999 189.872 419.5519999999999 190.112Q419.5519999999999 190.24 419.47199999999987 190.336ZM448.70399999999984 195.504V195.536H446.35199999999986V195.504Q446.35199999999986 194.016 444.91199999999986 194.016H443.2959999999999Q441.77599999999984 194.016 441.07199999999983 193.296Q440.30399999999986 192.512 440.30399999999986 190.752Q440.30399999999986 189.152 440.9279999999999 188.368Q440.30399999999986 187.6 440.30399999999986 186.0Q440.30399999999986 184.24 441.07199999999983 183.456Q441.77599999999984 182.736 443.2959999999999 182.736H445.7119999999999Q447.23199999999986 182.736 447.93599999999986 183.456Q448.70399999999984 184.224 448.70399999999984 185.952H446.35199999999986Q446.3199999999999 184.512 444.91199999999986 184.512H444.11199999999985Q442.67199999999985 184.512 442.67199999999985 186.0Q442.67199999999985 187.488 444.11199999999985 187.488H445.7119999999999Q447.23199999999986 187.488 447.9519999999999 188.208Q448.70399999999984 188.992 448.70399999999984 190.752Q448.70399999999984 192.336 448.09599999999983 193.12Q448.71999999999986 193.904 448.70399999999984 195.504ZM446.35199999999986 190.752Q446.35199999999986 189.264 444.91199999999986 189.264H444.11199999999985Q442.67199999999985 189.264 442.67199999999985 190.752Q442.67199999999985 192.24 444.11199999999985 192.24H444.91199999999986Q446.35199999999986 192.24 446.35199999999986 190.752ZM452.3679999999998 192.912Q452.3679999999998 194.0 451.31199999999984 194.0H450.7359999999998Q449.67999999999984 194.0 449.67999999999984 192.912Q449.67999999999984 191.824 450.7359999999998 191.824H451.31199999999984Q452.3679999999998 191.824 452.3679999999998 192.912ZM456.09599999999983 198.32H454.38399999999984L453.3919999999999 194.0H456.09599999999983ZM459.74399999999986 181.984V188.608H457.05599999999987V181.984Q457.05599999999987 181.61599999999999 457.4559999999999 181.408Q457.8559999999999 181.2 458.39999999999986 181.2Q458.94399999999985 181.2 459.3439999999998 181.408Q459.74399999999986 181.61599999999999 459.74399999999986 181.984ZM459.74399999999986 192.912Q459.74399999999986 194.0 458.6879999999999 194.0H458.11199999999985Q457.05599999999987 194.0 457.05599999999987 192.912Q457.05599999999987 191.824 458.11199999999985 191.824H458.6879999999999Q459.74399999999986 191.824 459.74399999999986 192.912ZM465.9199999999999 184.912Q465.9199999999999 186.912 465.05599999999987 187.792Q464.2559999999999 188.608 462.5279999999999 188.608H460.7039999999999V186.592H461.5999999999999Q463.2479999999999 186.592 463.2479999999999 184.912Q463.2479999999999 183.216 461.5999999999999 183.216H460.7039999999999V181.2H462.5279999999999Q464.2559999999999 181.2 465.05599999999987 182.016Q465.9199999999999 182.896 465.9199999999999 184.912ZM463.3919999999999 192.912Q463.3919999999999 194.0 462.3359999999999 194.0H461.7599999999999Q460.7039999999999 194.0 460.7039999999999 192.912Q460.7039999999999 191.824 461.7599999999999 191.824H462.3359999999999Q463.3919999999999 191.824 463.3919999999999 192.912Z" fill="#6b7280"/></svg>