<svg xmlns="http://www.w3.org/2000/svg" viewBox="0 0 680.6 222.0" width="681" height="222"><path d="M30.0 76.0V71.05859375H49.765625V66.1171875H30.0V51.29296875H54.70703125V56.234375H34.94140625V61.17578125H54.70703125V76.0ZM59.6484375 76.0V51.29296875H64.58984375V71.05859375H79.4140625V51.29296875H84.35546875V76.0ZM94.23828125 71.05859375H109.0625V56.234375H94.23828125ZM89.296875 85.8828125V51.29296875H114.00390625V76.0H94.23828125V85.8828125ZM118.9453125 76.0V41.41015625H153.53515625V46.3515625H123.88671875V56.234375H148.59375V61.17578125H123.88671875V71.05859375H153.53515625V76.0ZM158.4765625 76.0V51.29296875H183.18359375V56.234375H163.41796875V76.0ZM193.06640625 71.05859375H207.890625V56.234375H193.06640625ZM188.125 85.8828125V51.29296875H212.83203125V76.0H193.06640625V85.8828125ZM217.7734375 76.0V41.41015625H222.71484375V51.29296875H242.48046875V76.0H237.5390625V56.234375H222.71484375V76.0ZM252.36328125 71.05859375H267.1875V56.234375H252.36328125ZM247.421875 76.0V51.29296875H272.12890625V76.0ZM277.0703125 76.0V51.29296875H301.77734375V76.0H296.8359375V56.234375H282.01171875V76.0ZM306.71875 46.3515625V41.41015625H311.66015625V46.3515625ZM306.71875 76.0V51.29296875H311.66015625V76.0ZM346.25 76.0V71.05859375H351.19140625V76.0ZM346.25 46.3515625V41.41015625H351.19140625V46.3515625ZM316.6015625 46.3515625V41.41015625H321.54296875V46.3515625ZM316.6015625 76.0V71.05859375H321.54296875V76.0ZM341.30859375 71.05859375V66.1171875H346.25V71.05859375ZM336.3671875 66.1171875V61.17578125H341.30859375V66.1171875ZM321.54296875 51.29296875V46.3515625H326.484375V51.29296875ZM326.484375 56.234375V51.29296875H331.42578125V56.234375ZM341.30859375 51.29296875V46.3515625H346.25V51.29296875ZM336.3671875 56.234375V51.29296875H341.30859375V56.234375ZM331.42578125 61.17578125V56.234375H336.3671875V61.17578125ZM326.484375 66.1171875V61.17578125H331.42578125V66.1171875ZM321.54296875 71.05859375V66.1171875H326.484375V71.05859375ZM356.1328125 76.0V56.234375H385.78125V46.3515625H356.1328125V41.41015625H390.72265625V61.17578125H361.07421875V71.05859375H390.72265625V76.0Z" fill="#12151a"/><path d="M42.353515625 122.05859375V119.587890625H44.82421875V122.05859375ZM39.8828125 124.529296875V122.05859375H42.353515625V124.529296875ZM37.412109375 127.0V124.529296875H39.8828125V127.0ZM34.94140625 124.529296875V122.05859375H37.412109375V124.529296875ZM32.470703125 122.05859375V119.587890625H34.94140625V122.05859375ZM30.0 119.587890625V109.705078125H32.470703125V119.587890625ZM44.82421875 119.587890625V109.705078125H47.294921875V119.587890625ZM52.236328125 124.529296875H59.6484375V122.05859375H52.236328125ZM49.765625 127.0V119.587890625H59.6484375V117.1171875H49.765625V114.646484375H62.119140625V127.0ZM64.58984375 127.0V114.646484375H76.943359375V127.0H74.47265625V117.1171875H67.060546875V127.0ZM79.4140625 119.587890625V117.1171875H91.767578125V119.587890625ZM94.23828125 127.0V109.705078125H96.708984375V124.529296875H109.0625V109.705078125H111.533203125V127.0ZM116.474609375 124.529296875H123.88671875V117.1171875H116.474609375ZM114.00390625 127.0V109.705078125H116.474609375V114.646484375H126.357421875V127.0ZM128.828125 127.0V114.646484375H141.181640625V122.05859375H131.298828125V124.529296875H141.181640625V127.0ZM131.298828125 119.587890625H138.7109375V117.1171875H131.298828125ZM143.65234375 127.0V114.646484375H156.005859375V117.1171875H146.123046875V127.0ZM169.70703125 127.0V114.646484375H182.060546875V122.05859375H172.177734375V124.529296875H182.060546875V127.0ZM172.177734375 119.587890625H179.58984375V117.1171875H172.177734375ZM184.53125 127.0V114.646484375H196.884765625V127.0H194.4140625V117.1171875H187.001953125V127.0ZM201.826171875 124.529296875H209.23828125V117.1171875H201.826171875ZM199.35546875 127.0V114.646484375H211.708984375V131.94140625H199.35546875V129.470703125H209.23828125V127.0ZM214.1796875 112.17578125V109.705078125H216.650390625V112.17578125ZM214.1796875 127.0V114.646484375H216.650390625V127.0ZM219.12109375 127.0V114.646484375H231.474609375V127.0H229.00390625V117.1171875H221.591796875V127.0ZM233.9453125 127.0V114.646484375H246.298828125V122.05859375H236.416015625V124.529296875H246.298828125V127.0ZM236.416015625 119.587890625H243.828125V117.1171875H236.416015625ZM248.76953125 127.0V114.646484375H261.123046875V122.05859375H251.240234375V124.529296875H261.123046875V127.0ZM251.240234375 119.587890625H258.65234375V117.1171875H251.240234375ZM263.59375 127.0V114.646484375H275.947265625V117.1171875H266.064453125V127.0ZM278.41796875 127.0V124.529296875H288.30078125V122.05859375H278.41796875V114.646484375H290.771484375V117.1171875H280.888671875V119.587890625H290.771484375V127.0ZM306.943359375 124.529296875H314.35546875V122.05859375H306.943359375ZM304.47265625 127.0V119.587890625H314.35546875V117.1171875H304.47265625V114.646484375H316.826171875V127.0ZM332.998046875 124.529296875H340.41015625V117.1171875H332.998046875ZM330.52734375 127.0V114.646484375H342.880859375V131.94140625H340.41015625V127.0ZM345.3515625 127.0V114.646484375H347.822265625V124.529296875H355.234375V114.646484375H357.705078125V127.0ZM362.646484375 124.529296875H370.05859375V122.05859375H362.646484375ZM360.17578125 127.0V119.587890625H370.05859375V117.1171875H360.17578125V114.646484375H372.529296875V127.0ZM375.0 127.0V114.646484375H387.353515625V127.0H384.8828125V117.1171875H377.470703125V127.0ZM389.82421875 127.0V109.705078125H392.294921875V114.646484375H399.70703125V117.1171875H392.294921875V124.529296875H399.70703125V127.0ZM402.177734375 127.0V114.646484375H404.6484375V124.529296875H412.060546875V114.646484375H414.53125V127.0ZM417.001953125 127.0V114.646484375H429.35546875V127.0H426.884765625V117.1171875H424.4140625V127.0H421.943359375V117.1171875H419.47265625V127.0ZM431.826171875 119.587890625V117.1171875H444.1796875V119.587890625ZM449.12109375 124.529296875H456.533203125V117.1171875H449.12109375ZM446.650390625 127.0V114.646484375H456.533203125V109.705078125H459.00390625V127.0ZM461.474609375 127.0V114.646484375H473.828125V117.1171875H463.9453125V127.0ZM476.298828125 112.17578125V109.705078125H478.76953125V112.17578125ZM476.298828125 127.0V114.646484375H478.76953125V127.0ZM481.240234375 122.05859375V114.646484375H483.7109375V122.05859375ZM483.7109375 124.529296875V122.05859375H486.181640625V124.529296875ZM491.123046875 122.05859375V114.646484375H493.59375V122.05859375ZM488.65234375 124.529296875V122.05859375H491.123046875V124.529296875ZM486.181640625 127.0V124.529296875H488.65234375V127.0ZM496.064453125 127.0V114.646484375H508.41796875V122.05859375H498.53515625V124.529296875H508.41796875V127.0ZM498.53515625 119.587890625H505.947265625V117.1171875H498.53515625ZM524.58984375 124.529296875H532.001953125V117.1171875H524.58984375ZM522.119140625 131.94140625V114.646484375H534.47265625V127.0H524.58984375V131.94140625ZM536.943359375 127.0V114.646484375H549.296875V117.1171875H539.4140625V127.0ZM554.23828125 124.529296875H561.650390625V117.1171875H554.23828125ZM551.767578125 127.0V114.646484375H564.12109375V127.0ZM566.591796875 127.0V109.705078125H569.0625V114.646484375H576.474609375V117.1171875H569.0625V124.529296875H576.474609375V127.0ZM581.416015625 124.529296875H588.828125V117.1171875H581.416015625ZM578.9453125 127.0V114.646484375H591.298828125V127.0ZM593.76953125 127.0V109.705078125H596.240234375V114.646484375H603.65234375V117.1171875H596.240234375V124.529296875H603.65234375V127.0ZM606.123046875 127.0V114.646484375H608.59375V124.529296875H616.005859375V114.646484375H618.4765625V131.94140625H606.123046875V129.470703125H616.005859375V127.0ZM623.41796875 124.529296875H630.830078125V117.1171875H623.41796875ZM620.947265625 131.94140625V114.646484375H633.30078125V127.0H623.41796875V131.94140625ZM635.771484375 127.0V114.646484375H648.125V122.05859375H638.2421875V124.529296875H648.125V127.0ZM638.2421875 119.587890625H645.654296875V117.1171875H638.2421875Z" fill="#3a3f47"/><path d="M31.71875 158.125H40.3125V154.6875H31.71875ZM30.0 165.0V152.96875H42.03125V165.0H40.3125V159.84375H31.71875V165.0ZM43.75 165.0V152.96875H54.0625V158.125H55.78125V165.0ZM45.46875 158.125H52.34375V154.6875H45.46875ZM45.46875 163.28125H54.0625V159.84375H45.46875ZM57.5 165.0V152.96875H69.53125V154.6875H59.21875V163.28125H69.53125V165.0ZM81.5625 163.28125V154.6875H83.28125V163.28125ZM71.25 165.0V152.96875H81.5625V154.6875H72.96875V163.28125H81.5625V165.0ZM85.0 165.0V152.96875H97.03125V154.6875H86.71875V158.125H95.3125V159.84375H86.71875V163.28125H97.03125V165.0ZM98.75 165.0V152.96875H110.78125V154.6875H100.46875V158.125H109.0625V159.84375H100.46875V165.0ZM112.5 165.0V152.96875H124.53125V154.6875H114.21875V163.28125H122.8125V159.84375H119.375V158.125H124.53125V165.0ZM126.25 165.0V152.96875H127.96875V158.125H136.5625V152.96875H138.28125V165.0H136.5625V159.84375H127.96875V165.0ZM140.0 165.0V152.96875H141.71875V165.0ZM143.4375 165.0V159.84375H145.15625V163.28125H153.75V152.96875H155.46875V165.0ZM164.0625 161.5625V159.84375H165.78125V161.5625ZM165.78125 156.40625V152.96875H167.5V156.40625ZM164.0625 158.125V156.40625H165.78125V158.125ZM165.78125 163.28125V161.5625H167.5V163.28125ZM167.5 165.0V163.28125H169.21875V165.0ZM157.1875 165.0V152.96875H158.90625V158.125H164.0625V159.84375H158.90625V165.0ZM170.9375 165.0V152.96875H172.65625V163.28125H182.96875V165.0ZM184.6875 165.0V152.96875H196.71875V165.0H195.0V154.6875H191.5625V165.0H189.84375V154.6875H186.40625V165.0ZM201.875 158.125V156.40625H203.59375V158.125ZM203.59375 159.84375V158.125H205.3125V159.84375ZM205.3125 161.5625V159.84375H207.03125V161.5625ZM207.03125 163.28125V161.5625H208.75V152.96875H210.46875V165.0H208.75V163.28125ZM198.4375 165.0V152.96875H200.15625V154.6875H201.875V156.40625H200.15625V165.0ZM213.90625 163.28125H222.5V154.6875H213.90625ZM212.1875 165.0V152.96875H224.21875V165.0ZM227.65625 158.125H236.25V154.6875H227.65625ZM225.9375 165.0V152.96875H237.96875V159.84375H227.65625V165.0ZM241.40625 163.28125H246.5625V159.84375H248.28125V163.28125H250.0V154.6875H241.40625ZM239.6875 165.0V152.96875H251.71875V165.0ZM253.4375 165.0V152.96875H263.75V158.125H265.46875V165.0H263.75V159.84375H255.15625V165.0ZM255.15625 158.125H262.03125V154.6875H255.15625ZM267.1875 165.0V163.28125H277.5V159.84375H267.1875V152.96875H279.21875V154.6875H268.90625V158.125H279.21875V165.0ZM280.9375 154.6875V152.96875H292.96875V154.6875H287.8125V165.0H286.09375V154.6875ZM294.6875 165.0V152.96875H296.40625V163.28125H305.0V152.96875H306.71875V165.0ZM317.03125 161.5625V159.84375H318.75V161.5625ZM315.3125 163.28125V161.5625H317.03125V163.28125ZM313.59375 165.0V163.28125H315.3125V165.0ZM311.875 163.28125V161.5625H313.59375V163.28125ZM310.15625 161.5625V159.84375H311.875V161.5625ZM308.4375 159.84375V152.96875H310.15625V159.84375ZM318.75 159.84375V152.96875H320.46875V159.84375ZM322.1875 165.0V152.96875H323.90625V163.28125H327.34375V154.6875H329.0625V163.28125H332.5V152.96875H334.21875V165.0ZM346.25 165.0V163.28125H347.96875V165.0ZM346.25 154.6875V152.96875H347.96875V154.6875ZM335.9375 154.6875V152.96875H337.65625V154.6875ZM335.9375 165.0V163.28125H337.65625V165.0ZM344.53125 163.28125V161.5625H346.25V163.28125ZM342.8125 161.5625V159.84375H344.53125V161.5625ZM337.65625 156.40625V154.6875H339.375V156.40625ZM339.375 158.125V156.40625H341.09375V158.125ZM344.53125 156.40625V154.6875H346.25V156.40625ZM342.8125 158.125V156.40625H344.53125V158.125ZM341.09375 159.84375V158.125H342.8125V159.84375ZM339.375 161.5625V159.84375H341.09375V161.5625ZM337.65625 163.28125V161.5625H339.375V163.28125ZM356.5625 159.84375V158.125H360.0V159.84375ZM351.40625 159.84375V158.125H354.84375V159.84375ZM360.0 158.125V152.96875H361.71875V158.125ZM354.84375 165.0V159.84375H356.5625V165.0ZM349.6875 158.125V152.96875H351.40625V158.125ZM370.3125 158.125V156.40625H372.03125V158.125ZM368.59375 159.84375V158.125H370.3125V159.84375ZM366.875 161.5625V159.84375H368.59375V161.5625ZM363.4375 165.0V163.28125H365.15625V161.5625H366.875V163.28125H375.46875V165.0ZM363.4375 154.6875V152.96875H375.46875V154.6875H373.75V156.40625H372.03125V154.6875Z" fill="#6b7280"/><path d="M31.71875 192.28125H36.875V190.5625H31.71875ZM30.0 194.0V188.84375H36.875V187.125H30.0V185.40625H38.59375V194.0ZM42.03125 192.28125H47.1875V187.125H42.03125ZM40.3125 194.0V181.96875H42.03125V185.40625H48.90625V194.0ZM50.625 194.0V185.40625H59.21875V187.125H52.34375V192.28125H59.21875V194.0ZM62.65625 192.28125H67.8125V187.125H62.65625ZM60.9375 194.0V185.40625H67.8125V181.96875H69.53125V194.0ZM71.25 194.0V185.40625H79.84375V190.5625H72.96875V192.28125H79.84375V194.0ZM72.96875 188.84375H78.125V187.125H72.96875ZM81.5625 197.4375V185.40625H88.4375V187.125H83.28125V192.28125H88.4375V194.0H83.28125V197.4375ZM91.875 192.28125H97.03125V187.125H91.875ZM90.15625 194.0V185.40625H98.75V197.4375H90.15625V195.71875H97.03125V194.0ZM100.46875 194.0V181.96875H102.1875V185.40625H109.0625V194.0H107.34375V187.125H102.1875V194.0ZM110.78125 183.6875V181.96875H112.5V183.6875ZM110.78125 194.0V185.40625H112.5V194.0ZM114.21875 183.6875V181.96875H115.9375V183.6875ZM114.21875 197.4375V185.40625H115.9375V197.4375ZM124.53125 187.125V185.40625H126.25V187.125ZM122.8125 188.84375V187.125H124.53125V188.84375ZM122.8125 192.28125V190.5625H124.53125V192.28125ZM124.53125 194.0V192.28125H126.25V194.0ZM117.65625 194.0V181.96875H119.375V188.84375H122.8125V190.5625H119.375V194.0ZM127.96875 194.0V181.96875H129.6875V194.0ZM131.40625 194.0V185.40625H140.0V194.0H138.28125V187.125H136.5625V194.0H134.84375V187.125H133.125V194.0ZM141.71875 194.0V185.40625H150.3125V194.0H148.59375V187.125H143.4375V194.0ZM153.75 192.28125H158.90625V187.125H153.75ZM152.03125 194.0V185.40625H160.625V194.0ZM164.0625 192.28125H169.21875V187.125H164.0625ZM162.34375 197.4375V185.40625H170.9375V194.0H164.0625V197.4375ZM174.375 192.28125H179.53125V187.125H174.375ZM172.65625 194.0V185.40625H181.25V197.4375H179.53125V194.0ZM182.96875 194.0V185.40625H191.5625V187.125H184.6875V194.0ZM193.28125 194.0V192.28125H200.15625V190.5625H193.28125V185.40625H201.875V187.125H195.0V188.84375H201.875V194.0ZM203.59375 194.0V181.96875H205.3125V185.40625H210.46875V187.125H205.3125V192.28125H210.46875V194.0ZM212.1875 194.0V185.40625H213.90625V192.28125H219.0625V185.40625H220.78125V194.0ZM222.5 190.5625V185.40625H224.21875V190.5625ZM224.21875 192.28125V190.5625H225.9375V192.28125ZM229.375 190.5625V185.40625H231.09375V190.5625ZM227.65625 192.28125V190.5625H229.375V192.28125ZM225.9375 194.0V192.28125H227.65625V194.0ZM232.8125 194.0V185.40625H234.53125V192.28125H236.25V187.125H237.96875V192.28125H239.6875V185.40625H241.40625V194.0ZM250.0 194.0V192.28125H251.71875V194.0ZM248.28125 192.28125V190.5625H250.0V192.28125ZM243.125 187.125V185.40625H244.84375V187.125ZM244.84375 188.84375V187.125H246.5625V188.84375ZM250.0 187.125V185.40625H251.71875V187.125ZM248.28125 188.84375V187.125H250.0V188.84375ZM246.5625 190.5625V188.84375H248.28125V190.5625ZM244.84375 192.28125V190.5625H246.5625V192.28125ZM243.125 194.0V192.28125H244.84375V194.0ZM253.4375 194.0V185.40625H255.15625V192.28125H260.3125V185.40625H262.03125V197.4375H253.4375V195.71875H260.3125V194.0ZM267.1875 190.5625V188.84375H268.90625V190.5625ZM263.75 194.0V192.28125H265.46875V190.5625H267.1875V192.28125H272.34375V194.0ZM263.75 187.125V185.40625H272.34375V187.125H270.625V188.84375H268.90625V187.125ZM291.40625 192.28125H300.0V183.6875H291.40625ZM289.6875 194.0V181.96875H301.71875V194.0ZM303.4375 183.6875V181.96875H308.59375V194.0H306.875V183.6875ZM310.3125 194.0V187.125H320.625V183.6875H310.3125V181.96875H322.34375V188.84375H312.03125V192.28125H322.34375V194.0ZM324.0625 194.0V192.28125H334.375V188.84375H325.78125V187.125H334.375V183.6875H324.0625V181.96875H336.09375V194.0ZM337.8125 188.84375V181.96875H339.53125V187.125H348.125V181.96875H349.84375V194.0H348.125V188.84375ZM351.5625 194.0V192.28125H361.875V188.84375H351.5625V181.96875H363.59375V183.6875H353.28125V187.125H363.59375V194.0ZM365.3125 194.0V181.96875H377.34375V183.6875H367.03125V187.125H377.34375V194.0ZM367.03125 192.28125H375.625V188.84375H367.03125ZM379.0625 183.6875V181.96875H391.09375V194.0H389.375V183.6875ZM392.8125 194.0V181.96875H404.84375V194.0ZM394.53125 187.125H403.125V183.6875H394.53125ZM394.53125 192.28125H403.125V188.84375H394.53125ZM406.5625 194.0V192.28125H416.875V188.84375H406.5625V181.96875H418.59375V194.0ZM408.28125 187.125H416.875V183.6875H408.28125ZM441.09375 187.125H442.8125V185.40625H441.09375ZM437.65625 190.5625H439.375V188.84375H437.65625ZM435.9375 192.28125V187.125H439.375V183.6875H444.53125V188.84375H441.09375V190.5625H444.53125V192.28125H441.09375V194.0H439.375V192.28125ZM446.25 194.0V192.28125H447.96875V194.0ZM449.6875 195.71875V192.28125H451.40625V195.71875ZM453.125 194.0V192.28125H454.84375V194.0ZM453.125 190.5625V181.96875H454.84375V190.5625ZM460.0 194.0V192.28125H461.71875V194.0ZM456.5625 187.125V185.40625H465.15625V190.5625H460.0V188.84375H463.4375V187.125Z" fill="#6b7280"/></svg>