<svg xmlns="http://www.w3.org/2000/svg" viewBox="0 0 551.4 222.0" width="551" height="222"><path d="M58.29 45.824V50.332H47.617999999999995V76.0H43.202V50.332H32.53V45.824ZM84.694 45.824 89.11 50.332V58.704L84.878 62.89L89.11 67.122V76.0H84.694V69.33L78.438 63.120000000000005H67.766V76.0H63.35V45.824ZM84.694 56.495999999999995V52.448L82.486 50.332H67.766V58.704H82.486ZM115.514 45.824 119.93 50.332V76.0H115.514V69.33H98.586V76.0H94.17V50.332L98.586 45.824ZM115.514 64.914V52.448L113.306 50.332H100.794L98.586 52.448V64.914ZM146.24200000000002 45.824 150.65800000000002 50.332V54.656H146.24200000000002V52.448L144.034 50.332H131.614L129.406 52.448V69.33L131.614 71.538H144.034L146.24200000000002 69.33V67.122H150.65800000000002V71.538L146.24200000000002 75.954H129.406L124.99000000000001 71.538V50.332L129.406 45.824ZM181.478 50.332H160.13400000000001V58.704H181.478V63.120000000000005H160.13400000000001V71.584H181.478V76.0H155.71800000000002V45.824H181.478ZM207.882 45.824 212.298 50.332V58.704L208.066 62.89L212.298 67.122V76.0H207.882V69.33L201.626 63.120000000000005H190.954V76.0H186.538V45.824ZM207.882 56.495999999999995V52.448L205.674 50.332H190.954V58.704H205.674ZM238.702 45.824 243.118 50.332V71.584L238.702 76.0H221.774L217.358 71.584V50.332L221.774 45.824ZM238.702 69.33V52.448L236.494 50.332H223.982L221.774 52.448V69.33L223.982 71.584H236.494ZM269.522 45.824H273.938V71.584L269.522 76.0H252.594L248.178 71.584V45.824H252.594V69.33L254.802 71.584H267.314L269.522 69.33ZM304.75800000000004 45.824V50.332H294.086V76.0H289.67V50.332H278.998V45.824ZM335.57800000000003 50.332H314.23400000000004V58.704H335.57800000000003V63.120000000000005H314.23400000000004V71.584H335.57800000000003V76.0H309.818V45.824H335.57800000000003Z" fill="#12151a"/><path d="M41.937 111.912H44.144999999999996V127.0H41.937V120.56H33.473V127.0H31.265V111.912H33.473V118.352H41.937ZM57.346999999999994 111.912 59.55499999999999 114.166V124.792L57.346999999999994 127.0H46.675V111.912ZM57.346999999999994 123.665V115.224L56.242999999999995 114.166H48.882999999999996V124.792H56.242999999999995ZM70.779 114.166H79.887V116.328H71.883L70.779 117.432V127.0H68.571V116.328ZM91.525 114.166 93.733 116.328V120.56L91.525 122.768H84.625V123.665L85.729 124.792H92.629V127.0H84.625L82.417 124.792V116.328L84.625 114.166ZM91.525 119.456V117.432L90.421 116.328H85.729L84.625 117.432V120.56H90.421ZM98.494 127.0V111.912H96.263V127.0ZM110.132 114.166 112.34 116.328V127.0H103.232L101.024 124.792V120.56L103.232 118.352H110.132V117.432L109.028 116.328H102.128V114.166ZM110.132 124.792V120.56H104.336L103.232 121.664V123.665L104.336 124.792ZM126.186 114.189V129.277L123.97800000000001 131.485H115.974V129.277H122.87400000000001L123.97800000000001 128.173V127.069H117.078L114.87 124.861V114.189H117.078V123.757L118.182 124.861H123.97800000000001V114.189ZM132.02800000000002 116.328 130.924 117.432V118.352L132.02800000000002 119.456H137.824L140.032 121.664V124.792L137.824 127.0H128.716V124.792H136.72L137.824 123.665V122.561L136.72 121.664H130.924L128.716 119.456V116.328L130.924 114.166H140.032V116.328ZM151.256 114.166H160.36399999999998V116.328H152.35999999999999L151.256 117.432V127.0H149.04799999999997V116.328ZM172.00199999999998 114.166 174.20999999999998 116.328V124.792L172.00199999999998 127.0H165.102L162.89399999999998 124.792V116.328L165.102 114.166ZM172.00199999999998 123.665V117.432L170.898 116.328H166.206L165.102 117.432V123.665L166.206 124.792H170.898ZM185.84799999999998 114.166H188.05599999999998V127.0H178.948L176.73999999999998 124.792V114.166H178.948V123.665L180.052 124.792H185.84799999999998ZM201.902 116.328H192.794V123.665L193.898 124.792H201.902V127.0H192.794L190.58599999999998 124.792V111.912H192.794V114.166H201.902ZM213.54 114.166 215.748 116.328V120.56L213.54 122.768H206.64000000000001V123.665L207.744 124.792H214.644V127.0H206.64000000000001L204.432 124.792V116.328L206.64000000000001 114.166ZM213.54 119.456V117.432L212.436 116.328H207.744L206.64000000000001 117.432V120.56H212.436ZM226.972 114.166H236.07999999999998V116.328H228.076L226.972 117.432V127.0H224.76399999999998V116.328ZM247.718 114.166 249.926 116.328V127.0H240.818L238.60999999999999 124.792V120.56L240.818 118.352H247.718V117.432L246.614 116.328H239.714V114.166ZM247.718 124.792V120.56H241.922L240.818 121.664V123.665L241.922 124.792ZM255.768 116.328 254.66400000000002 117.432V123.665L255.768 124.792H263.772V127.0H254.66400000000002L252.456 124.792V116.328L254.66400000000002 114.166H263.772V116.328ZM275.40999999999997 114.166 277.618 116.328V120.56L275.40999999999997 122.768H268.51V123.665L269.614 124.792H276.51399999999995V127.0H268.51L266.30199999999996 124.792V116.328L268.51 114.166ZM275.40999999999997 119.456V117.432L274.306 116.328H269.614L268.51 117.432V120.56H274.306ZM282.356 114.166H291.464V116.328H283.46L282.356 117.432V127.0H280.14799999999997V116.328ZM297.306 116.328 296.202 117.432V118.352L297.306 119.456H303.102L305.31 121.664V124.792L303.102 127.0H293.99399999999997V124.792H301.998L303.102 123.665V122.561L301.998 121.664H296.202L293.99399999999997 119.456V116.328L296.202 114.166H305.31V116.328ZM325.642 116.328H316.534V123.665L317.638 124.792H325.642V127.0H316.534L314.32599999999996 124.792V111.912H316.534V114.166H325.642ZM337.28 114.166 339.488 116.328V127.0H337.28V117.432L336.176 116.328H330.38V127.0H328.17199999999997V111.912H330.38V114.166ZM344.226 114.166H353.334V116.328H345.33L344.226 117.432V127.0H342.018V116.328ZM364.972 114.166 367.18 116.328V124.792L364.972 127.0H358.072L355.864 124.792V116.328L358.072 114.166ZM364.972 123.665V117.432L363.868 116.328H359.176L358.072 117.432V123.665L359.176 124.792H363.868ZM378.818 114.166H381.026V127.0H371.918L369.71 124.792V114.166H371.918V123.665L373.022 124.792H378.818ZM392.664 114.189 394.872 116.397V129.254L392.664 131.485H384.65999999999997V129.254H391.56L392.664 128.15V127.046H385.764L383.556 124.838V116.397L385.764 114.189ZM392.664 124.838V117.501L391.56 116.397H386.868L385.764 117.501V123.734L386.868 124.838ZM406.51 114.166 408.718 116.328V127.0H406.51V117.432L405.406 116.328H399.61V127.0H397.402V111.912H399.61V114.166ZM429.05 116.328H419.942V123.665L421.046 124.792H429.05V127.0H419.942L417.734 124.792V111.912H419.942V114.166H429.05ZM440.688 114.166 442.896 116.328V127.0H440.688V117.432L439.584 116.328H433.788V127.0H431.58V111.912H433.788V114.166ZM454.534 114.166 456.742 116.328V120.56L454.534 122.768H447.634V123.665L448.738 124.792H455.638V127.0H447.634L445.426 124.792V116.328L447.634 114.166ZM454.534 119.456V117.432L453.43 116.328H448.738L447.634 117.432V120.56H453.43ZM478.638 111.912V114.166L468.955 124.792H478.638V127.0H465.758V124.792L475.418 114.166H465.758V111.912ZM490.276 114.166 492.48400000000004 116.328V124.792L490.276 127.0H483.37600000000003L481.168 124.792V116.328L483.37600000000003 114.166ZM490.276 123.665V117.432L489.172 116.328H484.48L483.37600000000003 117.432V123.665L484.48 124.792H489.172ZM497.22200000000004 114.166H506.33000000000004V127.0H504.122V116.328H498.326L497.22200000000004 117.432V127.0H495.014V116.328ZM517.9680000000001 114.166 520.176 116.328V120.56L517.9680000000001 122.768H511.06800000000004V123.665L512.172 124.792H519.072V127.0H511.06800000000004L508.86 124.792V116.328L511.06800000000004 114.166ZM517.9680000000001 119.456V117.432L516.864 116.328H512.172L511.06800000000004 117.432V120.56H516.864Z" fill="#3a3f47"/><path d="M38.304 154.504 39.84 156.072V165.0H38.304V162.68H32.416V165.0H30.88V156.072L32.416 154.504ZM38.304 161.144V156.808L37.536 156.072H33.184L32.416 156.808V161.144ZM49.024 154.504 50.56 156.072V158.984L49.792 159.752L50.56 160.52V163.464L49.024 165.0H41.6V154.504ZM48.256 163.464 49.024 162.68V161.288L48.256 160.52H43.135999999999996V163.464ZM49.024 158.216V156.808L48.256 156.072H43.135999999999996V158.984H48.256ZM59.711999999999996 154.504 61.248 156.072V157.576H59.711999999999996V156.808L58.943999999999996 156.072H54.623999999999995L53.855999999999995 156.808V162.68L54.623999999999995 163.448H58.943999999999996L59.711999999999996 162.68V161.912H61.248V163.448L59.711999999999996 164.984H53.855999999999995L52.32 163.448V156.072L53.855999999999995 154.504ZM70.432 154.504 71.968 156.072V163.464L70.432 165.0H63.008V154.504ZM70.432 162.68V156.808L69.664 156.072H64.544V163.464H69.664ZM82.688 156.072H75.264V158.984H82.688V160.52H75.264V163.464H82.688V165.0H73.728V154.504H82.688ZM93.408 156.072H85.984V158.984H93.408V160.52H85.984V165.0H84.448V154.504H93.408ZM102.592 154.504 104.128 156.072V157.576H102.592V156.808L101.824 156.072H97.472L96.704 156.808V162.68L97.472 163.464H101.824L102.592 162.68V160.52H98.256V158.984H104.128V163.464L102.592 165.0H96.704L95.16799999999999 163.464V156.072L96.704 154.504ZM113.312 154.504H114.848V165.0H113.312V160.52H107.42399999999999V165.0H105.88799999999999V154.504H107.42399999999999V158.984H113.312ZM121.856 163.464H125.568V165.0H116.60799999999999V163.464H120.32V154.504H121.856ZM134.75199999999998 154.504H136.28799999999998V163.464L134.75199999999998 165.0H128.864L127.32799999999999 163.464V161.912H128.864V162.68L129.632 163.464H133.98399999999998L134.75199999999998 162.68ZM143.28 158.216H143.312L147.008 161.912V165.0H145.472V162.664L142.144 159.352L139.584 161.896V165.0H138.048V154.504H139.584V159.608L144.68800000000002 154.504H147.008ZM150.304 163.464H157.728V165.0H148.768V154.504H150.304ZM168.448 154.504H169.984V165.0H168.448V156.792L165.44 159.752V165.0H163.904V159.752L161.024 156.84V165.0H159.488V154.504H161.024L164.736 158.216ZM179.168 154.504H180.704V165.0H179.168L173.28 157.288V165.0H171.744V154.504H173.28L179.168 162.216ZM189.888 154.504 191.424 156.072V163.464L189.888 165.0H184.0L182.464 163.464V156.072L184.0 154.504ZM189.888 162.68V156.808L189.12 156.072H184.768L184.0 156.808V162.68L184.768 163.464H189.12ZM200.608 154.504 202.144 156.072V158.984L200.608 160.52H194.72V165.0H193.184V154.504ZM200.608 158.216V156.808L199.84 156.072H194.72V158.984H199.84ZM211.328 154.504 212.864 156.072V163.464L211.328 165.0L212.4 166.072L211.312 167.16L209.152 165.0H205.44L203.904 163.464V156.072L205.44 154.504ZM211.328 162.68V156.808L210.56 156.072H206.208L205.44 156.808V162.68L206.208 163.464H210.56ZM222.048 154.504 223.584 156.072V158.984L222.112 160.44L223.584 161.912V165.0H222.048V162.68L219.872 160.52H216.16V165.0H214.624V154.504ZM222.048 158.216V156.808L221.28 156.072H216.16V158.984H221.28ZM232.72 154.504 234.304 156.072V157.576H232.768V156.808L232.032 156.072H227.61599999999999L226.88 156.808V158.216L227.68 158.984H232.768L234.304 160.536V163.464L232.768 165.0H226.88L225.344 163.464V161.912H226.88V162.68L227.648 163.464H232.0L232.768 162.68V161.288L231.968 160.52H226.88L225.344 158.952V156.04L226.88 154.504ZM245.024 154.504V156.072H241.312V165.0H239.776V156.072H236.064V154.504ZM254.208 154.504H255.744V163.464L254.208 165.0H248.32L246.784 163.464V154.504H248.32V162.68L249.088 163.464H253.44L254.208 162.68ZM266.464 154.504V162.68H266.44800000000004L266.464 162.696L262.672 165.064H261.136L257.504 162.68V154.504H259.05600000000004V161.912L261.56800000000004 163.512H262.24L264.91200000000003 161.864H264.928V154.504ZM277.184 154.504H278.72V165.0H277.184L273.47200000000004 161.288L269.76000000000005 165.0H268.22400000000005V154.504H269.76000000000005V162.664L272.64000000000004 159.752V154.504H274.17600000000004V159.752L277.184 162.712ZM289.44 154.504V156.072L286.08000000000004 159.752L289.44 163.464V165.0H287.904V164.216L284.96000000000004 160.968L282.016 164.216V165.0H280.48V163.464L283.84000000000003 159.752L280.48 156.072V154.504H282.016V155.272L284.96000000000004 158.52L287.904 155.272V154.504ZM298.624 154.504H300.16V163.464L298.624 165.0H291.20000000000005V163.464H297.85600000000005L298.624 162.68V161.912H292.73600000000005L291.20000000000005 160.376V154.504H292.73600000000005V159.608L293.5040000000001 160.376H298.624ZM310.88000000000005 154.504V156.072L304.14400000000006 163.464H310.88000000000005V165.0H301.9200000000001V163.464L308.6400000000001 156.072H301.9200000000001V154.504Z" fill="#6b7280"/><path d="M37.216 185.072 38.752 186.576V194.0H32.416L30.88 192.464V189.52L32.416 187.984H37.216V187.344L36.448 186.576H31.648V185.072ZM37.216 192.464V189.52H33.184L32.416 190.288V191.68L33.184 192.464ZM46.848 185.072 48.384 186.576V192.464L46.848 194.0H40.512V183.504H42.047999999999995V185.072ZM46.848 191.68V187.344L46.08 186.576H42.047999999999995V192.464H46.08ZM52.44799999999999 186.576 51.67999999999999 187.344V191.68L52.44799999999999 192.464H58.016V194.0H51.67999999999999L50.144 192.464V186.576L51.67999999999999 185.072H58.016V186.576ZM66.112 183.504H67.648V194.0H61.31199999999999L59.775999999999996 192.464V186.576L61.31199999999999 185.072H66.112ZM66.112 192.464V186.576H62.07999999999999L61.31199999999999 187.344V191.68L62.07999999999999 192.464ZM75.74399999999999 185.072 77.27999999999999 186.576V189.52L75.74399999999999 191.056H70.94399999999999V191.68L71.71199999999999 192.464H76.51199999999999V194.0H70.94399999999999L69.40799999999999 192.464V186.576L70.94399999999999 185.072ZM75.74399999999999 188.752V187.344L74.976 186.576H71.71199999999999L70.94399999999999 187.344V189.52H74.976ZM81.344 186.592 80.576 187.36V192.4H86.91199999999999V194.0H80.576V197.088H79.03999999999999V186.592L80.576 185.072H86.91199999999999V186.592ZM95.008 185.088 96.544 186.624V195.568L95.008 197.12H89.44V195.568H94.24000000000001L95.008 194.8V194.032H90.208L88.672 192.496V186.624L90.208 185.088ZM95.008 192.496V187.392L94.24000000000001 186.624H90.976L90.208 187.392V191.728L90.976 192.496ZM104.64 185.072 106.176 186.576V194.0H104.64V187.344L103.87200000000001 186.576H99.84V194.0H98.304V183.504H99.84V185.072ZM109.48800000000001 185.072V183.504H107.936V185.072ZM107.936 194.0V185.808H109.48800000000001V194.0ZM112.70400000000001 183.504H114.16000000000001V184.96H112.70400000000001ZM112.70400000000001 194.096V185.68H114.16000000000001V194.832L112.70400000000001 196.272H111.248V194.832H111.98400000000001ZM120.84800000000001 187.984 123.792 190.912V194.0H122.256V191.552L119.76 189.072L117.456 191.376V194.0H115.92V183.504H117.456V189.2L120.688 185.952V185.072H122.256V186.576ZM127.10400000000001 194.0V183.504H125.552V194.0ZM136.73600000000002 185.072 138.27200000000002 186.576V194.0H136.73600000000002V187.344L135.96800000000002 186.576H134.336V194.0H132.8V186.576H130.4V194.0H128.864V185.072ZM141.568 185.072H147.90400000000002V194.0H146.36800000000002V186.576H142.336L141.568 187.344V194.0H140.032V186.576ZM156.00000000000003 185.072 157.53600000000003 186.576V192.464L156.00000000000003 194.0H151.20000000000002L149.66400000000002 192.464V186.576L151.20000000000002 185.072ZM156.00000000000003 191.68V187.344L155.23200000000003 186.576H151.96800000000002L151.20000000000002 187.344V191.68L151.96800000000002 192.464H155.23200000000003ZM165.63200000000003 185.072 167.16800000000003 186.608V192.48L165.63200000000003 194.016H160.83200000000002V197.104H159.29600000000002V185.072ZM165.63200000000003 191.712V187.376L164.86400000000003 186.608H160.83200000000002V192.48H164.86400000000003ZM170.46400000000003 185.008H176.80000000000004V197.04H175.26400000000004V193.952H170.46400000000003L168.92800000000003 192.416V186.544ZM175.26400000000004 192.416V186.544H171.23200000000003L170.46400000000003 187.312V191.648L171.23200000000003 192.416ZM180.09600000000003 185.072H186.43200000000004V186.576H180.86400000000003L180.09600000000003 187.344V194.0H178.56000000000003V186.576ZM190.49600000000004 186.576 189.72800000000004 187.344V187.984L190.49600000000004 188.752H194.52800000000005L196.06400000000005 190.288V192.464L194.52800000000005 194.0H188.19200000000004V192.464H193.76000000000005L194.52800000000005 191.68V190.912L193.76000000000005 190.288H189.72800000000004L188.19200000000004 188.752V186.576L189.72800000000004 185.072H196.06400000000005V186.576ZM205.69600000000005 186.576H199.36000000000004V191.68L200.12800000000004 192.464H205.69600000000005V194.0H199.36000000000004L197.82400000000004 192.464V183.504H199.36000000000004V185.072H205.69600000000005ZM213.79200000000006 185.072H215.32800000000006V194.0H208.99200000000005L207.45600000000005 192.464V185.072H208.99200000000005V191.68L209.76000000000005 192.464H213.79200000000006ZM224.96000000000006 185.072V191.616H224.94400000000005L224.96000000000006 191.632L222.56000000000006 194.0L222.54400000000007 193.984H219.48800000000006L217.08800000000005 191.616V185.072H218.64000000000004V190.848L220.28800000000007 192.48H221.69600000000005L223.40800000000004 190.784L223.42400000000006 190.8V185.072ZM234.59200000000007 185.072H236.12800000000007V194.0H228.25600000000006L226.72000000000006 192.464V185.072H228.25600000000006V191.68L229.02400000000006 192.464H230.65600000000006V185.072H232.19200000000006V192.464H234.59200000000007ZM245.76000000000008 185.072V186.576L242.96000000000006 189.52L245.76000000000008 192.464V194.0H244.22400000000007V193.216L241.82400000000007 190.704L239.42400000000006 193.216V194.0H237.88800000000006V192.464L240.68800000000007 189.52L237.88800000000006 186.576V185.072H239.42400000000006V185.808L241.82400000000007 188.32L244.22400000000007 185.808V185.072ZM255.39200000000008 185.088V195.584L253.85600000000008 197.12H248.28800000000007V195.584H253.08800000000008L253.85600000000008 194.816V194.048H249.05600000000007L247.52000000000007 192.512V185.088H249.05600000000007V191.744L249.82400000000007 192.512H253.85600000000008V185.088ZM265.02400000000006 185.072V186.576L259.4080000000001 192.464H265.02400000000006V194.0H257.15200000000004V192.464L262.75200000000007 186.576H257.15200000000004V185.072ZM282.14400000000006 183.504 283.68000000000006 185.072V192.464L282.14400000000006 194.0H277.34400000000005L275.80800000000005 192.464V185.072L277.34400000000005 183.504ZM282.14400000000006 191.68V185.808L281.37600000000003 185.072H278.1120000000001L277.34400000000005 185.808V191.68L278.1120000000001 192.464H281.37600000000003ZM285.44000000000005 183.504H287.76000000000005V194.0H286.2080000000001V185.072H285.44000000000005ZM295.85600000000005 183.504 297.39200000000005 185.072V187.984L295.85600000000005 189.52H291.82400000000007L291.05600000000004 190.288V192.464H297.39200000000005V194.0H289.52000000000004V189.52L291.05600000000004 187.984H295.088L295.85600000000005 187.216V185.808L295.088 185.072H289.52000000000004V183.504ZM305.48800000000006 183.504 307.02400000000006 185.072V187.984L306.25600000000003 188.752L307.02400000000006 189.52V192.464L305.48800000000006 194.0H299.15200000000004V192.464H304.72L305.48800000000006 191.68V190.288L304.72 189.52H299.15200000000004V187.984H304.72L305.48800000000006 187.216V185.808L304.72 185.072H299.15200000000004V183.504ZM315.12000000000006 186.576H316.65600000000006V194.0H315.12000000000006V191.056H308.78400000000005V188.752L313.58400000000006 184.272V183.504H315.12000000000006V185.072L310.32000000000005 189.52H315.12000000000006ZM326.28800000000007 185.072H319.95200000000006V187.216L320.7200000000001 187.984H324.75200000000007L326.28800000000007 189.52V192.464L324.75200000000007 194.0H318.41600000000005V192.464H323.98400000000004L324.75200000000007 191.68V190.288L323.98400000000004 189.52H319.95200000000006L318.41600000000005 187.984V183.504H326.28800000000007ZM330.3520000000001 185.072 329.58400000000006 185.808V187.984H334.38400000000007L335.9200000000001 189.52V192.464L334.38400000000007 194.0H329.58400000000006L328.04800000000006 192.464V185.072L329.58400000000006 183.504H335.9200000000001V185.072ZM334.38400000000007 190.288 333.61600000000004 189.52H329.58400000000006V191.68L330.3520000000001 192.464H333.61600000000004L334.38400000000007 191.68ZM337.68000000000006 183.504H345.5520000000001V185.072L339.21600000000007 193.232V194.0H337.68000000000006V192.464L343.4240000000001 185.072H337.68000000000006ZM353.6480000000001 183.504 355.1840000000001 185.072V187.984L354.41600000000005 188.752L355.1840000000001 189.52V192.464L353.6480000000001 194.0H348.84800000000007L347.31200000000007 192.464V189.52L348.0800000000001 188.752L347.31200000000007 187.984V185.072L348.84800000000007 183.504ZM352.88000000000005 192.464 353.6480000000001 191.68V190.288L352.88000000000005 189.52H349.6160000000001L348.84800000000007 190.144V191.68L349.6160000000001 192.464ZM353.6480000000001 187.216V185.808L352.88000000000005 185.072H349.6160000000001L348.84800000000007 185.808V187.216L349.6160000000001 187.984H352.88000000000005ZM363.2800000000001 183.504 364.8160000000001 185.072V192.464L363.2800000000001 194.0H356.9440000000001V192.464H362.51200000000006L363.2800000000001 191.68V189.52H358.4800000000001L356.9440000000001 187.984V185.072L358.4800000000001 183.504ZM363.2800000000001 187.984V185.808L362.51200000000006 185.072H359.2480000000001L358.4800000000001 185.808V187.216L359.2480000000001 187.984ZM375.6000000000001 194.0V192.464H377.1360000000001V194.0ZM380.0800000000001 183.504 381.6160000000001 185.072V187.984L380.0800000000001 189.52H377.9040000000001L377.1360000000001 190.288V191.68H375.6000000000001V189.52L377.1360000000001 187.984H379.31200000000007L380.0800000000001 187.216V185.808L379.31200000000007 185.072H375.6000000000001V183.504ZM384.9280000000001 194.0V192.464H383.3760000000001V194.0ZM388.2400000000001 195.216 387.0720000000001 195.984 386.6880000000001 195.6V193.36H388.2400000000001ZM390.0000000000001 194.0V192.464H391.55200000000013V194.0ZM390.0000000000001 183.504H391.55200000000013V191.68H390.0000000000001ZM393.3120000000001 194.0V192.464H394.8480000000001V194.0ZM397.79200000000014 183.504 399.32800000000015 185.072V187.984L397.79200000000014 189.52H395.61600000000016L394.8480000000001 190.288V191.68H393.3120000000001V189.52L394.8480000000001 187.984H397.0240000000001L397.79200000000014 187.216V185.808L397.0240000000001 185.072H393.3120000000001V183.504Z" fill="#6b7280"/></svg>