<svg xmlns="http://www.w3.org/2000/svg" viewBox="0 0 526.5 222.0" width="526" height="222"><path d="M35.75 76.0 34.3125 74.5625 32.875 73.125 31.4375 71.6875 30.0 70.25V58.75H35.75V67.375L37.1875 68.8125L38.625 70.25H39.34375V64.5H45.09375V70.25H45.8125L47.25 68.8125L48.6875 67.375V61.625H54.4375V70.25L53.0 71.6875L51.5625 73.125L50.125 74.5625L48.6875 76.0ZM61.625 76.0 60.1875 74.5625 58.75 73.125 57.3125 71.6875 55.875 70.25V63.0625H61.625V67.375L63.0625 68.8125L64.5 70.25V76.0ZM55.875 61.625V55.875H61.625V61.625ZM65.9375 84.625V76.0L67.375 74.5625L68.8125 73.125L70.25 71.6875L71.6875 70.25H84.625L83.1875 68.8125L81.75 67.375H65.9375V61.625H84.625L86.0625 63.0625L87.5 64.5L88.9375 65.9375L90.375 67.375V76.0H74.5625L73.125 77.4375L71.6875 78.875V84.625ZM97.5625 76.0 96.125 74.5625 94.6875 73.125 93.25 71.6875 91.8125 70.25V61.625H97.5625V58.75L99.0 57.3125L100.4375 55.875L101.875 54.4375L103.3125 53.0H116.25V58.75H106.1875L104.75 60.1875L103.3125 61.625H116.25V67.375H97.5625L99.0 68.8125L100.4375 70.25H116.25V76.0ZM136.375 70.25 134.9375 68.8125 133.5 67.375H126.3125L124.875 68.8125L123.4375 70.25ZM117.6875 76.0V67.375L119.125 65.9375L120.5625 64.5L122.0 63.0625L123.4375 61.625H136.375L137.8125 63.0625L139.25 64.5L140.6875 65.9375L142.125 67.375V76.0ZM149.3125 76.0 147.875 74.5625 146.4375 73.125 145.0 71.6875 143.5625 70.25V61.625H149.3125V67.375L150.75 68.8125L152.1875 70.25H159.375L160.8125 68.8125L162.25 67.375V61.625H168.0V70.25L166.5625 71.6875L165.125 73.125L163.6875 74.5625L162.25 76.0ZM175.1875 76.0 173.75 74.5625 172.3125 73.125 170.875 71.6875 169.4375 70.25V58.75H175.1875V61.625H193.875V67.375H175.1875L176.625 68.8125L178.0625 70.25H193.875V76.0ZM206.8125 76.0V58.75H212.5625V61.625H225.5L226.9375 63.0625L228.375 64.5L229.8125 65.9375L231.25 67.375V76.0H225.5V70.25L224.0625 68.8125L222.625 67.375H212.5625V76.0ZM232.6875 76.0V67.375L234.125 65.9375L235.5625 64.5L237.0 63.0625L238.4375 61.625H251.375V58.75H257.125V67.375H241.3125L239.875 68.8125L238.4375 70.25H257.125V76.0ZM270.0625 84.625V67.375L271.5 65.9375L272.9375 64.5L274.375 63.0625L275.8125 61.625H294.5V67.375H278.6875L277.25 68.8125L275.8125 70.25H294.5V76.0H275.8125V84.625ZM301.6875 76.0 300.25 74.5625 298.8125 73.125 297.375 71.6875 295.9375 70.25V61.625H301.6875V67.375L303.125 68.8125L304.5625 70.25H311.75L313.1875 68.8125L314.625 67.375V61.625H320.375V70.25L318.9375 71.6875L317.5 73.125L316.0625 74.5625L314.625 76.0ZM321.8125 76.0V67.375L323.25 65.9375L324.6875 64.5L326.125 63.0625L327.5625 61.625H346.25V67.375H330.4375L329.0 68.8125L327.5625 70.25V76.0ZM353.4375 84.625V78.875H363.5L364.9375 77.4375L366.375 76.0H353.4375L352.0 74.5625L350.5625 73.125L349.125 71.6875L347.6875 70.25V61.625H353.4375V67.375L354.875 68.8125L356.3125 70.25H366.375V61.625H372.125V78.875L370.6875 80.3125L369.25 81.75L367.8125 83.1875L366.375 84.625Z" fill="#12151a"/><path d="M30.0 131.3125V122.6875L30.71875 121.96875L31.4375 121.25L32.15625 120.53125L32.875 119.8125H42.21875V122.6875H34.3125L33.59375 123.40625L32.875 124.125H42.21875V127.0H32.875V131.3125ZM45.8125 127.0 45.09375 126.28125 44.375 125.5625 43.65625 124.84375 42.9375 124.125V119.8125H45.8125V122.6875L46.53125 123.40625L47.25 124.125H50.84375L51.5625 123.40625L52.28125 122.6875V119.8125H55.15625V124.125L54.4375 124.84375L53.71875 125.5625L53.0 126.28125L52.28125 127.0ZM55.875 127.0V122.6875L56.59375 121.96875L57.3125 121.25L58.03125 120.53125L58.75 119.8125H68.09375V122.6875H60.1875L59.46875 123.40625L58.75 124.125V127.0ZM71.6875 131.3125V128.4375H76.71875L77.4375 127.71875L78.15625 127.0H71.6875L70.96875 126.28125L70.25 125.5625L69.53125 124.84375L68.8125 124.125V119.8125H71.6875V122.6875L72.40625 123.40625L73.125 124.125H78.15625V119.8125H81.03125V128.4375L80.3125 129.15625L79.59375 129.875L78.875 130.59375L78.15625 131.3125ZM90.375 127.0 89.65625 126.28125 88.9375 125.5625 88.21875 124.84375 87.5 124.125V119.8125H90.375V122.6875L91.09375 123.40625L91.8125 124.125H95.40625L96.125 123.40625L96.84375 122.6875V119.8125H99.71875V124.125L99.0 124.84375L98.28125 125.5625L97.5625 126.28125L96.84375 127.0ZM100.4375 127.0V122.6875L101.15625 121.96875L101.875 121.25L102.59375 120.53125L103.3125 119.8125H109.78125L110.5 120.53125L111.21875 121.25L111.9375 121.96875L112.65625 122.6875V127.0H109.78125V124.125L109.0625 123.40625L108.34375 122.6875H104.75L104.03125 123.40625L103.3125 124.125V127.0ZM116.25 127.0 115.53125 126.28125 114.8125 125.5625 114.09375 124.84375 113.375 124.125V119.8125H116.25V122.6875L116.96875 123.40625L117.6875 124.125H125.59375V127.0ZM129.1875 127.0 128.46875 126.28125 127.75 125.5625 127.03125 124.84375 126.3125 124.125V119.8125H129.1875V118.375L129.90625 117.65625L130.625 116.9375L131.34375 116.21875L132.0625 115.5H138.53125V118.375H133.5L132.78125 119.09375L132.0625 119.8125H138.53125V122.6875H129.1875L129.90625 123.40625L130.625 124.125H138.53125V127.0ZM148.59375 124.125V122.6875H143.5625L142.84375 123.40625L142.125 124.125ZM139.25 127.0V122.6875L139.96875 121.96875L140.6875 121.25L141.40625 120.53125L142.125 119.8125H151.46875V127.0ZM155.0625 131.3125V128.4375H160.09375L160.8125 127.71875L161.53125 127.0H155.0625L154.34375 126.28125L153.625 125.5625L152.90625 124.84375L152.1875 124.125V119.8125H164.40625V122.6875H155.0625L155.78125 123.40625L156.5 124.125H164.40625V128.4375L163.6875 129.15625L162.96875 129.875L162.25 130.59375L161.53125 131.3125ZM165.125 127.0V118.375H168.0V119.8125H174.46875L175.1875 120.53125L175.90625 121.25L176.625 121.96875L177.34375 122.6875V127.0H174.46875V124.125L173.75 123.40625L173.03125 122.6875H168.0V127.0ZM180.9375 127.0 180.21875 126.28125 179.5 125.5625 178.78125 124.84375 178.0625 124.125V119.8125H180.9375V118.375L181.65625 117.65625L182.375 116.9375L183.09375 116.21875L183.8125 115.5H190.28125V118.375H185.25L184.53125 119.09375L183.8125 119.8125H190.28125V122.6875H180.9375L181.65625 123.40625L182.375 124.125H190.28125V127.0ZM193.875 131.3125V128.4375H198.90625L199.625 127.71875L200.34375 127.0H193.875L193.15625 126.28125L192.4375 125.5625L191.71875 124.84375L191.0 124.125V119.8125H203.21875V122.6875H193.875L194.59375 123.40625L195.3125 124.125H203.21875V128.4375L202.5 129.15625L201.78125 129.875L201.0625 130.59375L200.34375 131.3125ZM212.5625 131.3125 211.84375 130.59375 211.125 129.875 210.40625 129.15625 209.6875 128.4375V124.125H217.59375L218.3125 123.40625L219.03125 122.6875H209.6875V119.8125H221.90625V124.125L221.1875 124.84375L220.46875 125.5625L219.75 126.28125L219.03125 127.0H212.5625L213.28125 127.71875L214.0 128.4375H219.03125V131.3125ZM231.96875 124.125 231.25 123.40625 230.53125 122.6875H226.9375L226.21875 123.40625L225.5 124.125ZM222.625 127.0V122.6875L223.34375 121.96875L224.0625 121.25L224.78125 120.53125L225.5 119.8125H231.96875L232.6875 120.53125L233.40625 121.25L234.125 121.96875L234.84375 122.6875V127.0ZM235.5625 127.0V122.6875L236.28125 121.96875L237.0 121.25L237.71875 120.53125L238.4375 119.8125H244.90625L245.625 120.53125L246.34375 121.25L247.0625 121.96875L247.78125 122.6875V127.0H244.90625V124.125L244.1875 123.40625L243.46875 122.6875H239.875L239.15625 123.40625L238.4375 124.125V127.0ZM251.375 127.0 250.65625 126.28125 249.9375 125.5625 249.21875 124.84375 248.5 124.125V119.8125H251.375V118.375L252.09375 117.65625L252.8125 116.9375L253.53125 116.21875L254.25 115.5H260.71875V118.375H255.6875L254.96875 119.09375L254.25 119.8125H260.71875V122.6875H251.375L252.09375 123.40625L252.8125 124.125H260.71875V127.0ZM267.1875 127.0V124.125H276.53125L275.8125 123.40625L275.09375 122.6875H267.1875V118.375H270.0625V119.8125H276.53125L277.25 120.53125L277.96875 121.25L278.6875 121.96875L279.40625 122.6875V127.0ZM289.46875 124.125V122.6875H284.4375L283.71875 123.40625L283.0 124.125ZM280.125 127.0V122.6875L280.84375 121.96875L281.5625 121.25L282.28125 120.53125L283.0 119.8125H292.34375V127.0ZM295.9375 127.0 295.21875 126.28125 294.5 125.5625 293.78125 124.84375 293.0625 124.125V118.375H295.9375V119.8125H305.28125V122.6875H295.9375L296.65625 123.40625L297.375 124.125H305.28125V127.0ZM308.875 127.0 308.15625 126.28125 307.4375 125.5625 306.71875 124.84375 306.0 124.125V118.375H308.875V119.8125H318.21875V122.6875H308.875L309.59375 123.40625L310.3125 124.125H318.21875V127.0ZM321.8125 127.0 321.09375 126.28125 320.375 125.5625 319.65625 124.84375 318.9375 124.125V119.8125H321.8125V122.6875L322.53125 123.40625L323.25 124.125H331.15625V127.0ZM334.75 127.0 334.03125 126.28125 333.3125 125.5625 332.59375 124.84375 331.875 124.125V119.8125H334.75V118.375L335.46875 117.65625L336.1875 116.9375L336.90625 116.21875L337.625 115.5H344.09375V118.375H339.0625L338.34375 119.09375L337.625 119.8125H344.09375V122.6875H334.75L335.46875 123.40625L336.1875 124.125H344.09375V127.0ZM347.6875 131.3125V128.4375H352.71875L353.4375 127.71875L354.15625 127.0H347.6875L346.96875 126.28125L346.25 125.5625L345.53125 124.84375L344.8125 124.125V119.8125H357.03125V122.6875H347.6875L348.40625 123.40625L349.125 124.125H357.03125V128.4375L356.3125 129.15625L355.59375 129.875L354.875 130.59375L354.15625 131.3125ZM372.84375 124.125V122.6875H367.8125L367.09375 123.40625L366.375 124.125ZM363.5 127.0V122.6875L364.21875 121.96875L364.9375 121.25L365.65625 120.53125L366.375 119.8125H375.71875V127.0ZM379.3125 127.0 378.59375 126.28125 377.875 125.5625 377.15625 124.84375 376.4375 124.125V118.375H379.3125V119.8125H388.65625V122.6875H379.3125L380.03125 123.40625L380.75 124.125H388.65625V127.0ZM395.125 131.3125V122.6875L395.84375 121.96875L396.5625 121.25L397.28125 120.53125L398.0 119.8125H407.34375V122.6875H399.4375L398.71875 123.40625L398.0 124.125H407.34375V127.0H398.0V131.3125ZM410.9375 127.0 410.21875 126.28125 409.5 125.5625 408.78125 124.84375 408.0625 124.125V119.8125H410.9375V122.6875L411.65625 123.40625L412.375 124.125H415.96875L416.6875 123.40625L417.40625 122.6875V119.8125H420.28125V124.125L419.5625 124.84375L418.84375 125.5625L418.125 126.28125L417.40625 127.0ZM423.875 127.0 423.15625 126.28125 422.4375 125.5625 421.71875 124.84375 421.0 124.125V119.8125H423.875V122.6875L424.59375 123.40625L425.3125 124.125H433.21875V127.0ZM436.8125 127.0 436.09375 126.28125 435.375 125.5625 434.65625 124.84375 433.9375 124.125V119.8125H436.8125V122.6875L437.53125 123.40625L438.25 124.125H446.15625V127.0ZM455.5 127.0 454.78125 126.28125 454.0625 125.5625 453.34375 124.84375 452.625 124.125V118.375H455.5V119.8125H464.84375V122.6875H455.5L456.21875 123.40625L456.9375 124.125H464.84375V127.0ZM468.4375 127.0 467.71875 126.28125 467.0 125.5625 466.28125 124.84375 465.5625 124.125V120.53125H468.4375V122.6875L469.15625 123.40625L469.875 124.125V127.0ZM465.5625 119.8125V116.9375H468.4375V119.8125ZM473.46875 127.0 472.75 126.28125 472.03125 125.5625 471.3125 124.84375 470.59375 124.125V119.8125H473.46875V122.6875L474.1875 123.40625L474.90625 124.125H482.8125V127.0ZM486.40625 127.0 485.6875 126.28125 484.96875 125.5625 484.25 124.84375 483.53125 124.125V118.375H486.40625V119.8125H495.75V122.6875H486.40625L487.125 123.40625L487.84375 124.125H495.75V127.0Z" fill="#3a3f47"/><path d="M36.5 163.0V162.0H33.0L32.5 162.5L32.0 163.0ZM30.0 165.0V162.0L30.5 161.5L31.0 161.0L31.5 160.5L32.0 160.0H38.5V165.0ZM39.0 165.0V163.0H45.5L45.0 162.5L44.5 162.0H39.0V159.0H41.0V160.0H45.5L46.0 160.5L46.5 161.0L47.0 161.5L47.5 162.0V165.0ZM48.0 165.0V162.0L48.5 161.5L49.0 161.0L49.5 160.5L50.0 160.0H56.5V162.0H51.0L50.5 162.5L50.0 163.0H56.5V165.0ZM57.0 165.0V162.0L57.5 161.5L58.0 161.0L58.5 160.5L59.0 160.0H63.5V159.0H65.5V162.0H60.0L59.5 162.5L59.0 163.0H65.5V165.0ZM68.0 165.0 67.5 164.5 67.0 164.0 66.5 163.5 66.0 163.0V160.0H68.0V159.0L68.5 158.5L69.0 158.0L69.5 157.5L70.0 157.0H74.5V159.0H71.0L70.5 159.5L70.0 160.0H74.5V162.0H68.0L68.5 162.5L69.0 163.0H74.5V165.0ZM75.0 168.0V162.0L75.5 161.5L76.0 161.0L76.5 160.5L77.0 160.0H83.5V162.0H78.0L77.5 162.5L77.0 163.0H83.5V165.0H77.0V168.0ZM90.5 163.0 90.0 162.5 89.5 162.0H87.0L86.5 162.5L86.0 163.0ZM86.0 168.0V166.0H89.5L90.0 165.5L90.5 165.0H84.0V162.0L84.5 161.5L85.0 161.0L85.5 160.5L86.0 160.0H90.5L91.0 160.5L91.5 161.0L92.0 161.5L92.5 162.0V166.0L92.0 166.5L91.5 167.0L91.0 167.5L90.5 168.0ZM93.0 165.0V159.0H95.0V160.0H99.5L100.0 160.5L100.5 161.0L101.0 161.5L101.5 162.0V165.0H99.5V163.0L99.0 162.5L98.5 162.0H95.0V165.0ZM104.0 165.0 103.5 164.5 103.0 164.0 102.5 163.5 102.0 163.0V160.5H104.0V162.0L104.5 162.5L105.0 163.0V165.0ZM102.0 160.0V158.0H104.0V160.0ZM105.5 165.0V163.0H111.0L111.5 162.5L112.0 162.0V160.5H114.0V163.0L113.5 163.5L113.0 164.0L112.5 164.5L112.0 165.0ZM112.0 160.0V158.0H114.0V160.0ZM114.5 165.0V159.0H116.5V160.0H120.0L120.5 159.5L121.0 159.0H123.0V160.0L122.5 160.5L122.0 161.0L122.5 161.5L123.0 162.0V165.0H121.0V163.0L120.5 162.5L120.0 162.0H116.5V165.0ZM125.5 165.0 125.0 164.5 124.5 164.0 124.0 163.5 123.5 163.0V160.0H125.5V162.0L126.0 162.5L126.5 163.0H132.0V165.0ZM132.5 165.0V162.0L133.0 161.5L133.5 161.0L134.0 160.5L134.5 160.0H139.0L139.5 160.5L140.0 161.0L140.5 161.5L141.0 162.0V165.0H139.0V163.0L138.5 162.5L138.0 162.0H137.75V165.0H135.75V162.0H135.5L135.0 162.5L134.5 163.0V165.0ZM141.5 165.0V162.0L142.0 161.5L142.5 161.0L143.0 160.5L143.5 160.0H148.0L148.5 160.5L149.0 161.0L149.5 161.5L150.0 162.0V165.0H148.0V163.0L147.5 162.5L147.0 162.0H144.5L144.0 162.5L143.5 163.0V165.0ZM157.0 163.0 156.5 162.5 156.0 162.0H153.5L153.0 162.5L152.5 163.0ZM150.5 165.0V162.0L151.0 161.5L151.5 161.0L152.0 160.5L152.5 160.0H157.0L157.5 160.5L158.0 161.0L158.5 161.5L159.0 162.0V165.0ZM159.5 168.0V165.0L160.0 164.5L160.5 164.0L161.0 163.5L161.5 163.0H166.0L165.5 162.5L165.0 162.0H159.5V160.0H166.0L166.5 160.5L167.0 161.0L167.5 161.5L168.0 162.0V165.0H162.5L162.0 165.5L161.5 166.0V168.0ZM175.0 168.0V166.0L174.5 165.5L174.0 165.0H168.5V162.0L169.0 161.5L169.5 161.0L170.0 160.5L170.5 160.0H177.0V162.0H171.5L171.0 162.5L170.5 163.0H175.0L175.5 163.5L176.0 164.0L176.5 164.5L177.0 165.0V168.0ZM177.5 165.0V162.0L178.0 161.5L178.5 161.0L179.0 160.5L179.5 160.0H186.0V162.0H180.5L180.0 162.5L179.5 163.0V165.0ZM188.5 168.0V166.0H192.0L192.5 165.5L193.0 165.0H188.5L188.0 164.5L187.5 164.0L187.0 163.5L186.5 163.0V160.0H195.0V162.0H188.5L189.0 162.5L189.5 163.0H195.0V166.0L194.5 166.5L194.0 167.0L193.5 167.5L193.0 168.0ZM197.5 165.0 197.0 164.5 196.5 164.0 196.0 163.5 195.5 163.0V159.0H197.5V160.0H204.0V162.0H197.5L198.0 162.5L198.5 163.0H204.0V165.0ZM206.5 165.0 206.0 164.5 205.5 164.0 205.0 163.5 204.5 163.0V160.0H206.5V162.0L207.0 162.5L207.5 163.0H210.0L210.5 162.5L211.0 162.0V160.0H213.0V163.0L212.5 163.5L212.0 164.0L211.5 164.5L211.0 165.0ZM216.5 165.0 216.0 164.5 215.5 164.0 215.0 163.5 214.5 163.0 214.0 162.5 213.5 162.0V160.0H215.5V161.0L216.0 161.5L216.5 162.0L217.0 162.5L217.5 163.0H218.0L218.5 162.5L219.0 162.0L219.5 161.5L220.0 161.0V160.0H222.0V162.0L221.5 162.5L221.0 163.0L220.5 163.5L220.0 164.0L219.5 164.5L219.0 165.0ZM224.5 165.0 224.0 164.5 223.5 164.0 223.0 163.5 222.5 163.0V159.0H224.5V162.0L225.0 162.5L225.5 163.0H225.75V161.0H227.75V163.0H228.0L228.5 162.5L229.0 162.0V160.0H231.0V163.0L230.5 163.5L230.0 164.0L229.5 164.5L229.0 165.0ZM231.5 165.0V162.0L232.0 161.5L232.5 161.0L232.0 160.5L231.5 160.0V159.0H233.5L234.0 159.5L234.5 160.0H237.0L237.5 159.5L238.0 159.0H240.0V160.0L239.5 160.5L239.0 161.0L239.5 161.5L240.0 162.0V165.0H238.0V163.0L237.5 162.5L237.0 162.0H234.5L234.0 162.5L233.5 163.0V165.0ZM242.5 168.0V166.0H246.0L246.5 165.5L247.0 165.0H242.5L242.0 164.5L241.5 164.0L241.0 163.5L240.5 163.0V160.0H242.5V162.0L243.0 162.5L243.5 163.0H247.0V160.0H249.0V166.0L248.5 166.5L248.0 167.0L247.5 167.5L247.0 168.0ZM251.5 168.0 251.0 167.5 250.5 167.0 250.0 166.5 249.5 166.0V163.0H255.0L255.5 162.5L256.0 162.0H249.5V160.0H258.0V163.0L257.5 163.5L257.0 164.0L256.5 164.5L256.0 165.0H251.5L252.0 165.5L252.5 166.0H256.0V168.0Z" fill="#6b7280"/><path d="M36.5 192.0V191.0H33.0L32.5 191.5L32.0 192.0ZM30.0 194.0V191.0L30.5 190.5L31.0 190.0L31.5 189.5L32.0 189.0H38.5V194.0ZM39.0 194.0V192.0H45.5L45.0 191.5L44.5 191.0H39.0V188.0H41.0V189.0H45.5L46.0 189.5L46.5 190.0L47.0 190.5L47.5 191.0V194.0ZM48.0 194.0V191.0L48.5 190.5L49.0 190.0L49.5 189.5L50.0 189.0H56.5V191.0H51.0L50.5 191.5L50.0 192.0H56.5V194.0ZM57.0 194.0V191.0L57.5 190.5L58.0 190.0L58.5 189.5L59.0 189.0H63.5V188.0H65.5V191.0H60.0L59.5 191.5L59.0 192.0H65.5V194.0ZM68.0 194.0 67.5 193.5 67.0 193.0 66.5 192.5 66.0 192.0V189.0H68.0V188.0L68.5 187.5L69.0 187.0L69.5 186.5L70.0 186.0H74.5V188.0H71.0L70.5 188.5L70.0 189.0H74.5V191.0H68.0L68.5 191.5L69.0 192.0H74.5V194.0ZM75.0 197.0V191.0L75.5 190.5L76.0 190.0L76.5 189.5L77.0 189.0H83.5V191.0H78.0L77.5 191.5L77.0 192.0H83.5V194.0H77.0V197.0ZM90.5 192.0 90.0 191.5 89.5 191.0H87.0L86.5 191.5L86.0 192.0ZM86.0 197.0V195.0H89.5L90.0 194.5L90.5 194.0H84.0V191.0L84.5 190.5L85.0 190.0L85.5 189.5L86.0 189.0H90.5L91.0 189.5L91.5 190.0L92.0 190.5L92.5 191.0V195.0L92.0 195.5L91.5 196.0L91.0 196.5L90.5 197.0ZM93.0 194.0V188.0H95.0V189.0H99.5L100.0 189.5L100.5 190.0L101.0 190.5L101.5 191.0V194.0H99.5V192.0L99.0 191.5L98.5 191.0H95.0V194.0ZM104.0 194.0 103.5 193.5 103.0 193.0 102.5 192.5 102.0 192.0V189.5H104.0V191.0L104.5 191.5L105.0 192.0V194.0ZM102.0 189.0V187.0H104.0V189.0ZM105.5 194.0V192.0H111.0L111.5 191.5L112.0 191.0V189.5H114.0V192.0L113.5 192.5L113.0 193.0L112.5 193.5L112.0 194.0ZM112.0 189.0V187.0H114.0V189.0ZM114.5 194.0V188.0H116.5V189.0H120.0L120.5 188.5L121.0 188.0H123.0V189.0L122.5 189.5L122.0 190.0L122.5 190.5L123.0 191.0V194.0H121.0V192.0L120.5 191.5L120.0 191.0H116.5V194.0ZM125.5 194.0 125.0 193.5 124.5 193.0 124.0 192.5 123.5 192.0V189.0H125.5V191.0L126.0 191.5L126.5 192.0H132.0V194.0ZM132.5 194.0V191.0L133.0 190.5L133.5 190.0L134.0 189.5L134.5 189.0H139.0L139.5 189.5L140.0 190.0L140.5 190.5L141.0 191.0V194.0H139.0V192.0L138.5 191.5L138.0 191.0H137.75V194.0H135.75V191.0H135.5L135.0 191.5L134.5 192.0V194.0ZM141.5 194.0V191.0L142.0 190.5L142.5 190.0L143.0 189.5L143.5 189.0H148.0L148.5 189.5L149.0 190.0L149.5 190.5L150.0 191.0V194.0H148.0V192.0L147.5 191.5L147.0 191.0H144.5L144.0 191.5L143.5 192.0V194.0ZM157.0 192.0 156.5 191.5 156.0 191.0H153.5L153.0 191.5L152.5 192.0ZM150.5 194.0V191.0L151.0 190.5L151.5 190.0L152.0 189.5L152.5 189.0H157.0L157.5 189.5L158.0 190.0L158.5 190.5L159.0 191.0V194.0ZM159.5 197.0V194.0L160.0 193.5L160.5 193.0L161.0 192.5L161.5 192.0H166.0L165.5 191.5L165.0 191.0H159.5V189.0H166.0L166.5 189.5L167.0 190.0L167.5 190.5L168.0 191.0V194.0H162.5L162.0 194.5L161.5 195.0V197.0ZM175.0 197.0V195.0L174.5 194.5L174.0 194.0H168.5V191.0L169.0 190.5L169.5 190.0L170.0 189.5L170.5 189.0H177.0V191.0H171.5L171.0 191.5L170.5 192.0H175.0L175.5 192.5L176.0 193.0L176.5 193.5L177.0 194.0V197.0ZM177.5 194.0V191.0L178.0 190.5L178.5 190.0L179.0 189.5L179.5 189.0H186.0V191.0H180.5L180.0 191.5L179.5 192.0V194.0ZM188.5 197.0V195.0H192.0L192.5 194.5L193.0 194.0H188.5L188.0 193.5L187.5 193.0L187.0 192.5L186.5 192.0V189.0H195.0V191.0H188.5L189.0 191.5L189.5 192.0H195.0V195.0L194.5 195.5L194.0 196.0L193.5 196.5L193.0 197.0ZM197.5 194.0 197.0 193.5 196.5 193.0 196.0 192.5 195.5 192.0V188.0H197.5V189.0H204.0V191.0H197.5L198.0 191.5L198.5 192.0H204.0V194.0ZM206.5 194.0 206.0 193.5 205.5 193.0 205.0 192.5 204.5 192.0V189.0H206.5V191.0L207.0 191.5L207.5 192.0H210.0L210.5 191.5L211.0 191.0V189.0H213.0V192.0L212.5 192.5L212.0 193.0L211.5 193.5L211.0 194.0ZM216.5 194.0 216.0 193.5 215.5 193.0 215.0 192.5 214.5 192.0 214.0 191.5 213.5 191.0V189.0H215.5V190.0L216.0 190.5L216.5 191.0L217.0 191.5L217.5 192.0H218.0L218.5 191.5L219.0 191.0L219.5 190.5L220.0 190.0V189.0H222.0V191.0L221.5 191.5L221.0 192.0L220.5 192.5L220.0 193.0L219.5 193.5L219.0 194.0ZM224.5 194.0 224.0 193.5 223.5 193.0 223.0 192.5 222.5 192.0V188.0H224.5V191.0L225.0 191.5L225.5 192.0H225.75V190.0H227.75V192.0H228.0L228.5 191.5L229.0 191.0V189.0H231.0V192.0L230.5 192.5L230.0 193.0L229.5 193.5L229.0 194.0ZM231.5 194.0V191.0L232.0 190.5L232.5 190.0L232.0 189.5L231.5 189.0V188.0H233.5L234.0 188.5L234.5 189.0H237.0L237.5 188.5L238.0 188.0H240.0V189.0L239.5 189.5L239.0 190.0L239.5 190.5L240.0 191.0V194.0H238.0V192.0L237.5 191.5L237.0 191.0H234.5L234.0 191.5L233.5 192.0V194.0ZM242.5 197.0V195.0H246.0L246.5 194.5L247.0 194.0H242.5L242.0 193.5L241.5 193.0L241.0 192.5L240.5 192.0V189.0H242.5V191.0L243.0 191.5L243.5 192.0H247.0V189.0H249.0V195.0L248.5 195.5L248.0 196.0L247.5 196.5L247.0 197.0ZM251.5 197.0 251.0 196.5 250.5 196.0 250.0 195.5 249.5 195.0V192.0H255.0L255.5 191.5L256.0 191.0H249.5V189.0H258.0V192.0L257.5 192.5L257.0 193.0L256.5 193.5L256.0 194.0H251.5L252.0 194.5L252.5 195.0H256.0V197.0Z" fill="#6b7280"/></svg>