<svg xmlns="http://www.w3.org/2000/svg" viewBox="0 0 407.2 222.0" width="407" height="222"><path d="M30.0 76.0V58.75H35.75V70.25H39.34375V64.5H45.09375V70.25H48.6875V61.625H54.4375V76.0ZM57.3125 76.0Q56.68359375 76.0 56.279296875 75.595703125Q55.875 75.19140625 55.875 74.5625V63.0625H61.625V70.25H64.5V76.0ZM55.875 61.625V55.875H61.625V61.625ZM65.9375 84.625V71.6875Q65.9375 71.103515625 66.341796875 70.69921875Q66.74609375 70.25 67.375 70.25H84.625V67.375H65.9375V61.625H88.9375Q89.521484375 61.625 89.92578125 62.07421875Q90.375 62.478515625 90.375 63.0625V74.5625Q90.375 75.19140625 89.92578125 75.595703125Q89.521484375 76.0 88.9375 76.0H71.6875V84.625ZM93.25 76.0Q92.62109375 76.0 92.216796875 75.595703125Q91.8125 75.19140625 91.8125 74.5625V63.0625Q91.8125 62.478515625 92.216796875 62.07421875Q92.62109375 61.625 93.25 61.625H97.5625V54.4375Q97.5625 53.853515625 97.966796875 53.44921875Q98.37109375 53.0 99.0 53.0H116.25V58.75H103.3125V61.625H116.25V67.375H97.5625V70.25H116.25V76.0ZM136.375 70.25V67.375H123.4375V70.25ZM119.125 76.0Q118.49609375 76.0 118.091796875 75.595703125Q117.6875 75.19140625 117.6875 74.5625V63.0625Q117.6875 62.478515625 118.091796875 62.07421875Q118.49609375 61.625 119.125 61.625H140.6875Q141.271484375 61.625 141.67578125 62.07421875Q142.125 62.478515625 142.125 63.0625V74.5625Q142.125 75.19140625 141.67578125 75.595703125Q141.271484375 76.0 140.6875 76.0ZM143.5625 76.0V61.625H149.3125V70.25H162.25V61.625H168.0V76.0ZM169.4375 76.0V58.75H175.1875V61.625H193.875V67.375H175.1875V70.25H193.875V76.0ZM206.8125 76.0V58.75H212.5625V61.625H229.8125Q230.396484375 61.625 230.80078125 62.07421875Q231.25 62.478515625 231.25 63.0625V76.0H225.5V67.375H212.5625V76.0ZM234.125 76.0Q233.49609375 76.0 233.091796875 75.595703125Q232.6875 75.19140625 232.6875 74.5625V63.0625Q232.6875 62.478515625 233.091796875 62.07421875Q233.49609375 61.625 234.125 61.625H251.375V58.75H257.125V65.9375Q257.125 66.56640625 256.67578125 66.970703125Q256.271484375 67.375 255.6875 67.375H238.4375V70.25H257.125V76.0Z" fill="#12151a"/><path d="M30.0 127.0V118.375H32.875V124.125H34.671875V121.25H37.546875V124.125H39.34375V119.8125H42.21875V127.0ZM43.65625 127.0Q43.341796875 127.0 43.1396484375 126.7978515625Q42.9375 126.595703125 42.9375 126.28125V120.53125H45.8125V124.125H47.25V127.0ZM42.9375 119.8125V116.9375H45.8125V119.8125ZM47.96875 131.3125V124.84375Q47.96875 124.5517578125 48.1708984375 124.349609375Q48.373046875 124.125 48.6875 124.125H57.3125V122.6875H47.96875V119.8125H59.46875Q59.7607421875 119.8125 59.962890625 120.037109375Q60.1875 120.2392578125 60.1875 120.53125V126.28125Q60.1875 126.595703125 59.962890625 126.7978515625Q59.7607421875 127.0 59.46875 127.0H50.84375V131.3125ZM61.625 127.0Q61.310546875 127.0 61.1083984375 126.7978515625Q60.90625 126.595703125 60.90625 126.28125V120.53125Q60.90625 120.2392578125 61.1083984375 120.037109375Q61.310546875 119.8125 61.625 119.8125H63.78125V116.21875Q63.78125 115.9267578125 63.9833984375 115.724609375Q64.185546875 115.5 64.5 115.5H73.125V118.375H66.65625V119.8125H73.125V122.6875H63.78125V124.125H73.125V127.0ZM83.1875 124.125V122.6875H76.71875V124.125ZM74.5625 127.0Q74.248046875 127.0 74.0458984375 126.7978515625Q73.84375 126.595703125 73.84375 126.28125V120.53125Q73.84375 120.2392578125 74.0458984375 120.037109375Q74.248046875 119.8125 74.5625 119.8125H85.34375Q85.6357421875 119.8125 85.837890625 120.037109375Q86.0625 120.2392578125 86.0625 120.53125V126.28125Q86.0625 126.595703125 85.837890625 126.7978515625Q85.6357421875 127.0 85.34375 127.0ZM86.78125 127.0V119.8125H89.65625V124.125H96.125V119.8125H99.0V127.0ZM99.71875 127.0V118.375H102.59375V119.8125H111.9375V122.6875H102.59375V124.125H111.9375V127.0ZM118.40625 127.0V118.375H121.28125V119.8125H129.90625Q130.1982421875 119.8125 130.400390625 120.037109375Q130.625 120.2392578125 130.625 120.53125V127.0H127.75V122.6875H121.28125V127.0ZM132.0625 127.0Q131.748046875 127.0 131.5458984375 126.7978515625Q131.34375 126.595703125 131.34375 126.28125V120.53125Q131.34375 120.2392578125 131.5458984375 120.037109375Q131.748046875 119.8125 132.0625 119.8125H140.6875V118.375H143.5625V121.96875Q143.5625 122.283203125 143.337890625 122.4853515625Q143.1357421875 122.6875 142.84375 122.6875H134.21875V124.125H143.5625V127.0ZM150.75 127.0Q150.435546875 127.0 150.2333984375 126.7978515625Q150.03125 126.595703125 150.03125 126.28125V119.8125H152.90625V124.125H162.25V127.0ZM163.6875 127.0Q163.373046875 127.0 163.1708984375 126.7978515625Q162.96875 126.595703125 162.96875 126.28125V120.53125H165.84375V124.125H167.28125V127.0ZM162.96875 119.8125V116.9375H165.84375V119.8125ZM177.34375 124.125V122.6875H170.875V124.125ZM170.875 131.3125V128.4375H177.34375V127.0H168.71875Q168.404296875 127.0 168.2021484375 126.7978515625Q168.0 126.595703125 168.0 126.28125V120.53125Q168.0 120.2392578125 168.2021484375 120.037109375Q168.404296875 119.8125 168.71875 119.8125H179.5Q179.7919921875 119.8125 179.994140625 120.037109375Q180.21875 120.2392578125 180.21875 120.53125V130.59375Q180.21875 130.8857421875 179.994140625 131.087890625Q179.7919921875 131.3125 179.5 131.3125ZM180.9375 127.0V118.375H183.8125V119.8125H192.4375Q192.7294921875 119.8125 192.931640625 120.037109375Q193.15625 120.2392578125 193.15625 120.53125V127.0H190.28125V122.6875H183.8125V127.0ZM193.875 127.0V118.375H196.75V119.8125H206.09375V122.6875H196.75V124.125H206.09375V127.0ZM209.6875 131.3125V128.4375H216.15625V127.0H207.53125Q207.216796875 127.0 207.0146484375 126.7978515625Q206.8125 126.595703125 206.8125 126.28125V120.53125Q206.8125 120.2392578125 207.0146484375 120.037109375Q207.216796875 119.8125 207.53125 119.8125H219.03125V122.6875H209.6875V124.125H218.3125Q218.6044921875 124.125 218.806640625 124.349609375Q219.03125 124.5517578125 219.03125 124.84375V130.59375Q219.03125 130.8857421875 218.806640625 131.087890625Q218.6044921875 131.3125 218.3125 131.3125ZM225.5 127.0V119.8125H228.375V124.125H234.84375V119.8125H237.71875V127.0ZM238.4375 131.3125V124.84375Q238.4375 124.5517578125 238.6396484375 124.349609375Q238.841796875 124.125 239.15625 124.125H247.78125V122.6875H238.4375V119.8125H249.9375Q250.2294921875 119.8125 250.431640625 120.037109375Q250.65625 120.2392578125 250.65625 120.53125V126.28125Q250.65625 126.595703125 250.431640625 126.7978515625Q250.2294921875 127.0 249.9375 127.0H241.3125V131.3125ZM257.125 127.0V118.375H260.0V119.8125H269.34375V122.6875H260.0V124.125H269.34375V127.0ZM270.0625 127.0V118.375H272.9375V119.8125H281.5625Q281.8544921875 119.8125 282.056640625 120.037109375Q282.28125 120.2392578125 282.28125 120.53125V127.0H279.40625V122.6875H272.9375V127.0ZM283.71875 127.0Q283.404296875 127.0 283.2021484375 126.7978515625Q283.0 126.595703125 283.0 126.28125V120.53125Q283.0 120.2392578125 283.2021484375 120.037109375Q283.404296875 119.8125 283.71875 119.8125H285.875V116.21875Q285.875 115.9267578125 286.0771484375 115.724609375Q286.279296875 115.5 286.59375 115.5H295.21875V118.375H288.75V119.8125H295.21875V122.6875H285.875V124.125H295.21875V127.0ZM301.6875 131.3125V120.53125Q301.6875 120.2392578125 301.8896484375 120.037109375Q302.091796875 119.8125 302.40625 119.8125H313.90625V122.6875H304.5625V124.125H313.90625V127.0H304.5625V131.3125ZM314.625 127.0V122.6875L315.34375 121.96875L316.0625 121.25L315.34375 120.53125L314.625 119.8125V118.375H317.5L318.21875 119.09375L318.9375 119.8125H322.53125L323.25 119.09375L323.96875 118.375H326.84375V119.8125L326.125 120.53125L325.40625 121.25L326.125 121.96875L326.84375 122.6875V127.0H323.96875V124.125L323.25 123.40625L322.53125 122.6875H318.9375L318.21875 123.40625L317.5 124.125V127.0ZM342.65625 124.125V122.6875H336.1875V124.125ZM336.1875 131.3125V128.4375H342.65625V127.0H334.03125Q333.716796875 127.0 333.5146484375 126.7978515625Q333.3125 126.595703125 333.3125 126.28125V120.53125Q333.3125 120.2392578125 333.5146484375 120.037109375Q333.716796875 119.8125 334.03125 119.8125H344.8125Q345.1044921875 119.8125 345.306640625 120.037109375Q345.53125 120.2392578125 345.53125 120.53125V130.59375Q345.53125 130.8857421875 345.306640625 131.087890625Q345.1044921875 131.3125 344.8125 131.3125ZM346.25 127.0V120.53125Q346.25 120.2392578125 346.4521484375 120.037109375Q346.654296875 119.8125 346.96875 119.8125H358.46875V122.6875H349.125V127.0ZM359.90625 127.0Q359.591796875 127.0 359.3896484375 126.7978515625Q359.1875 126.595703125 359.1875 126.28125V120.53125H362.0625V124.125H363.5V127.0ZM359.1875 119.8125V116.9375H362.0625V119.8125ZM364.9375 127.0Q364.623046875 127.0 364.4208984375 126.7978515625Q364.21875 126.595703125 364.21875 126.28125V120.53125Q364.21875 120.2392578125 364.4208984375 120.037109375Q364.623046875 119.8125 364.9375 119.8125H373.5625V118.375H376.4375V121.96875Q376.4375 122.283203125 376.212890625 122.4853515625Q376.0107421875 122.6875 375.71875 122.6875H367.09375V124.125H376.4375V127.0Z" fill="#3a3f47"/><path d="M36.5 163.0V162.0H33.0L32.5 162.5L32.0 163.0ZM30.5 165.0 30.0 164.5V162.0L30.5 161.5L31.0 161.0L31.5 160.5L32.0 160.0H38.0Q38.203125 160.0 38.34375 160.15625Q38.5 160.296875 38.5 160.5V164.5Q38.5 164.71875 38.34375 164.859375Q38.203125 165.0 38.0 165.0ZM39.0 165.0V163.0H45.5V162.0H39.5Q39.28125 162.0 39.140625 161.859375Q39.0 161.71875 39.0 161.5V159.0H41.0V160.0H47.0Q47.203125 160.0 47.34375 160.15625Q47.5 160.296875 47.5 160.5V164.5Q47.5 164.71875 47.34375 164.859375Q47.203125 165.0 47.0 165.0ZM48.5 165.0Q48.28125 165.0 48.140625 164.859375Q48.0 164.71875 48.0 164.5V160.5Q48.0 160.296875 48.140625 160.15625Q48.28125 160.0 48.5 160.0H56.5V162.0H50.0V163.0H56.5V165.0ZM57.5 165.0Q57.28125 165.0 57.140625 164.859375Q57.0 164.71875 57.0 164.5V160.5Q57.0 160.296875 57.140625 160.15625Q57.28125 160.0 57.5 160.0H63.5V159.0H65.5V161.5Q65.5 161.71875 65.34375 161.859375Q65.203125 162.0 65.0 162.0H59.0V163.0H65.5V165.0ZM66.5 165.0Q66.28125 165.0 66.140625 164.859375Q66.0 164.71875 66.0 164.5V160.5Q66.0 160.296875 66.140625 160.15625Q66.28125 160.0 66.5 160.0H68.0V157.5Q68.0 157.296875 68.140625 157.15625Q68.28125 157.0 68.5 157.0H74.5V159.0H70.0V160.0H74.5V162.0H68.0V163.0H74.5V165.0ZM75.0 168.0V160.5Q75.0 160.296875 75.140625 160.15625Q75.28125 160.0 75.5 160.0H83.5V162.0H77.0V163.0H83.5V165.0H77.0V168.0ZM90.5 163.0V162.0H86.0V163.0ZM86.0 168.0V166.0H90.5V165.0H84.5Q84.28125 165.0 84.140625 164.859375Q84.0 164.71875 84.0 164.5V160.5Q84.0 160.296875 84.140625 160.15625Q84.28125 160.0 84.5 160.0H92.0Q92.203125 160.0 92.34375 160.15625Q92.5 160.296875 92.5 160.5V167.5Q92.5 167.703125 92.34375 167.84375Q92.203125 168.0 92.0 168.0ZM93.0 165.0V159.0H95.0V160.0H101.0Q101.203125 160.0 101.34375 160.15625Q101.5 160.296875 101.5 160.5V165.0H99.5V162.0H95.0V165.0ZM102.5 165.0Q102.28125 165.0 102.140625 164.859375Q102.0 164.71875 102.0 164.5V160.5H104.0V163.0H105.0V165.0ZM102.0 160.0V158.0H104.0V160.0ZM105.5 165.0V163.0H112.0V160.5H114.0V164.5Q114.0 164.71875 113.84375 164.859375Q113.703125 165.0 113.5 165.0ZM112.0 160.0V158.0H114.0V160.0ZM114.5 165.0V159.0H116.5V160.0H120.0L120.5 159.5L121.0 159.0H123.0V160.0L122.5 160.5L122.0 161.0L122.5 161.5L123.0 162.0V165.0H121.0V163.0L120.5 162.5L120.0 162.0H116.5V165.0ZM124.0 165.0Q123.78125 165.0 123.640625 164.859375Q123.5 164.71875 123.5 164.5V160.0H125.5V163.0H132.0V165.0ZM132.5 165.0V160.5Q132.5 160.296875 132.640625 160.15625Q132.78125 160.0 133.0 160.0H140.5Q140.703125 160.0 140.84375 160.15625Q141.0 160.296875 141.0 160.5V165.0H139.0V162.0H137.75V165.0H135.75V162.0H134.5V165.0ZM141.5 165.0V160.5Q141.5 160.296875 141.640625 160.15625Q141.78125 160.0 142.0 160.0H149.5Q149.703125 160.0 149.84375 160.15625Q150.0 160.296875 150.0 160.5V165.0H148.0V162.0H143.5V165.0ZM157.0 163.0V162.0H152.5V163.0ZM151.0 165.0Q150.78125 165.0 150.640625 164.859375Q150.5 164.71875 150.5 164.5V160.5Q150.5 160.296875 150.640625 160.15625Q150.78125 160.0 151.0 160.0H158.5Q158.703125 160.0 158.84375 160.15625Q159.0 160.296875 159.0 160.5V164.5Q159.0 164.71875 158.84375 164.859375Q158.703125 165.0 158.5 165.0ZM159.5 168.0V163.5Q159.5 163.296875 159.640625 163.15625Q159.78125 163.0 160.0 163.0H166.0V162.0H159.5V160.0H167.5Q167.703125 160.0 167.84375 160.15625Q168.0 160.296875 168.0 160.5V164.5Q168.0 164.71875 167.84375 164.859375Q167.703125 165.0 167.5 165.0H161.5V168.0ZM175.0 168.0V165.0H169.0Q168.78125 165.0 168.640625 164.859375Q168.5 164.71875 168.5 164.5V160.5Q168.5 160.296875 168.640625 160.15625Q168.78125 160.0 169.0 160.0H177.0V162.0H170.5V163.0H176.5Q176.703125 163.0 176.84375 163.15625Q177.0 163.296875 177.0 163.5V168.0ZM177.5 165.0V160.5Q177.5 160.296875 177.640625 160.15625Q177.78125 160.0 178.0 160.0H186.0V162.0H179.5V165.0ZM188.5 168.0V166.0H193.0V165.0H187.0Q186.78125 165.0 186.640625 164.859375Q186.5 164.71875 186.5 164.5V160.5Q186.5 160.296875 186.640625 160.15625Q186.78125 160.0 187.0 160.0H195.0V162.0H188.5V163.0H194.5Q194.703125 163.0 194.84375 163.15625Q195.0 163.296875 195.0 163.5V167.5Q195.0 167.703125 194.84375 167.84375Q194.703125 168.0 194.5 168.0ZM195.5 165.0V159.0H197.5V160.0H204.0V162.0H197.5V163.0H204.0V165.0ZM204.5 165.0V160.0H206.5V163.0H211.0V160.0H213.0V165.0ZM216.5 165.0 216.0 164.5 215.5 164.0 215.0 163.5 214.5 163.0 214.0 162.5 213.5 162.0V160.0H215.5V161.0L216.0 161.5L216.5 162.0L217.0 162.5L217.5 163.0H218.0L218.5 162.5L219.0 162.0L219.5 161.5L220.0 161.0V160.0H222.0V162.0L221.5 162.5L221.0 163.0L220.5 163.5L220.0 164.0L219.5 164.5L219.0 165.0ZM222.5 165.0V159.0H224.5V163.0H225.75V161.0H227.75V163.0H229.0V160.0H231.0V165.0ZM231.5 165.0V162.0L232.0 161.5L232.5 161.0L232.0 160.5L231.5 160.0V159.0H233.5L234.0 159.5L234.5 160.0H237.0L237.5 159.5L238.0 159.0H240.0V160.0L239.5 160.5L239.0 161.0L239.5 161.5L240.0 162.0V165.0H238.0V163.0L237.5 162.5L237.0 162.0H234.5L234.0 162.5L233.5 163.0V165.0ZM242.5 168.0V166.0H247.0V165.0H240.5V160.0H242.5V163.0H247.0V160.0H249.0V168.0ZM249.5 168.0V163.0H256.0V162.0H249.5V160.0H258.0V165.0H251.5V166.0H256.0V168.0Z" fill="#6b7280"/><path d="M36.5 192.0V191.0H33.0L32.5 191.5L32.0 192.0ZM30.5 194.0 30.0 193.5V191.0L30.5 190.5L31.0 190.0L31.5 189.5L32.0 189.0H38.0Q38.203125 189.0 38.34375 189.15625Q38.5 189.296875 38.5 189.5V193.5Q38.5 193.71875 38.34375 193.859375Q38.203125 194.0 38.0 194.0ZM39.0 194.0V192.0H45.5V191.0H39.5Q39.28125 191.0 39.140625 190.859375Q39.0 190.71875 39.0 190.5V188.0H41.0V189.0H47.0Q47.203125 189.0 47.34375 189.15625Q47.5 189.296875 47.5 189.5V193.5Q47.5 193.71875 47.34375 193.859375Q47.203125 194.0 47.0 194.0ZM48.5 194.0Q48.28125 194.0 48.140625 193.859375Q48.0 193.71875 48.0 193.5V189.5Q48.0 189.296875 48.140625 189.15625Q48.28125 189.0 48.5 189.0H56.5V191.0H50.0V192.0H56.5V194.0ZM57.5 194.0Q57.28125 194.0 57.140625 193.859375Q57.0 193.71875 57.0 193.5V189.5Q57.0 189.296875 57.140625 189.15625Q57.28125 189.0 57.5 189.0H63.5V188.0H65.5V190.5Q65.5 190.71875 65.34375 190.859375Q65.203125 191.0 65.0 191.0H59.0V192.0H65.5V194.0ZM66.5 194.0Q66.28125 194.0 66.140625 193.859375Q66.0 193.71875 66.0 193.5V189.5Q66.0 189.296875 66.140625 189.15625Q66.28125 189.0 66.5 189.0H68.0V186.5Q68.0 186.296875 68.140625 186.15625Q68.28125 186.0 68.5 186.0H74.5V188.0H70.0V189.0H74.5V191.0H68.0V192.0H74.5V194.0ZM75.0 197.0V189.5Q75.0 189.296875 75.140625 189.15625Q75.28125 189.0 75.5 189.0H83.5V191.0H77.0V192.0H83.5V194.0H77.0V197.0ZM90.5 192.0V191.0H86.0V192.0ZM86.0 197.0V195.0H90.5V194.0H84.5Q84.28125 194.0 84.140625 193.859375Q84.0 193.71875 84.0 193.5V189.5Q84.0 189.296875 84.140625 189.15625Q84.28125 189.0 84.5 189.0H92.0Q92.203125 189.0 92.34375 189.15625Q92.5 189.296875 92.5 189.5V196.5Q92.5 196.703125 92.34375 196.84375Q92.203125 197.0 92.0 197.0ZM93.0 194.0V188.0H95.0V189.0H101.0Q101.203125 189.0 101.34375 189.15625Q101.5 189.296875 101.5 189.5V194.0H99.5V191.0H95.0V194.0ZM102.5 194.0Q102.28125 194.0 102.140625 193.859375Q102.0 193.71875 102.0 193.5V189.5H104.0V192.0H105.0V194.0ZM102.0 189.0V187.0H104.0V189.0ZM105.5 194.0V192.0H112.0V189.5H114.0V193.5Q114.0 193.71875 113.84375 193.859375Q113.703125 194.0 113.5 194.0ZM112.0 189.0V187.0H114.0V189.0ZM114.5 194.0V188.0H116.5V189.0H120.0L120.5 188.5L121.0 188.0H123.0V189.0L122.5 189.5L122.0 190.0L122.5 190.5L123.0 191.0V194.0H121.0V192.0L120.5 191.5L120.0 191.0H116.5V194.0ZM124.0 194.0Q123.78125 194.0 123.640625 193.859375Q123.5 193.71875 123.5 193.5V189.0H125.5V192.0H132.0V194.0ZM132.5 194.0V189.5Q132.5 189.296875 132.640625 189.15625Q132.78125 189.0 133.0 189.0H140.5Q140.703125 189.0 140.84375 189.15625Q141.0 189.296875 141.0 189.5V194.0H139.0V191.0H137.75V194.0H135.75V191.0H134.5V194.0ZM141.5 194.0V189.5Q141.5 189.296875 141.640625 189.15625Q141.78125 189.0 142.0 189.0H149.5Q149.703125 189.0 149.84375 189.15625Q150.0 189.296875 150.0 189.5V194.0H148.0V191.0H143.5V194.0ZM157.0 192.0V191.0H152.5V192.0ZM151.0 194.0Q150.78125 194.0 150.640625 193.859375Q150.5 193.71875 150.5 193.5V189.5Q150.5 189.296875 150.640625 189.15625Q150.78125 189.0 151.0 189.0H158.5Q158.703125 189.0 158.84375 189.15625Q159.0 189.296875 159.0 189.5V193.5Q159.0 193.71875 158.84375 193.859375Q158.703125 194.0 158.5 194.0ZM159.5 197.0V192.5Q159.5 192.296875 159.640625 192.15625Q159.78125 192.0 160.0 192.0H166.0V191.0H159.5V189.0H167.5Q167.703125 189.0 167.84375 189.15625Q168.0 189.296875 168.0 189.5V193.5Q168.0 193.71875 167.84375 193.859375Q167.703125 194.0 167.5 194.0H161.5V197.0ZM175.0 197.0V194.0H169.0Q168.78125 194.0 168.640625 193.859375Q168.5 193.71875 168.5 193.5V189.5Q168.5 189.296875 168.640625 189.15625Q168.78125 189.0 169.0 189.0H177.0V191.0H170.5V192.0H176.5Q176.703125 192.0 176.84375 192.15625Q177.0 192.296875 177.0 192.5V197.0ZM177.5 194.0V189.5Q177.5 189.296875 177.640625 189.15625Q177.78125 189.0 178.0 189.0H186.0V191.0H179.5V194.0ZM188.5 197.0V195.0H193.0V194.0H187.0Q186.78125 194.0 186.640625 193.859375Q186.5 193.71875 186.5 193.5V189.5Q186.5 189.296875 186.640625 189.15625Q186.78125 189.0 187.0 189.0H195.0V191.0H188.5V192.0H194.5Q194.703125 192.0 194.84375 192.15625Q195.0 192.296875 195.0 192.5V196.5Q195.0 196.703125 194.84375 196.84375Q194.703125 197.0 194.5 197.0ZM195.5 194.0V188.0H197.5V189.0H204.0V191.0H197.5V192.0H204.0V194.0ZM204.5 194.0V189.0H206.5V192.0H211.0V189.0H213.0V194.0ZM216.5 194.0 216.0 193.5 215.5 193.0 215.0 192.5 214.5 192.0 214.0 191.5 213.5 191.0V189.0H215.5V190.0L216.0 190.5L216.5 191.0L217.0 191.5L217.5 192.0H218.0L218.5 191.5L219.0 191.0L219.5 190.5L220.0 190.0V189.0H222.0V191.0L221.5 191.5L221.0 192.0L220.5 192.5L220.0 193.0L219.5 193.5L219.0 194.0ZM222.5 194.0V188.0H224.5V192.0H225.75V190.0H227.75V192.0H229.0V189.0H231.0V194.0ZM231.5 194.0V191.0L232.0 190.5L232.5 190.0L232.0 189.5L231.5 189.0V188.0H233.5L234.0 188.5L234.5 189.0H237.0L237.5 188.5L238.0 188.0H240.0V189.0L239.5 189.5L239.0 190.0L239.5 190.5L240.0 191.0V194.0H238.0V192.0L237.5 191.5L237.0 191.0H234.5L234.0 191.5L233.5 192.0V194.0ZM242.5 197.0V195.0H247.0V194.0H240.5V189.0H242.5V192.0H247.0V189.0H249.0V197.0ZM249.5 197.0V192.0H256.0V191.0H249.5V189.0H258.0V194.0H251.5V195.0H256.0V197.0Z" fill="#6b7280"/></svg>