<svg xmlns="http://www.w3.org/2000/svg" viewBox="0 0 581.6 193.0" width="582" height="193"><path d="M30.1796875 55.875H34.04296875Q34.22265625 55.8974609375 34.22265625 56.0546875V71.8671875H34.3125Q37.7265625 69.26171875 38.0859375 68.90234375V56.0546875Q38.1083984375 55.875 38.265625 55.875H42.12890625Q42.30859375 55.8974609375 42.30859375 56.0546875V71.95703125Q57.896484375 59.873046875 57.94140625 59.73828125V56.0546875Q57.9638671875 55.875 58.12109375 55.875H61.984375Q62.1640625 55.8974609375 62.1640625 56.0546875V61.89453125Q61.4228515625 62.6357421875 47.51953125 73.3046875Q44.240234375 76.0 43.8359375 76.0H38.265625Q38.0859375 76.0 38.0859375 75.8203125V74.3828125Q36.1318359375 76.0 35.75 76.0H30.1796875Q30.0 76.0 30.0 75.8203125V56.0546875Q30.0224609375 55.875 30.1796875 55.875ZM63.466796875 55.875H67.330078125Q67.509765625 55.8974609375 67.509765625 56.0546875V75.8203125Q67.509765625 76.0 67.330078125 76.0H63.466796875Q63.287109375 76.0 63.287109375 75.8203125V56.0546875Q63.3095703125 55.875 63.466796875 55.875ZM68.767578125 55.78515625H90.869140625Q91.048828125 55.8076171875 91.048828125 55.96484375V61.53515625Q90.2626953125 62.3212890625 76.314453125 73.125Q72.9228515625 75.7978515625 72.810546875 76.0V79.4140625Q72.810546875 79.59375 72.630859375 79.59375H68.767578125Q68.587890625 79.59375 68.587890625 79.4140625V55.96484375Q68.6103515625 55.78515625 68.767578125 55.78515625ZM72.810546875 60.09765625V70.51953125L86.107421875 60.1875H86.197265625V60.09765625ZM92.2392578125 55.875H115.9580078125Q116.1376953125 55.8974609375 116.1376953125 56.0546875V61.89453125L103.5595703125 71.77734375H115.9580078125Q116.1376953125 71.7998046875 116.1376953125 71.95703125V75.8203125Q116.1376953125 76.0 115.9580078125 76.0H92.2392578125Q92.0595703125 76.0 92.0595703125 75.8203125V56.0546875Q92.08203125 55.875 92.2392578125 55.875ZM96.2822265625 60.09765625V71.77734375H96.6416015625L111.6455078125 60.09765625ZM117.1708984375 55.78515625H140.5302734375Q140.7099609375 55.8076171875 140.7099609375 55.96484375V75.8203125Q140.7099609375 76.0 140.5302734375 76.0H117.1708984375Q116.9912109375 76.0 116.9912109375 75.8203125V55.96484375Q117.013671875 55.78515625 117.1708984375 55.78515625ZM121.2138671875 60.09765625V71.6875H136.4873046875V60.09765625ZM142.0126953125 55.78515625H145.8759765625Q146.0556640625 55.8076171875 146.0556640625 55.96484375V71.77734375H157.7353515625V55.96484375Q157.7578125 55.78515625 157.9150390625 55.78515625H161.7783203125Q161.9580078125 55.8076171875 161.9580078125 55.96484375V75.8203125Q161.9580078125 76.0 161.7783203125 76.0H142.0126953125Q141.8330078125 76.0 141.8330078125 75.8203125V55.96484375Q141.85546875 55.78515625 142.0126953125 55.78515625ZM163.23828125 52.28125H167.19140625Q167.37109375 52.3037109375 167.37109375 52.4609375V55.875L167.55078125 55.78515625H185.4296875Q185.609375 55.8076171875 185.609375 55.96484375V59.91796875Q185.609375 60.09765625 185.4296875 60.09765625H167.37109375V71.77734375H185.4296875Q185.609375 71.7998046875 185.609375 71.95703125V75.8203125Q185.609375 76.0 185.4296875 76.0H163.23828125Q163.05859375 76.0 163.05859375 75.8203125V52.4609375Q163.0810546875 52.28125 163.23828125 52.28125ZM198.2099609375 52.28125H202.1630859375Q202.3427734375 52.3037109375 202.3427734375 52.4609375V55.875L202.5224609375 55.78515625H220.4013671875Q220.5810546875 55.8076171875 220.5810546875 55.96484375V59.91796875Q220.5810546875 60.09765625 220.4013671875 60.09765625H202.3427734375V71.77734375H220.4013671875Q220.5810546875 71.7998046875 220.5810546875 71.95703125V75.8203125Q220.5810546875 76.0 220.4013671875 76.0H198.2099609375Q198.0302734375 76.0 198.0302734375 75.8203125V52.4609375Q198.052734375 52.28125 198.2099609375 52.28125ZM221.771484375 55.96484375H225.634765625Q225.814453125 55.9873046875 225.814453125 56.14453125V60.1875L239.291015625 70.609375V56.14453125Q239.3134765625 55.96484375 239.470703125 55.96484375H243.423828125Q243.603515625 55.9873046875 243.603515625 56.14453125V79.50390625Q242.884765625 80.22265625 234.349609375 86.78125L234.259765625 86.6015625V81.66015625Q235.3828125 80.537109375 239.291015625 77.70703125V76.08984375Q238.5048828125 75.3037109375 221.591796875 62.1640625V56.14453125Q221.6142578125 55.96484375 221.771484375 55.96484375ZM244.681640625 55.78515625H266.783203125Q266.962890625 55.8076171875 266.962890625 55.96484375V61.53515625Q266.1767578125 62.3212890625 252.228515625 73.125Q248.8369140625 75.7978515625 248.724609375 76.0V79.4140625Q248.724609375 79.59375 248.544921875 79.59375H244.681640625Q244.501953125 79.59375 244.501953125 79.4140625V55.96484375Q244.5244140625 55.78515625 244.681640625 55.78515625ZM248.724609375 60.09765625V70.51953125L262.021484375 60.1875H262.111328125V60.09765625ZM268.1533203125 55.875H291.8720703125Q292.0517578125 55.8974609375 292.0517578125 56.0546875V61.89453125L279.4736328125 71.77734375H291.8720703125Q292.0517578125 71.7998046875 292.0517578125 71.95703125V75.8203125Q292.0517578125 76.0 291.8720703125 76.0H268.1533203125Q267.9736328125 76.0 267.9736328125 75.8203125V56.0546875Q267.99609375 55.875 268.1533203125 55.875ZM272.1962890625 60.09765625V71.77734375H272.5556640625L287.5595703125 60.09765625ZM293.0849609375 55.650390625H315.1865234375Q315.3662109375 55.6728515625 315.3662109375 55.830078125V59.693359375Q315.3662109375 59.873046875 315.1865234375 59.873046875H297.1279296875V71.552734375H315.1865234375Q315.3662109375 71.5751953125 315.3662109375 71.732421875V75.595703125Q315.3662109375 75.775390625 315.1865234375 75.775390625H297.1279296875V79.189453125Q297.1279296875 79.369140625 296.9482421875 79.369140625H293.0849609375Q292.9052734375 79.369140625 292.9052734375 79.189453125V55.830078125Q292.927734375 55.650390625 293.0849609375 55.650390625ZM334.6376953125 55.875H338.5908203125Q338.7705078125 55.8974609375 338.7705078125 56.0546875V75.8203125Q338.7705078125 76.0 338.5908203125 76.0H316.3994140625Q316.2197265625 76.0 316.2197265625 75.8203125V70.33984375Q317.365234375 69.2841796875 334.6376953125 55.875ZM321.1611328125 71.77734375H334.5478515625V61.265625Q322.98046875 70.2275390625 321.1611328125 71.77734375ZM339.7138671875 55.875H361.8154296875Q361.9951171875 55.8974609375 361.9951171875 56.0546875V59.91796875Q361.9951171875 60.09765625 361.8154296875 60.09765625H343.7568359375V71.77734375H361.8154296875Q361.9951171875 71.7998046875 361.9951171875 71.95703125V75.8203125Q361.9951171875 76.0 361.8154296875 76.0H339.7138671875Q339.5341796875 76.0 339.5341796875 75.8203125V56.0546875Q339.556640625 55.875 339.7138671875 55.875ZM362.9384765625 55.875H386.6572265625Q386.8369140625 55.8974609375 386.8369140625 56.0546875V61.89453125L374.2587890625 71.77734375H386.6572265625Q386.8369140625 71.7998046875 386.8369140625 71.95703125V75.8203125Q386.8369140625 76.0 386.6572265625 76.0H362.9384765625Q362.7587890625 76.0 362.7587890625 75.8203125V56.0546875Q362.78125 55.875 362.9384765625 55.875ZM366.9814453125 60.09765625V71.77734375H367.3408203125L382.3447265625 60.09765625Z" fill="#12151a"/><path d="M39.208984375 116.9375H41.185546875Q41.275390625 116.94873046875 41.275390625 117.02734375V126.91015625Q41.275390625 127.0 41.185546875 127.0H30.08984375Q30.0 127.0 30.0 126.91015625V124.169921875Q30.57275390625 123.64208984375 39.208984375 116.9375ZM32.470703125 124.888671875H39.1640625V119.6328125Q33.38037109375 124.11376953125 32.470703125 124.888671875ZM47.4521484375 116.8251953125H58.5029296875Q58.5927734375 116.83642578125 58.5927734375 116.9150390625V118.8466796875Q58.5927734375 118.9365234375 58.5029296875 118.9365234375H49.4736328125V124.7763671875H58.5029296875Q58.5927734375 124.78759765625 58.5927734375 124.8662109375V126.7978515625Q58.5927734375 126.8876953125 58.5029296875 126.8876953125H49.4736328125V128.5947265625Q49.4736328125 128.6845703125 49.3837890625 128.6845703125H47.4521484375Q47.3623046875 128.6845703125 47.3623046875 128.5947265625V116.9150390625Q47.37353515625 116.8251953125 47.4521484375 116.8251953125ZM68.228515625 116.9375H70.205078125Q70.294921875 116.94873046875 70.294921875 117.02734375V126.91015625Q70.294921875 127.0 70.205078125 127.0H59.109375Q59.01953125 127.0 59.01953125 126.91015625V124.169921875Q59.59228515625 123.64208984375 68.228515625 116.9375ZM61.490234375 124.888671875H68.18359375V119.6328125Q62.39990234375 124.11376953125 61.490234375 124.888671875ZM70.7666015625 116.9375H73.6865234375Q82.7158203125 123.9228515625 82.7158203125 123.9453125V126.91015625Q82.7158203125 127.0 82.6259765625 127.0H80.6943359375Q80.6044921875 127.0 80.6044921875 126.91015625V124.978515625Q79.80712890625 124.40576171875 72.7880859375 118.958984375V126.91015625Q72.7880859375 127.0 72.6982421875 127.0H70.7666015625Q70.6767578125 127.0 70.6767578125 126.91015625V117.02734375Q70.68798828125 116.9375 70.7666015625 116.9375ZM89.01611328125 115.140625H90.99267578125Q91.08251953125 115.15185546875 91.08251953125 115.23046875V116.9375L91.17236328125 116.892578125H100.11181640625Q100.20166015625 116.90380859375 100.20166015625 116.982421875V118.958984375Q100.20166015625 119.048828125 100.11181640625 119.048828125H91.08251953125V124.888671875H100.11181640625Q100.20166015625 124.89990234375 100.20166015625 124.978515625V126.91015625Q100.20166015625 127.0 100.11181640625 127.0H89.01611328125Q88.92626953125 127.0 88.92626953125 126.91015625V115.23046875Q88.9375 115.140625 89.01611328125 115.140625ZM100.796875 116.892578125H112.74609375Q112.8359375 116.90380859375 112.8359375 116.982421875V118.958984375Q112.8359375 119.048828125 112.74609375 119.048828125H102.818359375L102.86328125 119.138671875V126.865234375Q102.86328125 126.9326171875 102.728515625 127.0H100.796875Q100.70703125 127.0 100.70703125 126.91015625V116.982421875Q100.71826171875 116.892578125 100.796875 116.892578125ZM113.49853515625 116.9375H115.43017578125Q115.52001953125 116.94873046875 115.52001953125 117.02734375V126.91015625Q115.52001953125 127.0 115.43017578125 127.0H113.49853515625Q113.40869140625 127.0 113.40869140625 126.91015625V117.02734375Q113.419921875 116.9375 113.49853515625 116.9375ZM116.14892578125 115.095703125H118.08056640625Q118.17041015625 115.10693359375 118.17041015625 115.185546875V116.9375L127.28955078125 124.125V126.91015625Q127.28955078125 127.0 127.19970703125 127.0H116.14892578125Q116.05908203125 127.0 116.05908203125 126.91015625V115.185546875Q116.0703125 115.095703125 116.14892578125 115.095703125ZM118.17041015625 119.6328125V124.888671875H124.86376953125Q124.60546875 124.63037109375 118.17041015625 119.6328125ZM127.76123046875 116.892578125H129.69287109375Q129.78271484375 116.90380859375 129.78271484375 116.982421875V124.888671875H135.62255859375V116.982421875Q135.6337890625 116.892578125 135.71240234375 116.892578125H137.64404296875Q137.73388671875 116.90380859375 137.73388671875 116.982421875V126.91015625Q137.73388671875 127.0 137.64404296875 127.0H127.76123046875Q127.67138671875 127.0 127.67138671875 126.91015625V116.982421875Q127.6826171875 116.892578125 127.76123046875 116.892578125ZM138.3740234375 115.140625H140.3505859375Q140.4404296875 115.15185546875 140.4404296875 115.23046875V116.9375L140.5302734375 116.892578125H149.4697265625Q149.5595703125 116.90380859375 149.5595703125 116.982421875V118.958984375Q149.5595703125 119.048828125 149.4697265625 119.048828125H140.4404296875V124.888671875H149.4697265625Q149.5595703125 124.89990234375 149.5595703125 124.978515625V126.91015625Q149.5595703125 127.0 149.4697265625 127.0H138.3740234375Q138.2841796875 127.0 138.2841796875 126.91015625V115.23046875Q138.29541015625 115.140625 138.3740234375 115.140625ZM150.15478515625 116.9375H162.01416015625Q162.10400390625 116.94873046875 162.10400390625 117.02734375V119.947265625L155.81494140625 124.888671875H162.01416015625Q162.10400390625 124.89990234375 162.10400390625 124.978515625V126.91015625Q162.10400390625 127.0 162.01416015625 127.0H150.15478515625Q150.06494140625 127.0 150.06494140625 126.91015625V117.02734375Q150.076171875 116.9375 150.15478515625 116.9375ZM152.17626953125 119.048828125V124.888671875H152.35595703125L159.85791015625 119.048828125ZM168.32568359375 115.140625H170.30224609375Q170.39208984375 115.15185546875 170.39208984375 115.23046875V116.9375L170.48193359375 116.892578125H179.42138671875Q179.51123046875 116.90380859375 179.51123046875 116.982421875V118.958984375Q179.51123046875 119.048828125 179.42138671875 119.048828125H170.39208984375V124.888671875H179.42138671875Q179.51123046875 124.89990234375 179.51123046875 124.978515625V126.91015625Q179.51123046875 127.0 179.42138671875 127.0H168.32568359375Q168.23583984375 127.0 168.23583984375 126.91015625V115.23046875Q168.2470703125 115.140625 168.32568359375 115.140625ZM180.1064453125 116.892578125H191.7861328125Q191.8759765625 116.90380859375 191.8759765625 116.982421875V126.91015625Q191.8759765625 127.0 191.7861328125 127.0H180.1064453125Q180.0166015625 127.0 180.0166015625 126.91015625V116.982421875Q180.02783203125 116.892578125 180.1064453125 116.892578125ZM182.1279296875 119.048828125V124.84375H189.7646484375V119.048828125ZM198.232421875 115.140625H200.208984375Q200.298828125 115.15185546875 200.298828125 115.23046875V116.9375L200.388671875 116.892578125H209.328125Q209.41796875 116.90380859375 209.41796875 116.982421875V118.958984375Q209.41796875 119.048828125 209.328125 119.048828125H200.298828125V124.888671875H209.328125Q209.41796875 124.89990234375 209.41796875 124.978515625V126.91015625Q209.41796875 127.0 209.328125 127.0H198.232421875Q198.142578125 127.0 198.142578125 126.91015625V115.23046875Q198.15380859375 115.140625 198.232421875 115.140625ZM210.01318359375 115.095703125H211.94482421875Q212.03466796875 115.10693359375 212.03466796875 115.185546875V116.982421875Q220.7607421875 123.73193359375 220.92919921875 123.9453125V126.91015625Q220.92919921875 127.0 220.83935546875 127.0H218.86279296875Q218.77294921875 127.0 218.77294921875 126.91015625V124.93359375Q218.57080078125 124.6865234375 212.03466796875 119.6328125V126.91015625Q212.03466796875 127.0 211.94482421875 127.0H210.01318359375Q209.92333984375 127.0 209.92333984375 126.91015625V115.185546875Q209.9345703125 115.095703125 210.01318359375 115.095703125ZM221.591796875 116.9375H223.5234375Q223.61328125 116.94873046875 223.61328125 117.02734375V126.91015625Q223.61328125 127.0 223.5234375 127.0H221.591796875Q221.501953125 127.0 221.501953125 126.91015625V117.02734375Q221.51318359375 116.9375 221.591796875 116.9375ZM224.2421875 116.892578125H236.19140625Q236.28125 116.90380859375 236.28125 116.982421875V118.958984375Q236.28125 119.048828125 236.19140625 119.048828125H226.263671875L226.30859375 119.138671875V126.865234375Q226.30859375 126.9326171875 226.173828125 127.0H224.2421875Q224.15234375 127.0 224.15234375 126.91015625V116.982421875Q224.16357421875 116.892578125 224.2421875 116.892578125ZM236.94384765625 115.140625H238.92041015625Q239.01025390625 115.15185546875 239.01025390625 115.23046875V116.9375L239.10009765625 116.892578125H248.03955078125Q248.12939453125 116.90380859375 248.12939453125 116.982421875V118.958984375Q248.12939453125 119.048828125 248.03955078125 119.048828125H239.01025390625V124.888671875H248.03955078125Q248.12939453125 124.89990234375 248.12939453125 124.978515625V126.91015625Q248.12939453125 127.0 248.03955078125 127.0H236.94384765625Q236.85400390625 127.0 236.85400390625 126.91015625V115.23046875Q236.865234375 115.140625 236.94384765625 115.140625ZM248.724609375 116.982421875H250.65625Q250.74609375 116.99365234375 250.74609375 117.072265625V119.09375L257.484375 124.3046875V117.072265625Q257.49560546875 116.982421875 257.57421875 116.982421875H259.55078125Q259.640625 116.99365234375 259.640625 117.072265625V128.751953125Q259.28125 129.111328125 255.013671875 132.390625L254.96875 132.30078125V129.830078125Q255.5302734375 129.2685546875 257.484375 127.853515625V127.044921875Q257.09130859375 126.65185546875 248.634765625 120.08203125V117.072265625Q248.64599609375 116.982421875 248.724609375 116.982421875ZM265.884765625 116.982421875H267.81640625Q267.90625 116.99365234375 267.90625 117.072265625V119.09375L274.64453125 124.3046875V117.072265625Q274.65576171875 116.982421875 274.734375 116.982421875H276.7109375Q276.80078125 116.99365234375 276.80078125 117.072265625V128.751953125Q276.44140625 129.111328125 272.173828125 132.390625L272.12890625 132.30078125V129.830078125Q272.6904296875 129.2685546875 274.64453125 127.853515625V127.044921875Q274.25146484375 126.65185546875 265.794921875 120.08203125V117.072265625Q265.80615234375 116.982421875 265.884765625 116.982421875ZM277.33984375 116.9375H289.19921875Q289.2890625 116.94873046875 289.2890625 117.02734375V119.947265625L283.0 124.888671875H289.19921875Q289.2890625 124.89990234375 289.2890625 124.978515625V126.91015625Q289.2890625 127.0 289.19921875 127.0H277.33984375Q277.25 127.0 277.25 126.91015625V117.02734375Q277.26123046875 116.9375 277.33984375 116.9375ZM279.361328125 119.048828125V124.888671875H279.541015625L287.04296875 119.048828125ZM298.9248046875 116.9375H300.9013671875Q300.9912109375 116.94873046875 300.9912109375 117.02734375V126.91015625Q300.9912109375 127.0 300.9013671875 127.0H289.8056640625Q289.7158203125 127.0 289.7158203125 126.91015625V124.169921875Q290.28857421875 123.64208984375 298.9248046875 116.9375ZM292.1865234375 124.888671875H298.8798828125V119.6328125Q293.09619140625 124.11376953125 292.1865234375 124.888671875ZM301.462890625 116.892578125H313.412109375Q313.501953125 116.90380859375 313.501953125 116.982421875V118.958984375Q313.501953125 119.048828125 313.412109375 119.048828125H303.484375L303.529296875 119.138671875V126.865234375Q303.529296875 126.9326171875 303.39453125 127.0H301.462890625Q301.373046875 127.0 301.373046875 126.91015625V116.982421875Q301.38427734375 116.892578125 301.462890625 116.892578125ZM314.16455078125 116.892578125H326.15869140625Q326.24853515625 116.90380859375 326.24853515625 116.982421875V118.958984375Q326.24853515625 119.048828125 326.15869140625 119.048828125H316.18603515625V120.845703125H326.15869140625Q326.24853515625 120.85693359375 326.24853515625 120.935546875V126.91015625Q326.24853515625 127.0 326.15869140625 127.0H314.20947265625Q314.14208984375 127.0 314.07470703125 126.865234375V124.93359375Q314.0859375 124.84375 314.16455078125 124.84375H324.13720703125V122.95703125H314.16455078125Q314.07470703125 122.95703125 314.07470703125 122.8671875V122.642578125Q314.07470703125 122.59765625 314.11962890625 122.59765625L314.07470703125 122.5078125V116.982421875Q314.0859375 116.892578125 314.16455078125 116.892578125ZM332.44775390625 116.892578125H344.12744140625Q344.21728515625 116.90380859375 344.21728515625 116.982421875V126.91015625Q344.21728515625 127.0 344.12744140625 127.0H332.44775390625Q332.35791015625 127.0 332.35791015625 126.91015625V116.982421875Q332.369140625 116.892578125 332.44775390625 116.892578125ZM334.46923828125 119.048828125V124.84375H342.10595703125V119.048828125ZM344.86865234375 116.8251953125H355.91943359375Q356.00927734375 116.83642578125 356.00927734375 116.9150390625V118.8466796875Q356.00927734375 118.9365234375 355.91943359375 118.9365234375H346.89013671875V124.7763671875H355.91943359375Q356.00927734375 124.78759765625 356.00927734375 124.8662109375V126.7978515625Q356.00927734375 126.8876953125 355.91943359375 126.8876953125H346.89013671875V128.5947265625Q346.89013671875 128.6845703125 346.80029296875 128.6845703125H344.86865234375Q344.77880859375 128.6845703125 344.77880859375 128.5947265625V116.9150390625Q344.7900390625 116.8251953125 344.86865234375 116.8251953125ZM371.35009765625 116.9375H373.32666015625Q373.41650390625 116.94873046875 373.41650390625 117.02734375V126.91015625Q373.41650390625 127.0 373.32666015625 127.0H362.23095703125Q362.14111328125 127.0 362.14111328125 126.91015625V124.169921875Q362.7138671875 123.64208984375 371.35009765625 116.9375ZM364.61181640625 124.888671875H371.30517578125V119.6328125Q365.521484375 124.11376953125 364.61181640625 124.888671875ZM373.88818359375 116.9375H376.80810546875Q385.83740234375 123.9228515625 385.83740234375 123.9453125V126.91015625Q385.83740234375 127.0 385.74755859375 127.0H383.81591796875Q383.72607421875 127.0 383.72607421875 126.91015625V124.978515625Q382.9287109375 124.40576171875 375.90966796875 118.958984375V126.91015625Q375.90966796875 127.0 375.81982421875 127.0H373.88818359375Q373.79833984375 127.0 373.79833984375 126.91015625V117.02734375Q373.8095703125 116.9375 373.88818359375 116.9375ZM386.4326171875 115.140625H388.4091796875Q388.4990234375 115.15185546875 388.4990234375 115.23046875V116.9375L388.5888671875 116.892578125H397.5283203125Q397.6181640625 116.90380859375 397.6181640625 116.982421875V118.958984375Q397.6181640625 119.048828125 397.5283203125 119.048828125H388.4990234375V124.888671875H397.5283203125Q397.6181640625 124.89990234375 397.6181640625 124.978515625V126.91015625Q397.6181640625 127.0 397.5283203125 127.0H386.4326171875Q386.3427734375 127.0 386.3427734375 126.91015625V115.23046875Q386.35400390625 115.140625 386.4326171875 115.140625ZM398.21337890625 116.9375H400.14501953125Q400.23486328125 116.94873046875 400.23486328125 117.02734375V126.91015625Q400.23486328125 127.0 400.14501953125 127.0H398.21337890625Q398.12353515625 127.0 398.12353515625 126.91015625V117.02734375Q398.134765625 116.9375 398.21337890625 116.9375ZM417.46240234375 116.8701171875H419.43896484375Q419.52880859375 116.88134765625 419.52880859375 116.9599609375V128.6845703125Q419.203125 129.01025390625 414.99169921875 132.2783203125H414.90185546875V129.7177734375L417.41748046875 127.6962890625V126.9326171875H408.38818359375Q408.29833984375 126.9326171875 408.29833984375 126.8427734375V124.0576171875Q408.8037109375 123.59716796875 417.46240234375 116.8701171875ZM410.72412109375 124.8212890625H417.41748046875V119.5654296875Q410.982421875 124.56298828125 410.72412109375 124.8212890625ZM420.22509765625 116.892578125H432.17431640625Q432.26416015625 116.90380859375 432.26416015625 116.982421875V118.958984375Q432.26416015625 119.048828125 432.17431640625 119.048828125H422.24658203125L422.29150390625 119.138671875V126.865234375Q422.29150390625 126.9326171875 422.15673828125 127.0H420.22509765625Q420.13525390625 127.0 420.13525390625 126.91015625V116.982421875Q420.146484375 116.892578125 420.22509765625 116.892578125ZM442.0458984375 116.9375H444.0224609375Q444.1123046875 116.94873046875 444.1123046875 117.02734375V126.91015625Q444.1123046875 127.0 444.0224609375 127.0H432.9267578125Q432.8369140625 127.0 432.8369140625 126.91015625V124.169921875Q433.40966796875 123.64208984375 442.0458984375 116.9375ZM435.3076171875 124.888671875H442.0009765625V119.6328125Q436.21728515625 124.11376953125 435.3076171875 124.888671875ZM444.583984375 116.9375H446.515625Q446.60546875 116.94873046875 446.60546875 117.02734375V124.93359375H446.650390625Q454.2646484375 119.0712890625 454.421875 118.869140625V117.02734375Q454.43310546875 116.9375 454.51171875 116.9375H456.443359375Q456.533203125 116.94873046875 456.533203125 117.02734375V119.947265625Q456.4208984375 120.1044921875 447.50390625 127.0H444.583984375Q444.494140625 127.0 444.494140625 126.91015625V117.02734375Q444.50537109375 116.9375 444.583984375 116.9375ZM457.0498046875 116.9375H458.9814453125Q459.0712890625 116.94873046875 459.0712890625 117.02734375V126.91015625Q459.0712890625 127.0 458.9814453125 127.0H457.0498046875Q456.9599609375 127.0 456.9599609375 126.91015625V117.02734375Q456.97119140625 116.9375 457.0498046875 116.9375ZM459.7001953125 115.140625H461.6767578125Q461.7666015625 115.15185546875 461.7666015625 115.23046875V116.9375L461.8564453125 116.892578125H470.7958984375Q470.8857421875 116.90380859375 470.8857421875 116.982421875V118.958984375Q470.8857421875 119.048828125 470.7958984375 119.048828125H461.7666015625V124.888671875H470.7958984375Q470.8857421875 124.89990234375 470.8857421875 124.978515625V126.91015625Q470.8857421875 127.0 470.7958984375 127.0H459.7001953125Q459.6103515625 127.0 459.6103515625 126.91015625V115.23046875Q459.62158203125 115.140625 459.7001953125 115.140625ZM471.48095703125 116.982421875H473.41259765625Q473.50244140625 116.99365234375 473.50244140625 117.072265625V119.09375L480.24072265625 124.3046875V117.072265625Q480.251953125 116.982421875 480.33056640625 116.982421875H482.30712890625Q482.39697265625 116.99365234375 482.39697265625 117.072265625V128.751953125Q482.03759765625 129.111328125 477.77001953125 132.390625L477.72509765625 132.30078125V129.830078125Q478.28662109375 129.2685546875 480.24072265625 127.853515625V127.044921875Q479.84765625 126.65185546875 471.39111328125 120.08203125V117.072265625Q471.40234375 116.982421875 471.48095703125 116.982421875ZM488.64111328125 116.892578125H500.59033203125Q500.68017578125 116.90380859375 500.68017578125 116.982421875V118.958984375Q500.68017578125 119.048828125 500.59033203125 119.048828125H490.66259765625L490.70751953125 119.138671875V126.865234375Q490.70751953125 126.9326171875 490.57275390625 127.0H488.64111328125Q488.55126953125 127.0 488.55126953125 126.91015625V116.982421875Q488.5625 116.892578125 488.64111328125 116.892578125ZM510.4619140625 116.9375H512.4384765625Q512.5283203125 116.94873046875 512.5283203125 117.02734375V126.91015625Q512.5283203125 127.0 512.4384765625 127.0H501.3427734375Q501.2529296875 127.0 501.2529296875 126.91015625V124.169921875Q501.82568359375 123.64208984375 510.4619140625 116.9375ZM503.7236328125 124.888671875H510.4169921875V119.6328125Q504.63330078125 124.11376953125 503.7236328125 124.888671875ZM513.0 116.9375H524.05078125Q524.140625 116.94873046875 524.140625 117.02734375V118.958984375Q524.140625 119.048828125 524.05078125 119.048828125H515.021484375V124.888671875H524.05078125Q524.140625 124.89990234375 524.140625 124.978515625V126.91015625Q524.140625 127.0 524.05078125 127.0H513.0Q512.91015625 127.0 512.91015625 126.91015625V117.02734375Q512.92138671875 116.9375 513.0 116.9375ZM524.6123046875 116.9375H526.5439453125Q526.6337890625 116.94873046875 526.6337890625 117.02734375V126.91015625Q526.6337890625 127.0 526.5439453125 127.0H524.6123046875Q524.5224609375 127.0 524.5224609375 126.91015625V117.02734375Q524.53369140625 116.9375 524.6123046875 116.9375ZM527.2626953125 116.9375H530.1826171875Q539.2119140625 123.9228515625 539.2119140625 123.9453125V126.91015625Q539.2119140625 127.0 539.1220703125 127.0H537.1904296875Q537.1005859375 127.0 537.1005859375 126.91015625V124.978515625Q536.30322265625 124.40576171875 529.2841796875 118.958984375V126.91015625Q529.2841796875 127.0 529.1943359375 127.0H527.2626953125Q527.1728515625 127.0 527.1728515625 126.91015625V117.02734375Q527.18408203125 116.9375 527.2626953125 116.9375ZM548.88134765625 116.8701171875H550.85791015625Q550.94775390625 116.88134765625 550.94775390625 116.9599609375V128.6845703125Q550.6220703125 129.01025390625 546.41064453125 132.2783203125H546.32080078125V129.7177734375L548.83642578125 127.6962890625V126.9326171875H539.80712890625Q539.71728515625 126.9326171875 539.71728515625 126.8427734375V124.0576171875Q540.22265625 123.59716796875 548.88134765625 116.8701171875ZM542.14306640625 124.8212890625H548.83642578125V119.5654296875Q542.4013671875 124.56298828125 542.14306640625 124.8212890625Z" fill="#3a3f47"/><path d="M36.40625 158.0H37.78125Q37.84375 158.0078125 37.84375 158.0625V164.9375Q37.84375 165.0 37.78125 165.0H30.0625Q30.0 165.0 30.0 164.9375V163.03125Q30.3984375 162.6640625 36.40625 158.0ZM31.71875 163.53125H36.375V159.875Q32.3515625 162.9921875 31.71875 163.53125ZM38.171875 156.71875H39.515625Q39.578125 156.7265625 39.578125 156.78125V158.0L45.921875 163.0V164.9375Q45.921875 165.0 45.859375 165.0H38.171875Q38.109375 165.0 38.109375 164.9375V156.78125Q38.1171875 156.71875 38.171875 156.71875ZM39.578125 159.875V163.53125H44.234375Q44.0546875 163.3515625 39.578125 159.875ZM46.25 158.0H53.9375Q54.0 158.0078125 54.0 158.0625V159.40625Q54.0 159.46875 53.9375 159.46875H47.65625V163.53125H53.9375Q54.0 163.5390625 54.0 163.59375V164.9375Q54.0 165.0 53.9375 165.0H46.25Q46.1875 165.0 46.1875 164.9375V158.0625Q46.1953125 158.0 46.25 158.0ZM60.671875 156.71875H62.015625Q62.078125 156.7265625 62.078125 156.78125V164.9375Q62.078125 165.0 62.015625 165.0H54.265625V163.0Q54.4921875 162.7734375 60.609375 158.0L60.578125 157.9375V156.8125Q60.578125 156.765625 60.671875 156.71875ZM55.921875 163.5V163.53125H60.609375L60.578125 163.375V159.9375L60.609375 159.875H60.578125Q56.03125 163.453125 55.921875 163.5ZM62.453125 158.0H70.703125Q70.765625 158.0078125 70.765625 158.0625V160.09375L66.390625 163.53125H70.703125Q70.765625 163.5390625 70.765625 163.59375V164.9375Q70.765625 165.0 70.703125 165.0H62.453125Q62.390625 165.0 62.390625 164.9375V158.0625Q62.3984375 158.0 62.453125 158.0ZM63.859375 159.46875V163.53125H63.984375L69.203125 159.46875ZM71.125 157.921875H78.8125Q78.875 157.9296875 78.875 157.984375V159.328125Q78.875 159.390625 78.8125 159.390625H72.53125V163.453125H78.8125Q78.875 163.4609375 78.875 163.515625V164.859375Q78.875 164.921875 78.8125 164.921875H72.53125V166.109375Q72.53125 166.171875 72.46875 166.171875H71.125Q71.0625 166.171875 71.0625 166.109375V157.984375Q71.0703125 157.921875 71.125 157.921875ZM85.546875 157.953125H86.921875Q86.984375 157.9609375 86.984375 158.015625V166.171875Q86.7578125 166.3984375 83.828125 168.671875H83.765625V166.890625L85.515625 165.484375V164.953125H79.234375Q79.171875 164.953125 79.171875 164.890625V162.953125Q79.5234375 162.6328125 85.546875 157.953125ZM80.859375 163.484375H85.515625V159.828125Q81.0390625 163.3046875 80.859375 163.484375ZM87.46875 156.71875H88.8125Q88.875 156.7265625 88.875 156.78125V158.03125Q94.9453125 162.7265625 95.0625 162.875V164.9375Q95.0625 165.0 95.0 165.0H93.625Q93.5625 165.0 93.5625 164.9375V163.5625Q93.421875 163.390625 88.875 159.875V164.9375Q88.875 165.0 88.8125 165.0H87.46875Q87.40625 165.0 87.40625 164.9375V156.78125Q87.4140625 156.71875 87.46875 156.71875ZM95.5234375 158.0H96.8671875Q96.9296875 158.0078125 96.9296875 158.0625V164.9375Q96.9296875 165.0 96.8671875 165.0H95.5234375Q95.4609375 165.0 95.4609375 164.9375V158.0625Q95.46875 158.0 95.5234375 158.0ZM99.1484375 157.53125H100.4921875Q100.5546875 157.5390625 100.5546875 157.59375V165.75Q100.3046875 166.0 97.3359375 168.28125L97.3046875 168.21875V166.5Q97.3046875 166.453125 99.0859375 165.0625V157.59375Q99.09375 157.53125 99.1484375 157.53125ZM100.9921875 157.96875H102.3671875Q102.4296875 157.9765625 102.4296875 158.03125V162.375L106.8359375 158.0L106.8671875 158.0625V160.03125L103.4296875 163.5H106.8046875Q106.8671875 163.5078125 106.8671875 163.5625V164.9375Q106.8671875 165.0 106.8046875 165.0H100.9921875Q100.9296875 165.0 100.9296875 164.9375V158.03125Q100.9375 157.96875 100.9921875 157.96875ZM107.28125 157.96875H108.625Q108.6875 157.9765625 108.6875 158.03125V163.5H109.5625Q109.625 163.5078125 109.625 163.5625V164.9375Q109.625 165.0 109.5625 165.0H107.28125Q107.21875 165.0 107.21875 164.9375V158.03125Q107.2265625 157.96875 107.28125 157.96875ZM110.078125 158.0H112.109375L112.828125 158.53125V158.0625Q112.8359375 158.0 112.890625 158.0H114.921875Q120.1015625 161.9921875 121.203125 162.875V164.9375Q121.203125 165.0 121.140625 165.0H119.796875Q119.734375 165.0 119.734375 164.9375V163.625Q119.734375 163.6015625 114.296875 159.40625V164.9375Q114.296875 165.0 114.234375 165.0H112.890625Q112.828125 165.0 112.828125 164.9375V160.46875Q112.5859375 160.2265625 111.484375 159.40625V164.9375Q111.484375 165.0 111.421875 165.0H110.078125Q110.015625 165.0 110.015625 164.9375V158.0625Q110.0234375 158.0 110.078125 158.0ZM121.625 158.0H123.65625Q129.9375 162.859375 129.9375 162.875V164.9375Q129.9375 165.0 129.875 165.0H128.53125Q128.46875 165.0 128.46875 164.9375V163.59375Q127.9140625 163.1953125 123.03125 159.40625V164.9375Q123.03125 165.0 122.96875 165.0H121.625Q121.5625 165.0 121.5625 164.9375V158.0625Q121.5703125 158.0 121.625 158.0ZM130.3515625 157.96875H138.4765625Q138.5390625 157.9765625 138.5390625 158.03125V164.9375Q138.5390625 165.0 138.4765625 165.0H130.3515625Q130.2890625 165.0 130.2890625 164.9375V158.03125Q130.296875 157.96875 130.3515625 157.96875ZM131.7578125 159.46875V163.5H137.0703125V159.46875ZM138.9921875 157.96875H146.6796875Q146.7421875 157.9765625 146.7421875 158.03125V159.96875Q146.46875 160.2421875 141.6171875 164.0Q140.4375 164.9296875 140.3984375 165.0V166.1875Q140.3984375 166.25 140.3359375 166.25H138.9921875Q138.9296875 166.25 138.9296875 166.1875V158.03125Q138.9375 157.96875 138.9921875 157.96875ZM140.3984375 159.46875V163.09375L145.0234375 159.5H145.0546875V159.46875ZM147.15625 157.96875H154.84375Q154.90625 157.9765625 154.90625 158.03125V166.1875Q154.90625 166.25 154.84375 166.25H153.5Q153.4375 166.25 153.4375 166.1875V165.0Q153.203125 164.765625 147.90625 160.65625Q147.140625 160.0625 147.09375 159.96875V158.03125Q147.1015625 157.96875 147.15625 157.96875ZM148.78125 159.46875V159.5Q148.921875 159.578125 153.40625 163.09375H153.4375V159.46875ZM155.265625 157.96875H163.578125Q163.640625 157.9765625 163.640625 158.03125V159.40625Q163.640625 159.46875 163.578125 159.46875H156.671875L156.703125 159.53125V164.90625Q156.703125 164.953125 156.609375 165.0H155.265625Q155.203125 165.0 155.203125 164.9375V158.03125Q155.2109375 157.96875 155.265625 157.96875ZM164.1015625 157.96875H172.4453125Q172.5078125 157.9765625 172.5078125 158.03125V159.40625Q172.5078125 159.46875 172.4453125 159.46875H165.5078125V160.71875H172.4453125Q172.5078125 160.7265625 172.5078125 160.78125V164.9375Q172.5078125 165.0 172.4453125 165.0H164.1328125Q164.0859375 165.0 164.0390625 164.90625V163.5625Q164.046875 163.5 164.1015625 163.5H171.0390625V162.1875H164.1015625Q164.0390625 162.1875 164.0390625 162.125V161.96875Q164.0390625 161.9375 164.0703125 161.9375L164.0390625 161.875V158.03125Q164.046875 157.96875 164.1015625 157.96875ZM172.8515625 156.75H174.2265625Q174.2890625 156.7578125 174.2890625 156.8125V158.0L174.3515625 157.96875H180.5703125Q180.6328125 157.9765625 180.6328125 158.03125V159.40625Q180.6328125 159.46875 180.5703125 159.46875H174.2890625V163.53125H180.5703125Q180.6328125 163.5390625 180.6328125 163.59375V164.9375Q180.6328125 165.0 180.5703125 165.0H172.8515625Q172.7890625 165.0 172.7890625 164.9375V156.8125Q172.796875 156.75 172.8515625 156.75ZM181.046875 157.96875H182.390625Q182.453125 157.9765625 182.453125 158.03125V163.53125H186.515625V158.03125Q186.5234375 157.96875 186.578125 157.96875H187.921875Q187.984375 157.9765625 187.984375 158.03125V164.9375Q187.984375 165.0 187.921875 165.0H181.046875Q180.984375 165.0 180.984375 164.9375V158.03125Q180.9921875 157.96875 181.046875 157.96875ZM188.4296875 158.0H189.7734375Q189.8359375 158.0078125 189.8359375 158.0625V163.5625H189.8671875Q195.1640625 159.484375 195.2734375 159.34375V158.0625Q195.28125 158.0 195.3359375 158.0H196.6796875Q196.7421875 158.0078125 196.7421875 158.0625V160.09375Q196.6640625 160.203125 190.4609375 165.0H188.4296875Q188.3671875 165.0 188.3671875 164.9375V158.0625Q188.375 158.0 188.4296875 158.0ZM197.1015625 158.0H198.4453125Q198.5078125 158.0078125 198.5078125 158.0625V163.5625H198.5390625Q199.7265625 162.65625 199.8515625 162.53125V158.0625Q199.859375 158.0 199.9140625 158.0H201.2578125Q201.3203125 158.0078125 201.3203125 158.0625V163.59375Q206.7421875 159.390625 206.7578125 159.34375V158.0625Q206.765625 158.0 206.8203125 158.0H208.1640625Q208.2265625 158.0078125 208.2265625 158.0625V160.09375Q207.96875 160.3515625 203.1328125 164.0625Q201.9921875 165.0 201.8515625 165.0H199.9140625Q199.8515625 165.0 199.8515625 164.9375V164.4375Q199.171875 165.0 199.0390625 165.0H197.1015625Q197.0390625 165.0 197.0390625 164.9375V158.0625Q197.046875 158.0 197.1015625 158.0ZM208.6796875 158.03125H210.7109375Q210.734375 158.03125 213.9921875 160.5625Q215.3671875 159.53125 215.5234375 159.375V158.09375Q215.53125 158.03125 215.5859375 158.03125H216.9296875Q216.9921875 158.0390625 216.9921875 158.09375V160.125Q215.2421875 161.5 215.2421875 161.53125Q216.9921875 162.875 216.9921875 162.90625V164.9375Q216.9921875 165.0 216.9296875 165.0H215.5859375Q215.5234375 165.0 215.5234375 164.9375V163.65625Q214.0625 162.46875 213.9609375 162.46875Q213.734375 162.6953125 210.7109375 165.0H208.6796875Q208.6171875 165.0 208.6171875 164.9375V163.625Q208.625 163.5625 208.6796875 163.5625H210.0546875Q210.203125 163.5625 211.8984375 162.1875Q212.5546875 161.71875 212.7734375 161.5L210.0859375 159.4375H208.6796875Q208.6171875 159.4375 208.6171875 159.375V158.09375Q208.625 158.03125 208.6796875 158.03125ZM217.375 158.03125H218.71875Q218.78125 158.0390625 218.78125 158.09375V159.5L223.46875 163.125V158.09375Q223.4765625 158.03125 223.53125 158.03125H224.90625Q224.96875 158.0390625 224.96875 158.09375V166.21875Q224.71875 166.46875 221.75 168.75L221.71875 168.6875V166.96875Q222.109375 166.578125 223.46875 165.59375V165.03125Q223.1953125 164.7578125 217.3125 160.1875V158.09375Q217.3203125 158.03125 217.375 158.03125ZM225.3125 158.0H232.84375Q232.90625 158.0078125 232.90625 158.0625V159.4375L227.6875 163.53125H232.84375Q232.90625 163.5390625 232.90625 163.59375V164.9375Q232.90625 165.0 232.84375 165.0H225.3125V163.6875L225.28125 163.53125L230.5 159.5V159.46875H225.3125ZM241.421875 163.53125H242.984375Q243.046875 163.5390625 243.046875 163.59375V164.9375Q243.046875 165.0 242.984375 165.0H241.421875Q241.359375 165.0 241.359375 164.9375V163.59375Q241.3671875 163.53125 241.421875 163.53125Z" fill="#6b7280"/></svg>