<svg xmlns="http://www.w3.org/2000/svg" viewBox="0 0 660.2 222.0" width="660" height="222"><path d="M30.0 76.0V53.08984375H34.8515625V71.1484375H40.51171875V53.08984375H45.36328125V71.1484375H51.0234375V53.08984375H55.875V76.0ZM65.578125 71.1484375H81.75V57.94140625H65.578125ZM60.7265625 76.0V53.08984375H86.6015625V76.0ZM91.453125 76.0V71.1484375H112.4765625V66.970703125H91.453125V62.119140625H112.4765625V57.94140625H91.453125V53.08984375H117.328125V76.0Z" fill="#12151a"/><path d="M30.0 114.33203125V112.310546875H32.42578125V114.33203125ZM30.0 127.0V115.544921875H32.42578125V127.0ZM34.8515625 127.0V115.544921875H47.7890625V117.970703125H37.27734375V124.57421875H47.7890625V127.0ZM52.505859375 124.57421875H60.7265625V117.970703125ZM50.21484375 127.0V123.2939453125L56.8408203125 117.970703125H50.21484375V115.544921875H63.15234375V127.0ZM65.578125 127.0V115.544921875H78.515625V117.970703125H68.00390625V127.0ZM83.232421875 124.57421875H91.453125V117.970703125ZM80.94140625 127.0V123.2939453125L87.5673828125 117.970703125H80.94140625V115.544921875H93.87890625V127.0ZM96.3046875 127.0V124.57421875H106.81640625V122.4853515625H96.3046875V115.544921875H109.2421875V117.970703125H98.73046875V120.0595703125H109.2421875V127.0ZM122.8984375 127.0V115.544921875H135.8359375V117.970703125H125.32421875V127.0ZM140.6875 124.57421875H148.7734375V117.970703125H140.6875ZM138.26171875 127.0V115.544921875H151.19921875V127.0ZM153.625 127.0V115.544921875H166.5625V117.970703125H156.05078125V124.57421875H166.5625V127.0ZM168.98828125 127.0V112.310546875H171.4140625V117.970703125L174.423828125 115.544921875H181.92578125V117.970703125H175.2998046875L171.4140625 121.0927734375V124.57421875H181.92578125V127.0ZM186.77734375 124.57421875 194.998046875 117.970703125H186.77734375ZM184.3515625 127.0V115.544921875H197.2890625V119.2509765625L190.6630859375 124.57421875H197.2890625V127.0ZM199.71484375 127.0V112.310546875H202.140625V115.544921875H212.65234375V117.970703125H202.140625V124.57421875H212.65234375V127.0ZM215.078125 127.0V124.57421875H225.58984375V122.4853515625H215.078125V115.544921875H228.015625V117.970703125H217.50390625V120.0595703125H228.015625V127.0ZM243.962890625 124.57421875H252.18359375V117.970703125ZM241.671875 127.0V123.2939453125L252.18359375 114.8486328125V112.310546875H254.609375V127.0ZM259.4609375 124.57421875H267.546875V117.970703125H259.4609375ZM257.03515625 127.0V115.544921875H269.97265625V127.0ZM272.3984375 127.0V115.544921875H274.82421875V124.57421875H277.654296875V115.544921875H280.080078125V124.57421875H282.91015625V115.544921875H285.3359375V127.0ZM287.76171875 127.0V115.544921875H291.0634765625L300.69921875 123.2939453125V127.0H298.408203125V124.57421875L290.1875 117.970703125V127.0ZM314.35546875 127.0V124.57421875H324.8671875V122.4853515625H314.35546875V115.544921875H327.29296875V117.970703125H316.78125V120.0595703125H327.29296875V127.0ZM332.14453125 124.57421875H340.23046875V117.970703125H332.14453125ZM329.71875 127.0V115.544921875H342.65625V127.0ZM345.08203125 127.0V112.310546875H347.5078125V124.57421875H349.93359375V127.0ZM363.58984375 127.0V120.0595703125H374.1015625V117.970703125H363.58984375V115.544921875H376.52734375V122.4853515625H366.015625V124.57421875H376.52734375V127.0ZM378.953125 117.970703125V115.544921875H381.37890625V121.205078125L380.166015625 117.970703125ZM383.8046875 127.0V124.57421875H394.31640625V122.4853515625H383.8046875V115.544921875H396.7421875V117.970703125H386.23046875V120.0595703125H396.7421875V127.0ZM410.3984375 130.234375V115.544921875H423.3359375V117.970703125H412.82421875V124.57421875H423.3359375V127.0H412.82421875V130.234375ZM425.76171875 127.0V112.310546875H428.1875V124.57421875H430.61328125V127.0ZM435.46484375 124.57421875H443.55078125V117.970703125H435.46484375ZM433.0390625 127.0V115.544921875H445.9765625V127.0ZM450.828125 124.57421875H458.9140625V117.970703125H450.828125ZM448.40234375 127.0V115.544921875H461.33984375V127.0ZM466.056640625 124.57421875H474.27734375V117.970703125ZM463.765625 127.0V123.2939453125L474.27734375 114.8486328125V112.310546875H476.703125V127.0ZM479.12890625 127.0V112.310546875H481.5546875V124.57421875H483.98046875V127.0ZM486.40625 114.33203125V112.310546875H488.83203125V114.33203125ZM486.40625 127.0V115.544921875H488.83203125V127.0ZM491.2578125 127.0V112.310546875H493.68359375V115.544921875H504.1953125V117.970703125H493.68359375V124.57421875H504.1953125V127.0ZM517.8515625 127.0V124.57421875H528.36328125V122.4853515625H517.8515625V115.544921875H530.7890625V117.970703125H520.27734375V120.0595703125H530.7890625V127.0ZM533.21484375 127.0V112.310546875H535.640625V115.544921875H546.15234375V117.970703125H535.640625V124.57421875H546.15234375V127.0ZM548.578125 127.0V115.544921875H561.515625V117.970703125H551.00390625V127.0ZM566.232421875 124.57421875H574.453125V117.970703125ZM563.94140625 127.0V123.2939453125L570.5673828125 117.970703125H563.94140625V115.544921875H576.87890625V127.0ZM579.3046875 114.33203125V112.310546875H581.73046875V114.33203125ZM579.3046875 127.0V115.544921875H581.73046875V127.0ZM586.58203125 124.57421875H594.66796875V117.970703125H586.58203125ZM584.15625 127.0V115.544921875H597.09375V130.234375H594.66796875V127.0ZM599.51953125 127.0V112.310546875H601.9453125V114.8486328125L612.45703125 123.2939453125V127.0H610.166015625V124.57421875L601.9453125 117.970703125V127.0ZM614.8828125 127.0V112.310546875H617.30859375V115.544921875H627.8203125V117.970703125H617.30859375V124.57421875H627.8203125V127.0Z" fill="#3a3f47"/><path d="M31.59375 163.3125H37.3125V158.71875ZM30.0 165.0V162.421875L34.609375 158.71875H30.0V157.03125H39.0V165.0ZM42.375 163.3125H48.09375L42.375 158.71875ZM40.6875 165.0V154.78125H42.375V156.546875L49.6875 162.421875V165.0ZM51.375 165.0V157.03125H60.375V158.71875H53.0625V163.3125H60.375V165.0ZM63.65625 163.3125H69.375V158.71875ZM62.0625 165.0V162.421875L69.375 156.546875V154.78125H71.0625V165.0ZM74.4375 163.3125 80.15625 158.71875H74.4375ZM72.75 165.0V157.03125H81.75V159.609375L77.140625 163.3125H81.75V165.0ZM83.4375 167.25V157.03125H92.4375V158.71875H85.125V163.3125H92.4375V165.0H85.125V167.25ZM95.8125 163.3125H101.4375V158.71875H95.8125ZM94.125 165.0V157.03125H103.125V167.25H101.4375V165.0ZM104.8125 165.0V154.78125H106.5V156.546875L113.8125 162.421875V165.0H112.21875V163.3125L106.5 158.71875V165.0ZM115.5 156.1875V154.78125H117.1875V156.1875ZM115.5 165.0V157.03125H117.1875V165.0ZM122.53125 156.1875V154.78125H124.21875V156.1875ZM118.875 167.25V165.5625H119.71875L122.53125 163.3125V157.03125H124.21875V164.125L120.328125 167.25ZM125.90625 165.0V154.78125H127.59375V158.71875L129.6875 157.03125H134.90625V158.71875H130.296875L127.59375 160.890625V163.3125H134.90625V165.0ZM136.59375 165.0V154.78125H138.28125V163.3125H139.96875V165.0ZM141.65625 165.0V157.03125H150.65625V165.0H148.96875V158.71875H147.0V165.0H145.3125V158.71875H143.34375V165.0ZM152.34375 165.0V157.03125H154.640625L161.34375 162.421875V165.0H159.75V163.3125L154.03125 158.71875V165.0ZM164.71875 163.3125H170.34375V158.71875H164.71875ZM163.03125 165.0V157.03125H172.03125V165.0ZM175.40625 163.3125H181.03125V158.71875H175.40625ZM173.71875 167.25V157.03125H182.71875V165.0H175.40625V167.25ZM186.0 158.71875 191.71875 163.3125V158.71875ZM184.40625 159.609375V157.03125H193.40625V167.25H191.71875V165.484375ZM195.09375 165.0V157.03125H204.09375V158.71875H196.78125V165.0ZM205.78125 165.0V163.3125H213.09375V161.859375H205.78125V157.03125H214.78125V158.71875H207.46875V160.171875H214.78125V165.0ZM216.46875 165.0V154.78125H218.15625V157.03125H225.46875V158.71875H218.15625V163.3125H225.46875V165.0ZM227.15625 165.0V157.03125H228.84375V163.3125H234.46875V157.03125H236.15625V165.0ZM237.84375 159.609375V157.03125H239.4375V158.71875L245.15625 163.3125V157.03125H246.84375V165.0H244.546875ZM248.53125 165.0V157.03125H250.21875V163.3125H252.1875V157.03125H253.875V163.3125H255.84375V157.03125H257.53125V165.0ZM259.21875 165.0V163.3125H260.40625L262.875 161.34375V160.6875L260.40625 158.71875H259.21875V157.03125H261.015625L263.34375 158.90625H264.09375L266.421875 157.03125H268.21875V158.71875H267.03125L264.5625 160.6875V161.34375L267.03125 163.3125H268.21875V165.0H266.421875L264.09375 163.125H263.34375L261.015625 165.0ZM269.90625 159.609375V157.03125H271.5V158.71875L277.21875 163.3125V157.03125H278.90625V167.25H277.21875V165.484375ZM280.59375 165.0V162.421875L287.609375 158.71875H280.59375V157.03125H289.59375V159.609375L282.578125 163.3125H289.59375V165.0Z" fill="#6b7280"/><path d="M31.59375 192.3125H37.3125V187.71875ZM30.0 194.0V191.421875L34.609375 187.71875H30.0V186.03125H39.0V194.0ZM42.375 192.3125H48.09375L42.375 187.71875ZM40.6875 194.0V183.78125H42.375V185.546875L49.6875 191.421875V194.0ZM51.375 194.0V186.03125H60.375V187.71875H53.0625V192.3125H60.375V194.0ZM63.65625 192.3125H69.375V187.71875ZM62.0625 194.0V191.421875L69.375 185.546875V183.78125H71.0625V194.0ZM74.4375 192.3125 80.15625 187.71875H74.4375ZM72.75 194.0V186.03125H81.75V188.609375L77.140625 192.3125H81.75V194.0ZM83.4375 196.25V186.03125H92.4375V187.71875H85.125V192.3125H92.4375V194.0H85.125V196.25ZM95.8125 192.3125H101.4375V187.71875H95.8125ZM94.125 194.0V186.03125H103.125V196.25H101.4375V194.0ZM104.8125 194.0V183.78125H106.5V185.546875L113.8125 191.421875V194.0H112.21875V192.3125L106.5 187.71875V194.0ZM115.5 185.1875V183.78125H117.1875V185.1875ZM115.5 194.0V186.03125H117.1875V194.0ZM122.53125 185.1875V183.78125H124.21875V185.1875ZM118.875 196.25V194.5625H119.71875L122.53125 192.3125V186.03125H124.21875V193.125L120.328125 196.25ZM125.90625 194.0V183.78125H127.59375V187.71875L129.6875 186.03125H134.90625V187.71875H130.296875L127.59375 189.890625V192.3125H134.90625V194.0ZM136.59375 194.0V183.78125H138.28125V192.3125H139.96875V194.0ZM141.65625 194.0V186.03125H150.65625V194.0H148.96875V187.71875H147.0V194.0H145.3125V187.71875H143.34375V194.0ZM152.34375 194.0V186.03125H154.640625L161.34375 191.421875V194.0H159.75V192.3125L154.03125 187.71875V194.0ZM164.71875 192.3125H170.34375V187.71875H164.71875ZM163.03125 194.0V186.03125H172.03125V194.0ZM175.40625 192.3125H181.03125V187.71875H175.40625ZM173.71875 196.25V186.03125H182.71875V194.0H175.40625V196.25ZM186.0 187.71875 191.71875 192.3125V187.71875ZM184.40625 188.609375V186.03125H193.40625V196.25H191.71875V194.484375ZM195.09375 194.0V186.03125H204.09375V187.71875H196.78125V194.0ZM205.78125 194.0V192.3125H213.09375V190.859375H205.78125V186.03125H214.78125V187.71875H207.46875V189.171875H214.78125V194.0ZM216.46875 194.0V183.78125H218.15625V186.03125H225.46875V187.71875H218.15625V192.3125H225.46875V194.0ZM227.15625 194.0V186.03125H228.84375V192.3125H234.46875V186.03125H236.15625V194.0ZM237.84375 188.609375V186.03125H239.4375V187.71875L245.15625 192.3125V186.03125H246.84375V194.0H244.546875ZM248.53125 194.0V186.03125H250.21875V192.3125H252.1875V186.03125H253.875V192.3125H255.84375V186.03125H257.53125V194.0ZM259.21875 194.0V192.3125H260.40625L262.875 190.34375V189.6875L260.40625 187.71875H259.21875V186.03125H261.015625L263.34375 187.90625H264.09375L266.421875 186.03125H268.21875V187.71875H267.03125L264.5625 189.6875V190.34375L267.03125 192.3125H268.21875V194.0H266.421875L264.09375 192.125H263.34375L261.015625 194.0ZM269.90625 188.609375V186.03125H271.5V187.71875L277.21875 192.3125V186.03125H278.90625V196.25H277.21875V194.484375ZM280.59375 194.0V191.421875L287.609375 187.71875H280.59375V186.03125H289.59375V188.609375L282.578125 192.3125H289.59375V194.0ZM308.59375 192.3125H314.21875V187.71875H308.59375ZM306.90625 194.0V186.03125H315.90625V194.0ZM320.40625 187.71875V186.03125H323.78125V194.0H322.09375V187.71875ZM328.28125 194.0V189.171875H335.59375V187.71875H328.28125V186.03125H337.28125V190.859375H329.96875V192.3125H337.28125V194.0ZM338.96875 194.0V192.3125H346.28125V190.859375H338.96875V189.171875H346.28125V187.71875H338.96875V186.03125H347.96875V194.0ZM349.65625 194.0V191.421875L355.0 187.125V186.03125H356.59375V188.015625L351.25 192.3125H356.96875V189.96875H358.65625V194.375H356.96875V194.0ZM360.34375 194.0V192.3125H367.65625V190.859375H360.34375V186.03125H369.34375V187.71875H362.03125V189.171875H369.34375V194.0ZM372.71875 192.3125H378.34375V190.859375H372.71875ZM371.03125 194.0V189.171875L372.71875 188.328125V186.03125H374.40625V189.171875H380.03125V194.0ZM381.71875 187.71875V186.03125H390.71875V188.609375L384.359375 194.0H381.71875L389.125 187.71875ZM394.09375 189.171875H399.71875V187.71875H394.09375ZM394.09375 192.3125H399.71875V190.859375H394.09375ZM392.40625 194.0V186.03125H401.40625V194.0ZM404.78125 189.171875H410.40625V187.71875H404.78125ZM403.09375 190.859375V186.03125H412.09375V190.859375L410.40625 191.703125V194.0H408.71875V190.859375ZM434.75 192.3125H436.71875V190.859375H434.75ZM429.40625 190.859375V189.171875H433.0625V186.03125H434.75V189.171875H438.40625V194.0H433.0625V190.859375ZM440.09375 194.0V192.3125H441.78125V194.0ZM443.46875 194.0V192.3125H445.15625V196.25L444.3125 194.0ZM446.84375 191.75V186.03125H448.53125V191.75ZM446.84375 194.0V192.59375H448.53125V194.0ZM450.21875 194.0V192.59375H451.90625V194.0ZM450.21875 191.75V189.171875H457.53125V187.71875H450.21875V186.03125H459.21875V190.859375H451.90625V191.75Z" fill="#6b7280"/></svg>