<svg xmlns="http://www.w3.org/2000/svg" viewBox="0 0 660.8 222.0" width="661" height="222"><path d="M30.0 76.0V69.890625L33.59375 66.1171875H40.107421875V59.109375H33.59375L30.0 55.3359375V49.9453125H33.59375V55.3359375H50.21484375V49.9453125H53.80859375V55.3359375L50.21484375 59.109375H43.701171875V66.1171875H50.21484375L53.80859375 69.890625V76.0H50.21484375V69.890625H33.59375V76.0ZM61.4453125 76.0V64.859375L65.0390625 61.0859375H81.66015625V53.71875H66.4765625V49.9453125H81.66015625L85.25390625 53.71875V64.859375H65.0390625V72.2265625H85.25390625V76.0Z" fill="#12151a"/><path d="M30.0 127.0V120.26171875H40.107421875V115.859375H30.0V113.97265625H40.107421875L41.904296875 115.859375V120.26171875L40.107421875 122.1484375H31.796875V127.0ZM45.72265625 125.11328125V113.97265625H47.51953125V125.11328125H55.830078125V113.97265625H57.626953125V125.11328125L55.830078125 127.0H47.51953125ZM61.4453125 125.11328125V113.97265625H63.2421875V125.11328125H73.349609375V127.0H63.2421875ZM75.595703125 127.0V125.11328125H85.703125V121.4296875H77.392578125L75.595703125 119.54296875V115.859375L77.392578125 113.97265625H87.5V115.859375H77.392578125V119.54296875H85.703125L87.5 121.4296875V125.11328125L85.703125 127.0ZM90.869140625 125.11328125V115.859375L92.666015625 113.97265625H100.9765625L102.7734375 115.859375V119.54296875L100.9765625 121.4296875H92.666015625V125.11328125H102.7734375V127.0H92.666015625ZM92.666015625 119.54296875H100.9765625V115.859375H92.666015625ZM113.779296875 127.0V115.859375L115.576171875 113.97265625H125.68359375V115.859375H115.576171875V127.0ZM127.9296875 125.11328125V121.4296875L129.7265625 119.54296875H138.037109375V115.859375H129.7265625V113.97265625H138.037109375L139.833984375 115.859375V127.0H129.7265625ZM129.7265625 125.11328125H138.037109375V121.4296875H129.7265625ZM143.203125 125.11328125V115.859375L145.0 113.97265625H155.107421875V115.859375H145.0V125.11328125H155.107421875V127.0H145.0ZM158.02734375 125.11328125V115.859375L159.82421875 113.97265625H168.134765625L169.931640625 115.859375V119.54296875L168.134765625 121.4296875H159.82421875V125.11328125H169.931640625V127.0H159.82421875ZM159.82421875 119.54296875H168.134765625V115.859375H159.82421875ZM173.076171875 127.0V115.859375L174.873046875 113.97265625H184.98046875V115.859375H174.873046875V127.0ZM187.2265625 127.0V125.11328125H197.333984375V121.4296875H189.0234375L187.2265625 119.54296875V115.859375L189.0234375 113.97265625H199.130859375V115.859375H189.0234375V119.54296875H197.333984375L199.130859375 121.4296875V125.11328125L197.333984375 127.0ZM210.361328125 125.11328125V115.859375L212.158203125 113.97265625H222.265625V115.859375H212.158203125V125.11328125H222.265625V127.0H212.158203125ZM225.185546875 125.11328125V121.4296875L226.982421875 119.54296875H235.29296875V115.859375H226.982421875V113.97265625H235.29296875L237.08984375 115.859375V127.0H226.982421875ZM226.982421875 125.11328125H235.29296875V121.4296875H226.982421875ZM240.458984375 127.0V115.859375L242.255859375 113.97265625H252.36328125V115.859375H242.255859375V127.0ZM254.609375 125.11328125V113.97265625L256.40625 115.859375V124.9560546875L256.5859375 125.11328125H264.537109375L264.716796875 124.9560546875V115.859375L266.513671875 113.97265625V125.11328125L264.716796875 127.0H256.40625ZM270.33203125 125.11328125V115.859375L272.12890625 113.97265625H280.439453125L282.236328125 115.859375V119.54296875L280.439453125 121.4296875H272.12890625V125.11328125H282.236328125V127.0H272.12890625ZM272.12890625 119.54296875H280.439453125V115.859375H272.12890625ZM293.2421875 127.0V115.859375L295.0390625 113.97265625H304.47265625L306.26953125 115.859375V127.0H304.47265625V115.859375H300.654296875V127.0H298.857421875V115.859375H295.0390625V127.0ZM310.087890625 125.11328125V115.859375L311.884765625 113.97265625H320.1953125L321.9921875 115.859375V125.11328125L320.1953125 127.0H311.884765625ZM311.884765625 125.11328125H320.1953125V115.859375H311.884765625ZM325.810546875 125.11328125V121.4296875L327.607421875 119.54296875H335.91796875V115.859375H327.607421875V113.97265625H335.91796875L337.71484375 115.859375V127.0H327.607421875ZM327.607421875 125.11328125H335.91796875V121.4296875H327.607421875ZM348.9453125 115.859375V113.97265625H360.849609375V115.859375H355.7958984375V127.0H353.9990234375V115.859375ZM364.21875 127.0V108.8515625H366.015625V113.97265625H374.326171875L376.123046875 115.859375V127.0H374.326171875V115.859375H366.015625V127.0ZM379.94140625 125.11328125V115.859375L381.73828125 113.97265625H390.048828125L391.845703125 115.859375V119.54296875L390.048828125 121.4296875H381.73828125V125.11328125H391.845703125V127.0H381.73828125ZM381.73828125 119.54296875H390.048828125V115.859375H381.73828125ZM394.990234375 127.0V115.859375L396.787109375 113.97265625H406.89453125V115.859375H396.787109375V127.0ZM409.140625 127.0V115.859375L410.9375 113.97265625H420.37109375L422.16796875 115.859375V127.0H420.37109375V115.859375H416.552734375V127.0H414.755859375V115.859375H410.9375V127.0ZM425.986328125 125.11328125V121.4296875L427.783203125 119.54296875H436.09375V115.859375H427.783203125V113.97265625H436.09375L437.890625 115.859375V127.0H427.783203125ZM427.783203125 125.11328125H436.09375V121.4296875H427.783203125ZM441.259765625 118.5546875V113.97265625H443.056640625V118.5546875ZM446.875 127.0V125.11328125H456.982421875V121.4296875H448.671875L446.875 119.54296875V115.859375L448.671875 113.97265625H458.779296875V115.859375H448.671875V119.54296875H456.982421875L458.779296875 121.4296875V125.11328125L456.982421875 127.0ZM470.009765625 127.0V115.859375L471.806640625 113.97265625H480.1171875L481.9140625 115.859375V127.0H480.1171875V115.859375H471.806640625V127.0ZM485.732421875 125.11328125V115.859375L487.529296875 113.97265625H495.83984375L497.63671875 115.859375V119.54296875L495.83984375 121.4296875H487.529296875V125.11328125H497.63671875V127.0H487.529296875ZM487.529296875 119.54296875H495.83984375V115.859375H487.529296875ZM500.78125 125.11328125V115.859375L502.578125 113.97265625H510.888671875L512.685546875 115.859375V125.11328125L510.888671875 127.0H502.578125ZM502.578125 125.11328125H510.888671875V115.859375H502.578125ZM516.50390625 127.0V115.859375L518.30078125 113.97265625H526.611328125L528.408203125 115.859375V127.0H526.611328125V115.859375H518.30078125V127.0ZM540.087890625 125.11328125V115.859375L541.884765625 113.97265625H551.9921875V115.859375H541.884765625V125.11328125H551.9921875V127.0H541.884765625ZM554.912109375 125.11328125V113.97265625H556.708984375V125.11328125H565.01953125V113.97265625H566.81640625V125.11328125L565.01953125 127.0H556.708984375ZM570.634765625 127.0V115.859375L572.431640625 113.97265625H582.5390625V115.859375H572.431640625V127.0ZM584.78515625 125.11328125V113.97265625L586.58203125 115.859375V124.9560546875L586.76171875 125.11328125H594.712890625L594.892578125 124.9560546875V115.859375L596.689453125 113.97265625V125.11328125L594.892578125 127.0H586.58203125ZM600.5078125 125.11328125V115.859375L602.3046875 113.97265625H610.615234375L612.412109375 115.859375V119.54296875L610.615234375 121.4296875H602.3046875V125.11328125H612.412109375V127.0H602.3046875ZM602.3046875 119.54296875H610.615234375V115.859375H602.3046875ZM615.556640625 127.0V125.11328125H625.6640625V121.4296875H617.353515625L615.556640625 119.54296875V115.859375L617.353515625 113.97265625H627.4609375V115.859375H617.353515625V119.54296875H625.6640625L627.4609375 121.4296875V125.11328125L625.6640625 127.0Z" fill="#3a3f47"/><path d="M31.25 159.8125H37.03125V157.25H31.25ZM30.0 165.0V157.25L31.25 155.9375H37.03125L38.28125 157.25V165.0H37.03125V161.125H31.25V165.0ZM40.9375 165.0V163.6875H47.96875V161.125H40.9375V159.8125H47.96875V157.25H40.9375V155.9375H47.96875L49.21875 157.25V163.6875L47.96875 165.0ZM51.40625 163.6875V157.25L52.65625 155.9375H59.6875V157.25H52.65625V163.6875H59.6875V165.0H52.65625ZM61.71875 165.0V163.6875H68.75V157.25H61.71875V155.9375H68.75L70.0 157.25V163.6875L68.75 165.0ZM72.03125 163.6875V157.25L73.28125 155.9375H80.3125V157.25H73.28125V159.8125H80.3125V161.125H73.28125V163.6875H80.3125V165.0H73.28125ZM82.5 165.0V157.25L83.75 155.9375H90.78125V157.25H83.75V159.8125H90.78125V161.125H83.75V165.0ZM92.8125 163.6875V157.25L94.0625 155.9375H101.09375V157.25H94.0625V163.6875H100.15625V161.125H98.28125V159.8125H100.15625L101.40625 161.125V163.6875L100.15625 165.0H94.0625ZM103.75 165.0V155.9375H105.0V159.8125H110.78125V155.9375H112.03125V165.0H110.78125V161.125H105.0V165.0ZM114.6875 165.0V163.6875H118.203125V157.25H114.6875V155.9375H122.96875V157.25H119.453125V163.6875H122.96875V165.0ZM125.3125 163.6875V161.90625H126.5625V163.6875H132.34375V155.9375H133.59375V163.6875L132.34375 165.0H126.5625ZM136.25 165.0V155.9375H137.5V159.8125H141.5625V157.25L142.8125 155.9375H144.53125V157.25H142.8125V163.6875H144.53125V165.0H142.8125L141.5625 163.6875V161.125H137.5V165.0ZM147.03125 163.6875V155.9375H148.28125V163.6875H155.3125V165.0H148.28125ZM156.875 165.0V157.25L158.125 155.9375H164.6875L165.9375 157.25V165.0H164.6875V157.25H162.03125V165.0H160.78125V157.25H158.125V165.0ZM168.59375 165.0V157.25L169.84375 155.9375H175.625L176.875 157.25V165.0H175.625V157.25H169.84375V165.0ZM179.53125 163.6875V157.25L180.78125 155.9375H186.5625L187.8125 157.25V163.6875L186.5625 165.0H180.78125ZM180.78125 163.6875H186.5625V157.25H180.78125ZM190.46875 165.0V160.3125H197.5V157.25H190.46875V155.9375H197.5L198.75 157.25V160.3125L197.5 161.625H191.71875V165.0ZM201.40625 163.6875V157.25L202.65625 155.9375H208.4375L209.6875 157.25V163.6875L208.4375 165.0H207.1875V166.4375L205.9375 167.75V165.0H202.65625ZM202.65625 163.6875H205.9375V160.6875H207.1875V163.6875H208.4375V157.25H202.65625ZM218.75 165.0V161.625L220.0 162.9375V165.0ZM211.71875 165.0V160.3125H218.75V157.25H211.71875V155.9375H218.75L220.0 157.25V160.3125L218.75 161.625H212.96875V165.0ZM221.5625 165.0V163.6875H228.59375V161.125H222.8125L221.5625 159.8125V157.25L222.8125 155.9375H229.84375V157.25H222.8125V159.8125H228.59375L229.84375 161.125V163.6875L228.59375 165.0ZM232.1875 157.25V155.9375H240.46875V157.25H236.953125V165.0H235.703125V157.25ZM242.8125 163.6875V155.9375H244.0625V163.6875H249.84375V155.9375H251.09375V163.6875L249.84375 165.0H244.0625ZM253.75 163.6875V155.9375L255.0 157.25V163.578125L255.125 163.6875H260.65625L260.78125 163.578125V157.25L262.03125 155.9375V163.6875L260.78125 165.0H255.0ZM264.6875 163.6875V155.9375H265.9375V163.6875H268.59375V155.9375H269.84375V163.6875H272.5V155.9375H273.75V163.6875L272.5 165.0H265.9375ZM276.40625 165.0V162.875L277.65625 161.5625H279.921875V159.125H277.65625L276.40625 157.8125V155.9375H277.65625V157.8125H283.4375V155.9375H284.6875V157.8125L283.4375 159.125H281.171875V161.5625H283.4375L284.6875 162.875V165.0H283.4375V162.875H277.65625V165.0ZM287.34375 159.8125V155.9375H288.59375V159.8125H294.375V155.9375H295.625V159.8125L294.375 161.125H292.109375V165.0H290.859375V161.125H288.59375ZM297.8125 165.0V161.125L299.0625 159.8125H304.84375V157.25H297.8125V155.9375H306.09375V159.8125L304.84375 161.125H299.0625V163.6875H306.09375V165.0Z" fill="#6b7280"/><path d="M30.0 192.6875V190.125L31.25 188.8125H37.03125V186.25H31.25V184.9375H37.03125L38.28125 186.25V194.0H31.25ZM31.25 192.6875H37.03125V190.125H31.25ZM40.625 194.0V192.6875H47.65625V186.25H40.625V181.375H41.875V184.9375H47.65625L48.90625 186.25V192.6875L47.65625 194.0ZM51.5625 192.6875V186.25L52.8125 184.9375H59.84375V186.25H52.8125V192.6875H59.84375V194.0H52.8125ZM61.875 192.6875V186.25L63.125 184.9375H68.90625V181.375H70.15625V186.25H63.125V192.6875H70.15625V194.0H63.125ZM72.1875 192.6875V186.25L73.4375 184.9375H79.21875L80.46875 186.25V188.8125L79.21875 190.125H73.4375V192.6875H80.46875V194.0H73.4375ZM73.4375 188.8125H79.21875V186.25H73.4375ZM82.65625 197.375V186.25L83.90625 184.9375H90.9375V186.25H83.90625V192.6875H90.9375V194.0H83.90625V197.375ZM92.96875 192.6875V186.25L94.21875 184.9375H100.0L101.25 186.25V196.0625L100.0 197.375H94.21875V196.0625H100.0V194.0H94.21875ZM94.21875 192.6875H100.0V186.25H94.21875ZM103.90625 194.0V181.375H105.15625V184.9375H110.9375L112.1875 186.25V194.0H110.9375V186.25H105.15625V194.0ZM116.25 182.6875V181.375H117.5V182.6875ZM116.25 192.6875V184.9375H117.5V192.6875H120.46875V194.0H117.5ZM128.90625 182.6875V181.375H130.15625V182.6875ZM121.875 196.0625V194.28125H123.125V196.0625H128.90625V184.9375H130.15625V196.0625L128.90625 197.375H123.125ZM132.8125 194.0V184.9375H134.0625V188.8125H138.125V186.25L139.375 184.9375H141.09375V186.25H139.375V192.6875H141.09375V194.0H139.375L138.125 192.6875V190.125H134.0625V194.0ZM143.59375 192.6875V184.9375H144.84375V192.6875H151.875V194.0H144.84375ZM153.4375 194.0V186.25L154.6875 184.9375H161.25L162.5 186.25V194.0H161.25V186.25H158.59375V194.0H157.34375V186.25H154.6875V194.0ZM165.15625 194.0V186.25L166.40625 184.9375H172.1875L173.4375 186.25V194.0H172.1875V186.25H166.40625V194.0ZM176.09375 192.6875V186.25L177.34375 184.9375H183.125L184.375 186.25V192.6875L183.125 194.0H177.34375ZM177.34375 192.6875H183.125V186.25H177.34375ZM187.03125 197.375V192.6875H194.0625V186.25H187.03125V184.9375H194.0625L195.3125 186.25V192.6875L194.0625 194.0H188.28125V197.375ZM197.96875 192.6875V186.25L199.21875 184.9375H206.25V186.25H199.21875V192.6875H206.25V197.375H205.0V194.0H199.21875ZM208.28125 194.0V186.25L209.53125 184.9375H216.5625V186.25H209.53125V194.0ZM218.125 194.0V192.6875H225.15625V190.125H219.375L218.125 188.8125V186.25L219.375 184.9375H226.40625V186.25H219.375V188.8125H225.15625L226.40625 190.125V192.6875L225.15625 194.0ZM228.75 194.0V181.375H230.0V184.9375H237.03125V186.25H230.0V194.0ZM238.59375 192.6875V184.9375H239.84375V192.6875H245.625V184.9375H246.875V192.6875L245.625 194.0H239.84375ZM249.53125 192.6875V184.9375L250.78125 186.25V192.578125L250.90625 192.6875H256.4375L256.5625 192.578125V186.25L257.8125 184.9375V192.6875L256.5625 194.0H250.78125ZM260.46875 192.6875V184.9375H261.71875V192.6875H264.375V184.9375H265.625V192.6875H268.28125V184.9375H269.53125V192.6875L268.28125 194.0H261.71875ZM272.1875 194.0V191.875L273.4375 190.5625H275.703125V188.125H273.4375L272.1875 186.8125V184.9375H273.4375V186.8125H279.21875V184.9375H280.46875V186.8125L279.21875 188.125H276.953125V190.5625H279.21875L280.46875 191.875V194.0H279.21875V191.875H273.4375V194.0ZM283.125 188.8125V184.9375H284.375V188.8125H290.15625V184.9375H291.40625V188.8125L290.15625 190.125H287.890625V194.0H286.640625V190.125H284.375ZM293.59375 194.0V190.125L294.84375 188.8125H300.625V186.25H293.59375V184.9375H301.875V188.8125L300.625 190.125H294.84375V192.6875H301.875V194.0ZM315.15625 192.6875V186.25L316.40625 184.9375H322.1875L323.4375 186.25V192.6875L322.1875 194.0H316.40625ZM316.40625 192.6875H322.1875V186.25H316.40625ZM325.78125 186.25V184.9375H327.5L328.75 186.25V194.0H327.5V186.25ZM331.875 194.0V190.125L333.125 188.8125H338.90625V186.25H333.625V184.9375H338.90625L340.15625 186.25V190.125H333.125V192.6875H340.15625V194.0ZM342.8125 194.0V192.6875H349.84375V190.125H342.8125V188.8125H349.84375V186.25H342.8125V184.9375H349.84375L351.09375 186.25V192.6875L349.84375 194.0ZM353.4375 188.8125V184.9375H354.6875V188.8125H360.46875V184.9375H361.71875V194.0H360.46875V190.125H354.6875ZM364.6875 194.0V192.6875H371.71875V190.125H364.6875V186.25L365.9375 184.9375H371.21875V186.25H365.9375V188.8125H371.71875L372.96875 190.125V194.0ZM375.15625 192.6875V184.9375H376.40625V188.8125H382.1875L383.4375 190.125V192.6875L382.1875 194.0H376.40625ZM376.40625 192.6875H382.1875V190.125H376.40625ZM386.25 186.25V184.9375H391.40625L392.65625 186.25V194.0H391.40625V186.25ZM395.9375 192.6875V186.25L397.1875 184.9375H402.96875L404.21875 186.25V192.6875L402.96875 194.0H397.1875ZM397.1875 188.8125H402.96875V186.25H397.1875ZM397.1875 192.6875H402.96875V190.125H397.1875ZM406.71875 188.8125V186.25L407.96875 184.9375H413.75L415.0 186.25V194.0H413.75V190.125H407.96875ZM407.96875 188.8125H413.75V186.25H407.96875ZM428.28125 192.28125V190.53125L429.875 188.8125H431.796875V186.65625L433.390625 184.9375H434.96875L436.5625 186.65625V188.40625L434.96875 190.125H433.046875V192.6875H434.8125V194.0H433.046875V195.875H431.796875V194.0H429.875ZM429.53125 192.6875H431.796875V190.125H429.53125ZM433.046875 188.8125H435.3125V186.25H433.046875ZM439.21875 194.0V192.6875H440.46875V194.0ZM443.125 195.3125V194.0H444.84375V191.875H446.09375V194.0L444.84375 195.3125ZM448.90625 194.0V192.6875H450.15625V194.0ZM448.90625 189.3125V181.375H450.15625V190.625ZM452.8125 197.375V196.0625H454.0625V197.375ZM452.8125 194.0V192.6875H459.84375V186.25H452.8125V184.9375H459.84375L461.09375 186.25V192.6875L459.84375 194.0Z" fill="#6b7280"/></svg>