<?xml version="1.0" encoding="UTF-8"?><svg id="b" xmlns="http://www.w3.org/2000/svg" viewBox="0 0 591.55 591.55"><g id="c"><rect width="591.55" height="591.55" rx="39.19" ry="39.19" fill="#d61426"/><path d="M85.8,358.86l21.73,52.63c.12.23.19.5.19.78,0,.94-.76,1.7-1.7,1.7h-11.96c-.69,0-1.33-.43-1.59-1.11-2.48-6.66-5.12-13.7-7.93-21.15-2.03-5.38-4.16-11-6.4-16.89l-1.38,3.74c-4.28,11.63-8.56,23.24-12.51,34.15-.2.72-.86,1.25-1.64,1.25h-11.4c-.21,0-.43-.05-.64-.13-.86-.35-1.28-1.34-.92-2.21l21.57-52.63c.22-.69.86-1.19,1.62-1.19h11.39c.67,0,1.3.4,1.57,1.06h0ZM225.73,370.61h-27.17c-1.34,0-2.46.12-3.37.35-.82.21-1.49.52-1.99.92l-.02.02c-.43.36-.77.83-.99,1.41-.26.67-.39,1.5-.39,2.5,0,.75.1,1.38.31,1.89.18.45.45.82.81,1.12l.06.05c.39.3.88.53,1.49.7l.06.02c.69.18,1.53.27,2.51.27h14.55c3.15,0,5.88.31,8.17.92,2.41.64,4.36,1.63,5.83,2.96l.12.12c1.44,1.34,2.51,3.07,3.22,5.2l.03.09c.68,2.08,1.02,4.53,1.02,7.34s-.4,5.46-1.21,7.65c-.84,2.26-2.1,4.13-3.8,5.59-1.66,1.44-3.77,2.51-6.34,3.22-2.47.68-5.36,1.02-8.65,1.02h-29.28c-.94,0-1.7-.76-1.7-1.7v-9.41c0-.94.76-1.7,1.7-1.7h27.53c1.46,0,2.68-.1,3.65-.31.87-.18,1.53-.44,1.98-.76l.05-.03c.35-.27.63-.63.81-1.07.23-.54.34-1.23.34-2.08,0-.91-.11-1.66-.33-2.24-.18-.49-.44-.87-.78-1.14h0c-.39-.3-.97-.55-1.73-.73h-.06c-.86-.2-1.92-.3-3.19-.3h-12.98c-3.15,0-5.91-.33-8.28-.98h0s0,0,0,0c-2.45-.67-4.47-1.71-6.05-3.09-1.62-1.4-2.83-3.21-3.63-5.4-.77-2.11-1.15-4.57-1.15-7.38,0-2.98.4-5.59,1.21-7.84.83-2.32,2.09-4.22,3.77-5.7h0s0,0,0,0c1.66-1.46,3.78-2.55,6.37-3.27,2.49-.69,5.4-1.04,8.73-1.04h28.77c.47,0,.89.19,1.2.5.07-.07.15-.14.24-.2.29-.2.62-.29.95-.29h0s12.39,0,12.39,0c.64,0,1.2.35,1.49.87l11.45,17.84,11.65-17.93c.32-.5.87-.77,1.42-.77h0s12.76,0,12.76,0c.94,0,1.7.76,1.7,1.7,0,.4-.14.77-.37,1.06l-19.81,28.93v22.78c0,.94-.76,1.7-1.7,1.7h-11c-.94,0-1.7-.76-1.7-1.7v-22.79l-18.96-27.98v7.42c0,.94-.76,1.7-1.7,1.7h0ZM325.92,370.61h-27.17c-1.33,0-2.46.12-3.37.35-.82.21-1.49.52-1.99.92l-.02.02c-.43.36-.77.83-.99,1.41-.26.67-.39,1.5-.39,2.5,0,.75.1,1.38.31,1.88.18.45.45.82.8,1.11.4.33.92.58,1.55.76l.07.02c.69.18,1.53.27,2.51.27h14.55c3.15,0,5.88.31,8.17.92,2.41.64,4.36,1.63,5.83,2.96,1.49,1.35,2.61,3.12,3.34,5.33.7,2.1,1.05,4.58,1.05,7.42s-.4,5.46-1.21,7.65c-.84,2.26-2.1,4.13-3.8,5.6-1.66,1.44-3.77,2.51-6.34,3.22-2.47.68-5.36,1.02-8.65,1.02h-29.28c-.94,0-1.7-.76-1.7-1.7v-9.41c0-.94.76-1.7,1.7-1.7h27.53c1.46,0,2.68-.1,3.65-.31.87-.18,1.53-.44,1.98-.76l.05-.03c.35-.27.63-.63.81-1.07.23-.54.34-1.23.34-2.08,0-.91-.11-1.66-.32-2.24-.18-.49-.45-.87-.78-1.14-.38-.3-.96-.55-1.73-.72h-.05c-.86-.2-1.92-.3-3.2-.3h-12.98c-3.15,0-5.91-.33-8.28-.98-2.45-.68-4.47-1.71-6.05-3.09-1.62-1.4-2.83-3.21-3.63-5.4-.77-2.11-1.15-4.57-1.15-7.38,0-2.98.4-5.59,1.21-7.84.83-2.32,2.09-4.22,3.77-5.7h0s0,0,0,0c1.66-1.46,3.79-2.55,6.37-3.27,2.49-.69,5.4-1.04,8.73-1.04h28.77c.94,0,1.7.76,1.7,1.7v9.41c0,.94-.76,1.7-1.7,1.7h0ZM346.44,370.46h-15.21c-.94,0-1.7-.76-1.7-1.7v-9.19c0-.94.76-1.7,1.7-1.7h45.25c.94,0,1.7.76,1.7,1.7v9.19c0,.94-.76,1.7-1.7,1.7h-15.28v41.81c0,.94-.76,1.7-1.7,1.7h-11.37c-.94,0-1.7-.76-1.7-1.7v-41.81h0ZM403.38,370.39c-1.82,0-3.4.22-4.71.66-1.25.42-2.29,1.04-3.12,1.87-.84.83-1.5,1.9-1.97,3.2-.34.93-.59,1.99-.74,3.16l28.61.03c.93,0,1.69.76,1.69,1.69h0v9.15c0,.94-.76,1.7-1.7,1.7h-28.78c.09,1.41.3,2.66.62,3.75.41,1.39,1,2.5,1.77,3.31h0c.75.79,1.78,1.39,3.09,1.8h0s0,0,0,0c1.42.45,3.17.67,5.23.67h18.07c.94,0,1.7.76,1.7,1.7v9.19c0,.94-.76,1.7-1.7,1.7h-18.6c-2.08,0-3.97-.09-5.66-.28-1.72-.19-3.22-.47-4.49-.85l-.1-.03c-1.26-.39-2.48-.9-3.65-1.53-1.19-.64-2.34-1.42-3.45-2.32h0c-1.46-1.18-2.74-2.53-3.83-4.05l-.06-.08c-1.06-1.5-1.95-3.16-2.66-4.98l-.03-.08c-.7-1.82-1.22-3.81-1.57-5.97-.35-2.18-.53-4.5-.53-6.97,0-9.76,2.15-17.02,6.45-21.78h0c2.19-2.44,4.97-4.26,8.34-5.47,3.29-1.17,7.14-1.76,11.54-1.76h18.29c.94,0,1.7.76,1.7,1.7v9.19c0,.94-.76,1.7-1.7,1.7h-18.07ZM431.05,357.81h16.16c.78,0,1.44.53,1.64,1.25l11.71,35.52,11.73-35.6c.24-.71.9-1.17,1.61-1.17h0s16.09,0,16.09,0c.94,0,1.7.76,1.7,1.7v52.76c0,.94-.76,1.7-1.7,1.7h-10.78c-.94,0-1.7-.76-1.7-1.7,0-.06,0-.13.01-.19l.64-29.52-9.87,30.23c-.23.72-.9,1.17-1.61,1.17h0s-11.67,0-11.67,0c-.81,0-1.49-.57-1.66-1.32l-10.19-30.58.8,30.17c.02.93-.72,1.71-1.65,1.73h-.04s-11.22,0-11.22,0c-.94,0-1.7-.76-1.7-1.7v-52.76c0-.94.76-1.7,1.7-1.7h0ZM545.02,370.61h-27.17c-1.33,0-2.46.12-3.37.35-.83.21-1.49.52-1.99.92l-.02.02c-.43.36-.76.83-.99,1.41-.26.67-.39,1.5-.39,2.5,0,.75.1,1.38.31,1.88.18.45.45.82.8,1.11.4.33.92.58,1.55.76.7.19,1.56.29,2.57.29h14.55c3.15,0,5.88.31,8.17.92,2.4.64,4.35,1.63,5.83,2.96h0s0,0,0,0c1.49,1.35,2.61,3.12,3.34,5.32l.03.09c.68,2.08,1.02,4.53,1.02,7.34s-.4,5.46-1.21,7.65c-.84,2.26-2.1,4.13-3.8,5.59-1.66,1.44-3.77,2.51-6.34,3.22-2.47.68-5.36,1.02-8.65,1.02h-29.28c-.94,0-1.7-.76-1.7-1.7v-9.41c0-.94.76-1.7,1.7-1.7h27.53c1.46,0,2.68-.1,3.65-.31.87-.18,1.53-.44,1.98-.76l.05-.03c.35-.27.62-.63.81-1.07h0c.23-.55.35-1.25.35-2.09,0-.91-.11-1.66-.32-2.24-.18-.49-.44-.87-.78-1.14h0c-.39-.3-.97-.55-1.73-.73h-.06c-.86-.2-1.92-.3-3.2-.3h-12.98c-3.15,0-5.91-.33-8.28-.98-2.45-.68-4.47-1.71-6.06-3.09-1.62-1.4-2.83-3.21-3.63-5.4-.77-2.11-1.15-4.57-1.15-7.38,0-2.98.4-5.59,1.21-7.84.83-2.32,2.09-4.22,3.77-5.7h0s0,0,0,0c1.66-1.46,3.79-2.55,6.37-3.27,2.49-.69,5.4-1.04,8.73-1.04h28.77c.94,0,1.7.76,1.7,1.7v9.41c0,.94-.76,1.7-1.7,1.7h0ZM119.18,359.58c3.22-1.18,6.99-1.78,11.29-1.78h23.11c.94,0,1.7.76,1.7,1.7v9.11c0,.94-.76,1.7-1.7,1.7h-23.11c-1.87,0-3.46.3-4.77.9-1.25.57-2.27,1.44-3.06,2.59-.84,1.23-1.48,2.86-1.91,4.89-.45,2.12-.68,4.67-.68,7.64,0,2.77.22,5.13.67,7.07.43,1.85,1.05,3.33,1.87,4.44.77,1.04,1.79,1.82,3.04,2.35,1.33.55,2.94.83,4.84.83h10.38v-9.02h-12.68c-.94,0-1.7-.76-1.7-1.7v-9.33c0-.94.76-1.7,1.7-1.7h25.41c.94,0,1.7.76,1.7,1.7v31.31c0,.94-.76,1.7-1.7,1.7h-23.11c-2.17,0-4.12-.09-5.84-.28-1.76-.19-3.27-.48-4.5-.87-1.21-.38-2.39-.89-3.55-1.53l-.06-.03c-1.14-.63-2.25-1.39-3.33-2.28l-.02-.02c-1.43-1.17-2.68-2.53-3.75-4.06-1.07-1.53-1.96-3.22-2.66-5.06h0s0,0,0,0c-.69-1.83-1.21-3.84-1.55-6.04-.34-2.18-.52-4.5-.52-6.97,0-4.81.51-9.01,1.54-12.6,1.05-3.68,2.64-6.74,4.77-9.16h0s0,0,0,0c2.15-2.44,4.88-4.27,8.18-5.48h0Z" fill="#fefefe" fill-rule="evenodd"/><path d="M485.25,304.49h35.42v-62.57h-57.67c-5.21,60.01-28.54,77.89-56.31,93.03l-12.03-22.65c30.68-16.14,40.2-39.27,42.66-70.38h-42.38v-26.9h43.11c-.11-12.3-.61-25.59-.92-39.92h25.27c1.15,14.73,1.69,27.97,1.69,39.92h83.48v89.47c0,26.9-26.07,26.9-26.89,26.9h-35.42v-26.9h0Z" fill="#fefefe" fill-rule="evenodd"/><path d="M296.07,192.84l-.3.18v6.51h-61.86v17.91h61.86v6.72h-47.7v60.02h47.7v4.88h-61.86v17.91h61.86v6.51h-61.86v17.91h154.01v-17.91h-61.86v-6.51h61.86v-17.91h-61.86v-4.88h47.7v-60.02h-47.7v-6.72h61.86v-17.91h-61.86v-6.51l-1.02-.55c37.57-.76,43.36-2.42,61.65-5.66l-2.13-16.62c-27.84,4.92-24.57,4.92-150.65,4.92v17.91c25.49,0,45.78-.05,62.16-.18h0ZM326.07,237.75h30.01v7.08h-30.01v-7.08h0ZM326.07,261.81h30.01v7.08h-30.01v-7.08h0ZM265.77,237.75h30.01v7.08h-30.01v-7.08h0ZM265.77,261.81h30.01v7.08h-30.01v-7.08h0Z" fill="#fefefe" fill-rule="evenodd"/><path d="M165.66,266.42l-22.79-24.5h45.58l-22.79,24.5h0ZM101.1,201.77h124.99v-26.66H74.35v66.81c-2.46,31.12-11.79,54.24-42.47,70.38l12.03,22.65c27.77-15.14,51.1-33.02,56.31-93.03l45.89,45.5-40.9,43.96h37.65l22.84-24.55,24.76,24.55h35.64l-10.19-10.95-31.43-33.78,41.62-44.73v-26.9h-124.79c0-4.25-.07-8.67-.21-13.25h0Z" fill="#fefefe" fill-rule="evenodd"/><path d="M513.67,178.25h-5.51v-3.12h14.76v3.12h-5.54v14.77h-3.71v-14.77h0ZM524.66,175.11h5.27l4.35,13.74,4.35-13.74h5.25v17.91h-3.52l.29-13.95-4.38,13.95h-3.81l-4.52-14.1.36,14.1h-3.66v-17.91h0Z" fill="#fefefe"/></g></svg>