<?xml version="1.0" encoding="UTF-8"?><svg id="b" xmlns="http://www.w3.org/2000/svg" viewBox="0 0 1694.9 1673.52"><g id="c"><path d="M226.53,1312.72c-15.43-11.9-34.34-17.94-56.51-17.94h-58.04c-21.95,0-40.86,6.04-56.51,18.11-15.43,11.9-23.26,26.49-23.26,43.42v106.13h46.08v-52.65h125.63v52.65h45.86v-106.13c0-17.1-7.83-31.69-23.26-43.59ZM203.92,1374.26h-125.63v-17.94c0-7.21,3.26-13.25,9.78-18.28,6.74-5.2,14.56-7.71,23.91-7.71h58.04c9.35,0,17.17,2.51,23.91,7.71,6.74,5.03,10,11.07,10,18.28v17.94Z" fill="#102344" stroke="#102344" stroke-miterlimit="10" stroke-width="13"/><path d="M460.19,1401.08c0,7.21-3.26,13.25-10,18.44-6.52,5.03-14.35,7.54-23.69,7.54h-58.04c-9.13,0-16.95-2.51-23.69-7.71-6.74-5.2-10-11.23-10-18.28v-106.3h-45.86v106.3c0,16.93,7.83,31.52,23.26,43.42s34.34,17.94,56.3,17.94h58.04c21.95,0,40.86-6.04,56.3-17.94,15.65-11.9,23.48-26.49,23.48-43.42v-106.3h-46.08v106.3Z" fill="#102344" stroke="#102344" stroke-miterlimit="10" stroke-width="13"/><path d="M716.89,1304.34c-11.95-6.2-26.08-9.22-42.82-9.22h-82.82v-.33h-45.86v167.66h45.86v-50.8h71.95c9.35,0,17.17,2.51,23.69,7.71,6.52,5.03,9.78,11.07,9.78,18.28v24.65h46.08v-24.65c0-14.92-6.3-28-18.69-39.57,13.26-8.89,20.21-20.12,21.3-33.53.22-3.69.43-7.88.43-12.74,0-5.87-.43-10.73-1.3-14.75-2.83-13.92-12.17-24.81-27.6-32.69ZM699.06,1363.36c-2.17,8.55-10.43,12.74-25,12.74h-82.82v-45.6h82.82c13.91,0,22.17,3.69,24.78,11.23.65,2.18,1.09,5.53,1.09,10.06,0,5.37-.22,9.22-.87,11.57Z" fill="#102344" stroke="#102344" stroke-miterlimit="10" stroke-width="13"/><rect x="783.83" y="1294.78" width="45.86" height="167.66" fill="#102344" stroke="#102344" stroke-miterlimit="10" stroke-width="13"/><path d="M912.72,1338.04c6.74-5.2,14.56-7.71,23.69-7.71h58.25c9.13,0,16.96,2.51,23.47,7.71,6.74,5.03,10,11.07,10,18.11h46.08c0-16.93-7.83-31.52-23.26-43.42-15.43-11.9-34.34-17.94-56.3-17.94h-58.25c-21.96,0-40.87,6.04-56.3,17.94-15.43,11.9-23.26,26.49-23.26,43.42v44.93c0,16.93,7.82,31.52,23.26,43.42,15.43,11.9,34.34,17.94,56.3,17.94h58.25c21.95,0,40.86-6.04,56.3-17.94,15.43-11.9,23.26-26.49,23.26-43.42h-46.08c0,7.04-3.26,13.08-10,18.28-6.52,5.03-14.35,7.54-23.47,7.54h-58.25c-9.13,0-16.96-2.52-23.69-7.54-6.52-5.2-9.78-11.23-9.78-18.28v-44.93c0-7.04,3.26-13.08,9.78-18.11Z" fill="#102344" stroke="#102344" stroke-miterlimit="10" stroke-width="13"/><path d="M1307.45,1312.72c-15.43-11.9-34.34-17.94-56.3-17.94h-58.25c-21.96,0-40.87,6.04-56.3,17.94-15.43,11.9-23.26,26.49-23.26,43.42v44.93c0,16.93,7.82,31.52,23.26,43.42,15.43,11.9,34.34,17.94,56.3,17.94h58.25c21.95,0,40.86-6.04,56.3-17.94,15.43-11.9,23.26-26.49,23.26-43.42v-44.93c0-16.93-7.83-31.52-23.26-43.42ZM1284.63,1401.08c0,7.04-3.26,13.08-10,18.28-6.52,5.03-14.35,7.54-23.47,7.54h-58.25c-9.13,0-16.96-2.52-23.69-7.54-6.52-5.2-9.78-11.23-9.78-18.28v-44.93c0-7.04,3.26-13.08,9.78-18.11,6.74-5.2,14.56-7.71,23.69-7.71h58.25c9.13,0,16.96,2.51,23.47,7.71,6.74,5.03,10,11.07,10,18.11v44.93Z" fill="#102344" stroke="#102344" stroke-miterlimit="10" stroke-width="13"/><path d="M1626.75,1312.72c-15.43-11.9-34.34-17.94-56.51-17.94h-3.48c-21.96,0-41.08,6.2-56.95,18.61-15.87-12.41-34.78-18.61-56.95-18.61h-3.26c-22.17,0-41.08,6.04-56.51,17.94-15.43,11.9-23.26,26.49-23.26,43.59v106.13h46.08v-106.13c0-7.21,3.26-13.25,9.78-18.28,6.74-5.2,14.56-7.71,23.91-7.71h3.26c9.35,0,17.17,2.51,23.69,7.71,6.74,5.03,10,11.07,10,18.28v106.13h46.52v-106.13c0-7.21,3.26-13.25,9.78-18.28,6.74-5.2,14.56-7.71,23.91-7.71h3.48c9.35,0,17.17,2.51,23.69,7.71,6.74,5.03,10,11.07,10,18.28v106.13h46.08v-106.13c0-17.1-7.82-31.69-23.26-43.59Z" fill="#102344" stroke="#102344" stroke-miterlimit="10" stroke-width="13"/><path d="M158.44,1507.02c33.91,0,50.87,15.14,50.87,45.41,0,17.96-5.94,30.58-17.8,37.84,11.87,7.27,17.8,19.88,17.8,37.84v45.41h-16.96v-45.41c0-20.18-11.31-30.27-33.91-30.27H39.74v75.68h-16.96v-166.5h135.65ZM192.35,1552.43c0-20.18-11.31-30.27-33.91-30.27H39.74v60.54h118.7c22.61,0,33.91-10.09,33.91-30.27Z" fill="#102344"/><path d="M249.07,1582.7h135.65v15.14h-135.65v60.54h169.57v15.14h-186.52v-166.5h186.52v15.14h-169.57v60.54Z" fill="#102344"/><path d="M557.93,1507.02c33.91,0,50.87,15.14,50.87,45.41h-16.96c0-20.18-11.31-30.27-33.91-30.27h-84.78c-22.61,0-33.91,10.09-33.91,30.27s11.3,30.27,33.91,30.27h84.78c33.91,0,50.87,15.14,50.87,45.41s-16.96,45.41-50.87,45.41h-84.78c-33.91,0-50.87-15.14-50.87-45.41h16.96c0,20.18,11.3,30.27,33.91,30.27h84.78c22.61,0,33.91-10.09,33.91-30.27s-11.31-30.27-33.91-30.27h-84.78c-33.91,0-50.87-15.14-50.87-45.41s16.96-45.41,50.87-45.41h84.78Z" fill="#102344"/><path d="M648.55,1582.7h135.65v15.14h-135.65v60.54h169.57v15.14h-186.52v-166.5h186.52v15.14h-169.57v60.54Z" fill="#102344"/><path d="M976.57,1507.02c33.91,0,50.87,15.14,50.87,45.41v121.09h-16.96v-68.11h-152.61v68.11h-16.96v-121.09c0-30.27,16.96-45.41,50.87-45.41h84.78ZM1010.49,1552.43c0-20.18-11.3-30.27-33.91-30.27h-84.78c-22.61,0-33.91,10.09-33.91,30.27v37.84h152.61v-37.84Z" fill="#102344"/><path d="M1185.9,1507.02c33.91,0,50.87,15.14,50.87,45.41,0,17.96-5.93,30.58-17.8,37.84,11.87,7.27,17.8,19.88,17.8,37.84v45.41h-16.96v-45.41c0-20.18-11.3-30.27-33.91-30.27h-118.7v75.68h-16.96v-166.5h135.65ZM1219.81,1552.43c0-20.18-11.3-30.27-33.91-30.27h-118.7v60.54h118.7c22.61,0,33.91-10.09,33.91-30.27Z" fill="#102344"/><path d="M1395.22,1507.02c33.91,0,50.87,15.14,50.87,45.41h-16.96c0-20.18-11.3-30.27-33.91-30.27h-84.78c-22.61,0-33.91,10.09-33.91,30.27v75.68c0,20.18,11.3,30.27,33.91,30.27h84.78c22.61,0,33.91-10.09,33.91-30.27h16.96c0,30.27-16.96,45.41-50.87,45.41h-84.78c-33.91,0-50.87-15.14-50.87-45.41v-75.68c0-30.27,16.96-45.41,50.87-45.41h84.78Z" fill="#102344"/><path d="M1485.85,1597.84v75.68h-16.96v-166.5h16.96v75.68h152.61v-75.68h16.96v166.5h-16.96v-75.68h-152.61Z" fill="#102344"/><path d="M1528.27,41c33.56,0,65.1,13.07,88.83,36.8,23.73,23.73,36.8,55.28,36.8,88.83v892.02c0,33.56-13.07,65.1-36.8,88.83-23.73,23.73-55.28,36.8-88.83,36.8H166.63c-33.56,0-65.1-13.07-88.83-36.8-23.73-23.73-36.8-55.28-36.8-88.83V166.63c0-33.56,13.07-65.1,36.8-88.83,23.73-23.73,55.28-36.8,88.83-36.8h1361.65M1528.27,0H166.63C74.6,0,0,74.6,0,166.63v892.02c0,92.03,74.6,166.63,166.63,166.63h1361.65c92.03,0,166.63-74.6,166.63-166.63V166.63c0-92.03-74.6-166.63-166.63-166.63h0Z" fill="#102344"/><path d="M146,1069.23V223.25c0-35.3,28.61-63.91,63.91-63.91h421.8l-485.71,909.89Z" fill="#102344"/><path d="M1546.47,1069.23V223.25c0-35.3-28.61-63.91-63.91-63.91h-421.8s485.71,909.89,485.71,909.89Z" fill="#102344"/><path d="M693.6,1005.72l-88.45-176.89,176.55,85.01,65.75-222.32,65.75,222.32,176.55-85.01-88.45,176.89,228.08,60.13c.24-5.33.38-10.69.38-16.08,0-201.31-171.17-364.51-382.32-364.51s-382.32,163.2-382.32,364.51c0,5.39.14,10.75.38,16.08l228.08-60.13Z" fill="#c1131e"/></g></svg>