<svg xmlns="http://www.w3.org/2000/svg" viewBox="0 0 866.768 463.740" width="866.8" height="463.7">
<g transform="matrix(1 0 0 -1 119.608 783.010)">
<path fill="#85180f" fill-rule="evenodd" d="M540.562 783.010 L643.772 783.010 L643.772 694.042 L561.640 694.042 C492.997 694.042 475.874 680.329 475.874 613.598 L475.874 584.525 L561.640 584.525 L561.640 633.223 L661.216 633.223 L661.216 584.525 C661.216 515.811 642.650 464.299 603.115 423.181 L496.226 423.181 C517.295 448.252 540.562 487.840 540.562 498.800 L475.874 498.800 L371.938 498.800 L371.937 498.800 L371.937 633.223 C371.938 753.937 419.181 783.010 540.562 783.010 Z"/>
<path fill="#85180f" fill-rule="evenodd" d="M181.959 781.249 L210.424 781.249 C219.588 781.249 226.342 773.752 225.432 764.587 L221.293 722.875 C220.384 713.711 212.143 706.213 202.978 706.213 L174.514 706.213 C165.350 706.213 158.596 713.711 159.506 722.875 L163.644 764.587 C164.553 773.752 172.795 781.249 181.959 781.249 Z"/>
<path fill="#85180f" fill-rule="evenodd" d="M260.489 781.249 L288.953 781.249 C298.117 781.249 304.871 773.752 303.962 764.587 L299.823 722.875 C298.914 713.711 290.672 706.213 281.507 706.213 L253.043 706.213 C243.879 706.213 237.125 713.711 238.035 722.875 L242.173 764.587 C243.083 773.752 251.325 781.249 260.489 781.249 Z"/>
<path fill="#85180f" fill-rule="evenodd" d="M41.956 783.010 L143.712 783.010 C143.712 609.913 123.007 533.771 12.883 423.180 L-109.225 423.181 C-9.645 516.775 41.956 610.188 41.956 783.010 Z"/>
<path fill="#85180f" fill-rule="evenodd" d="M154.615 694.042 L265.093 694.042 C265.093 602.018 334.351 512.284 419.180 423.181 L294.166 423.181 C200.730 514.613 154.615 604.766 154.615 694.042 Z"/>
<path fill="#000000" fill-rule="evenodd" d="M705.308 390.103 L705.308 394.948 L675.968 394.948 L675.968 390.103 L686.870 390.103 L686.870 367.158 L694.311 367.158 L694.311 390.103 L705.308 390.103 L705.308 390.103 ZM747.160 367.158 L747.160 395.025 L736.685 395.025 L728.011 373.669 L719.385 395.025 L708.862 395.025 L708.862 367.158 L716.209 367.158 L715.451 389.017 L724.362 367.158 L731.993 367.158 L740.667 388.824 L740.098 367.158 L747.160 367.158 Z"/>
<path fill="#000000" fill-rule="evenodd" d="M-75.993 379.806 L-88.108 350.722 L-63.436 350.722 L-75.993 379.806 L-75.993 379.806 ZM-84.551 394.822 L-66.090 394.822 L-30.763 319.270 L-50.147 319.270 L-57.743 337.250 L-93.743 337.250 L-101.127 319.270 L-119.608 319.270 L-84.551 394.822 L-84.551 394.822 ZM5.140 350.722 L5.140 364.089 L46.332 364.089 L46.332 319.270 L8.852 319.270 C1.948 319.270 -3.359 319.779 -7.052 320.814 C-10.763 321.831 -14.225 323.533 -17.456 325.901 C-21.705 328.988 -24.879 333.005 -26.994 337.952 C-29.128 342.898 -30.186 348.827 -30.186 355.704 C-30.186 369.035 -26.994 378.894 -20.628 385.262 C-14.263 391.629 -4.436 394.822 8.852 394.822 L46.332 394.822 L46.332 381.823 L8.852 381.823 C2.025 381.823 -2.956 379.806 -6.090 375.754 C-9.225 371.719 -10.802 365.264 -10.802 356.423 C-10.802 348.161 -9.244 342.197 -6.129 338.495 C-3.014 334.794 1.986 332.935 8.852 332.935 L28.467 332.935 L28.467 350.722 L5.140 350.722 Z"/>
<path fill="#000000" fill-rule="evenodd" d="M158.953 381.350 L115.657 381.350 C110.995 381.350 107.590 380.560 105.424 378.982 C103.237 377.403 102.154 374.912 102.154 371.491 C102.154 368.737 103.082 366.685 104.939 365.317 C106.777 363.948 109.544 363.264 113.200 363.264 L136.396 363.264 C145.992 363.264 152.821 361.615 156.883 358.335 C160.946 355.037 162.977 349.564 162.977 341.881 C162.977 334.110 160.637 328.391 155.955 324.743 C151.273 321.094 143.902 319.270 133.843 319.270 L87.200 319.270 L87.200 332.742 L131.076 332.742 C136.067 332.742 139.569 333.409 141.619 334.724 C143.650 336.040 144.676 338.215 144.676 341.267 C144.676 344.425 143.747 346.670 141.871 348.003 C139.994 349.336 136.802 350.003 132.256 350.003 L111.556 350.003 C101.960 350.003 94.957 351.739 90.508 355.213 C86.078 358.703 83.853 364.194 83.853 371.684 C83.853 379.718 86.194 385.577 90.856 389.279 C95.518 392.980 102.928 394.822 113.103 394.822 L158.953 394.822 L158.953 381.350 L158.953 381.350 ZM162.745 394.822 L194.549 352.634 L194.549 319.270 L212.058 319.270 L212.058 352.634 L244.249 394.822 L223.897 394.822 L203.043 365.983 L182.478 394.822 L162.745 394.822 L162.745 394.822 ZM318.557 381.350 L275.261 381.350 C270.598 381.350 267.193 380.560 265.027 378.982 C262.841 377.403 261.757 374.912 261.757 371.491 C261.757 368.737 262.686 366.685 264.543 365.317 C266.381 363.948 269.147 363.264 272.804 363.264 L295.999 363.264 C305.595 363.264 312.424 361.615 316.486 358.335 C320.549 355.037 322.580 349.564 322.580 341.881 C322.580 334.110 320.240 328.391 315.558 324.743 C310.876 321.094 303.505 319.270 293.446 319.270 L246.803 319.270 L246.803 332.742 L290.679 332.742 C295.670 332.742 299.172 333.409 301.223 334.724 C303.254 336.040 304.279 338.215 304.279 341.267 C304.279 344.425 303.351 346.670 301.474 348.003 C299.597 349.336 296.406 350.003 291.859 350.003 L271.159 350.003 C261.564 350.003 254.560 351.739 250.111 355.213 C245.681 358.703 243.456 364.194 243.456 371.684 C243.456 379.718 245.797 385.577 250.459 389.279 C255.121 392.980 262.531 394.822 272.707 394.822 L318.557 394.822 L318.557 381.350 L318.557 381.350 ZM353.921 381.560 L326.991 381.560 L326.991 394.716 L399.093 394.716 L399.093 381.560 L372.067 381.560 L372.067 319.270 L353.921 319.270 L353.921 381.560 L353.921 381.560 ZM441.905 381.666 C435.580 381.666 430.782 380.227 427.551 377.350 C424.340 374.473 422.540 370.070 422.211 364.141 L470.673 364.089 L470.673 350.933 L422.096 350.933 C422.134 344.354 423.663 339.618 426.719 336.741 C429.756 333.865 434.825 332.426 441.905 332.426 L470.673 332.426 L470.673 319.270 L441.054 319.270 C434.535 319.270 429.389 319.779 425.655 320.778 C421.921 321.796 418.401 323.497 415.131 325.901 C410.856 328.988 407.663 333.005 405.516 337.952 C403.388 342.898 402.324 348.827 402.324 355.704 C402.324 369.071 405.516 378.929 411.900 385.297 C418.284 391.647 428.170 394.822 441.577 394.822 L470.673 394.822 L470.673 381.666 L441.905 381.666 L441.905 381.666 ZM486.033 394.822 L511.764 394.822 L533.025 336.847 L554.266 394.822 L579.899 394.822 L579.899 319.270 L562.721 319.270 L564.133 378.122 L542.775 319.270 L524.183 319.270 L502.129 378.736 L503.890 319.270 L486.033 319.270 L486.033 394.822 L486.033 394.822 ZM667.575 381.350 L624.279 381.350 C619.617 381.350 616.211 380.560 614.045 378.982 C611.859 377.403 610.775 374.912 610.775 371.491 C610.775 368.737 611.704 366.685 613.561 365.317 C615.399 363.948 618.166 363.264 621.822 363.264 L645.018 363.264 C654.613 363.264 661.442 361.615 665.505 358.335 C669.568 355.037 671.599 349.564 671.599 341.881 C671.599 334.110 669.258 328.391 664.576 324.743 C659.894 321.094 652.524 319.270 642.464 319.270 L595.821 319.270 L595.821 332.742 L639.697 332.742 C644.689 332.742 648.190 333.409 650.241 334.724 C652.272 336.040 653.298 338.215 653.298 341.267 C653.298 344.425 652.369 346.670 650.492 348.003 C648.616 349.336 645.424 350.003 640.877 350.003 L620.177 350.003 C610.582 350.003 603.579 351.739 599.129 355.213 C594.699 358.703 592.474 364.194 592.474 371.684 C592.474 379.718 594.815 385.577 599.478 389.279 C604.140 392.980 611.549 394.822 621.725 394.822 L667.575 394.822 L667.575 381.350 Z"/>
</g></svg>