<svg xmlns="http://www.w3.org/2000/svg" viewBox="0 0 698.030 537.350" width="698.0" height="537.3">
<g transform="matrix(1 0 0 -1 40.391 728.733)">
<path fill="#000000" fill-rule="evenodd" d="C0.000 0.000 0.000 0.000 0.000 524.000 Z"/>
<path fill="#1f1f57" fill-rule="evenodd" d="M92.879 191.383 L86.532 191.383 L86.532 205.601 C86.532 208.887 84.988 211.683 81.898 213.990 C78.809 216.296 75.064 217.449 70.663 217.449 L38.293 217.449 L38.293 191.383 L31.946 191.383 L31.946 255.839 L70.663 255.839 C76.757 255.839 81.983 254.212 86.343 250.958 C90.700 247.703 92.879 243.801 92.879 239.251 L92.879 234.321 C92.879 227.876 89.282 223.042 82.089 219.819 C89.282 216.596 92.879 211.857 92.879 205.601 L92.879 191.383 L92.879 191.383 ZM86.532 234.037 L86.532 239.251 C86.532 242.537 84.988 245.333 81.898 247.640 C78.809 249.946 75.064 251.100 70.663 251.100 L38.293 251.100 L38.293 222.189 L70.663 222.189 C75.064 222.189 78.809 223.343 81.898 225.649 C84.988 227.955 86.532 230.751 86.532 234.037 L86.532 234.037 ZM166.635 191.383 L127.917 191.383 C121.823 191.383 116.597 193.010 112.239 196.265 C107.881 199.519 105.702 203.421 105.702 207.971 L105.702 239.251 C105.702 243.801 107.881 247.703 112.239 250.958 C116.597 254.212 121.823 255.839 127.917 255.839 L166.635 255.839 L166.635 251.100 L127.917 251.100 C123.517 251.100 119.771 249.946 116.682 247.640 C113.592 245.333 112.048 242.537 112.048 239.251 L112.048 225.981 L166.635 225.981 L166.635 221.241 L112.048 221.241 L112.048 207.971 C112.048 204.685 113.592 201.889 116.682 199.582 C119.771 197.276 123.517 196.123 127.917 196.123 L166.635 196.123 L166.635 191.383 L166.635 191.383 ZM232.646 207.971 C232.646 203.421 230.467 199.519 226.109 196.265 C221.750 193.010 216.524 191.383 210.431 191.383 L171.713 191.383 L171.713 196.123 L210.431 196.123 C214.747 196.123 218.471 197.291 221.603 199.630 C224.733 201.968 226.300 204.748 226.300 207.971 L226.300 209.392 C226.300 212.679 224.755 215.475 221.666 217.782 C218.576 220.088 214.831 221.241 210.431 221.241 L207.256 221.241 L207.256 221.241 L193.928 221.241 C187.834 221.241 182.609 222.869 178.249 226.107 C173.891 229.362 171.713 233.248 171.713 237.782 L171.713 239.298 C171.713 243.832 173.891 247.719 178.249 250.973 C182.609 254.212 187.834 255.839 193.928 255.839 L232.646 255.839 L232.646 251.100 L193.928 251.100 C189.612 251.100 185.888 249.930 182.757 247.608 C179.625 245.270 178.059 242.505 178.059 239.298 L178.059 237.782 C178.059 234.575 179.625 231.810 182.757 229.472 C185.888 227.150 189.612 225.981 193.928 225.981 L197.103 225.981 L197.103 225.981 L210.431 225.981 C216.524 225.981 221.750 224.353 226.109 221.099 C230.467 217.845 232.646 213.942 232.646 209.392 L232.646 207.971 L232.646 207.971 ZM303.482 191.383 L264.764 191.383 C258.670 191.383 253.445 193.010 249.085 196.265 C244.727 199.519 242.548 203.421 242.548 207.971 L242.548 239.251 C242.548 243.801 244.727 247.703 249.085 250.958 C253.445 254.212 258.670 255.839 264.764 255.839 L303.482 255.839 L303.482 251.100 L264.764 251.100 C260.363 251.100 256.618 249.946 253.528 247.640 C250.440 245.333 248.895 242.537 248.895 239.251 L248.895 225.981 L303.482 225.981 L303.482 221.241 L248.895 221.241 L248.895 207.971 C248.895 204.685 250.440 201.889 253.528 199.582 C256.618 197.276 260.363 196.123 264.764 196.123 L303.482 196.123 L303.482 191.383 L303.482 191.383 ZM369.493 191.383 L363.146 191.383 L363.146 216.312 L314.906 216.312 L314.906 191.383 L308.560 191.383 L308.560 239.251 C308.560 243.801 310.739 247.703 315.097 250.958 C319.455 254.212 324.681 255.839 330.775 255.839 L347.277 255.839 C353.372 255.839 358.597 254.212 362.956 250.958 C367.314 247.703 369.493 243.801 369.493 239.251 L369.493 191.383 L369.493 191.383 ZM363.146 221.052 L363.146 239.251 C363.146 242.537 361.602 245.333 358.512 247.640 C355.423 249.946 351.678 251.100 347.277 251.100 L330.775 251.100 C326.375 251.100 322.629 249.946 319.540 247.640 C316.450 245.333 314.906 242.537 314.906 239.251 L314.906 221.052 L363.146 221.052 L363.146 221.052 ZM443.249 191.383 L436.902 191.383 L436.902 205.601 C436.902 208.887 435.358 211.683 432.268 213.990 C429.179 216.296 425.434 217.449 421.033 217.449 L388.662 217.449 L388.662 191.383 L382.315 191.383 L382.315 255.839 L421.033 255.839 C427.127 255.839 432.353 254.212 436.712 250.958 C441.069 247.703 443.249 243.801 443.249 239.251 L443.249 234.321 C443.249 227.876 439.652 223.042 432.458 219.819 C439.652 216.596 443.249 211.857 443.249 205.601 L443.249 191.383 L443.249 191.383 ZM436.902 234.037 L436.902 239.251 C436.902 242.537 435.358 245.333 432.268 247.640 C429.179 249.946 425.434 251.100 421.033 251.100 L388.662 251.100 L388.662 222.189 L421.033 222.189 C425.434 222.189 429.179 223.343 432.268 225.649 C435.358 227.955 436.902 230.751 436.902 234.037 L436.902 234.037 ZM517.005 207.971 C517.005 203.421 514.825 199.519 510.467 196.265 C506.109 193.010 500.883 191.383 494.789 191.383 L478.287 191.383 C472.192 191.383 466.967 193.010 462.608 196.265 C458.250 199.519 456.071 203.421 456.071 207.971 L456.071 239.251 C456.071 243.801 458.250 247.703 462.608 250.958 C466.967 254.212 472.192 255.839 478.287 255.839 L494.789 255.839 C500.967 255.839 506.214 254.228 510.531 251.005 C514.847 247.782 517.005 243.832 517.005 239.156 L510.659 239.251 C510.659 242.537 509.113 245.333 506.024 247.640 C502.935 249.946 499.189 251.100 494.789 251.100 L478.287 251.100 C473.886 251.100 470.141 249.946 467.052 247.640 C463.962 245.333 462.418 242.537 462.418 239.251 L462.418 207.971 C462.418 204.685 463.962 201.889 467.052 199.582 C470.141 197.276 473.886 196.123 478.287 196.123 L494.789 196.123 C499.189 196.123 502.935 197.291 506.024 199.630 C509.113 201.968 510.659 204.780 510.659 208.066 L517.005 208.066 L517.005 207.971 L517.005 207.971 ZM585.302 191.383 L578.955 191.383 L578.955 222.000 L530.715 222.000 L530.715 191.383 L524.369 191.383 L524.369 255.839 L530.715 255.839 L530.715 226.738 L578.955 226.738 L578.955 255.839 L585.302 255.839 L585.302 191.383 Z"/>
<path fill="#1f1f57" fill-rule="evenodd" d="M653.413 266.094 L637.132 266.094 L632.922 266.094 L632.922 270.321 L632.922 309.603 L632.905 309.603 L632.936 315.436 L613.550 268.703 L612.468 266.094 L609.654 266.094 L594.006 266.094 L591.223 266.094 L590.127 268.687 L570.330 315.477 L570.361 309.603 L570.344 309.603 L570.344 270.321 L570.344 266.094 L566.134 266.094 L549.696 266.094 L545.469 266.094 L545.469 270.321 L545.469 351.144 L545.469 355.370 L549.696 355.370 L575.012 355.370 L577.815 355.370 L578.908 352.761 L601.801 298.115 L624.050 352.728 L625.120 355.354 L627.964 355.354 L653.413 355.354 L657.639 355.354 L657.639 351.144 L657.639 270.321 L657.639 266.094 L653.413 266.094 Z"/>
<path fill="#1f1f57" fill-rule="evenodd" d="M481.702 356.672 C485.591 356.672 489.352 356.405 492.978 355.869 C496.594 355.333 500.052 354.527 503.344 353.447 L503.342 353.442 C506.651 352.371 509.738 351.067 512.599 349.536 C515.523 347.973 518.177 346.200 520.563 344.224 C522.974 342.230 525.139 340.004 527.056 337.548 C528.965 335.098 530.592 332.457 531.928 329.623 L531.935 329.627 C533.295 326.768 534.323 323.738 535.013 320.539 C535.693 317.388 536.035 314.115 536.035 310.723 C536.035 303.893 534.717 297.606 532.082 291.908 C530.766 289.062 529.170 286.416 527.297 283.975 C525.414 281.522 523.263 279.282 520.844 277.257 L520.836 277.267 C518.406 275.221 515.760 273.424 512.899 271.882 C510.056 270.351 506.959 269.043 503.606 267.962 L503.607 267.957 C500.297 266.876 496.811 266.069 493.155 265.534 C489.486 264.999 485.665 264.731 481.702 264.731 C477.760 264.731 473.958 264.992 470.297 265.519 C466.648 266.043 463.163 266.842 459.840 267.916 L459.824 267.916 C456.549 268.979 453.471 270.280 450.594 271.819 C447.680 273.380 445.025 275.158 442.639 277.155 C440.222 279.180 438.070 281.421 436.185 283.876 C434.298 286.333 432.695 288.979 431.375 291.811 C430.053 294.648 429.059 297.668 428.391 300.862 C427.726 304.041 427.395 307.330 427.395 310.723 L427.412 310.723 C427.412 314.169 427.743 317.447 428.407 320.554 C429.085 323.723 430.105 326.742 431.469 329.610 L431.469 329.627 C432.810 332.442 434.445 335.083 436.374 337.548 C438.281 339.983 440.461 342.209 442.910 344.224 C445.332 346.218 447.989 347.991 450.878 349.536 C453.755 351.076 456.829 352.380 460.098 353.442 L460.097 353.447 C463.364 354.523 466.817 355.330 470.447 355.869 C474.059 356.404 477.814 356.672 481.702 356.672 L481.702 356.672 ZM455.538 299.828 L455.538 299.828 L455.538 299.828 ZM453.526 310.723 C453.526 308.652 453.695 306.722 454.030 304.938 C454.365 303.149 454.870 301.443 455.538 299.828 C456.215 298.239 457.021 296.757 457.959 295.391 C458.883 294.045 459.945 292.804 461.145 291.681 C462.325 290.574 463.648 289.576 465.106 288.698 L465.102 288.691 C466.574 287.807 468.156 287.057 469.844 286.449 L469.860 286.449 C471.602 285.817 473.439 285.342 475.364 285.027 C477.280 284.713 479.341 284.557 481.544 284.557 C483.827 284.557 485.940 284.713 487.885 285.027 C489.849 285.343 491.705 285.818 493.455 286.449 L493.455 286.465 C495.204 287.090 496.793 287.836 498.221 288.690 C499.666 289.557 501.001 290.562 502.223 291.697 C503.394 292.806 504.442 294.037 505.359 295.379 C506.121 296.495 506.797 297.695 507.384 298.972 C508.734 302.517 509.399 306.434 509.399 310.722 C509.399 315.063 508.699 319.032 507.300 322.611 C506.763 323.781 506.148 324.882 505.460 325.910 C504.556 327.259 503.508 328.510 502.328 329.657 C501.144 330.797 499.841 331.805 498.426 332.675 L498.419 332.663 C496.957 333.563 495.377 334.328 493.685 334.955 C490.209 336.243 486.267 336.888 481.860 336.888 C479.576 336.888 477.463 336.731 475.516 336.417 C473.551 336.100 471.693 335.627 469.938 335.000 L469.940 334.996 C468.184 334.353 466.552 333.583 465.058 332.686 C463.616 331.820 462.291 330.825 461.092 329.703 C459.874 328.561 458.796 327.313 457.868 325.964 C456.947 324.622 456.159 323.163 455.514 321.590 L455.514 321.574 C454.843 319.960 454.345 318.272 454.019 316.511 C453.690 314.733 453.526 312.803 453.526 310.723 Z"/>
<path fill="#1f1f57" fill-rule="evenodd" d="M374.114 264.731 C370.275 264.731 366.556 264.979 362.966 265.474 C359.394 265.966 356.011 266.708 352.827 267.696 C349.557 268.709 346.518 269.974 343.707 271.488 C340.898 273.003 338.273 274.800 335.833 276.875 L335.825 276.866 C333.337 278.966 331.151 281.268 329.273 283.769 C327.386 286.282 325.838 288.960 324.633 291.800 C323.434 294.623 322.533 297.628 321.938 300.808 C321.354 303.922 321.062 307.227 321.062 310.723 L321.045 310.723 C321.045 317.686 322.273 323.990 324.728 329.631 C327.200 335.311 330.895 340.249 335.809 344.440 C338.263 346.536 340.923 348.365 343.789 349.921 C346.628 351.463 349.668 352.732 352.908 353.722 L352.906 353.727 C356.069 354.709 359.436 355.445 363.001 355.935 C366.574 356.425 370.280 356.672 374.114 356.672 C377.078 356.672 380.003 356.523 382.882 356.222 C385.718 355.925 388.424 355.481 390.993 354.889 C393.604 354.290 396.123 353.521 398.551 352.585 L398.549 352.580 C401.001 351.636 403.303 350.547 405.461 349.316 L405.495 349.299 C407.985 347.858 410.181 346.304 412.086 344.638 C414.037 342.933 415.677 341.100 417.008 339.143 L417.024 339.143 C418.312 337.236 419.370 335.174 420.200 332.952 C421.012 330.776 421.584 328.484 421.916 326.073 L422.575 321.284 L417.740 321.284 L400.062 321.284 L396.374 321.284 L395.885 324.967 C395.776 325.795 395.567 326.600 395.263 327.379 C394.955 328.170 394.565 328.896 394.099 329.554 L394.083 329.554 C393.593 330.251 393.006 330.910 392.332 331.522 C391.623 332.167 390.832 332.751 389.970 333.267 L389.937 333.284 C389.055 333.822 388.049 334.313 386.925 334.757 C385.738 335.227 384.508 335.615 383.239 335.921 C381.932 336.238 380.519 336.480 379.004 336.647 C377.549 336.806 375.970 336.888 374.272 336.888 C372.047 336.888 370.002 336.742 368.139 336.450 C366.259 336.157 364.470 335.713 362.776 335.122 C361.115 334.538 359.588 333.829 358.191 332.993 C356.827 332.176 355.578 331.228 354.443 330.146 L354.443 330.147 C353.349 329.093 352.364 327.899 351.493 326.569 C350.607 325.215 349.849 323.734 349.222 322.125 C348.591 320.513 348.120 318.774 347.807 316.910 C347.490 315.020 347.333 312.955 347.333 310.723 C347.333 308.498 347.490 306.439 347.804 304.552 C348.121 302.642 348.586 300.891 349.195 299.307 L349.212 299.290 C349.816 297.685 350.548 296.223 351.404 294.905 C352.257 293.591 353.246 292.394 354.363 291.318 C355.519 290.217 356.767 289.258 358.105 288.447 C359.452 287.631 360.952 286.928 362.608 286.343 L362.641 286.327 C364.272 285.736 366.016 285.294 367.864 285.000 C369.719 284.704 371.754 284.557 373.955 284.557 C375.749 284.557 377.393 284.637 378.884 284.798 C380.413 284.963 381.836 285.203 383.144 285.518 L383.144 285.522 C384.433 285.843 385.658 286.236 386.814 286.707 C387.935 287.164 388.930 287.665 389.791 288.213 L389.825 288.229 C390.672 288.761 391.463 289.375 392.189 290.066 C392.865 290.710 393.455 291.403 393.953 292.138 L393.948 292.142 C394.456 292.918 394.867 293.735 395.178 294.589 C395.505 295.485 395.742 296.453 395.885 297.487 L396.390 301.136 L400.062 301.136 L417.581 301.136 L422.344 301.136 L421.775 296.414 C421.158 291.300 419.547 286.733 416.945 282.714 C414.368 278.734 410.839 275.354 406.358 272.578 C402.094 269.942 397.234 267.971 391.783 266.665 C386.409 265.376 380.519 264.731 374.114 264.731 Z"/>
<path fill="#1f1f57" fill-rule="evenodd" d="M305.988 266.094 L288.600 266.094 L284.374 266.094 L284.374 270.321 L284.374 351.144 L284.374 355.370 L288.600 355.370 L305.988 355.370 L310.215 355.370 L310.215 351.144 L310.215 270.321 L310.215 266.094 L305.988 266.094 Z"/>
<path fill="#1f1f57" fill-rule="evenodd" d="M270.556 266.094 L251.641 266.094 L248.949 266.094 L247.810 268.571 L238.333 289.185 L238.326 289.182 C237.531 290.896 236.613 292.369 235.579 293.598 C234.582 294.782 233.427 295.790 232.122 296.618 L232.127 296.626 C230.905 297.393 229.428 297.982 227.694 298.390 C225.831 298.828 223.679 299.050 221.239 299.050 L203.389 299.050 L203.389 270.321 L203.389 266.094 L199.162 266.094 L181.724 266.094 L177.497 266.094 L177.497 270.321 L177.497 351.144 L177.497 355.370 L181.724 355.370 L228.194 355.370 C231.030 355.370 233.806 355.268 236.513 355.066 L236.513 355.065 C239.132 354.870 241.703 354.568 244.214 354.165 C246.782 353.750 249.158 353.201 251.331 352.519 C253.551 351.824 255.632 350.967 257.567 349.951 C259.568 348.900 261.363 347.672 262.939 346.261 C264.529 344.841 265.898 343.237 267.038 341.455 L267.044 341.460 C268.216 339.638 269.097 337.591 269.684 335.329 C270.243 333.178 270.524 330.838 270.524 328.319 L270.541 328.319 C270.541 324.896 269.923 321.761 268.695 318.911 C267.454 316.031 265.605 313.492 263.158 311.288 L263.141 311.288 C260.774 309.173 257.961 307.444 254.700 306.102 L254.683 306.094 C255.132 305.714 255.565 305.319 255.985 304.911 C257.512 303.439 258.932 301.753 260.250 299.855 C261.532 298.009 262.710 295.969 263.788 293.737 L263.781 293.735 L274.336 272.170 L277.310 266.094 L270.556 266.094 L270.556 266.094 ZM203.389 336.053 L203.389 318.956 L226.324 318.956 C228.220 318.956 229.922 319.008 231.421 319.113 L231.438 319.113 C232.915 319.216 234.288 319.379 235.556 319.603 L235.588 319.603 C236.742 319.796 237.799 320.052 238.760 320.369 C239.643 320.660 240.394 320.988 241.017 321.349 L241.020 321.342 C241.561 321.662 242.030 322.025 242.423 322.428 C242.704 322.718 242.944 323.023 243.140 323.342 C243.544 324.631 243.747 326.087 243.747 327.708 C243.747 329.109 243.566 330.393 243.204 331.561 C242.739 332.346 242.057 333.029 241.162 333.607 L241.159 333.602 C239.945 334.372 238.331 334.964 236.322 335.374 C234.109 335.826 231.397 336.053 228.194 336.053 L203.389 336.053 Z"/>
<path fill="#1f1f57" fill-rule="evenodd" d="M117.444 264.731 C114.318 264.731 111.366 264.845 108.597 265.069 C105.831 265.293 103.253 265.636 100.872 266.096 C98.488 266.554 96.270 267.102 94.228 267.739 C92.171 268.383 90.247 269.143 88.460 270.019 L88.428 270.019 C86.676 270.891 85.060 271.856 83.592 272.923 C82.108 273.999 80.760 275.204 79.559 276.547 L79.560 276.548 C78.391 277.843 77.375 279.166 76.520 280.514 C75.652 281.882 74.891 283.355 74.243 284.933 C73.639 286.399 73.132 287.940 72.716 289.552 L72.711 289.551 C72.305 291.122 71.996 292.745 71.776 294.412 C71.559 296.065 71.402 297.699 71.304 299.317 C71.210 300.882 71.163 302.563 71.163 304.355 L71.146 304.355 L71.146 351.144 L71.146 355.370 L75.373 355.370 L92.812 355.370 L97.039 355.370 L97.039 351.144 L97.039 304.355 C97.039 302.265 97.146 300.419 97.359 298.819 C97.570 297.218 97.886 295.774 98.299 294.495 C98.680 293.317 99.156 292.255 99.731 291.315 C100.262 290.446 100.886 289.680 101.605 289.024 L101.622 288.990 C102.336 288.330 103.170 287.752 104.115 287.259 C105.092 286.749 106.216 286.327 107.479 285.994 C108.809 285.643 110.299 285.376 111.941 285.194 C113.580 285.013 115.416 284.923 117.444 284.923 C119.420 284.923 121.189 284.998 122.740 285.153 C124.349 285.314 125.817 285.552 127.139 285.868 L127.172 285.885 C128.394 286.167 129.505 286.550 130.499 287.032 L130.496 287.039 C131.438 287.497 132.284 288.052 133.032 288.703 L133.040 288.695 C133.772 289.335 134.415 290.086 134.965 290.947 C135.547 291.859 136.043 292.917 136.446 294.117 C136.875 295.398 137.198 296.865 137.415 298.517 C137.634 300.188 137.743 302.133 137.743 304.355 L137.743 351.144 L137.743 355.370 L141.970 355.370 L159.331 355.370 L163.558 355.370 L163.558 351.144 L163.558 304.355 C163.558 303.035 163.519 301.561 163.438 299.912 C163.367 298.434 163.255 296.941 163.102 295.438 L163.099 295.438 C162.950 293.844 162.701 292.290 162.364 290.790 C162.012 289.231 161.562 287.709 161.027 286.237 L161.022 286.239 C160.446 284.643 159.757 283.142 158.957 281.745 C158.173 280.371 157.231 279.011 156.132 277.670 L156.135 277.668 C155.021 276.280 153.726 274.996 152.255 273.818 C150.810 272.661 149.205 271.606 147.446 270.654 C145.748 269.736 143.809 268.900 141.642 268.152 C139.506 267.415 137.235 266.788 134.837 266.275 L134.820 266.275 C132.303 265.751 129.607 265.361 126.733 265.109 C123.988 264.871 120.891 264.748 117.444 264.748 L117.444 264.731 Z"/>
<path fill="#1f1f57" fill-rule="evenodd" d="M64.334 266.094 L46.104 266.094 L43.464 266.094 L42.307 268.505 L32.740 288.452 L-3.181 288.452 L-12.168 268.588 L-13.296 266.094 L-16.015 266.094 L-33.692 266.094 L-40.391 266.094 L-37.506 272.138 L1.088 352.960 L2.232 355.354 L4.902 355.354 L24.028 355.354 L26.648 355.354 L27.808 353.025 L68.114 272.203 L71.162 266.094 L64.334 266.094 L64.334 266.094 ZM24.198 307.626 L14.527 328.294 L5.362 307.626 L24.198 307.626 Z"/>
<path fill="#b9271a" fill-rule="evenodd" d="M469.545 385.734 C374.845 385.734 298.046 462.533 298.046 557.233 C298.046 651.934 374.845 728.733 469.545 728.733 C564.246 728.733 641.045 651.934 641.045 557.233 C641.045 462.533 564.246 385.734 469.545 385.734 L469.545 385.734 ZM469.545 709.513 L454.471 593.627 L361.868 664.911 L433.152 572.308 L317.266 557.233 L433.152 542.158 L361.868 449.555 L454.471 520.840 L469.545 404.954 L484.621 520.840 L577.223 449.555 L505.940 542.158 L621.825 557.233 L505.940 572.308 L577.223 664.911 L484.621 593.627 L469.545 709.513 Z"/>
<path fill="#b9271a" fill-rule="evenodd" d="M148.046 728.733 C184.665 728.733 215.607 707.162 225.615 677.570 L225.622 677.570 L330.535 387.212 L225.622 387.212 L167.665 588.646 C162.146 606.563 133.704 606.563 129.308 588.646 L67.514 387.212 L-34.603 387.212 L70.460 677.545 L70.468 677.545 C80.466 707.150 111.416 728.733 148.046 728.733 Z"/>
<path fill="#b9271a" fill-rule="evenodd" d="M615.643 718.872 L605.489 718.872 L605.489 693.086 L600.152 693.086 L600.152 718.872 L590.045 718.872 L590.045 723.253 L615.643 723.253 L615.643 718.872 Z"/>
<path fill="#b9271a" fill-rule="evenodd" d="M651.850 693.086 L646.845 693.086 L646.845 707.748 C646.845 709.464 646.854 711.173 646.870 712.873 C646.886 714.574 646.894 716.268 646.894 717.953 L638.399 693.086 L633.589 693.086 L624.924 717.953 C624.956 716.268 624.980 714.574 624.997 712.873 C625.013 711.173 625.021 709.464 625.021 707.748 L625.021 693.086 L619.968 693.086 L619.968 723.253 L627.750 723.253 L636.002 699.335 L644.027 723.253 L651.850 723.253 L651.850 693.086 Z"/>
</g></svg>