<svg xmlns="http://www.w3.org/2000/svg" viewBox="0 0 688.267 631.498" width="688.3" height="631.5">
<g transform="matrix(1 0 0 -1 7.136 771.662)">
<path fill="#080c40" fill-rule="evenodd" d="M252.784 605.365 L272.593 752.324 C274.728 767.536 260.987 764.630 248.249 760.736 C169.263 736.591 96.699 670.217 80.026 578.314 C76.667 559.803 75.815 553.724 93.040 555.938 L208.798 570.815 C231.164 573.689 250.606 588.576 252.784 605.365 Z"/>
<path fill="#080c40" fill-rule="evenodd" d="M284.928 753.032 L256.557 542.554 C252.521 512.617 238.514 498.879 210.352 495.260 L103.806 481.567 C88.784 479.637 76.260 482.167 80.734 463.400 C83.443 452.037 86.420 440.802 91.078 430.366 C100.565 409.109 104.745 409.646 132.485 413.211 L196.265 421.408 C253.371 428.747 257.094 456.368 263.253 502.058 L288.765 691.310 C289.178 699.690 298.019 727.848 330.898 732.068 L414.188 742.778 C430.933 744.930 429.698 749.392 416.645 754.999 C380.017 770.736 345.769 776.115 303.775 771.662 C292.542 770.470 286.417 764.083 284.928 753.032 Z"/>
<path fill="#080c40" fill-rule="evenodd" d="M289.797 607.492 L261.122 394.755 C258.355 374.236 243.183 353.168 218.498 349.996 L166.792 343.351 C150.674 341.279 150.674 341.278 160.810 332.000 C183.998 310.772 211.628 294.630 241.901 285.164 C257.830 280.183 259.409 291.394 260.156 297.424 L292.301 535.902 C294.481 552.071 298.562 582.351 341.840 587.912 L527.454 611.766 L534.678 612.694 C557.030 615.567 554.756 621.029 549.167 633.120 C542.261 648.061 533.168 661.742 523.278 674.588 C521.894 676.387 520.396 678.098 519.054 679.925 C515.177 685.201 501.234 683.408 498.220 683.021 L344.060 663.210 C321.221 660.274 293.172 643.582 289.797 607.492 Z"/>
<path fill="#080c40" fill-rule="evenodd" d="M548.553 538.723 L543.615 538.088 L348.675 513.036 C325.999 510.122 298.896 494.653 295.304 468.005 L273.072 303.074 C271.218 289.325 265.988 278.076 287.224 273.940 C309.459 269.610 332.863 270.231 356.439 273.261 C480.080 289.151 577.608 392.606 575.032 513.345 C574.453 540.483 571.143 541.626 548.553 538.723 Z"/>
<path fill="#102766" fill-rule="evenodd" d="M552.443 140.164 L565.197 244.029 L643.295 244.029 C655.451 244.029 665.019 242.252 672.027 237.386 C679.700 232.057 682.731 224.756 681.130 215.510 C680.139 209.792 677.659 204.692 673.692 200.212 C669.256 195.160 663.688 191.729 656.991 189.918 C667.709 186.582 670.467 177.988 669.651 164.362 C669.428 160.641 669.290 156.953 668.848 153.352 L667.229 140.164 L631.736 140.164 L635.857 173.725 C636.421 178.323 629.853 181.415 617.946 181.415 L593.708 181.415 L588.643 140.164 L552.443 140.164 L552.443 140.164 ZM598.050 216.774 L596.151 201.304 L619.890 201.304 C631.800 201.304 638.525 203.452 639.698 210.220 C640.870 216.988 634.210 216.774 620.830 216.774 L598.050 216.774 Z"/>
<path fill="#102766" fill-rule="evenodd" d="M230.967 140.164 L243.721 244.029 L276.772 244.029 L264.018 140.164 L230.967 140.164 Z"/>
<path fill="#102766" fill-rule="evenodd" d="M112.503 140.164 L125.336 244.677 L224.625 244.677 L221.199 216.774 L157.891 216.774 L155.991 201.304 L219.299 201.304 L216.858 181.415 L153.549 181.415 L151.650 165.946 L214.958 165.946 L211.792 140.164 L112.503 140.164 Z"/>
<path fill="#102766" fill-rule="evenodd" d="M-7.136 140.164 L5.617 244.029 L108.563 244.029 L105.218 216.774 L34.002 216.774 L32.104 201.304 L103.318 201.304 L100.875 181.415 L29.661 181.415 L24.596 140.164 L-7.136 140.164 Z"/>
<path fill="#102766" fill-rule="evenodd" d="M448.410 244.029 L523.658 244.179 C535.162 244.202 545.973 234.681 544.573 223.265 L534.368 140.164 L499.120 140.164 L504.185 181.415 L454.818 181.415 L448.410 140.164 L414.742 140.164 L427.495 223.115 C429.244 234.485 436.906 244.006 448.410 244.029 L448.410 244.029 ZM464.628 216.774 C461.834 216.774 459.276 214.559 458.939 211.852 L458.239 206.226 C457.902 203.519 459.911 201.304 462.702 201.304 L501.510 201.304 C504.303 201.304 506.862 203.519 507.199 206.226 L507.899 211.852 C508.236 214.559 506.226 216.774 503.435 216.774 L464.628 216.774 Z"/>
<path fill="#102766" fill-rule="evenodd" d="M400.604 154.403 C400.104 150.322 397.444 146.858 393.192 143.942 C388.941 141.027 379.594 140.164 374.371 140.164 L282.341 140.164 L285.357 165.946 L360.830 165.946 C372.507 165.946 371.620 181.415 362.397 181.400 L305.814 181.317 C300.591 181.310 296.344 182.776 293.080 185.693 C289.818 188.611 288.639 192.082 289.217 196.155 L293.907 229.190 C294.485 233.262 297.065 236.733 301.319 239.650 C305.571 242.567 310.311 244.028 315.536 244.028 L403.820 244.028 C402.704 234.943 401.589 225.858 400.474 216.774 L333.269 216.779 C322.245 216.774 320.346 201.309 331.055 201.298 L389.537 201.238 C398.575 201.230 399.012 199.772 402.270 196.861 C405.527 193.948 404.420 185.492 403.921 181.415 L400.604 154.403 Z"/>
</g></svg>