<svg xmlns="http://www.w3.org/2000/svg" viewBox="0 0 1175.274 801.947" width="1175.3" height="801.9">
<g transform="matrix(1 0 0 -1 326.615 873.495)">
<path fill="#ff0000" fill-rule="evenodd" d="M367.684 259.979 L330.219 259.979 C275.399 259.979 275.399 259.979 250.750 302.666 L134.605 503.840 C102.756 559.314 102.664 559.158 134.613 614.493 L240.626 798.112 C263.017 836.897 263.017 836.897 308.199 836.897 L564.939 836.897 C608.476 836.897 608.476 836.897 631.068 797.766 L736.812 614.493 C768.788 559.087 768.829 559.158 736.892 503.840 L696.394 433.693 C675.231 397.041 675.231 397.041 696.226 360.675 L806.949 168.900 L848.659 168.900 L747.126 344.759 C716.941 397.043 716.941 397.043 746.861 448.864 L789.796 523.231 C810.539 559.158 810.539 559.158 789.677 595.289 L668.353 805.429 C629.057 873.495 629.057 873.495 540.957 873.495 L331.168 873.495 C241.888 873.495 241.888 873.493 203.294 806.646 L103.324 633.489 C59.426 557.448 60.408 559.158 101.932 487.236 L209.977 300.095 C254.276 223.369 254.266 223.383 336.213 223.383 L367.684 223.383 L367.684 259.979 Z"/>
<path fill="#ff0000" fill-rule="evenodd" d="M367.683 331.983 L352.212 331.984 C317.531 332.960 314.006 326.853 285.607 362.408 L197.751 511.603 C172.602 554.547 172.530 554.427 197.757 597.264 L281.466 739.409 C299.146 769.436 299.146 769.436 334.822 769.436 L537.549 769.436 C571.925 769.436 571.925 769.436 589.764 739.142 L673.261 597.264 C698.509 554.371 698.541 554.427 673.322 511.603 L620.524 421.912 C603.815 393.539 603.815 393.539 620.391 365.385 L736.846 168.898 L777.037 168.900 L668.155 354.644 C644.319 395.119 644.319 395.119 667.944 435.236 L722.040 525.985 C742.203 559.157 734.000 562.642 717.529 590.615 L621.730 753.289 C590.701 805.983 585.654 807.876 516.088 807.876 L350.435 807.876 C279.939 807.876 278.047 800.287 247.574 748.539 L168.635 614.494 C133.973 555.626 133.801 552.529 166.590 496.854 L251.904 351.980 C286.881 292.585 292.237 294.492 356.943 294.492 L367.683 294.488 L367.683 331.983 Z"/>
<path fill="#ff0000" fill-rule="evenodd" d="M217.504 561.019 L269.005 646.974 L320.509 732.939 C323.074 737.229 327.624 739.606 332.286 739.614 L332.286 739.663 L435.294 739.663 L435.294 739.608 L519.163 739.608 C552.048 739.153 549.999 735.606 564.795 708.375 L601.584 646.974 L653.085 561.019 C655.776 556.520 655.587 551.095 653.064 546.895 L601.584 460.971 L579.468 424.901 C558.992 391.507 559.570 403.423 578.916 370.185 L696.087 168.900 L663.513 168.900 L546.686 370.472 C530.503 398.397 530.728 396.110 547.324 423.811 L578.030 475.058 L608.094 525.243 C627.824 558.176 624.116 555.958 604.299 589.042 L578.030 632.886 L548.091 682.850 C529.290 714.235 530.615 712.182 493.954 712.182 L435.294 712.182 L435.294 712.128 L371.231 712.128 C341.733 712.128 341.714 714.941 326.631 689.755 L292.560 632.886 L263.439 584.283 C244.134 552.067 244.750 554.855 264.071 522.610 L292.560 475.058 L324.083 422.443 C338.775 397.921 336.334 395.817 364.763 395.817 L367.684 395.817 L367.684 368.283 L332.286 368.283 C326.881 368.283 322.208 371.397 319.954 375.931 L269.005 460.971 L217.504 546.932 C214.821 551.419 215.005 556.820 217.508 561.017 L217.504 561.019 Z"/>
<path fill="#0033ff" fill-rule="evenodd" d="M-158.779 96.192 L-125.338 96.192 L-125.338 208.671 L-158.779 208.671 L-158.779 96.192 Z"/>
<path fill="#0033ff" fill-rule="evenodd" d="M250.719 208.671 L284.160 208.671 L284.160 160.791 L304.419 160.791 L345.854 208.577 L366.185 208.671 L366.185 191.532 L331.334 152.224 L366.185 112.913 L366.185 95.774 L345.854 95.868 L304.259 143.837 L289.838 143.976 L289.920 144.069 L284.160 144.069 L284.160 96.192 L250.719 96.192 L250.719 144.069 L236.137 144.069 L194.703 96.285 L174.371 96.192 L174.371 113.331 L209.224 152.641 L174.371 191.949 L174.371 209.089 L194.703 208.995 L236.298 161.025 L250.719 160.887 L250.719 160.791 L250.636 160.791 L250.719 160.887 L250.719 208.671 Z"/>
<path fill="#0033ff" fill-rule="evenodd" d="M-237.965 92.046 L-237.965 71.548 L-271.407 71.548 L-271.407 92.168 C-303.080 98.434 -326.615 121.764 -326.615 149.591 C-326.615 182.215 -294.263 208.671 -254.371 208.671 C-214.477 208.671 -182.125 182.215 -182.125 149.591 C-182.125 121.581 -205.976 98.125 -237.965 92.046 L-237.965 92.046 ZM-254.373 194.773 C-275.611 194.773 -292.854 174.510 -292.854 149.589 C-292.854 124.669 -275.611 104.406 -254.373 104.406 C-233.126 104.406 -215.884 124.669 -215.884 149.589 C-215.884 174.510 -233.126 194.773 -254.373 194.773 Z"/>
<path fill="#0033ff" fill-rule="evenodd" d="M104.963 208.671 L153.549 208.671 L153.549 191.949 L104.963 191.949 C80.358 191.949 80.358 160.335 80.358 160.335 L153.549 160.335 L153.549 143.613 L80.358 143.613 C80.358 143.613 80.733 112.913 105.279 112.913 L153.549 112.913 L153.549 96.192 L104.963 96.192 C51.403 96.192 46.917 143.613 46.917 143.613 L46.917 160.335 C46.917 160.335 46.917 208.671 104.963 208.671 Z"/>
<path fill="#0033ff" fill-rule="evenodd" d="M21.542 191.988 C13.348 205.022 -2.424 208.671 -17.118 208.671 L-44.294 208.671 L-63.503 208.671 L-96.945 208.671 L-96.945 192.902 L-96.945 96.192 L-63.503 96.192 L-63.503 191.949 L-27.067 191.581 C-11.308 190.905 -0.699 183.243 -0.699 173.975 C-0.699 164.713 -6.498 157.211 -27.067 156.930 L-27.124 156.930 L-45.002 156.959 L-44.294 155.894 L-26.254 131.676 L0.181 96.192 L23.253 96.192 L23.253 112.913 L1.800 137.869 C20.502 145.609 26.724 159.135 26.724 174.578 C26.724 180.740 24.916 186.625 21.542 191.988 Z"/>
</g></svg>