<svg xmlns="http://www.w3.org/2000/svg" viewBox="0 0 563.716 671.245" width="563.7" height="671.2">
<g transform="matrix(1 0 0 -1 -21.445 699.043)">
<path fill="#d0232a" fill-rule="evenodd" d="M111.068 395.071 L383.689 395.071 L383.689 329.551 L111.068 329.551 L111.068 395.071 Z"/>
<path fill="#d0232a" fill-rule="evenodd" d="M463.599 442.022 L463.599 442.021 L463.599 314.890 L398.399 314.890 L398.399 409.275 L95.075 409.275 L95.075 314.890 L29.483 314.890 L29.483 442.021 L29.483 442.022 C29.483 460.034 44.218 474.768 62.229 474.768 L430.853 474.768 C448.864 474.768 463.599 460.034 463.599 442.022 Z"/>
<path fill="#d0232a" fill-rule="evenodd" d="M392.908 553.540 L327.845 488.477 L168.831 488.477 L103.768 553.540 L149.990 598.710 L195.161 553.540 L214.483 553.540 L214.483 609.042 L278.534 609.042 L278.534 553.540 L301.515 553.540 L346.685 598.710 L392.908 553.540 Z"/>
<path fill="#d0232a" fill-rule="evenodd" d="M29.483 301.602 L463.599 301.602 L463.599 157.275 L278.534 157.275 L278.534 138.031 L408.981 138.031 L474.044 72.968 L427.821 27.798 L382.651 72.968 L112.838 72.968 L67.668 27.798 L21.445 72.968 L86.508 138.031 L214.483 138.031 L214.483 157.275 L29.483 157.275 L29.483 301.602 L29.483 301.602 ZM95.075 239.748 L95.075 223.712 L398.399 223.712 L398.399 239.748 L95.075 239.748 Z"/>
<path fill="#000000" fill-rule="evenodd" d="M584.249 94.911 C584.249 69.433 563.587 48.770 538.108 48.770 C512.630 48.770 491.967 69.433 491.967 94.911 C491.967 120.389 512.630 141.052 538.108 141.052 C563.587 141.052 584.249 120.389 584.249 94.911 L584.249 94.911 ZM579.115 94.911 C579.115 117.554 560.751 135.918 538.108 135.918 C515.465 135.918 497.102 117.554 497.102 94.911 C497.102 72.268 515.465 53.904 538.108 53.904 C560.751 53.904 579.115 72.268 579.115 94.911 Z"/>
<path fill="#000000" fill-rule="evenodd" d="M566.016 94.911 C566.016 79.500 553.519 67.004 538.108 67.004 C522.697 67.004 510.201 79.500 510.201 94.911 C510.201 110.322 522.697 122.819 538.108 122.819 C553.519 122.819 566.016 110.322 566.016 94.911 Z"/>
<path fill="#000000" fill-rule="evenodd" d="M551.628 185.055 L551.628 211.690 L513.528 198.373 L551.628 185.055 L551.628 185.055 ZM493.483 184.999 L493.483 211.007 L493.483 212.337 L494.726 212.786 L581.943 244.341 L584.436 245.244 L584.436 242.562 L584.436 224.443 L584.436 223.111 L583.192 222.664 L568.046 217.219 L568.046 179.797 L583.199 174.328 L584.443 173.879 L584.443 172.549 L584.443 154.184 L584.443 151.537 L581.964 152.405 L521.493 173.607 L521.479 173.607 L494.733 183.220 L493.483 183.671 L493.483 184.999 L493.483 184.999 ZM553.266 328.777 L553.266 328.784 L536.288 328.784 L534.416 328.784 L534.416 326.894 L534.416 285.724 L534.416 283.834 L536.288 283.834 L548.964 283.834 L550.828 283.834 L550.828 285.724 L550.828 307.131 L551.405 307.131 C553.927 307.131 556.105 307.033 557.940 306.844 C558.335 306.804 558.685 306.762 558.986 306.724 C559.317 306.681 559.645 306.631 559.967 306.580 L559.975 306.580 L560.047 306.568 L560.045 306.564 C561.433 306.321 562.567 305.883 563.434 305.260 L563.431 305.257 C563.596 305.138 563.752 305.011 563.891 304.887 L563.892 304.888 C564.032 304.761 564.164 304.627 564.287 304.487 L564.293 304.481 C565.082 303.488 565.688 302.462 566.106 301.418 L566.109 301.419 C566.177 301.245 566.252 301.046 566.327 300.812 C566.406 300.568 566.468 300.359 566.512 300.192 L566.514 300.192 L566.521 300.166 L566.524 300.166 C566.716 299.410 566.881 298.450 567.020 297.290 C567.159 296.130 567.264 294.844 567.327 293.440 C567.272 292.928 567.220 292.277 567.184 291.497 L567.184 291.489 L567.163 291.004 L567.163 290.989 C567.126 289.998 567.104 288.795 567.101 287.390 L567.094 287.390 L567.094 287.080 C567.094 283.833 567.058 281.240 566.992 279.304 L566.944 278.142 L566.942 278.142 L566.886 277.108 L566.884 277.108 L566.869 276.865 C566.607 274.976 566.222 273.347 565.722 271.991 C565.260 270.745 564.700 269.728 564.035 268.941 C561.766 266.931 556.817 265.921 549.176 265.921 L528.265 265.921 C524.300 265.921 521.061 266.223 518.549 266.825 C517.364 267.109 516.349 267.459 515.512 267.872 C514.761 268.242 514.159 268.658 513.721 269.114 C512.976 270.084 512.385 271.338 511.958 272.864 C511.876 273.159 511.794 273.491 511.716 273.850 C511.633 274.233 511.563 274.593 511.508 274.929 L511.505 274.929 L511.500 274.967 L511.500 274.974 C511.320 276.087 511.173 277.488 511.065 279.166 L511.003 280.212 C510.889 282.406 510.826 284.956 510.825 287.846 L510.832 287.846 L510.832 288.066 C510.832 290.569 510.874 292.722 510.955 294.521 C511.040 296.377 511.167 297.956 511.333 299.245 L511.333 299.253 C511.485 300.459 511.731 301.525 512.068 302.445 C512.371 303.274 512.747 303.955 513.186 304.487 C513.896 305.315 514.918 305.957 516.248 306.397 L516.255 306.397 C517.725 306.885 519.555 307.131 521.751 307.131 L523.623 307.131 L523.623 309.021 L523.623 326.648 L523.623 328.538 L521.751 328.538 L518.941 328.538 C514.199 328.538 510.106 327.844 506.663 326.457 C503.124 325.031 500.292 322.880 498.165 320.011 L498.167 320.010 C496.445 317.721 495.178 315.116 494.377 312.219 L494.374 312.219 C494.223 311.678 494.086 311.099 493.961 310.493 L493.958 310.493 C493.838 309.916 493.733 309.317 493.648 308.704 L493.640 308.643 C493.399 306.909 493.207 305.035 493.068 303.032 L493.068 303.025 L492.992 301.844 L492.992 301.837 C492.850 299.403 492.775 296.714 492.772 293.782 L492.765 293.782 L492.765 293.614 L492.765 286.833 C492.765 284.520 492.807 282.228 492.891 279.958 C492.974 277.708 493.096 275.650 493.256 273.810 C493.422 271.897 493.698 269.967 494.083 268.026 C494.464 266.101 494.950 264.229 495.534 262.420 L495.541 262.413 C496.165 260.516 496.938 258.775 497.857 257.194 C498.786 255.595 499.867 254.152 501.097 252.869 L501.096 252.867 L501.110 252.853 C502.424 251.460 503.939 250.223 505.654 249.170 C505.959 248.983 506.302 248.783 506.678 248.577 C507.057 248.369 507.414 248.181 507.743 248.021 L507.745 248.023 L507.746 248.021 C509.038 247.376 510.467 246.815 512.019 246.344 C513.548 245.879 515.217 245.491 517.019 245.181 C518.793 244.872 520.745 244.642 522.860 244.492 C524.978 244.342 527.240 244.268 529.640 244.268 L529.640 244.275 L551.386 244.275 L551.386 244.268 C557.601 244.268 562.871 244.988 567.193 246.430 C571.621 247.909 575.080 250.154 577.556 253.166 L577.557 253.165 C578.710 254.445 579.719 255.872 580.578 257.444 C581.421 258.987 582.125 260.683 582.689 262.530 C583.461 265.048 584.031 267.645 584.396 270.297 C584.471 270.842 584.538 271.370 584.590 271.867 C584.651 272.441 584.700 272.970 584.737 273.444 L584.737 273.452 L584.746 273.566 C585.021 277.283 585.160 281.710 585.160 286.833 C585.160 289.933 585.118 292.760 585.034 295.304 C584.952 297.769 584.826 299.819 584.661 301.446 L584.659 301.446 C584.259 305.582 583.605 309.170 582.704 312.209 C581.772 315.352 580.559 317.953 579.077 319.996 L579.074 319.994 C577.228 322.646 574.838 324.646 571.908 325.976 L571.910 325.979 C571.356 326.231 570.765 326.464 570.144 326.675 L570.145 326.678 C569.524 326.891 568.896 327.074 568.269 327.224 L568.268 327.216 L568.234 327.225 L568.227 327.232 C566.055 327.751 563.707 328.137 561.189 328.395 L561.189 328.397 C558.721 328.651 556.077 328.777 553.266 328.777 L553.266 328.777 ZM544.893 366.400 L556.173 366.400 L558.045 366.400 L558.045 364.510 L558.045 335.802 L558.045 333.912 L556.173 333.912 L544.893 333.912 L543.022 333.912 L543.022 335.802 L543.022 364.510 L543.022 366.400 L544.893 366.400 L544.893 366.400 ZM525.172 392.409 C524.958 392.695 524.746 392.997 524.548 393.306 C521.832 397.528 520.468 404.007 520.468 412.726 L520.461 412.726 L520.461 412.767 L520.468 412.767 C520.470 418.746 521.089 423.844 522.320 428.045 C522.529 428.763 522.753 429.439 522.982 430.068 C524.231 433.479 525.953 436.245 528.140 438.353 L528.184 438.390 C529.631 439.697 531.220 440.780 532.942 441.626 C534.663 442.473 536.541 443.104 538.565 443.504 L538.567 443.498 C540.498 443.892 542.628 444.205 544.946 444.438 C547.249 444.671 549.776 444.828 552.518 444.911 L552.568 444.918 C559.188 444.918 564.677 444.241 569.036 442.888 C573.587 441.476 576.935 439.312 579.078 436.400 C580.391 434.798 581.462 433.024 582.297 431.085 C583.136 429.135 583.738 427.010 584.102 424.717 L584.103 424.717 L584.120 424.613 L584.120 424.599 C584.238 423.838 584.334 423.180 584.398 422.652 C584.463 422.111 584.539 421.411 584.621 420.541 C584.978 416.793 585.160 412.330 585.160 407.159 C585.160 404.110 585.099 401.258 584.976 398.608 C584.855 395.979 584.671 393.650 584.429 391.632 C584.174 389.504 583.717 387.495 583.071 385.611 C582.421 383.719 581.578 381.972 580.551 380.370 C578.683 377.293 575.787 374.947 571.864 373.344 L571.857 373.344 C568.091 371.806 563.346 370.942 557.626 370.762 L555.697 370.700 L555.697 372.645 L555.697 389.531 L555.697 391.421 L557.568 391.421 C559.750 391.421 561.532 391.663 562.910 392.143 L562.910 392.152 C564.137 392.579 565.045 393.192 565.625 393.983 L565.661 394.035 C566.111 394.602 566.474 395.212 566.750 395.856 L566.744 395.859 C567.034 396.542 567.247 397.282 567.375 398.072 C567.517 398.952 567.628 400.121 567.702 401.574 L567.702 401.581 C567.773 403.009 567.811 404.786 567.811 406.912 L567.818 406.912 C567.818 407.514 567.841 408.056 567.886 408.536 C567.924 408.949 567.984 409.327 568.057 409.668 C567.964 411.445 567.852 412.998 567.728 414.317 C567.596 415.704 567.447 416.852 567.285 417.755 L567.278 417.795 L567.276 417.795 C567.235 418.023 567.186 418.245 567.135 418.448 C567.094 418.608 567.030 418.819 566.947 419.075 L566.951 419.076 C566.633 420.032 566.164 420.839 565.553 421.478 L565.408 421.648 C565.058 422.111 564.602 422.504 564.049 422.820 C563.444 423.165 562.705 423.433 561.839 423.617 L561.759 423.634 C561.466 423.695 561.182 423.750 560.907 423.793 C560.703 423.824 560.394 423.868 559.942 423.924 C558.196 424.140 556.046 424.250 553.499 424.250 L553.419 424.250 L553.419 424.257 C550.094 424.255 547.359 424.075 545.233 423.721 C544.915 423.668 544.591 423.606 544.275 423.540 C542.856 423.237 541.839 422.858 541.238 422.408 L541.208 422.385 L541.178 422.364 C541.007 422.241 540.846 422.110 540.707 421.982 L540.707 421.975 C540.539 421.821 540.393 421.671 540.273 421.532 C539.563 420.711 539.067 419.618 538.802 418.260 L538.794 418.238 C538.572 417.156 538.389 415.723 538.244 413.954 C538.091 412.097 537.984 409.991 537.920 407.633 L537.929 406.828 C537.944 405.286 537.964 403.779 537.998 402.284 L537.998 402.261 C538.005 401.444 538.048 400.631 538.118 399.835 C538.186 399.071 538.289 398.284 538.421 397.484 L538.429 397.432 C538.463 397.228 538.502 397.031 538.540 396.861 C538.576 396.694 538.625 396.509 538.680 396.308 C538.930 395.415 539.288 394.622 539.748 393.936 L539.765 393.913 L539.766 393.915 C539.843 393.802 539.923 393.696 540.003 393.605 C540.071 393.524 540.164 393.433 540.264 393.337 C540.769 392.873 541.439 392.545 542.259 392.357 L543.722 392.022 L543.722 390.519 L543.722 374.864 L543.722 372.974 L541.850 372.974 L495.354 372.974 L493.483 372.974 L493.483 374.864 L493.483 439.329 L493.483 441.219 L495.354 441.219 L508.029 441.219 L509.901 441.219 L509.901 439.329 L509.901 392.409 L525.172 392.409 L525.172 392.409 ZM582.571 481.567 L549.694 481.567 L496.335 448.330 L493.483 446.553 L493.483 449.931 L493.483 470.167 L493.483 471.247 L494.418 471.798 L529.309 492.351 L494.397 513.416 L493.483 513.966 L493.483 515.034 L493.483 535.475 L493.483 538.894 L496.349 537.069 L549.706 503.098 L582.571 503.098 L584.443 503.098 L584.443 501.208 L584.443 483.457 L584.443 481.567 L582.571 481.567 L582.571 481.567 ZM525.172 561.895 C524.958 562.181 524.746 562.484 524.548 562.792 C521.827 567.023 520.461 573.504 520.461 582.212 L520.461 582.253 L520.468 582.253 C520.470 588.231 521.089 593.329 522.320 597.532 C522.529 598.251 522.753 598.927 522.982 599.555 C524.231 602.967 525.953 605.733 528.140 607.841 L528.184 607.878 C529.631 609.185 531.220 610.268 532.942 611.114 C534.663 611.961 536.541 612.590 538.565 612.991 L538.567 612.986 C540.498 613.380 542.628 613.693 544.946 613.926 C547.249 614.157 549.776 614.314 552.518 614.397 L552.568 614.404 C559.188 614.404 564.679 613.727 569.036 612.376 C573.587 610.964 576.935 608.799 579.078 605.888 C580.391 604.286 581.462 602.511 582.297 600.573 C583.134 598.622 583.738 596.498 584.102 594.205 L584.103 594.205 L584.120 594.100 L584.120 594.093 C584.293 592.990 584.447 591.804 584.572 590.551 C584.700 589.280 584.809 587.927 584.894 586.495 C585.070 583.542 585.160 580.256 585.160 576.645 C585.160 573.596 585.099 570.746 584.976 568.096 C584.855 565.467 584.671 563.138 584.429 561.118 C584.174 558.990 583.718 556.983 583.071 555.098 C582.420 553.204 581.577 551.457 580.551 549.858 C578.683 546.778 575.787 544.434 571.864 542.831 C568.097 541.293 563.349 540.431 557.626 540.248 L555.697 540.185 L555.697 542.131 L555.697 559.019 L555.697 560.909 L557.568 560.909 C559.734 560.909 561.515 561.154 562.910 561.638 L562.913 561.631 C564.133 562.056 565.040 562.671 565.625 563.471 L565.661 563.523 C566.111 564.090 566.474 564.700 566.750 565.344 L566.744 565.347 C567.034 566.030 567.247 566.770 567.375 567.560 C567.517 568.440 567.628 569.609 567.702 571.062 L567.702 571.069 C567.773 572.495 567.811 574.274 567.811 576.398 L567.818 576.398 C567.818 577.000 567.841 577.544 567.886 578.024 C567.924 578.437 567.984 578.814 568.057 579.156 C567.964 580.933 567.852 582.486 567.728 583.805 C567.596 585.192 567.447 586.339 567.285 587.242 L567.278 587.283 L567.276 587.283 C567.235 587.511 567.186 587.733 567.135 587.935 C567.094 588.095 567.030 588.307 566.947 588.563 L566.951 588.564 C566.633 589.520 566.164 590.326 565.553 590.964 L565.408 591.134 C565.058 591.597 564.604 591.992 564.049 592.307 C563.444 592.653 562.705 592.920 561.839 593.105 L561.759 593.122 C561.466 593.183 561.182 593.237 560.907 593.280 C560.703 593.312 560.394 593.356 559.942 593.412 C558.196 593.628 556.046 593.737 553.499 593.737 L553.419 593.737 L553.419 593.745 C550.094 593.743 547.359 593.563 545.233 593.209 C544.915 593.156 544.591 593.093 544.275 593.027 C542.856 592.724 541.839 592.346 541.238 591.896 L541.208 591.873 L541.178 591.852 C541.007 591.729 540.846 591.597 540.707 591.470 L540.707 591.463 C540.539 591.308 540.393 591.159 540.273 591.020 C539.563 590.198 539.067 589.105 538.802 587.747 L538.794 587.724 C538.572 586.642 538.389 585.209 538.244 583.440 C538.091 581.583 537.984 579.477 537.920 577.120 L537.929 576.314 L537.937 575.544 C537.951 574.271 537.970 573.016 537.998 571.772 L537.998 571.749 C538.005 570.931 538.048 570.119 538.118 569.322 C538.186 568.557 538.289 567.770 538.421 566.970 L538.429 566.919 C538.463 566.714 538.502 566.520 538.540 566.347 C538.576 566.181 538.623 566.000 538.678 565.801 L538.680 565.801 C538.933 564.901 539.291 564.104 539.748 563.422 L539.765 563.399 L539.766 563.401 C539.843 563.288 539.923 563.182 540.003 563.091 C540.071 563.011 540.164 562.919 540.264 562.824 C540.769 562.359 541.439 562.031 542.259 561.843 L543.722 561.508 L543.722 560.005 L543.722 544.351 L543.722 542.461 L541.850 542.461 L495.354 542.461 L493.483 542.461 L493.483 544.351 L493.483 608.816 L493.483 610.705 L495.354 610.707 L508.029 610.707 L509.901 610.707 L509.901 608.816 L509.901 561.895 L525.172 561.895 Z"/>
<path fill="#000000" fill-rule="evenodd" d="M529.408 635.642 L503.027 635.642 L503.027 625.024 L497.844 625.024 L497.844 653.331 L503.027 653.331 L503.027 642.624 L529.408 642.624 L529.408 635.642 L529.408 635.642 ZM529.408 656.531 L497.844 656.531 L497.844 667.836 L521.278 677.670 L521.278 677.856 L497.844 687.609 L497.844 699.043 L529.408 699.043 L529.408 692.070 L502.768 692.652 L502.768 692.450 L529.408 680.975 L529.408 674.713 L502.943 663.173 L502.943 662.979 L514.671 663.375 L529.408 663.561 L529.408 656.531 Z"/>
</g></svg>