<svg xmlns="http://www.w3.org/2000/svg" viewBox="0 0 563.565 536.290" width="563.6" height="536.3">
<g transform="matrix(1 0 0 -1 -18.164 695.863)">
<path fill="#ed1b2f" fill-rule="evenodd" d="M90.428 159.572 L65.894 159.572 L65.894 172.338 L42.699 172.338 L42.699 159.572 L18.164 159.572 L18.164 207.974 C18.164 215.386 21.248 221.013 27.389 224.891 C33.556 228.751 42.507 230.690 54.296 230.690 C66.086 230.690 75.035 228.751 81.203 224.891 C87.343 221.013 90.428 215.386 90.428 207.974 L90.428 159.572 L90.428 159.572 ZM65.894 187.813 L65.894 207.974 C65.894 211.988 64.339 214.271 61.255 214.802 C59.700 215.111 57.380 215.265 54.296 215.265 C47.965 215.265 44.308 214.288 43.352 212.349 C42.915 211.336 42.699 209.878 42.699 207.974 L42.699 187.813 L65.894 187.813 L65.894 187.813 ZM172.298 182.238 C172.298 174.826 169.214 169.198 163.073 165.355 C156.905 161.494 147.955 159.572 136.166 159.572 C124.376 159.572 115.427 161.494 109.258 165.355 C103.118 169.198 100.034 174.826 100.034 182.238 L100.034 230.690 L124.568 230.690 L124.568 182.238 C124.568 178.188 126.177 175.889 129.372 175.358 C130.927 175.083 133.191 174.945 136.166 174.945 C142.496 174.945 146.154 175.941 147.110 177.913 C147.545 178.927 147.763 180.367 147.763 182.238 L147.763 230.690 L172.298 230.690 L172.298 182.238 L172.298 182.238 ZM254.167 159.572 L229.633 159.572 L229.633 181.173 C229.633 184.160 228.842 185.995 227.315 186.663 C226.250 187.128 223.166 187.368 218.035 187.368 L206.438 187.368 L206.438 159.572 L181.903 159.572 L181.903 230.690 L218.035 230.690 C242.134 230.690 254.167 223.449 254.167 208.986 C254.167 202.741 250.374 198.126 242.732 195.106 C250.374 192.017 254.167 187.385 254.167 181.173 L254.167 159.572 L254.167 159.572 ZM229.633 208.986 C229.633 211.954 228.842 213.789 227.315 214.459 C226.304 214.991 223.193 215.265 218.035 215.265 L206.438 215.265 L206.438 202.792 L218.035 202.792 C223.166 202.792 226.250 203.032 227.315 203.495 C228.842 204.165 229.633 206.000 229.633 208.986 L229.633 208.986 ZM288.308 159.572 L263.774 159.572 L263.774 230.690 L288.308 230.690 L288.308 159.572 L288.308 159.572 ZM370.178 182.238 C370.178 174.826 367.094 169.198 360.954 165.355 C354.786 161.494 345.835 159.572 334.046 159.572 C322.256 159.572 313.307 161.494 307.138 165.355 C300.998 169.198 297.914 174.826 297.914 182.238 L297.914 207.974 C297.914 215.386 300.998 221.013 307.138 224.891 C313.307 228.751 322.256 230.690 334.046 230.690 C345.835 230.690 354.786 228.751 360.954 224.891 C367.094 221.013 370.178 215.386 370.178 207.974 L370.178 202.397 L345.643 202.397 L345.643 207.974 C345.643 211.954 344.034 214.236 340.840 214.802 C339.396 215.111 337.130 215.265 334.046 215.265 C327.716 215.265 324.058 214.253 323.102 212.245 C322.666 211.268 322.448 209.844 322.448 207.974 L322.448 182.238 C322.448 178.188 324.058 175.889 327.252 175.358 C328.806 175.083 331.072 174.945 334.046 174.945 C340.376 174.945 344.034 175.941 344.990 177.913 C345.426 178.927 345.643 180.367 345.643 182.238 L345.643 187.813 L370.178 187.813 L370.178 182.238 L370.178 182.238 ZM452.047 182.238 C452.047 174.826 448.963 169.198 442.823 165.355 C436.655 161.494 427.705 159.572 415.915 159.572 C404.127 159.572 395.176 161.494 389.009 165.355 C382.868 169.198 379.783 174.826 379.783 182.238 L379.783 207.974 C379.783 215.386 382.868 221.013 389.009 224.891 C395.176 228.751 404.127 230.690 415.915 230.690 C427.705 230.690 436.655 228.751 442.823 224.891 C448.963 221.013 452.047 215.386 452.047 207.974 L452.047 182.238 L452.047 182.238 ZM427.513 182.238 L427.513 207.974 C427.513 212.023 425.904 214.338 422.710 214.904 C421.372 215.144 419.110 215.265 415.915 215.265 C409.420 215.265 405.736 214.253 404.890 212.245 C404.509 211.405 404.318 209.980 404.318 207.974 L404.318 182.238 C404.318 178.120 405.928 175.786 409.121 175.254 C410.566 175.049 412.831 174.945 415.915 174.945 C422.356 174.945 426.040 175.941 426.941 177.913 C427.323 178.823 427.513 180.265 427.513 182.238 L427.513 182.238 ZM581.729 159.572 L557.114 159.572 L557.114 207.974 C557.114 211.988 555.558 214.271 552.474 214.802 C550.919 215.111 548.599 215.265 545.515 215.265 C539.130 215.265 535.499 214.288 534.654 212.349 C534.163 211.370 533.918 209.913 533.918 207.974 L533.918 159.572 L509.383 159.572 L509.383 207.974 C509.383 211.988 507.829 214.271 504.745 214.802 C503.190 215.111 500.869 215.265 497.786 215.265 C491.455 215.265 487.797 214.288 486.842 212.349 C486.405 211.336 486.188 209.878 486.188 207.974 L486.188 159.572 L461.654 159.572 L461.654 207.974 C461.654 215.386 464.738 221.013 470.878 224.891 C477.045 228.751 485.996 230.690 497.786 230.690 C509.248 230.690 517.215 228.630 521.691 224.513 C526.058 228.630 534.000 230.690 545.515 230.690 C557.305 230.690 566.284 228.751 572.451 224.891 C578.644 221.013 581.729 215.386 581.729 207.974 L581.729 159.572 Z"/>
<path fill="#32327f" fill-rule="evenodd" d="M423.658 597.548 C400.080 662.327 357.998 695.560 298.372 695.863 L324.403 501.423 L465.746 481.915 L423.658 597.548 L423.658 597.548 ZM296.727 695.863 C237.102 695.560 195.018 662.326 171.441 597.548 L129.353 481.915 L270.696 501.423 L296.727 695.863 L296.727 695.863 ZM123.974 467.134 L84.977 359.993 C74.811 332.064 75.264 294.829 94.987 272.348 L242.060 450.837 L123.974 467.134 L123.974 467.134 ZM98.379 268.808 L275.048 414.382 L296.704 252.616 L295.762 252.616 L144.047 252.616 C123.704 252.616 108.799 258.887 98.379 268.808 L98.379 268.808 ZM298.395 252.616 L299.395 252.616 L451.052 252.616 C470.193 252.616 484.519 258.171 494.823 267.094 L320.059 414.437 L298.395 252.616 L298.395 252.616 ZM501.763 274.324 L352.953 450.824 L471.125 467.134 L510.122 359.993 C519.995 332.866 519.848 296.963 501.763 274.324 Z"/>
</g></svg>