<svg xmlns="http://www.w3.org/2000/svg" viewBox="0 0 934.922 855.185" width="934.9" height="855.2">
<g transform="matrix(1 0 0 -1 97.296 829.544)">
<path fill="#00619f" fill-rule="evenodd" d="M53.207 347.560 L181.575 365.011 C257.492 374.132 257.492 374.132 270.800 472.266 L304.944 724.080 C305.500 735.232 317.294 772.695 361.053 778.275 L502.052 796.538 C444.203 825.810 377.249 838.590 308.127 829.544 C306.404 829.319 304.689 829.081 302.976 828.828 L261.932 526.162 C256.529 486.328 237.876 468.060 200.396 463.272 L22.586 439.484 C28.407 406.763 38.873 375.921 53.207 347.560 Z"/>
<path fill="#00619f" fill-rule="evenodd" d="M375.466 586.434 L661.238 623.674 C647.422 657.860 628.202 689.002 604.751 716.198 L378.497 686.631 C348.100 682.747 310.759 660.565 306.231 612.543 L267.854 329.478 C264.151 302.175 243.940 274.154 211.086 269.961 L119.247 258.083 C159.298 219.409 208.758 190.903 263.200 175.958 L309.489 517.272 C312.406 538.787 317.868 579.076 375.466 586.434 Z"/>
<path fill="#00619f" fill-rule="evenodd" d="M684.387 526.591 L384.484 486.786 C354.305 482.933 318.222 462.376 313.416 426.918 L278.863 172.067 C315.916 163.811 355.015 161.779 394.835 166.990 C572.742 190.272 699.577 349.588 684.387 526.591 Z"/>
<path fill="#fdb913" fill-rule="evenodd" d="M378.497 686.631 L604.751 716.198 C576.111 749.419 541.164 776.746 502.052 796.538 L361.053 778.275 C317.294 772.695 305.500 735.232 304.944 724.080 L270.800 472.266 C257.492 374.132 257.492 374.132 181.575 365.011 L53.207 347.560 C70.209 313.916 92.654 283.756 119.247 258.083 L211.086 269.961 C243.940 274.154 264.151 302.175 267.854 329.478 L306.231 612.543 C310.759 660.565 348.100 682.747 378.497 686.631 Z"/>
<path fill="#fdb913" fill-rule="evenodd" d="M661.238 623.674 L375.466 586.434 C317.868 579.076 312.406 538.787 309.489 517.272 L263.200 175.958 C268.379 174.536 273.599 173.240 278.863 172.067 L313.416 426.918 C318.222 462.376 354.305 482.933 384.484 486.786 L684.387 526.591 C683.958 531.587 683.415 536.601 682.759 541.620 C678.986 570.441 671.645 597.920 661.238 623.674 Z"/>
<path fill="#00619f" fill-rule="evenodd" d="M807.393 23.322 L820.609 23.322 C829.969 23.322 837.626 15.663 837.626 6.302 L837.626 -8.622 C837.626 -17.983 829.969 -25.641 820.609 -25.641 L807.393 -25.641 C798.029 -25.641 790.374 -17.983 790.374 -8.622 L790.374 6.302 C790.374 15.663 798.029 23.322 807.393 23.322 Z"/>
<path fill="#00619f" fill-rule="evenodd" d="M674.189 -25.641 L674.189 77.729 C674.189 77.729 674.189 116.888 720.009 116.886 L837.626 116.886 L837.626 69.209 L801.666 69.209 L733.754 69.209 C719.353 69.209 719.355 54.122 719.355 55.113 L719.355 -25.641 L674.189 -25.641 Z"/>
<path fill="#00619f" fill-rule="evenodd" d="M499.420 12.336 L499.420 77.076 C499.420 77.076 499.420 116.886 538.682 116.886 L613.968 116.886 C657.826 116.886 657.828 77.400 657.828 77.400 L657.833 -25.641 L613.968 -25.641 L613.968 54.291 C613.968 54.122 613.968 69.209 599.233 69.209 L559.632 69.209 C559.788 69.209 545.155 69.209 545.155 54.122 L545.266 38.225 C545.155 23.322 558.443 23.322 559.632 23.322 L598.353 23.322 L598.353 -25.641 L545.068 -25.641 C545.068 -25.641 499.420 -25.641 499.420 12.336 Z"/>
<path fill="#00619f" fill-rule="evenodd" d="M256.906 -25.641 L256.906 116.886 L303.382 116.886 L303.382 -25.641 L256.906 -25.641 Z"/>
<path fill="#00619f" fill-rule="evenodd" d="M82.497 12.504 L82.497 77.076 C82.497 77.076 82.497 116.888 124.781 116.886 L198.978 116.886 C198.978 116.886 239.235 116.888 239.235 77.404 L239.235 38.072 L198.650 38.072 L198.650 54.126 C198.650 54.126 198.650 69.209 183.853 69.209 L139.508 69.209 C124.685 69.209 124.685 54.209 124.685 54.209 L124.685 38.229 C124.685 23.322 139.426 23.322 139.426 23.322 L239.235 23.322 L239.235 -25.641 L124.674 -25.641 C124.674 -25.641 82.497 -25.641 82.497 12.504 Z"/>
<path fill="#00619f" fill-rule="evenodd" d="M384.862 54.122 L430.953 54.122 L442.801 54.122 C482.730 54.122 482.730 12.662 482.730 12.662 C482.730 -25.641 437.555 -25.641 437.555 -25.641 L321.707 -25.641 L321.707 23.322 L415.791 23.322 C430.956 23.322 432.012 38.072 415.791 38.072 L370.165 38.072 C370.165 38.072 321.707 38.072 321.707 77.076 C321.707 77.076 321.707 116.886 369.491 116.886 L482.730 116.886 L482.730 69.209 L384.862 69.209 C370.165 69.209 370.165 54.122 384.862 54.122 Z"/>
<path fill="#00619f" fill-rule="evenodd" d="M-97.296 -25.641 L-97.296 77.729 C-97.296 77.076 -97.296 116.888 -54.665 116.886 L59.556 116.886 L59.556 69.209 L-54.665 69.209 L-54.665 46.592 L59.556 46.592 L59.556 12.504 L-54.665 12.504 L-54.665 -25.641 L-97.296 -25.641 Z"/>
</g></svg>