<svg xmlns="http://www.w3.org/2000/svg" viewBox="0 0 525.088 437.734" width="525.1" height="437.7">
<g transform="matrix(1 0 0 -1 -45.796 744.269)">
<path fill="#ed1b2f" fill-rule="evenodd" d="M98.146 355.653 C98.146 352.444 97.746 349.301 96.945 346.241 C96.133 343.164 94.991 340.580 93.496 338.490 C91.447 335.676 89.163 333.537 86.644 332.089 C84.124 330.641 80.993 329.917 77.249 329.917 L69.007 329.917 L69.007 306.535 L55.762 306.535 L55.762 378.312 L77.555 378.312 C80.828 378.312 83.571 377.916 85.820 377.143 C88.057 376.353 90.046 375.168 91.765 373.589 C93.837 371.697 95.415 369.277 96.510 366.316 C97.605 363.354 98.146 359.800 98.146 355.653 L98.146 355.653 ZM84.454 355.225 C84.454 357.249 84.065 358.993 83.288 360.458 C82.499 361.922 81.593 362.942 80.557 363.518 C79.179 364.292 77.837 364.720 76.519 364.802 C75.212 364.868 73.469 364.917 71.279 364.917 L69.007 364.917 L69.007 343.410 L72.799 343.410 C75.047 343.410 76.907 343.608 78.367 343.986 C79.827 344.381 81.051 345.155 82.041 346.306 C82.888 347.343 83.512 348.561 83.889 349.992 C84.266 351.424 84.454 353.168 84.454 355.225 L84.454 355.225 ZM159.438 306.535 L129.357 306.535 L129.357 319.254 L137.775 319.254 L137.775 365.592 L129.357 365.592 L129.357 378.312 L159.438 378.312 L159.438 365.592 L151.020 365.592 L151.020 319.254 L159.438 319.254 L159.438 306.535 L159.438 306.535 ZM223.179 356.327 C223.179 358.138 222.908 359.684 222.390 360.968 C221.860 362.251 220.942 363.255 219.659 363.995 C218.764 364.506 217.716 364.818 216.527 364.933 C215.326 365.049 213.937 365.115 212.347 365.115 L207.556 365.115 L207.556 345.780 L211.617 345.780 C213.737 345.780 215.515 345.928 216.939 346.208 C218.364 346.504 219.553 347.162 220.518 348.182 C221.437 349.186 222.119 350.288 222.543 351.490 C222.967 352.691 223.179 354.303 223.179 356.327 L223.179 356.327 ZM243.841 306.535 L227.665 306.535 L213.654 332.863 L207.556 332.863 L207.556 306.535 L194.382 306.535 L194.382 378.312 L216.586 378.312 C219.624 378.312 222.237 378.081 224.415 377.587 C226.605 377.110 228.654 376.074 230.561 374.461 C232.492 372.848 234.022 370.775 235.164 368.224 C236.306 365.657 236.871 362.449 236.871 358.598 C236.871 353.300 235.988 348.972 234.234 345.632 C232.468 342.291 229.960 339.511 226.699 337.289 L243.841 306.535 L243.841 306.535 ZM321.239 306.535 L307.547 306.535 L303.991 321.048 L284.954 321.048 L281.398 306.535 L268.047 306.535 L287.026 378.312 L302.272 378.312 L321.239 306.535 L321.239 306.535 ZM300.789 334.212 L294.466 359.948 L288.156 334.212 L300.789 334.212 L300.789 334.212 ZM399.461 306.535 L386.699 306.535 L364.906 355.801 L364.906 306.535 L352.768 306.535 L352.768 378.312 L368.591 378.312 L387.322 337.190 L387.322 378.312 L399.461 378.312 L399.461 306.535 L399.461 306.535 ZM482.769 306.535 L469.524 306.535 L469.524 338.161 L449.968 338.161 L449.968 306.535 L436.723 306.535 L436.723 378.312 L449.968 378.312 L449.968 352.049 L469.524 352.049 L469.524 378.312 L482.769 378.312 L482.769 306.535 L482.769 306.535 ZM567.478 306.535 L553.785 306.535 L550.230 321.048 L531.192 321.048 L527.637 306.535 L514.286 306.535 L533.265 378.312 L548.511 378.312 L567.478 306.535 L567.478 306.535 ZM547.028 334.212 L540.705 359.948 L534.395 334.212 L547.028 334.212 Z"/>
<path fill="#ed1b2f" fill-rule="evenodd" d="M45.796 400.714 L570.884 400.714 L570.884 744.269 L45.796 744.269 L45.796 400.714 Z"/>
<path fill="#fdb913" fill-rule="evenodd" d="M345.083 709.913 L451.729 709.913 L488.484 672.191 L451.729 634.469 L345.083 634.469 L308.444 673.209 L345.083 709.913 Z"/>
<path fill="#fdb913" fill-rule="evenodd" d="M345.083 510.934 L451.729 510.934 L488.484 473.212 L451.729 435.489 L345.083 435.489 L308.444 474.230 L345.083 510.934 Z"/>
<path fill="#fdb913" fill-rule="evenodd" d="M461.212 518.840 L461.212 625.637 L498.880 662.445 L536.549 625.637 L536.549 518.840 L497.864 482.149 L461.212 518.840 Z"/>
<path fill="#fdb913" fill-rule="evenodd" d="M261.705 518.840 L261.705 625.637 L299.375 662.445 L337.044 625.637 L337.044 518.840 L298.358 482.149 L261.705 518.840 Z"/>
<path fill="#fdb913" fill-rule="evenodd" d="M80.132 709.524 L166.876 709.524 L253.621 634.673 L253.621 614.574 L166.876 614.574 L80.132 692.667 L80.132 709.524 Z"/>
<path fill="#fdb913" fill-rule="evenodd" d="M253.621 530.020 L166.876 530.020 L80.132 455.169 L80.132 435.070 L166.876 435.070 L253.621 513.163 L253.621 530.020 Z"/>
<path fill="#fdb913" fill-rule="evenodd" d="M253.621 454.415 C253.621 449.078 251.727 444.520 247.948 440.733 C244.169 436.955 239.611 435.069 234.275 435.069 C228.930 435.069 224.373 436.955 220.594 440.733 C216.814 444.520 214.921 449.078 214.921 454.415 C214.921 459.752 216.814 464.309 220.594 468.088 C224.373 471.875 228.930 473.761 234.275 473.761 C239.611 473.761 244.169 471.875 247.948 468.088 C251.727 464.309 253.621 459.752 253.621 454.415 L253.621 454.415 ZM249.368 454.415 C249.368 458.576 247.895 462.149 244.956 465.141 C242.008 468.126 238.451 469.623 234.298 469.623 C230.137 469.623 226.579 468.126 223.640 465.141 C220.693 462.149 219.219 458.576 219.219 454.415 C219.219 450.254 220.693 446.681 223.640 443.688 C226.579 440.703 230.137 439.207 234.298 439.207 C238.451 439.207 242.008 440.703 244.956 443.688 C247.895 446.681 249.368 450.254 249.368 454.415 L249.368 454.415 ZM245.139 445.246 L237.871 453.544 C239.138 454.048 240.169 454.758 240.963 455.667 C241.749 456.575 242.146 457.736 242.146 459.133 C242.146 460.179 241.940 461.049 241.528 461.752 C241.123 462.454 240.474 463.050 239.596 463.538 C238.787 463.973 237.978 464.240 237.161 464.347 C236.336 464.447 235.252 464.500 233.893 464.500 L226.579 464.500 L226.579 445.246 L231.320 445.246 L231.320 452.315 L233.244 452.315 L239.077 445.246 L245.139 445.246 L245.139 445.246 ZM236.863 458.774 C236.863 459.179 236.779 459.545 236.611 459.881 C236.435 460.217 236.153 460.492 235.748 460.698 C235.374 460.912 234.946 461.041 234.466 461.087 C233.977 461.141 233.427 461.171 232.816 461.171 L231.320 461.171 L231.320 455.736 L232.458 455.736 C233.252 455.736 233.931 455.789 234.496 455.903 C235.061 456.010 235.519 456.201 235.863 456.468 C236.206 456.728 236.458 457.041 236.619 457.415 C236.786 457.782 236.863 458.240 236.863 458.774 Z"/>
</g></svg>