<svg xmlns="http://www.w3.org/2000/svg" viewBox="0 0 664.063 699.635" width="664.1" height="699.6">
<g transform="matrix(1 0 0 -1 23.522 763.868)">
<path fill="#6f2f72" fill-rule="evenodd" d="M399.176 460.675 L454.876 460.675 L513.183 316.206 C551.593 363.622 574.605 424.018 574.605 489.778 C574.605 631.188 468.192 747.794 331.092 763.868 C283.287 637.520 166.119 545.221 26.084 533.469 C23.818 519.239 22.643 504.645 22.643 489.778 C22.643 337.384 146.229 213.797 298.623 213.797 C312.599 213.797 326.334 214.836 339.751 216.842 L241.339 460.675 L297.039 460.675 L390.374 229.421 C397.170 231.816 403.844 234.471 410.385 237.371 L320.258 460.675 L375.957 460.675 L455.781 262.899 C461.896 267.143 467.832 271.630 473.574 276.341 L399.176 460.675 Z"/>
<path fill="#32327f" fill-rule="evenodd" d="M116.336 77.398 L143.716 77.398 L143.716 185.697 L116.336 185.697 L116.336 77.398 Z"/>
<path fill="#32327f" fill-rule="evenodd" d="M315.276 77.397 L315.276 104.776 L315.276 158.318 L315.276 185.697 L342.655 185.697 L408.089 185.697 L408.089 184.824 L408.962 185.697 L437.978 156.681 L437.978 109.108 L410.599 109.108 L410.599 145.340 L397.621 158.318 L342.655 158.318 L342.655 104.776 L408.089 104.776 L408.089 77.397 L342.655 77.397 L315.276 77.397 Z"/>
<path fill="#32327f" fill-rule="evenodd" d="M99.181 115.260 L99.181 109.108 L99.181 104.776 L99.181 77.397 L71.802 77.397 L69.291 77.397 L61.319 77.397 L50.759 77.397 L50.759 64.233 L23.380 64.233 L23.380 77.397 L3.857 77.397 L-23.522 77.397 L-23.522 104.776 L-23.522 158.318 L-23.522 185.697 C-14.396 185.697 -5.269 185.697 3.857 185.697 L69.291 185.697 L69.291 184.824 L70.164 185.697 L99.181 156.681 L99.181 115.260 L99.181 115.260 ZM71.802 104.776 L71.802 109.108 L71.802 115.260 L71.802 145.340 L58.824 158.318 L3.857 158.318 L3.857 104.776 L61.319 104.776 L69.291 104.776 L71.802 104.776 Z"/>
<path fill="#32327f" fill-rule="evenodd" d="M161.925 77.397 L161.925 104.776 L161.925 158.318 L161.925 185.697 L189.305 185.697 L254.739 185.697 L254.739 184.824 L255.612 185.697 L284.378 156.743 L284.378 117.542 L299.046 102.763 L299.026 77.397 L274.768 77.397 L274.650 92.247 L257.164 109.889 L189.305 109.889 L189.305 104.776 L189.305 77.397 L161.925 77.397 L161.925 77.397 ZM257.249 133.746 L257.249 145.340 L244.271 158.318 L189.305 158.318 L189.305 133.746 L257.249 133.746 Z"/>
<path fill="#32327f" fill-rule="evenodd" d="M533.180 185.697 L560.559 185.697 L560.559 139.785 L563.429 139.785 L590.053 185.694 L590.053 185.697 L590.054 185.697 L640.542 185.697 L640.542 158.318 L605.860 158.318 L593.463 136.846 L593.463 126.137 L605.794 104.776 L640.477 104.776 L640.477 77.397 L589.989 77.397 L589.988 77.397 L589.988 77.401 L563.363 123.310 L563.367 123.311 L560.559 123.311 L560.559 77.397 L533.180 77.397 L533.180 123.311 L530.472 123.311 L530.476 123.310 L503.851 77.401 L503.851 77.397 L503.850 77.397 L453.363 77.397 L453.363 104.776 L488.045 104.776 L500.278 125.966 L500.278 137.240 L488.110 158.318 L453.428 158.318 L453.428 185.697 L503.915 185.697 L503.917 185.697 L503.917 185.694 L530.541 139.785 L533.180 139.785 L533.180 185.697 Z"/>
</g></svg>