<svg xmlns="http://www.w3.org/2000/svg" xmlns:xlink="http://www.w3.org/1999/xlink" xmlns:inkscape="http://www.inkscape.org/namespaces/inkscape" version="1.1" width="364" height="364" viewBox="2.67 3.00 363.67 363.67">
<defs>
</defs>
<g>
<g>
<g>
<g>
<path transform="matrix(1,0,0,-1,35.04297,221.53711)" d="M0 0C1.562 .48 3.025 .418 4.394-.187 5.855-.841 6.823-1.936 7.295-3.472L8.812-8.405C9.24-9.798 9.692-10.763 10.168-11.3 10.868-12.057 11.816-12.356 13.013-12.198L8.729 1.737 13.05 3.066 18.795-15.624 16.616-16.333C10.496-18.319 6.456-16.128 4.497-9.756L2.984-4.834C2.793-4.212 2.229-4.044 1.293-4.332 .381-4.612 .021-5.064 .212-5.687L4.342-19.121 .021-20.449-4.12-6.981C-4.593-5.445-4.407-3.995-3.565-2.633-2.748-1.357-1.56-.479 0 0"/>
<path transform="matrix(1,0,0,-1,39.320314,203.26563)" d="M0 0-7.016-1.051C-8.08-1.21-8.524-1.874-8.35-3.041L-7.418-9.263C-7.239-10.455-6.618-10.972-5.554-10.813L1.462-9.762C2.526-9.603 2.97-8.927 2.791-7.734L1.858-1.512C1.684-.345 1.064 .159 0 0M-.663 4.472C1.072 4.732 2.606 4.346 3.939 3.313 5.272 2.281 6.069 .896 6.33-.842L7.262-7.064C7.522-8.804 7.167-10.368 6.197-11.757 5.227-13.147 3.874-13.972 2.138-14.231L-4.89-15.284C-6.625-15.544-8.161-15.152-9.496-14.107-10.831-13.063-11.629-11.672-11.889-9.933L-12.821-3.711C-13.081-1.973-12.726-.414-11.753 .964-10.781 2.341-9.427 3.159-7.691 3.42Z"/>
<path transform="matrix(1,0,0,-1,36.006837,184.19733)" d="M0 0-6.63-.107 .114-7.044ZM4.396 7.721 4.446 4.594 8.326 4.656 8.399 .137 4.52 .073 4.727-12.658 .318-12.692-10.937-1.76-11.035 4.343-.073 4.521-.124 7.647Z"/>
<path transform="matrix(1,0,0,-1,42.023439,160.53711)" d="M0 0C.095 .646-.336 1.039-1.293 1.179-2.25 1.318-2.775 1.065-2.87 .419L-4.307-9.422C-4.401-10.069-3.97-10.462-3.013-10.601-2.056-10.741-1.53-10.488-1.437-9.841ZM-7.392 .74C-7.298 1.384-7.729 1.775-8.687 1.915-9.643 2.055-10.169 1.803-10.263 1.159L-11.602-8.018C-11.692-8.638-11.259-9.017-10.303-9.156-9.346-9.296-8.822-9.057-8.731-8.437ZM-4.791 3.821C-3.595 5.246-2.004 5.813-.021 5.524 1.418 5.314 2.568 4.689 3.43 3.649 4.372 2.471 4.721 1.037 4.474-.652L3.037-10.494C2.791-12.185 2.047-13.459 .807-14.318-.315-15.068-1.596-15.339-3.035-15.129-5.019-14.839-6.382-13.854-7.125-12.171-8.31-13.344-9.795-13.799-11.581-13.538-13.019-13.329-14.169-12.704-15.031-11.664-15.978-10.512-16.327-9.09-16.08-7.399L-14.736 1.809C-14.49 3.498-13.748 4.761-12.512 5.596-11.389 6.346-10.108 6.616-8.67 6.406-6.884 6.145-5.591 5.284-4.791 3.821"/>
<path transform="matrix(1,0,0,-1,62.55371,115.88672)" d="M0 0-1.939-4.084-7.486-1.45-12.593-12.205-16.677-10.265-11.57 .489-14.021 1.652C-14.905 2.073-15.488 1.987-15.769 1.398L-21.263-10.173C-21.531-10.741-21.225-11.234-20.342-11.653L-8.258-17.391-10.196-21.475-22.289-15.733C-23.761-15.034-24.811-13.973-25.438-12.548-26.066-11.125-26.036-9.687-25.347-8.234L-19.853 3.337C-19.152 4.812-18.052 5.756-16.551 6.169-15.05 6.583-13.564 6.44-12.093 5.741Z"/>
<path transform="matrix(1,0,0,-1,74.86426,98.0791)" d="M0 0-2.588-3.707-19.94-5.789-9.252-13.251-11.841-16.958-27.718-5.873-25.129-2.166-7.839-.04-18.465 7.379-15.877 11.086Z"/>
<path transform="matrix(1,0,0,-1,79.61133,71.40576)" d="M0 0-6.066-6.292 4.619-16.595 1.481-19.849-9.204-9.546-15.271-15.839-18.525-12.701-3.255 3.138Z"/>
<path transform="matrix(1,0,0,-1,94.916019,78.16016)" d="M0 0-3.452-2.919-15.956 11.868-12.504 14.787Z"/>
<path transform="matrix(1,0,0,-1,105.49609,61.145509)" d="M0 0-13.941-9.844-16.57-6.12-2.629 3.724Z"/>
<path transform="matrix(1,0,0,-1,129.54297,56.72754)" d="M0 0-13.371-6.785C-14.939-7.581-16.536-7.737-18.16-7.255-19.785-6.772-20.995-5.749-21.789-4.184L-25.005 2.154C-25.799 3.719-25.911 5.299-25.341 6.896-24.771 8.492-23.702 9.688-22.134 10.483L-8.763 17.269-6.717 13.237-20.088 6.452C-21.163 5.906-21.457 5.154-20.971 4.194L-17.76-2.132C-17.273-3.092-16.492-3.299-15.417-2.753L-6.077 1.986-7.39 4.573-12.866 1.794-14.912 5.825-5.404 10.65Z"/>
<path transform="matrix(1,0,0,-1,152.06055,49.4209)" d="M0 0-5.905-1.816-18.351 5.707-7.224 9.13C-6.432 9.374-6.23 10.131-6.622 11.404-7.014 12.676-7.605 13.19-8.397 12.947L-21.793 8.826-17.429-5.361-21.749-6.691-27.443 11.818-9.475 17.345C-7.818 17.855-6.312 17.609-4.952 16.608-3.702 15.705-2.818 14.413-2.302 12.733-1.784 11.053-1.789 9.487-2.315 8.038-2.877 6.447-3.985 5.396-5.643 4.886L-7.299 4.377Z"/>
<path transform="matrix(1,0,0,-1,178.0166,45.822267)" d="M0 0-4.489-.537-5.218 5.561-17.039 4.148-17.575 8.637-5.755 10.05-6.076 12.743C-6.192 13.716-6.575 14.163-7.224 14.085L-19.942 12.565C-20.565 12.491-20.819 11.969-20.703 10.999L-19.116-2.285-23.604-2.821-25.193 10.47C-25.387 12.088-25.048 13.542-24.178 14.833-23.308 16.123-22.075 16.864-20.479 17.055L-7.76 18.575C-6.14 18.769-4.754 18.34-3.604 17.292-2.454 16.242-1.782 14.909-1.589 13.291Z"/>
<path transform="matrix(1,0,0,-1,202.48438,27.5)" d="M0 0-10.823-18.849-14.661-18.657-23.592 1.177-18.55 .926-12.4-12.659-5.042 .251Z"/>
<path transform="matrix(1,0,0,-1,206.7207,47.99756)" d="M0 0-4.468 .693-1.498 19.829 2.97 19.136Z"/>
<path transform="matrix(1,0,0,-1,232.62305,38.839845)" d="M0 0-8.453 2.221-12.225-12.136-16.598-10.987-12.826 3.369-21.279 5.59-20.131 9.962 1.148 4.373Z"/>
<path transform="matrix(1,0,0,-1,256.99903,50.94336)" d="M0 0C-.677-1.486-1.694-2.541-3.054-3.164-4.513-3.825-5.975-3.822-7.437-3.156L-11.176-1.456-14.248-8.212-18.363-6.34-15.29 .416-19.097 2.147C-20.561 2.813-21.511 3.908-21.949 5.431-22.396 6.876-22.281 8.341-21.604 9.828L-19.125 15.28-15.01 13.408-17.489 7.956C-17.885 7.086-17.797 6.522-17.226 6.262L-5.565 .958C-4.994 .699-4.511 1.003-4.115 1.872L-1.635 7.324 2.479 5.453Z"/>
<path transform="matrix(1,0,0,-1,72.58887,299.34858)" d="M0 0-4.243 4.696-2.646 19.507 5.35 10.658C5.918 10.028 6.709 10.17 7.721 11.084 8.732 11.998 8.954 12.771 8.385 13.4L-1.24 24.054-12.522 13.859-15.627 17.296-.908 30.595 12.002 16.305C13.192 14.987 13.617 13.481 13.275 11.786 12.979 10.235 12.161 8.855 10.825 7.648 9.489 6.44 8.033 5.768 6.46 5.629 4.739 5.461 3.284 6.036 2.094 7.354L.904 8.67Z"/>
<path transform="matrix(1,0,0,-1,96.34277,318.6045)" d="M0 0-3.679 2.813 .144 7.811-9.543 15.22-6.729 18.898 2.957 11.489 4.646 13.696C5.255 14.493 5.294 15.095 4.763 15.501L-5.659 23.473C-6.171 23.864-6.729 23.662-7.338 22.866L-15.664 11.981-19.343 14.795-11.012 25.687C-9.997 27.013-8.71 27.838-7.148 28.164-5.588 28.489-4.154 28.152-2.846 27.151L7.576 19.18C8.904 18.163 9.616 16.859 9.711 15.268 9.805 13.676 9.345 12.218 8.331 10.892Z"/>
<path transform="matrix(1,0,0,-1,119.49902,331.1504)" d="M0 0-13.627 7.088C-15.225 7.919-16.308 9.155-16.874 10.796-17.442 12.438-17.312 14.055-16.481 15.65L-13.122 22.108C-12.293 23.703-11.043 24.739-9.374 25.217-7.705 25.694-6.071 25.518-4.473 24.687L9.154 17.599 7.017 13.49-6.61 20.578C-7.705 21.147-8.508 20.943-9.017 19.966L-12.37 13.519C-12.879 12.54-12.585 11.767-11.489 11.196L2.138 4.108Z"/>
<path transform="matrix(1,0,0,-1,127.1582,333.96974)" d="M0 0-4.312 1.69 2.93 20.158 7.241 18.468Z"/>
<path transform="matrix(1,0,0,-1,150.69239,341.2119)" d="M0 0-4.464 1.235-12.396 17.284-15.957 4.415-20.42 5.65-15.131 24.769-10.667 23.533-2.714 7.559 .826 20.354 5.29 19.118Z"/>
<path transform="matrix(1,0,0,-1,176.68067,344.5254)" d="M0 0-15.272 1.633C-17.063 1.824-18.522 2.581-19.648 3.902-20.775 5.224-21.243 6.777-21.052 8.565L-20.277 15.804C-20.086 17.591-19.301 19.012-17.92 20.064-16.54 21.118-14.954 21.549-13.163 21.357L2.109 19.724 1.617 15.119-13.655 16.752C-14.884 16.884-15.556 16.401-15.673 15.306L-16.446 8.079C-16.563 6.982-16.008 6.369-14.78 6.238L-4.112 5.097-3.796 8.052-10.051 8.721-9.559 13.325 1.302 12.164Z"/>
<path transform="matrix(1,0,0,-1,223.7461,339.6396)" d="M0 0-15.085-2.894C-16.854-3.233-18.471-2.936-19.933-2-21.396-1.064-22.297 .285-22.636 2.051L-24.007 9.2C-24.346 10.966-24.008 12.554-22.995 13.964-21.982 15.374-20.591 16.249-18.822 16.588L-3.737 19.481-2.864 14.933-17.949 12.04C-19.162 11.807-19.665 11.149-19.457 10.067L-18.088 2.93C-17.881 1.847-17.171 1.422-15.958 1.654L-.873 4.548Z"/>
<path transform="matrix(1,0,0,-1,247.85742,331.2627)" d="M0 0-4.345-1.602-6.976 5.531-18.164 1.405-15.533-5.728-19.879-7.33-26.742 11.281-22.396 12.884-19.767 5.75-8.578 9.876-11.208 17.01-6.863 18.612Z"/>
<path transform="matrix(1,0,0,-1,273.14649,317.38093)" d="M0 0-4.006-2.324-7.162 3.118-17.712-3.001-20.035 1.005-9.486 7.124-10.88 9.527C-11.384 10.396-11.925 10.661-12.504 10.326L-23.854 3.742C-24.41 3.419-24.437 2.825-23.936 1.959L-17.059-9.896-21.065-12.219-27.945-.357C-28.783 1.087-29.054 2.592-28.758 4.158-28.462 5.726-27.603 6.922-26.178 7.748L-14.827 14.332C-13.381 15.171-11.903 15.33-10.396 14.809-8.89 14.287-7.718 13.306-6.881 11.861Z"/>
<path transform="matrix(1,0,0,-1,296.65724,297.97169)" d="M0 0-3.505-3.026-11.399 6.115-9.957-8.191-23.901-4.681-16.006-13.823-19.511-16.85-32.477-1.837-28.796 1.342-15.229-2.087-16.616 11.86-12.965 15.014Z"/>
<path transform="matrix(1,0,0,-1,302.3252,270.64064)" d="M0 0C-1.088 .863-1.841 1.033-2.256 .51L-11.323-10.919-8.089-13.485 .979-2.058C1.395-1.533 1.068-.848 0 0M2.879 3.628C4.27 2.524 5.154 1.197 5.534-.352 5.987-2.058 5.678-3.586 4.606-4.936L-4.461-16.363 .588-20.37-2.29-23.997-17.83-11.668-5.884 3.388C-4.812 4.738-3.395 5.387-1.631 5.334-.015 5.3 1.488 4.731 2.879 3.628"/>
<path transform="matrix(1,0,0,-1,319.6289,267.9854)" d="M0 0-2.442-3.936-19.297 6.524-16.855 10.46Z"/>
<path transform="matrix(1,0,0,-1,324.80274,244.35059)" d="M0 0-6.575 3.098C-7.572 3.567-8.334 3.243-8.86 2.126L-13.827-8.417C-14.354-9.535-14.118-10.328-13.121-10.798L-6.547-13.896C-5.549-14.365-4.787-14.041-4.261-12.924L.706-2.381C1.232-1.264 .997-.47 0 0M1.979 4.187C3.605 3.421 4.689 2.213 5.232 .563 5.775-1.086 5.663-2.726 4.896-4.354L-.071-14.897C-.839-16.527-2.032-17.658-3.649-18.289-5.267-18.921-6.888-18.854-8.515-18.087L-15.101-14.985C-16.727-14.219-17.812-13.011-18.354-11.361-18.896-9.713-18.784-8.073-18.017-6.443L-13.05 4.1C-12.282 5.729-11.09 6.859-9.473 7.491-7.855 8.122-6.232 8.056-4.606 7.289Z"/>
<path transform="matrix(1,0,0,-1,339.625,218.14942)" d="M0 0-1.221-4.468-17.244-12.453-4.362-15.972-5.583-20.438-24.719-15.213-23.498-10.745-7.55-2.739-20.356 .759-19.136 5.227Z"/>
<path transform="matrix(1,0,0,-1,336.89259,189.61328)" d="M0 0C1.659-.161 3.027-.799 4.104-1.911 5.226-3.105 5.706-4.522 5.547-6.161L3.89-23.216-.72-22.769 .937-5.714C1-5.073 .538-4.705-.448-4.609-1.434-4.514-1.958-4.786-2.021-5.426L-3.226-17.833C-3.385-19.473-4.132-20.77-5.465-21.726-6.717-22.639-8.175-23.014-9.84-22.852-11.504-22.689-12.887-22.026-13.989-20.858-15.091-19.692-15.562-18.289-15.402-16.65L-13.745 .405-9.136-.043-10.797-17.135C-10.859-17.776-10.391-18.146-9.392-18.242-8.419-18.337-7.901-18.063-7.839-17.422L-6.631-4.989C-6.472-3.348-5.727-2.047-4.396-1.088-3.125-.202-1.659 .161 0 0"/>
<path transform="matrix(1,0,0,-1,341.61817,164.69818)" d="M0 0 .321-4.619-7.264-5.146-6.437-17.043 1.148-16.516 1.47-21.136-18.319-22.512-18.641-17.892-11.056-17.364-11.883-5.468-19.468-5.995-19.789-1.375Z"/>
<path transform="matrix(1,0,0,-1,340.08106,156.7373)" d="M0 0 .794-4.562-18.749-7.963-19.543-3.399Z"/>
<path transform="matrix(1,0,0,-1,321.58595,137.36518)" d="M0 0C-1.332-.396-1.902-.915-1.712-1.556L2.442-15.54 6.4-14.364 2.246-.38C2.056 .261 1.308 .388 0 0M-1.318 4.439C.383 4.945 1.978 4.908 3.464 4.33 5.121 3.722 6.195 2.591 6.686 .939L10.84-13.045 17.018-11.21 18.337-15.649-.679-21.297-6.151-2.874C-6.643-1.222-6.359 .311-5.304 1.726-4.349 3.029-3.021 3.934-1.318 4.439"/>
<path transform="matrix(1,0,0,-1,314.99513,106.47266)" d="M0 0C1.484 .758 2.98 .958 4.487 .601 6.075 .198 7.243-.738 7.991-2.204L15.78-17.467 11.655-19.572 3.866-4.309C3.574-3.736 2.987-3.675 2.104-4.125 1.223-4.575 .928-5.087 1.22-5.66L6.886-16.763C7.634-18.23 7.704-19.725 7.095-21.249 6.531-22.692 5.505-23.793 4.015-24.554 2.525-25.313 1.003-25.499-.554-25.109-2.11-24.719-3.264-23.791-4.012-22.324L-11.8-7.061-7.675-4.956 .13-20.251C.423-20.826 1.017-20.885 1.91-20.429 2.781-19.984 3.07-19.475 2.777-18.901L-2.9-7.775C-3.65-6.305-3.723-4.809-3.119-3.284-2.524-1.853-1.485-.757 0 0"/>
<path transform="matrix(1,0,0,-1,184.47986,356.12959)" d="M0 0C-94.583 0-171.259 76.675-171.259 171.259-171.259 265.842-94.583 342.517 0 342.517 42.199 342.517 80.824 327.244 110.674 301.937L73.338 271.39C52.62 286.625 27.038 295.633-.651 295.633-69.701 295.633-125.677 239.657-125.677 170.607-125.677 101.558-69.701 45.582-.651 45.582 68.398 45.582 124.374 101.558 124.374 170.607 124.374 198.402 115.296 224.072 99.955 244.831L130.236 282.449C155.807 252.529 171.259 213.702 171.259 171.259 171.259 76.675 94.583 0 0 0M78.543 224.094V205.837L59.548 185.803 34.755 192.035 46.787 204.353 37.26 199.592C36.945 199.594 35.857 199.662 33.389 200.517 31.466 201.182 30.784 201.567 30.592 201.691L30.509 201.808 30.392 201.89C30.269 202.082 29.884 202.765 29.219 204.686 28.366 207.151 28.292 208.232 28.295 208.557L33.06 218.088 20.737 206.053 14.505 230.845 34.54 249.841H52.805L111.755 298.073 124.048 295.307 126.936 284.211ZM66.5 71.713C65.795 71.232 65.085 70.759 64.37 70.294 65.085 70.759 65.795 71.232 66.5 71.713M69.43 73.777C68.726 73.265 68.017 72.76 67.304 72.265 68.017 72.76 68.726 73.265 69.43 73.777M72.815 76.321C71.912 75.614 70.997 74.924 70.077 74.245 70.998 74.924 71.912 75.614 72.815 76.321M75.426 78.428C74.567 77.717 73.702 77.015 72.827 76.33 73.702 77.015 74.567 77.717 75.426 78.428M78.017 80.64C77.415 80.112 76.807 79.592 76.196 79.076 76.807 79.591 77.415 80.112 78.017 80.64M80.651 83.021C80.065 82.476 79.477 81.937 78.882 81.406 79.477 81.937 80.065 82.476 80.651 83.021M87.14 89.526C86.069 88.368 84.979 87.222 83.857 86.1 83.052 85.295 82.236 84.507 81.413 83.729 82.236 84.507 83.052 85.295 83.857 86.1 84.979 87.222 86.069 88.368 87.14 89.526M90.597 93.424C89.626 92.281 88.635 91.151 87.617 90.039 88.635 91.151 89.626 92.281 90.597 93.424M93.965 97.571C93.043 96.381 92.093 95.208 91.122 94.049 92.093 95.208 93.043 96.381 93.965 97.571M97.124 101.831C96.215 100.545 95.273 99.278 94.311 98.024 95.273 99.278 96.215 100.545 97.124 101.831M99.777 105.763C98.919 104.44 98.041 103.129 97.129 101.838 98.041 103.129 98.92 104.44 99.777 105.763M102.48 110.134C101.71 108.826 100.916 107.531 100.094 106.25 100.916 107.531 101.71 108.826 102.48 110.134M105.053 114.728C104.331 113.367 103.579 112.022 102.803 110.688 103.579 112.022 104.331 113.367 105.053 114.728M107.374 119.343C106.683 117.888 105.957 116.449 105.205 115.022 105.957 116.449 106.683 117.888 107.374 119.343M107.375 119.345C104.391 119.96 95.842 122.687 78.691 134.793 47.906 156.524 46.442 176.41 47.64 185.007L43.238 186.113 60.736 181.715 82.219 204.372V222.798L96.373 240.382C110.962 220.185 118.861 196.01 118.861 170.607 118.861 152.578 114.893 135.16 107.375 119.345M5.44 51.249C4.723 51.213 4.005 51.19 3.286 51.167 4.005 51.19 4.723 51.213 5.44 51.249M8.479 51.439C7.804 51.388 7.126 51.349 6.448 51.31 7.126 51.349 7.804 51.388 8.479 51.439M11.511 51.706C10.827 51.637 10.142 51.58 9.456 51.523 10.142 51.58 10.827 51.637 11.511 51.706M14.531 52.049C13.833 51.961 13.134 51.883 12.433 51.808 13.134 51.884 13.833 51.96 14.531 52.049M17.542 52.468C16.826 52.359 16.107 52.26 15.388 52.164 16.107 52.26 16.826 52.359 17.542 52.468M20.54 52.963C19.803 52.832 19.064 52.71 18.324 52.593 19.064 52.71 19.803 52.831 20.54 52.963M23.529 53.535C22.768 53.379 22.006 53.233 21.242 53.093 22.006 53.234 22.769 53.379 23.529 53.535M26.503 54.183C25.718 54.002 24.93 53.83 24.14 53.664 24.93 53.83 25.718 54.001 26.503 54.183M29.459 54.907C28.65 54.698 27.839 54.499 27.025 54.307 27.839 54.499 28.65 54.698 29.459 54.907M32.399 55.708C31.568 55.47 30.734 55.242 29.897 55.023 30.734 55.242 31.568 55.47 32.399 55.708M35.321 56.585C34.468 56.317 33.611 56.059 32.751 55.81 33.611 56.059 34.468 56.317 35.321 56.585M38.22 57.538C37.346 57.238 36.468 56.948 35.586 56.669 36.468 56.949 37.346 57.238 38.22 57.538M41.095 58.565C40.203 58.233 39.307 57.912 38.407 57.602 39.307 57.912 40.203 58.233 41.095 58.565M43.942 59.666C43.035 59.302 42.124 58.949 41.208 58.607 42.124 58.949 43.035 59.302 43.942 59.666M34.512 96.374C30.883 111.796 25.396 126.328 29.303 158.886 31.499 177.19 34.107 184.792 35.97 187.94L42.119 186.395C41.028 180.248 36.085 150.239 39.722 130.235 46.273 94.199 57.399 73.738 60.824 68.065 61.778 68.64 62.724 69.232 63.664 69.834 57.417 65.83 50.834 62.439 43.991 59.686 44.917 60.058 45.839 60.443 46.755 60.838 44.65 65.229 38.729 78.453 34.512 96.374M-23.579 53.285C-24.596 53.481-25.61 53.69-26.619 53.912-25.61 53.69-24.596 53.482-23.579 53.285M-20.519 52.736C-21.376 52.879-22.23 53.032-23.083 53.193-22.23 53.032-21.376 52.879-20.519 52.736M-17.443 52.266C-18.221 52.375-18.997 52.492-19.772 52.616-18.997 52.492-18.221 52.375-17.443 52.266M-14.346 51.875C-15.078 51.958-15.809 52.047-16.538 52.144-15.809 52.047-15.078 51.958-14.346 51.875M-11.229 51.563C-11.934 51.624-12.638 51.69-13.341 51.764-12.638 51.69-11.934 51.625-11.229 51.563M-8.067 51.329C-8.764 51.372-9.46 51.417-10.155 51.471-9.46 51.417-8.764 51.372-8.067 51.329M-4.772 51.173C-5.51 51.198-6.247 51.225-6.982 51.263-6.247 51.225-5.51 51.198-4.772 51.173M-.651 51.095C.368 51.095 1.385 51.109 2.399 51.134 1.384 51.109 .368 51.095-.651 51.095-1.708 51.095-2.763 51.111-3.816 51.138-2.764 51.111-1.708 51.095-.651 51.095M29.928 197.914C30.009 197.878 30.098 197.841 30.186 197.804 30.098 197.841 30.009 197.878 29.928 197.914M29.399 198.161C29.473 198.125 29.549 198.088 29.629 198.05 29.549 198.088 29.473 198.125 29.399 198.161M28.849 198.453C28.946 198.397 29.047 198.34 29.158 198.282 29.047 198.34 28.946 198.397 28.849 198.453M28.457 198.701C28.52 198.657 28.591 198.612 28.662 198.567 28.59 198.612 28.52 198.657 28.457 198.701M28.17 198.919C28.223 198.875 28.28 198.831 28.34 198.785 28.28 198.831 28.223 198.875 28.17 198.919M27.69 199.387C27.756 199.313 27.822 199.244 27.887 199.185 27.946 199.12 28.015 199.055 28.088 198.989 28.014 199.055 27.946 199.12 27.887 199.185 27.822 199.244 27.756 199.313 27.69 199.387M27.482 199.646C27.531 199.579 27.579 199.517 27.627 199.461 27.579 199.517 27.531 199.579 27.482 199.646M27.233 200.015C27.294 199.916 27.353 199.825 27.411 199.742 27.353 199.825 27.294 199.916 27.233 200.015M26.979 200.465C27.051 200.328 27.121 200.2 27.189 200.085 27.121 200.2 27.051 200.328 26.979 200.465M26.739 200.955C26.791 200.844 26.842 200.737 26.892 200.637 26.842 200.737 26.791 200.843 26.739 200.955M26.455 201.602C26.518 201.45 26.58 201.304 26.641 201.168 26.58 201.304 26.518 201.45 26.455 201.602M-80.685 81.849C-81.202 82.316-81.711 82.792-82.22 83.269-81.711 82.792-81.202 82.316-80.685 81.849M-78.378 79.818C-78.854 80.227-79.325 80.645-79.795 81.062-79.325 80.645-78.854 80.227-78.378 79.818M-76.025 77.849C-76.495 78.232-76.959 78.623-77.423 79.013-76.959 78.623-76.494 78.232-76.025 77.849M-73.626 75.944C-74.099 76.31-74.567 76.683-75.035 77.056-74.567 76.683-74.099 76.31-73.626 75.944M-71.185 74.104C-71.664 74.457-72.141 74.814-72.615 75.174-72.141 74.815-71.664 74.457-71.185 74.104M-68.7 72.33C-69.188 72.669-69.674 73.014-70.158 73.362-69.674 73.014-69.188 72.669-68.7 72.33M-66.166 70.616C-66.668 70.947-67.169 71.281-67.667 71.62-67.169 71.281-66.669 70.947-66.166 70.616M-63.584 68.965C-64.106 69.289-64.626 69.617-65.143 69.95-64.626 69.617-64.106 69.289-63.584 68.965M-60.955 67.377C-61.499 67.696-62.042 68.018-62.582 68.346-62.042 68.018-61.499 67.696-60.955 67.377M-58.268 65.848C-58.842 66.165-59.415 66.484-59.984 66.811-59.415 66.484-58.842 66.165-58.268 65.848M-55.504 64.371C-56.122 64.69-56.739 65.012-57.351 65.343-56.739 65.012-56.122 64.69-55.504 64.371M-52.621 62.927C-53.312 63.261-54.002 63.598-54.687 63.946-54.002 63.598-53.312 63.261-52.621 62.927M-49.46 61.451C-50.307 61.83-51.149 62.218-51.987 62.617-51.149 62.218-50.307 61.83-49.46 61.451M-43.555 58.995C-45.476 59.733-47.377 60.521-49.257 61.358-47.377 60.521-45.476 59.733-43.555 58.995M-12.372 139.351C-2.296 158.783 24.2 190.251 30.532 197.659 31.003 197.468 31.545 197.265 32.187 197.043 32.818 196.825 33.41 196.638 33.961 196.483L27.658 190.03 35.607 188.032 30.421 189.335C22.807 178.711 8.52 157.693-3.256 134.142-19.149 102.356-25.86 59.096-26.623 53.913-32.404 55.188-38.061 56.885-43.555 58.995-42.833 62.697-36.458 92.904-12.372 139.351M-108.641 119.27C-109.042 120.112-109.432 120.958-109.812 121.809-109.432 120.958-109.042 120.112-108.641 119.27M-107.313 116.573C-107.661 117.259-108 117.95-108.335 118.643-108 117.95-107.661 117.259-107.313 116.573M-105.914 113.906C-106.246 114.519-106.568 115.137-106.889 115.756-106.568 115.137-106.246 114.519-105.914 113.906M-104.448 111.274C-104.775 111.844-105.094 112.418-105.412 112.994-105.094 112.418-104.775 111.844-104.448 111.274M-102.911 108.675C-103.24 109.216-103.563 109.76-103.883 110.306-103.563 109.761-103.24 109.216-102.911 108.675M-101.309 106.115C-101.642 106.633-101.97 107.153-102.295 107.676-101.97 107.153-101.642 106.633-101.309 106.115M-99.638 103.591C-99.977 104.089-100.312 104.59-100.643 105.092-100.312 104.59-99.977 104.089-99.638 103.591M-97.896 101.098C-98.244 101.584-98.59 102.071-98.93 102.561-98.59 102.071-98.244 101.584-97.896 101.098M-96.084 98.643C-96.444 99.118-96.802 99.595-97.154 100.074-96.802 99.595-96.444 99.118-96.084 98.643M-94.203 96.224C-94.576 96.691-94.948 97.16-95.314 97.632-94.948 97.16-94.576 96.691-94.203 96.224M-92.245 93.836C-92.636 94.3-93.026 94.764-93.409 95.234-93.026 94.764-92.636 94.3-92.245 93.836M-90.197 91.463C-90.614 91.934-91.032 92.404-91.44 92.88-91.032 92.404-90.614 91.934-90.197 91.463M-87.99 89.039C-88.466 89.548-88.943 90.057-89.409 90.573-88.943 90.057-88.466 89.548-87.99 89.039M-85.159 86.1C-84.429 85.37-83.69 84.651-82.944 83.942-83.69 84.651-84.429 85.369-85.159 86.1-85.889 86.83-86.608 87.569-87.317 88.314-86.608 87.569-85.889 86.83-85.159 86.1M-111.369 215.76C-110.994 216.68-110.608 217.595-110.209 218.505-110.608 217.595-110.994 216.68-111.369 215.76M-112.463 212.973C-112.138 213.833-111.802 214.687-111.457 215.539-111.802 214.687-112.138 213.832-112.463 212.973M-113.485 210.164C-113.199 210.983-112.903 211.797-112.599 212.608-112.903 211.797-113.199 210.982-113.485 210.164M-114.434 207.335C-114.183 208.117-113.922 208.896-113.654 209.673-113.922 208.897-114.183 208.117-114.434 207.335M-115.312 204.482C-115.091 205.235-114.861 205.984-114.625 206.732-114.861 205.984-115.091 205.235-115.312 204.482M-116.117 201.607C-115.923 202.335-115.722 203.06-115.514 203.784-115.722 203.06-115.923 202.335-116.117 201.607M-116.85 198.712C-116.681 199.419-116.505 200.124-116.323 200.827-116.505 200.124-116.681 199.419-116.85 198.712M-117.511 195.797C-117.364 196.485-117.212 197.172-117.053 197.857-117.212 197.172-117.364 196.485-117.511 195.797M-118.099 192.863C-117.973 193.535-117.843 194.205-117.706 194.874-117.843 194.206-117.973 193.535-118.099 192.863M-118.613 189.911C-118.507 190.568-118.398 191.224-118.281 191.878-118.398 191.224-118.507 190.568-118.613 189.911M-119.055 186.938C-118.967 187.583-118.878 188.228-118.78 188.87-118.878 188.228-118.967 187.583-119.055 186.938M-119.424 183.941C-119.353 184.578-119.282 185.216-119.202 185.851-119.282 185.216-119.353 184.578-119.424 183.941M-119.719 180.917C-119.665 181.552-119.611 182.188-119.547 182.821-119.611 182.188-119.665 181.552-119.719 180.917M-119.941 177.835C-119.902 178.484-119.865 179.134-119.816 179.781-119.865 179.134-119.902 178.484-119.941 177.835M-120.089 174.626C-120.066 175.328-120.043 176.031-120.008 176.732-120.043 176.031-120.066 175.328-120.089 174.626M-120.12 167.442C-120.148 168.495-120.163 169.55-120.163 170.607-120.163 171.632-120.15 172.654-120.124 173.674-120.15 172.654-120.163 171.632-120.163 170.607-120.163 169.55-120.148 168.495-120.12 167.442M-119.996 164.277C-120.034 165.012-120.061 165.749-120.085 166.486-120.061 165.749-120.034 165.012-119.996 164.277M-119.787 161.102C-119.842 161.797-119.887 162.495-119.93 163.193-119.887 162.495-119.842 161.797-119.787 161.102M-119.495 157.92C-119.569 158.622-119.635 159.326-119.696 160.031-119.634 159.326-119.569 158.622-119.495 157.92M-119.115 154.721C-119.211 155.449-119.3 156.179-119.383 156.91-119.3 156.179-119.211 155.449-119.115 154.721M-118.643 151.488C-118.766 152.262-118.884 153.037-118.992 153.815-118.884 153.038-118.767 152.262-118.643 151.488M-118.068 148.184C-118.228 149.033-118.38 149.885-118.523 150.739-118.38 149.885-118.228 149.033-118.068 148.184M-117.352 144.665C-117.572 145.665-117.778 146.669-117.973 147.676-117.778 146.669-117.572 145.665-117.352 144.665M-37.117 168.003C-13.585 179.769 7.419 194.043 18.052 201.662L18.732 198.956 25.185 205.259C25.34 204.707 25.527 204.116 25.745 203.484 25.975 202.82 26.186 202.257 26.382 201.775 18.94 195.415-12.493 168.954-31.907 158.886-78.354 134.801-108.562 128.426-112.264 127.704-111.526 125.782-110.738 123.881-109.9 122.001-113.132 129.257-115.625 136.833-117.346 144.635-112.162 145.398-68.903 152.11-37.117 168.003M-60.862 273.892C-58.028 275.551-55.133 277.091-52.18 278.504-55.133 277.091-58.028 275.55-60.862 273.892M-65.186 271.238C-63.872 272.084-62.543 272.903-61.2 273.695-62.543 272.903-63.872 272.084-65.186 271.238M-69.533 268.306C-68.233 269.227-66.913 270.115-65.581 270.98-66.913 270.115-68.233 269.226-69.533 268.306M-73.398 265.445C-72.137 266.416-70.862 267.364-69.568 268.281-70.862 267.364-72.137 266.416-73.398 265.445M-77.275 262.327C-76.107 263.305-74.926 264.264-73.727 265.194-74.926 264.264-76.107 263.305-77.275 262.327M-81.242 258.855C-80.134 259.869-79.008 260.858-77.869 261.826-79.009 260.858-80.134 259.869-81.242 258.855M-87.501 252.703C-86.732 253.515-85.953 254.321-85.159 255.115-84.046 256.228-82.91 257.309-81.762 258.372-82.91 257.309-84.046 256.228-85.159 255.115-85.953 254.321-86.732 253.515-87.501 252.703M-89.804 250.196C-89.266 250.797-88.72 251.392-88.169 251.984-88.72 251.392-89.266 250.797-89.804 250.196M-92.117 247.532C-91.586 248.161-91.048 248.786-90.503 249.406-91.048 248.786-91.586 248.161-92.117 247.532M-94.652 244.431C-94.005 245.25-93.346 246.062-92.676 246.868-93.346 246.062-94.005 245.251-94.652 244.431M-98.937 238.645C-97.601 240.566-96.208 242.455-94.753 244.305-96.207 242.454-97.601 240.567-98.937 238.645M-100.883 235.753C-100.288 236.665-99.68 237.571-99.058 238.468-99.68 237.57-100.288 236.666-100.883 235.753M-39.868 211.023C-19.797 207.374 9.304 212.364 15.093 213.432L13.789 218.617 17.135 205.307 16.418 208.162C14.103 205.929 7.415 202.84-11.216 200.605-43.775 196.698-58.306 202.185-73.729 205.814-93.209 210.398-107.138 216.995-110.205 218.515-107.627 224.406-104.563 230.089-101.038 235.516-101.658 234.561-102.265 233.599-102.856 232.629-98.637 229.977-77.952 217.948-39.868 211.023M13.356 220.341C4.907 219.078-15.162 220.25-37.117 251.353-47.581 266.177-51.035 274.571-52.177 278.505-36.293 286.105-18.781 290.12-.651 290.12 24.668 290.12 48.775 282.282 68.931 267.784L51.493 253.516H33.074L10.417 232.033ZM163.724 240.426C154.774 261.586 141.963 280.588 125.646 296.905 109.33 313.222 90.327 326.033 69.167 334.983 47.256 344.25 23.985 348.949 0 348.949-23.985 348.949-47.256 344.25-69.167 334.983-90.327 326.033-109.33 313.222-125.646 296.905-141.963 280.588-154.774 261.586-163.724 240.426-172.992 218.515-177.691 195.244-177.691 171.259-177.691 147.273-172.992 124.002-163.724 102.091-154.774 80.931-141.963 61.929-125.646 45.612-109.33 29.296-90.327 16.484-69.167 7.534-47.256-1.733-23.985-6.432 0-6.432 23.985-6.432 47.256-1.733 69.167 7.534 90.327 16.484 109.33 29.296 125.646 45.612 141.963 61.929 154.774 80.931 163.724 102.091 172.992 124.002 177.691 147.273 177.691 171.259 177.691 195.244 172.992 218.515 163.724 240.426"/>
<path transform="matrix(1,0,0,-1,229.01905,125.71802)" d="M0 0C0 0 2.747 2.84 14.206 11.034 26.386 19.745 31.109 23.817 34.634 20.101 38.007 16.543 32.127 8.998 25.615-.119 19.103-9.235 14.646-14.942 14.646-14.942Z"/>
</g>
</g>
</g>
</g>
</svg>