<svg xmlns="http://www.w3.org/2000/svg" viewBox="0 0 527.438 678.480" width="527.4" height="678.5">
<g transform="matrix(1 0 0 -1 -36.646 748.152)">
<path fill="#000000" fill-rule="evenodd" d="M121.603 191.809 C118.731 195.539 115.991 199.373 113.383 203.305 L210.207 203.305 C279.958 203.305 320.655 243.880 362.093 290.528 L436.053 368.986 L473.829 366.260 L473.836 366.230 L473.923 329.088 L373.795 242.343 C365.905 235.507 358.610 230.628 349.496 225.428 C295.362 194.536 253.081 191.809 211.201 191.809 L121.603 191.809 Z"/>
<path fill="#000000" fill-rule="evenodd" d="M90.266 250.767 C83.684 270.608 80.108 291.822 80.108 313.870 C80.108 347.162 88.246 378.553 102.622 406.180 L133.092 406.180 L133.092 406.180 C173.633 406.180 206.803 373.010 206.803 332.469 L206.803 324.354 C206.803 283.812 173.633 250.643 133.092 250.643 C131.768 250.643 130.456 250.681 129.150 250.750 L90.266 250.767 L90.266 250.767 ZM133.092 250.643 L133.092 250.643 Z"/>
<path fill="#000000" fill-rule="evenodd" d="M222.772 505.768 C233.221 508.906 244.030 511.212 255.121 512.611 L239.940 527.229 L222.772 505.768 L222.772 505.768 ZM255.124 512.607 L276.457 492.064 C275.492 455.702 275.696 412.766 275.327 371.665 C274.816 314.888 255.224 269.097 211.462 243.880 C194.651 234.194 180.876 232.384 161.400 232.384 L97.393 232.384 C95.711 236.156 94.143 239.989 92.690 243.880 L151.752 243.880 C165.069 243.880 179.444 250.045 187.615 256.660 C228.171 289.496 227.124 313.386 221.171 375.372 L220.745 379.808 L210.184 490.035 L222.753 505.745 C233.212 508.886 244.025 511.202 255.124 512.607 Z"/>
<path fill="#000000" fill-rule="evenodd" d="M184.392 224.269 L101.238 224.269 C103.786 219.183 106.539 214.219 109.496 209.391 L166.583 209.391 L207.073 209.391 C268.541 209.391 311.848 268.332 341.295 313.815 C342.957 316.384 344.576 318.909 346.151 321.379 L351.963 330.522 L424.556 444.727 L421.356 456.218 L409.679 498.150 L372.736 491.685 L355.579 488.683 L280.433 313.870 C263.491 274.638 244.132 239.916 205.374 228.823 C199.358 227.102 193.769 224.269 184.392 224.269 Z"/>
<path fill="#000000" fill-rule="evenodd" d="M141.646 183.694 L128.097 183.792 L133.562 177.657 C145.866 163.845 160.583 152.278 176.466 142.613 C179.940 140.499 183.485 138.486 187.091 136.583 C214.965 121.876 246.729 113.544 280.433 113.544 C319.322 113.544 355.627 124.632 386.358 143.818 C410.269 158.746 430.808 178.580 446.562 201.906 C448.073 204.145 449.431 206.082 450.656 207.778 C457.079 216.669 484.574 270.623 453.032 247.597 C428.089 229.389 402.680 213.623 376.090 201.903 C337.679 184.974 307.654 183.274 266.849 183.377 L141.646 183.694 Z"/>
<path fill="#000000" fill-rule="evenodd" d="M509.764 706.436 L435.376 609.056 L417.118 600.941 L419.823 607.703 L423.880 610.408 L423.880 616.495 L415.765 617.171 L414.412 611.761 L402.240 594.178 L390.068 591.473 L376.542 561.718 L380.600 526.553 L386.686 529.934 L392.096 550.222 L396.830 550.222 L398.182 546.164 L390.744 517.086 L403.593 510.999 L409.002 513.704 L425.909 502.884 L425.909 495.446 L438.081 487.331 L456.340 508.294 L462.426 508.294 L461.750 503.561 L449.578 489.359 L449.578 482.597 L480.009 496.122 L496.239 521.819 L495.563 540.754 L509.088 557.661 L507.735 563.747 L498.944 563.747 L498.944 559.689 L492.858 554.279 L490.829 577.272 L536.138 689.530 L528.699 707.789 L509.764 706.436 Z"/>
<path fill="#000000" fill-rule="evenodd" d="M552.497 748.152 L547.874 728.793 L564.085 718.842 L544.849 716.549 L539.922 697.255 L532.655 715.197 L513.399 713.223 L528.145 726.605 L521.171 744.679 L537.551 735.008 L552.497 748.152 Z"/>
<path fill="#000000" fill-rule="evenodd" d="M193.541 541.815 L191.468 546.470 L196.936 548.905 L204.821 531.193 C206.032 528.472 205.763 525.542 204.011 522.404 C202.260 519.266 199.547 516.878 195.871 515.242 L182.383 509.238 L180.550 513.354 L193.992 519.338 C196.179 520.312 197.798 521.726 198.847 523.581 C199.894 525.436 200.065 527.163 199.353 528.759 L195.357 537.732 L173.942 528.198 L172.124 532.280 L193.541 541.815 L193.541 541.815 ZM146.917 517.753 C144.857 516.467 143.426 514.819 142.626 512.809 C141.824 510.797 141.907 509.020 142.871 507.475 L146.923 500.992 C148.501 498.466 151.077 497.056 154.651 496.763 C158.225 496.470 161.719 497.392 165.131 499.523 L179.259 508.351 L176.891 512.141 L162.777 503.322 C160.859 502.124 158.889 501.560 156.878 501.640 C154.862 501.714 153.334 502.401 152.292 503.694 L173.779 517.120 L171.431 520.878 L149.943 507.452 L147.946 510.646 C147.634 511.147 147.610 511.720 147.874 512.365 C148.138 513.007 148.608 513.541 149.284 513.964 L168.319 525.858 L165.951 529.648 L146.917 517.753 L146.917 517.753 ZM117.209 495.141 L128.021 504.214 C129.907 505.797 131.929 506.658 134.089 506.800 C136.250 506.941 137.916 506.314 139.086 504.918 L144.001 499.061 C145.915 496.779 146.459 493.893 145.634 490.404 C144.807 486.914 142.839 483.865 139.732 481.258 L126.626 470.261 L123.754 473.685 L136.847 484.671 C138.578 486.124 139.731 487.830 140.289 489.777 C140.853 491.728 140.679 493.398 139.772 494.790 L126.717 483.835 C124.826 482.249 122.804 481.388 120.644 481.245 C118.476 481.099 116.819 481.716 115.662 483.094 L114.595 484.367 C113.424 485.762 113.095 487.512 113.609 489.615 C114.124 491.718 115.323 493.559 117.209 495.141 L117.209 495.141 ZM120.247 486.940 C120.612 486.507 121.152 486.317 121.867 486.370 C122.581 486.424 123.243 486.707 123.856 487.219 L136.923 498.185 L134.502 501.071 C134.122 501.523 133.579 501.718 132.871 501.654 C132.165 501.592 131.506 501.305 130.895 500.791 L120.082 491.718 C119.470 491.205 119.072 490.605 118.887 489.920 C118.702 489.236 118.799 488.666 119.178 488.214 L120.247 486.940 L120.247 486.940 ZM90.865 467.203 C89.218 465.373 88.287 463.383 88.070 461.229 C87.852 459.075 88.422 457.388 89.775 456.170 L98.668 448.163 C100.022 446.944 101.757 446.555 103.878 446.995 C105.998 447.437 107.881 448.570 109.528 450.399 L118.971 460.889 C120.618 462.717 121.550 464.708 121.766 466.863 C121.984 469.017 121.415 470.704 120.061 471.922 L114.380 477.037 C112.166 479.031 109.302 479.676 105.785 478.971 C102.268 478.267 99.153 476.407 96.438 473.393 L90.865 467.203 L90.865 467.203 ZM102.672 452.610 C103.112 452.215 103.677 452.099 104.369 452.260 C105.059 452.419 105.672 452.796 106.207 453.390 L115.652 463.880 C116.186 464.473 116.495 465.121 116.583 465.824 C116.670 466.529 116.495 467.080 116.056 467.475 L110.375 472.590 C109.059 473.776 107.359 474.153 105.281 473.720 C103.203 473.288 101.361 472.181 99.760 470.402 L94.186 464.212 C93.652 463.619 93.341 462.971 93.255 462.266 C93.166 461.562 93.342 461.012 93.780 460.617 L102.672 452.610 L102.672 452.610 ZM68.810 435.172 L73.100 442.312 C75.189 445.788 77.892 448.209 81.211 449.571 C84.528 450.933 87.464 450.848 90.017 449.313 L96.568 445.376 C98.131 444.437 99.011 442.890 99.209 440.735 C99.407 438.579 98.873 436.446 97.606 434.337 L90.336 422.238 C89.067 420.128 87.436 418.655 85.440 417.819 C83.444 416.981 81.665 417.032 80.102 417.971 L69.847 424.133 C68.286 425.071 67.404 426.619 67.207 428.774 C67.009 430.930 67.544 433.062 68.810 435.172 L68.810 435.172 ZM83.185 423.100 C83.692 422.796 84.269 422.789 84.917 423.079 C85.565 423.368 86.094 423.855 86.506 424.539 L93.775 436.638 C94.186 437.322 94.368 438.019 94.319 438.726 C94.271 439.435 93.994 439.940 93.486 440.245 L86.934 444.182 C85.416 445.095 83.675 445.141 81.719 444.319 C79.759 443.500 78.165 442.061 76.931 440.010 L72.642 432.870 C72.230 432.186 72.048 431.490 72.097 430.782 C72.145 430.073 72.423 429.568 72.928 429.263 L83.185 423.100 L83.185 423.100 ZM44.748 376.286 L48.637 389.853 C49.316 392.220 50.511 394.064 52.223 395.390 C53.935 396.715 55.667 397.126 57.417 396.624 L59.015 396.166 C60.742 395.670 61.981 394.408 62.730 392.377 C63.480 390.345 63.515 388.147 62.838 385.782 L58.149 369.433 C59.790 369.170 61.384 369.681 62.930 370.967 C64.476 372.254 65.563 373.984 66.186 376.157 L70.901 392.602 L75.197 391.370 L70.481 374.925 C69.363 371.026 67.378 367.989 64.527 365.814 C61.676 363.639 58.817 362.963 55.954 363.784 L48.604 365.891 C46.854 366.394 45.603 367.659 44.853 369.691 C44.104 371.722 44.069 373.919 44.748 376.286 L44.748 376.286 ZM53.890 370.655 L58.581 387.011 C58.800 387.779 58.787 388.492 58.544 389.166 C58.302 389.841 57.911 390.257 57.365 390.413 L55.768 390.872 C55.200 391.034 54.640 390.891 54.091 390.443 C53.539 389.996 53.156 389.397 52.935 388.630 L49.054 375.094 C48.835 374.326 48.842 373.616 49.071 372.944 C49.302 372.272 49.700 371.856 50.269 371.693 L53.890 370.655 L53.890 370.655 ZM37.376 335.490 L51.524 333.752 C53.283 333.537 54.891 334.202 56.346 335.748 C57.801 337.296 58.673 339.257 58.966 341.634 L59.980 349.901 C60.079 350.694 59.959 351.403 59.627 352.030 C59.295 352.657 58.837 353.007 58.250 353.079 L39.813 355.343 L40.543 361.283 L58.978 359.019 C60.788 358.798 62.221 357.743 63.278 355.853 C64.337 353.964 64.716 351.800 64.416 349.356 L63.400 341.089 C62.906 337.063 61.422 333.752 58.944 331.158 C56.468 328.564 53.752 327.449 50.794 327.813 L36.646 329.549 L37.376 335.490 L37.376 335.490 ZM36.836 308.372 C36.765 312.395 37.781 315.863 39.885 318.777 C41.989 321.691 44.530 323.173 47.509 323.225 L67.189 323.569 L67.293 317.584 L61.940 317.491 L62.349 294.051 L57.845 293.973 L57.434 317.412 L47.614 317.240 C45.865 317.210 44.373 316.328 43.135 314.593 C41.896 312.860 41.300 310.811 41.340 308.450 L41.598 293.689 L37.093 293.611 L36.836 308.372 L36.836 308.372 ZM64.785 289.890 L68.458 290.276 L68.993 285.167 L65.322 284.780 L64.785 289.890 L64.785 289.890 ZM38.047 287.080 L63.206 289.725 L63.742 284.614 L38.585 281.971 L38.047 287.080 L38.047 287.080 ZM49.349 277.866 L52.983 278.706 L59.883 248.817 L56.249 247.977 L49.349 277.866 L49.349 277.866 ZM50.623 215.983 L54.829 217.598 C55.329 216.295 56.002 215.502 56.849 215.222 L52.987 225.280 C51.556 229.076 51.325 232.700 52.293 236.154 C53.264 239.607 55.138 241.866 57.919 242.933 L65.125 245.700 C66.826 246.352 68.593 246.096 70.424 244.930 C72.257 243.762 73.614 242.031 74.496 239.733 L79.554 226.556 C80.436 224.258 80.587 222.064 80.006 219.970 C79.425 217.878 78.284 216.505 76.582 215.852 L60.172 209.552 C58.448 208.891 56.666 209.168 54.829 210.387 C52.989 211.604 51.588 213.468 50.623 215.983 L50.623 215.983 ZM74.437 221.439 C74.990 221.651 75.351 222.102 75.522 222.790 C75.693 223.479 75.635 224.196 75.348 224.942 L70.290 238.119 C70.004 238.864 69.566 239.436 68.980 239.833 C68.391 240.231 67.822 240.325 67.270 240.112 L60.064 237.347 C58.432 236.720 57.333 235.380 56.761 233.327 C56.192 231.274 56.335 229.129 57.194 226.894 L61.233 216.370 L74.437 221.439 L74.437 221.439 ZM87.652 200.987 L95.010 188.244 L98.880 190.479 L91.498 203.264 C89.486 206.749 86.833 209.202 83.541 210.622 C80.248 212.042 77.312 212.006 74.731 210.516 L62.387 203.389 L65.379 198.207 L77.724 205.333 C79.259 206.220 80.999 206.235 82.941 205.381 C84.885 204.525 86.457 203.060 87.652 200.987 L87.652 200.987 ZM95.833 154.524 L86.760 165.337 C85.179 167.223 84.316 169.245 84.174 171.406 C84.033 173.565 84.661 175.231 86.057 176.402 L87.331 177.471 C88.706 178.626 90.446 178.947 92.549 178.432 C94.652 177.918 96.494 176.718 98.075 174.833 L109.007 161.804 C110.144 163.018 110.611 164.624 110.410 166.626 C110.208 168.627 109.381 170.495 107.927 172.227 L96.932 185.332 L100.354 188.204 L111.351 175.099 C113.959 171.992 115.367 168.647 115.575 165.067 C115.782 161.487 114.746 158.739 112.463 156.825 L106.607 151.911 C105.212 150.739 103.462 150.411 101.360 150.926 C99.256 151.440 97.415 152.639 95.833 154.524 L95.833 154.524 ZM105.613 158.956 L94.676 171.991 C94.162 172.602 93.563 172.991 92.870 173.167 C92.174 173.343 91.610 173.250 91.178 172.886 L89.904 171.817 C89.451 171.438 89.256 170.895 89.320 170.187 C89.382 169.481 89.664 168.828 90.178 168.216 L99.229 157.429 C99.743 156.818 100.337 156.427 101.022 156.241 C101.708 156.056 102.275 156.154 102.728 156.535 L105.613 158.956 L105.613 158.956 ZM123.229 127.066 C125.058 125.419 127.049 124.488 129.202 124.270 C131.356 124.053 133.044 124.623 134.262 125.977 L146.691 139.781 L142.244 143.786 L129.814 129.982 C129.419 129.542 128.870 129.367 128.165 129.455 C127.461 129.542 126.812 129.853 126.218 130.387 L115.729 139.831 C115.136 140.366 114.759 140.979 114.600 141.670 C114.438 142.362 114.556 142.927 114.950 143.365 L127.379 157.170 L122.932 161.174 L110.502 147.369 C109.283 146.016 108.893 144.279 109.334 142.160 C109.776 140.040 110.911 138.157 112.738 136.511 L123.229 127.066 L123.229 127.066 ZM150.936 139.367 L153.107 142.354 L157.264 139.334 L155.092 136.346 L150.936 139.367 L150.936 139.367 ZM135.134 117.615 L150.002 138.081 L154.159 135.061 L139.291 114.595 L135.134 117.615 L135.134 117.615 ZM157.110 103.374 L169.764 95.771 L172.084 99.633 L159.430 107.237 C157.406 108.453 155.986 110.045 155.172 112.015 C154.357 113.983 154.400 115.716 155.298 117.215 L160.358 125.635 L180.455 113.561 L182.774 117.423 L162.679 129.497 L165.438 134.087 L160.306 137.169 L150.169 120.297 C148.635 117.743 148.546 114.804 149.901 111.476 C151.257 108.147 153.660 105.447 157.110 103.374 L157.110 103.374 ZM194.445 79.379 L196.134 83.557 C197.458 83.022 198.527 82.961 199.340 83.377 L189.259 87.450 C185.499 88.969 182.688 91.267 180.827 94.342 C178.968 97.416 178.597 100.335 179.712 103.097 L185.094 116.416 L190.642 114.174 L185.262 100.855 C184.606 99.234 184.836 97.515 185.948 95.698 C187.061 93.881 188.728 92.524 190.948 91.627 L201.400 87.404 L209.188 106.681 L214.737 104.439 L205.662 81.977 C204.970 80.266 203.553 79.152 201.408 78.639 C199.264 78.124 196.942 78.371 194.445 79.379 L194.445 79.379 ZM253.518 92.128 C251.143 92.419 249.028 92.048 247.175 91.009 C245.322 89.972 244.287 88.573 244.073 86.815 L242.335 72.666 L236.394 73.395 L238.131 87.543 C238.495 90.501 240.234 92.866 243.350 94.642 C246.466 96.417 250.021 97.060 254.014 96.570 L268.668 94.770 L268.123 90.335 L253.518 92.128 L253.518 92.128 ZM295.572 70.164 L281.466 69.672 C279.006 69.586 276.882 70.151 275.092 71.370 C273.302 72.588 272.377 74.108 272.313 75.928 L272.254 77.590 C272.192 79.386 273.010 80.954 274.710 82.295 C276.411 83.635 278.490 84.348 280.950 84.434 L297.948 85.028 C297.690 86.670 296.711 88.028 295.011 89.101 C293.310 90.175 291.327 90.672 289.068 90.593 L271.971 89.996 L271.817 94.463 L288.913 95.060 C292.967 95.201 296.469 94.251 299.419 92.211 C302.368 90.172 303.894 87.663 303.998 84.685 L304.264 77.044 C304.328 75.224 303.510 73.644 301.810 72.304 C300.111 70.963 298.030 70.250 295.572 70.164 L295.572 70.164 ZM298.101 80.600 L281.096 80.006 C280.298 79.978 279.624 79.744 279.059 79.306 C278.490 78.867 278.217 78.366 278.237 77.799 L278.295 76.138 C278.314 75.548 278.623 75.060 279.220 74.674 C279.814 74.288 280.503 74.109 281.301 74.138 L295.374 74.629 C296.171 74.657 296.846 74.884 297.413 75.310 C297.981 75.736 298.254 76.244 298.233 76.834 L298.101 80.600 L298.101 80.600 ZM325.574 74.032 C321.624 73.264 318.033 73.657 314.800 75.210 C311.569 76.765 309.668 79.004 309.099 81.928 L307.641 89.432 C307.293 91.221 307.854 92.909 309.323 94.499 C310.793 96.090 312.719 97.116 315.102 97.579 L335.274 101.501 L336.127 97.113 L315.954 93.192 C315.171 93.040 314.542 92.710 314.063 92.204 C313.586 91.697 313.404 91.155 313.517 90.574 L314.974 83.070 C315.312 81.330 316.443 80.007 318.364 79.102 C320.284 78.195 322.403 77.969 324.721 78.419 L339.214 81.236 L340.066 76.849 L325.574 74.032 L325.574 74.032 ZM338.818 104.829 L337.799 108.379 L342.738 109.796 L343.757 106.245 L338.818 104.829 L338.818 104.829 ZM346.227 78.985 L351.166 80.402 L344.193 104.719 L339.254 103.302 L346.227 78.985 L346.227 78.985 ZM381.274 91.899 L375.250 104.818 C374.501 106.425 373.084 107.435 371.002 107.850 C368.918 108.264 366.792 107.964 364.623 106.953 L357.075 103.433 C356.351 103.095 355.811 102.620 355.456 102.005 C355.100 101.392 355.046 100.817 355.296 100.281 L363.146 83.446 L357.723 80.917 L349.872 97.751 C349.102 99.403 349.238 101.177 350.279 103.075 C351.320 104.973 352.955 106.443 355.186 107.483 L362.735 111.003 C366.410 112.717 370.006 113.212 373.518 112.486 C377.030 111.760 379.415 110.048 380.673 107.347 L386.698 94.428 L381.274 91.899 L381.274 91.899 ZM415.307 104.070 C417.566 105.537 419.098 107.296 419.906 109.348 C420.716 111.398 420.618 113.199 419.611 114.748 L410.038 129.491 C409.046 131.019 407.466 131.849 405.298 131.982 C403.129 132.116 401.013 131.512 398.949 130.172 L387.112 122.484 C385.047 121.144 383.636 119.457 382.875 117.422 C382.116 115.387 382.232 113.606 383.224 112.078 L387.428 105.604 C389.051 103.105 391.651 101.741 395.229 101.511 C398.810 101.282 402.307 102.261 405.722 104.451 L414.758 110.318 C414.659 109.431 414.024 108.609 412.853 107.849 L415.307 104.070 L415.307 104.070 ZM405.019 126.231 L412.722 114.369 L403.267 108.230 C401.259 106.925 399.193 106.338 397.065 106.470 C394.940 106.600 393.399 107.397 392.447 108.864 L388.244 115.337 C387.921 115.833 387.894 116.409 388.161 117.068 C388.427 117.724 388.895 118.271 389.565 118.706 L401.404 126.393 C402.073 126.829 402.762 127.034 403.471 127.010 C404.181 126.986 404.697 126.727 405.019 126.231 L405.019 126.231 ZM440.303 138.423 L423.628 155.691 L427.611 159.537 L444.286 142.269 C444.713 141.827 445.267 141.660 445.947 141.768 C446.628 141.878 447.315 142.268 448.008 142.937 L451.137 139.696 C449.343 137.964 447.411 136.986 445.338 136.764 C443.264 136.542 441.585 137.095 440.303 138.423 L440.303 138.423 ZM463.014 168.052 C464.596 169.937 465.457 171.959 465.599 174.119 C465.740 176.280 465.122 177.938 463.745 179.093 L462.472 180.160 C461.077 181.333 459.328 181.661 457.226 181.145 C455.122 180.632 453.279 179.433 451.697 177.546 L442.625 166.735 C441.043 164.849 440.181 162.827 440.040 160.666 C439.899 158.506 440.525 156.840 441.922 155.669 L447.777 150.756 C450.060 148.840 452.946 148.296 456.435 149.123 C459.925 149.950 462.973 151.917 465.582 155.025 L476.577 168.130 L473.154 171.003 L462.158 157.897 C460.706 156.165 459.010 155.025 457.073 154.480 C455.137 153.934 453.473 154.115 452.082 155.024 L463.014 168.052 L463.014 168.052 ZM458.625 175.576 C458.173 175.956 457.603 176.054 456.919 175.869 C456.233 175.684 455.639 175.292 455.126 174.681 L446.075 163.894 C445.563 163.282 445.278 162.629 445.216 161.923 C445.153 161.215 445.349 160.673 445.802 160.293 L448.688 157.871 L459.625 170.906 C460.138 171.519 460.416 172.175 460.469 172.889 C460.521 173.605 460.332 174.144 459.898 174.508 L458.625 175.576 L458.625 175.576 ZM492.232 193.096 L485.173 180.872 C483.943 178.741 482.337 177.240 480.356 176.368 C478.374 175.496 476.594 175.516 475.018 176.426 L473.577 177.257 C472.021 178.157 471.123 179.681 470.889 181.833 C470.654 183.986 471.151 186.126 472.381 188.258 L480.885 202.986 C479.357 203.639 477.686 203.529 475.874 202.655 C474.062 201.782 472.591 200.365 471.461 198.407 L462.907 183.592 L459.037 185.826 L467.590 200.642 C469.618 204.155 472.279 206.621 475.574 208.042 C478.866 209.462 481.801 209.427 484.382 207.937 L491.003 204.115 C492.580 203.204 493.488 201.673 493.724 199.520 C493.959 197.368 493.462 195.227 492.232 193.096 L492.232 193.096 ZM484.723 200.771 L487.986 198.887 C488.496 198.592 488.784 198.093 488.844 197.385 C488.905 196.677 488.740 195.985 488.341 195.294 L481.300 183.099 C480.900 182.408 480.384 181.919 479.741 181.619 C479.098 181.317 478.521 181.314 478.009 181.609 L476.570 182.440 C476.079 182.724 475.800 183.222 475.728 183.936 C475.655 184.648 475.815 185.343 476.214 186.035 L484.723 200.771 L484.723 200.771 ZM513.649 225.596 C514.614 228.111 514.820 230.435 514.270 232.570 C513.718 234.706 512.580 236.104 510.856 236.766 L494.444 243.065 C492.744 243.718 490.978 243.461 489.145 242.295 C487.313 241.128 485.955 239.396 485.074 237.099 L480.015 223.921 C479.134 221.623 478.982 219.429 479.563 217.335 C480.146 215.242 481.285 213.870 482.987 213.217 L490.192 210.450 C492.974 209.384 495.881 209.808 498.911 211.725 C501.940 213.643 504.194 216.492 505.670 220.271 L509.532 230.329 C509.972 229.553 509.943 228.513 509.443 227.211 L513.649 225.596 L513.649 225.596 ZM492.301 237.477 L505.505 232.409 L501.464 221.885 C500.608 219.650 499.279 217.959 497.481 216.815 C495.684 215.671 493.970 215.411 492.337 216.038 L485.132 218.804 C484.580 219.017 484.219 219.467 484.048 220.156 C483.877 220.844 483.935 221.562 484.221 222.307 L489.280 235.484 C489.567 236.230 490.003 236.801 490.590 237.198 C491.178 237.596 491.748 237.690 492.301 237.477 L492.301 237.477 ZM519.469 265.429 L516.294 251.676 C515.739 249.277 514.644 247.372 513.004 245.959 C511.364 244.546 509.656 244.045 507.880 244.454 L489.781 248.634 L491.127 254.464 L509.227 250.286 C509.803 250.154 510.352 250.325 510.880 250.802 C511.407 251.276 511.759 251.903 511.939 252.681 L515.114 266.434 C515.294 267.212 515.252 267.930 514.986 268.587 C514.722 269.247 514.302 269.642 513.726 269.775 L495.626 273.954 L496.972 279.785 L515.073 275.607 C516.848 275.197 518.163 273.998 519.017 272.008 C519.872 270.019 520.022 267.827 519.469 265.429 L519.469 265.429 ZM513.590 304.212 L512.403 287.246 C514.062 287.330 515.516 288.161 516.762 289.740 C518.008 291.320 518.709 293.239 518.865 295.494 L520.061 312.560 L524.518 312.248 L523.325 295.182 C523.041 291.136 521.732 287.751 519.395 285.031 C517.057 282.312 514.403 281.056 511.431 281.264 L503.805 281.797 C501.987 281.924 500.501 282.902 499.346 284.733 C498.190 286.565 497.697 288.707 497.870 291.162 L498.854 305.243 C499.027 307.698 499.811 309.750 501.210 311.403 C502.609 313.055 504.217 313.817 506.035 313.691 L507.692 313.575 C509.485 313.449 510.960 312.472 512.114 310.640 C513.270 308.809 513.762 306.668 513.590 304.212 L513.590 304.212 ZM505.617 307.721 C505.028 307.761 504.511 307.506 504.064 306.953 C503.618 306.402 503.368 305.736 503.313 304.939 L502.331 290.892 C502.275 290.096 502.430 289.400 502.794 288.793 C503.159 288.184 503.636 287.859 504.225 287.818 L507.983 287.556 L509.170 304.530 C509.226 305.327 509.065 306.021 508.687 306.630 C508.310 307.240 507.840 307.565 507.275 307.604 L505.617 307.721 Z"/>
</g></svg>