<svg xmlns="http://www.w3.org/2000/svg" viewBox="0 0 320 180" width="320" height="180"><rect x="6" y="6" width="308" height="168" rx="12" fill="#f2f4f7" stroke="#b6bec9" stroke-width="2.5" stroke-dasharray="10 7"/><path d="M91.06298828125 65.3818359375H112.37060546875V71.349609375H98.95849609375V77.05078125H111.57080078125V83.0185546875H98.95849609375V96.0H91.06298828125ZM120.34814453125 65.3818359375H139.97412109375V71.185546875H126.64404296875V75.9228515625Q127.54638671875 75.6767578125 128.458984375 75.54345703125Q129.37158203125 75.41015625 130.35595703125 75.41015625Q135.95458984375 75.41015625 139.07177734375 78.20947265625Q142.18896484375 81.0087890625 142.18896484375 86.0126953125Q142.18896484375 90.9755859375 138.794921875 93.78515625Q135.40087890625 96.5947265625 129.37158203125 96.5947265625Q126.76708984375 96.5947265625 124.2138671875 96.09228515625Q121.66064453125 95.58984375 119.13818359375 94.564453125V88.3505859375Q121.64013671875 89.7861328125 123.8857421875 90.50390625Q126.13134765625 91.2216796875 128.12060546875 91.2216796875Q130.99169921875 91.2216796875 132.642578125 89.81689453125Q134.29345703125 88.412109375 134.29345703125 86.0126953125Q134.29345703125 83.5927734375 132.642578125 82.1982421875Q130.99169921875 80.8037109375 128.12060546875 80.8037109375Q126.41845703125 80.8037109375 124.49072265625 81.24462890625Q122.56298828125 81.685546875 120.34814453125 82.6083984375ZM164.43994140625 80.66015625Q164.43994140625 74.91796875 163.36328125 72.56982421875Q162.28662109375 70.2216796875 159.74365234375 70.2216796875Q157.20068359375 70.2216796875 156.11376953125 72.56982421875Q155.02685546875 74.91796875 155.02685546875 80.66015625Q155.02685546875 86.4638671875 156.11376953125 88.8427734375Q157.20068359375 91.2216796875 159.74365234375 91.2216796875Q162.26611328125 91.2216796875 163.35302734375 88.8427734375Q164.43994140625 86.4638671875 164.43994140625 80.66015625ZM172.33544921875 80.7216796875Q172.33544921875 88.330078125 169.05419921875 92.46240234375Q165.77294921875 96.5947265625 159.74365234375 96.5947265625Q153.69384765625 96.5947265625 150.41259765625 92.46240234375Q147.13134765625 88.330078125 147.13134765625 80.7216796875Q147.13134765625 73.0927734375 150.41259765625 68.96044921875Q153.69384765625 64.828125 159.74365234375 64.828125Q165.77294921875 64.828125 169.05419921875 68.96044921875Q172.33544921875 73.0927734375 172.33544921875 80.7216796875ZM193.66357421875 80.66015625Q193.66357421875 74.91796875 192.5869140625 72.56982421875Q191.51025390625 70.2216796875 188.96728515625 70.2216796875Q186.42431640625 70.2216796875 185.33740234375 72.56982421875Q184.25048828125 74.91796875 184.25048828125 80.66015625Q184.25048828125 86.4638671875 185.33740234375 88.8427734375Q186.42431640625 91.2216796875 188.96728515625 91.2216796875Q191.48974609375 91.2216796875 192.57666015625 88.8427734375Q193.66357421875 86.4638671875 193.66357421875 80.66015625ZM201.55908203125 80.7216796875Q201.55908203125 88.330078125 198.27783203125 92.46240234375Q194.99658203125 96.5947265625 188.96728515625 96.5947265625Q182.91748046875 96.5947265625 179.63623046875 92.46240234375Q176.35498046875 88.330078125 176.35498046875 80.7216796875Q176.35498046875 73.0927734375 179.63623046875 68.96044921875Q182.91748046875 64.828125 188.96728515625 64.828125Q194.99658203125 64.828125 198.27783203125 68.96044921875Q201.55908203125 73.0927734375 201.55908203125 80.7216796875ZM222.88720703125 80.66015625Q222.88720703125 74.91796875 221.810546875 72.56982421875Q220.73388671875 70.2216796875 218.19091796875 70.2216796875Q215.64794921875 70.2216796875 214.56103515625 72.56982421875Q213.47412109375 74.91796875 213.47412109375 80.66015625Q213.47412109375 86.4638671875 214.56103515625 88.8427734375Q215.64794921875 91.2216796875 218.19091796875 91.2216796875Q220.71337890625 91.2216796875 221.80029296875 88.8427734375Q222.88720703125 86.4638671875 222.88720703125 80.66015625ZM230.78271484375 80.7216796875Q230.78271484375 88.330078125 227.50146484375 92.46240234375Q224.22021484375 96.5947265625 218.19091796875 96.5947265625Q212.14111328125 96.5947265625 208.85986328125 92.46240234375Q205.57861328125 88.330078125 205.57861328125 80.7216796875Q205.57861328125 73.0927734375 208.85986328125 68.96044921875Q212.14111328125 64.828125 218.19091796875 64.828125Q224.22021484375 64.828125 227.50146484375 68.96044921875Q230.78271484375 73.0927734375 230.78271484375 80.7216796875Z" fill="#9aa3af"/><path d="M65.0576171875 111.251953125H66.2529296875L68.0927734375 118.646484375L69.9267578125 111.251953125H71.2568359375L73.0966796875 118.646484375L74.9306640625 111.251953125H76.1318359375L73.9345703125 120.0H72.4462890625L70.6005859375 112.40625L68.7373046875 120.0H67.2490234375ZM77.6552734375 113.4375H78.7333984375V120.0H77.6552734375ZM77.6552734375 110.8828125H78.7333984375V112.248046875H77.6552734375ZM82.0322265625 119.015625V122.49609375H80.9482421875V113.4375H82.0322265625V114.43359375Q82.3720703125 113.84765625 82.890625 113.5634765625Q83.4091796875 113.279296875 84.1298828125 113.279296875Q85.3251953125 113.279296875 86.072265625 114.228515625Q86.8193359375 115.177734375 86.8193359375 116.724609375Q86.8193359375 118.271484375 86.072265625 119.220703125Q85.3251953125 120.169921875 84.1298828125 120.169921875Q83.4091796875 120.169921875 82.890625 119.8857421875Q82.3720703125 119.6015625 82.0322265625 119.015625ZM85.7001953125 116.724609375Q85.7001953125 115.53515625 85.2109375 114.8583984375Q84.7216796875 114.181640625 83.8662109375 114.181640625Q83.0107421875 114.181640625 82.521484375 114.8583984375Q82.0322265625 115.53515625 82.0322265625 116.724609375Q82.0322265625 117.9140625 82.521484375 118.5908203125Q83.0107421875 119.267578125 83.8662109375 119.267578125Q84.7216796875 119.267578125 85.2109375 118.5908203125Q85.7001953125 117.9140625 85.7001953125 116.724609375ZM88.6533203125 111.251953125H94.1845703125V112.248046875H89.8369140625V114.837890625H94.0029296875V115.833984375H89.8369140625V119.00390625H94.2900390625V120.0H88.6533203125ZM98.7314453125 114.193359375Q97.8642578125 114.193359375 97.3603515625 114.8701171875Q96.8564453125 115.546875 96.8564453125 116.724609375Q96.8564453125 117.90234375 97.357421875 118.5791015625Q97.8583984375 119.255859375 98.7314453125 119.255859375Q99.5927734375 119.255859375 100.0966796875 118.576171875Q100.6005859375 117.896484375 100.6005859375 116.724609375Q100.6005859375 115.55859375 100.0966796875 114.8759765625Q99.5927734375 114.193359375 98.7314453125 114.193359375ZM98.7314453125 113.279296875Q100.1376953125 113.279296875 100.9404296875 114.193359375Q101.7431640625 115.107421875 101.7431640625 116.724609375Q101.7431640625 118.3359375 100.9404296875 119.2529296875Q100.1376953125 120.169921875 98.7314453125 120.169921875Q97.3193359375 120.169921875 96.51953125 119.2529296875Q95.7197265625 118.3359375 95.7197265625 116.724609375Q95.7197265625 115.107421875 96.51953125 114.193359375Q97.3193359375 113.279296875 98.7314453125 113.279296875ZM103.4189453125 117.41015625V113.4375H104.4970703125V117.369140625Q104.4970703125 118.30078125 104.8603515625 118.7666015625Q105.2236328125 119.232421875 105.9501953125 119.232421875Q106.8232421875 119.232421875 107.330078125 118.67578125Q107.8369140625 118.119140625 107.8369140625 117.158203125V113.4375H108.9150390625V120.0H107.8369140625V118.9921875Q107.4443359375 119.58984375 106.92578125 119.8798828125Q106.4072265625 120.169921875 105.7216796875 120.169921875Q104.5908203125 120.169921875 104.0048828125 119.466796875Q103.4189453125 118.763671875 103.4189453125 117.41015625ZM106.1318359375 113.279296875ZM112.2021484375 111.57421875V113.4375H114.4228515625V114.275390625H112.2021484375V117.837890625Q112.2021484375 118.640625 112.421875 118.869140625Q112.6416015625 119.09765625 113.3154296875 119.09765625H114.4228515625V120.0H113.3154296875Q112.0673828125 120.0 111.5927734375 119.5341796875Q111.1181640625 119.068359375 111.1181640625 117.837890625V114.275390625H110.3271484375V113.4375H111.1181640625V111.57421875ZM120.8271484375 119.00390625H124.9580078125V120.0H119.4033203125V119.00390625Q120.0771484375 118.306640625 121.240234375 117.1318359375Q122.4033203125 115.95703125 122.7021484375 115.6171875Q123.2705078125 114.978515625 123.49609375 114.5361328125Q123.7216796875 114.09375 123.7216796875 113.666015625Q123.7216796875 112.96875 123.232421875 112.529296875Q122.7431640625 112.08984375 121.9580078125 112.08984375Q121.4013671875 112.08984375 120.783203125 112.283203125Q120.1650390625 112.4765625 119.4619140625 112.869140625V111.673828125Q120.1767578125 111.38671875 120.7978515625 111.240234375Q121.4189453125 111.09375 121.9345703125 111.09375Q123.2939453125 111.09375 124.1025390625 111.7734375Q124.9111328125 112.453125 124.9111328125 113.58984375Q124.9111328125 114.12890625 124.708984375 114.6123046875Q124.5068359375 115.095703125 123.9736328125 115.751953125Q123.8271484375 115.921875 123.0419921875 116.7333984375Q122.2568359375 117.544921875 120.8271484375 119.00390625ZM129.9736328125 112.03125Q129.0595703125 112.03125 128.599609375 112.9306640625Q128.1396484375 113.830078125 128.1396484375 115.634765625Q128.1396484375 117.43359375 128.599609375 118.3330078125Q129.0595703125 119.232421875 129.9736328125 119.232421875Q130.8935546875 119.232421875 131.353515625 118.3330078125Q131.8134765625 117.43359375 131.8134765625 115.634765625Q131.8134765625 113.830078125 131.353515625 112.9306640625Q130.8935546875 112.03125 129.9736328125 112.03125ZM129.9736328125 111.09375Q131.4443359375 111.09375 132.220703125 112.2568359375Q132.9970703125 113.419921875 132.9970703125 115.634765625Q132.9970703125 117.84375 132.220703125 119.0068359375Q131.4443359375 120.169921875 129.9736328125 120.169921875Q128.5029296875 120.169921875 127.7265625 119.0068359375Q126.9501953125 117.84375 126.9501953125 115.634765625Q126.9501953125 113.419921875 127.7265625 112.2568359375Q128.5029296875 111.09375 129.9736328125 111.09375ZM135.1123046875 119.818359375V118.740234375Q135.5576171875 118.951171875 136.0146484375 119.0625Q136.4716796875 119.173828125 136.9111328125 119.173828125Q138.0830078125 119.173828125 138.701171875 118.3857421875Q139.3193359375 117.59765625 139.4072265625 115.9921875Q139.0673828125 116.49609375 138.5458984375 116.765625Q138.0244140625 117.03515625 137.3916015625 117.03515625Q136.0791015625 117.03515625 135.314453125 116.2412109375Q134.5498046875 115.447265625 134.5498046875 114.0703125Q134.5498046875 112.72265625 135.3466796875 111.908203125Q136.1435546875 111.09375 137.4677734375 111.09375Q138.9853515625 111.09375 139.78515625 112.2568359375Q140.5849609375 113.419921875 140.5849609375 115.634765625Q140.5849609375 117.703125 139.603515625 118.9365234375Q138.6220703125 120.169921875 136.9638671875 120.169921875Q136.5185546875 120.169921875 136.0615234375 120.08203125Q135.6044921875 119.994140625 135.1123046875 119.818359375ZM137.4677734375 116.109375Q138.2646484375 116.109375 138.73046875 115.564453125Q139.1962890625 115.01953125 139.1962890625 114.0703125Q139.1962890625 113.126953125 138.73046875 112.5791015625Q138.2646484375 112.03125 137.4677734375 112.03125Q136.6708984375 112.03125 136.205078125 112.5791015625Q135.7392578125 113.126953125 135.7392578125 114.0703125Q135.7392578125 115.01953125 136.205078125 115.564453125Q136.6708984375 116.109375 137.4677734375 116.109375ZM142.4130859375 111.251953125H148.0380859375V111.755859375L144.8623046875 120.0H143.6259765625L146.6142578125 112.248046875H142.4130859375ZM154.1611328125 115.08984375H155.3974609375V116.578125H154.1611328125ZM164.6201171875 116.701171875Q163.3134765625 116.701171875 162.8095703125 117.0Q162.3056640625 117.298828125 162.3056640625 118.01953125Q162.3056640625 118.59375 162.68359375 118.9306640625Q163.0615234375 119.267578125 163.7119140625 119.267578125Q164.6083984375 119.267578125 165.150390625 118.6318359375Q165.6923828125 117.99609375 165.6923828125 116.94140625V116.701171875ZM166.7705078125 116.255859375V120.0H165.6923828125V119.00390625Q165.3232421875 119.6015625 164.7724609375 119.8857421875Q164.2216796875 120.169921875 163.4248046875 120.169921875Q162.4169921875 120.169921875 161.822265625 119.6044921875Q161.2275390625 119.0390625 161.2275390625 118.08984375Q161.2275390625 116.982421875 161.96875 116.419921875Q162.7099609375 115.857421875 164.1806640625 115.857421875H165.6923828125V115.751953125Q165.6923828125 115.0078125 165.203125 114.6005859375Q164.7138671875 114.193359375 163.8291015625 114.193359375Q163.2666015625 114.193359375 162.7333984375 114.328125Q162.2001953125 114.462890625 161.7080078125 114.732421875V113.736328125Q162.2998046875 113.5078125 162.8564453125 113.3935546875Q163.4130859375 113.279296875 163.9404296875 113.279296875Q165.3642578125 113.279296875 166.0673828125 114.017578125Q166.7705078125 114.755859375 166.7705078125 116.255859375ZM172.7939453125 114.4453125Q172.6123046875 114.33984375 172.3984375 114.2900390625Q172.1845703125 114.240234375 171.9267578125 114.240234375Q171.0126953125 114.240234375 170.5234375 114.8349609375Q170.0341796875 115.4296875 170.0341796875 116.54296875V120.0H168.9501953125V113.4375H170.0341796875V114.45703125Q170.3740234375 113.859375 170.9189453125 113.5693359375Q171.4638671875 113.279296875 172.2431640625 113.279296875Q172.3544921875 113.279296875 172.4892578125 113.2939453125Q172.6240234375 113.30859375 172.7880859375 113.337890625ZM174.9912109375 111.57421875V113.4375H177.2119140625V114.275390625H174.9912109375V117.837890625Q174.9912109375 118.640625 175.2109375 118.869140625Q175.4306640625 119.09765625 176.1044921875 119.09765625H177.2119140625V120.0H176.1044921875Q174.8564453125 120.0 174.3818359375 119.5341796875Q173.9072265625 119.068359375 173.9072265625 117.837890625V114.275390625H173.1162109375V113.4375H173.9072265625V111.57421875ZM178.0029296875 113.4375H179.0810546875L180.4287109375 118.55859375L181.7705078125 113.4375H183.0419921875L184.3896484375 118.55859375L185.7314453125 113.4375H186.8095703125L185.0927734375 120.0H183.8212890625L182.4091796875 114.62109375L180.9912109375 120.0H179.7197265625ZM190.9873046875 114.193359375Q190.1201171875 114.193359375 189.6162109375 114.8701171875Q189.1123046875 115.546875 189.1123046875 116.724609375Q189.1123046875 117.90234375 189.61328125 118.5791015625Q190.1142578125 119.255859375 190.9873046875 119.255859375Q191.8486328125 119.255859375 192.3525390625 118.576171875Q192.8564453125 117.896484375 192.8564453125 116.724609375Q192.8564453125 115.55859375 192.3525390625 114.8759765625Q191.8486328125 114.193359375 190.9873046875 114.193359375ZM190.9873046875 113.279296875Q192.3935546875 113.279296875 193.1962890625 114.193359375Q193.9990234375 115.107421875 193.9990234375 116.724609375Q193.9990234375 118.3359375 193.1962890625 119.2529296875Q192.3935546875 120.169921875 190.9873046875 120.169921875Q189.5751953125 120.169921875 188.775390625 119.2529296875Q187.9755859375 118.3359375 187.9755859375 116.724609375Q187.9755859375 115.107421875 188.775390625 114.193359375Q189.5751953125 113.279296875 190.9873046875 113.279296875ZM199.5888671875 114.4453125Q199.4072265625 114.33984375 199.193359375 114.2900390625Q198.9794921875 114.240234375 198.7216796875 114.240234375Q197.8076171875 114.240234375 197.318359375 114.8349609375Q196.8291015625 115.4296875 196.8291015625 116.54296875V120.0H195.7451171875V113.4375H196.8291015625V114.45703125Q197.1689453125 113.859375 197.7138671875 113.5693359375Q198.2587890625 113.279296875 199.0380859375 113.279296875Q199.1494140625 113.279296875 199.2841796875 113.2939453125Q199.4189453125 113.30859375 199.5830078125 113.337890625ZM200.6787109375 110.8828125H201.7626953125V116.267578125L204.9794921875 113.4375H206.3564453125L202.8759765625 116.5078125L206.5029296875 120.0H205.0966796875L201.7626953125 116.794921875V120.0H200.6787109375ZM216.9384765625 116.0390625V120.0H215.8603515625V116.07421875Q215.8603515625 115.142578125 215.4970703125 114.6796875Q215.1337890625 114.216796875 214.4072265625 114.216796875Q213.5341796875 114.216796875 213.0302734375 114.7734375Q212.5263671875 115.330078125 212.5263671875 116.291015625V120.0H211.4423828125V113.4375H212.5263671875V114.45703125Q212.9130859375 113.865234375 213.4375 113.572265625Q213.9619140625 113.279296875 214.6474609375 113.279296875Q215.7783203125 113.279296875 216.3583984375 113.9794921875Q216.9384765625 114.6796875 216.9384765625 116.0390625ZM224.7021484375 116.44921875V116.9765625H219.7451171875Q219.8154296875 118.08984375 220.416015625 118.6728515625Q221.0166015625 119.255859375 222.0888671875 119.255859375Q222.7099609375 119.255859375 223.29296875 119.103515625Q223.8759765625 118.951171875 224.4501953125 118.646484375V119.666015625Q223.8701171875 119.912109375 223.2607421875 120.041015625Q222.6513671875 120.169921875 222.0244140625 120.169921875Q220.4541015625 120.169921875 219.537109375 119.255859375Q218.6201171875 118.341796875 218.6201171875 116.783203125Q218.6201171875 115.171875 219.490234375 114.2255859375Q220.3603515625 113.279296875 221.8369140625 113.279296875Q223.1611328125 113.279296875 223.931640625 114.1318359375Q224.7021484375 114.984375 224.7021484375 116.44921875ZM223.6240234375 116.1328125Q223.6123046875 115.248046875 223.12890625 114.720703125Q222.6455078125 114.193359375 221.8486328125 114.193359375Q220.9462890625 114.193359375 220.404296875 114.703125Q219.8623046875 115.212890625 219.7802734375 116.138671875ZM232.0849609375 116.44921875V116.9765625H227.1279296875Q227.1982421875 118.08984375 227.798828125 118.6728515625Q228.3994140625 119.255859375 229.4716796875 119.255859375Q230.0927734375 119.255859375 230.67578125 119.103515625Q231.2587890625 118.951171875 231.8330078125 118.646484375V119.666015625Q231.2529296875 119.912109375 230.6435546875 120.041015625Q230.0341796875 120.169921875 229.4072265625 120.169921875Q227.8369140625 120.169921875 226.919921875 119.255859375Q226.0029296875 118.341796875 226.0029296875 116.783203125Q226.0029296875 115.171875 226.873046875 114.2255859375Q227.7431640625 113.279296875 229.2197265625 113.279296875Q230.5439453125 113.279296875 231.314453125 114.1318359375Q232.0849609375 114.984375 232.0849609375 116.44921875ZM231.0068359375 116.1328125Q230.9951171875 115.248046875 230.51171875 114.720703125Q230.0283203125 114.193359375 229.2314453125 114.193359375Q228.3291015625 114.193359375 227.787109375 114.703125Q227.2451171875 115.212890625 227.1630859375 116.138671875ZM238.1728515625 114.43359375V110.8828125H239.2509765625V120.0H238.1728515625V119.015625Q237.8330078125 119.6015625 237.314453125 119.8857421875Q236.7958984375 120.169921875 236.0693359375 120.169921875Q234.8798828125 120.169921875 234.1328125 119.220703125Q233.3857421875 118.271484375 233.3857421875 116.724609375Q233.3857421875 115.177734375 234.1328125 114.228515625Q234.8798828125 113.279296875 236.0693359375 113.279296875Q236.7958984375 113.279296875 237.314453125 113.5634765625Q237.8330078125 113.84765625 238.1728515625 114.43359375ZM234.4990234375 116.724609375Q234.4990234375 117.9140625 234.98828125 118.5908203125Q235.4775390625 119.267578125 236.3330078125 119.267578125Q237.1884765625 119.267578125 237.6806640625 118.5908203125Q238.1728515625 117.9140625 238.1728515625 116.724609375Q238.1728515625 115.53515625 237.6806640625 114.8583984375Q237.1884765625 114.181640625 236.3330078125 114.181640625Q235.4775390625 114.181640625 234.98828125 114.8583984375Q234.4990234375 115.53515625 234.4990234375 116.724609375ZM247.0849609375 116.44921875V116.9765625H242.1279296875Q242.1982421875 118.08984375 242.798828125 118.6728515625Q243.3994140625 119.255859375 244.4716796875 119.255859375Q245.0927734375 119.255859375 245.67578125 119.103515625Q246.2587890625 118.951171875 246.8330078125 118.646484375V119.666015625Q246.2529296875 119.912109375 245.6435546875 120.041015625Q245.0341796875 120.169921875 244.4072265625 120.169921875Q242.8369140625 120.169921875 241.919921875 119.255859375Q241.0029296875 118.341796875 241.0029296875 116.783203125Q241.0029296875 115.171875 241.873046875 114.2255859375Q242.7431640625 113.279296875 244.2197265625 113.279296875Q245.5439453125 113.279296875 246.314453125 114.1318359375Q247.0849609375 114.984375 247.0849609375 116.44921875ZM246.0068359375 116.1328125Q245.9951171875 115.248046875 245.51171875 114.720703125Q245.0283203125 114.193359375 244.2314453125 114.193359375Q243.3291015625 114.193359375 242.787109375 114.703125Q242.2451171875 115.212890625 242.1630859375 116.138671875ZM253.1728515625 114.43359375V110.8828125H254.2509765625V120.0H253.1728515625V119.015625Q252.8330078125 119.6015625 252.314453125 119.8857421875Q251.7958984375 120.169921875 251.0693359375 120.169921875Q249.8798828125 120.169921875 249.1328125 119.220703125Q248.3857421875 118.271484375 248.3857421875 116.724609375Q248.3857421875 115.177734375 249.1328125 114.228515625Q249.8798828125 113.279296875 251.0693359375 113.279296875Q251.7958984375 113.279296875 252.314453125 113.5634765625Q252.8330078125 113.84765625 253.1728515625 114.43359375ZM249.4990234375 116.724609375Q249.4990234375 117.9140625 249.98828125 118.5908203125Q250.4775390625 119.267578125 251.3330078125 119.267578125Q252.1884765625 119.267578125 252.6806640625 118.5908203125Q253.1728515625 117.9140625 253.1728515625 116.724609375Q253.1728515625 115.53515625 252.6806640625 114.8583984375Q252.1884765625 114.181640625 251.3330078125 114.181640625Q250.4775390625 114.181640625 249.98828125 114.8583984375Q249.4990234375 115.53515625 249.4990234375 116.724609375Z" fill="#aab2bd"/></svg>