<svg xmlns="http://www.w3.org/2000/svg" viewBox="0 0 329.309 663.961" width="329.3" height="664.0">
<g transform="matrix(1 0 0 -1 -122.668 744.632)">
<path fill="#e0c3a0" fill-rule="evenodd" d="M249.565 430.315 L206.747 388.775 L206.747 330.181 L206.747 319.943 L206.747 287.362 L332.087 287.362 L332.087 308.772 L332.087 330.181 L332.087 551.217 L411.495 471.073 L411.495 536.056 L310.640 640.015 L309.544 638.952 L286.935 617.018 L286.934 617.018 L286.934 617.016 L206.747 539.225 L206.747 472.726 L286.934 550.519 L286.934 330.181 L249.565 330.181 L249.565 430.315 Z"/>
<path fill="#be9d8c" fill-rule="evenodd" d="M286.934 466.568 L249.565 430.315 L249.565 367.060 L286.934 403.312 L286.934 466.568 Z"/>
<path fill="#be9d8c" fill-rule="evenodd" d="M163.929 347.237 L122.668 307.208 L122.668 245.323 L122.668 204.840 L376.462 204.840 L376.462 245.323 L163.929 245.323 L163.929 287.362 L163.929 347.237 Z"/>
<path fill="#6a6676" fill-rule="evenodd" d="M332.087 551.217 L376.462 506.430 L376.462 287.362 L376.462 245.323 L163.929 245.323 L163.929 287.362 L163.929 347.237 L206.747 388.775 L206.747 287.362 L332.087 287.362 L332.087 551.217 Z"/>
<path fill="#6a6676" fill-rule="evenodd" d="M249.565 641.583 L249.565 580.763 L332.087 660.823 L332.087 617.907 L376.462 572.167 L376.462 656.554 L451.977 580.339 L451.977 647.548 L355.786 744.632 L249.565 641.583 Z"/>
<path fill="#be9d8c" fill-rule="evenodd" d="M376.462 444.055 L451.977 367.168 L451.977 430.215 L376.462 506.430 L376.462 444.055 Z"/>
<path fill="#e0c3a0" fill-rule="evenodd" d="M156.684 182.468 L168.921 182.468 L168.921 172.814 L156.200 172.814 L130.129 172.814 L130.129 156.031 L122.668 156.031 L122.668 172.814 L122.668 182.468 L122.668 187.597 L122.668 199.181 L151.618 199.181 L168.921 199.181 L168.921 189.707 L130.129 189.707 L130.129 182.468 L156.684 182.468 L156.684 182.468 ZM174.886 189.707 L174.886 199.181 L183.135 199.181 L216.653 199.181 L216.653 194.362 L216.653 185.142 L197.328 165.698 L197.324 156.031 L184.588 156.031 L184.571 165.703 L208.608 189.707 L174.886 189.707 L174.886 189.707 ZM268.871 187.597 L268.871 199.181 L239.937 199.181 L227.104 199.181 L227.104 189.707 L261.119 189.707 L261.119 182.344 L246.912 182.344 L227.104 182.344 L227.104 173.214 L227.104 156.031 L235.353 156.031 L268.871 156.031 L268.871 165.685 L234.563 165.685 L234.563 173.214 L251.278 173.214 L268.871 173.214 L268.871 187.597 L268.871 187.597 ZM279.322 187.597 L279.322 199.181 L308.270 199.181 L321.089 199.181 L321.089 176.028 L321.089 156.031 L312.853 156.031 L279.322 156.031 L279.322 165.685 L279.322 187.597 L279.322 187.597 ZM313.337 165.685 L313.337 189.707 L300.059 189.707 L286.782 189.707 L286.782 177.688 L286.782 165.685 L313.337 165.685 L313.337 165.685 ZM331.539 187.597 L331.539 199.181 L360.488 199.181 L373.306 199.181 L373.306 176.028 L373.306 156.031 L365.070 156.031 L331.539 156.031 L331.539 165.685 L331.539 187.597 L331.539 187.597 ZM365.554 165.685 L365.554 189.707 L352.276 189.707 L338.999 189.707 L338.999 177.688 L338.999 165.685 L365.554 165.685 Z"/>
<path fill="#e0c3a0" fill-rule="evenodd" d="M122.785 122.820 L122.785 129.492 L122.785 144.633 L122.785 152.639 L144.878 152.639 L154.661 152.639 L154.661 146.091 L128.478 146.091 L128.478 129.492 L128.478 122.820 L128.478 93.082 L134.333 93.082 L134.333 88.249 L128.282 88.249 L122.785 88.249 L122.785 122.820 L122.785 122.820 ZM146.650 109.323 L146.650 94.178 L166.003 109.323 L146.650 109.323 L146.650 109.323 ZM161.821 94.290 L155.994 94.290 L171.933 106.467 L171.933 112.237 L171.933 115.252 L147.232 115.252 L141.154 115.252 L141.154 102.740 L141.154 88.249 L150.609 88.249 L171.933 88.249 L171.933 94.290 L161.821 94.290 L161.821 94.290 ZM204.701 94.290 L204.701 109.323 L185.131 94.290 L204.701 94.290 L204.701 94.290 ZM189.973 109.323 L179.635 109.323 L179.635 115.252 L200.968 115.252 L210.413 115.252 L210.413 100.763 L210.413 88.249 L204.344 88.249 L179.635 88.249 L179.635 91.265 L179.635 97.034 L195.573 109.323 L189.973 109.323 L189.973 109.323 ZM218.115 108.002 L218.115 115.252 L239.448 115.252 L248.895 115.252 L248.895 88.249 L248.895 80.671 L243.182 80.671 L243.182 88.249 L218.115 88.249 L218.115 94.290 L218.115 108.002 L218.115 108.002 ZM243.182 94.290 L243.182 109.323 L223.613 109.323 L223.613 94.290 L243.182 94.290 L243.182 94.290 ZM281.663 94.290 L281.663 115.252 L287.376 115.252 L287.376 100.763 L287.376 88.249 L281.307 88.249 L256.597 88.249 L256.597 94.290 L256.597 108.002 L256.597 115.252 L262.094 115.252 L262.094 94.290 L281.663 94.290 L281.663 94.290 ZM300.575 109.323 L300.575 94.178 L319.928 109.323 L300.575 109.323 L300.575 109.323 ZM315.745 94.290 L325.768 94.290 L325.768 88.249 L304.533 88.249 L295.078 88.249 L295.078 102.740 L295.078 115.252 L301.156 115.252 L313.593 115.252 L313.593 119.789 L319.851 119.789 L319.851 122.820 L293.892 122.820 L293.892 129.492 L293.892 144.633 L293.892 152.639 L315.985 152.639 L325.768 152.639 L325.768 122.820 L325.768 115.252 L325.768 114.453 L325.768 106.398 L309.918 94.290 L315.745 94.290 L315.745 94.290 ZM186.517 129.492 L186.517 146.091 L166.251 129.492 L186.517 129.492 L186.517 129.492 ZM171.264 146.091 L160.559 146.091 L160.559 152.639 L182.651 152.639 L192.433 152.639 L192.433 136.638 L192.433 122.820 L186.147 122.820 L160.559 122.820 L160.559 126.151 L160.559 132.521 L177.064 146.091 L171.264 146.091 L171.264 146.091 ZM226.370 129.492 L232.286 129.492 L232.286 122.820 L225.999 122.820 L200.411 122.820 L200.411 129.492 L200.411 144.633 L200.411 152.639 L222.503 152.639 L232.286 152.639 L232.286 146.091 L206.104 146.091 L206.104 129.492 L226.370 129.492 L226.370 129.492 ZM245.956 122.820 L245.956 146.215 L245.956 152.639 L240.263 152.639 L240.263 122.820 L245.956 122.820 L245.956 122.820 ZM259.733 122.820 L259.733 146.215 L280.000 129.492 L280.000 122.820 L285.915 122.820 L285.915 126.151 L285.915 132.636 L262.015 152.639 L254.040 152.639 L254.040 136.638 L254.040 122.820 L259.733 122.820 L259.733 122.820 ZM319.851 129.492 L319.851 146.091 L299.585 146.091 L299.585 129.492 L319.851 129.492 Z"/>
</g></svg>