<svg xmlns="http://www.w3.org/2000/svg" xmlns:xlink="http://www.w3.org/1999/xlink" xmlns:inkscape="http://www.inkscape.org/namespaces/inkscape" version="1.1" width="460" height="234" viewBox="18.00 59.67 460.33 234.00">
<defs>
</defs>
<g>
<g>
<g>
<g>
<path transform="matrix(1,0,0,-1,248.16712,255.7198)" d="M0 0C-18.786 0-34.016-15.229-34.016-34.016H0Z" fill="#cdb62c"/>
<path transform="matrix(1,0,0,-1,248.16712,191.7203)" d="M0 0V0C-54.046 0-98.016-43.97-98.016-98.015H-66.016C-66.016-61.614-36.401-32 0-32Z" fill="#cdb62c"/>
<path transform="matrix(1,0,0,-1,248.16712,127.72031)" d="M0 0V0C-89.335 0-162.016-72.68-162.016-162.015H-130.016C-130.016-90.325-71.691-32 0-32Z" fill="#cdb62c"/>
<path transform="matrix(1,0,0,-1,248.16712,63.720308)" d="M0 0V0C-124.625 0-226.016-101.39-226.016-226.015H-194.016C-194.016-119.035-106.98-32 0-32Z" fill="#cdb62c"/>
<path transform="matrix(1,0,0,-1,474.20814,289.73573)" d="M0 0-226.041 226.041V194.06L-31.981 0Z" fill="#7c6e1d"/>
<path transform="matrix(1,0,0,-1,410.17066,289.73573)" d="M0 0-162.004 162.004V130.023L-31.981 0Z" fill="#7c6e1d"/>
<path transform="matrix(1,0,0,-1,346.17066,289.73573)" d="M0 0-98.004 98.004V66.023L-31.981 0Z" fill="#7c6e1d"/>
<path transform="matrix(1,0,0,-1,282.17115,289.73573)" d="M0 0-34.004 34.004V.058L-33.946 0Z" fill="#7c6e1d"/>
</g>
</g>
</g>
</g>
</svg>