<svg xmlns="http://www.w3.org/2000/svg" xmlns:xlink="http://www.w3.org/1999/xlink" xmlns:inkscape="http://www.inkscape.org/namespaces/inkscape" version="1.1" width="382" height="382" viewBox="10.00 6.33 381.67 381.67">
<defs>
<path id="font_19_79" d="M0 .17382813V.8105469H.1171875V.17382813C.1171875 .15820313 .12272135 .14485677 .13378906 .13378906 .14485677 .12272135 .15820313 .1171875 .17382813 .1171875V0C.12565105 0 .084635417 .016927084 .05078125 .05078125 .016927084 .084635417 0 .12565105 0 .17382813Z"/>
<path id="font_19_72" d="M0 .28710938V.49023438C0 .53841146 .016927084 .57942709 .05078125 .61328127 .084635417 .64713546 .12565105 .6640625 .17382813 .6640625H.45117188C.49934898 .6640625 .54036459 .64713546 .57421877 .61328127 .60807296 .57942709 .625 .53841146 .625 .49023438V.44726563C.625 .39908854 .60807296 .3580729 .57421877 .32421876 .54036459 .2903646 .49934898 .2734375 .45117188 .2734375H.1171875C.12044271 .2298177 .13850911 .1928711 .17138672 .16259766 .20426433 .13232422 .24283855 .1171875 .28710938 .1171875H.6220703V0H.28710938C.2076823 0 .13997396 .027994791 .083984378 .083984378 .027994791 .13997396 0 .2076823 0 .28710938M.1171875 .390625H.45117188C.46679688 .390625 .48014323 .39615885 .49121095 .40722657 .5022786 .41829429 .5078125 .43164063 .5078125 .44726563V.49023438C.5078125 .5058594 .5022786 .51920577 .49121095 .53027346 .48014323 .5413411 .46679688 .546875 .45117188 .546875H.17382813C.15820313 .546875 .14485677 .5413411 .13378906 .53027346 .12272135 .51920577 .1171875 .5058594 .1171875 .49023438V.390625Z"/>
<path id="font_19_68" d="M0 .17382813V.21679688C0 .26497398 .016927084 .3059896 .05078125 .33984376 .084635417 .3736979 .12565105 .390625 .17382813 .390625H.5078125C.5045573 .43424479 .48649089 .4711914 .45361329 .50146487 .4207357 .5317383 .38216148 .546875 .33789063 .546875H.0029296876V.6640625H.33789063C.41731773 .6640625 .48502604 .6360677 .5410156 .5800781 .5970052 .52408859 .625 .45638023 .625 .37695313V.17382813C.625 .12565105 .60807296 .084635417 .57421877 .05078125 .54036459 .016927084 .49934898 0 .45117188 0H.17382813C.12565105 0 .084635417 .016927084 .05078125 .05078125 .016927084 .084635417 0 .12565105 0 .17382813M.1171875 .17382813C.1171875 .15820313 .12272135 .14485677 .13378906 .13378906 .14485677 .12272135 .15820313 .1171875 .17382813 .1171875H.45117188C.46679688 .1171875 .48014323 .12272135 .49121095 .13378906 .5022786 .14485677 .5078125 .15820313 .5078125 .17382813V.2734375H.17382813C.15820313 .2734375 .14485677 .26790367 .13378906 .25683595 .12272135 .24576824 .1171875 .23242188 .1171875 .21679688V.17382813Z"/>
<path id="font_19_74" d="M0 .28710938V.49023438C0 .53841146 .016927084 .57942709 .05078125 .61328127 .084635417 .64713546 .12565105 .6640625 .17382813 .6640625H.45117188C.49934898 .6640625 .54036459 .64713546 .57421877 .61328127 .60807296 .57942709 .625 .53841146 .625 .49023438V.02734375C.625-.020833334 .60807296-.061848958 .57421877-.095703128 .54036459-.1295573 .49934898-.14648438 .45117188-.14648438V-.029296875C.47330729-.029296875 .48990885-.01953125 .50097659 0H.28710938C.2076823 0 .13997396 .027994791 .083984378 .083984378 .027994791 .13997396 0 .2076823 0 .28710938M.1171875 .28710938C.1171875 .24023438 .13378906 .20019531 .16699219 .16699219 .20019531 .13378906 .24023438 .1171875 .28710938 .1171875H.5078125V.49023438C.5078125 .5058594 .5022786 .51920577 .49121095 .53027346 .48014323 .5413411 .46679688 .546875 .45117188 .546875H.17382813C.15820313 .546875 .14485677 .5413411 .13378906 .53027346 .12272135 .51920577 .1171875 .5058594 .1171875 .49023438V.28710938Z"/>
<path id="font_19_88" d="M0 .17382813V.6640625H.1171875V.17382813C.1171875 .15820313 .12272135 .14485677 .13378906 .13378906 .14485677 .12272135 .15820313 .1171875 .17382813 .1171875H.45117188C.46679688 .1171875 .48014323 .12272135 .49121095 .13378906 .5022786 .14485677 .5078125 .15820313 .5078125 .17382813V.6640625H.625V.17382813C.625 .12565105 .60807296 .084635417 .57421877 .05078125 .54036459 .016927084 .49934898 0 .45117188 0H.17382813C.12565105 0 .084635417 .016927084 .05078125 .05078125 .016927084 .084635417 0 .12565105 0 .17382813Z"/>
</defs>
<g>
<g>
<g>
<g>
<path transform="matrix(1,0,0,-1,100.770328,215.456)" d="M0 0V8.748H-34.992-39.803-43.74V-25.369H-34.992V-13.122H0V-4.374H-34.992V0Z"/>
<path transform="matrix(1,0,0,-1,-654,718)" d="M806.383 498.17H775.765V502.544H806.383ZM806.383 511.292H767.017V510.854 502.544 498.17 490.297 489.422H806.383V485.923H767.017V477.175H806.383 815.131V485.923 489.422 498.17 502.544 511.292Z"/>
<path transform="matrix(1,0,0,-1,-654,718)" d="M866.745 485.923H836.127V502.544H866.745ZM866.745 511.292H836.127 827.379V502.544 485.923 477.175H836.127 866.745 875.492V485.923 502.544 511.292Z"/>
<path transform="matrix(1,0,0,-1,-654,718)" d="M927.98 485.923H897.362V502.544H927.98ZM927.98 511.292H897.362 888.614V502.544 485.923 477.175H897.362 927.98 936.728V485.923 502.544 511.292Z"/>
<path transform="matrix(1,0,0,-1,-654,718)" d="M988.341 485.923H957.723V502.544H988.341ZM988.341 511.292H957.724 948.976V502.544 485.923 477.175H957.724 988.341 997.089V485.923 502.544 511.292Z"/>
<path transform="matrix(1,0,0,-1,57.426027,316.6609)" d="M0 0-9.531 12.346-6.635 14.582 .646 5.151 2.985 6.957-2.877 14.55 .019 16.786 5.881 9.193 11.117 13.235 13.367 10.32Z"/>
<path transform="matrix(1,0,0,-1,50.198427,295.5796)" d="M0 0-4.928 7.983-7.562 6.357-2.634-1.627ZM3.655 13.502 8.78 5.199C9.216 4.494 9.316 3.678 9.079 2.752 8.843 1.825 8.337 1.021 7.563 .341L.7 11.457-1.855 9.88 3.172 1.737C3.665 .939 3.802 .077 3.583-.848 3.365-1.773 2.856-2.482 2.057-2.975L-.896-4.799C-1.695-5.292-2.553-5.427-3.472-5.204-4.39-4.981-5.096-4.469-5.589-3.671L-10.715 4.631C-11.208 5.43-11.345 6.285-11.129 7.2-10.912 8.115-10.405 8.819-9.607 9.311L-1.025 14.61C-.24 15.094 .613 15.23 1.534 15.018 2.456 14.805 3.162 14.3 3.655 13.502"/>
<path transform="matrix(1,0,0,-1,45.06482,273.6659)" d="M0 0-3.192 6.767-8.877 4.086ZM-10.857 1.026-7.665-5.741-1.98-3.06ZM-10.926-7.46-15.077 1.344C-15.477 2.192-15.506 3.069-15.164 3.974-14.821 4.879-14.226 5.531-13.377 5.931L-4.552 10.093C-3.704 10.493-2.798 10.544-1.837 10.246-.875 9.947-.197 9.381 .197 8.546L4.348-.257C4.742-1.092 4.747-1.975 4.366-2.907 3.984-3.839 3.369-4.505 2.521-4.905L-6.305-9.067C-7.153-9.467-8.035-9.511-8.951-9.2-9.868-8.889-10.526-8.309-10.926-7.46"/>
<path transform="matrix(1,0,0,-1,37.442995,255.69242)" d="M0 0-2.406 7.085-8.358 5.064ZM-10.671 2.247-8.265-4.838-2.313-2.817ZM-11.699-6.177-14.829 3.04C-15.13 3.928-15.06 4.802-14.617 5.663-14.174 6.523-13.509 7.104-12.62 7.405L-3.382 10.543C-2.494 10.845-1.588 10.793-.666 10.388 .256 9.983 .865 9.343 1.161 8.469L4.292-.747C4.588-1.621 4.494-2.499 4.009-3.381 3.525-4.264 2.838-4.857 1.951-5.158L-7.289-8.296C-8.177-8.598-9.059-8.542-9.934-8.129-10.809-7.716-11.397-7.065-11.699-6.177"/>
<path transform="matrix(1,0,0,-1,31.903077,236.9679)" d="M0 0-1.589 7.311-7.731 5.977ZM-10.348 3.44-8.759-3.871-2.617-2.536ZM-12.323-4.814-14.39 4.698C-14.589 5.615-14.42 6.475-13.883 7.28-13.346 8.085-12.619 8.587-11.702 8.786L-2.167 10.858C-1.251 11.057-.357 10.903 .513 10.396 1.383 9.889 1.916 9.185 2.112 8.284L4.179-1.228C4.375-2.13 4.182-2.991 3.601-3.814 3.02-4.636 2.271-5.147 1.354-5.346L-8.181-7.418C-9.097-7.617-9.967-7.462-10.79-6.953-11.613-6.443-12.124-5.73-12.323-4.814"/>
<path transform="matrix(1,0,0,-1,32.112184,215.3399)" d="M0 0-16.804-1.673-17.167 1.968-.363 3.641Z"/>
<path transform="matrix(1,0,0,-1,25.454224,197.48218)" d="M0 0-11.253-.326-11.36 3.356 5.52 3.843 5.628 .092-5.398-9.73 5.903-9.403 6.008-13.037-10.872-13.525-10.98-9.774Z"/>
<path transform="matrix(1,0,0,-1,14.168274,190.96833)" d="M0 0 1.298 16.837 4.946 16.556 4.438 9.962 17.627 8.945 17.345 5.297 4.157 6.313 3.648-.281Z"/>
<path transform="matrix(1,0,0,-1,18.699219,155.67157)" d="M0 0 3.6-.654 1.469-12.377 4.377-12.906 6.092-3.467 9.692-4.122 7.977-13.56 10.884-14.088 13.015-2.366 16.615-3.02 13.825-18.365-2.79-15.346Z"/>
<path transform="matrix(1,0,0,-1,24.070923,149.63568)" d="M0 0 3.846-1.138 6.562 8.038 2.716 9.176ZM3.604 12.754 7.787 11.516C8.701 11.244 9.387 10.683 9.844 9.83 10.301 8.977 10.394 8.094 10.123 7.179L10.077 7.021 15.253 9.305 16.445 8.953 15.38 5.354 8.725 2.456 7.376-2.183C7.39-2.138 7.442-2.129 7.531-2.155 7.522-2.186 7.508-2.206 7.489-2.216L12.684-3.755 11.652-7.24-4.518-2.454-.717 10.388C-.446 11.302 .113 11.993 .961 12.459 1.808 12.926 2.689 13.024 3.604 12.754"/>
<path transform="matrix(1,0,0,-1,41.17401,124.40259)" d="M0 0-10.367 4.388-8.932 7.779 6.619 1.196 5.157-2.259-8.958-6.6 1.453-11.007 .036-14.355-15.515-7.772-14.052-4.316Z"/>
<path transform="matrix(1,0,0,-1,42.6369,113.56818)" d="M0 0 4.7 8.335 1.105 10.363-3.595 2.028ZM-6.863 3.682-1.99 12.324C-1.514 13.168-.812 13.72 .114 13.978 1.04 14.236 1.919 14.132 2.75 13.663L14.436 7.073 12.628 3.866 7.888 6.539 3.187-1.797 7.927-4.469 6.141-7.636-5.545-1.047C-6.389-.571-6.939 .125-7.194 1.041-7.449 1.957-7.34 2.837-6.863 3.682"/>
<path transform="matrix(1,0,0,-1,44.09497,95.484989)" d="M0 0 9.825 13.734 12.801 11.605 8.953 6.226 19.711-1.47 17.582-4.446 6.824 3.251 2.976-2.129Z"/>
<path transform="matrix(1,0,0,-1,68.768009,90.51288)" d="M0 0-13.059 10.707-10.739 13.537 2.32 2.829Z"/>
<path transform="matrix(1,0,0,-1,64.56622,74.95831)" d="M0 0 6.956-6.572 13.528 .383 6.572 6.955ZM-2.772 2.394 4.058 9.622C4.713 10.315 5.521 10.675 6.483 10.702 7.445 10.73 8.272 10.416 8.965 9.761L16.193 2.931C16.887 2.275 17.247 1.467 17.274 .506 17.301-.456 16.987-1.283 16.332-1.976L9.502-9.205C8.836-9.909 8.028-10.275 7.078-10.302 6.128-10.329 5.3-10.009 4.595-9.343L-2.633-2.513C-3.337-1.848-3.703-1.04-3.73-.089-3.758 .861-3.438 1.689-2.772 2.394"/>
<path transform="matrix(1,0,0,-1,91.29169,60.102785)" d="M0 0-7.272 8.594-4.461 10.972 6.447-1.919 3.583-4.342-10.971-1.849-3.669-10.478-6.444-12.827-17.353 .064-14.488 2.488Z"/>
<path transform="matrix(1,0,0,-1,97.46692,51.100099)" d="M0 0 7.95 5.326 5.653 8.756-2.298 3.43ZM-4.47 6.378 3.773 11.9C4.578 12.439 5.452 12.616 6.396 12.429 7.34 12.242 8.077 11.753 8.608 10.96L16.074-.186 13.015-2.235 9.986 2.286 2.036-3.04 5.064-7.56 2.044-9.584-5.422 1.562C-5.962 2.368-6.14 3.237-5.955 4.17-5.771 5.102-5.276 5.839-4.47 6.378"/>
<path transform="matrix(1,0,0,-1,115.513309,50.15503)" d="M0 0-7.826 14.991-4.603 16.673 1.529 4.926 13.276 11.059 14.97 7.815Z"/>
<path transform="matrix(1,0,0,-1,132.66773,23.196778)" d="M0 0 14.727 5.136 15.932 1.682 4.682-2.242 5.655-5.032 14.713-1.873 15.917-5.328 6.86-8.487 9.038-14.732 5.561-15.945Z"/>
<path transform="matrix(1,0,0,-1,165.14942,13.72937)" d="M0 0 .849-3.559-10.74-6.325-10.054-9.199-.723-6.972 .126-10.531-9.205-12.758-8.519-15.632 3.07-12.866 3.92-16.426-11.251-20.046-15.171-3.621Z"/>
<path transform="matrix(1,0,0,-1,172.91638,16.205018)" d="M0 0 1.202-9.494 10.696-8.291 9.493 1.202ZM-4.066 3.173 9.22 4.855C10.182 4.977 11.043 4.743 11.803 4.154 12.563 3.565 13.003 2.797 13.123 1.85L14.373-8.015C14.492-8.962 14.258-9.815 13.668-10.575 13.079-11.335 12.303-11.776 11.341-11.898L-1.945-13.58Z"/>
<path transform="matrix(1,0,0,-1,205.25897,10.370911)" d="M0 0 .069-3.659-11.844-3.882-11.789-6.837-2.197-6.657-2.128-10.315-11.719-10.495-11.664-13.45 .249-13.226 .318-16.884-15.277-17.178-15.594-.294Z"/>
<path transform="matrix(1,0,0,-1,212.21472,14.432922)" d="M0 0-.348-3.995 9.185-4.827 9.533-.831ZM13.216-.988 12.837-5.334C12.754-6.284 12.34-7.068 11.596-7.686 10.851-8.304 10.004-8.571 9.054-8.488L8.891-8.474 12.161-13.091 12.052-14.329 8.314-14.003 4.147-8.06-.668-7.664C-.621-7.668-.602-7.716-.611-7.81-.642-7.807-.664-7.798-.679-7.78L-1.149-13.178-4.771-12.862-3.305 3.938 10.036 2.774C10.986 2.691 11.774 2.281 12.401 1.544 13.027 .807 13.299-.038 13.216-.988"/>
<path transform="matrix(1,0,0,-1,231.71009,20.861817)" d="M0 0 9.38-1.894 10.197 2.152 .817 4.046ZM1.38 7.665 11.105 5.702C12.055 5.51 12.796 5.014 13.329 4.212 13.861 3.411 14.033 2.542 13.844 1.608L11.189-11.543 7.58-10.814 8.656-5.48-.724-3.586-1.8-8.92-5.364-8.201-2.709 4.95C-2.518 5.9-2.026 6.638-1.233 7.164-.442 7.69 .43 7.857 1.38 7.665"/>
<path transform="matrix(1,0,0,-1,249.36359,16.660584)" d="M0 0 16.095-5.112 14.987-8.599 8.683-6.597 4.679-19.204 1.192-18.096 5.196-5.489-1.107-3.487Z"/>
<path transform="matrix(1,0,0,-1,261.70314,38.60382)" d="M0 0 6.172 15.719 9.578 14.382 3.406-1.337Z"/>
<path transform="matrix(1,0,0,-1,275.2265,29.829529)" d="M0 0-4.122-8.636 4.515-12.758 8.636-4.122ZM1.428 3.373 10.403-.911C11.264-1.321 11.854-1.981 12.176-2.887 12.496-3.794 12.451-4.678 12.041-5.539L7.757-14.514C7.346-15.374 6.687-15.965 5.78-16.286 4.873-16.607 3.99-16.562 3.129-16.151L-5.846-11.868C-6.721-11.45-7.317-10.793-7.634-9.897-7.952-9-7.901-8.115-7.483-7.24L-3.2 1.735C-2.782 2.61-2.125 3.206-1.229 3.523-.333 3.841 .553 3.791 1.428 3.373"/>
<path transform="matrix(1,0,0,-1,297.53858,50.709474)" d="M0 0 5.956 9.553 9.081 7.605 .146-6.725-3.038-4.739-5.118 9.879-11.098 .286-14.184 2.209-5.249 16.54-2.065 14.554Z"/>
<path transform="matrix(1,0,0,-1,316.7616,55.459779)" d="M0 0-6.256-7.241 .985-13.497 7.241-6.256ZM2.268 2.876 9.793-3.626C10.514-4.249 10.91-5.04 10.98-6 11.05-6.959 10.774-7.8 10.15-8.521L3.649-16.047C3.025-16.769 2.234-17.164 1.274-17.234 .315-17.304-.526-17.027-1.247-16.404L-8.772-9.903C-9.506-9.269-9.907-8.478-9.977-7.529-10.046-6.581-9.763-5.74-9.13-5.006L-2.629 2.519C-1.995 3.252-1.204 3.654-.255 3.723 .693 3.792 1.534 3.51 2.268 2.876"/>
<path transform="matrix(1,0,0,-1,331.99073,64.145389)" d="M0 0 10.68-11.367 8.014-13.872-.145-5.189-2.299-7.213 4.27-14.203 1.604-16.709-4.965-9.718-9.785-14.247-12.307-11.564Z"/>
<path transform="matrix(1,0,0,-1,345.15003,91.34949)" d="M0 0 5.453-7.864 8.845-5.511 3.392 2.353ZM6.305 4.572 11.959-3.58C12.511-4.377 12.702-5.248 12.531-6.195 12.359-7.141 11.881-7.886 11.098-8.43L.074-16.075-2.025-13.05 2.447-9.948-3.007-2.085-7.478-5.186-9.55-2.199 1.474 5.446C2.271 5.999 3.137 6.191 4.073 6.021 5.008 5.852 5.753 5.369 6.305 4.572"/>
<path transform="matrix(1,0,0,-1,357.61073,118.29437)" d="M0 0 9.913 5.336 11.658 2.093-3.211-5.91-4.99-2.606 .463 11.117-9.492 5.759-11.215 8.96 3.655 16.963 5.434 13.659Z"/>
<path transform="matrix(1,0,0,-1,370.62538,119.083377)" d="M0 0 6.355-15.645 2.966-17.022 .476-10.895-11.779-15.873-13.156-12.483-.901-7.505-3.39-1.377Z"/>
<path transform="matrix(1,0,0,-1,361.63233,142.58472)" d="M0 0 16.033 5.302 17.182 1.828 1.149-3.474Z"/>
<path transform="matrix(1,0,0,-1,374.23707,154.43482)" d="M0 0-3.459-.955-6.061 8.474-2.601 9.428Z"/>
<path transform="matrix(1,0,0,-1,382.58937,172.84229)" d="M0 0-1.57-.282-2.22 3.342-.835 3.591-2.527 13.01-11.946 11.318-10.254 1.899-7.761 2.347-8.408 5.949-4.807 6.595-3.509-.63-9.788-1.758C-10.727-1.927-11.591-1.737-12.38-1.187-13.17-.638-13.651 .114-13.822 1.068L-15.576 10.833C-15.748 11.787-15.562 12.654-15.019 13.435-14.477 14.215-13.728 14.692-12.773 14.863L-2.985 16.622C-2.032 16.793-1.164 16.607-.383 16.064 .397 15.521 .873 14.773 1.045 13.819L2.799 4.054C2.97 3.099 2.781 2.227 2.232 1.438 1.683 .648 .938 .169 0 0"/>
<path transform="matrix(1,0,0,-1,383.0752,180.06452)" d="M0 0-4.002-.266-3.368-9.814 .634-9.549ZM1.041-13.212-3.312-13.501C-4.263-13.564-5.101-13.275-5.826-12.634-6.55-11.992-6.944-11.195-7.007-10.244L-7.018-10.08-11.082-14.016-12.322-14.099-12.57-10.354-7.333-5.329-7.676-.51C-7.673-.556-7.718-.583-7.812-.589-7.814-.558-7.808-.534-7.793-.517L-13.199-.876-13.44 2.752 3.387 3.868 4.274-9.495C4.337-10.447 4.052-11.288 3.418-12.02 2.785-12.751 1.993-13.149 1.041-13.212"/>
<path transform="matrix(1,0,0,-1,379.70338,200.29712)" d="M0 0-.422-9.56 3.702-9.742 4.124-.182ZM7.786-.18 7.349-10.091C7.306-11.059 6.93-11.869 6.22-12.518 5.511-13.168 4.679-13.472 3.727-13.429L-9.676-12.837-9.514-9.159-4.078-9.399-3.656 .162-9.091 .401-8.931 4.033 4.472 3.442C5.44 3.399 6.245 3.027 6.888 2.325 7.529 1.624 7.829 .789 7.786-.18"/>
<path transform="matrix(1,0,0,-1,372.67408,226.7537)" d="M0 0 10.912-9.032 10.211-13.171-4.806-.709-4.301 2.275 13.981 9.099 13.277 4.936Z"/>
<path transform="matrix(1,0,0,-1,365.5785,238.12039)" d="M0 0 16.359-4.19 15.451-7.735-.908-3.544Z"/>
<path transform="matrix(1,0,0,-1,380.66908,247.8229)" d="M0 0-5.313-16.03-8.786-14.879-6.705-8.601-19.262-4.439-18.11-.966-5.554-5.128-3.473 1.151Z"/>
<path transform="matrix(1,0,0,-1,368.40663,279.5138)" d="M0 0-1.814-3.993-8.226 7.523-13.949 10.123-12.437 13.454-6.692 10.845-1.663 11.935 6.169 13.582 4.375 9.631-3.882 7.56Z"/>
<path transform="matrix(1,0,0,-1,356.5692,293.2711)" d="M0 0-3.354 2.199-8.6-5.805-5.246-8.003ZM-7.127-11.173-10.775-8.781C-11.573-8.259-12.068-7.524-12.26-6.575-12.451-5.627-12.286-4.754-11.763-3.956L-11.673-3.819-17.288-4.513-18.328-3.832-16.271-.693-9.063 .163-6.434 4.217C-6.46 4.178-6.512 4.184-6.59 4.236-6.574 4.262-6.554 4.277-6.533 4.281L-11.064 7.252-9.071 10.292 5.033 1.048-2.308-10.153C-2.831-10.951-3.565-11.45-4.511-11.654-5.457-11.856-6.329-11.696-7.127-11.173"/>
<path transform="matrix(1,0,0,-1,341.68659,307.3857)" d="M0 0-6.105-7.369-2.926-10.003 3.179-2.633ZM6.101-4.841-.228-12.481C-.846-13.228-1.635-13.646-2.592-13.736-3.55-13.826-4.396-13.567-5.131-12.958L-15.462-4.399-13.113-1.564-8.923-5.035-2.818 2.334-7.008 5.805-4.689 8.605 5.642 .046C6.389-.572 6.807-1.354 6.896-2.301 6.984-3.248 6.719-4.094 6.101-4.841"/>
<path transform="matrix(1,0,0,-1,321.76564,334.638)" d="M0 0 9.501 9.17 2.855 16.056-6.646 6.885-9.187 9.518 .432 18.802C1.13 19.476 1.954 19.804 2.905 19.787 3.855 19.77 4.667 19.413 5.34 18.715L12.247 11.56C12.92 10.863 13.249 10.039 13.232 9.088 13.215 8.138 12.858 7.325 12.16 6.652L2.541-2.633Z"/>
<path transform="matrix(1,0,0,-1,310.7895,326.3887)" d="M0 0 10.85-12.94 8.047-15.291-2.804-2.351Z"/>
<path transform="matrix(1,0,0,-1,299.77839,341.9542)" d="M0 0 6.606-9.117 3.624-11.277-6.285 2.397-3.246 4.599 11.079 1.019 4.446 10.173 7.39 12.306 17.298-1.368 14.26-3.57Z"/>
<path transform="matrix(1,0,0,-1,283.56983,360.7293)" d="M0 0-.785 1.388 2.419 3.202 3.112 1.977 11.44 6.691 6.727 15.019-1.602 10.305-.354 8.101 2.831 9.903 4.633 6.719-1.756 3.103-4.899 8.655C-5.368 9.485-5.475 10.363-5.217 11.29-4.961 12.217-4.41 12.919-3.567 13.397L5.067 18.284C5.911 18.761 6.791 18.873 7.707 18.619 8.624 18.365 9.32 17.817 9.798 16.973L14.696 8.318C15.174 7.475 15.286 6.595 15.032 5.678 14.778 4.762 14.229 4.065 13.385 3.588L4.752-1.3C3.908-1.777 3.022-1.887 2.095-1.63 1.168-1.374 .47-.829 0 0"/>
<path transform="matrix(1,0,0,-1,259.6833,374.3967)" d="M0 0-1.299 3.42 9.838 7.653 8.788 10.416-.179 7.008-1.479 10.428 7.488 13.836 6.438 16.598-4.7 12.365-5.999 15.785 8.58 21.327 14.58 5.541Z"/>
<path transform="matrix(1,0,0,-1,239.04273,376.422)" d="M0 0-.397 1.521 3.166 2.45 3.516 1.111 12.775 3.527 12.029 6.387 2.565 3.917C1.643 3.677 .766 3.799-.064 4.286-.893 4.772-1.429 5.477-1.67 6.4L-2.51 9.622C-2.752 10.546-2.629 11.422-2.142 12.252-1.656 13.082-.951 13.617-.028 13.858L9.595 16.368C10.517 16.609 11.393 16.49 12.221 16.012 13.048 15.533 13.585 14.824 13.83 13.886L14.226 12.365 10.708 11.447 10.359 12.787 1.1 10.37 1.846 7.511 11.264 9.968C12.187 10.209 13.062 10.091 13.89 9.612 14.718 9.133 15.254 8.425 15.499 7.486L16.34 4.263C16.585 3.325 16.463 2.445 15.975 1.623 15.487 .801 14.781 .269 13.858 .028L4.236-2.482C3.313-2.723 2.436-2.6 1.606-2.114 .776-1.627 .241-.923 0 0"/>
<path transform="matrix(1,0,0,-1,236.92218,380.3923)" d="M0 0-16.702-2.49-17.242 1.129-10.7 2.104-12.651 15.188-9.032 15.727-7.081 2.644-.539 3.619Z"/>
<path transform="matrix(1,0,0,-1,212.98078,369.9792)" d="M0 0-.291 3.577 3.286 3.868 3.577 .291Z"/>
<path transform="matrix(1,0,0,-1,199.68952,383.7442)" d="M0 0-9.728 .315C-10.666 .345-11.46 .703-12.11 1.389-12.761 2.075-13.071 2.887-13.041 3.824L-12.921 7.552C-12.89 8.49-12.528 9.284-11.834 9.934-11.14 10.584-10.325 10.894-9.387 10.863L.177 10.554 .266 13.297-12.721 13.717-12.605 17.304 3.969 16.767 3.757 10.227C3.727 9.289 3.365 8.499 2.671 7.857 1.978 7.214 1.162 6.908 .224 6.938L-9.34 7.248-9.448 3.896-.048 3.592-.004 4.952 3.583 4.835 3.533 3.288C3.502 2.35 3.14 1.561 2.447 .918 1.753 .275 .938-.031 0 0"/>
<path transform="matrix(1,0,0,-1,171.80261,377.7239)" d="M0 0 7.405-1.073 8.307 5.148ZM6.847 8.487-.557 9.561-1.459 3.34ZM7.039-4.741-2.594-3.345C-3.522-3.21-4.269-2.75-4.835-1.965-5.4-1.18-5.616-.323-5.481 .605L-4.082 10.261C-3.947 11.19-3.49 11.973-2.71 12.61-1.931 13.248-1.084 13.5-.171 13.368L9.461 11.971C10.375 11.839 11.114 11.356 11.681 10.524 12.247 9.692 12.464 8.811 12.329 7.882L10.929-1.774C10.795-2.702 10.345-3.462 9.58-4.055 8.815-4.647 7.967-4.876 7.039-4.741"/>
<path transform="matrix(1,0,0,-1,158.15442,378.839)" d="M0 0-9.414 2.473C-10.322 2.711-11.016 3.237-11.498 4.05-11.979 4.864-12.101 5.724-11.863 6.631L-10.915 10.238C-10.677 11.146-10.147 11.839-9.326 12.319-8.505 12.798-7.641 12.919-6.734 12.681L2.522 10.25 3.219 12.904-9.349 16.204-8.437 19.676 7.601 15.464 5.939 9.135C5.701 8.227 5.172 7.538 4.353 7.065 3.534 6.594 2.671 6.477 1.763 6.715L-7.492 9.146-8.344 5.902 .753 3.513 1.098 4.829 4.569 3.917 4.176 2.42C3.937 1.512 3.409 .823 2.589 .351 1.771-.121 .907-.238 0 0"/>
<path transform="matrix(1,0,0,-1,127.12543,364.8322)" d="M0 0 12.117-4.695 13.176-1.961 4.252 1.497C3.378 1.835 2.747 2.436 2.36 3.299 1.973 4.161 1.949 5.03 2.288 5.905L3.576 9.229C3.909 10.089 4.512 10.712 5.381 11.095 6.251 11.479 7.123 11.502 7.998 11.163L17.074 7.647C17.949 7.307 18.579 6.703 18.962 5.833 19.346 4.964 19.372 4.099 19.039 3.238L18.564 2.013 15.218 3.31 15.625 4.36 6.854 7.757 5.71 4.805 17.826 .111 14.166-9.337-1.296-3.346Z"/>
<path transform="matrix(1,0,0,-1,122.23401,357.7981)" d="M0 0-8.477 4.441-10.392 .785-1.916-3.656ZM-3.469-6.974-12.256-2.369C-13.115-1.919-13.688-1.235-13.975-.317-14.262 .602-14.183 1.483-13.741 2.328L-7.514 14.211-4.252 12.502-6.778 7.682 1.698 3.241 4.223 8.061 7.444 6.374 1.217-5.51C.767-6.369 .089-6.94-.819-7.223-1.727-7.507-2.61-7.423-3.469-6.974"/>
<path transform="matrix(1,0,0,-1,102.34082,351.3312)" d="M0 0 5.366 7.923-2.556 13.289-7.923 5.367ZM.958-5.068-10.13 2.442C-10.933 2.986-11.425 3.73-11.607 4.675-11.789 5.619-11.612 6.487-11.077 7.276L-5.5 15.51C-4.965 16.3-4.225 16.785-3.281 16.967-2.336 17.149-1.462 16.967-.66 16.424L10.428 8.914Z"/>
<path transform="matrix(1,0,0,-1,200.49732,176.09009)" d="M0 0C-11.595 0-20.995-9.4-20.995-20.995H0Z" fill="#cdb62c"/>
<path transform="matrix(1,0,0,-1,200.49732,136.58838)" d="M0 0V0C-33.358 0-60.497-27.139-60.497-60.497H-40.746C-40.746-38.029-22.468-19.751 0-19.751Z" fill="#cdb62c"/>
<path transform="matrix(1,0,0,-1,200.49732,97.086429)" d="M0 0V0C-55.139 0-99.999-44.859-99.999-99.999H-80.248C-80.248-55.75-44.249-19.751 0-19.751Z" fill="#cdb62c"/>
<path transform="matrix(1,0,0,-1,200.49732,57.58441)" d="M0 0V0C-76.921 0-139.501-62.58-139.501-139.501H-119.75C-119.75-73.471-66.03-19.751 0-19.751Z" fill="#cdb62c"/>
<path transform="matrix(1,0,0,-1,340.01399,197.08533)" d="M0 0-139.517 139.517V119.778L-19.739 0Z" fill="#7c6e1d"/>
<path transform="matrix(1,0,0,-1,300.489,197.08533)" d="M0 0-99.992 99.992V80.252L-19.739 0Z" fill="#7c6e1d"/>
<path transform="matrix(1,0,0,-1,260.98689,197.08533)" d="M0 0-60.49 60.49V40.75L-19.739 0Z" fill="#7c6e1d"/>
<path transform="matrix(1,0,0,-1,221.48523,197.08533)" d="M0 0-20.988 20.988V.036L-20.952 0Z" fill="#7c6e1d"/>
</g>
<use data-text="l" xlink:href="#font_19_79" transform="matrix(44.4398,0,0,-44.4398,113.01758,295.9375)"/>
<use data-text="e" xlink:href="#font_19_72" transform="matrix(44.4398,0,0,-44.4398,126.39398,295.9375)"/>
<use data-text="a" xlink:href="#font_19_68" transform="matrix(44.4398,0,0,-44.4398,159.81275,295.9375)"/>
<use data-text="g" xlink:href="#font_19_74" transform="matrix(44.4398,0,0,-44.4398,193.23145,295.9375)"/>
<use data-text="u" xlink:href="#font_19_88" transform="matrix(44.4398,0,0,-44.4398,226.65015,295.9375)"/>
<use data-text="e" xlink:href="#font_19_72" transform="matrix(44.4398,0,0,-44.4398,260.06886,295.9375)"/>
<g>
<path transform="matrix(1,0,0,-1,328.6151,247.97229)" d="M0 0H-4.899-7.408-12.307V-2.509H-7.408V-9.602H-4.899V-2.509H0Z"/>
<path transform="matrix(1,0,0,-1,342.23634,247.97229)" d="M0 0H-1.553-4.6-7.109-10.156-12.307-12.665V-9.602H-10.156V-2.509H-7.109V-9.602H-4.6V-2.509H-1.553V-9.602H.956V0Z"/>
</g>
</g>
</g>
</g>
</svg>