<svg xmlns="http://www.w3.org/2000/svg" xmlns:xlink="http://www.w3.org/1999/xlink" xmlns:inkscape="http://www.inkscape.org/namespaces/inkscape" version="1.1" width="472" height="305" viewBox="11.67 59.67 471.67 305.00">
<defs>
</defs>
<g>
<g>
<g>
<g>
<path transform="matrix(1,0,0,-1,86.592288,319.4994)" d="M0 0V14.173H-56.693-64.488-70.866V-41.102H-56.693V-21.26H0V-7.087H-56.693V0Z"/>
<path transform="matrix(1,0,0,-1,-1220,380)" d="M1390.214 53.414H1340.608V60.501H1390.214ZM1390.214 74.674H1326.435V73.965 60.501 53.414 40.658 39.241H1390.214V33.571H1326.435V19.398H1390.214 1404.388V33.571 39.241 53.414 60.501 74.674Z"/>
<path transform="matrix(1,0,0,-1,-1220,380)" d="M1488.01 33.571H1438.404V60.5H1488.01ZM1488.01 74.674H1438.403 1424.23V60.501 33.571 19.398H1438.403 1488.01 1502.183V33.571 60.501 74.674Z"/>
<path transform="matrix(1,0,0,-1,-1220,380)" d="M1587.222 33.571H1537.6161V60.5H1587.222ZM1587.222 74.674H1537.616 1523.443V60.501 33.571 19.398H1537.616 1587.222 1601.395V33.571 60.501 74.674Z"/>
<path transform="matrix(1,0,0,-1,-1220,380)" d="M1685.017 33.571H1635.411V60.5H1685.017ZM1685.017 74.674H1635.411 1621.238V60.501 33.571 19.398H1635.411 1685.017 1699.191V33.571 60.501 74.674Z"/>
<path transform="matrix(1,0,0,-1,248.16712,255.7198)" d="M0 0C-18.786 0-34.016-15.229-34.016-34.016H0Z" fill="#cdb62c"/>
<path transform="matrix(1,0,0,-1,248.16712,191.7203)" d="M0 0V0C-54.046 0-98.016-43.97-98.016-98.015H-66.016C-66.016-61.614-36.401-32 0-32Z" fill="#cdb62c"/>
<path transform="matrix(1,0,0,-1,248.16712,127.72031)" d="M0 0V0C-89.335 0-162.016-72.68-162.016-162.015H-130.016C-130.016-90.325-71.691-32 0-32Z" fill="#cdb62c"/>
<path transform="matrix(1,0,0,-1,248.16712,63.720308)" d="M0 0V0C-124.625 0-226.016-101.39-226.016-226.015H-194.016C-194.016-119.035-106.98-32 0-32Z" fill="#cdb62c"/>
<path transform="matrix(1,0,0,-1,474.20814,289.73573)" d="M0 0-226.041 226.041V194.06L-31.981 0Z" fill="#7c6e1d"/>
<path transform="matrix(1,0,0,-1,410.17066,289.73573)" d="M0 0-162.004 162.004V130.023L-31.981 0Z" fill="#7c6e1d"/>
<path transform="matrix(1,0,0,-1,346.17066,289.73573)" d="M0 0-98.004 98.004V66.023L-31.981 0Z" fill="#7c6e1d"/>
<path transform="matrix(1,0,0,-1,282.17115,289.73573)" d="M0 0-34.004 34.004V.058L-33.946 0Z" fill="#7c6e1d"/>
</g>
</g>
</g>
</g>
</svg>