<svg xmlns="http://www.w3.org/2000/svg" viewBox="212.25 109.00 406.50 287.25" width="406" height="287">
<g id="PURE">
	<g>
		<path fill="#6BC4DC" d="M412.698,196.249c-0.043-0.043-0.084-0.087-0.127-0.13l0.112,0.146L412.698,196.249z"/>
		<path fill="#6BC4DC" d="M373.79,235.157l-0.138-0.119c0.043,0.043,0.083,0.089,0.125,0.132L373.79,235.157z"/>
		<g>
			<polygon fill="#22A6C9" points="396.817,212.129 424.514,242.083 437.683,228.915 412.683,196.265    "/>
			<polygon fill="#22A6C9" points="491.168,298.768 483.769,306.166 559.767,388.356    "/>
		</g>
		<polygon fill="#6BC4DC" points="412.683,196.265 412.571,196.119 396.817,212.129   "/>
		<g>
			<polygon fill="#22A6C9" points="418.717,190.23 443.638,222.959 457.458,209.14 435.367,173.58    "/>
			<polygon fill="#22A6C9" points="504.72,285.215 496.956,292.98 565.338,382.787    "/>
		</g>
		<g>
			<polygon fill="#22A6C9" points="478.15,311.786 470.782,319.153 551.85,389.359    "/>
			<polygon fill="#22A6C9" points="373.79,235.157 404.685,261.912 418.059,248.538 389.973,218.976    "/>
		</g>
		<path fill="#6BC4DC" d="M614.594,113.232h-0.027h-14.959l-23.338,23.337l-35.146,35.146l-65.946,65.945l-11.549,11.549    l-5.893,5.893l-11.005,11.006l-6.142,6.142l-11.123,11.123l-32.904,32.904c-28.771,28.632-75.304,28.592-104.021-0.127    c-28.761-28.76-28.76-75.39,0-104.151c28.76-28.76,75.391-28.76,104.151,0c0.043,0.043,0.084,0.087,0.126,0.13l15.753-16.01    c-37.53-37.53-98.381-37.53-135.911-0.001c-37.531,37.532-37.532,98.383-0.001,135.913c37.488,37.488,98.242,37.528,135.783,0.127    l34.044-34.045l9.576-9.575l5.927-5.927l9.519-9.521l5.85-5.85l9.99-9.99l66.006-66.005l37.85-37.851l23.363-23.363l0.027-0.026    V113.232z"/>
		<path fill="#6BC4DC" d="M614.566,175.369l0.027-0.026v-33.298l-0.027,0.027l-23.363,23.363l-34.541,34.541l-64.701,64.701    l-9.399,9.4l-5.833,5.832l-8.957,8.957l-5.845,5.844l-8.989,8.99l-34.477,34.477c-40.866,40.728-107.009,40.688-147.821-0.126    c-40.855-40.855-40.855-107.095,0.001-147.952c40.854-40.854,107.095-40.854,147.95,0.001c0.043,0.043,0.083,0.088,0.126,0.131    l16.649-16.65c-0.043-0.043-0.084-0.086-0.127-0.129c-50.05-50.05-131.199-50.05-181.248-0.001    c-50.051,50.051-50.052,131.199-0.001,181.25c50.006,50.007,131.058,50.047,181.119,0.126l35.672-35.673l7.368-7.367l5.619-5.62    l7.399-7.398l5.788-5.787l7.764-7.766l61.092-61.092l25.391-25.391v48.208l23.363-23.364V175.369z"/>
		<path fill="#6BC4DC" d="M553.365,113.232l-49.169-0.027l-23.364,23.364h49.195l-12.419,12.418l-60.151,60.152l-13.819,13.819    l-5.956,5.956l-13.169,13.168l-6.455,6.455l-13.375,13.374l-31.245,31.245l0.08,0.079c-16.046,15.908-41.948,15.869-57.942-0.124    c-16.037-16.036-16.036-42.037,0-58.074c16.036-16.036,42.037-16.036,58.074,0l16.321-16.063    c-0.043-0.043-0.084-0.088-0.127-0.131c-24.98-24.98-65.48-24.979-90.46,0c-24.979,24.979-24.98,65.48,0,90.461    c24.937,24.938,65.341,24.979,90.331,0.127l32.414-32.413l11.789-11.789l6.235-6.234l11.646-11.646l5.911-5.912l12.221-12.222    l64.229-64.229l28.418-28.418l23.337-23.337H553.365z"/>
		<polygon fill="#6BC4DC" points="373.79,235.157 389.973,218.976 373.652,235.038   "/>
	</g>
</g>
</svg>