<?xml version="1.0" encoding="UTF-8"?><svg id="b" xmlns="http://www.w3.org/2000/svg" viewBox="0 0 868.43 177.61"><g id="c"><path d="M521.12,96.8h104.59c10.69,0,20.06-7.13,22.92-17.43l17.11-61.69c2.36-8.51-4.04-16.92-12.87-16.92h-7.19l-.02.06-98,.3.1-.37h-4.49c-11.98,0-22.48,7.99-25.68,19.53l-16.79,60.52c-2.23,8.04,3.82,15.99,12.16,15.99h8.15ZM541.2,24.42h97.92l-13.53,48.79-98,.31,13.62-49.09Z" fill="#65cbdd"/><path d="M678.44,96.8h104.59c10.69,0,20.06-7.13,22.92-17.43l17.11-61.69c2.36-8.51-4.04-16.92-12.87-16.92h-7.19l-.02.06-98,.3.1-.37h-4.49c-11.98,0-22.48,7.99-25.68,19.53l-16.79,60.52c-2.23,8.04,3.82,15.99,12.16,15.99h8.15ZM698.52,24.42h97.92l-13.53,48.79-98,.31,13.62-49.09Z" fill="#65cbdd"/><path d="M193.66,98.33l10.19-36.72h98.8l-10.19,36.72h24.75l9.8-35.34s1.41-4.16-.19-8.89c-1.2-3.57-3.91-4.56-3.91-4.56,0,0,4.83-2.6,7.14-5.64,2.54-3.33,4.78-9.13,4.78-9.13L344.28.76h-24.75l-10.33,37.22-98.89.33L220.73.76h-24.75l-9.44,34.03s-1.1,3.58,0,9.21c.67,3.4,3.01,5.55,3.01,5.55,0,0-3.69,1.55-6.11,4.69-4.47,5.81-4.77,8.87-4.77,8.87l-9.77,35.23h24.75Z" fill="#65cbdd"/><path d="M24.75,98.33l7.41-26.72h126.78l6.56-23.65-126.89.39,6.64-23.93h126.73l6.56-23.65H45.54c-10.92,0-20.5,7.28-23.41,17.8L0,98.33h24.75Z" fill="#65cbdd"/><path d="M440.7,47.38l7.05-25.4h-24.75l-7.07,25.48-37.54.12L391.58,0h-24.75l-14.26,51.41c-2.71,9.77,3.99,19.44,17.01,19.44h2.35s4.24,0,4.24,0h33.27l-7.41,26.72h24.75l7.41-26.72h59l8.08-23.66-60.57.19Z" fill="#65cbdd"/><polygon points="244.08 124.9 244.08 115.67 220.12 115.67 210.89 115.67 186.93 115.67 186.93 124.9 210.89 124.9 210.89 168.38 186.93 168.38 186.93 177.61 210.89 177.61 220.12 177.61 244.08 177.61 244.08 168.38 220.12 168.38 220.12 124.9 244.08 124.9" fill="#65cbdd"/><polygon points="9.23 115.67 8.48 115.67 0 124.15 0 177.61 9.23 177.61 9.23 124.9 57.15 124.9 57.15 115.67 9.23 115.67" fill="#65cbdd"/><path d="M107.67,115.67h-40.19l-8.49,8.49v53.46h9.23v-26.36h38.69v26.36h9.23v-53.47l-8.47-8.47ZM106.91,142.02h-38.69v-17.13h38.69v17.13Z" fill="#65cbdd"/><path d="M580.79,115.67h-40.19l-8.49,8.49v53.46h9.23v-26.36h38.69v26.36h9.23v-53.47l-8.47-8.47ZM580.04,142.02h-38.69v-17.13h38.69v17.13Z" fill="#65cbdd"/><polygon points="182.05 124.9 182.05 115.67 134.13 115.67 133.31 115.67 124.9 124.08 124.9 124.9 124.9 168.38 124.9 169.76 132.75 177.61 134.13 177.61 182.05 177.61 182.05 168.38 134.13 168.38 134.13 124.9 182.05 124.9" fill="#65cbdd"/><polygon points="298.85 115.67 298.09 115.67 259.4 115.67 258.63 115.67 250.17 124.12 250.17 124.9 250.17 177.61 259.4 177.61 259.4 124.9 298.09 124.9 298.09 177.61 307.32 177.61 307.32 124.9 307.32 124.13 298.85 115.67" fill="#65cbdd"/><polygon points="367.56 142.02 354.19 142.02 354.19 151.25 366.06 151.25 366.06 168.38 325.73 168.38 325.73 124.9 373.66 124.9 373.66 115.67 325.73 115.67 324.96 115.67 316.5 124.12 316.5 124.9 316.5 168.38 316.5 169.84 324.27 177.61 325.73 177.61 366.06 177.61 367.53 177.61 375.29 169.85 375.29 149.75 367.56 142.02" fill="#65cbdd"/><polygon points="649.51 142.02 636.14 142.02 636.14 151.25 648.01 151.25 648.01 168.38 607.68 168.38 607.68 124.9 655.6 124.9 655.6 115.67 607.68 115.67 606.91 115.67 598.45 124.12 598.45 124.9 598.45 168.38 598.45 169.84 606.22 177.61 607.68 177.61 648.01 177.61 649.48 177.61 657.24 169.85 657.24 149.75 649.51 142.02" fill="#65cbdd"/><polygon points="419.43 168.38 419.43 115.67 410.2 115.67 410.2 169.84 417.97 177.61 419.43 177.61 468.17 177.61 468.17 168.38 419.43 168.38" fill="#65cbdd"/><polygon points="714.17 177.61 721.94 169.85 721.94 115.67 712.71 115.67 712.71 168.38 674.01 168.38 674.01 115.67 664.78 115.67 664.78 168.38 664.78 168.38 664.78 169.84 672.56 177.61 674.01 177.61 712.71 177.61 714.17 177.61" fill="#65cbdd"/><polygon points="527.58 124.9 527.58 115.67 479.65 115.67 478.91 115.67 470.42 124.15 470.42 124.9 470.42 142.02 470.42 151.25 470.42 168.38 470.42 169.85 478.19 177.61 479.65 177.61 527.58 177.61 527.58 168.38 479.65 168.38 479.65 151.25 527.58 151.25 527.58 142.02 479.65 142.02 479.65 124.9 527.58 124.9" fill="#65cbdd"/><polygon points="788.27 124.9 788.27 115.67 740.35 115.67 739.61 115.67 731.12 124.15 731.12 124.9 731.12 142.02 731.12 151.25 731.12 168.38 731.12 169.85 738.88 177.61 740.35 177.61 788.27 177.61 788.27 168.38 740.35 168.38 740.35 151.25 788.27 151.25 788.27 142.02 740.35 142.02 740.35 124.9 788.27 124.9" fill="#65cbdd"/><polygon points="847.44 1.21 839.18 1.21 836.18 1.21 827.92 1.21 827.92 4.21 836.18 4.21 836.18 25.92 839.18 25.92 839.18 4.21 847.44 4.21 847.44 1.21" fill="#65cbdd"/><polygon points="868.43 1.21 865.43 1.21 865.43 2.25 859.02 11.73 852.6 2.25 852.6 1.21 849.6 1.21 849.6 25.92 852.6 25.92 852.6 7.6 859.02 17.06 865.43 7.6 865.43 25.92 868.43 25.92 868.43 1.21" fill="#65cbdd"/></g></svg>