<?xml version="1.0" encoding="UTF-8"?><svg id="b" xmlns="http://www.w3.org/2000/svg" viewBox="0 0 1085.39 550.46"><g id="c"><rect width="1085.39" height="550.46" fill="#65cbdd"/><path d="M646.49,272.53h104.59c10.69,0,20.06-7.13,22.92-17.43l17.11-61.69c2.36-8.51-4.04-16.92-12.87-16.92h-7.19l-.02.06-97.9-.06h-4.49c-11.98,0-22.48,7.99-25.68,19.53l-16.79,60.52c-2.23,8.04,3.82,15.99,12.16,15.99h8.15ZM666.57,200.15h97.92l-13.53,48.79-98,.31,13.62-49.09Z" fill="#fff"/><path d="M803.81,272.53h104.59c10.69,0,20.06-7.13,22.92-17.43l17.11-61.69c2.36-8.51-4.04-16.92-12.87-16.92h-7.19l-.02.06-97.9-.06h-4.49c-11.98,0-22.48,7.99-25.68,19.53l-16.79,60.52c-2.23,8.04,3.82,15.99,12.16,15.99h8.15ZM823.89,200.15h97.92l-13.53,48.79-98,.31,13.62-49.09Z" fill="#fff"/><path d="M319.04,274.06l10.19-36.72h98.8l-10.19,36.72h24.75l9.8-35.34s1.41-4.16-.19-8.89c-1.2-3.57-3.91-4.56-3.91-4.56,0,0,4.83-2.6,7.14-5.64,2.54-3.33,4.78-9.13,4.78-9.13l9.44-34.02h-24.75l-10.33,37.22-98.89.33,10.42-37.55h-24.75l-9.44,34.03s-1.1,3.58,0,9.21c.67,3.4,3.01,5.55,3.01,5.55,0,0-3.69,1.55-6.11,4.69-4.47,5.81-4.77,8.87-4.77,8.87l-9.77,35.23h24.75Z" fill="#fff"/><path d="M150.12,274.06l7.41-26.72h126.78l6.56-23.65-126.89.39,6.64-23.93h126.73l6.56-23.65h-133c-10.92,0-20.5,7.28-23.41,17.8l-22.13,79.76h24.75Z" fill="#fff"/><path d="M566.07,223.1l7.05-25.4h-24.75l-7.07,25.48-37.54.12,13.2-47.57h-24.75l-14.26,51.41c-2.71,9.77,3.99,19.44,17.01,19.44h2.35s4.24,0,4.24,0h33.27l-7.41,26.72h24.75l7.41-26.72h59l8.08-23.66-60.57.19Z" fill="#fff"/><polygon points="369.46 300.62 369.46 291.39 345.49 291.39 336.26 291.39 312.3 291.39 312.3 300.62 336.26 300.62 336.26 344.11 312.3 344.11 312.3 353.34 336.26 353.34 345.49 353.34 369.46 353.34 369.46 344.11 345.49 344.11 345.49 300.62 369.46 300.62" fill="#fff"/><polygon points="134.6 291.39 133.86 291.39 125.37 299.88 125.37 353.34 134.6 353.34 134.6 300.62 182.53 300.62 182.53 291.39 134.6 291.39" fill="#fff"/><path d="M233.04,291.39h-40.19l-8.49,8.49v53.46h9.23v-26.36h38.69v26.36h9.23v-53.47l-8.47-8.47ZM232.29,317.75h-38.69v-17.13h38.69v17.13Z" fill="#fff"/><path d="M706.17,291.39h-40.19l-8.49,8.49v53.46h9.23v-26.36h38.69v26.36h9.23v-53.47l-8.47-8.47ZM705.41,317.75h-38.69v-17.13h38.69v17.13Z" fill="#fff"/><polygon points="307.42 300.62 307.42 291.39 259.5 291.39 258.69 291.39 250.27 299.81 250.27 300.62 250.27 344.11 250.27 345.49 258.12 353.34 259.5 353.34 307.42 353.34 307.42 344.11 259.5 344.11 259.5 300.62 307.42 300.62" fill="#fff"/><polygon points="424.23 291.39 423.46 291.39 384.77 291.39 384 291.39 375.54 299.85 375.54 300.62 375.54 353.34 384.77 353.34 384.77 300.62 423.46 300.62 423.46 353.34 432.69 353.34 432.69 300.62 432.69 299.86 424.23 291.39" fill="#fff"/><polygon points="492.94 317.75 479.57 317.75 479.57 326.98 491.43 326.98 491.43 344.11 451.11 344.11 451.11 300.62 499.03 300.62 499.03 291.39 451.11 291.39 450.33 291.39 441.88 299.85 441.88 300.62 441.88 344.11 441.88 345.57 449.65 353.34 451.11 353.34 491.43 353.34 492.91 353.34 500.66 345.58 500.66 325.48 492.94 317.75" fill="#fff"/><polygon points="774.88 317.75 761.51 317.75 761.51 326.98 773.38 326.98 773.38 344.11 733.05 344.11 733.05 300.62 780.98 300.62 780.98 291.39 733.05 291.39 732.28 291.39 723.82 299.85 723.82 300.62 723.82 344.11 723.82 345.57 731.59 353.34 733.05 353.34 773.38 353.34 774.85 353.34 782.61 345.58 782.61 325.48 774.88 317.75" fill="#fff"/><polygon points="544.8 344.11 544.8 291.39 535.57 291.39 535.57 345.57 543.35 353.34 544.8 353.34 593.54 353.34 593.54 344.11 544.8 344.11" fill="#fff"/><polygon points="839.55 353.34 847.31 345.57 847.31 291.39 838.08 291.39 838.08 344.11 799.39 344.11 799.39 291.39 790.16 291.39 790.16 344.11 790.16 344.11 790.16 345.57 797.93 353.34 799.39 353.34 838.08 353.34 839.55 353.34" fill="#fff"/><polygon points="652.95 300.62 652.95 291.39 605.03 291.39 604.28 291.39 595.8 299.88 595.8 300.62 595.8 317.75 595.8 326.98 595.8 344.11 595.8 345.58 603.56 353.34 605.03 353.34 652.95 353.34 652.95 344.11 605.03 344.11 605.03 326.98 652.95 326.98 652.95 317.75 605.03 317.75 605.03 300.62 652.95 300.62" fill="#fff"/><polygon points="913.65 300.62 913.65 291.39 865.72 291.39 864.98 291.39 856.49 299.88 856.49 300.62 856.49 317.75 856.49 326.98 856.49 344.11 856.49 345.58 864.26 353.34 865.72 353.34 913.65 353.34 913.65 344.11 865.72 344.11 865.72 326.98 913.65 326.98 913.65 317.75 865.72 317.75 865.72 300.62 913.65 300.62" fill="#fff"/><polygon points="972.81 176.93 964.55 176.93 961.55 176.93 953.29 176.93 953.29 179.93 961.55 179.93 961.55 201.65 964.55 201.65 964.55 179.93 972.81 179.93 972.81 176.93" fill="#fff"/><polygon points="993.81 176.93 990.81 176.93 990.81 177.97 984.39 187.46 977.97 177.97 977.97 176.93 974.97 176.93 974.97 201.65 977.97 201.65 977.97 183.33 984.39 192.78 990.81 183.33 990.81 201.65 993.81 201.65 993.81 176.93" fill="#fff"/></g></svg>