<?xml version="1.0" encoding="UTF-8"?><svg id="b" xmlns="http://www.w3.org/2000/svg" viewBox="0 0 365.16 329.75"><g id="c"><path d="M321.81.58l-.12.15c-1.52,1.94-150.93,194.99-168.91,212.12-13.62,12.97-19.13,24.67-51.75,30.32-24.42,4.23-51-9.74-65.75-21.04-5.24-4.02-9.88-8.15-13.74-11.91,14.24,8.76,40.15,22.43,65.58,24.19,1.45.1,2.87.15,4.27.15,35.16,0,56.38-30.26,56.59-30.56L309.87,0h-106.32l-25.59,35.08h33.43c-6.57,8.01-72.52,88.43-90.86,109.3-3.28,3.73-6.39,7.48-9.41,11.1-13.87,16.68-25.85,31.08-45.25,34.57-4.27.77-8.45,1.11-12.49,1.11-28.98,0-50.97-17.37-51.22-17.57l-.78-.63.15.99c1.95,13.13,7.95,26.89,8.7,28.58,5.35,16.8,15.73,33.8,23.91,45.58,9.78,14.09,18.58,23.96,18.68,24.06,23.73,25.36,49.5,42.53,76.62,51.02,18.12,5.67,33.44,6.55,45.02,6.55,2.83,0,5.44-.05,7.8-.1.91-.02,1.77-.01,2.59-.05,9.21-.42,33.36-3.77,53.13-24.13,19.08-19.65,83.7-97.02,91.12-105.92v33.67l35.25-41.36.09-.11V58.18l-167,203.6c-.1.12-10.27,12.51-28.52,21.43-16.84,8.22-44.2,15.09-78.97,1.11-8.33-3.35-19.8-9.96-33.33-22.96,15.04,12.62,33.97,23.05,56.06,24.09,2.78.13,5.41.19,7.9.19,19.88,0,30.66-3.8,35.57-5.53.66-.23,1.24-.44,1.72-.59,23.34-7.49,45.3-36.96,45.51-37.25L365.07,42.54l.09-.11V.58h-43.35Z"/><path d="M133.51,3.71l-.1-.41c-.38.06-37.96,6.08-72.81,29.47-20.48,13.74-36.03,30.7-46.21,50.41C1.83,107.5-2.54,136.1,1.4,168.18c5.01,3.73,14.1,9.83,24.96,14.19.11.01.22.03.33.05l.69.08-.29-.63c-.21-.47-20.95-47.2,0-95.13,10.83-24.76,30.61-45.44,59.01-61.84-16.55,10.64-35.46,26.8-47.42,49.75-16.37,31.44-16.6,68.92-.69,111.41,2.1.48,4.22.86,6.37,1.12,4.95.59,9.63.54,13.92.09l-.21-.38c-.3-.54-29.66-54.7-10.43-107.08,9.79-26.66,30.3-48.31,61.1-64.61-2.88,1.69-5.9,3.56-8.98,5.63-16.43,11.03-38.13,29.95-48.21,57.46-11.57,31.55-5.77,67.55,17.23,107,5.83-1.58,10.25-3.61,12.7-4.88-2.51-3.58-32.29-47.6-20.92-95.59,7.71-32.53,32.29-59.71,73.07-80.79l-.14-.33Z"/></g></svg>