<svg xmlns="http://www.w3.org/2000/svg" xmlns:xlink="http://www.w3.org/1999/xlink" xmlns:inkscape="http://www.inkscape.org/namespaces/inkscape" version="1.1" width="370" height="334" viewBox="2.00 2.00 369.75 334.50">
<defs>



<path id="font_4_13" d="M.050994874 .4580078 .051986696 .01499939C.051986696 .009002686 .054992677 .0029907227 .05999756 0 .06298828-.0020141602 .06599426-.0020141602 .068984989-.0020141602 .07199097-.0020141602 .07499695-.0020141602 .07699585 0 .08299255 .0029907227 .08699036 .009002686 .08699036 .01499939V.20507813H.22099304L.34799195 .009002686C.35099793 .0039978029 .35699464 0 .36299134 0 .36898805 0 .375 .0039978029 .37799073 .009994507 .37998963 .01499939 .37998963 .022003174 .3769989 .027008057L.26098634 .20507813H.27198792C.34599305 .20507813 .40699769 .2620697 .40699769 .33203126 .40699769 .40301515 .34599305 .4580078 .27198792 .4580078H.050994874M.08898926 .42500306H.27198792C.32899476 .42500306 .37298585 .38301087 .37298585 .33203126 .37298585 .28105165 .32899476 .24006653 .27198792 .24006653H.08898926V.42500306Z"/>
<path id="font_4_2" d="M.23999024 .46195985C.23298645 .46195985 .22698975 .45896913 .22399903 .45295716L.009994507 .024993897C.008987427 .021987915 .0079956059 .019989014 .0079956059 .016983033 .0079956059 .009994507 .011993408 .0029907227 .017990113 0 .019989014-.0010070801 .021987915 0 .023986817 0 .0309906 0 .036987306 .0029907227 .040985109 .009994507L.102996829 .13395691H.36698915L.4249878 .009994507C.42799378 .0029907227 .43499757 0 .44099427 0 .44400025 0 .44599916-.0010070801 .44799806 0 .45399476 .0029907227 .45799256 .009994507 .45799256 .016983033 .45799256 .019989014 .45700074 .021987915 .45599366 .024993897L.25498963 .45295716C.2519989 .45896913 .24699402 .46195985 .23999024 .46195985M.23899842 .40596009 .35099793 .16796875H.11999512L.23899842 .40596009Z"/>

<path id="font_4_7" d="M.04699707 .46191407C.040985109 .46191407 .034988405 .457901 .03199768 .45291139 .0309906 .4499054 .02999878 .4468994 .02999878 .4439087 .02999878 .4409027 .0309906 .437912 .03199768 .4359131 .034988405 .42990113 .040985109 .4269104 .04699707 .4269104H.07798767V.032989503H.04699707C.040985109 .032989503 .034988405 .02999878 .03199768 .024993897 .0309906 .021987915 .02999878 .018997193 .02999878 .015991211 .02999878 .0129852299 .0309906 .009994507 .03199768 .0069885256 .034988405 .0019989014 .040985109 0 .04699707 0H.14299011C.14898682 0 .15499878 .0019989014 .1579895 .0069885256 .1599884 .009994507 .16099549 .0129852299 .16099549 .015991211 .16099549 .018997193 .1599884 .021987915 .1579895 .024993897 .15499878 .02999878 .14898682 .032989503 .14299011 .032989503H.11199951V.4269104H.14299011C.14898682 .4269104 .15499878 .42990113 .1579895 .4359131 .1599884 .437912 .16099549 .4409027 .16099549 .4439087 .16099549 .4468994 .1599884 .4499054 .1579895 .45291139 .15499878 .457901 .14898682 .46191407 .14299011 .46191407H.04699707Z"/>
<path id="font_4_10" d="M.40299989 .4560547C.3929901 .4560547 .38598634 .44804383 .38598634 .43804933V.06500244L.08198547 .4490509C.07798767 .4550476 .069992069 .4570465 .06298828 .45404054 .056991579 .45204164 .051986696 .44604493 .051986696 .43804933V.016998291C.051986696 .0079956059 .05999756 0 .068984989 0 .07798767 0 .085998538 .0079956059 .085998538 .016998291V.39004518L.3889923 .005996704C.3939972 .0009918213 .40098573-.0020141602 .4079895 0 .4149933 .0019989014 .41999818 .009994507 .41999818 .016998291V.43804933C.41999818 .44303895 .41799928 .447052 .4149933 .4510498 .4119873 .45404054 .40699769 .4560547 .40299989 .4560547Z"/>

<path id="font_4_1" d=""/>
<path id="font_4_4" d="M.050994874 .46191407V0H.18998719C.32299806 0 .43099977 .10498047 .43099977 .23394776 .43099977 .36291505 .32199098 .46191407 .18998719 .46191407H.050994874M.083999637 .4289093H.18998719C.30599977 .4289093 .39698792 .34492494 .39698792 .23394776 .39698792 .12297058 .30499269 .033996583 .18998719 .033996583H.084991458C.084991458 .04899597 .083999637 .12997437 .083999637 .22595215V.37091065 .42190553 .4289093Z"/>





<path id="font_4_9" d="M.068984989 .4580078C.054992677 .4580078 .051986696 .44200135 .051986696 .43899537V.016998291C.051986696 .010986328 .054992677 .004989624 .05999756 .0019989014 .06298828 .0009918213 .06599426 0 .068984989 0 .070999149 0 .07398987 .0009918213 .07699585 .0019989014 .08198547 .004989624 .084991458 .010986328 .084991458 .016998291V.36799623L.2689972 .008987427C.27198792 .0039978029 .2769928 0 .28399659 0 .2899933 0 .29599 .0039978029 .29899598 .008987427L.48199464 .36799623V.016998291C.48199464 .010986328 .4850006 .004989624 .4909973 .0019989014 .49299623 .0009918213 .49598695 0 .49899293 0 .5019989 0 .5049896 .0009918213 .5079956 .0019989014 .5130005 .004989624 .5159912 .010986328 .5159912 .016998291V.43899537C.5159912 .44900514 .5099945 .4580078 .49899293 .4580078 .49299623 .4580078 .4869995 .45199586 .48399354 .44599916L.28399659 .054000856 .083999637 .44599916C.08099365 .45199586 .07499695 .4580078 .068984989 .4580078Z"/>









<path id="font_13_58" d="M0 0V.48828126C0 .56901046 .03141276 .6380208 .09423828 .6953125 .1570638 .7526042 .23307292 .78125 .32226563 .78125H.7519531V.5859375H.32226563C.29231773 .5859375 .2669271 .57633468 .24609375 .5571289 .22526042 .53792318 .21484375 .51497396 .21484375 .48828126V.390625H.7519531V.1953125H.21484375V0H0Z"/>
<path id="font_13_16" d="M0 0V.1953125H.390625C.45768229 .1953125 .5019531 .22786458 .5234375 .29296876H0V.48828126H.5234375C.5019531 .55338546 .45768229 .5859375 .390625 .5859375H0V.78125H.390625C.63151046 .78125 .7519531 .6510417 .7519531 .390625 .7519531 .13020833 .63151046 0 .390625 0H0Z"/>
<path id="font_13_19" d="M0 .29296876V.48828126C0 .56901046 .03141276 .6380208 .09423828 .6953125 .1570638 .7526042 .23307292 .78125 .32226563 .78125H.8203125V.5859375H.32226563C.29622398 .5859375 .2734375 .5786133 .25390626 .56396487 .234375 .5493164 .2220052 .53059896 .21679688 .5078125H.5566406C.63216146 .5078125 .694987 .48388673 .7451172 .43603517 .7952474 .3881836 .8203125 .32747398 .8203125 .25390626 .8203125 .22265625 .8147786 .19222005 .80371096 .16259766 .79264327 .13297527 .77652999 .10595703 .7553711 .08154297 .7342122 .057128908 .70654299 .037434896 .6723633 .022460938 .6381836 .007486979 .5996094 0 .5566406 0H.32226563C.23307292 0 .1570638 .028645834 .09423828 .0859375 .03141276 .14322917 0 .21223958 0 .29296876M.21484375 .3125V.29296876C.21484375 .26627604 .22526042 .24332683 .24609375 .2241211 .2669271 .20491536 .29231773 .1953125 .32226563 .1953125H.5371094C.5579427 .1953125 .57454428 .20117188 .58691409 .21289063 .5992839 .22460938 .60546877 .23828125 .60546877 .25390626 .60546877 .26953126 .5992839 .28320313 .58691409 .29492188 .57454428 .30664063 .5579427 .3125 .5371094 .3125H.21484375Z"/>
<path id="font_13_13" d="M.25585938 .5395508C.22851563 .5086263 .21484375 .45898438 .21484375 .390625 .21484375 .32226563 .22851563 .2726237 .25585938 .24169922 .28320313 .21077474 .31835938 .1953125 .36132813 .1953125H.7714844C.8144531 .1953125 .8496094 .21077474 .8769531 .24169922 .9042969 .2726237 .91796877 .32226563 .91796877 .390625 .91796877 .45898438 .9042969 .5086263 .8769531 .5395508 .8496094 .5704753 .8144531 .5859375 .7714844 .5859375H.36132813C.31835938 .5859375 .28320313 .5704753 .25585938 .5395508M.36132813 0C.12044271 0 0 .13020833 0 .390625 0 .6510417 .12044271 .78125 .36132813 .78125H.7714844C1.0123698 .78125 1.1328125 .6510417 1.1328125 .390625 1.1328125 .13020833 1.0123698 0 .7714844 0H.36132813Z"/>
<path id="font_13_53" d="M0 .5859375V.78125H.7714844C1.0123698 .78125 1.1328125 .6510417 1.1328125 .390625 1.1328125 .13020833 1.0123698 0 .7714844 0H.2783203C.23795574 0 .20133464 .0060221354 .16845703 .018066407 .13557942 .030110678 .10888672 .045247396 .088378909 .06347656 .067871097 .08170573 .05078125 .10221354 .037109376 .125 .0234375 .14778646 .013834636 .1694336 .008300781 .1899414 .002766927 .21044922 0 .22949219 0 .24707031 0 .3095703 .025390625 .36458335 .076171878 .41210938 .12695313 .4596354 .19433594 .48339845 .2783203 .48339845H.8203125V.29785157H.2783203C.26009117 .29785157 .24495442 .292806 .23291016 .28271485 .22086589 .2726237 .21484375 .2607422 .21484375 .24707031 .21484375 .23274739 .22086589 .22054036 .23291016 .21044922 .24495442 .20035808 .26009117 .1953125 .2783203 .1953125H.7714844C.8144531 .1953125 .8496094 .21077474 .8769531 .24169922 .9042969 .2726237 .91796877 .32226563 .91796877 .390625 .91796877 .45898438 .9042969 .5086263 .8769531 .5395508 .8496094 .5704753 .8144531 .5859375 .7714844 .5859375H0Z"/>
<path id="font_13_66" d="M.4296875 .15429688V.046875H.36132813C.33138023 .046875 .31640626 .057942708 .31640626 .080078128 .31640626 .09440104 .32389323 .104166667 .3388672 .109375L.30859376 .15429688H.3408203L.36914063 .11230469H.40234376V.15429688H.4296875M.40234376 .09277344H.36132813C.34960938 .09277344 .34375 .088541667 .34375 .080078128 .34375 .07096354 .34960938 .06640625 .36132813 .06640625H.40234376V.09277344M.4375 .16210938C.4205729 .17903646 .4000651 .1875 .37597657 .1875 .35188804 .1875 .33138023 .17903646 .31445313 .16210938 .29752604 .1451823 .2890625 .12467448 .2890625 .10058594 .2890625 .0764974 .29752604 .055989583 .31445313 .0390625 .33138023 .022135416 .35188804 .013671875 .37597657 .013671875 .4000651 .013671875 .4205729 .022135416 .4375 .0390625 .4544271 .055989583 .46289063 .0764974 .46289063 .10058594 .46289063 .12467448 .4544271 .1451823 .4375 .16210938M.3046875 .171875C.32421876 .19140625 .34798179 .20117188 .37597657 .20117188 .40397135 .20117188 .42773438 .19140625 .44726563 .171875 .46679688 .15234375 .4765625 .12858074 .4765625 .10058594 .4765625 .07259115 .46679688 .048828126 .44726563 .029296875 .42773438 .009765625 .40397135 0 .37597657 0 .34798179 0 .32421876 .009765625 .3046875 .029296875 .28515626 .048828126 .27539063 .07259115 .27539063 .10058594 .27539063 .12858074 .28515626 .15234375 .3046875 .171875M0 0V.40527345C0 .5094401 .036621095 .59814456 .10986328 .6713867 .18310547 .7446289 .2718099 .78125 .37597657 .78125 .48014323 .78125 .56884768 .7446289 .64208987 .6713867 .71533206 .59814456 .7519531 .5094401 .7519531 .40527345V0H.5371094V.4248047C.5371094 .46907554 .5213216 .5069987 .4897461 .5385742 .45817057 .5701497 .4202474 .5859375 .37597657 .5859375 .33170573 .5859375 .29378257 .5701497 .26220704 .5385742 .23063152 .5069987 .21484375 .46907554 .21484375 .4248047V0H0Z"/>
<path id="font_13_72" d="M0 .5859375V.78125H.78125V.5859375H.49804688V0H.28320313V.5859375H0Z"/>
<path id="font_13_61" d="M0 0V.78125H.21484375V0H0Z"/>
<path id="font_13_10" d="M0 .29296876V.48828126H.390625V.29296876H0Z"/>
<path id="font_13_59" d="M.36132813 0C.12044271 0 0 .13020833 0 .390625 0 .6510417 .12044271 .78125 .36132813 .78125H1.1328125V.5859375H.36132813C.31835938 .5859375 .28320313 .5704753 .25585938 .5395508 .22851563 .5086263 .21484375 .45898438 .21484375 .390625 .21484375 .32226563 .22851563 .2726237 .25585938 .24169922 .28320313 .21077474 .31835938 .1953125 .36132813 .1953125H.8544922C.8727214 .1953125 .8878581 .20035808 .89990237 .21044922 .9119466 .22054036 .91796877 .23274739 .91796877 .24707031 .91796877 .2607422 .9119466 .2726237 .89990237 .28271485 .8878581 .292806 .8727214 .29785157 .8544922 .29785157H.3125V.48339845H.8544922C.93847659 .48339845 1.0058594 .4596354 1.0566406 .41210938 1.1074219 .36458335 1.1328125 .3095703 1.1328125 .24707031 1.1328125 .22949219 1.1300455 .21044922 1.1245117 .1899414 1.1189779 .1694336 1.109375 .14778646 1.0957031 .125 1.0820313 .10221354 1.0649414 .08170573 1.0444336 .06347656 1.0239258 .045247396 .9972331 .030110678 .96435549 .018066407 .93147787 .0060221354 .89485678 0 .8544922 0H.36132813Z"/>
<path id="font_13_70" d="M0 0V.48828126C0 .56901046 .03141276 .6380208 .09423828 .6953125 .1570638 .7526042 .23307292 .78125 .32226563 .78125H.8203125C.86328127 .78125 .90185549 .773763 .93603518 .75878909 .97021487 .7438151 .9978841 .7241211 1.019043 .69970706 1.0402018 .67529299 1.0563151 .6482747 1.0673828 .61865237 1.0784506 .58902999 1.0839844 .55859377 1.0839844 .52734377 1.0839844 .45377604 1.0589193 .3930664 1.0087891 .34521485 .9586589 .29736329 .8958333 .2734375 .8203125 .2734375H.53222659C.5185547 .2734375 .5061849 .2680664 .4951172 .25732423 .48404948 .24658203 .47851563 .23404949 .47851563 .21972656 .47851563 .20540364 .48404948 .1928711 .4951172 .1821289 .5061849 .17138672 .5185547 .16601563 .53222659 .16601563H1.0839844V0H.5175781C.44205729 0 .38085938 .023763022 .33398438 .07128906 .28710938 .1188151 .26367188 .17317708 .26367188 .234375 .26367188 .29882813 .28938804 .3540039 .3408203 .39990235 .3922526 .44580079 .45117188 .46875 .5175781 .46875H.80078127C.82161459 .46875 .8382161 .47460938 .85058596 .48632813 .86295577 .49804688 .8691406 .51171877 .8691406 .52734377 .8691406 .54296877 .86295577 .5566406 .85058596 .5683594 .8382161 .5800781 .82161459 .5859375 .80078127 .5859375H.32226563C.29231773 .5859375 .2669271 .57633468 .24609375 .5571289 .22526042 .53792318 .21484375 .51497396 .21484375 .48828126V0H0Z"/>
<path id="font_13_74" d="M0 .37597657V.78125H.21484375V.3564453C.21484375 .31217448 .23063152 .2742513 .26220704 .24267578 .29378257 .21110027 .33170573 .1953125 .37597657 .1953125 .4202474 .1953125 .45817057 .21110027 .4897461 .24267578 .5213216 .2742513 .5371094 .31217448 .5371094 .3564453V.78125H.7519531V.37597657C.7519531 .2718099 .71533206 .18310547 .64208987 .10986328 .56884768 .036621095 .48014323 0 .37597657 0 .2718099 0 .18310547 .036621095 .10986328 .10986328 .036621095 .18310547 0 .2718099 0 .37597657Z"/>
<path id="font_13_77" d="M.32226563 .6269531V.734375H.390625C.4205729 .734375 .43554688 .7233073 .43554688 .7011719 .43554688 .68684896 .4280599 .6770833 .41308595 .671875L.44335938 .6269531H.4111328L.3828125 .6689453H.34960938V.6269531H.32226563M.34960938 .68847659H.390625C.40234376 .68847659 .40820313 .6927083 .40820313 .7011719 .40820313 .71028646 .40234376 .71484377 .390625 .71484377H.34960938V.68847659M.31445313 .6191406C.33138023 .60221359 .35188804 .59375 .37597657 .59375 .4000651 .59375 .4205729 .60221359 .4375 .6191406 .4544271 .6360677 .46289063 .6565755 .46289063 .68066409 .46289063 .7047526 .4544271 .72526046 .4375 .7421875 .4205729 .75911459 .4000651 .7675781 .37597657 .7675781 .35188804 .7675781 .33138023 .75911459 .31445313 .7421875 .29752604 .72526046 .2890625 .7047526 .2890625 .68066409 .2890625 .6565755 .29752604 .6360677 .31445313 .6191406M.44726563 .609375C.42773438 .58984377 .40397135 .5800781 .37597657 .5800781 .34798179 .5800781 .32421876 .58984377 .3046875 .609375 .28515626 .62890627 .27539063 .65266928 .27539063 .68066409 .27539063 .7086589 .28515626 .7324219 .3046875 .7519531 .32421876 .7714844 .34798179 .78125 .37597657 .78125 .40397135 .78125 .42773438 .7714844 .44726563 .7519531 .46679688 .7324219 .4765625 .7086589 .4765625 .68066409 .4765625 .65266928 .46679688 .62890627 .44726563 .609375M0 .56347659V.78125H.21484375V.5439453C.21484375 .49967448 .23063152 .4617513 .26220704 .43017579 .29378257 .39860026 .33170573 .3828125 .37597657 .3828125 .4202474 .3828125 .45817057 .39860026 .4897461 .43017579 .5213216 .4617513 .5371094 .49967448 .5371094 .5439453V.78125H.7519531V.56347659C.7519531 .47884117 .726888 .40348307 .6767578 .33740235 .6266276 .27132163 .5621745 .2265625 .48339845 .203125V0H.2685547V.203125C.18977864 .2265625 .12532552 .27132163 .07519531 .33740235 .025065104 .40348307 0 .47884117 0 .56347659Z"/>
<path id="font_13_55" d="M.36132813 0C.12044271 0 0 .13020833 0 .390625 0 .6510417 .12044271 .78125 .36132813 .78125H.78125V.5859375H.36132813C.31835938 .5859375 .28320313 .5704753 .25585938 .5395508 .22851563 .5086263 .21484375 .45898438 .21484375 .390625 .21484375 .32226563 .22851563 .2726237 .25585938 .24169922 .28320313 .21077474 .31835938 .1953125 .36132813 .1953125H.78125V0H.36132813Z"/>
<path id="font_13_64" d="M0 .29296876V.78125H.21484375V.29296876C.21484375 .26627604 .22526042 .24332683 .24609375 .2241211 .2669271 .20491536 .29231773 .1953125 .32226563 .1953125H.7519531V0H.32226563C.23307292 0 .1570638 .028645834 .09423828 .0859375 .03141276 .14322917 0 .21223958 0 .29296876Z"/>
<path id="font_13_57" d="M.36132813 0C.12044271 0 0 .13020833 0 .390625 0 .6510417 .12044271 .78125 .36132813 .78125H.8544922C.89485678 .78125 .93147787 .77522787 .96435549 .7631836 .9972331 .75113937 1.0239258 .7360026 1.0444336 .71777346 1.0649414 .69954428 1.0820313 .67903646 1.0957031 .65625 1.109375 .63346359 1.1189779 .6118164 1.1245117 .5913086 1.1300455 .5708008 1.1328125 .5517578 1.1328125 .5341797 1.1328125 .4716797 1.1074219 .41666667 1.0566406 .36914063 1.0058594 .3216146 .93847659 .29785157 .8544922 .29785157H.3125V.48339845H.8544922C.8727214 .48339845 .8878581 .488444 .89990237 .49853517 .9119466 .5086263 .91796877 .5205078 .91796877 .5341797 .91796877 .5485026 .9119466 .56070968 .89990237 .5708008 .8878581 .5808919 .8727214 .5859375 .8544922 .5859375H.36132813C.31835938 .5859375 .28320313 .5704753 .25585938 .5395508 .22851563 .5086263 .21484375 .45898438 .21484375 .390625 .21484375 .32226563 .22851563 .2726237 .25585938 .24169922 .28320313 .21077474 .31835938 .1953125 .36132813 .1953125H1.1328125V0H.36132813Z"/>
<path id="font_13_73" d="M.32226563 .6269531V.734375H.390625C.4205729 .734375 .43554688 .7233073 .43554688 .7011719 .43554688 .68684896 .4280599 .6770833 .41308595 .671875L.44335938 .6269531H.4111328L.3828125 .6689453H.34960938V.6269531H.32226563M.34960938 .68847659H.390625C.40234376 .68847659 .40820313 .6927083 .40820313 .7011719 .40820313 .71028646 .40234376 .71484377 .390625 .71484377H.34960938V.68847659M.31445313 .6191406C.33138023 .60221359 .35188804 .59375 .37597657 .59375 .4000651 .59375 .4205729 .60221359 .4375 .6191406 .4544271 .6360677 .46289063 .6565755 .46289063 .68066409 .46289063 .7047526 .4544271 .72526046 .4375 .7421875 .4205729 .75911459 .4000651 .7675781 .37597657 .7675781 .35188804 .7675781 .33138023 .75911459 .31445313 .7421875 .29752604 .72526046 .2890625 .7047526 .2890625 .68066409 .2890625 .6565755 .29752604 .6360677 .31445313 .6191406M.44726563 .609375C.42773438 .58984377 .40397135 .5800781 .37597657 .5800781 .34798179 .5800781 .32421876 .58984377 .3046875 .609375 .28515626 .62890627 .27539063 .65266928 .27539063 .68066409 .27539063 .7086589 .28515626 .7324219 .3046875 .7519531 .32421876 .7714844 .34798179 .78125 .37597657 .78125 .40397135 .78125 .42773438 .7714844 .44726563 .7519531 .46679688 .7324219 .4765625 .7086589 .4765625 .68066409 .4765625 .65266928 .46679688 .62890627 .44726563 .609375M0 .37597657V.78125H.21484375V.3564453C.21484375 .31217448 .23063152 .2742513 .26220704 .24267578 .29378257 .21110027 .33170573 .1953125 .37597657 .1953125 .4202474 .1953125 .45817057 .21110027 .4897461 .24267578 .5213216 .2742513 .5371094 .31217448 .5371094 .3564453V.78125H.7519531V.37597657C.7519531 .2718099 .71533206 .18310547 .64208987 .10986328 .56884768 .036621095 .48014323 0 .37597657 0 .2718099 0 .18310547 .036621095 .10986328 .10986328 .036621095 .18310547 0 .2718099 0 .37597657Z"/>




</defs>
<g>
<g>
<g>
<g>










<path transform="matrix(1,0,0,-1,-489.56,1156.56)" d="M655.578 1815.608H664.677V1819.641H655.578ZM653.611 1807.443V1819.641L655.578 1821.707H664.677L666.645 1819.641V1807.443H664.677V1813.542H655.578V1807.443Z" fill="#000000"/>

</g>
</g>
<g>
<path transform="matrix(1,0,0,-1,-489.56,1156.56)" d="M644.971 1613.861H625.242V1619.406H644.971ZM616.603 1628.045V1591.037H625.268V1592.052L625.312 1605.995H625.313V1605.221H653.611V1628.045ZM595.266 1599.677H575.537V1605.222H595.266ZM566.897 1619.406H595.266V1613.861H566.897V1591.037H603.905V1628.045H566.897ZM517.189 1605.221H545.558V1599.677H517.189V1591.037H554.198V1613.861H525.829V1619.406H554.198V1628.045H517.189ZM495.852 1599.677H476.123V1605.222H495.852ZM467.484 1619.406H495.852V1613.861H467.484V1591.037H504.492V1628.045H467.484Z" fill="#000000"/>


</g>
<g>
<g>
<path transform="matrix(1,0,0,-1,326.32289,4.688965)" d="M0 0-.118-.15C-1.64-2.088-151.27-195.435-169.281-212.583-182.924-225.571-188.435-237.29-221.111-242.947-245.566-247.181-272.187-233.194-286.963-221.874-292.215-217.851-296.853-213.71-300.727-209.95-286.468-218.724-260.514-232.417-235.045-234.178-233.595-234.278-232.174-234.326-230.768-234.326-195.551-234.323-174.301-204.021-174.098-203.723L-11.954 .578H-118.433L-144.058-34.554H-110.575C-117.155-42.58-183.206-123.115-201.571-144.021-204.855-147.76-207.974-151.51-210.991-155.137-224.882-171.84-236.879-186.265-256.304-189.759-260.583-190.53-264.763-190.867-268.81-190.867-297.834-190.866-319.858-173.472-320.108-173.272L-320.887-172.645-320.74-173.634C-318.787-186.786-312.783-200.563-312.031-202.254-306.674-219.081-296.278-236.108-288.088-247.906-278.291-262.02-269.477-271.902-269.384-272.006-245.623-297.408-219.806-314.599-192.65-323.102-174.504-328.783-159.16-329.662-147.566-329.662-144.733-329.662-142.122-329.609-139.75-329.561-138.843-329.543-137.976-329.55-137.154-329.513-127.932-329.088-103.746-325.742-83.942-305.35-64.83-285.671-.115-208.186 7.319-199.274V-232.998L42.626-191.577 42.719-191.468V-57.685L-124.533-261.592C-124.634-261.717-134.814-274.123-153.097-283.053-169.959-291.287-197.366-298.163-232.183-284.163-240.523-280.81-252.008-274.187-265.567-261.173-250.508-273.814-231.547-284.262-209.42-285.302-206.635-285.433-204.001-285.492-201.508-285.492-181.595-285.492-170.804-281.686-165.882-279.95-165.217-279.715-164.645-279.513-164.158-279.357-140.779-271.858-118.789-242.337-118.58-242.053L43.33-42.024 43.417-41.917V0Z" fill="#000000"/>
<path transform="matrix(1,0,0,-1,137.74658,7.822632)" d="M0 0-.098 .406C-.474 .348-38.118-5.687-73.02-29.104-93.531-42.867-109.101-59.851-119.295-79.585-131.882-103.95-136.255-132.59-132.307-164.723-127.285-168.454-118.19-174.563-107.305-178.934-107.193-178.948-107.083-178.968-106.97-178.981L-106.279-179.065-106.567-178.43C-106.779-177.963-127.549-131.156-106.559-83.157-95.717-58.364-75.907-37.645-47.459-21.222-64.034-31.879-82.977-48.066-94.946-71.05-111.34-102.533-111.574-140.073-95.641-182.627-93.542-183.106-91.413-183.493-89.264-183.75-84.303-184.345-79.615-184.286-75.321-183.836L-75.532-183.454C-75.831-182.912-105.237-128.671-85.974-76.216-76.168-49.514-55.628-27.829-24.787-11.514-27.674-13.205-30.692-15.08-33.779-17.152-50.23-28.197-71.963-47.147-82.065-74.701-93.651-106.299-87.839-142.35-64.81-181.863-58.973-180.279-54.543-178.251-52.087-176.978-54.596-173.388-84.423-129.305-73.04-81.241-65.323-48.662-40.701-21.439 .141-.328Z" fill="#000000"/>
</g>
</g>
</g>
</g>
</svg>