<svg xmlns="http://www.w3.org/2000/svg" xmlns:xlink="http://www.w3.org/1999/xlink" xmlns:inkscape="http://www.inkscape.org/namespaces/inkscape" version="1.1" width="834" height="251" viewBox="1.00 158.67 833.67 251.33">
<g>

<path transform="matrix(1,0,0,-1,0,595.28)" stroke-width="3" stroke-linecap="butt" stroke-miterlimit="10" stroke-linejoin="miter" fill="none" stroke="#ffffff" d="M8.667 428.947H827.334V192.94699H8.667Z"/>
</g>
<g>
<g>
<path transform="matrix(1,0,0,-1,305.6663,304.83085)" d="M0 0V-.008C-3.19-.008-6.382 .044-9.571-.02-15.499-.139-20.839-4.594-21.732-10.444-22.148-13.168-22.035-15.987-22.008-18.762-21.942-25.741-16.269-31.41-9.306-31.465-3.111-31.514 3.085-31.511 9.28-31.467 15.197-31.424 20.461-27.319 21.598-21.509 22.139-18.744 22.05-15.833 22.039-12.989 22.012-5.713 16.276-.043 9.015-.003 6.01 .014 3.005 0 0 0M-18.693-84.159H-54.195C-54.195-82.156-54.2-80.203-54.194-78.25-54.181-74.245-54.246-70.237-54.126-66.234-53.931-59.756-50.8-54.92-45.481-51.398-42.639-49.516-39.517-48.282-36.215-47.48-35.893-47.402-35.573-47.316-35.156-47.209-35.237-46.286-35.317-45.379-35.393-44.511-43.169-42.96-48.343-38.162-52.006-31.509-54.837-26.366-56.152-20.754-56.728-14.954-57.143-10.777-57.273-6.602-56.783-2.412-55.524 8.362-50.05 16.223-40.519 21.299-34.731 24.381-28.503 26.178-22.053 27.07-17.145 27.748-12.187 28.23-7.238 28.403-.841 28.627 5.581 28.688 11.972 28.4 20.264 28.026 28.47 26.881 36.261 23.756 42.819 21.126 48.384 17.225 52.178 11.112 54.89 6.742 56.287 1.915 56.77-3.15 57.453-10.314 57.165-17.454 55.474-24.478 53.932-30.884 50.839-36.253 44.888-39.584 41.649-41.397 38.127-42.385 34.497-43.024 26.973-44.348 19.37-44.304 11.767-44.4 5.26-44.481-1.171-45.198-7.196-47.924-12.205-50.19-16.213-53.51-18.02-58.915-18.435-60.156-18.651-61.519-18.664-62.829-18.727-69.507-18.693-76.186-18.693-82.864-18.693-83.265-18.693-83.666-18.693-84.159" fill="#f69f37"/>
<path transform="matrix(1,0,0,-1,305.6663,304.83085)" stroke-width="3" stroke-linecap="butt" stroke-miterlimit="10" stroke-linejoin="miter" fill="none" stroke="#ffffff" d="M0 0V-.008C-3.19-.008-6.382 .044-9.571-.02-15.499-.139-20.839-4.594-21.732-10.444-22.148-13.168-22.035-15.987-22.008-18.762-21.942-25.741-16.269-31.41-9.306-31.465-3.111-31.514 3.085-31.511 9.28-31.467 15.197-31.424 20.461-27.319 21.598-21.509 22.139-18.744 22.05-15.833 22.039-12.989 22.012-5.713 16.276-.043 9.015-.003 6.01 .014 3.005 0 0 0ZM-18.693-84.159H-54.195C-54.195-82.156-54.2-80.203-54.194-78.25-54.181-74.245-54.246-70.237-54.126-66.234-53.931-59.756-50.8-54.92-45.481-51.398-42.639-49.516-39.517-48.282-36.215-47.48-35.893-47.402-35.573-47.316-35.156-47.209-35.237-46.286-35.317-45.379-35.393-44.511-43.169-42.96-48.343-38.162-52.006-31.509-54.837-26.366-56.152-20.754-56.728-14.954-57.143-10.777-57.273-6.602-56.783-2.412-55.524 8.362-50.05 16.223-40.519 21.299-34.731 24.381-28.503 26.178-22.053 27.07-17.145 27.748-12.187 28.23-7.238 28.403-.841 28.627 5.581 28.688 11.972 28.4 20.264 28.026 28.47 26.881 36.261 23.756 42.819 21.126 48.384 17.225 52.178 11.112 54.89 6.742 56.287 1.915 56.77-3.15 57.453-10.314 57.165-17.454 55.474-24.478 53.932-30.884 50.839-36.253 44.888-39.584 41.649-41.397 38.127-42.385 34.497-43.024 26.973-44.348 19.37-44.304 11.767-44.4 5.26-44.481-1.171-45.198-7.196-47.924-12.205-50.19-16.213-53.51-18.02-58.915-18.435-60.156-18.651-61.519-18.664-62.829-18.727-69.507-18.693-76.186-18.693-82.864-18.693-83.265-18.693-83.666-18.693-84.159Z"/>
<path transform="matrix(1,0,0,-1,394.4639,276.98603)" d="M0 0C-.075 .897-.148 1.771-.195 2.329-2.714 3.212-5.155 3.786-7.33 4.886-12.993 7.748-16.198 12.692-18.156 18.549-19.325 22.048-19.938 25.659-20.164 29.334-20.277 31.175-20.415 33.023-20.374 34.865-20.165 44.207-17.163 52.346-9.951 58.626-5.658 62.364-.674 64.836 4.694 66.597 10.466 68.49 16.395 69.685 22.455 69.843 30.897 70.063 39.347 70 47.794 70.054 48.008 70.056 48.222 70.017 48.495 69.992V40.441C48.038 40.441 47.643 40.441 47.249 40.441 40.051 40.448 32.852 40.449 25.654 40.466 19.821 40.479 15.898 37.316 14.698 31.586 13.861 27.588 14.355 23.681 15.94 19.98 17.647 15.999 20.748 13.92 25.185 13.986 28.073 14.029 30.962 13.994 33.936 13.994V-13.65C33.505-13.65 33.072-13.646 32.639-13.65 29.19-13.683 25.714-13.457 22.299-13.811 16.732-14.389 13.358-17.552 12.181-23.034 11.704-25.254 11.402-27.587 11.519-29.843 11.692-33.187 13.256-36.002 15.909-38.132 19.588-41.085 23.917-42.517 28.499-42.977 32.138-43.342 35.83-43.212 39.498-43.257 42.464-43.294 45.43-43.265 48.478-43.265V-72.819C48.122-72.838 47.798-72.87 47.474-72.87 37.752-72.871 28.028-72.996 18.309-72.833 8.663-72.671-.406-70.299-8.369-64.62-16.54-58.792-20.899-50.689-22.186-40.826-23.145-33.479-22.686-26.242-20.191-19.246-16.754-9.609-10.191-3.13-.291-.188-.224-.168-.167-.11 0 0" fill="#f69f37"/>
<path transform="matrix(1,0,0,-1,394.4639,276.98603)" stroke-width="3" stroke-linecap="butt" stroke-miterlimit="10" stroke-linejoin="miter" fill="none" stroke="#ffffff" d="M0 0C-.075 .897-.148 1.771-.195 2.329-2.714 3.212-5.155 3.786-7.33 4.886-12.993 7.748-16.198 12.692-18.156 18.549-19.325 22.048-19.938 25.659-20.164 29.334-20.277 31.175-20.415 33.023-20.374 34.865-20.165 44.207-17.163 52.346-9.951 58.626-5.658 62.364-.674 64.836 4.694 66.597 10.466 68.49 16.395 69.685 22.455 69.843 30.897 70.063 39.347 70 47.794 70.054 48.008 70.056 48.222 70.017 48.495 69.992V40.441C48.038 40.441 47.643 40.441 47.249 40.441 40.051 40.448 32.852 40.449 25.654 40.466 19.821 40.479 15.898 37.316 14.698 31.586 13.861 27.588 14.355 23.681 15.94 19.98 17.647 15.999 20.748 13.92 25.185 13.986 28.073 14.029 30.962 13.994 33.936 13.994V-13.65C33.505-13.65 33.072-13.646 32.639-13.65 29.19-13.683 25.714-13.457 22.299-13.811 16.732-14.389 13.358-17.552 12.181-23.034 11.704-25.254 11.402-27.587 11.519-29.843 11.692-33.187 13.256-36.002 15.909-38.132 19.588-41.085 23.917-42.517 28.499-42.977 32.138-43.342 35.83-43.212 39.498-43.257 42.464-43.294 45.43-43.265 48.478-43.265V-72.819C48.122-72.838 47.798-72.87 47.474-72.87 37.752-72.871 28.028-72.996 18.309-72.833 8.663-72.671-.406-70.299-8.369-64.62-16.54-58.792-20.899-50.689-22.186-40.826-23.145-33.479-22.686-26.242-20.191-19.246-16.754-9.609-10.191-3.13-.291-.188-.224-.168-.167-.11 0 0Z"/>
<path transform="matrix(1,0,0,-1,138.4859,278.16105)" d="M0 0H29.552C29.573-.325 29.611-.646 29.611-.967 29.613-10.614 29.748-20.264 29.569-29.907 29.383-39.924 26.947-49.329 20.841-57.505 15.526-64.62 8.35-68.781-.328-70.296-8.377-71.701-16.382-71.397-24.129-68.604-33.624-65.181-40.057-58.707-43.023-48.953-43.065-48.815-43.15-48.689-43.262-48.465-44.151-48.531-45.059-48.599-45.977-48.667-46.62-54.246-49.122-58.684-53.374-62.136-56.148-64.387-59.309-65.923-62.733-66.875-70.46-69.021-78.298-69.591-86.156-67.826-95.602-65.703-102.189-59.84-106.644-51.416-109.997-45.078-111.765-38.251-112.653-31.185-113.941-20.947-113.087-10.655-113.31-.39-113.313-.287-113.261-.183-113.217-.013H-84.708C-84.671-.201-84.6-.409-84.593-.619-84.446-4.981-84.338-9.345-84.156-13.706-84.003-17.39-83.97-21.095-83.518-24.746-82.902-29.733-80.025-32.656-75.1-33.681-70.811-34.575-66.601-34.128-62.66-32.222-58.981-30.443-57.207-27.37-57.26-23.249-57.296-20.362-57.267-17.474-57.267-14.509H-29.616C-29.616-14.904-29.617-15.298-29.616-15.692-29.613-18.846-29.655-22.001-29.597-25.154-29.502-30.351-26.663-34.217-21.733-35.84-18.793-36.808-15.777-37.221-12.67-36.805-8.495-36.246-5.634-33.832-3.613-30.328-1.254-26.235-.114-21.755-.023-17.056 .078-11.79 0-6.519 0-1.251Z" fill="#f69f37"/>
<path transform="matrix(1,0,0,-1,138.4859,278.16105)" stroke-width="3" stroke-linecap="butt" stroke-miterlimit="10" stroke-linejoin="miter" fill="none" stroke="#ffffff" d="M0 0H29.552C29.573-.325 29.611-.646 29.611-.967 29.613-10.614 29.748-20.264 29.569-29.907 29.383-39.924 26.947-49.329 20.841-57.505 15.526-64.62 8.35-68.781-.328-70.296-8.377-71.701-16.382-71.397-24.129-68.604-33.624-65.181-40.057-58.707-43.023-48.953-43.065-48.815-43.15-48.689-43.262-48.465-44.151-48.531-45.059-48.599-45.977-48.667-46.62-54.246-49.122-58.684-53.374-62.136-56.148-64.387-59.309-65.923-62.733-66.875-70.46-69.021-78.298-69.591-86.156-67.826-95.602-65.703-102.189-59.84-106.644-51.416-109.997-45.078-111.765-38.251-112.653-31.185-113.941-20.947-113.087-10.655-113.31-.39-113.313-.287-113.261-.183-113.217-.013H-84.708C-84.671-.201-84.6-.409-84.593-.619-84.446-4.981-84.338-9.345-84.156-13.706-84.003-17.39-83.97-21.095-83.518-24.746-82.902-29.733-80.025-32.656-75.1-33.681-70.811-34.575-66.601-34.128-62.66-32.222-58.981-30.443-57.207-27.37-57.26-23.249-57.296-20.362-57.267-17.474-57.267-14.509H-29.616C-29.616-14.904-29.617-15.298-29.616-15.692-29.613-18.846-29.655-22.001-29.597-25.154-29.502-30.351-26.663-34.217-21.733-35.84-18.793-36.808-15.777-37.221-12.67-36.805-8.495-36.246-5.634-33.832-3.613-30.328-1.254-26.235-.114-21.755-.023-17.056 .078-11.79 0-6.519 0-1.251V0Z"/>
<path transform="matrix(1,0,0,-1,733.8195,276.46763)" d="M0 0C-2.823 .33-5.644 .677-8.469 .985-12.9 1.469-17.285 2.144-21.432 3.886-28.603 6.9-32.472 12.317-32.854 20.057-33.062 24.266-32.891 28.493-32.891 32.795H2.121C2.121 32.367 2.115 31.937 2.122 31.506 2.167 28.838 2.008 26.144 2.337 23.512 2.555 21.765 3.29 20.009 4.12 18.429 5.661 15.497 8.014 13.817 11.577 14.048 14.45 14.234 17.344 14.085 20.288 14.085V-13.122C18.048-13.319 15.804-13.314 13.656-13.762 11.469-14.218 9.244-14.863 7.268-15.878 3.16-17.988 .986-21.567 .751-26.173 .617-28.792 .472-31.484 .91-34.044 1.949-40.106 7.062-44.078 13.491-44.142 19.354-44.201 25.217-44.221 31.079-44.21 37.278-44.197 42.91-38.465 42.842-32.305 42.827-30.976 42.84-29.647 42.84-28.105H79.678C79.697-28.259 79.761-28.544 79.763-28.828 79.782-32.427 79.92-36.031 79.781-39.624 79.448-48.224 76.635-55.785 70.03-61.617 65.32-65.777 59.734-68.288 53.77-70.027 46.797-72.061 39.644-73.103 32.407-73.361 25.626-73.603 18.82-73.846 12.05-73.541 2.128-73.094-7.729-71.914-16.957-67.807-27.82-62.973-34.243-54.736-35.765-42.872-36.149-39.873-36.404-36.832-36.379-33.813-36.353-30.755-35.931-27.699-35.635-24.646-35.454-22.781-35.353-20.884-34.922-19.071-33.59-13.469-29.847-9.706-25.082-6.861-20.084-3.875-14.63-2.178-8.86-1.454-5.899-1.083-2.944-.667 .013-.271 .009-.18 .004-.09 0 0" fill="#f69f37"/>
<path transform="matrix(1,0,0,-1,733.8195,276.46763)" stroke-width="3" stroke-linecap="butt" stroke-miterlimit="10" stroke-linejoin="miter" fill="none" stroke="#ffffff" d="M0 0C-2.823 .33-5.644 .677-8.469 .985-12.9 1.469-17.285 2.144-21.432 3.886-28.603 6.9-32.472 12.317-32.854 20.057-33.062 24.266-32.891 28.493-32.891 32.795H2.121C2.121 32.367 2.115 31.937 2.122 31.506 2.167 28.838 2.008 26.144 2.337 23.512 2.555 21.765 3.29 20.009 4.12 18.429 5.661 15.497 8.014 13.817 11.577 14.048 14.45 14.234 17.344 14.085 20.288 14.085V-13.122C18.048-13.319 15.804-13.314 13.656-13.762 11.469-14.218 9.244-14.863 7.268-15.878 3.16-17.988 .986-21.567 .751-26.173 .617-28.792 .472-31.484 .91-34.044 1.949-40.106 7.062-44.078 13.491-44.142 19.354-44.201 25.217-44.221 31.079-44.21 37.278-44.197 42.91-38.465 42.842-32.305 42.827-30.976 42.84-29.647 42.84-28.105H79.678C79.697-28.259 79.761-28.544 79.763-28.828 79.782-32.427 79.92-36.031 79.781-39.624 79.448-48.224 76.635-55.785 70.03-61.617 65.32-65.777 59.734-68.288 53.77-70.027 46.797-72.061 39.644-73.103 32.407-73.361 25.626-73.603 18.82-73.846 12.05-73.541 2.128-73.094-7.729-71.914-16.957-67.807-27.82-62.973-34.243-54.736-35.765-42.872-36.149-39.873-36.404-36.832-36.379-33.813-36.353-30.755-35.931-27.699-35.635-24.646-35.454-22.781-35.353-20.884-34.922-19.071-33.59-13.469-29.847-9.706-25.082-6.861-20.084-3.875-14.63-2.178-8.86-1.454-5.899-1.083-2.944-.667 .013-.271 .009-.18 .004-.09 0 0Z"/>
<path transform="matrix(1,0,0,-1,509.8699,321.41374)" d="M0 0V.01C3.153 .01 6.308-.044 9.46 .022 15.275 .144 20.428 4.113 21.576 9.794 22.162 12.695 22.064 15.762 22.044 18.752 21.998 25.749 16.219 31.44 9.222 31.476 3.1 31.508-3.021 31.503-9.142 31.477-15.049 31.453-20.306 27.502-21.519 21.738-22.106 18.952-21.994 15.996-21.999 13.116-22.012 5.676-16.352 .054-8.904 .003-5.936-.017-2.968 0 0 0M2.445 44.372C12.056 44.372 21.667 44.453 31.276 44.327 34.48 44.285 37.73 43.973 40.867 43.332 47.412 41.993 51.582 37.797 53.9 31.632 55.652 26.972 56.426 22.107 56.755 17.182 57.003 13.448 57.127 9.691 57.031 5.952 56.687-7.556 50.24-17.057 37.932-22.578 31.931-25.269 25.575-26.63 19.097-27.569 9.862-28.906 .578-28.913-8.704-28.608-17.877-28.306-26.972-27.297-35.639-23.985-42.605-21.323-48.501-17.266-52.403-10.716-54.933-6.467-56.409-1.826-56.689 3.063-56.967 7.9-57.066 12.791-56.666 17.61-56.181 23.451-54.897 29.182-51.492 34.175-48.008 39.284-42.973 41.948-37.091 43.248-33.311 44.084-29.475 44.381-25.607 44.376-16.256 44.364-6.905 44.372 2.445 44.372" fill="#f69f37"/>
<path transform="matrix(1,0,0,-1,509.8699,321.41374)" stroke-width="3" stroke-linecap="butt" stroke-miterlimit="10" stroke-linejoin="miter" fill="none" stroke="#ffffff" d="M0 0V.01C3.153 .01 6.308-.044 9.46 .022 15.275 .144 20.428 4.113 21.576 9.794 22.162 12.695 22.064 15.762 22.044 18.752 21.998 25.749 16.219 31.44 9.222 31.476 3.1 31.508-3.021 31.503-9.142 31.477-15.049 31.453-20.306 27.502-21.519 21.738-22.106 18.952-21.994 15.996-21.999 13.116-22.012 5.676-16.352 .054-8.904 .003-5.936-.017-2.968 0 0 0ZM2.445 44.372C12.056 44.372 21.667 44.453 31.276 44.327 34.48 44.285 37.73 43.973 40.867 43.332 47.412 41.993 51.582 37.797 53.9 31.632 55.652 26.972 56.426 22.107 56.755 17.182 57.003 13.448 57.127 9.691 57.031 5.952 56.687-7.556 50.24-17.057 37.932-22.578 31.931-25.269 25.575-26.63 19.097-27.569 9.862-28.906 .578-28.913-8.704-28.608-17.877-28.306-26.972-27.297-35.639-23.985-42.605-21.323-48.501-17.266-52.403-10.716-54.933-6.467-56.409-1.826-56.689 3.063-56.967 7.9-57.066 12.791-56.666 17.61-56.181 23.451-54.897 29.182-51.492 34.175-48.008 39.284-42.973 41.948-37.091 43.248-33.311 44.084-29.475 44.381-25.607 44.376-16.256 44.364-6.905 44.372 2.445 44.372Z"/>
<path transform="matrix(1,0,0,-1,577.55,293.60853)" d="M0 0H34.102C34.124-.423 34.162-.813 34.162-1.203 34.162-5.619 34.132-10.034 34.157-14.45 34.193-20.6 38.08-25.555 43.91-26.708 45.6-27.042 47.379-26.978 49.118-26.999 53.273-27.047 57.435-26.907 61.584-27.079 68.671-27.372 74.619-21.99 74.563-14.191 74.533-9.887 74.576-5.582 74.585-1.278 74.586-.882 74.585-.486 74.585-.093H108.621C108.79-2.264 109.037-4.321 109.093-6.383 109.233-11.601 109.411-16.823 109.342-22.04 109.265-27.825 107.994-33.359 104.993-38.394 101.259-44.66 95.622-48.6 89.026-51.315 83.367-53.643 77.418-54.812 71.374-55.607 63.147-56.689 54.884-56.684 46.623-56.422 37.788-56.142 29.042-55.135 20.693-51.987 13.402-49.237 7.359-44.909 3.52-37.92 1.31-33.898 .13-29.553-.373-25.025-1.046-18.966-.673-12.891-.48-6.823-.422-5.007-.28-3.194-.165-1.38-.137-.945-.063-.513 0 0" fill="#f69f37"/>
<path transform="matrix(1,0,0,-1,577.55,293.60853)" stroke-width="3" stroke-linecap="butt" stroke-miterlimit="10" stroke-linejoin="miter" fill="none" stroke="#ffffff" d="M0 0H34.102C34.124-.423 34.162-.813 34.162-1.203 34.162-5.619 34.132-10.034 34.157-14.45 34.193-20.6 38.08-25.555 43.91-26.708 45.6-27.042 47.379-26.978 49.118-26.999 53.273-27.047 57.435-26.907 61.584-27.079 68.671-27.372 74.619-21.99 74.563-14.191 74.533-9.887 74.576-5.582 74.585-1.278 74.586-.882 74.585-.486 74.585-.093H108.621C108.79-2.264 109.037-4.321 109.093-6.383 109.233-11.601 109.411-16.823 109.342-22.04 109.265-27.825 107.994-33.359 104.993-38.394 101.259-44.66 95.622-48.6 89.026-51.315 83.367-53.643 77.418-54.812 71.374-55.607 63.147-56.689 54.884-56.684 46.623-56.422 37.788-56.142 29.042-55.135 20.693-51.987 13.402-49.237 7.359-44.909 3.52-37.92 1.31-33.898 .13-29.553-.373-25.025-1.046-18.966-.673-12.891-.48-6.823-.422-5.007-.28-3.194-.165-1.38-.137-.945-.063-.513 0 0Z"/>
<path transform="matrix(1,0,0,-1,236.2545,320.31224)" d="M0 0V-28.933C-.218-28.983-.392-29.052-.568-29.058-10.327-29.408-19.986-28.765-29.402-25.964-36.166-23.952-42.408-20.959-47.435-15.848-52.421-10.779-55.332-4.615-55.612 2.42-55.963 11.227-55.697 20.058-55.697 28.954H-20.225C-20.225 28.57-20.224 28.181-20.225 27.792-20.241 23.081-20.394 18.364-20.231 13.658-20.101 9.921-18.337 6.856-15.381 4.538-12.312 2.131-8.71 1.063-4.924 .522-3.318 .292-1.695 .176 0 0" fill="#f69f37"/>
<path transform="matrix(1,0,0,-1,236.2545,320.31224)" stroke-width="3" stroke-linecap="butt" stroke-miterlimit="10" stroke-linejoin="miter" fill="none" stroke="#ffffff" d="M0 0V-28.933C-.218-28.983-.392-29.052-.568-29.058-10.327-29.408-19.986-28.765-29.402-25.964-36.166-23.952-42.408-20.959-47.435-15.848-52.421-10.779-55.332-4.615-55.612 2.42-55.963 11.227-55.697 20.058-55.697 28.954H-20.225C-20.225 28.57-20.224 28.181-20.225 27.792-20.241 23.081-20.394 18.364-20.231 13.658-20.101 9.921-18.337 6.856-15.381 4.538-12.312 2.131-8.71 1.063-4.924 .522-3.318 .292-1.695 .176 0 0Z"/>
<path transform="matrix(1,0,0,-1,199.4844,237.18842)" d="M0 0C2.894 0 5.788 .011 8.682-.002 14.743-.029 19.157-4.429 19.147-10.466 19.143-12.725 19.265-15.015 18.949-17.236 18.252-22.142 14.154-25.69 9.176-25.763 3.092-25.852-2.995-25.86-9.078-25.765-14.839-25.674-19.132-21.222-19.132-15.469-19.132-12.99-19.263-10.467-18.864-8.041-18.107-3.445-13.904-.079-9.238-.014-6.159 .03-3.079-.005 0-.005Z" fill="#f6a037"/>
<path transform="matrix(1,0,0,-1,199.4844,237.18842)" stroke-width="3" stroke-linecap="butt" stroke-miterlimit="10" stroke-linejoin="miter" fill="none" stroke="#ffffff" d="M0 0C2.894 0 5.788 .011 8.682-.002 14.743-.029 19.157-4.429 19.147-10.466 19.143-12.725 19.265-15.015 18.949-17.236 18.252-22.142 14.154-25.69 9.176-25.763 3.092-25.852-2.995-25.86-9.078-25.765-14.839-25.674-19.132-21.222-19.132-15.469-19.132-12.99-19.263-10.467-18.864-8.041-18.107-3.445-13.904-.079-9.238-.014-6.159 .03-3.079-.005 0-.005V0Z"/>
<path transform="matrix(1,0,0,-1,788.3985,236.19824)" d="M0 0H-12.081V29.441H6.351C4.231 19.611 2.12 9.827 0 0" fill="#f6a037"/>
<path transform="matrix(1,0,0,-1,788.3985,236.19824)" stroke-width="3" stroke-linecap="butt" stroke-miterlimit="10" stroke-linejoin="miter" fill="none" stroke="#ffffff" d="M0 0H-12.081V29.441H6.351C4.231 19.611 2.12 9.827 0 0Z"/>
<path transform="matrix(1,0,0,-1,453.86,206.95954)" d="M0 0H18.379C16.255-9.847 14.143-19.636 12.022-29.468H0Z" fill="#f6a037"/>
<path transform="matrix(1,0,0,-1,453.86,206.95954)" stroke-width="3" stroke-linecap="butt" stroke-miterlimit="10" stroke-linejoin="miter" fill="none" stroke="#ffffff" d="M0 0H18.379C16.255-9.847 14.143-19.636 12.022-29.468H0V0Z"/>
<path transform="matrix(1,0,0,-1,798.0886,206.73905)" d="M0 0H18.393C16.264-9.865 14.15-19.66 12.035-29.462H0Z" fill="#f6a037"/>
<path transform="matrix(1,0,0,-1,798.0886,206.73905)" stroke-width="3" stroke-linecap="butt" stroke-miterlimit="10" stroke-linejoin="miter" fill="none" stroke="#ffffff" d="M0 0H18.393C16.264-9.865 14.15-19.66 12.035-29.462H0V0Z"/>
<path transform="matrix(1,0,0,-1,305.6663,304.83085)" stroke-width="3" stroke-linecap="butt" stroke-miterlimit="10" stroke-linejoin="miter" fill="none" stroke="#ffffff" d="M0 0C3.005 0 6.01 .014 9.015-.003 16.276-.043 22.012-5.713 22.039-12.989 22.05-15.833 22.139-18.744 21.598-21.509 20.461-27.319 15.197-31.424 9.28-31.467 3.085-31.511-3.111-31.514-9.306-31.465-16.269-31.41-21.942-25.741-22.008-18.762-22.035-15.987-22.148-13.168-21.732-10.444-20.839-4.594-15.499-.139-9.571-.02-6.382 .044-3.19-.008 0-.008V0Z"/>
<path transform="matrix(1,0,0,-1,509.8699,321.41374)" stroke-width="3" stroke-linecap="butt" stroke-miterlimit="10" stroke-linejoin="miter" fill="none" stroke="#ffffff" d="M0 0C-2.968 0-5.936-.017-8.904 .003-16.352 .054-22.012 5.676-21.999 13.116-21.994 15.996-22.106 18.952-21.519 21.738-20.306 27.502-15.049 31.453-9.142 31.477-3.021 31.503 3.1 31.508 9.222 31.476 16.219 31.44 21.998 25.749 22.044 18.752 22.064 15.762 22.162 12.695 21.576 9.794 20.428 4.113 15.275 .144 9.46 .022 6.308-.044 3.153 .01 0 .01V0Z"/>
</g>
</g>
</svg>