<svg xmlns="http://www.w3.org/2000/svg" xmlns:xlink="http://www.w3.org/1999/xlink" xmlns:inkscape="http://www.inkscape.org/namespaces/inkscape" version="1.1" width="706" height="179" viewBox="102.00 222.33 706.00 179.00">
<defs>



<path id="font_4_53" d="M.08984375 0V.6269531H.26513673C.33805339 .6269531 .38867188 .62092086 .4169922 .6088562 .47753907 .58376058 .5078125 .5394338 .5078125 .47587586 .5078125 .43219505 .49690757 .3957672 .47509767 .3665924 .45328776 .3374176 .41682945 .31028239 .36572267 .28518678L.58740237 0H.47070313L.27294923 .2607422H.18603516V0H.08984375M.18603516 .3330078H.2368164C.28857423 .3330078 .32958985 .3444519 .35986329 .3673401 .39013673 .39022828 .40527345 .42112733 .40527345 .46003724 .40527345 .49632264 .39388023 .521169 .37109376 .5345764 .34830729 .5479838 .3063151 .5546875 .24511719 .5546875H.18603516V.3330078Z"/>
</defs>
<g>
<g>
<path transform="matrix(1,0,0,-1,680.3577,327.28004)" d="M0 0-3.147-12.72H-86.279L-88.451-21.5H-5.319L-8.573-34.22H-91.597L-93.676-42.625H-10.544L-13.691-55.345H-104.121C-108.73-55.345-112.112-51.015-110.996-46.543L-101.141-7.04C-101.141-7.04-100.59-4.314-103.278-4.314-105.747-4.314-106.361-7.04-106.361-7.04L-107.766-12.72H-191.823L-193.995-21.5H-118.981C-114.381-21.5-111-25.814-112.099-30.281L-115.084-42.403C-116.955-50.003-123.772-55.345-131.599-55.345H-313.844C-318.447-55.345-321.829-51.025-320.723-46.557L-310.948-7.04C-310.948-7.04-310.418-4.314-313.139-4.314-315.637-4.314-316.182-7.04-316.182-7.04L-324.895-42.261C-326.773-49.852-333.585-55.184-341.405-55.184H-421.29C-425.893-55.184-429.275-50.864-428.169-46.396L-423.752-28.54C-423.752-28.54-423.169-25.814-425.858-25.814-428.326-25.814-428.908-28.54-428.908-28.54L-432.354-42.307C-434.249-49.875-441.051-55.184-448.853-55.184H-521.358L-524.023-66.387H-540.275L-537.061-53.395C-535.496-47.069-529.819-42.625-523.302-42.625H-448.733L-441.326-12.72H-510.774L-516.045-34.241C-529.233-34.241-533.072-37.531-533.072-37.531L-527.049-12.924C-525.172-5.332-518.359 0-510.539 0H-430.842C-426.231 0-422.848-4.334-423.968-8.808L-427.145-21.501-422.011-21.5H-405.758L-410.984-42.625H-341.238L-330.693 0H-292.954L-303.498-42.625H-220.708L-222.113-48.305C-222.113-48.305-222.656-51.031-219.967-51.031-217.499-51.031-216.878-48.305-216.878-48.305L-215.473-42.625H-131.416L-129.445-34.658-204.469-34.267C-209.066-34.243-212.424-29.917-211.307-25.458L-208.154-12.874C-206.258-5.307-199.457 0-191.656 0Z" fill="#ffffff"/>
<path transform="matrix(1,0,0,-1,680.3577,327.28004)" stroke-width="3" stroke-linecap="butt" stroke-miterlimit="10" stroke-linejoin="miter" fill="none" stroke="#33a9e1" d="M0 0-3.147-12.72H-86.279L-88.451-21.5H-5.319L-8.573-34.22H-91.597L-93.676-42.625H-10.544L-13.691-55.345H-104.121C-108.73-55.345-112.112-51.015-110.996-46.543L-101.141-7.04C-101.141-7.04-100.59-4.314-103.278-4.314-105.747-4.314-106.361-7.04-106.361-7.04L-107.766-12.72H-191.823L-193.995-21.5H-118.981C-114.381-21.5-111-25.814-112.099-30.281L-115.084-42.403C-116.955-50.003-123.772-55.345-131.599-55.345H-313.844C-318.447-55.345-321.829-51.025-320.723-46.557L-310.948-7.04C-310.948-7.04-310.418-4.314-313.139-4.314-315.637-4.314-316.182-7.04-316.182-7.04L-324.895-42.261C-326.773-49.852-333.585-55.184-341.405-55.184H-421.29C-425.893-55.184-429.275-50.864-428.169-46.396L-423.752-28.54C-423.752-28.54-423.169-25.814-425.858-25.814-428.326-25.814-428.908-28.54-428.908-28.54L-432.354-42.307C-434.249-49.875-441.051-55.184-448.853-55.184H-521.358L-524.023-66.387H-540.275L-537.061-53.395C-535.496-47.069-529.819-42.625-523.302-42.625H-448.733L-441.326-12.72H-510.774L-516.045-34.241C-529.233-34.241-533.072-37.531-533.072-37.531L-527.049-12.924C-525.172-5.332-518.359 0-510.539 0H-430.842C-426.231 0-422.848-4.334-423.968-8.808L-427.145-21.501-422.011-21.5H-405.758L-410.984-42.625H-341.238L-330.693 0H-292.954L-303.498-42.625H-220.708L-222.113-48.305C-222.113-48.305-222.656-51.031-219.967-51.031-217.499-51.031-216.878-48.305-216.878-48.305L-215.473-42.625H-131.416L-129.445-34.658-204.469-34.267C-209.066-34.243-212.424-29.917-211.307-25.458L-208.154-12.874C-206.258-5.307-199.457 0-191.656 0H0Z"/>
</g>
</g>
<g>
<g>
<path transform="matrix(1,0,0,-1,198.0888,319.19425)" d="M0 0C9.621-.016 17.956 6.265 20.362 15.344L31.12 55.941H9.501L.454 22.222H-21.646L-15.581 44.508H-37.331L-43.334 22.222H-65.523L-51.675 70.135H-73.294L-87.879 17.805C-90.366 8.883-83.375-.027-73.888-.027Z" fill="#168982"/>
<path transform="matrix(1,0,0,-1,198.0888,319.19425)" stroke-width="3" stroke-linecap="butt" stroke-miterlimit="10" stroke-linejoin="miter" fill="none" stroke="#009fe3" d="M0 0C9.621-.016 17.956 6.265 20.362 15.344L31.12 55.941H9.501L.454 22.222H-21.646L-15.581 44.508H-37.331L-43.334 22.222H-65.523L-51.675 70.135H-73.294L-87.879 17.805C-90.366 8.883-83.375-.027-73.888-.027L0 0Z"/>
<path transform="matrix(1,0,0,-1,238.2879,250.17972)" d="M0 0H24.525L19.667-16.614H-4.593Z" fill="#168982"/>
<path transform="matrix(1,0,0,-1,238.2879,250.17972)" stroke-width="3" stroke-linecap="butt" stroke-miterlimit="10" stroke-linejoin="miter" fill="none" stroke="#009fe3" d="M0 0H24.525L19.667-16.614H-4.593L0 0Z"/>
<path transform="matrix(1,0,0,-1,231.9694,271.64335)" d="M0 0H24.276L17.487-23.746H31.876L25.33-47.492 6.069-47.563C-3.32-47.528-10.259-38.764-7.914-29.903Z" fill="#168982"/>
<path transform="matrix(1,0,0,-1,231.9694,271.64335)" stroke-width="3" stroke-linecap="butt" stroke-miterlimit="10" stroke-linejoin="miter" fill="none" stroke="#009fe3" d="M0 0H24.276L17.487-23.746H31.876L25.33-47.492 6.069-47.563C-3.32-47.528-10.259-38.764-7.914-29.903L0 0Z"/>
<path transform="matrix(1,0,0,-1,356.8487,263.25343)" d="M0 0C7.065 0 12.3-6.595 10.525-13.26L3.207-40.663C.791-49.71-7.515-55.969-17.106-55.97L-74.055-55.976-81.834-85.247H-103.604L-93.658-47.91C-90.587-39.234-81.096-32.136-71.88-32.136H-17.197L-14.404-21.936H-87.593L-81.577 0Z" fill="#168982"/>
<path transform="matrix(1,0,0,-1,356.8487,263.25343)" stroke-width="3" stroke-linecap="butt" stroke-miterlimit="10" stroke-linejoin="miter" fill="none" stroke="#009fe3" d="M0 0C7.065 0 12.3-6.595 10.525-13.26L3.207-40.663C.791-49.71-7.515-55.969-17.106-55.97L-74.055-55.976-81.834-85.247H-103.604L-93.658-47.91C-90.587-39.234-81.096-32.136-71.88-32.136H-17.197L-14.404-21.936H-87.593L-81.577 0H0Z"/>
<path transform="matrix(1,0,0,-1,366.2068,306.20924)" d="M0 0 7.12 29.735C8.856 36.985 16.522 42.916 24.157 42.916H31.726L36.542 63.028C38.397 70.777 45.419 76.209 53.579 76.209H115.568L110.207 53.953H55.818L53.176 42.916 107.512 42.956 102.555 21.02H26.682L23.96 10.82H99.844L94.146-13.012H10.588C3.051-13.012-1.714-7.157 0 0" fill="#168982"/>
<path transform="matrix(1,0,0,-1,366.2068,306.20924)" stroke-width="3" stroke-linecap="butt" stroke-miterlimit="10" stroke-linejoin="miter" fill="none" stroke="#009fe3" d="M0 0 7.12 29.735C8.856 36.985 16.522 42.916 24.157 42.916H31.726L36.542 63.028C38.397 70.777 45.419 76.209 53.579 76.209H115.568L110.207 53.953H55.818L53.176 42.916 107.512 42.956 102.555 21.02H26.682L23.96 10.82H99.844L94.146-13.012H10.588C3.051-13.012-1.714-7.157 0 0Z"/>
<path transform="matrix(1,0,0,-1,602.9306,263.25343)" d="M0 0-7.489-32.136H45.391L52.979 0H75.497L65.64-40.35C63.416-49.551 55.303-55.968 45.894-55.968H-18.812C-28.599-55.968-34.749-48.128-32.477-38.546L-23.26 0Z" fill="#168982"/>
<path transform="matrix(1,0,0,-1,602.9306,263.25343)" stroke-width="3" stroke-linecap="butt" stroke-miterlimit="10" stroke-linejoin="miter" fill="none" stroke="#009fe3" d="M0 0-7.489-32.136H45.391L52.979 0H75.497L65.64-40.35C63.416-49.551 55.303-55.968 45.894-55.968H-18.812C-28.599-55.968-34.749-48.128-32.477-38.546L-23.26 0H0Z"/>
<path transform="matrix(1,0,0,-1,709.2399,248.91553)" d="M0 0-3.722-14.42 72.856-14.338 67.586-36.274H-9.002L-11.428-46.474H65.251L59.517-70.306H-21.415C-31.517-70.306-37.862-62.467-35.515-52.887L-22.556 0Z" fill="#168982"/>
<path transform="matrix(1,0,0,-1,709.2399,248.91553)" stroke-width="3" stroke-linecap="butt" stroke-miterlimit="10" stroke-linejoin="miter" fill="none" stroke="#009fe3" d="M0 0-3.722-14.42 72.856-14.338 67.586-36.274H-9.002L-11.428-46.474H65.251L59.517-70.306H-21.415C-31.517-70.306-37.862-62.467-35.515-52.887L-22.556 0H0Z"/>
<path transform="matrix(1,0,0,-1,491.2379,263.27754)" d="M0 0H70.21C77.285 0 81.698-5.91 80.015-13.134L73.681-40.326C71.688-48.881 63.202-55.889 54.822-55.899L-8.582-55.974C-18.027-55.986-23.917-48.105-21.671-38.462L-15.734-12.977C-13.952-5.328-7.492 0 0 0" fill="#168982"/>
<path transform="matrix(1,0,0,-1,491.2379,263.27754)" stroke-width="3" stroke-linecap="butt" stroke-miterlimit="10" stroke-linejoin="miter" fill="none" stroke="#009fe3" d="M0 0H70.21C77.285 0 81.698-5.91 80.015-13.134L73.681-40.326C71.688-48.881 63.202-55.889 54.822-55.899L-8.582-55.974C-18.027-55.986-23.917-48.105-21.671-38.462L-15.734-12.977C-13.952-5.328-7.492 0 0 0Z"/>
<path transform="matrix(1,0,0,-1,494.2338,285.1895)" d="M0 0H54.65L52.258-10.268H-2.392Z" fill="#ffffff"/>
<path transform="matrix(1,0,0,-1,494.2338,285.1895)" stroke-width="3" stroke-linecap="butt" stroke-miterlimit="10" stroke-linejoin="miter" fill="none" stroke="#009fe3" d="M0 0H54.65L52.258-10.268H-2.392L0 0Z"/>
</g>
</g>
<g>
<g>
<path transform="matrix(1,0,0,-1,801.2858,271.63285)" stroke-width="1.5" stroke-linecap="butt" stroke-miterlimit="10" stroke-linejoin="miter" fill="none" stroke="#168982" d="M0 0C0-3.881-3.146-7.027-7.027-7.027-10.908-7.027-14.054-3.881-14.054 0-14.054 3.881-10.908 7.027-7.027 7.027-3.146 7.027 0 3.881 0 0Z"/>
</g>
<use data-text="R" xlink:href="#font_4_53" transform="matrix(15.5274,0,0,-14.8188,789.7041,276.46363)" fill="#168982"/>
</g>
</svg>