<svg xmlns="http://www.w3.org/2000/svg" xmlns:xlink="http://www.w3.org/1999/xlink" xmlns:inkscape="http://www.inkscape.org/namespaces/inkscape" version="1.1" width="794" height="163" viewBox="21.67 233.33 794.33 163.33">
<defs>



<path id="font_4_458" d="M.66748049 0H.48632813L.3774414 .18051148C.36930339 .19420369 .36149089 .20643108 .3540039 .2171936 .34651695 .22795613 .33894859 .23716736 .33129884 .24482727 .32364909 .25249736 .31567384 .2583669 .30737306 .2624359 .29907228 .2665151 .29003907 .2685547 .28027345 .2685547H.23779297V0H.080078128V.7001953H.33007813C.5 .7001953 .58496096 .6368001 .58496096 .51000979 .58496096 .48562623 .58121749 .46310935 .57373049 .4424591 .56624349 .42181907 .55566409 .4032084 .5419922 .3866272 .5283203 .370046 .5118001 .3557383 .49243165 .34370423 .47306315 .3316803 .4514974 .32225547 .42773438 .3154297V.31347657C.43815104 .31021119 .4482422 .3049113 .4580078 .2975769 .46777345 .29024253 .47721354 .28168235 .48632813 .27189637 .49544273 .26212058 .5041504 .25160728 .5124512 .24035645 .52075198 .2291158 .5283203 .21811421 .53515627 .20735169L.66748049 0M.23779297 .58203127V.3876953H.30615235C.3400065 .3876953 .3671875 .39743553 .3876953 .4169159 .40852867 .4367218 .4189453 .46123759 .4189453 .49046327 .4189453 .5515086 .38232423 .58203127 .30908204 .58203127H.23779297Z"/>

<mask id="knock" maskUnits="userSpaceOnUse" x="21.67" y="233.33" width="794.33" height="163.33"><rect x="21.67" y="233.33" width="794.33" height="163.33" fill="#ffffff"/><path transform="matrix(1,0,0,-1,334.1165,284.33335)" d="M0 0H43.502L41.455-8.348H-2.047Z" fill="#000000"/><path transform="matrix(1,0,0,-1,748.0614,292.62553)" d="M0 0H-46.307L-40.891 20.792H5.416Z" fill="#000000"/></mask></defs>
<g mask="url(#knock)">
<path transform="matrix(1,0,0,-1,39.094,312.00004)" d="M0 0C-7.552 0-12.993 7.244-10.89 14.497L1.448 57.039H18.656L6.967 18.087H24.63L29.719 36.206H47.031L41.894 18.087H59.486L67.156 45.5H84.364L75.237 12.496C73.196 5.115 66.474 .009 58.816 .022" fill="#4a8bad"/>
<path transform="matrix(1,0,0,-1,130.8674,255.87165)" d="M0 0H19.522L15.424-13.507H-3.887Z" fill="#4a8bad"/>
<path transform="matrix(1,0,0,-1,125.5396,273.32075)" d="M0 0H19.324L13.59-19.305H25.044L19.503-38.61 4.17-38.668C-3.303-38.638-8.705-31.514-6.715-24.31Z" fill="#4a8bad"/>
<path transform="matrix(1,0,0,-1,225.0613,266.50004)" d="M0 0C5.624 0 9.699-5.362 8.194-10.78L1.988-33.058C-.061-40.412-6.759-45.501-14.394-45.501L-58.708-45.506-65.291-68.375H-83.092L-74.672-38.949C-72.654-31.896-65-26.126-57.664-26.126H-14.136L-11.771-17.833H-70.03L-64.936 0Z" fill="#4a8bad"/>
<path transform="matrix(1,0,0,-1,231.9137,301.42164)" d="M0 0 6.081 24.174C7.563 30.067 13.748 34.889 19.826 34.889H25.851L29.964 51.24C31.548 57.539 37.213 61.956 43.709 61.956H93.052L88.475 43.862H45.182L42.925 34.889 86.177 34.922 81.927 17.088H21.531L19.223 8.796H79.627L74.761-10.578H8.247C2.248-10.578-1.463-5.818 0 0" fill="#4a8bad"/>
<path transform="matrix(1,0,0,-1,420.945,266.50004)" d="M0 0-6.408-26.126H35.685L42.172 0H60.097L51.69-32.803C49.791-40.283 43.244-45.5 35.754-45.5H-15.752C-23.543-45.5-28.329-39.126-26.388-31.336L-18.516 0Z" fill="#4a8bad"/>
<path transform="matrix(1,0,0,-1,505.7675,254.84384)" d="M0 0-3.163-11.723 57.795-11.656 53.295-29.49H-7.67L-9.742-37.782H51.295L46.399-57.156H-18.023C-26.065-57.156-31.007-50.784-29.005-42.995L-17.955 0Z" fill="#4a8bad"/>
<path transform="matrix(1,0,0,-1,332.0362,266.51963)" d="M0 0H55.887C61.52 0 64.95-4.805 63.51-10.678L58.09-32.784C56.385-39.739 49.533-45.436 42.862-45.444L-7.609-45.505C-15.128-45.515-19.707-39.108-17.785-31.268L-12.705-10.55C-11.18-4.331-5.964 0 0 0" fill="#4a8bad"/>
<path transform="matrix(1,0,0,-1,454.2023,390.66676)" d="M0 0 12.636 48.616 37.432 68.661H98.679L92.845 50H40.714L33.798 44.167H92.275L87.113 24.089H26.804L20.531 0Z" fill="#981917"/>
<path transform="matrix(1,0,0,-1,566.4863,366.57814)" d="M0 0-13.605 20.078-7.396 44.572H11.566L7.167 26.445 12.025 20.078H39.416L47.961 26.743 52.588 44.572H72.062L65.706 20.078 41.021 0Z" fill="#981917"/>
<path transform="matrix(1,0,0,-1,633.0916,366.74324)" d="M0 0 6.939 26.743 29.575 44.737H90.631L85.916 26.743H32.408L25.08 20.243 19.813 .165Z" fill="#981917"/>
<path transform="matrix(1,0,0,-1,731.5291,390.66676)" d="M0 0 4.627 17.828H38.01L43.721 23.924 5.596 24.089-7.223 44.167-.867 68.661H19.36L14.733 50.832 19.818 44.167H52.623L58.979 68.661H78.612L65.73 19.257 43.721 0Z" fill="#981917"/>
<path transform="matrix(1,0,0,-1,657.3909,292.62553)" d="M0 0-5.047-19.374H14.656L30.156 40.126H10.453L5.416 20.792H-40.891L-35.854 40.126H-55.558L-71.058-19.374H-51.354L-46.307 0Z" fill="#4a8bad"/>
<path transform="matrix(1,0,0,-1,774.5193,266.69694)" d="M0 0-9.593-36.823C-10.894-41.817-15.404-45.303-20.565-45.303H-97.515L-82.015 14.197H-10.972C-3.55 14.197 1.871 7.183 0 0" fill="#4a8bad"/>
<use data-text="R" xlink:href="#font_4_458" transform="matrix(6.3053,0,0,-6.3053,567.7759,272.86204)" fill="#4a8bad"/>
</g>
<path id="font_4_458" d="M.66748049 0H.48632813L.3774414 .18051148C.36930339 .19420369 .36149089 .20643108 .3540039 .2171936 .34651695 .22795613 .33894859 .23716736 .33129884 .24482727 .32364909 .25249736 .31567384 .2583669 .30737306 .2624359 .29907228 .2665151 .29003907 .2685547 .28027345 .2685547H.23779297V0H.080078128V.7001953H.33007813C.5 .7001953 .58496096 .6368001 .58496096 .51000979 .58496096 .48562623 .58121749 .46310935 .57373049 .4424591 .56624349 .42181907 .55566409 .4032084 .5419922 .3866272 .5283203 .370046 .5118001 .3557383 .49243165 .34370423 .47306315 .3316803 .4514974 .32225547 .42773438 .3154297V.31347657C.43815104 .31021119 .4482422 .3049113 .4580078 .2975769 .46777345 .29024253 .47721354 .28168235 .48632813 .27189637 .49544273 .26212058 .5041504 .25160728 .5124512 .24035645 .52075198 .2291158 .5283203 .21811421 .53515627 .20735169L.66748049 0M.23779297 .58203127V.3876953H.30615235C.3400065 .3876953 .3671875 .39743553 .3876953 .4169159 .40852867 .4367218 .4189453 .46123759 .4189453 .49046327 .4189453 .5515086 .38232423 .58203127 .30908204 .58203127H.23779297Z"/>
<path transform="matrix(1,0,0,-1,573.5463,270.79505)" stroke-width="1" stroke-linecap="butt" stroke-miterlimit="10" stroke-linejoin="miter" fill="none" stroke="#4a8bad" d="M0 0C0-2.071-1.679-3.75-3.75-3.75-5.821-3.75-7.5-2.071-7.5 0-7.5 2.071-5.821 3.75-3.75 3.75-1.679 3.75 0 2.071 0 0Z"/>
</svg>
