<svg xmlns="http://www.w3.org/2000/svg" xmlns:xlink="http://www.w3.org/1999/xlink" xmlns:inkscape="http://www.inkscape.org/namespaces/inkscape" version="1.1" width="768" height="189" viewBox="46.33 186.33 768.00 189.33">
<defs>


<path id="font_2_48" d="M.80566409 0H.7241211V.46972657C.7241211 .50683596 .7263997 .5522461 .73095706 .60595706H.7290039C.7211914 .57438156 .7141927 .5517578 .7080078 .53808596L.46875 0H.42871095L.1899414 .5341797C.18310547 .5498047 .17610677 .57373049 .16894531 .60595706H.16699219C.16959636 .5779622 .17089844 .53222659 .17089844 .46875V0H.091796878V.7001953H.20019531L.41503907 .21191406C.43164063 .17447917 .4423828 .14648438 .44726563 .12792969H.4501953C.46419273 .16634114 .4754232 .19498699 .48388673 .21386719L.703125 .7001953H.80566409V0Z"/>

</defs>
<g>
<path transform="matrix(1,0,0,-1,0,595.28)" d="M583.349 248.109H605.52V226.53699H583.349Z" fill="#f39200"/>
<path transform="matrix(1,0,0,-1,0,595.28)" stroke-width="2" stroke-linecap="butt" stroke-miterlimit="10" stroke-linejoin="miter" fill="none" stroke="#e6007e" d="M583.349 248.109H605.52V226.53699H583.349Z"/>
<path transform="matrix(1,0,0,-1,0,595.28)" d="M555.943 248.109H578.114V226.53699H555.943Z" fill="#f39200"/>
<path transform="matrix(1,0,0,-1,0,595.28)" stroke-width="2" stroke-linecap="butt" stroke-miterlimit="10" stroke-linejoin="miter" fill="none" stroke="#e6007e" d="M555.943 248.109H578.114V226.53699H555.943Z"/>
<g>
<path transform="matrix(1,0,0,-1,406.7133,368.70625)" d="M0 0V34.071C0 41.573 6.456 47.655 14.422 47.66L74.456 47.695V58.481H0V80.009L82.941 80.015C90.908 80.012 97.365 73.929 97.365 66.427V39.677C97.365 32.169 90.898 26.084 82.925 26.088L22.909 26.123V0Z" fill="#f39200"/>
<path transform="matrix(1,0,0,-1,406.7133,368.70625)" stroke-width="2" stroke-linecap="butt" stroke-miterlimit="10" stroke-linejoin="miter" fill="none" stroke="#e6007e" d="M0 0V34.071C0 41.573 6.456 47.655 14.422 47.66L74.456 47.695V58.481H0V80.009L82.941 80.015C90.908 80.012 97.365 73.929 97.365 66.427V39.677C97.365 32.169 90.898 26.084 82.925 26.088L22.909 26.123V0H0Z"/>
<path transform="matrix(1,0,0,-1,609.0364,342.62004)" d="M0 0V40.341C0 47.845 6.461 53.929 14.431 53.929H97.366V32.357H22.911V0Z" fill="#f39200"/>
<path transform="matrix(1,0,0,-1,609.0364,342.62004)" stroke-width="2" stroke-linecap="butt" stroke-miterlimit="10" stroke-linejoin="miter" fill="none" stroke="#e6007e" d="M0 0V40.341C0 47.845 6.461 53.929 14.431 53.929H97.366V32.357H22.911V0H0Z"/>
<path transform="matrix(1,0,0,-1,710,329.03153)" d="M0 0V26.752C0 34.257 6.461 40.341 14.431 40.341H22.909V59.11C22.909 66.614 29.37 72.698 37.341 72.698H97.365V51.127H45.819V40.341H97.365V18.769H22.909V7.983H97.365V-13.588H14.431C6.461-13.588 0-7.505 0 0" fill="#f39200"/>
<path transform="matrix(1,0,0,-1,710,329.03153)" stroke-width="2" stroke-linecap="butt" stroke-miterlimit="10" stroke-linejoin="miter" fill="none" stroke="#e6007e" d="M0 0V26.752C0 34.257 6.461 40.341 14.431 40.341H22.909V59.11C22.909 66.614 29.37 72.698 37.341 72.698H97.365V51.127H45.819V40.341H97.365V18.769H22.909V7.983H97.365V-13.588H14.431C6.461-13.588 0-7.505 0 0Z"/>
<path transform="matrix(1,0,0,-1,508.1547,329.03153)" d="M0 0V40.341H22.909V7.983H74.456V40.341H97.365V0C97.365-7.505 90.904-13.588 82.934-13.588H14.431C6.461-13.588 0-7.505 0 0" fill="#f39200"/>
<path transform="matrix(1,0,0,-1,508.1547,329.03153)" stroke-width="2" stroke-linecap="butt" stroke-miterlimit="10" stroke-linejoin="miter" fill="none" stroke="#e6007e" d="M0 0V40.341H22.909V7.983H74.456V40.341H97.365V0C97.365-7.505 90.904-13.588 82.934-13.588H14.431C6.461-13.588 0-7.505 0 0Z"/>
<path transform="matrix(1,0,0,-1,0,595.28)" d="M407.353 401.856H430.262V378.947H407.353Z" fill="#009fe3"/>
<path transform="matrix(1,0,0,-1,0,595.28)" stroke-width="2" stroke-linecap="butt" stroke-miterlimit="10" stroke-linejoin="miter" fill="none" stroke="#e6007e" d="M407.353 401.856H430.262V378.947H407.353Z"/>
<path transform="matrix(1,0,0,-1,205.6667,308.66685)" d="M0 0V36.184C0 44.151 6.411 50.61 14.324 50.615L73.946 50.652V62.107H0V84.971L82.373 84.977C90.286 84.974 96.699 78.514 96.699 70.546V42.137C96.699 34.164 90.277 27.701 82.358 27.706L22.753 27.743V0Z" fill="#009fe3"/>
<path transform="matrix(1,0,0,-1,205.6667,308.66685)" stroke-width="2" stroke-linecap="butt" stroke-miterlimit="10" stroke-linejoin="miter" fill="none" stroke="#e6007e" d="M0 0V36.184C0 44.151 6.411 50.61 14.324 50.615L73.946 50.652V62.107H0V84.971L82.373 84.977C90.286 84.974 96.699 78.514 96.699 70.546V42.137C96.699 34.164 90.277 27.701 82.358 27.706L22.753 27.743V0H0Z"/>
<path transform="matrix(1,0,0,-1,53.4831,266.53865)" d="M0 0V54.297H25.298V8.478H41.109V31.388H66.408V8.478H82.219V42.842H107.517V0C107.517-7.97 100.382-14.431 91.581-14.431H15.936C7.135-14.431 0-7.97 0 0" fill="#009fe3"/>
<path transform="matrix(1,0,0,-1,53.4831,266.53865)" stroke-width="2" stroke-linecap="butt" stroke-miterlimit="10" stroke-linejoin="miter" fill="none" stroke="#e6007e" d="M0 0V54.297H25.298V8.478H41.109V31.388H66.408V8.478H82.219V42.842H107.517V0C107.517-7.97 100.382-14.431 91.581-14.431H15.936C7.135-14.431 0-7.97 0 0Z"/>
<path transform="matrix(1,0,0,-1,164.2573,266.53865)" d="M0 0V31.388H22.909V8.478H38.243V-14.431H14.431C6.461-14.431 0-7.97 0 0M0 54.297H22.909V37.115H0ZM0 37.115" fill="#009fe3"/>
<path transform="matrix(1,0,0,-1,164.2573,266.53865)" stroke-width="2" stroke-linecap="butt" stroke-miterlimit="10" stroke-linejoin="miter" fill="none" stroke="#e6007e" d="M0 0V31.388H22.909V8.478H38.243V-14.431H14.431C6.461-14.431 0-7.97 0 0ZM0 54.297H22.909V37.115H0ZM0 37.115"/>
<path transform="matrix(1,0,0,-1,306.4269,266.53865)" d="M0 0V28.411C0 36.381 6.461 42.842 14.431 42.842H19.573V58.684C19.573 66.654 26.034 73.115 34.004 73.115H97.365V50.205H42.482V42.842H97.365V19.933H22.909V8.478H97.365V-14.431H14.431C6.461-14.431 0-7.97 0 0" fill="#009fe3"/>
<path transform="matrix(1,0,0,-1,306.4269,266.53865)" stroke-width="2" stroke-linecap="butt" stroke-miterlimit="10" stroke-linejoin="miter" fill="none" stroke="#e6007e" d="M0 0V28.411C0 36.381 6.461 42.842 14.431 42.842H19.573V58.684C19.573 66.654 26.034 73.115 34.004 73.115H97.365V50.205H42.482V42.842H97.365V19.933H22.909V8.478H97.365V-14.431H14.431C6.461-14.431 0-7.97 0 0Z"/>
<path transform="matrix(1,0,0,-1,0,595.28)" d="M481.808 348.674H430.26203V337.21903H481.808ZM407.353 328.741V357.153C407.353 365.123 413.814 371.584 421.784 371.584H490.126C498.096 371.584 504.557 365.123 504.557 357.153V328.741C504.557 320.771 498.096 314.31 490.126 314.31H421.784C413.814 314.31 407.353 320.771 407.353 328.741" fill="#009fe3"/>
<path transform="matrix(1,0,0,-1,0,595.28)" stroke-width="2" stroke-linecap="butt" stroke-miterlimit="10" stroke-linejoin="miter" fill="none" stroke="#e6007e" d="M481.808 348.674H430.26203V337.21903H481.808ZM407.353 328.741V357.153C407.353 365.123 413.814 371.584 421.784 371.584H490.126C498.096 371.584 504.557 365.123 504.557 357.153V328.741C504.557 320.771 498.096 314.31 490.126 314.31H421.784C413.814 314.31 407.353 320.771 407.353 328.741Z"/>
<path transform="matrix(1,0,0,-1,508.1547,266.53865)" d="M0 0V42.842H22.909V8.478H74.456V42.842H97.365V0C97.365-7.97 90.904-14.431 82.934-14.431H14.431C6.461-14.431 0-7.97 0 0" fill="#009fe3"/>
<path transform="matrix(1,0,0,-1,508.1547,266.53865)" stroke-width="2" stroke-linecap="butt" stroke-miterlimit="10" stroke-linejoin="miter" fill="none" stroke="#e6007e" d="M0 0V42.842H22.909V8.478H74.456V42.842H97.365V0C97.365-7.97 90.904-14.431 82.934-14.431H14.431C6.461-14.431 0-7.97 0 0Z"/>
<path transform="matrix(1,0,0,-1,609.037,266.53865)" d="M0 0V54.297H22.909V42.842H97.365V19.933H22.909V8.478H97.365V-14.431H14.431C6.461-14.431 0-7.97 0 0" fill="#009fe3"/>
<path transform="matrix(1,0,0,-1,609.037,266.53865)" stroke-width="2" stroke-linecap="butt" stroke-miterlimit="10" stroke-linejoin="miter" fill="none" stroke="#e6007e" d="M0 0V54.297H22.909V42.842H97.365V19.933H22.909V8.478H97.365V-14.431H14.431C6.461-14.431 0-7.97 0 0Z"/>
<use data-text="T" xlink:href="#font_2_55" transform="matrix(14.1895,0,.1198,-13.8372,709.0452,233.45923)" fill="#e6007e"/>
<use data-text="M" xlink:href="#font_2_48" transform="matrix(14.1895,0,.1198,-13.8372,716.7927,233.45923)" fill="#e6007e"/>
</g>
</g>
</svg>