<svg xmlns="http://www.w3.org/2000/svg" xmlns:xlink="http://www.w3.org/1999/xlink" xmlns:inkscape="http://www.inkscape.org/namespaces/inkscape" version="1.1" width="807" height="243" viewBox="17.33 166.00 807.33 242.67">
<g>
<g>
<path transform="matrix(1,0,0,-1,698.3969,309.63755)" d="M0 0C-.328 .021-.536 .047-.743 .047-8.602 .049-16.46 .061-24.318 .04-26.807 .034-29.176-.588-31.415-1.66-34.582-3.177-36.77-5.576-37.272-9.105-37.571-11.206-37.48-13.377-37.41-15.511-37.323-18.148-36.229-20.399-34.306-22.202-31.667-24.677-28.393-25.449-24.905-25.463-16.907-25.497-8.909-25.476-.91-25.473-.611-25.473-.312-25.428 0-25.404ZM14.981-47.272V-49.915H22.223C14.197-63.94 6.285-77.766-1.62-91.578H-40.427C-40.214-91.15-40.061-90.813-39.883-90.489-34.771-81.177-29.706-71.838-24.523-62.565-21.828-57.743-17.402-55.276-12.138-54.133-12.002-54.103-11.864-54.078-11.728-54.045-11.697-54.037-11.672-54.007-11.58-53.942-11.58-53.581-11.566-53.174-11.584-52.768-11.602-52.348-11.652-51.93-11.703-51.334H-13.015C-26.109-51.334-39.203-51.34-52.298-51.33-55.012-51.328-57.686-51.049-60.228-49.982-64.96-47.995-67.872-44.289-69.826-39.73-71.5-35.827-72.412-31.748-72.386-27.468-72.346-21.15-72.481-14.828-72.336-8.512-72.033 4.74-62.723 10.8-53.757 12.284-53.345 12.352-52.919 12.355-52.499 12.355-30.699 12.359-8.899 12.364 12.901 12.354 17.813 12.351 22.469 11.413 26.421 8.256 30.53 4.972 32.778 .593 33.755-4.502 33.787-4.673 33.778-4.852 33.776-5.027 33.721-11.485 33.75-17.944 33.575-24.398 33.475-28.099 32.628-31.699 31.077-35.085 27.911-41.993 22.532-46.015 14.981-47.272" fill="#f6a037"/>
<path transform="matrix(1,0,0,-1,698.3969,309.63755)" stroke-width="3" stroke-linecap="butt" stroke-miterlimit="10" stroke-linejoin="miter" fill="none" stroke="#ffffff" d="M0 0C-.328 .021-.536 .047-.743 .047-8.602 .049-16.46 .061-24.318 .04-26.807 .034-29.176-.588-31.415-1.66-34.582-3.177-36.77-5.576-37.272-9.105-37.571-11.206-37.48-13.377-37.41-15.511-37.323-18.148-36.229-20.399-34.306-22.202-31.667-24.677-28.393-25.449-24.905-25.463-16.907-25.497-8.909-25.476-.91-25.473-.611-25.473-.312-25.428 0-25.404V0ZM14.981-47.272V-49.915H22.223C14.197-63.94 6.285-77.766-1.62-91.578H-40.427C-40.214-91.15-40.061-90.813-39.883-90.489-34.771-81.177-29.706-71.838-24.523-62.565-21.828-57.743-17.402-55.276-12.138-54.133-12.002-54.103-11.864-54.078-11.728-54.045-11.697-54.037-11.672-54.007-11.58-53.942-11.58-53.581-11.566-53.174-11.584-52.768-11.602-52.348-11.652-51.93-11.703-51.334H-13.015C-26.109-51.334-39.203-51.34-52.298-51.33-55.012-51.328-57.686-51.049-60.228-49.982-64.96-47.995-67.872-44.289-69.826-39.73-71.5-35.827-72.412-31.748-72.386-27.468-72.346-21.15-72.481-14.828-72.336-8.512-72.033 4.74-62.723 10.8-53.757 12.284-53.345 12.352-52.919 12.355-52.499 12.355-30.699 12.359-8.899 12.364 12.901 12.354 17.813 12.351 22.469 11.413 26.421 8.256 30.53 4.972 32.778 .593 33.755-4.502 33.787-4.673 33.778-4.852 33.776-5.027 33.721-11.485 33.75-17.944 33.575-24.398 33.475-28.099 32.628-31.699 31.077-35.085 27.911-41.993 22.532-46.015 14.981-47.272Z"/>
<path transform="matrix(1,0,0,-1,271.7498,264.54353)" d="M0 0V-29.213H1.212C5.495-29.213 9.778-29.227 14.061-29.209 19.255-29.188 24.452-29.247 29.641-29.07 34.715-28.897 39.594-24.975 40.443-19.982 40.999-16.71 41.085-13.218 40.6-9.94 39.712-3.941 34.659 .02 28.59 .039 19.357 .069 10.124 .048 .891 .046 .616 .046 .341 .018 0 0M2.216-78.036H-31.537C-31.561-77.633-31.602-77.263-31.603-76.893-31.618-72.435-31.547-67.975-31.654-63.518-31.859-55.007-27.693-49.376-20.193-45.965-18.101-45.013-15.858-44.395-13.525-43.568-13.573-42.888-13.633-42.032-13.687-41.264-21.749-39.582-26.915-34.576-30.356-27.549-32.842-22.469-34.082-17.016-34.167-11.399-34.355 1.06-34.328 13.521-34.387 25.982-34.387 26.117-34.354 26.253-34.317 26.544-33.905 26.544-33.499 26.543-33.093 26.544-27.511 26.564-21.929 26.586-16.347 26.602-2.867 26.642 10.613 26.768 24.092 26.687 32.763 26.635 41.397 25.978 49.802 23.599 55.85 21.887 61.447 19.333 65.986 14.822 70.194 10.641 72.618 5.528 73.575-.24 74.901-8.229 74.513-16.189 72.348-24 70.038-32.341 64.345-37.165 56.066-39.162 51.825-40.185 47.512-40.694 43.164-40.853 37.8-41.049 32.426-41.033 27.068-41.316 21.537-41.609 16.139-42.652 11.2-45.334 6.761-47.745 3.48-51.141 2.369-56.254 2.229-56.896 2.224-57.577 2.222-58.24 2.212-64.419 2.216-70.598 2.216-76.777Z" fill="#bf5098"/>
<path transform="matrix(1,0,0,-1,271.7498,264.54353)" stroke-width="3" stroke-linecap="butt" stroke-miterlimit="10" stroke-linejoin="miter" fill="none" stroke="#ffffff" d="M0 0V-29.213H1.212C5.495-29.213 9.778-29.227 14.061-29.209 19.255-29.188 24.452-29.247 29.641-29.07 34.715-28.897 39.594-24.975 40.443-19.982 40.999-16.71 41.085-13.218 40.6-9.94 39.712-3.941 34.659 .02 28.59 .039 19.357 .069 10.124 .048 .891 .046 .616 .046 .341 .018 0 0ZM2.216-78.036H-31.537C-31.561-77.633-31.602-77.263-31.603-76.893-31.618-72.435-31.547-67.975-31.654-63.518-31.859-55.007-27.693-49.376-20.193-45.965-18.101-45.013-15.858-44.395-13.525-43.568-13.573-42.888-13.633-42.032-13.687-41.264-21.749-39.582-26.915-34.576-30.356-27.549-32.842-22.469-34.082-17.016-34.167-11.399-34.355 1.06-34.328 13.521-34.387 25.982-34.387 26.117-34.354 26.253-34.317 26.544-33.905 26.544-33.499 26.543-33.093 26.544-27.511 26.564-21.929 26.586-16.347 26.602-2.867 26.642 10.613 26.768 24.092 26.687 32.763 26.635 41.397 25.978 49.802 23.599 55.85 21.887 61.447 19.333 65.986 14.822 70.194 10.641 72.618 5.528 73.575-.24 74.901-8.229 74.513-16.189 72.348-24 70.038-32.341 64.345-37.165 56.066-39.162 51.825-40.185 47.512-40.694 43.164-40.853 37.8-41.049 32.426-41.033 27.068-41.316 21.537-41.609 16.139-42.652 11.2-45.334 6.761-47.745 3.48-51.141 2.369-56.254 2.229-56.896 2.224-57.577 2.222-58.24 2.212-64.419 2.216-70.598 2.216-76.777V-78.036Z"/>
<path transform="matrix(1,0,0,-1,91.5557,305.63093)" d="M0 0V20.615H-2.396C-2.749 19.084-2.989 17.523-3.472 16.041-5.529 9.744-9.778 5.376-15.83 2.917-24.299-.525-33.087-1.093-41.922 1.196-50.151 3.328-55.851 8.743-59.85 16.082-63.027 21.912-64.718 28.213-65.731 34.729-66.471 39.494-66.633 44.288-66.587 49.101-66.538 54.296-66.576 59.493-66.576 64.688V65.88H-39.268C-39.188 64.618-39.083 63.371-39.034 62.122-38.803 56.303-38.501 50.485-38.393 44.663-38.284 38.846-34.663 34.83-28.742 34.379-25.648 34.144-22.568 34.323-19.611 35.418-15.359 36.992-13.257 40.053-13.29 44.574-13.309 47.165-13.293 49.755-13.293 52.412H13.055C13.055 49.497 13.025 46.628 13.069 43.759 13.087 42.573 13.145 41.366 13.386 40.21 14.115 36.715 16.251 34.344 19.52 32.99 22.532 31.743 25.708 31.364 28.911 31.687 33.229 32.122 36.143 34.698 38.114 38.402 40.054 42.048 41.078 45.965 41.113 50.102 41.154 54.946 41.122 59.791 41.122 64.636 41.122 65.017 41.122 65.398 41.122 65.859H69.248C69.276 65.631 69.336 65.367 69.336 65.104 69.329 55.555 69.542 45.999 69.24 36.459 68.955 27.471 66.31 19.135 60.592 11.998 55.489 5.629 48.756 1.988 40.777 .692 37.885 .222 34.919 .052 31.984 .03 21.733-.047 11.482 0 1.231 0Z" fill="#bf5098"/>
<path transform="matrix(1,0,0,-1,91.5557,305.63093)" stroke-width="3" stroke-linecap="butt" stroke-miterlimit="10" stroke-linejoin="miter" fill="none" stroke="#ffffff" d="M0 0V20.615H-2.396C-2.749 19.084-2.989 17.523-3.472 16.041-5.529 9.744-9.778 5.376-15.83 2.917-24.299-.525-33.087-1.093-41.922 1.196-50.151 3.328-55.851 8.743-59.85 16.082-63.027 21.912-64.718 28.213-65.731 34.729-66.471 39.494-66.633 44.288-66.587 49.101-66.538 54.296-66.576 59.493-66.576 64.688V65.88H-39.268C-39.188 64.618-39.083 63.371-39.034 62.122-38.803 56.303-38.501 50.485-38.393 44.663-38.284 38.846-34.663 34.83-28.742 34.379-25.648 34.144-22.568 34.323-19.611 35.418-15.359 36.992-13.257 40.053-13.29 44.574-13.309 47.165-13.293 49.755-13.293 52.412H13.055C13.055 49.497 13.025 46.628 13.069 43.759 13.087 42.573 13.145 41.366 13.386 40.21 14.115 36.715 16.251 34.344 19.52 32.99 22.532 31.743 25.708 31.364 28.911 31.687 33.229 32.122 36.143 34.698 38.114 38.402 40.054 42.048 41.078 45.965 41.113 50.102 41.154 54.946 41.122 59.791 41.122 64.636 41.122 65.017 41.122 65.398 41.122 65.859H69.248C69.276 65.631 69.336 65.367 69.336 65.104 69.329 55.555 69.542 45.999 69.24 36.459 68.955 27.471 66.31 19.135 60.592 11.998 55.489 5.629 48.756 1.988 40.777 .692 37.885 .222 34.919 .052 31.984 .03 21.733-.047 11.482 0 1.231 0H0Z"/>
<path transform="matrix(1,0,0,-1,354.634,238.97824)" d="M0 0H21.238V2.808C14.982 3.551 10.23 6.636 6.867 11.869 4.968 14.824 3.806 18.086 3.133 21.52 1.915 27.742 1.579 33.991 3.069 40.203 4.968 48.121 9.766 53.891 16.7 57.977 22.305 61.281 28.432 63.08 34.794 64.183 39.788 65.05 44.82 65.31 49.884 65.25 55.395 65.185 60.908 65.235 66.42 65.235H67.613V37.812C67.177 37.812 66.8 37.812 66.423 37.812 59.577 37.822 52.73 37.825 45.884 37.844 39.794 37.861 35.662 34.05 35.27 27.931 35.078 24.935 35.346 21.974 36.506 19.153 38.095 15.29 41.317 13.194 45.466 13.256 48.234 13.297 51.003 13.264 53.853 13.264V-12.269C53.495-12.288 53.128-12.322 52.759-12.327 49.462-12.372 46.158-12.305 42.868-12.478 37.732-12.75 34.51-15.936 33.237-20.49 32.541-22.982 32.25-25.535 32.585-28.094 33.078-31.858 35.308-34.482 38.494-36.339 42.458-38.65 46.807-39.714 51.347-39.827 56.365-39.952 61.388-39.856 66.409-39.856H67.609V-67.228C67.296-67.245 67.025-67.273 66.753-67.273 57.343-67.273 47.931-67.407 38.525-67.227 30.01-67.065 21.93-65.035 14.671-60.387 6.498-55.152 1.818-47.64 .484-38.061 .166-35.777 .033-33.451 .021-31.143-.028-21.172 0-11.2 0-1.229 0-.917 0-.605 0 0" fill="#bf5098"/>
<path transform="matrix(1,0,0,-1,354.634,238.97824)" stroke-width="3" stroke-linecap="butt" stroke-miterlimit="10" stroke-linejoin="miter" fill="none" stroke="#ffffff" d="M0 0H21.238V2.808C14.982 3.551 10.23 6.636 6.867 11.869 4.968 14.824 3.806 18.086 3.133 21.52 1.915 27.742 1.579 33.991 3.069 40.203 4.968 48.121 9.766 53.891 16.7 57.977 22.305 61.281 28.432 63.08 34.794 64.183 39.788 65.05 44.82 65.31 49.884 65.25 55.395 65.185 60.908 65.235 66.42 65.235H67.613V37.812C67.177 37.812 66.8 37.812 66.423 37.812 59.577 37.822 52.73 37.825 45.884 37.844 39.794 37.861 35.662 34.05 35.27 27.931 35.078 24.935 35.346 21.974 36.506 19.153 38.095 15.29 41.317 13.194 45.466 13.256 48.234 13.297 51.003 13.264 53.853 13.264V-12.269C53.495-12.288 53.128-12.322 52.759-12.327 49.462-12.372 46.158-12.305 42.868-12.478 37.732-12.75 34.51-15.936 33.237-20.49 32.541-22.982 32.25-25.535 32.585-28.094 33.078-31.858 35.308-34.482 38.494-36.339 42.458-38.65 46.807-39.714 51.347-39.827 56.365-39.952 61.388-39.856 66.409-39.856H67.609V-67.228C67.296-67.245 67.025-67.273 66.753-67.273 57.343-67.273 47.931-67.407 38.525-67.227 30.01-67.065 21.93-65.035 14.671-60.387 6.498-55.152 1.818-47.64 .484-38.061 .166-35.777 .033-33.451 .021-31.143-.028-21.172 0-11.2 0-1.229 0-.917 0-.605 0 0Z"/>
<path transform="matrix(1,0,0,-1,500.2139,386.02964)" d="M0 0V-12.507H-94.941C-94.976-12.29-95.036-12.092-95.036-11.894-95.014-3.328-95.101 5.241-94.914 13.804-94.808 18.651-93.682 23.346-91.074 27.53-87.203 33.737-81.479 36.872-74.237 37.003-66.095 37.151-57.947 37.015-49.802 37.071-48.166 37.083-46.51 37.286-44.902 37.603-41.461 38.282-39.154 40.414-37.865 43.625-36.299 47.528-36.02 51.639-36.502 55.741-37.075 60.612-40.049 63.783-44.478 65.634-49.162 67.59-54.084 67.704-59.065 67.497-62.211 67.366-65.366 67.473-68.592 67.473V89.413C-68.286 89.429-68.013 89.457-67.741 89.457-58.121 89.454-48.501 89.518-38.882 89.416-32.936 89.353-27.061 88.597-21.385 86.695-10.963 83.204-4.257 76.108-1.024 65.658 .383 61.111 1.045 56.439 1.335 51.697 1.659 46.385 1.513 41.105 .47 35.875-.532 30.849-2.316 26.16-5.823 22.305-9.671 18.074-14.454 15.757-20.217 15.741-33.067 15.707-45.917 15.73-58.767 15.73-59.187 15.73-59.608 15.73-60.138 15.73-60.138 14.842-60.149 13.983-60.136 13.124-60.087 9.685-59.993 6.246-59.989 2.807-59.986 .107-60.034 .138-57.31 .136-38.492 .122-19.674 .094-.856 .067-.584 .067-.312 .026 0 0" fill="#f69f37"/>
<path transform="matrix(1,0,0,-1,500.2139,386.02964)" stroke-width="3" stroke-linecap="butt" stroke-miterlimit="10" stroke-linejoin="miter" fill="none" stroke="#ffffff" d="M0 0V-12.507H-94.941C-94.976-12.29-95.036-12.092-95.036-11.894-95.014-3.328-95.101 5.241-94.914 13.804-94.808 18.651-93.682 23.346-91.074 27.53-87.203 33.737-81.479 36.872-74.237 37.003-66.095 37.151-57.947 37.015-49.802 37.071-48.166 37.083-46.51 37.286-44.902 37.603-41.461 38.282-39.154 40.414-37.865 43.625-36.299 47.528-36.02 51.639-36.502 55.741-37.075 60.612-40.049 63.783-44.478 65.634-49.162 67.59-54.084 67.704-59.065 67.497-62.211 67.366-65.366 67.473-68.592 67.473V89.413C-68.286 89.429-68.013 89.457-67.741 89.457-58.121 89.454-48.501 89.518-38.882 89.416-32.936 89.353-27.061 88.597-21.385 86.695-10.963 83.204-4.257 76.108-1.024 65.658 .383 61.111 1.045 56.439 1.335 51.697 1.659 46.385 1.513 41.105 .47 35.875-.532 30.849-2.316 26.16-5.823 22.305-9.671 18.074-14.454 15.757-20.217 15.741-33.067 15.707-45.917 15.73-58.767 15.73-59.187 15.73-59.608 15.73-60.138 15.73-60.138 14.842-60.149 13.983-60.136 13.124-60.087 9.685-59.993 6.246-59.989 2.807-59.986 .107-60.034 .138-57.31 .136-38.492 .122-19.674 .094-.856 .067-.584 .067-.312 .026 0 0Z"/>
<path transform="matrix(1,0,0,-1,563.7187,337.0309)" d="M0 0C0-.047 0-.093 0-.14 2.808-.14 5.616-.174 8.423-.133 14.733-.039 19.702 4.076 20.67 10.304 21.054 12.774 20.872 15.345 20.826 17.868 20.71 24.212 15.377 29.602 9.029 29.697 3.03 29.787-2.973 29.781-8.973 29.698-14.473 29.622-19.555 25.452-20.423 20.022-20.889 17.109-20.796 14.077-20.683 11.109-20.47 5.52-15.571 .417-9.99 .041-6.674-.183-3.331 0 0 0M2.682 41.91C11.705 41.91 20.727 41.944 29.749 41.895 33.722 41.874 37.667 41.532 41.425 40.061 46.481 38.082 49.39 34.179 51.155 29.241 52.631 25.112 53.331 20.819 53.613 16.477 53.86 12.664 54.007 8.826 53.87 5.011 53.448-6.696 48.058-15.323 37.524-20.628 31.952-23.434 25.991-24.943 19.868-25.884 10.15-27.377 .367-27.551-9.427-27.099-17.502-26.726-25.503-25.782-33.158-22.951-39.56-20.583-45.06-16.987-48.889-11.18-51.528-7.176-52.947-2.71-53.492 2.006-54.332 9.274-54.004 16.51-52.287 23.64-51.006 28.96-48.619 33.642-44.06 36.95-40.596 39.464-36.638 40.756-32.454 41.272-29.364 41.652-26.235 41.862-23.121 41.891-14.521 41.972-5.919 41.919 2.682 41.919Z" fill="#f6a037"/>
<path transform="matrix(1,0,0,-1,563.7187,337.0309)" stroke-width="3" stroke-linecap="butt" stroke-miterlimit="10" stroke-linejoin="miter" fill="none" stroke="#ffffff" d="M0 0C0-.047 0-.093 0-.14 2.808-.14 5.616-.174 8.423-.133 14.733-.039 19.702 4.076 20.67 10.304 21.054 12.774 20.872 15.345 20.826 17.868 20.71 24.212 15.377 29.602 9.029 29.697 3.03 29.787-2.973 29.781-8.973 29.698-14.473 29.622-19.555 25.452-20.423 20.022-20.889 17.109-20.796 14.077-20.683 11.109-20.47 5.52-15.571 .417-9.99 .041-6.674-.183-3.331 0 0 0ZM2.682 41.91C11.705 41.91 20.727 41.944 29.749 41.895 33.722 41.874 37.667 41.532 41.425 40.061 46.481 38.082 49.39 34.179 51.155 29.241 52.631 25.112 53.331 20.819 53.613 16.477 53.86 12.664 54.007 8.826 53.87 5.011 53.448-6.696 48.058-15.323 37.524-20.628 31.952-23.434 25.991-24.943 19.868-25.884 10.15-27.377 .367-27.551-9.427-27.099-17.502-26.726-25.503-25.782-33.158-22.951-39.56-20.583-45.06-16.987-48.889-11.18-51.528-7.176-52.947-2.71-53.492 2.006-54.332 9.274-54.004 16.51-52.287 23.64-51.006 28.96-48.619 33.642-44.06 36.95-40.596 39.464-36.638 40.756-32.454 41.272-29.364 41.652-26.235 41.862-23.121 41.891-14.521 41.972-5.919 41.919 2.682 41.919V41.91Z"/>
<path transform="matrix(1,0,0,-1,465.1929,250.96973)" d="M0 0C-.089-5.848-.38-11.495-.209-17.128 .002-24.023 5.409-28.943 12.32-28.947 18.073-28.95 23.827-28.97 29.581-28.94 34.809-28.914 39.748-25.233 41.127-20.246 42.047-16.916 41.909-13.442 41.445-10.109 40.566-3.8 35.436 .319 29.029 .332 23.381 .343 17.732 .375 12.084 .321 8.127 .283 4.172 .115 0 0M47.205-52.942C41.364-54.331 35.422-54.993 29.508-55.32 28.229-54.14 27.07-52.966 25.806-51.92 20.646-47.652 14.589-45.384 8.1-44.115 3.368-43.19-1.424-42.882-6.234-42.87-14.906-42.848-23.578-42.863-32.25-42.863H-33.46V12.32C-32.943 12.32-32.573 12.32-32.204 12.32-4.889 12.306 22.426 12.328 49.74 12.234 53.118 12.222 56.553 11.877 59.857 11.186 66.357 9.826 70.274 5.484 72.357-.667 73.715-4.678 74.441-8.82 74.65-13.029 74.849-17.018 75.029-21.029 74.834-25.011 74.538-31.073 72.587-36.61 68.616-41.324 68.504-41.457 68.386-41.585 68.267-41.72 59.782-42.627 52.213-45.24 47.205-52.942" fill="#bf5098"/>
<path transform="matrix(1,0,0,-1,465.1929,250.96973)" stroke-width="3" stroke-linecap="butt" stroke-miterlimit="10" stroke-linejoin="miter" fill="none" stroke="#ffffff" d="M0 0C-.089-5.848-.38-11.495-.209-17.128 .002-24.023 5.409-28.943 12.32-28.947 18.073-28.95 23.827-28.97 29.581-28.94 34.809-28.914 39.748-25.233 41.127-20.246 42.047-16.916 41.909-13.442 41.445-10.109 40.566-3.8 35.436 .319 29.029 .332 23.381 .343 17.732 .375 12.084 .321 8.127 .283 4.172 .115 0 0ZM47.205-52.942C41.364-54.331 35.422-54.993 29.508-55.32 28.229-54.14 27.07-52.966 25.806-51.92 20.646-47.652 14.589-45.384 8.1-44.115 3.368-43.19-1.424-42.882-6.234-42.87-14.906-42.848-23.578-42.863-32.25-42.863H-33.46V12.32C-32.943 12.32-32.573 12.32-32.204 12.32-4.889 12.306 22.426 12.328 49.74 12.234 53.118 12.222 56.553 11.877 59.857 11.186 66.357 9.826 70.274 5.484 72.357-.667 73.715-4.678 74.441-8.82 74.65-13.029 74.849-17.018 75.029-21.029 74.834-25.011 74.538-31.073 72.587-36.61 68.616-41.324 68.504-41.457 68.386-41.585 68.267-41.72 59.782-42.627 52.213-45.24 47.205-52.942Z"/>
<path transform="matrix(1,0,0,-1,718.0662,250.62433)" d="M0 0C-1.385 0-2.675 .072-3.955-.014-7.135-.227-10.207-.914-12.96-2.599-16.404-4.707-18.341-7.815-18.507-11.848-18.612-14.426-18.709-17.078-18.242-19.592-17.316-24.578-12.52-28.378-7.44-28.45-1.684-28.531 4.074-28.564 9.831-28.508 15.744-28.451 20.262-24.684 21.398-18.981 21.554-18.199 21.531-17.377 21.552-16.573 21.577-15.667 21.558-14.759 21.558-13.653H56.5C56.539-13.97 56.64-14.384 56.63-14.794 56.525-19.243 56.615-23.711 56.225-28.135 55.835-32.563 54.106-36.609 51.486-40.236 51.344-40.432 51.167-40.603 50.959-40.84H20.348V-54.831C18.257-55.057 16.259-55.273 14.324-55.483 13.313-54.085 12.447-52.722 11.418-51.495 7.87-47.262 3.235-44.983-2.179-44.263-3.91-44.033-5.675-43.991-7.426-43.988-19.643-43.965-31.86-43.967-44.077-43.995-44.966-43.997-45.581-43.731-46.177-43.085-50.169-38.766-52.529-33.63-53.195-27.861-53.716-23.347-53.753-18.768-53.845-14.214-54.004-6.354-54.038 1.51-54.124 9.372-54.129 9.784-54.125 10.197-54.125 10.811H-31.606C-31.533 11.828-31.473 12.649-31.416 13.447-33.655 13.891-35.832 14.237-37.963 14.766-41.646 15.68-45.072 17.156-47.886 19.806-51.017 22.754-52.519 26.509-52.757 30.679-52.987 34.695-52.807 38.735-52.807 42.857H-19.388C-19.388 42.384-19.399 41.906-19.386 41.428-19.311 38.732-19.437 36.01-19.09 33.349-18.768 30.877-17.454 28.742-15.573 27.033-14.44 26.003-13.129 25.449-11.565 25.463-8.445 25.492-5.324 25.472-2.023 25.472-1.351 17.01-.685 8.616 0 0" fill="#bf5098"/>
<path transform="matrix(1,0,0,-1,718.0662,250.62433)" stroke-width="3" stroke-linecap="butt" stroke-miterlimit="10" stroke-linejoin="miter" fill="none" stroke="#ffffff" d="M0 0C-1.385 0-2.675 .072-3.955-.014-7.135-.227-10.207-.914-12.96-2.599-16.404-4.707-18.341-7.815-18.507-11.848-18.612-14.426-18.709-17.078-18.242-19.592-17.316-24.578-12.52-28.378-7.44-28.45-1.684-28.531 4.074-28.564 9.831-28.508 15.744-28.451 20.262-24.684 21.398-18.981 21.554-18.199 21.531-17.377 21.552-16.573 21.577-15.667 21.558-14.759 21.558-13.653H56.5C56.539-13.97 56.64-14.384 56.63-14.794 56.525-19.243 56.615-23.711 56.225-28.135 55.835-32.563 54.106-36.609 51.486-40.236 51.344-40.432 51.167-40.603 50.959-40.84H20.348V-54.831C18.257-55.057 16.259-55.273 14.324-55.483 13.313-54.085 12.447-52.722 11.418-51.495 7.87-47.262 3.235-44.983-2.179-44.263-3.91-44.033-5.675-43.991-7.426-43.988-19.643-43.965-31.86-43.967-44.077-43.995-44.966-43.997-45.581-43.731-46.177-43.085-50.169-38.766-52.529-33.63-53.195-27.861-53.716-23.347-53.753-18.768-53.845-14.214-54.004-6.354-54.038 1.51-54.124 9.372-54.129 9.784-54.125 10.197-54.125 10.811H-31.606C-31.533 11.828-31.473 12.649-31.416 13.447-33.655 13.891-35.832 14.237-37.963 14.766-41.646 15.68-45.072 17.156-47.886 19.806-51.017 22.754-52.519 26.509-52.757 30.679-52.987 34.695-52.807 38.735-52.807 42.857H-19.388C-19.388 42.384-19.399 41.906-19.386 41.428-19.311 38.732-19.437 36.01-19.09 33.349-18.768 30.877-17.454 28.742-15.573 27.033-14.44 26.003-13.129 25.449-11.565 25.463-8.445 25.492-5.324 25.472-2.023 25.472-1.351 17.01-.685 8.616 0 0Z"/>
<path transform="matrix(1,0,0,-1,817.1398,338.80363)" d="M0 0C-11.343-9.937-22.85-20.018-34.396-30.133V-60.596H-70.289C-70.322-60.373-70.378-60.172-70.378-59.971-70.393-51.02-70.49-42.067-70.392-33.117-70.276-22.418-64.109-14.412-53.724-11.311-52.337-10.897-50.843-10.694-49.394-10.669-44.726-10.59-40.056-10.64-35.387-10.64H-34.183C-34.162-10.319-34.134-10.084-34.134-9.849-34.134-5.391-34.084-.932-34.172 3.525-34.199 4.943-34.434 6.403-34.852 7.758-36.086 11.755-39.03 13.913-43.016 14.599-45.179 14.971-47.409 15.073-49.61 15.087-57.964 15.141-66.32 15.109-74.675 15.109H-75.98V44.51C-75.714 44.539-75.448 44.593-75.182 44.593-61.456 44.585-47.729 44.664-34.005 44.522-27.091 44.451-20.307 43.337-13.986 40.313-5.516 36.26-.656 29.515-.079 20.161 .329 13.556 0 6.904 0 0" fill="#f69f37"/>
<path transform="matrix(1,0,0,-1,817.1398,338.80363)" stroke-width="3" stroke-linecap="butt" stroke-miterlimit="10" stroke-linejoin="miter" fill="none" stroke="#ffffff" d="M0 0C-11.343-9.937-22.85-20.018-34.396-30.133V-60.596H-70.289C-70.322-60.373-70.378-60.172-70.378-59.971-70.393-51.02-70.49-42.067-70.392-33.117-70.276-22.418-64.109-14.412-53.724-11.311-52.337-10.897-50.843-10.694-49.394-10.669-44.726-10.59-40.056-10.64-35.387-10.64H-34.183C-34.162-10.319-34.134-10.084-34.134-9.849-34.134-5.391-34.084-.932-34.172 3.525-34.199 4.943-34.434 6.403-34.852 7.758-36.086 11.755-39.03 13.913-43.016 14.599-45.179 14.971-47.409 15.073-49.61 15.087-57.964 15.141-66.32 15.109-74.675 15.109H-75.98V44.51C-75.714 44.539-75.448 44.593-75.182 44.593-61.456 44.585-47.729 44.664-34.005 44.522-27.091 44.451-20.307 43.337-13.986 40.313-5.516 36.26-.656 29.515-.079 20.161 .329 13.556 0 6.904 0 0Z"/>
<path transform="matrix(1,0,0,-1,550.1625,239.05573)" d="M0 0H32.635C32.635-.473 32.635-.885 32.635-1.296 32.631-10.388 32.61-19.481 32.629-28.573 32.641-33.933 35.989-38.311 41.083-39.668 41.888-39.883 42.739-40.009 43.57-40.017 48.836-40.064 54.102-40.098 59.367-40.075 65.171-40.049 69.67-36.357 70.692-30.637 71.015-28.828 70.873-26.929 70.877-25.071 70.893-17.138 70.884-9.204 70.884-1.27V.085H103.339C103.438-1.579 103.601-3.285 103.631-4.993 103.807-14.889 104.034-24.784 104.077-34.68 104.107-41.397 102.442-47.659 98.221-53.063 98.026-53.312 97.801-53.539 97.625-53.799 96.784-55.039 95.682-55.462 94.135-55.66 88.555-56.374 83.592-58.675 79.717-62.788 78.183-64.416 76.568-65.269 74.456-65.565 71.965-65.915 69.489-66.379 66.957-66.802 66.553-65.961 66.208-65.202 65.829-64.46 62.857-58.63 58.044-55.227 51.671-54.178 48.401-53.639 45.051-53.387 41.734-53.359 30.079-53.264 18.424-53.322 6.769-53.322H5.459C3.155-50.371 1.634-47.056 .676-43.468-.28-39.889-.682-36.239-.639-32.539-.544-24.151-.458-15.763-.328-7.375-.29-4.93-.114-2.488 0 0" fill="#bf5098"/>
<path transform="matrix(1,0,0,-1,550.1625,239.05573)" stroke-width="3" stroke-linecap="butt" stroke-miterlimit="10" stroke-linejoin="miter" fill="none" stroke="#ffffff" d="M0 0H32.635C32.635-.473 32.635-.885 32.635-1.296 32.631-10.388 32.61-19.481 32.629-28.573 32.641-33.933 35.989-38.311 41.083-39.668 41.888-39.883 42.739-40.009 43.57-40.017 48.836-40.064 54.102-40.098 59.367-40.075 65.171-40.049 69.67-36.357 70.692-30.637 71.015-28.828 70.873-26.929 70.877-25.071 70.893-17.138 70.884-9.204 70.884-1.27V.085H103.339C103.438-1.579 103.601-3.285 103.631-4.993 103.807-14.889 104.034-24.784 104.077-34.68 104.107-41.397 102.442-47.659 98.221-53.063 98.026-53.312 97.801-53.539 97.625-53.799 96.784-55.039 95.682-55.462 94.135-55.66 88.555-56.374 83.592-58.675 79.717-62.788 78.183-64.416 76.568-65.269 74.456-65.565 71.965-65.915 69.489-66.379 66.957-66.802 66.553-65.961 66.208-65.202 65.829-64.46 62.857-58.63 58.044-55.227 51.671-54.178 48.401-53.639 45.051-53.387 41.734-53.359 30.079-53.264 18.424-53.322 6.769-53.322H5.459C3.155-50.371 1.634-47.056 .676-43.468-.28-39.889-.682-36.239-.639-32.539-.544-24.151-.458-15.763-.328-7.375-.29-4.93-.114-2.488 0 0Z"/>
<path transform="matrix(1,0,0,-1,172.4778,251.97614)" d="M0 0H34.025C34.043-.316 34.078-.649 34.078-.981 34.073-5.159 34.048-9.336 34.059-13.514 34.071-18.762 36.9-22.147 41.388-24.36 44.452-25.871 47.762-26.446 51.14-26.686 51.831-26.735 52.524-26.76 53.258-26.798V-53.769C52.873-53.794 52.502-53.848 52.133-53.837 47.682-53.712 43.223-53.704 38.783-53.414 33.418-53.064 28.166-51.978 23.06-50.268 17.338-48.352 12.069-45.637 7.797-41.273 3.582-36.967 1.144-31.766 .411-25.803 .133-23.548 .038-21.26 .018-18.986-.035-13.053 0-7.12 0-1.186 0-.811 0-.435 0 0" fill="#bf5098"/>
<path transform="matrix(1,0,0,-1,172.4778,251.97614)" stroke-width="3" stroke-linecap="butt" stroke-miterlimit="10" stroke-linejoin="miter" fill="none" stroke="#ffffff" d="M0 0H34.025C34.043-.316 34.078-.649 34.078-.981 34.073-5.159 34.048-9.336 34.059-13.514 34.071-18.762 36.9-22.147 41.388-24.36 44.452-25.871 47.762-26.446 51.14-26.686 51.831-26.735 52.524-26.76 53.258-26.798V-53.769C52.873-53.794 52.502-53.848 52.133-53.837 47.682-53.712 43.223-53.704 38.783-53.414 33.418-53.064 28.166-51.978 23.06-50.268 17.338-48.352 12.069-45.637 7.797-41.273 3.582-36.967 1.144-31.766 .411-25.803 .133-23.548 .038-21.26 .018-18.986-.035-13.053 0-7.12 0-1.186 0-.811 0-.435 0 0Z"/>
<path transform="matrix(1,0,0,-1,171.6465,202.66584)" d="M0 0C2.866 0 5.631-.001 8.396 0 14.433 .004 20.469 .033 26.505 .005 31.123-.015 34.85-2.763 36.039-6.989 36.254-7.755 36.386-8.572 36.386-9.366 36.386-11.607 36.546-13.888 36.191-16.08 35.448-20.668 31.52-23.869 26.853-23.906 21.062-23.953 15.271-23.964 9.481-23.904 4.084-23.849-.018-19.687-.049-14.318-.075-9.932-.056-5.545-.054-1.158-.054-.881-.029-.604 0 0" fill="#bf5098"/>
<path transform="matrix(1,0,0,-1,171.6465,202.66584)" stroke-width="3" stroke-linecap="butt" stroke-miterlimit="10" stroke-linejoin="miter" fill="none" stroke="#ffffff" d="M0 0C2.866 0 5.631-.001 8.396 0 14.433 .004 20.469 .033 26.505 .005 31.123-.015 34.85-2.763 36.039-6.989 36.254-7.755 36.386-8.572 36.386-9.366 36.386-11.607 36.546-13.888 36.191-16.08 35.448-20.668 31.52-23.869 26.853-23.906 21.062-23.953 15.271-23.964 9.481-23.904 4.084-23.849-.018-19.687-.049-14.318-.075-9.932-.056-5.545-.054-1.158-.054-.881-.029-.604 0 0Z"/>
<path transform="matrix(1,0,0,-1,775.2094,203.77692)" d="M0 0C-2.025-9.157-4.025-18.2-6.039-27.305H-17.578V0Z" fill="#c05199"/>
<path transform="matrix(1,0,0,-1,775.2094,203.77692)" stroke-width="3" stroke-linecap="butt" stroke-miterlimit="10" stroke-linejoin="miter" fill="none" stroke="#ffffff" d="M0 0C-2.025-9.157-4.025-18.2-6.039-27.305H-17.578V0H0Z"/>
<path transform="matrix(1,0,0,-1,736.9497,231.08515)" d="M0 0V27.321H17.601C15.585 18.199 13.579 9.128 11.562 0Z" fill="#c05199"/>
<path transform="matrix(1,0,0,-1,736.9497,231.08515)" stroke-width="3" stroke-linecap="butt" stroke-miterlimit="10" stroke-linejoin="miter" fill="none" stroke="#ffffff" d="M0 0V27.321H17.601C15.585 18.199 13.579 9.128 11.562 0H0Z"/>
<path transform="matrix(1,0,0,-1,450.1063,173.79242)" d="M0 0C-2.027-9.154-4.03-18.202-6.038-27.275H-17.56V0Z" fill="#bf5199"/>
<path transform="matrix(1,0,0,-1,450.1063,173.79242)" stroke-width="3" stroke-linecap="butt" stroke-miterlimit="10" stroke-linejoin="miter" fill="none" stroke="#ffffff" d="M0 0C-2.027-9.154-4.03-18.202-6.038-27.275H-17.56V0H0Z"/>
<path transform="matrix(1,0,0,-1,698.3969,309.63755)" stroke-width="3" stroke-linecap="butt" stroke-miterlimit="10" stroke-linejoin="miter" fill="none" stroke="#ffffff" d="M0 0V-25.404C-.312-25.428-.611-25.473-.91-25.473-8.909-25.476-16.907-25.497-24.905-25.463-28.393-25.449-31.667-24.677-34.306-22.202-36.229-20.399-37.323-18.148-37.41-15.511-37.48-13.377-37.571-11.206-37.272-9.105-36.77-5.576-34.582-3.177-31.415-1.66-29.176-.588-26.807 .034-24.318 .04-16.46 .061-8.602 .049-.743 .047-.536 .047-.328 .021 0 0Z"/>
<path transform="matrix(1,0,0,-1,271.7498,264.54353)" stroke-width="3" stroke-linecap="butt" stroke-miterlimit="10" stroke-linejoin="miter" fill="none" stroke="#ffffff" d="M0 0C.341 .018 .616 .046 .891 .046 10.124 .048 19.357 .069 28.59 .039 34.659 .02 39.712-3.941 40.6-9.94 41.085-13.218 40.999-16.71 40.443-19.982 39.594-24.975 34.715-28.897 29.641-29.07 24.452-29.247 19.255-29.188 14.061-29.209 9.778-29.227 5.495-29.213 1.212-29.213H0V0Z"/>
<path transform="matrix(1,0,0,-1,563.7187,337.0309)" stroke-width="3" stroke-linecap="butt" stroke-miterlimit="10" stroke-linejoin="miter" fill="none" stroke="#ffffff" d="M0 0C-3.331 0-6.674-.183-9.99 .041-15.571 .417-20.47 5.52-20.683 11.109-20.796 14.077-20.889 17.109-20.423 20.022-19.555 25.452-14.473 29.622-8.973 29.698-2.973 29.781 3.03 29.787 9.029 29.697 15.377 29.602 20.71 24.212 20.826 17.868 20.872 15.345 21.054 12.774 20.67 10.304 19.702 4.076 14.733-.039 8.423-.133 5.616-.174 2.808-.14 0-.14 0-.093 0-.047 0 0Z"/>
<path transform="matrix(1,0,0,-1,465.1929,250.96973)" stroke-width="3" stroke-linecap="butt" stroke-miterlimit="10" stroke-linejoin="miter" fill="none" stroke="#ffffff" d="M0 0C4.172 .115 8.127 .283 12.084 .321 17.732 .375 23.381 .343 29.029 .332 35.436 .319 40.566-3.8 41.445-10.109 41.909-13.442 42.047-16.916 41.127-20.246 39.748-25.233 34.809-28.914 29.581-28.94 23.827-28.97 18.073-28.95 12.32-28.947 5.409-28.943 .002-24.023-.209-17.128-.38-11.495-.089-5.848 0 0Z"/>
</g>
</g>
</svg>