<svg xmlns="http://www.w3.org/2000/svg" xmlns:xlink="http://www.w3.org/1999/xlink" xmlns:inkscape="http://www.inkscape.org/namespaces/inkscape" version="1.1" width="711" height="190" viewBox="65.00 175.67 711.33 189.67">
<defs>
<clipPath id="clip_1">
<path transform="matrix(1,0,0,-1,0,595.28)" d="M0 595.28H841.89V0H0Z"/>
</clipPath>
<path id="font_2_21" d="M.087005618 0V.17033386C.087005618 .23044332 .09816996 .27469383 .12049866 .30308534 .14283753 .33147685 .18333943 .3496755 .2420044 .35768128L.59199526 .3857422C.6233368 .38905845 .64583846 .3950348 .6595001 .40367127 .6731618 .41230775 .6799927 .4289144 .6799927 .4534912L.67900088 .46743775C.67900088 .49334718 .67283126 .5107829 .66049197 .5197449 .64816287 .52871707 .6236674 .5332031 .5870056 .5332031H.4830017L.36499024 .53118899C.34632365 .53118899 .33015443 .52901718 .31648255 .52467349 .30282084 .5203298 .29265849 .5134735 .28599549 .5041046 .2793325 .49473573 .27516685 .4857025 .27349855 .477005 .27183024 .4683075 .2709961 .45827738 .2709961 .44691468V.42382813H.087005618L.085998538 .47084046C.085998538 .5582123 .103663127 .61256918 .13899231 .63391116 .17433167 .6552531 .2386678 .6659241 .33200074 .6659241L.55599978 .6699219 .66799929 .667923C.7426656 .667923 .7948303 .6534627 .8244934 .62454226 .8541667 .59562179 .8690033 .5439351 .8690033 .46948243 .8690033 .38504029 .8546702 .32669578 .826004 .29444886 .79733785 .26221214 .7413381 .24609375 .65800479 .24609375L.49301148 .23495484 .35299684 .22483826C.32633464 .22483826 .305837 .22146607 .2915039 .21472168 .2771708 .2079773 .27000428 .19110616 .27000428 .16410828V.13476563H.8690033V0H.087005618Z"/>
<path id="font_2_19" d="M.4790039 .6699219 .5569916 .67092898C.59432479 .67092898 .620992 .6704254 .6369934 .66941836 .6529948 .66842147 .67932638 .66542056 .71598818 .66041567 .7526601 .65542098 .78499349 .6442566 .8129883 .6269226 .8409932 .6095988 .85965988 .5859375 .86898806 .5559387 .8783264 .52595016 .88482668 .49545799 .88848879 .46446229 .8921611 .43347679 .8939972 .3906606 .8939972 .3360138 .8939972 .23870342 .8889974 .16871643 .8789978 .12605286 .8689982 .08339945 .8433278 .05140686 .8019867 .030075074 .7606557 .008753459 .69299319-.0019073486 .598999-.0019073486L.3889923-.00390625C.255661-.00390625 .16782634 .014088948 .12548828 .050079347 .0831604 .08606974 .06199646 .16904705 .06199646 .29901124V.3360138C.06199646 .4686432 .0791626 .5571187 .11349487 .6014404 .14782715 .64576217 .22699483 .667923 .35099793 .667923L.4790039 .6699219M.4810028 .16015625H.5359955C.60066226 .16015625 .64382937 .16897583 .6654968 .18661499 .6871643 .20426433 .69799807 .24870809 .69799807 .3199463V.33493043 .34890748 .36090089C.69799807 .38952638 .69599917 .4149882 .69200137 .43728639 .68800356 .45959474 .678833 .47607423 .66448977 .48672486 .6501567 .4973755 .6346588 .5040334 .6179962 .5066986 .6013336 .50936385 .5828349 .51102706 .5625 .51168826 .5421651 .5123596 .5306651 .5126953 .5279999 .5126953H.43399049C.35466514 .5126953 .3055013 .50320437 .28649903 .4842224 .26749674 .46525065 .2579956 .41947938 .2579956 .34690858V.33392335C.2579956 .26401774 .26549278 .21791077 .28048707 .19560242 .29549156 .17330425 .33599345 .16215515 .4019928 .16215515L.4810028 .16015625Z"/>
<path id="font_2_23" d="M.8919983 .2685547V.13378906H.7839966V0H.5980072V.13378906H.06700134V.3659973L.548996 .6669922H.7839966V.2685547H.8919983M.20599365 .2685547H.5980072V.5169983L.20599365 .2685547Z"/>
<path id="font_2_27" d="M.81500247 .032089235C.79033407 .016077677 .76716616 .0067392985 .74549868 .0040740969 .7238312 .0014088949 .70099899-.00025431315 .67700198-.00091552737 .65300497-.0015869141 .6306712-.0019226074 .6100006-.0019226074L.47399903-.0029296876 .33999635-.0019226074C.25465904-.0019226074 .19015503 .008412679 .14648438 .029083252 .10282389 .049763998 .08099365 .09779358 .08099365 .173172 .08099365 .22653707 .09049479 .26355998 .10949707 .28424073 .12849935 .30492149 .16433208 .3232676 .21699524 .33927918 .16632588 .3532664 .13215637 .37058006 .114486698 .3912201 .09682719 .41186015 .08799744 .44848124 .08799744 .5010834 .08799744 .56234237 .10466512 .6054535 .13800049 .63041689 .17133586 .65539047 .21967061 .6678772 .28300477 .6678772L.40499879 .671875 .5589905 .6688843H.6159973C.71865847 .6688843 .786321 .6542308 .818985 .6249237 .8516591 .59562686 .8679962 .5516815 .8679962 .49308778 .8679962 .44448344 .85849508 .4096934 .8394928 .38871766 .8205007 .3677419 .78700259 .3505961 .7389984 .33728028 .78700259 .32393394 .8210042 .30758668 .8410034 .28823854 .8610026 .26890055 .8710022 .23721822 .8710022 .19319153 .8710022 .15250142 .86783346 .11948141 .861496 .09413147 .85516867 .06878153 .83967086 .04810079 .81500247 .032089235M.5890045 .40524293C.6150055 .40524293 .6365051 .41023765 .6535034 .42022706 .6705017 .43021647 .67900088 .4471995 .67900088 .47117616 .67900088 .49846903 .6698354 .51627609 .6515045 .52459719 .63317367 .53292849 .6083374 .5370941 .57699587 .5370941L.3829956 .53808596C.35166423 .53808596 .32632957 .53408816 .30699159 .5260925 .2876638 .5181071 .27799989 .5017955 .27799989 .4771576 .27799989 .4505259 .28699748 .43204753 .30499269 .4217224 .32299806 .41140748 .34666953 .40625 .37600709 .40625L.5890045 .40524293M.41999818 .1328125 .56700137 .13381958C.6010081 .13381958 .62867739 .13816834 .65000918 .14686585 .67134097 .15556336 .68200686 .17396038 .68200686 .20205689 .68200686 .2321574 .6728363 .25239054 .65449526 .26275636 .63616439 .27313233 .6100006 .2783203 .576004 .2783203H.37200929C.3400065 .2783203 .31500245 .2738037 .29699708 .2647705 .27900187 .2557373 .27000428 .23650615 .27000428 .20707703 .27000428 .189682 .27266947 .1764679 .27799989 .16743469 .28334046 .15840149 .29284159 .15137737 .3065033 .1463623 .32017518 .14134725 .337677 .13783264 .3590088 .13581848 .38034059 .1338145 .40067039 .1328125 .41999818 .1328125Z"/>
<path id="font_3_458" d="M.66748049 0H.48632813L.3774414 .18051148C.36930339 .19420369 .36149089 .20643108 .3540039 .2171936 .34651695 .22795613 .33894859 .23716736 .33129884 .24482727 .32364909 .25249736 .31567384 .2583669 .30737306 .2624359 .29907228 .2665151 .29003907 .2685547 .28027345 .2685547H.23779297V0H.080078128V.7001953H.33007813C.5 .7001953 .58496096 .6368001 .58496096 .51000979 .58496096 .48562623 .58121749 .46310935 .57373049 .4424591 .56624349 .42181907 .55566409 .4032084 .5419922 .3866272 .5283203 .370046 .5118001 .3557383 .49243165 .34370423 .47306315 .3316803 .4514974 .32225547 .42773438 .3154297V.31347657C.43815104 .31021119 .4482422 .3049113 .4580078 .2975769 .46777345 .29024253 .47721354 .28168235 .48632813 .27189637 .49544273 .26212058 .5041504 .25160728 .5124512 .24035645 .52075198 .2291158 .5283203 .21811421 .53515627 .20735169L.66748049 0M.23779297 .58203127V.3876953H.30615235C.3400065 .3876953 .3671875 .39743553 .3876953 .4169159 .40852867 .4367218 .4189453 .46123759 .4189453 .49046327 .4189453 .5515086 .38232423 .58203127 .30908204 .58203127H.23779297Z"/>
<clipPath id="clip_4">
<path transform="matrix(1,0,0,-1,0,595.28)" d="M0 595.28H841.89V0H0Z"/>
</clipPath>
<clipPath id="clip_5">
<path transform="matrix(1,0,0,-1,0,595.28)" d="M0 595.28H841.89V0H0Z"/>
</clipPath>
<clipPath id="clip_6">
<path transform="matrix(1,0,0,-1,0,595.28)" d="M0 595.28H841.89V0H0Z"/>
</clipPath>
<clipPath id="clip_7">
<path transform="matrix(1,0,0,-1,0,595.28)" d="M70.916 235.281H770.916V416.281H70.916Z"/>
</clipPath>
</defs>
<g>
<g>
<path transform="matrix(1,0,0,-1,182.3935,293.93165)" d="M0 0 17.158 59.978H34.932L17.773 0Z" fill="#223a71"/>
<g clip-path="url(#clip_1)">
<path transform="matrix(1,0,0,-1,271.4629,256.10554)" d="M0 0C.926 3.269 .834 5.414-.278 6.435-1.39 7.456-3.697 7.968-7.199 7.968H-32.765L-37.155-7.53H-11.326C-7.941-7.53-5.426-7.048-3.781-6.085-2.137-5.122-.876-3.094 0 0M.759 22.152C9.572 22.152 14.433 20.715 17.037 17.855 19.642 14.995 19.401 9.577 16.954 .939 14.638-7.234 11.893-13.54 8.287-16.895 4.679-20.252-.402-21.713-8.865-21.713H-13.418-41.173L-46.13-37.826H-63.903L-46.521 22.152Z" fill="#223a71"/>
<path transform="matrix(1,0,0,-1,364.1867,233.95365)" d="M0 0-3.77-14.713H-43.165C-46.969-14.713-50.681-15.918-51.718-19.578L-52.999-23.29H-9.079L-12.687-35.546H-56.843L-57.393-37.964C-58.418-41.583-54.885-45.179-51.124-45.179H-12.754L-16.937-59.978H-64.02C-73.437-59.978-78.613-53.006-77.075-47.578L-67.545-13.935C-65.472-6.615-55.17 0-47.562 0Z" fill="#223a71"/>
<path transform="matrix(1,0,0,-1,386.6631,278.43214)" d="M0 0 9.494-.175 18.625-.087C23.644-.087 27.401 .453 29.897 1.536 32.394 2.62 33.626 4.659 34.837 8.933 34.837 8.933 38.109 20.938 38.524 22.807 38.913 24.557 39.399 26.12 38.274 27.557 37.555 28.477 36.126 29.951 34.254 30.245 32.38 30.537 28.617 30.818 26.399 30.812 21.972 30.801 10.807 30.732 10.807 30.732 6.78 30.732 3.599 30.321 1.266 29.502-1.068 28.683-3.368 27.521-4.476 24.87-6.538 19.932-9.101 11.932-9.101 11.932-10.626 6.546-10.576 4.305-9.851 2.432-9.128 .558-4.962 0 0 0M22.754 44.391H37.17C47.559 44.391 53.113 43 55.962 39.557 58.808 36.112 56.636 24.076 53.712 13.745 50.899 3.807 49.248 .499 48.972-.175 47.358-4.113 47.149-5.318 43.254-9.485 39.237-13.78 31.651-15.499 19.337-15.499L6.004-15.651-9.246-15.499C-20.83-15.151-23.252-15.167-27.83-10.985-29.928-9.068-30.33-4.485-28.544 1.212-28.544 1.212-26.08 14.414-24.246 20.599-20.747 32.406-17.523 35.707-13.454 39.355-9.387 43.003-1.796 44.479 9.587 44.479Z" fill="#223a71"/>
<path transform="matrix(1,0,0,-1,520.0214,267.31205)" d="M0 0C0 0-2.576-8.716-3.171-10.178-5.796-16.632-7.625-18.519-13.2-21.408-18.777-24.297-26.786-26.815-36.709-26.815L-51.219-26.728C-58.923-26.728-64.876-25.754-68.73-24.938-72.585-24.121-75.892-22.39-77.458-19.063-79.026-15.736-77.772-9.662-75.755-2.54L-65.611 33.271H-47.836L-56.492 2.713C-58.146-3.124-58.52-6.917-57.616-8.669-56.711-10.419-53.428-11.295-47.766-11.295L-39.823-11.382-32.443-11.295C-27.6-11.295-24.276-10.537-22.475-9.018-20.674-7.502-19.119-4.437-17.812 .175L-17.192 2.364-8.437 33.271H9.424Z" fill="#223a71"/>
<path transform="matrix(1,0,0,-1,543.2949,292.35304)" d="M0 0 12.4 43.777H-13.691L-9.549 58.399H60.32L56.178 43.777H30.174L17.773 0Z" fill="#223a71"/>
<path transform="matrix(1,0,0,-1,83.7732,234.21732)" d="M0 0H17.683L7.749-35.182C6.727-38.8 7.418-43.098 11.102-43.845 15.106-44.658 22.789-44.658 26.602-43.845 30.322-43.052 33.978-39.866 35.015-36.207L45.351 .264H62.591L52.547-35.177C51.521-38.796 52.78-42.752 56.414-43.72 59.934-44.658 69.379-44.783 71.914-43.97 75.511-42.818 79.031-39.901 80.092-36.277L90.711 0H107.849L94.507-46.026C92.399-53.296 84.534-57.506 76.539-58.626 65.164-60.22 55.791-59.776 48.743-59.098 46.404-58.873 41.481-58.215 38.023-55.449 32.023-58.215 29.085-58.743 25.852-59.033 16.539-59.866 11.727-59.866 .039-59.033-7.46-58.498-14.434-51.114-12.39-43.878Z" fill="#223a71"/>
<use data-text="2" xlink:href="#font_2_21" transform="matrix(87,0,23.3116,-87,188.1386,357.99934)" fill="#223a71"/>
<use data-text="0" xlink:href="#font_2_19" transform="matrix(87,0,23.3116,-87,263.4806,357.99934)" fill="#223a71"/>
<use data-text="4" xlink:href="#font_2_23" transform="matrix(87,0,23.3116,-87,338.8226,357.99934)" fill="#223a71"/>
<use data-text="8" xlink:href="#font_2_27" transform="matrix(87,0,23.3116,-87,414.1646,357.99934)" fill="#223a71"/>
</g>
<use data-text="R" xlink:href="#font_3_458" transform="matrix(6.3053,0,0,-6.3053,598.4424,230.12964)" fill="#223a71"/>
<g clip-path="url(#clip_4)">
<path transform="matrix(1,0,0,-1,604.2128,228.06253)" stroke-width="1" stroke-linecap="butt" stroke-miterlimit="10" stroke-linejoin="miter" fill="none" stroke="#223971" d="M0 0C0-2.071-1.679-3.75-3.75-3.75-5.821-3.75-7.5-2.071-7.5 0-7.5 2.071-5.821 3.75-3.75 3.75-1.679 3.75 0 2.071 0 0Z"/>
</g>
</g>
<g>
<g clip-path="url(#clip_5)">
<path transform="matrix(1,0,0,-1,638.2472,302.59193)" d="M0 0C-8.096 10.537-12.909 23.729-12.909 38.045-12.909 72.563 15.073 100.545 49.591 100.545 84.108 100.545 112.091 72.563 112.091 38.045 112.091 3.527 84.108-24.455 49.591-24.455 34.763-24.455 21.141-19.292 10.426-10.665L-14.135-36.033-135.93-36.034-131.721-20.807H-20.201L0 0" fill="#223a71"/>
<path transform="matrix(1,0,0,-1,627.5218,344.12504)" d="M0 0H-126.725L-130.934-15.226H6.066L25.642 4.994C36.183 .104 47.931-2.625 60.316-2.625 105.88-2.625 142.816 34.312 142.816 79.875 142.816 125.439 105.88 162.375 60.316 162.375 14.753 162.375-22.184 125.439-22.184 79.875-22.184 67.46-19.442 55.686-14.53 45.125L-17.931 41.601-115.225 41.602-119.434 26.375H-11.865L3.418 42.171C-3.658 52.904-7.777 65.76-7.777 79.578-7.777 117.159 22.689 147.625 60.271 147.625 97.852 147.625 128.318 117.159 128.318 79.578 128.318 41.996 97.852 11.531 60.271 11.531 46.226 11.531 33.175 15.786 22.337 23.077Z" fill="#223a71"/>
</g>
</g>
<g>
<g clip-path="url(#clip_6)">
<path transform="matrix(1,0,0,-1,724.942,227.25003)" d="M0 0-7.479 2.292-40.313-25.375-56.146-35.708H-69.313L-84.146-50.542-79.979-68.208-75.404-64.375C-75.404-64.375-76.041-68.216-72.104-72.25-68.729-75.708-64.354-75.342-64.354-75.342L-68.188-79.917-50.521-84.083-35.688-69.25V-56.083L-25.354-40.25 2.313-7.417Z" fill="#ffffff"/>
<path transform="matrix(1,0,0,-1,691.0253,263.50004)" d="M0 0C-2.875-7.687-15.875-23.812-15.875-23.812-15.875-23.812-19.929-21.023-21.656-19.25-24.031-16.812-25.937-13.5-25.937-13.5-25.937-13.5-12.229-.979-2.417 2.271Z" fill="#223a71"/>
</g>
</g>
</g>
</svg>