<svg xmlns="http://www.w3.org/2000/svg" xmlns:xlink="http://www.w3.org/1999/xlink" xmlns:inkscape="http://www.inkscape.org/namespaces/inkscape" version="1.1" width="819" height="208" viewBox="11.00 144.00 819.00 208.00">
<defs>


<path id="font_2_48" d="M.578125 .6484375 .7480469 0H.66503909L.5620117 .3961029 .38476563-.024414063 .20703125 .39904786 .103027347 0H.020019532L.1899414 .6484375 .38476563 .18429566 .578125 .6484375Z"/>



<path id="font_2_3" d=""/>






<path id="font_3_48" d="M.80566409 0H.7241211V.46972657C.7241211 .50683596 .7263997 .5522461 .73095706 .60595706H.7290039C.7211914 .57438156 .7141927 .5517578 .7080078 .53808596L.46875 0H.42871095L.1899414 .5341797C.18310547 .5498047 .17610677 .57373049 .16894531 .60595706H.16699219C.16959636 .5779622 .17089844 .53222659 .17089844 .46875V0H.091796878V.7001953H.20019531L.41503907 .21191406C.43164063 .17447917 .4423828 .14648438 .44726563 .12792969H.4501953C.46419273 .16634114 .4754232 .19498699 .48388673 .21386719L.703125 .7001953H.80566409V0Z"/>







</defs>
<g>
<g>
<g>
<path transform="matrix(1,0,0,-1,32.7603,174.33335)" d="M0 0H17.53C19.34 0 20.686-1.673 20.298-3.441L10.717-47.167H34.589L39.267-25.819C39.553-24.515 40.711-23.587 42.046-23.591L59.562-23.654C61.368-23.661 62.707-25.331 62.321-27.095L57.923-47.167H81.699L88.989-13.895C89.275-12.594 90.427-11.667 91.758-11.667H109.288C111.098-11.667 112.444-13.34 112.057-15.108L101.836-61.755C97.685-65.094 94.91-67.327 90.76-70.667H-7.196C-10.6-66.436-12.099-64.573-15.503-60.342L-2.769-2.228C-2.484-.927-1.332 0 0 0" fill="#e30613"/>
<path transform="matrix(1,0,0,-1,156.2812,174.33335)" d="M0 0H17.71C19.52 0 20.866-1.673 20.479-3.441L17.74-15.939C17.455-17.24 16.303-18.167 14.971-18.167H-2.597C-4.394-18.167-5.738-16.515-5.372-14.755L-2.775-2.258C-2.502-.943-1.343 0 0 0" fill="#e30613"/>
<path transform="matrix(1,0,0,-1,151.287,198.00003)" d="M0 0H17.648C19.466 0 20.813-1.686 20.413-3.458L15.892-23.5H24.321C26.131-23.5 27.477-25.173 27.09-26.941L23.183-44.772C22.898-46.073 21.745-47 20.414-47H-1.835C-5.238-42.791-6.747-40.926-10.15-36.716L-2.772-2.241C-2.492-.934-1.337 0 0 0" fill="#e30613"/>
<path transform="matrix(1,0,0,-1,183.4908,186.00003)" d="M0 0H101.237C105.775-5.641 107.774-8.125 112.313-13.766L104.354-50.088C100.203-53.428 97.428-55.661 93.278-59H20.378L12.635-94.333H-10.698L.241-44.412C4.391-41.072 7.167-38.839 11.317-35.5H84.217L86.81-23.667-4.004-23.988C-5.818-23.994-7.171-22.318-6.783-20.546L-2.769-2.228C-2.484-.927-1.332 0 0 0" fill="#e30613"/>
<path transform="matrix(1,0,0,-1,294.4465,234.79654)" d="M0 0 8.496 38.771C13.165 42.528 16.287 45.04 20.956 48.797H34.026L39.54 73.964C44.21 77.721 47.332 80.233 52.001 83.99H132.197C134.007 83.99 135.354 82.317 134.966 80.548L131.053 62.691C130.768 61.39 129.616 60.463 128.284 60.463H59.9L57.343 48.797H124.486C126.296 48.797 127.642 47.123 127.255 45.355L123.238 27.024C122.953 25.724 121.801 24.797 120.469 24.797H28.751L26.231 13.297H116.707C118.517 13.297 119.863 11.623 119.476 9.855L115.542-8.096C115.257-9.397 114.105-10.324 112.773-10.324H8.307C4.903-6.094 3.404-4.231 0 0" fill="#e30613"/>
<path transform="matrix(1,0,0,-1,438.3145,150.80673)" d="M0 0H5.835C7.645 0 8.991-1.673 8.604-3.441L4.691-21.299C4.406-22.6 3.253-23.527 1.922-23.527H-4.069C-5.889-23.527-7.237-21.836-6.833-20.062L-2.764-2.205C-2.47-.915-1.323 0 0 0" fill="#e30613"/>
<path transform="matrix(1,0,0,-1,438.6049,186.00003)" d="M0 0H95.61C99.581-4.936 101.33-7.109 105.301-12.045L96.963-50.098C92.818-53.436 90.044-55.671 85.899-59.009L-12.638-59.11C-16.046-54.878-17.545-53.017-20.953-48.786L-12.46-10.026Z" fill="#e30613"/>
<path transform="matrix(1,0,0,-1,446.4159,210.00003)" d="M0 0H71.537L69.017-11.5H-2.52Z" fill="#ffffff"/>
<path transform="matrix(1,0,0,-1,554.8168,186.00003)" d="M0 0H17.518C19.328 0 20.674-1.673 20.287-3.441L13.262-35.5H84.191L91.482-2.228C91.767-.927 92.919 0 94.251 0H111.78C113.59 0 114.937-1.673 114.549-3.441L104.328-50.088C100.178-53.428 97.402-55.661 93.252-59H-4.393C-7.796-54.792-9.305-52.926-12.709-48.718L-2.772-2.242C-2.492-.934-1.337 0 0 0" fill="#e30613"/>
<path transform="matrix(1,0,0,-1,686.2401,150.80673)" d="M0 0H17.53C19.34 0 20.686-1.673 20.299-3.441L13.341-35.193H103.639C105.449-35.193 106.795-36.867 106.408-38.635L102.391-56.965C102.106-58.266 100.954-59.193 99.622-59.193H8.082L5.562-70.693H95.86C97.67-70.693 99.016-72.367 98.629-74.135L94.722-91.965C94.437-93.266 93.284-94.193 91.953-94.193H-12.351C-15.755-89.963-17.254-88.1-20.658-83.869L-2.769-2.228C-2.484-.927-1.332 0 0 0" fill="#e30613"/>
<path transform="matrix(1,0,0,-1,774.3141,150.80673)" d="M0 0H5.689C7.499 0 8.846-1.673 8.458-3.441L4.545-21.299C4.26-22.6 3.108-23.527 1.776-23.527H-3.913C-5.723-23.527-7.069-21.853-6.682-20.085L-2.769-2.228C-2.484-.927-1.332 0 0 0" fill="#e30613"/>
<path transform="matrix(1,0,0,-1,791.9009,150.80673)" d="M0 0H5.689C7.499 0 8.846-1.673 8.458-3.441L4.545-21.299C4.26-22.6 3.108-23.527 1.776-23.527H-3.913C-5.723-23.527-7.069-21.853-6.682-20.085L-2.769-2.228C-2.484-.927-1.332 0 0 0" fill="#e30613"/>
<use data-text="O" xlink:href="#font_2_50" transform="matrix(27.2,0,7.0864,-31.2054,213.8722,280.7314)" fill="#1d1d1b"/>
<use data-text="M" xlink:href="#font_2_48" transform="matrix(27.2,0,7.0864,-31.2054,256.1138,280.7314)" fill="#1d1d1b"/>
<use data-text="E" xlink:href="#font_2_40" transform="matrix(27.2,0,7.0864,-31.2054,298.3554,280.7314)" fill="#1d1d1b"/>
<use data-text="G" xlink:href="#font_2_42" transform="matrix(27.2,0,7.0864,-31.2054,331.5394,280.7314)" fill="#1d1d1b"/>
<use data-text="A" xlink:href="#font_2_36" transform="matrix(27.2,0,7.0864,-31.2054,373.781,280.7314)" fill="#1d1d1b"/>
<use data-text=" " xlink:href="#font_2_3" transform="matrix(27.2,0,7.0864,-31.2054,411.48023,280.7314)" fill="#1d1d1b"/>
<use data-text="C" xlink:href="#font_2_38" transform="matrix(27.2,0,7.0864,-31.2054,440.2578,280.7314)" fill="#1d1d1b"/>
<use data-text="O" xlink:href="#font_2_50" transform="matrix(27.2,0,7.0864,-31.2054,477.95704,280.7314)" fill="#1d1d1b"/>
<use data-text="L" xlink:href="#font_2_47" transform="matrix(27.2,0,7.0864,-31.2054,520.1986,280.7314)" fill="#1d1d1b"/>
<use data-text="L" xlink:href="#font_2_47" transform="matrix(27.2,0,7.0864,-31.2054,551.94107,280.7314)" fill="#1d1d1b"/>
<use data-text="E" xlink:href="#font_2_40" transform="matrix(27.2,0,7.0864,-31.2054,583.6835,280.7314)" fill="#1d1d1b"/>
<use data-text="C" xlink:href="#font_2_38" transform="matrix(27.2,0,7.0864,-31.2054,616.8675,280.7314)" fill="#1d1d1b"/>
<use data-text="T" xlink:href="#font_2_55" transform="matrix(27.2,0,7.0864,-31.2054,654.5667,280.7314)" fill="#1d1d1b"/>
<use data-text="I" xlink:href="#font_2_44" transform="matrix(27.2,0,7.0864,-31.2054,687.75076,280.7314)" fill="#1d1d1b"/>
<use data-text="O" xlink:href="#font_2_50" transform="matrix(27.2,0,7.0864,-31.2054,714.9779,280.7314)" fill="#1d1d1b"/>
<use data-text="N" xlink:href="#font_2_49" transform="matrix(27.2,0,7.0864,-31.2054,757.2195,280.7314)" fill="#1d1d1b"/>
<use data-text="T" xlink:href="#font_3_55" transform="matrix(14,0,3.1003,-13.6524,802.7472,159.92682)" fill="#e30613"/>
<use data-text="M" xlink:href="#font_3_48" transform="matrix(14,0,3.1003,-13.6524,810.3912,159.92682)" fill="#e30613"/>
<path transform="matrix(1,0,-.22145,.97517,812,150.36817)" stroke-width=".5" stroke-linecap="butt" stroke-miterlimit="10" stroke-linejoin="miter" fill="none" stroke="#e30613" d="M0 0H-6.802V1.039H-3.979V9.803H-2.83V1.039H0V0Z"/>
<path transform="matrix(1,0,-.22145,.97517,823.83987,150.36817)" stroke-width=".5" stroke-linecap="butt" stroke-miterlimit="10" stroke-linejoin="miter" fill="none" stroke="#e30613" d="M0 0H-1.436L-4.505 6.809C-4.623 7.073-4.78 7.474-4.977 8.012H-5.018C-5.086 7.752-5.236 7.36-5.469 6.836L-8.477 0H-9.994V9.803H-8.887V3.24C-8.887 2.352-8.905 1.711-8.941 1.319H-8.914C-8.813 1.771-8.716 2.105-8.62 2.324L-5.277 9.803H-4.717L-1.367 2.27C-1.28 2.078-1.183 1.762-1.073 1.319H-1.046C-1.109 2.071-1.142 2.707-1.142 3.227V9.803H0V0Z"/>
</g>
</g>
<g>
<path transform="matrix(1,0,0,-1,475.225,343.0371)" d="M0 0V-1.921H-.541V0H-1.615V.483H1.075V0Z" fill="#b2b2b2"/>
<path transform="matrix(1,0,0,-1,477.3773,343.0371)" d="M0 0V-.479H2.153V-.959H0V-1.442H2.153V-1.921H-.538V.483H2.153V0Z" fill="#b2b2b2"/>
<path transform="matrix(1,0,0,-1,482.7609,344.95826)" d="M0 0H-2.69V2.404H0V1.921H-2.153V.479H0Z" fill="#b2b2b2"/>
<path transform="matrix(1,0,0,-1,485.9911,344.95826)" d="M0 0H-.537V.962H-2.152V0H-2.69V2.404H-2.152V1.442H-.537V2.404H0Z" fill="#b2b2b2"/>
<path transform="matrix(1,0,0,-1,489.2215,344.95826)" d="M0 0H-.537V1.921H-2.152V0H-2.69V2.404H0Z" fill="#b2b2b2"/>
<path transform="matrix(1,0,0,-1,0,595.28)" d="M491.915 250.801H490.30003V252.243H491.915ZM492.453 252.726H489.763V250.32199H492.453Z" fill="#b2b2b2"/>
<path transform="matrix(1,0,0,-1,493.5305,344.47895)" d="M0 0H2.153V-.479H-.538V1.925H0Z" fill="#b2b2b2"/>
<path transform="matrix(1,0,0,-1,0,595.28)" d="M498.377 250.801H496.76103V252.243H498.377ZM498.913 252.726H496.223V250.32199H498.913Z" fill="#b2b2b2"/>
<path transform="matrix(1,0,0,-1,502.1438,344.95826)" d="M0 0H-2.69V2.404H0V1.921H-2.152V.479H-.537V.962H-1.074V1.442H0Z" fill="#b2b2b2"/>
<path transform="matrix(1,0,0,-1,0,595.28)" d="M502.689 250.322H503.227V252.727H502.689Z" fill="#b2b2b2"/>
<path transform="matrix(1,0,0,-1,504.3008,343.0371)" d="M0 0V-.479H2.152V-.959H0V-1.442H2.152V-1.921H-.538V.483H2.152V0Z" fill="#b2b2b2"/>
<path transform="matrix(1,0,0,-1,509.6834,344.95826)" d="M0 0H-2.69V.479H-.537V.962H-2.69V2.404H0V1.921H-2.153V1.442H0Z" fill="#b2b2b2"/>
<path transform="matrix(1,0,0,-1,0,595.28)" d="M473.089 254.778H478.253V259.728H473.089Z" fill="#b2b2b2"/>
<g>
<path transform="matrix(1,0,0,-1,452.0268,328.30125)" d="M0 0-8.481-.02H-9.543C-8.275 1.517-6.826 2.541-5.433 2.541H-2.957V7.706H-5.433C-12.979 7.706-18.44-2.657-18.44-9.644V-12.227H-.004V-7.062H-12.95C-12.809-6.441-12.621-5.812-12.4-5.186H.024Z" fill="#b2b2b2"/>
<path transform="matrix(1,0,0,-1,466.8776,331.51353)" d="M0 0V-3.849H-8.032C-6.997 .689-3.615 5.754-.514 5.754H4.563V10.918H-.514C-8.061 10.918-13.522 .555-13.522-6.432V-9.014H0V-14.052H5.165V-9.014 0Z" fill="#b2b2b2"/>
<path transform="matrix(1,0,0,-1,504.9651,325.69633)" d="M0 0H5.077V5.165H0C-3.515 5.165-6.573 2.912-8.841-.196H-11.398C-13.666 2.912-16.724 5.165-20.239 5.165H-25.316V0H-20.239C-18.23 0-16.104-2.126-14.575-4.857-16.104-7.588-18.23-9.713-20.239-9.713H-25.316V-14.878H-20.239C-16.724-14.878-13.666-12.626-11.398-9.517H-8.841C-6.573-12.626-3.515-14.878 0-14.878H5.077V-9.713H0C-2.008-9.713-4.135-7.588-5.664-4.857-4.135-2.126-2.008 0 0 0" fill="#b2b2b2"/>
<path transform="matrix(1,0,0,-1,557.7332,308.76625)" d="M0 0H-16.457C-25.6 0-33.041-7.438-33.041-16.581V-29.857L-32.201-31.311H-14.077L-12.288-25.97-21.099-19.447-10.135-19.547-6.655-9.15-3.362-19.608 .733-19.645V-1.27ZM.198-30.908 .733-29.982V-24.601L-1.327-26.069ZM-8.682-31.311H-5.075L-6.844-30.001Z" fill="#b2b2b2"/>
<path transform="matrix(1,0,0,-1,550.8889,338.76725)" d="M0 0-1.294 3.989H-5.486L-2.095 6.451-3.39 10.439 0 7.974 3.392 10.439 2.096 6.451 5.489 3.989H1.297Z" fill="#b2b2b2"/>
<path transform="matrix(1,0,0,-1,544.0392,343.33863)" d="M0 0H3.465V1.222H0C-.97 1.222-1.76 .432-1.76-.539-1.76-1.51-.97-2.299 0-2.299H3.465V-1.078H0C-.298-1.078-.539-.836-.539-.539-.539-.241-.298 0 0 0" fill="#b2b2b2"/>
<path transform="matrix(1,0,0,-1,552.6843,343.03474)" d="M0 0C-.309 .566-.901 .918-1.544 .918H-3.25C-3.893 .918-4.484 .565-4.795-.001-4.936-.258-5.01-.549-5.01-.842-5.01-1.137-4.936-1.428-4.795-1.685-4.484-2.251-3.893-2.603-3.25-2.603H-1.544C-.901-2.603-.309-2.251 0-1.684 .141-1.429 .216-1.138 .216-.842 .216-.548 .141-.256 0 0M-3.25-.304H-1.544C-1.246-.304-1.005-.545-1.005-.842-1.005-1.14-1.246-1.382-1.544-1.382H-3.25C-3.548-1.382-3.79-1.14-3.79-.842-3.79-.545-3.548-.304-3.25-.304" fill="#b2b2b2"/>
<path transform="matrix(1,0,0,-1,534.385,342.13163)" d="M0 0V-1.746C0-2.043-.241-2.285-.539-2.285H-2.245C-2.543-2.285-2.785-2.043-2.785-1.746V0H-4.006V-1.746C-4.006-2.717-3.216-3.506-2.245-3.506H-.539C.431-3.506 1.222-2.717 1.222-1.746V0Z" fill="#b2b2b2"/>
<path transform="matrix(1,0,0,-1,537.5349,342.12724)" d="M0 0C-.969 0-1.758-.789-1.758-1.758V-3.51H-.54V-1.758C-.54-1.462-.298-1.22 0-1.22H3.145V0Z" fill="#b2b2b2"/>
<path transform="matrix(1,0,0,-1,0,595.28)" d="M540.903 249.643H542.123V253.15702H540.903Z" fill="#b2b2b2"/>
<path transform="matrix(1,0,0,-1,528.2865,342.13163)" d="M0 0H-1.704C-2.675 0-3.465-.79-3.465-1.76V-3.506H-2.245V-1.76C-2.245-1.462-2.003-1.22-1.704-1.22H0C.144-1.22 .279-1.276 .382-1.379 .484-1.481 .54-1.617 .54-1.76V-3.506H1.761V-1.76C1.761-.79 .971 0 0 0" fill="#b2b2b2"/>
<path transform="matrix(1,0,0,-1,0,595.28)" d="M526.829 249.643H528.048V250.856H526.829Z" fill="#b2b2b2"/>
<path transform="matrix(1,0,0,-1,557.0486,342.14405)" d="M0 0C-.417 0-.811-.146-1.127-.411-1.444-.146-1.836 0-2.254 0-3.225 0-4.015-.789-4.015-1.759V-3.493H-2.795V-1.759C-2.795-1.462-2.552-1.22-2.254-1.22-2.026-1.22-1.825-1.368-1.749-1.583-1.756-1.645-1.76-1.703-1.76-1.759V-3.493H-.495V-1.759C-.495-1.759-.502-1.655-.507-1.588-.434-1.371-.23-1.22 0-1.22 .298-1.22 .54-1.462 .54-1.759V-3.493H1.761V-1.759C1.761-.789 .971 0 0 0" fill="#b2b2b2"/>
<path transform="matrix(1,0,0,-1,634.8605,344.07734)" d="M0 0-.52-.516H-3.898V-1.56H-4.417V.514L-3.897 1.032H-.52L0 .516ZM-.518 .514H-3.8980003V.0019999743H-.518Z" fill="#b2b2b2"/>
<path transform="matrix(1,0,0,-1,0,595.28)" d="M635.927 249.643H635.408V252.235H635.927Z" fill="#b2b2b2"/>
<path transform="matrix(1,0,0,-1,640.8929,345.63664)" d="M0 0-.519-.001-1.039 1.043H-3.9V-.001H-4.418V2.074L-3.898 2.592H-.52L-.001 2.075V1.559L-.52 1.042ZM-.52 1.561V2.074H-3.9V1.562Z" fill="#b2b2b2"/>
<path transform="matrix(1,0,0,-1,655.7883,345.63664)" d="M0 0-.519-.001V1.043H-3.899V-.001L-4.417 0V2.592H-3.899V1.561H-.519V2.592H0Z" fill="#b2b2b2"/>
<path transform="matrix(1,0,0,-1,645.8578,345.63215)" d="M0 0-.519-.001V1.043H-3.899V-.001L-4.417-.005V2.073L-3.898 2.592H-.52L0 2.073ZM-.519 2.073H-3.8990002V1.5609999H-.519Z" fill="#b2b2b2"/>
<path transform="matrix(1,0,0,-1,650.8232,345.63664)" d="M0 0-.519-.001V2.074H-3.899V-.001L-4.418 0V2.074L-3.898 2.592H-.52L0 2.074Z" fill="#b2b2b2"/>
<path transform="matrix(1,0,0,-1,660.7534,345.63215)" d="M0 0-.518-.001V1.043H-3.898V-.001L-4.417-.005V2.073L-3.897 2.592H-.519L0 2.073ZM-.518 2.073H-3.8980003V1.5609999H-.518Z" fill="#b2b2b2"/>
<path transform="matrix(1,0,0,-1,0,595.28)" d="M661.82 249.643H661.301V250.095H661.82Z" fill="#b2b2b2"/>
<path transform="matrix(1,0,0,-1,666.7507,345.63233)" d="M0 0-.519-.002V1.042H-3.899V-.002L-4.417-.005V2.072L-3.898 2.591H-.52L0 2.072ZM-.519 2.072H-3.8990002V1.56H-.519Z" fill="#b2b2b2"/>
<path transform="matrix(1,0,0,-1,649.4166,318.68675)" d="M0 0C-5.701 0-10.323-4.274-10.323-9.547-10.323-14.819-5.701-19.093 0-19.093 5.701-19.093 10.323-14.819 10.323-9.547 10.323-4.274 5.701 0 0 0" fill="#ffffff"/>
<path transform="matrix(1,0,0,-1,658.3763,316.28034)" d="M0 0C-3.209 4.609-7.845 7.489-12.4 8.192-15.574 8.682-18.708 8.116-21.294 6.34-24.231 4.321-25.948 1.093-26.391-2.571-26.898-6.76-25.74-11.518-22.835-15.691-20.197-19.479-16.529-22.226-12.507-23.423-8.486-24.62-4.591-24.126-1.542-22.03 1.508-19.934 3.348-16.489 3.64-12.328 3.931-8.167 2.638-3.789 0 0M-22.885-4.883C-21.762-5.372-20.58-5.672-19.38-5.739M-3.907-18.633C-4.767-19.224-5.715-19.647-6.724-19.899L-8.973-16.859-9.48-20.168C-10.383-20.128-11.31-19.971-12.247-19.692-12.262-19.687-12.276-19.683-12.291-19.678L-11.768-17.202-15.401-18.28C-15.725-18.083-16.044-17.871-16.356-17.647-16.734-16.279-16.9-14.922-16.864-13.626L-11.914-16.125-15.851-9.231C-15.651-8.809-15.422-8.406-15.165-8.024L-8.204-12.241-10.627-4.615C-10.009-4.418-9.367-4.288-8.709-4.225L-4.086-9.473-3.903-4.875C-2.723-5.299-1.556-5.912-.443-6.716-.196-7.613-.038-8.519 .028-9.422L-2.475-10.985-.056-12.104C-.184-13.002-.41-13.848-.729-14.632L-4.556-13.824-2.326-17.231C-2.791-17.759-3.319-18.229-3.907-18.633" fill="#b2b2b2"/>
<path transform="matrix(1,0,0,-1,637.8254,329.5822)" d="M0 0C-1.705 2.681-2.493 5.633-2.401 8.352-1.278 7.863-.095 7.563 1.104 7.496 1.403 7.48 1.697 7.479 1.985 7.491 .673 5.365-.01 2.777 0 0" fill="#ffffff"/>
<path transform="matrix(1,0,0,-1,647.3821,315.10353)" d="M0 0C.4 1.132 .579 2.339 .56 3.564 3.105 2.602 5.526 .738 7.344-1.868 4.784-.789 2.133-.423-.334-.815-.212-.554-.1-.283 0 0" fill="#ffffff"/>
<path transform="matrix(1,0,0,-1,579.4141,341.92323)" d="M0 0C.206 .484 .212 1.039 .212 1.625V1.786 1.948C.212 2.783 .201 3.559-.389 4.15-.405 4.165-.421 4.179-.437 4.194-.473 4.229-.51 4.264-.547 4.295-.573 4.318-.601 4.338-.628 4.359-.655 4.38-.682 4.403-.71 4.422-.747 4.448-.784 4.472-.822 4.495-.842 4.507-.86 4.52-.88 4.53-.924 4.556-.97 4.579-1.015 4.6-1.03 4.608-1.044 4.615-1.058 4.621-1.109 4.644-1.162 4.665-1.215 4.683-1.226 4.687-1.236 4.691-1.247 4.695-1.304 4.714-1.364 4.731-1.425 4.745-1.432 4.747-1.439 4.748-1.446 4.75-1.511 4.765-1.577 4.777-1.646 4.787-1.65 4.788-1.654 4.788-1.658 4.789-1.73 4.799-1.804 4.805-1.881 4.81V4.817H-2.048-3.181-3.347V4.81H-3.348C-3.348 4.81-3.347 4.81-3.348 4.81-3.424 4.805-3.499 4.799-3.571 4.789-3.574 4.788-3.578 4.788-3.582 4.787-3.651 4.777-3.718 4.765-3.782 4.75-3.789 4.748-3.796 4.747-3.804 4.745-3.865 4.731-3.924 4.714-3.982 4.695-3.992 4.691-4.003 4.687-4.013 4.683-4.067 4.665-4.119 4.644-4.17 4.621-4.184 4.615-4.199 4.608-4.213 4.6-4.259 4.579-4.304 4.556-4.348 4.53-4.368 4.52-4.387 4.507-4.406 4.495-4.444 4.472-4.482 4.448-4.518 4.422-4.546 4.403-4.573 4.38-4.6 4.359-4.627 4.338-4.655 4.318-4.681 4.295-4.719 4.264-4.755 4.229-4.792 4.194-4.808 4.179-4.824 4.165-4.84 4.15-5.43 3.559-5.441 2.783-5.44 1.948-5.44 1.894-5.44 1.84-5.44 1.786-5.44 1.732-5.44 1.678-5.44 1.625-5.441 .789-5.43 .013-4.84-.578-4.789-.629-4.737-.676-4.684-.721-4.683-.722-4.683-.723-4.681-.723-4.655-.746-4.627-.766-4.6-.787-4.573-.809-4.546-.831-4.518-.85-4.482-.876-4.444-.9-4.406-.923-4.387-.935-4.368-.947-4.348-.959-4.304-.984-4.259-1.007-4.213-1.029-4.199-1.036-4.184-1.043-4.17-1.049-4.119-1.072-4.067-1.093-4.013-1.111-4.003-1.115-3.992-1.119-3.982-1.123-3.924-1.142-3.865-1.159-3.804-1.173-3.796-1.175-3.789-1.177-3.782-1.178-3.718-1.193-3.651-1.205-3.582-1.215-3.578-1.216-3.574-1.216-3.571-1.216-3.499-1.226-3.424-1.234-3.348-1.238H-3.347V-1.245H-3.181-2.048-1.888V-1.261H.872V0ZM-3.181 .056C-3.447 .056-3.655 .173-3.764 .314-3.897 .49-3.981 .69-3.981 1.773-3.981 1.778-3.98 1.782-3.98 1.786-3.98 1.791-3.981 1.794-3.981 1.799-3.981 2.882-3.897 3.083-3.764 3.257-3.655 3.399-3.447 3.516-3.181 3.516H-2.048C-1.781 3.516-1.573 3.399-1.464 3.257-1.331 3.083-1.248 2.882-1.248 1.799V1.786 1.773C-1.248 .69-1.331 .49-1.464 .314-1.573 .173-1.781 .056-2.048 .056Z" fill="#b2b2b2"/>
<path transform="matrix(1,0,0,-1,0,595.28)" d="M580.805 258.032H582.264V252.09601H580.805Z" fill="#b2b2b2"/>
<path transform="matrix(1,0,0,-1,587.785,343.18415)" d="M0 0V5.936H4.512V4.636H1.459V3.644H4.454V2.343H1.459V1.3H4.512V0Z" fill="#b2b2b2"/>
<path transform="matrix(1,0,0,-1,0,595.28)" d="M601.266 255.689H604V254.405H601.266Z" fill="#b2b2b2"/>
<path transform="matrix(1,0,0,-1,599.9532,338.70735)" d="M0 0H1.124V1.46H-.784L-1.908-.816H-2.411V1.471H-3.87V-.816H-4.198L-5.382 1.46H-7.289V0H-6.166L-5.306-1.434-6.27-3.018H-7.289V-4.477H-5.49L-4.155-2.1H-3.87V-4.465H-2.411V-2.1H-1.924L-.676-4.477H1.124V-3.018H.104L-.859-1.434Z" fill="#b2b2b2"/>
<path transform="matrix(1,0,0,-1,614.413,342.60005)" d="M0 0C-.408-.409-.984-.584-1.601-.584H-4.691V5.353H-1.601C-.984 5.353-.408 5.177 0 4.769 .692 4.077 .617 3.318 .617 2.385 .617 1.45 .692 .692 0 0M-1.001 3.718C-1.134 3.919-1.334 4.052-1.701 4.052H-3.232V.717H-1.701C-1.334 .717-1.134 .85-1.001 1.05-.884 1.217-.842 1.376-.842 2.385-.842 3.385-.884 3.552-1.001 3.718" fill="#b2b2b2"/>
<path transform="matrix(1,0,0,-1,584.3341,340.9746)" d="M0 0V-2.21H-1.459V3.727H2.926V2.418H0V1.217Z" fill="#b2b2b2"/>
<path transform="matrix(1,0,0,-1,606.1896,340.9746)" d="M0 0V-2.21H-1.459V3.727H2.925V2.418H0V1.217Z" fill="#b2b2b2"/>
<path transform="matrix(1,0,0,-1,585.0248,331.44303)" d="M0 0C1.707-.677 3.489-.876 5.344-.599 7.284-.309 8.988 .453 10.461 1.684L9.04 2.703C7.874 1.828 6.559 1.281 5.095 1.062 3.537 .829 2.034 .994 .586 1.559-.862 2.123-2.074 3.007-3.05 4.21-4.026 5.412-4.63 6.787-4.861 8.333-5.093 9.885-4.924 11.385-4.353 12.832-3.783 14.278-2.89 15.489-1.676 16.465-.461 17.44 .938 18.046 2.521 18.283 4.06 18.513 5.554 18.336 7.001 17.752 8.449 17.168 9.663 16.267 10.645 15.049 11.626 13.832 12.236 12.43 12.473 10.847 12.685 9.426 12.544 8.051 12.051 6.723L13.457 5.694C14.197 7.354 14.425 9.152 14.135 11.09 13.825 12.986 13.091 14.66 11.933 16.113 10.774 17.565 9.339 18.636 7.627 19.326 5.915 20.015 4.129 20.221 2.269 19.943 .408 19.665-1.244 18.947-2.686 17.79-4.128 16.633-5.186 15.195-5.861 13.475-6.536 11.755-6.733 9.962-6.454 8.095-6.18 6.259-5.463 4.62-4.302 3.178-3.141 1.736-1.707 .677 0 0" fill="#b2b2b2"/>
<path transform="matrix(1,0,0,-1,0,595.28)" d="M615.328 249.643H573.93606V250.81801H615.328Z" fill="#b2b2b2"/>
<path transform="matrix(1,0,0,-1,599.4941,328.59013)" d="M0 0-.589 .429-2.035 1.463C-2.032 1.467-2.03 1.471-2.028 1.474L-3.365 2.447C-3.372 2.436-3.38 2.425-3.387 2.414L-4.723 3.367-5.737 2.106-6.716 2.851-6.723 2.836-7.285 2.41-8.522 2.581-9.583 3.348-10.358 4.053-12.025 5.306-12.607 5.5-15.805 7.905-15.955 8.23-15.886 9.209-14.935 9.102-12.842 7.528-12.261 6.727-8.181 3.841-8.021 4.055-8.835 4.667-9.309 5.327-9.165 5.583-9.173 5.589-9.147 5.615-9.129 5.647-9.122 5.641-8.916 5.85-8.15 5.578-7.336 4.965-7.176 5.179-11.081 8.297-12.011 8.633-14.104 10.206-14.472 11.089-13.55 11.428-13.196 11.374-9.998 8.97-9.65 8.465-7.983 7.212-7.091 6.663-6.059 5.856-5.551 4.716-5.759 4.174-4.741 3.4C-4.575 3.69-4.425 3.993-4.297 4.311-3.826 5.478-3.683 6.679-3.868 7.913-4.056 9.171-4.547 10.295-5.339 11.283-6.132 12.271-7.112 13.003-8.28 13.479-9.448 13.954-10.657 14.098-11.906 13.911-13.187 13.72-14.317 13.228-15.295 12.435-16.274 11.642-16.994 10.659-17.458 9.486-17.922 8.313-18.058 7.091-17.868 5.82-17.682 4.574-17.193 3.463-16.402 2.487-15.611 1.512-14.625 .792-13.442 .328-12.26-.135-11.051-.274-9.814-.089-8.571 .097-7.458 .585-6.476 1.375-6.226 1.576-5.992 1.79-5.775 2.016L3.827-4.871H6.689ZM2.508 2.347C3.154 4.528 3.324 6.641 3.018 8.686 2.65 11.149 1.699 13.334 .167 15.245-1.366 17.155-3.265 18.569-5.529 19.485-7.793 20.402-10.146 20.678-12.586 20.314-15.045 19.946-17.227 18.997-19.132 17.468-21.037 15.939-22.44 14.038-23.341 11.765-24.243 9.493-24.508 7.117-24.137 4.638-23.775 2.215-22.831 .069-21.303-1.802-19.776-3.673-17.877-5.054-15.605-5.946-15.589-5.953-15.573-5.958-15.557-5.964H-25.559V-7.248H15.552ZM-5.711-5.964C-4.634-5.54-3.56-4.969-2.487-4.243L-.124-5.964ZM-2.552-2.197C-4.362-3.812-6.437-4.794-8.777-5.144-10.929-5.466-13-5.233-14.991-4.444-16.983-3.655-18.649-2.436-19.989-.786-21.329 .864-22.158 2.755-22.476 4.886-22.801 7.062-22.57 9.157-21.781 11.17-20.992 13.183-19.762 14.864-18.091 16.213-16.419 17.562-14.505 18.398-12.347 18.72-10.229 19.037-8.17 18.788-6.172 17.974-4.174 17.16-2.5 15.905-1.151 14.21 .199 12.515 1.035 10.592 1.356 8.44 1.7 6.136 1.387 3.935 .415 1.837L2.065 .63 10.892-5.877H2.523Z" fill="#b2b2b2"/>
<path transform="matrix(1,0,0,-1,681.0132,324.97853)" d="M0 0V-7.727H5.655V-12.266H13.566V-7.727H18.537L23.163-12.245 34.374-12.266 29.726-7.727H34.519V0Z" fill="#b2b2b2"/>
<path transform="matrix(1,0,0,-1,690.2233,307.91944)" d="M0 0H15.991L20.126-4.816C20.848-5.887 21.595-6.421 22.366-6.421H25.406V-14.059H18.831C17.336-14.059 16.091-13.5 15.095-12.406L10.063-6.86H5.928L.997-12.406C.025-13.5-1.17-14.059-2.64-14.059H-9.413V-6.421H-6.177C-5.404-6.421-4.681-5.887-3.985-4.816Z" fill="#b2b2b2"/>
<path transform="matrix(1,0,0,-1,694.297,344.09864)" d="M0 0H-.689V1.252H-.344 2.317V0H1.629Z" fill="#b2b2b2"/>
<path transform="matrix(1,0,0,-1,687.9902,342.40403)" d="M0 0H4.21V1.252H-1.252V-3.354H4.21V-.443H1.204V-1.695H2.958V-2.102H0V-1.257Z" fill="#b2b2b2"/>
<path transform="matrix(1,0,0,-1,708.3959,341.17375)" d="M0 0V-1.679H-2.933V.018H-4.174V-2.92H-2.145V-4.69H-.911V-2.92H1.241V0Z" fill="#b2b2b2"/>
<path transform="matrix(1,0,0,-1,680.6581,341.14244)" d="M0 0V-4.535H1.258V-2.956H4.233V-4.553H5.491V0ZM1.258-1.259H4.232V-1.704H1.258Z" fill="#b2b2b2"/>
<path transform="matrix(1,0,0,-1,703.0141,342.42146)" d="M0 0V1.24H-5.413V-1.291H-5.385L-5.383-1.68H-1.24V-2.143H-5.413V-3.383H0V-1.305H-.008V-.44H-4.125V0Z" fill="#b2b2b2"/>
<path transform="matrix(1,0,0,-1,716.1913,342.42146)" d="M0 0V1.24H-5.413V-1.291H-5.384L-5.383-1.68H-1.24V-2.143H-5.413V-3.383H0V-1.305H-.008V-.44H-4.124V0Z" fill="#b2b2b2"/>
<path transform="matrix(1,0,0,-1,736.6467,345.70533)" d="M0 0H6.47V1.316H1.317V1.717H6.47V4.76H0ZM1.317 3.443H5.15V3.043H1.317ZM6.866 0H8.182V4.76H6.866ZM-6.835 0H-5.519V1.726H-.396V3.046H-5.519V3.448H-.396V4.76H-6.835ZM27.469 0H28.786V1.488H27.469ZM15.441 3.443H20.59V3.033H15.441V0H21.91V4.76H15.441ZM20.59 1.316H16.757V1.717H20.59ZM8.574 1.717H13.724V1.316H8.574V0H15.044V3.033H9.891V3.443H15.044V4.76H8.574ZM28.776 4.76H22.306V0H23.622V3.443H28.776Z" fill="#b2b2b2"/>
<path transform="matrix(1,0,0,-1,757.3446,330.02464)" d="M0 0H-10.571C-11.394 0-12.723-.667-13.54-1.49L-17.988-5.966C-15.554-7.594-12.633-8.549-9.485-8.549-3.463-8.549 1.745-5.074 4.252-.022H-.006C-.002-.014-.002-.007 0 0" fill="#b2b2b2"/>
<path transform="matrix(1,0,0,-1,737.7579,326.88294)" d="M0 0 14.331 14.637C15.007 15.318 16.107 15.869 16.788 15.869H19.338C16.769 17.812 13.571 18.966 10.101 18.966 1.636 18.966-5.227 12.103-5.227 3.638-5.227 2.043-4.983 .504-4.531-.942H-2.319C-1.689-.942-.766-.551 0 0" fill="#b2b2b2"/>
<path transform="matrix(1,0,0,-1,762.444,318.52455)" d="M0 0H-.338C-.335 .008-.334 .014-.332 .022H-10.903C-11.726 .022-13.056-.645-13.873-1.468L-19.337-7.179-24.418-12.245C-25.094-12.926-26.195-13.478-26.875-13.478H-27.162C-26.636-14.232-26.044-14.935-25.396-15.581L-16.314-6.435C-15.638-5.755-14.538-5.202-13.857-5.202H.732C.737-5.042 .744-4.882 .744-4.721 .744-3.073 .481-1.488 0 0" fill="#b2b2b2"/>
<path transform="matrix(1,0,0,-1,431.4096,296.00004)" stroke-width="5" stroke-linecap="butt" stroke-miterlimit="10" stroke-linejoin="miter" fill="none" stroke="#a4a5a4" d="M0 0H334.52"/>
</g>
</g>
</g>
</svg>