<svg xmlns="http://www.w3.org/2000/svg" xmlns:xlink="http://www.w3.org/1999/xlink" xmlns:inkscape="http://www.inkscape.org/namespaces/inkscape" version="1.1" width="804" height="246" viewBox="18.00 119.67 804.33 246.00">
<defs><mask id="knock" maskUnits="userSpaceOnUse" x="18.00" y="119.67" width="804.33" height="246.00"><rect x="18.00" y="119.67" width="804.33" height="246.00" fill="#ffffff"/><path transform="matrix(1,0,0,-1,329.0827,217.00003)" d="M0 0H-34.832C-35.615 0-36.249 .635-36.249 1.417V30.083C-36.249 30.865-35.615 31.5-34.832 31.5H-9.921C-3.659 31.5 1.417 26.424 1.417 20.161V1.417C1.417 .635 .783 0 0 0" fill="#000000"/><path transform="matrix(1,0,0,-1,529.9175,183.85633)" d="M0 0H34.832C35.615 0 36.249-.635 36.249-1.417V-30.083C36.249-30.865 35.615-31.5 34.832-31.5H9.921C3.659-31.5-1.417-26.424-1.417-20.161V-1.417C-1.417-.635-.783 0 0 0" fill="#000000"/><path transform="matrix(1,0,0,-1,673.5555,276.16673)" d="M0 0H24.639C25.176 0 25.611-.435 25.611-.972V-20.028C25.611-20.565 25.176-21 24.639-21H6.805C2.51-21-.972-17.518-.972-13.223V-.972C-.972-.435-.537 0 0 0" fill="#000000"/></mask></defs>
<g mask="url(#knock)">
<path transform="matrix(1,0,0,-1,330.8369,354.3333)" d="M0 0C-2.348 0-4.251 1.903-4.251 4.251V59.493C-4.251 60.054-4.153 60.584-3.958 61.07 3.038 78.472 24.669 98.46 39.163 101.333H35.852 84.578V58.583H53.082C48.385 58.583 44.578 54.776 44.578 50.079V44.249C44.578 43.466 45.212 42.831 45.995 42.831H80.326C82.674 42.831 84.578 40.928 84.578 38.579V27.919C84.578 25.57 82.674 23.666 80.325 23.666H45.995C45.212 23.666 44.578 23.032 44.578 22.249V7.087C44.578 3.173 41.405 0 37.491 0Z" fill="#8d2020"/>
<path transform="matrix(1,0,0,-1,457.4229,330.66703)" d="M0 0C-15.839 5.997-34.238 23.85-42.008 35.708V69.163C-42.008 73.86-38.201 77.667-33.504 77.667H-14.679C-9.982 77.667-6.175 73.86-6.175 69.163V39.96C-6.175 35.263-2.367 31.456 2.329 31.456H23.746C24.529 31.456 25.163 32.091 25.163 32.873V69.163C25.163 73.86 28.97 77.667 33.667 77.667H38.823C43.52 77.667 47.327 73.86 47.327 69.163V8.504C47.327 3.807 43.52 0 38.823 0Z" fill="#8d2020"/>
<path transform="matrix(1,0,0,-1,513.254,354.37306)" d="M0 0C-4.697 0-8.504 3.807-8.504 8.504V23.367C-8.504 28.064-4.697 31.871 0 31.871H21.075C26.554 31.871 30.996 36.313 30.996 41.792V56.624C30.996 57.407 30.361 58.042 29.579 58.042H-4.251C-6.6 58.042-8.504 59.946-8.504 62.294V87.196C-8.504 95.023-2.158 101.369 5.669 101.369H59.324C63.238 101.369 66.411 98.196 66.411 94.282V79.831H21.309C20.837 79.831 20.454 79.449 20.454 78.977 20.454 78.505 20.837 78.123 21.309 78.123H70.997C75.694 78.123 79.502 74.314 79.5 69.617L79.491 36.123C71.56 23.11 54.69 8.228 37.075 0Z" fill="#8d2020"/>
<path transform="matrix(1,0,0,-1,601.2549,330.66703)" d="M0 0C-4.697 0-8.504 3.807-8.504 8.504V69.159C-8.504 73.855-4.697 77.663 0 77.663H25.156C29.853 77.663 33.66 73.855 33.66 69.159V8.504C33.66 3.807 29.853 0 25.156 0Z" fill="#8d2020"/>
<path transform="matrix(1,0,0,-1,673.1686,329.90983)" d="M0 0C-16.104 7.449-26.825 16.66-36.63 30.974-37.671 32.493-38.334 34.239-38.334 36.08V68.402C-38.334 73.098-34.526 76.906-29.83 76.906H41.577C46.274 76.906 50.081 73.098 50.081 68.402V7.476C50.081 2.78 46.274-1.028 41.577-1.028H3.513C2.302-1.028 1.099-.508 0 0" fill="#8d2020"/>
<path transform="matrix(1,0,0,-1,785.2559,330.93754)" d="M0 0C-4.697 0-8.504 4.078-8.504 8.774V37.621C-8.504 42.318-12.311 46.125-17.008 46.125H-41.425V8.774C-41.425 4.078-45.232 .271-49.929 .271H-62.006V69.434C-62.006 74.13-58.199 77.938-53.502 77.938H-13.38C2.257 70.236 21.888 53.223 26.327 39.963V8.504C26.327 3.807 22.52 0 17.823 0Z" fill="#8d2020"/>
<path transform="matrix(1,0,0,-1,743.8311,284.81254)" d="M0 0V-37.621C0-42.318-3.807-46.125-8.504-46.125H-20.581V23.309" fill="#8d2020"/>
<path transform="matrix(1,0,0,-1,158.625,254.35254)" d="M0 0C-3.238 0-5.327 .76-9.12 2.139-9.921 2.431-10.792 2.747-11.755 3.086-18.189 5.351-21.283 8.599-21.313 8.632L-23.765 11.248-23.769 2.622C-23.769 1.176-24.944 0-26.39 0H-76.653C-96.377 3.92-123.729 25.523-129.686 47.677V116.868C-129.686 120.776-126.507 123.955-122.599 123.955H-78.338C-74.431 123.955-71.252 120.776-71.252 116.868V59.606C-71.252 54.136-66.801 49.685-61.331 49.685H-46.373V99.743C-46.373 103.651-43.194 106.83-39.287 106.83H-11.463C-7.556 106.83-4.377 103.651-4.377 99.743V59.606C-4.377 54.136 .074 49.685 5.544 49.685H19.627V88.389C19.627 92.297 22.806 95.476 26.713 95.476H54.205C58.113 95.476 61.291 92.297 61.291 88.389V7.086C61.291 3.179 58.113 0 54.205 0Z" fill="#243a5b"/>
<path transform="matrix(1,0,0,-1,259.3659,157.45954)" d="M0 0C4.697 0 8.504-3.807 8.504-8.504V-89.806C8.504-94.503 4.697-98.31 0-98.31H-27.738C-32.435-98.31-36.242-94.503-36.242-89.806V-8.504" fill="#243a5b"/>
<path transform="matrix(1,0,0,-1,229.0027,254.35254)" d="M0 0C-3.908 0-7.086 3.179-7.086 7.086V88.389C-7.086 92.297-3.908 95.476 0 95.476H33.911C37.819 95.476 40.997 92.297 40.997 88.389V7.086C40.997 3.179 37.819 0 33.911 0Z" fill="#243a5b"/>
<path transform="matrix(1,0,0,-1,270,167.38092)" d="M0 0C0 4.697 3.807 8.504 8.504 8.504H54C66.733 8.504 108.498-25.501 108.498-35.869V-78.116C108.498-82.03 105.325-85.619 101.412-85.619H60.003C59.22-85.619 58.585-86.254 58.585-87.036V-107.422C58.517-111.235 55.338-114.357 51.5-114.357H8.504C3.807-114.357 0-110.549 0-105.853Z" fill="#243a5b"/>
<path transform="matrix(1,0,0,-1,429.125,253.00424)" d="M0 0C-27.167 12.254-33.875 19.004-50.457 41.838V85.623C-50.457 90.32-46.649 94.127-41.953 94.127H-35.29C-34.508 94.127-33.873 94.762-33.873 95.545V114.123C-33.873 118.82-30.066 122.627-25.369 122.627H38.281C49.239 122.627 58.123 113.743 58.123 102.785V97.421H2.376C1.593 97.421 .958 96.786 .958 96.004V95.172C.958 94.389 1.593 93.754 2.376 93.754H58.123V78.03C58.123 74.116 54.95 70.944 51.037 70.944H7.956V46.175C7.956 40.695 12.398 36.253 17.877 36.253H49.619C54.316 36.253 58.123 32.446 58.123 27.749L57.712 8.508C57.712 3.812 53.905 .004 49.208 .004Z" fill="#243a5b"/>
<path transform="matrix(1,0,0,-1,536.625,253.00424)" d="M0 0C-13.566 5.748-35.975 17.566-49.998 43.24V87.041C-49.998 90.955-46.825 94.127-42.912 94.127H52.79C55.139 94.127 57.043 92.223 57.043 89.874V8.504C57.043 3.807 53.235 0 48.539 0Z" fill="#243a5b"/>
<path transform="matrix(1,0,0,-1,644.125,253.00003)" d="M0 0C-23.014 9.962-37.349 23.691-50.457 44V87.037C-50.457 90.95-47.285 94.123-43.371 94.123H-15.629C-11.715 94.123-8.542 90.95-8.542 87.036V47.588C-8.542 41.325-3.466 36.249 2.797 36.249H33.123C33.905 36.249 34.54 36.884 34.54 37.666V87.037C34.54 90.95 37.713 94.123 41.626 94.123H51.288C55.202 94.123 58.375 90.95 58.875 87.036V7.086C58.375 3.173 55.202 0 51.289 0Z" fill="#243a5b"/>
<path transform="matrix(1,0,0,-1,751.6171,253.00003)" d="M0 0C-21.788 11.787-36.818 25.059-47.87 44.583V114.265C-47.87 118.962-44.063 122.769-39.366 122.769H1.962C6.659 122.769 10.466 118.962 10.466 114.265V94.375C10.466 93.592 11.1 92.958 11.883 92.958H52.879C56.793 92.958 59.966 89.785 59.966 85.871V78.026C59.966 74.112 56.793 70.939 52.879 70.939H11.883C11.1 70.939 10.466 70.305 10.466 69.522V61.899C10.466 55.637 15.542 50.561 21.804 50.561H52.879C56.793 50.561 59.966 47.388 59.966 43.474V8.504C59.966 3.807 56.159 0 51.462 0Z" fill="#243a5b"/>
</g>
<path transform="matrix(1,0,0,-1,330.8369,354.3333)" stroke-width="8" stroke-linecap="butt" stroke-miterlimit="10" stroke-linejoin="miter" fill="none" stroke="#ffffff" d="M0 0C-2.348 0-4.251 1.903-4.251 4.251V59.493C-4.251 60.054-4.153 60.584-3.958 61.07 3.038 78.472 24.669 98.46 39.163 101.333H35.852 84.578V58.583H53.082C48.385 58.583 44.578 54.776 44.578 50.079V44.249C44.578 43.466 45.212 42.831 45.995 42.831H80.326C82.674 42.831 84.578 40.928 84.578 38.579V27.919C84.578 25.57 82.674 23.666 80.325 23.666H45.995C45.212 23.666 44.578 23.032 44.578 22.249V7.087C44.578 3.173 41.405 0 37.491 0H0Z"/>
<path transform="matrix(1,0,0,-1,457.4229,330.66703)" stroke-width="8" stroke-linecap="butt" stroke-miterlimit="10" stroke-linejoin="miter" fill="none" stroke="#ffffff" d="M0 0C-15.839 5.997-34.238 23.85-42.008 35.708V69.163C-42.008 73.86-38.201 77.667-33.504 77.667H-14.679C-9.982 77.667-6.175 73.86-6.175 69.163V39.96C-6.175 35.263-2.367 31.456 2.329 31.456H23.746C24.529 31.456 25.163 32.091 25.163 32.873V69.163C25.163 73.86 28.97 77.667 33.667 77.667H38.823C43.52 77.667 47.327 73.86 47.327 69.163V8.504C47.327 3.807 43.52 0 38.823 0H0Z"/>
<path transform="matrix(1,0,0,-1,513.254,354.37306)" stroke-width="8" stroke-linecap="butt" stroke-miterlimit="10" stroke-linejoin="miter" fill="none" stroke="#ffffff" d="M0 0C-4.697 0-8.504 3.807-8.504 8.504V23.367C-8.504 28.064-4.697 31.871 0 31.871H21.075C26.554 31.871 30.996 36.313 30.996 41.792V56.624C30.996 57.407 30.361 58.042 29.579 58.042H-4.251C-6.6 58.042-8.504 59.946-8.504 62.294V87.196C-8.504 95.023-2.158 101.369 5.669 101.369H59.324C63.238 101.369 66.411 98.196 66.411 94.282V79.831H21.309C20.837 79.831 20.454 79.449 20.454 78.977 20.454 78.505 20.837 78.123 21.309 78.123H70.997C75.694 78.123 79.502 74.314 79.5 69.617L79.491 36.123C71.56 23.11 54.69 8.228 37.075 0H0Z"/>
<path transform="matrix(1,0,0,-1,601.2549,330.66703)" stroke-width="8" stroke-linecap="butt" stroke-miterlimit="10" stroke-linejoin="miter" fill="none" stroke="#ffffff" d="M0 0C-4.697 0-8.504 3.807-8.504 8.504V69.159C-8.504 73.855-4.697 77.663 0 77.663H25.156C29.853 77.663 33.66 73.855 33.66 69.159V8.504C33.66 3.807 29.853 0 25.156 0H0Z"/>
<path transform="matrix(1,0,0,-1,673.1686,329.90983)" stroke-width="8" stroke-linecap="butt" stroke-miterlimit="10" stroke-linejoin="miter" fill="none" stroke="#ffffff" d="M0 0C-16.104 7.449-26.825 16.66-36.63 30.974-37.671 32.493-38.334 34.239-38.334 36.08V68.402C-38.334 73.098-34.526 76.906-29.83 76.906H41.577C46.274 76.906 50.081 73.098 50.081 68.402V7.476C50.081 2.78 46.274-1.028 41.577-1.028H3.513C2.302-1.028 1.099-.508 0 0Z"/>
<path transform="matrix(1,0,0,-1,785.2559,330.93754)" stroke-width="8" stroke-linecap="butt" stroke-miterlimit="10" stroke-linejoin="miter" fill="none" stroke="#ffffff" d="M0 0C-4.697 0-8.504 4.078-8.504 8.774V37.621C-8.504 42.318-12.311 46.125-17.008 46.125H-41.425V8.774C-41.425 4.078-45.232 .271-49.929 .271H-62.006V69.434C-62.006 74.13-58.199 77.938-53.502 77.938H-13.38C2.257 70.236 21.888 53.223 26.327 39.963V8.504C26.327 3.807 22.52 0 17.823 0H0Z"/>
<path transform="matrix(1,0,0,-1,743.8311,284.81254)" stroke-width="8" stroke-linecap="butt" stroke-miterlimit="10" stroke-linejoin="miter" fill="none" stroke="#ffffff" d="M0 0V-37.621C0-42.318-3.807-46.125-8.504-46.125H-20.581V23.309"/>
<path transform="matrix(1,0,0,-1,506.748,321.08503)" stroke-width="5" stroke-linecap="butt" stroke-miterlimit="10" stroke-linejoin="miter" fill="none" stroke="#ffffff" d="M0 0V23.336H36.085V8.504C36.085 3.815 32.27 0 27.581 0H0Z"/>
<path transform="matrix(1,0,0,-1,676,279.97334)" stroke-width=".5" stroke-linecap="butt" stroke-miterlimit="10" stroke-linejoin="miter" fill="none" stroke="#1d1d1b" d="M0 0V-9.526C0-12.012 1.578-14.027 3.525-14.027H18.915"/>
<path transform="matrix(1,0,0,-1,694.9147,294.00004)" stroke-width=".5" stroke-linecap="butt" stroke-miterlimit="10" stroke-linejoin="miter" fill="none" stroke="#1d1d1b" d="M0 0V14.027"/>
<path transform="matrix(1,0,0,-1,158.625,254.35254)" stroke-width="8" stroke-linecap="butt" stroke-miterlimit="10" stroke-linejoin="miter" fill="none" stroke="#ffffff" d="M0 0C-3.238 0-5.327 .76-9.12 2.139-9.921 2.431-10.792 2.747-11.755 3.086-18.189 5.351-21.283 8.599-21.313 8.632L-23.765 11.248-23.769 2.622C-23.769 1.176-24.944 0-26.39 0H-76.653C-96.377 3.92-123.729 25.523-129.686 47.677V116.868C-129.686 120.776-126.507 123.955-122.599 123.955H-78.338C-74.431 123.955-71.252 120.776-71.252 116.868V59.606C-71.252 54.136-66.801 49.685-61.331 49.685H-46.373V99.743C-46.373 103.651-43.194 106.83-39.287 106.83H-11.463C-7.556 106.83-4.377 103.651-4.377 99.743V59.606C-4.377 54.136 .074 49.685 5.544 49.685H19.627V88.389C19.627 92.297 22.806 95.476 26.713 95.476H54.205C58.113 95.476 61.291 92.297 61.291 88.389V7.086C61.291 3.179 58.113 0 54.205 0H0Z"/>
<path transform="matrix(1,0,0,-1,259.3659,157.45954)" stroke-width="5.4" stroke-linecap="butt" stroke-miterlimit="10" stroke-linejoin="miter" fill="none" stroke="#ffffff" d="M0 0C4.697 0 8.504-3.807 8.504-8.504V-89.806C8.504-94.503 4.697-98.31 0-98.31H-27.738C-32.435-98.31-36.242-94.503-36.242-89.806V-8.504"/>
<path transform="matrix(1,0,0,-1,229.0027,254.35254)" stroke-width="8" stroke-linecap="butt" stroke-miterlimit="10" stroke-linejoin="miter" fill="none" stroke="#ffffff" d="M0 0C-3.908 0-7.086 3.179-7.086 7.086V88.389C-7.086 92.297-3.908 95.476 0 95.476H33.911C37.819 95.476 40.997 92.297 40.997 88.389V7.086C40.997 3.179 37.819 0 33.911 0H0Z"/>
<path transform="matrix(1,0,0,-1,270,167.38092)" stroke-width="8" stroke-linecap="butt" stroke-miterlimit="10" stroke-linejoin="miter" fill="none" stroke="#ffffff" d="M0 0C0 4.697 3.807 8.504 8.504 8.504H54C66.733 8.504 108.498-25.501 108.498-35.869V-78.116C108.498-82.03 105.325-85.619 101.412-85.619H60.003C59.22-85.619 58.585-86.254 58.585-87.036V-107.422C58.517-111.235 55.338-114.357 51.5-114.357H8.504C3.807-114.357 0-110.549 0-105.853V0Z"/>
<path transform="matrix(1,0,0,-1,329.0827,217.00003)" stroke-width="5.4" stroke-linecap="butt" stroke-miterlimit="10" stroke-linejoin="miter" fill="none" stroke="#ffffff" d="M0 0H-34.832C-35.615 0-36.249 .635-36.249 1.417V30.083C-36.249 30.865-35.615 31.5-34.832 31.5H-9.921C-3.659 31.5 1.417 26.424 1.417 20.161V1.417C1.417 .635 .783 0 0 0Z"/>
<path transform="matrix(1,0,0,-1,429.125,253.00424)" stroke-width="8" stroke-linecap="butt" stroke-miterlimit="10" stroke-linejoin="miter" fill="none" stroke="#ffffff" d="M0 0C-27.167 12.254-33.875 19.004-50.457 41.838V85.623C-50.457 90.32-46.649 94.127-41.953 94.127H-35.29C-34.508 94.127-33.873 94.762-33.873 95.545V114.123C-33.873 118.82-30.066 122.627-25.369 122.627H38.281C49.239 122.627 58.123 113.743 58.123 102.785V97.421H2.376C1.593 97.421 .958 96.786 .958 96.004V95.172C.958 94.389 1.593 93.754 2.376 93.754H58.123V78.03C58.123 74.116 54.95 70.944 51.037 70.944H7.956V46.175C7.956 40.695 12.398 36.253 17.877 36.253H49.619C54.316 36.253 58.123 32.446 58.123 27.749L57.712 8.508C57.712 3.812 53.905 .004 49.208 .004L0 0Z"/>
<path transform="matrix(1,0,0,-1,536.625,253.00424)" stroke-width="8" stroke-linecap="butt" stroke-miterlimit="10" stroke-linejoin="miter" fill="none" stroke="#ffffff" d="M0 0C-13.566 5.748-35.975 17.566-49.998 43.24V87.041C-49.998 90.955-46.825 94.127-42.912 94.127H52.79C55.139 94.127 57.043 92.223 57.043 89.874V8.504C57.043 3.807 53.235 0 48.539 0H0Z"/>
<path transform="matrix(1,0,0,-1,644.125,253.00003)" stroke-width="8" stroke-linecap="butt" stroke-miterlimit="10" stroke-linejoin="miter" fill="none" stroke="#ffffff" d="M0 0C-23.014 9.962-37.349 23.691-50.457 44V87.037C-50.457 90.95-47.285 94.123-43.371 94.123H-15.629C-11.715 94.123-8.542 90.95-8.542 87.036V47.588C-8.542 41.325-3.466 36.249 2.797 36.249H33.123C33.905 36.249 34.54 36.884 34.54 37.666V87.037C34.54 90.95 37.713 94.123 41.626 94.123H51.288C55.202 94.123 58.375 90.95 58.875 87.036V7.086C58.375 3.173 55.202 0 51.289 0H0Z"/>
<path transform="matrix(1,0,0,-1,751.6171,253.00003)" stroke-width="8" stroke-linecap="butt" stroke-miterlimit="10" stroke-linejoin="miter" fill="none" stroke="#ffffff" d="M0 0C-21.788 11.787-36.818 25.059-47.87 44.583V114.265C-47.87 118.962-44.063 122.769-39.366 122.769H1.962C6.659 122.769 10.466 118.962 10.466 114.265V94.375C10.466 93.592 11.1 92.958 11.883 92.958H52.879C56.793 92.958 59.966 89.785 59.966 85.871V78.026C59.966 74.112 56.793 70.939 52.879 70.939H11.883C11.1 70.939 10.466 70.305 10.466 69.522V61.899C10.466 55.637 15.542 50.561 21.804 50.561H52.879C56.793 50.561 59.966 47.388 59.966 43.474V8.504C59.966 3.807 56.159 0 51.462 0H0Z"/>
<path transform="matrix(1,0,0,-1,330.0068,255.00052)" stroke-width="5" stroke-linecap="butt" stroke-miterlimit="10" stroke-linejoin="miter" fill="none" stroke="#ffffff" d="M0 0H31.819L23.211-5.254C16.714-9.22 10.257-15.043 5.029-21.65L-.041-28.057 0 0Z"/>
<path transform="matrix(1,0,0,-1,529.9175,183.85633)" stroke-width="5.4" stroke-linecap="butt" stroke-miterlimit="10" stroke-linejoin="miter" fill="none" stroke="#ffffff" d="M0 0H34.832C35.615 0 36.249-.635 36.249-1.417V-30.083C36.249-30.865 35.615-31.5 34.832-31.5H9.921C3.659-31.5-1.417-26.424-1.417-20.161V-1.417C-1.417-.635-.783 0 0 0Z"/>
<path transform="matrix(1,0,0,-1,673.5555,276.16673)" stroke-width="5.4" stroke-linecap="butt" stroke-miterlimit="10" stroke-linejoin="miter" fill="none" stroke="#ffffff" d="M0 0H24.639C25.176 0 25.611-.435 25.611-.972V-20.028C25.611-20.565 25.176-21 24.639-21H6.805C2.51-21-.972-17.518-.972-13.223V-.972C-.972-.435-.537 0 0 0Z"/>
<path transform="matrix(1,0,0,-1,461.1689,297.7939)" stroke-width="5" stroke-linecap="butt" stroke-miterlimit="10" stroke-linejoin="miter" fill="none" stroke="#ffffff" d="M0 0C-4.688 0-8.504 3.814-8.504 8.503V41.878H19.999V0H0Z"/>
<path transform="matrix(1,0,0,-1,483.1514,214.31403)" stroke-width="3" stroke-linecap="butt" stroke-miterlimit="10" stroke-linejoin="miter" fill="none" stroke="#ffffff" d="M0 0C-.964 .305-1.971 .46-2.99 .46H-36.149C-40.057 .46-43.235 3.639-43.235 7.547V29.481H.641V5.022C.641 3.521 1.571 2.189 1.58 2.176L4.016-1.268 0 0Z"/>
<path transform="matrix(1,0,0,-1,503.6689,255.17194)" stroke-width="5" stroke-linecap="butt" stroke-miterlimit="10" stroke-linejoin="miter" fill="none" stroke="#ffffff" d="M0 0C-.133 .26-1.757 3.212-6.961 3.212H-20.705L-15.747 7.911C-15.599 8.132-15.004 9.139-15.004 11.109V37.849L-10.045 32.236C-9.874 32.043 7.133 12.876 16.767 8.988L20.081 3.672C17.815 3.491 7.222 2.244 4.737-.668L1.795-4.118 0 0Z"/>
<path transform="matrix(1,0,0,-1,720.6426,253.80664)" stroke-width="5" stroke-linecap="butt" stroke-miterlimit="10" stroke-linejoin="miter" fill="none" stroke="#ffffff" d="M0 0C-.185 .33-1.201 1.847-4.361 1.847H-21.482L-16.524 6.546C-16.376 6.767-15.781 7.773-15.781 9.744V39.637L-10.769 33.621C-5.651 27.479 9.372 10.837 17.335 7.623L18.951 2.165C18.916 2.167 15.703 2.186 15.118 2.186 11.312 2.186 6.592 1.422 4.764-.721L1.51-4.535 0 0Z"/>
<path transform="matrix(1,0,0,-1,593.9961,248.56452)" stroke-width="5" stroke-linecap="butt" stroke-miterlimit="10" stroke-linejoin="miter" fill="none" stroke="#ffffff" d="M0 0C.053 .109 .896 1.908 .896 4.502V34.076L5.859 28.437C11.359 22.188 27.383 5.264 35.377 2.037L34.313-3.426 12.313-3.395C11.835-3.389 11.411-3.386 11.006-3.386 5.704-3.386 3.777-3.873 3.521-3.945 3.521-3.945 .966-5.516-.328-4.102-1.634-2.675 0 0 0 0Z"/>
<path transform="matrix(1,0,0,-1,379.9209,251.39502)" stroke-width="5" stroke-linecap="butt" stroke-miterlimit="10" stroke-linejoin="miter" fill="none" stroke="#ffffff" d="M0 0-.067 35.119 4.905 29.498C18.628 13.984 20.416 12.651 32.511 5.252L41.098 0H0Z"/>
<path transform="matrix(1,0,0,-1,0,595.28)" stroke-width="5" stroke-linecap="butt" stroke-miterlimit="10" stroke-linejoin="miter" fill="none" stroke="#ffffff" d="M581.603 340.302H590.648V321.071H581.603Z"/>
<path transform="matrix(1,0,0,-1,0,595.28)" stroke-width="1" stroke-linecap="butt" stroke-miterlimit="10" stroke-linejoin="miter" fill="none" stroke="#ffffff" d="M583.729 338.176H588.52206V323.197H583.729Z"/>
<path transform="matrix(1,0,0,-1,509.5833,318.25004)" stroke-width="1" stroke-linecap="butt" stroke-miterlimit="10" stroke-linejoin="miter" fill="none" stroke="#1d1d1b" d="M0 0V0H24.746C27.877 0 30.415 2.538 30.415 5.669V17.667H0V0Z"/>
<path transform="matrix(1,0,0,-1,332.8374,257.83473)" stroke-width="1" stroke-linecap="butt" stroke-miterlimit="10" stroke-linejoin="miter" fill="none" stroke="#1d1d1b" d="M0 0-.025-17.057C5.467-10.116 12.136-4.131 18.904 0H0Z"/>
<path transform="matrix(1,0,0,-1,298.375,211.50003)" stroke-width="1" stroke-linecap="butt" stroke-miterlimit="10" stroke-linejoin="miter" fill="none" stroke="#1d1d1b" d="M0 0V21.125H18.777C23.457 21.125 27.25 17.332 27.25 12.652V0H0Z"/>
<path transform="matrix(1,0,0,-1,560.6251,189.35633)" stroke-width="1" stroke-linecap="butt" stroke-miterlimit="10" stroke-linejoin="miter" fill="none" stroke="#1d1d1b" d="M0 0V-21.125H-18.777C-23.457-21.125-27.25-17.332-27.25-12.652V0H0Z"/>
<path transform="matrix(1,0,0,-1,695.2556,279.83335)" stroke-width="1" stroke-linecap="butt" stroke-miterlimit="10" stroke-linejoin="miter" fill="none" stroke="#1d1d1b" d="M0 0V-14.083H-13.42C-16.63-14.083-19.232-11.481-19.232-8.272V0H0Z"/>
<path transform="matrix(1,0,0,-1,478.3333,258.75004)" stroke-width="1" stroke-linecap="butt" stroke-miterlimit="10" stroke-linejoin="miter" fill="none" stroke="#1d1d1b" d="M0 0V-36.209H-17.164C-20.295-36.209-22.833-33.671-22.833-30.54V0H0Z"/>
<path transform="matrix(1,0,0,-1,483.579,212.96283)" stroke-width="1" stroke-linecap="butt" stroke-miterlimit="10" stroke-linejoin="miter" fill="none" stroke="#1d1d1b" d="M0 0C-1.079 .342-2.227 .526-3.418 .526H-36.577C-39.703 .526-42.246 3.07-42.246 6.196V26.713H-1.204V3.671C-1.204 1.666 0 0 0 0Z"/>
<path transform="matrix(1,0,0,-1,491.5,244.06253)" stroke-width="1" stroke-linecap="butt" stroke-miterlimit="10" stroke-linejoin="miter" fill="none" stroke="#1d1d1b" d="M0 0V19.25C0 19.25 17.5-.562 27.875-4.75 27.875-4.75 18.562-5.469 14.75-9.938 14.75-9.938 12.625-5.062 5.208-5.062H-1.437C-1.437-5.062 0-3.469 0 0Z"/>
<path transform="matrix(1,0,0,-1,707.6959,244.06253)" stroke-width="1" stroke-linecap="butt" stroke-miterlimit="10" stroke-linejoin="miter" fill="none" stroke="#1d1d1b" d="M0 0V22.062C0 22.062 18.846-.562 29.221-4.75 29.221-4.75 19.367-4.156 15.554-8.625 15.554-8.625 14.085-5.062 8.585-5.062H-1.437C-1.437-5.062 0-3.469 0 0Z"/>
<path transform="matrix(1,0,0,-1,628.3125,249.15634)" stroke-width="1" stroke-linecap="butt" stroke-miterlimit="10" stroke-linejoin="miter" fill="none" stroke="#1d1d1b" d="M0 0C-10.375 4.187-30.585 27.156-30.585 27.156V5.094C-30.585 1.625-31.792-.698-31.792-.698-31.792-.698-29.771 .135-22 .031L0 0Z"/>
<path transform="matrix(1,0,0,-1,410.9532,248.56052)" stroke-width="1" stroke-linecap="butt" stroke-miterlimit="10" stroke-linejoin="miter" fill="none" stroke="#1d1d1b" d="M0 0C-12.569 7.689-14.543 9.289-28.251 24.786L-28.203 0H0Z"/>
<path transform="matrix(1,0,0,-1,0,595.28)" stroke-width="1" stroke-linecap="butt" stroke-miterlimit="10" stroke-linejoin="miter" fill="none" stroke="#1d1d1b" d="M587.812 323.905H584.437V337.468H587.812Z"/>
<path transform="matrix(1,0,0,-1,804.4961,186.68653)" stroke-width="1" stroke-linecap="butt" stroke-miterlimit="10" stroke-linejoin="miter" fill="none" stroke="#1d1d1b" d="M0 0C6.252 0 11.339 5.086 11.339 11.338V19.183C11.339 25.435 6.252 30.521 0 30.521H-38.161V47.577C-38.161 54.611-43.884 60.333-50.917 60.333H-92.245C-99.278 60.333-105.001 54.611-105.001 47.577V30.921C-106.281 31.414-107.656 31.687-109.083 31.687H-118.744C-124.996 31.687-130.083 26.601-130.083 20.349V-26.187H-157.574C-161.482-26.187-164.661-23.007-164.661-19.1V20.349C-164.661 26.601-169.748 31.687-176 31.687H-203.742C-205.995 31.687-208.092 31.019-209.859 29.881-211.302 31.009-213.112 31.687-215.081 31.687H-310.783C-311.541 31.687-312.28 31.61-312.996 31.467V36.093C-312.996 49.378-323.805 60.188-337.091 60.188H-400.74C-407.774 60.188-413.496 54.465-413.496 47.431V31.687H-417.324C-424.357 31.687-430.08 25.965-430.08 18.931V-2.213C-435.377 3.687-441.94 9.301-445.788 12.434-451.335 16.951-470.232 31.687-480.497 31.687H-525.992C-529.049 31.687-531.856 30.605-534.056 28.805-536.06 30.592-538.693 31.687-541.583 31.687H-575.493C-578.658 31.687-581.521 30.381-583.58 28.283-585.639 30.381-588.501 31.687-591.666 31.687H-619.158C-625.41 31.687-630.496 26.601-630.496 20.349V-14.104H-640.327C-643.453-14.104-645.996-11.56-645.996-8.434V31.703C-645.996 37.955-651.083 43.041-657.334 43.041H-685.158C-691.41 43.041-696.496 37.955-696.496 31.703V-14.104H-707.202C-710.328-14.104-712.871-11.56-712.871-8.434V48.828C-712.871 55.08-717.958 60.166-724.209 60.166H-768.47C-774.722 60.166-779.809 55.08-779.809 48.828V-20.925L-779.663-21.467C-773.233-45.383-744.631-67.982-723.353-72.21L-722.943-72.292H-672.261C-668.67-72.292-665.713-69.524-665.413-66.011-663.737-67.006-661.618-68.057-659.037-68.965-658.089-69.298-657.234-69.609-656.441-69.898-652.477-71.34-649.857-72.292-645.871-72.292H-591.666C-588.501-72.292-585.639-70.986-583.58-68.888-581.521-70.986-578.658-72.292-575.493-72.292H-541.583C-540.602-72.292-539.656-72.154-538.748-71.919V-86.921C-538.748-93.955-533.026-99.677-525.992-99.677H-482.996C-481.302-99.677-479.694-99.287-478.242-98.607-479.547-100.876-480.668-103.142-481.563-105.367-481.961-106.358-482.163-107.422-482.163-108.528V-163.77C-482.163-168.459-478.348-172.273-473.659-172.273H-436.168C-429.916-172.273-424.83-167.187-424.83-160.935V-148.606H-393.334C-388.645-148.606-384.83-144.791-384.83-140.102V-129.441C-384.83-124.752-388.645-120.938-393.333-120.938H-424.83V-117.941C-424.83-115.597-422.922-113.689-420.578-113.689H-390.759C-381.403-126.559-363.589-142.647-348.579-148.331L-347.852-148.606H-308.25C-306.758-148.606-305.33-148.335-303.998-147.862V-159.557C-303.998-166.59-298.275-172.312-291.242-172.312H-253.223L-252.367-171.913C-238.042-165.222-223.705-154.048-214.122-142.473-211.88-146.143-207.848-148.606-203.241-148.606H-178.085C-171.052-148.606-165.329-142.884-165.329-135.851V-122.692C-156.784-132.708-147.262-140.911-133.111-147.457-131.484-148.209-129.653-148.606-127.814-148.606H-89.75C-88.258-148.606-86.83-148.335-85.498-147.862V-148.606H-69.169C-62.136-148.606-56.413-142.884-56.413-135.851V-102.752H-36.248C-33.903-102.752-31.996-104.66-31.996-107.004V-135.851C-31.996-142.884-26.273-148.606-19.24-148.606H-1.417C5.616-148.606 11.339-142.884 11.339-135.851V-103.969L11.119-103.312C7.493-92.483-4.716-79.977-17.422-70.939H-1.417C5.616-70.939 11.339-65.217 11.339-58.184V-23.214C11.339-16.961 6.252-11.875 0-11.875H-31.074C-34.982-11.875-38.161-8.696-38.161-4.789V0H0Z"/>
</svg>
