<svg xmlns="http://www.w3.org/2000/svg" xmlns:xlink="http://www.w3.org/1999/xlink" xmlns:inkscape="http://www.inkscape.org/namespaces/inkscape" version="1.1" width="120" height="90" viewBox="3.00 3.00 119.67 90.00">
<defs>




<path id="font_4_2" d="M.23999024 .46195985C.23298645 .46195985 .22698975 .45896913 .22399903 .45295716L.009994507 .024993897C.008987427 .021987915 .0079956059 .019989014 .0079956059 .016983033 .0079956059 .009994507 .011993408 .0029907227 .017990113 0 .019989014-.0010070801 .021987915 0 .023986817 0 .0309906 0 .036987306 .0029907227 .040985109 .009994507L.102996829 .13395691H.36698915L.4249878 .009994507C.42799378 .0029907227 .43499757 0 .44099427 0 .44400025 0 .44599916-.0010070801 .44799806 0 .45399476 .0029907227 .45799256 .009994507 .45799256 .016983033 .45799256 .019989014 .45700074 .021987915 .45599366 .024993897L.25498963 .45295716C.2519989 .45896913 .24699402 .46195985 .23999024 .46195985M.23899842 .40596009 .35099793 .16796875H.11999512L.23899842 .40596009Z"/>

<path id="font_4_7" d="M.04699707 .46191407C.040985109 .46191407 .034988405 .457901 .03199768 .45291139 .0309906 .4499054 .02999878 .4468994 .02999878 .4439087 .02999878 .4409027 .0309906 .437912 .03199768 .4359131 .034988405 .42990113 .040985109 .4269104 .04699707 .4269104H.07798767V.032989503H.04699707C.040985109 .032989503 .034988405 .02999878 .03199768 .024993897 .0309906 .021987915 .02999878 .018997193 .02999878 .015991211 .02999878 .0129852299 .0309906 .009994507 .03199768 .0069885256 .034988405 .0019989014 .040985109 0 .04699707 0H.14299011C.14898682 0 .15499878 .0019989014 .1579895 .0069885256 .1599884 .009994507 .16099549 .0129852299 .16099549 .015991211 .16099549 .018997193 .1599884 .021987915 .1579895 .024993897 .15499878 .02999878 .14898682 .032989503 .14299011 .032989503H.11199951V.4269104H.14299011C.14898682 .4269104 .15499878 .42990113 .1579895 .4359131 .1599884 .437912 .16099549 .4409027 .16099549 .4439087 .16099549 .4468994 .1599884 .4499054 .1579895 .45291139 .15499878 .457901 .14898682 .46191407 .14299011 .46191407H.04699707Z"/>
<path id="font_4_10" d="M.40299989 .4560547C.3929901 .4560547 .38598634 .44804383 .38598634 .43804933V.06500244L.08198547 .4490509C.07798767 .4550476 .069992069 .4570465 .06298828 .45404054 .056991579 .45204164 .051986696 .44604493 .051986696 .43804933V.016998291C.051986696 .0079956059 .05999756 0 .068984989 0 .07798767 0 .085998538 .0079956059 .085998538 .016998291V.39004518L.3889923 .005996704C.3939972 .0009918213 .40098573-.0020141602 .4079895 0 .4149933 .0019989014 .41999818 .009994507 .41999818 .016998291V.43804933C.41999818 .44303895 .41799928 .447052 .4149933 .4510498 .4119873 .45404054 .40699769 .4560547 .40299989 .4560547Z"/>

<path id="font_4_1" d=""/>
<path id="font_4_4" d="M.050994874 .46191407V0H.18998719C.32299806 0 .43099977 .10498047 .43099977 .23394776 .43099977 .36291505 .32199098 .46191407 .18998719 .46191407H.050994874M.083999637 .4289093H.18998719C.30599977 .4289093 .39698792 .34492494 .39698792 .23394776 .39698792 .12297058 .30499269 .033996583 .18998719 .033996583H.084991458C.084991458 .04899597 .083999637 .12997437 .083999637 .22595215V.37091065 .42190553 .4289093Z"/>





<path id="font_4_9" d="M.068984989 .4580078C.054992677 .4580078 .051986696 .44200135 .051986696 .43899537V.016998291C.051986696 .010986328 .054992677 .004989624 .05999756 .0019989014 .06298828 .0009918213 .06599426 0 .068984989 0 .070999149 0 .07398987 .0009918213 .07699585 .0019989014 .08198547 .004989624 .084991458 .010986328 .084991458 .016998291V.36799623L.2689972 .008987427C.27198792 .0039978029 .2769928 0 .28399659 0 .2899933 0 .29599 .0039978029 .29899598 .008987427L.48199464 .36799623V.016998291C.48199464 .010986328 .4850006 .004989624 .4909973 .0019989014 .49299623 .0009918213 .49598695 0 .49899293 0 .5019989 0 .5049896 .0009918213 .5079956 .0019989014 .5130005 .004989624 .5159912 .010986328 .5159912 .016998291V.43899537C.5159912 .44900514 .5099945 .4580078 .49899293 .4580078 .49299623 .4580078 .4869995 .45199586 .48399354 .44599916L.28399659 .054000856 .083999637 .44599916C.08099365 .45199586 .07499695 .4580078 .068984989 .4580078Z"/>







</defs>
<g>
<g>
<g>
<path transform="matrix(1,0,0,-1,51.452486,6.2944338)" d="M0 0C-25.049 0-45.354-20.306-45.354-45.354V-68.031H-9.921V-45.354H-22.677C-22.677-32.83-12.524-22.677 0-22.677V-35.433H22.677V0Z" fill="#a0c2c5"/>
<path transform="matrix(1,0,0,-1,74.12918,89.916507)" d="M0 0C25.049 0 45.354 20.306 45.355 45.354V68.031H9.922V45.354H22.677C22.677 32.83 12.524 22.677 0 22.677V35.433H-22.677V0Z" fill="#3fa7aa"/>
</g>
</g>
<g>

<g>





<path transform="matrix(1,0,0,-1,-3.120514,245.12488)" d="M0 0 11.086 4.488C11.641 4.699 12.084 4.873 12.416 5.01 12.748 5.146 13.059 5.314 13.348 5.514 13.637 5.713 13.873 5.975 14.057 6.299 14.24 6.623 14.332 7.027 14.332 7.512 14.332 7.988 14.24 8.389 14.057 8.713 13.873 9.037 13.633 9.299 13.336 9.498 13.039 9.697 12.666 9.885 12.217 10.061 11.768 10.236 11.383 10.387 11.063 10.512L-.094 14.906C-.539 15.086-.887 15.215-1.137 15.293-1.387 15.371-1.629 15.41-1.863 15.41-2.27 15.41-2.633 15.242-2.953 14.906-3.273 14.57-3.434 14.184-3.434 13.746-3.434 13.23-3.283 12.859-2.982 12.633-2.682 12.406-2.102 12.133-1.242 11.813L.961 10.992V7.905H3.574V10.078L10.664 7.535 3.574 4.945V7.13H.961V4.008L-1.195 3.188C-1.461 3.078-1.768 2.947-2.115 2.795-2.463 2.643-2.721 2.5-2.889 2.367-3.057 2.234-3.189 2.07-3.287 1.875-3.385 1.68-3.434 1.445-3.434 1.172-3.434 .703-3.268 .303-2.936-.029-2.604-.361-2.238-.527-1.84-.527-1.457-.527-.844-.352 0 0" fill="#ef4723"/>
<path transform="matrix(1,0,0,-1,10.690002,283.47645)" d="M0 0C.348 .324 .521 .748 .521 1.271 .521 1.795 .348 2.213 0 2.525-.348 2.838-.877 2.994-1.588 2.994H-10.107C-11.576 2.994-12.672 3.275-13.395 3.838-13.972 4.288-14.309 5.004-14.424 5.964H-17.211C-17.175 5.075-17.068 4.261-16.846 3.568-16.58 2.74-16.158 2.014-15.58 1.389-14.9 .662-14.111 .168-13.213-.094-12.314-.355-11.193-.486-9.85-.486H-1.588C-.877-.486-.348-.324 0 0" fill="#ef4723"/>
<path transform="matrix(1,0,0,-1,-3.7877198,276.73817)" d="M0 0C.002 .975 .179 1.736 .532 2.279 .888 2.826 1.388 3.207 2.032 3.422 2.677 3.637 3.48 3.744 4.441 3.744H12.89C13.593 3.744 14.12 3.902 14.472 4.219 14.823 4.535 14.999 4.963 14.999 5.502 14.999 6.018 14.823 6.434 14.472 6.75 14.12 7.066 13.593 7.225 12.89 7.225H4.628C3.331 7.225 2.216 7.084 1.282 6.803 .349 6.521-.417 6.08-1.015 5.479-1.612 4.877-2.054 4.1-2.339 3.146-2.604 2.259-2.741 1.206-2.759 0Z" fill="#ef4723"/>

<path transform="matrix(1,0,0,-1,-3.8764039,315.84364)" d="M0 0C.254 .277 .381 .689 .381 1.236V9.346H5.268V2.127C5.268 1.588 5.391 1.189 5.637 .932 5.883 .674 6.201 .545 6.592 .545 6.982 .545 7.297 .676 7.535 .937 7.773 1.199 7.893 1.596 7.893 2.127V9.346 12.826H-.252C-1.002 12.826-1.545 12.66-1.881 12.328-2.217 11.996-2.385 11.451-2.385 10.693V1.236C-2.385 .689-2.258 .277-2.004 0-1.75-.277-1.42-.416-1.014-.416-.592-.416-.254-.277 0 0" fill="#ef4723"/>
<path transform="matrix(1,0,0,-1,5.047394,296.4784)" d="M0 0C-.461 .25-.773 .611-.937 1.084-1.102 1.557-1.184 2.227-1.184 3.094V6.281H3.258V3.457C3.258 2.191 3.115 1.25 2.83 .633 2.545 .016 1.969-.293 1.102-.293 .695-.293 .328-.195 0 0M-2.215-1.125C-1.418-2.844-.16-3.703 1.559-3.703 2.059-3.703 2.533-3.621 2.982-3.457 3.432-3.293 3.842-3.055 4.213-2.742 4.584-2.43 4.891-2.07 5.133-1.664 5.422-1.187 5.617-.648 5.719-.047 5.82 .555 5.871 1.266 5.871 2.086V7.652C5.871 8.395 5.705 8.932 5.373 9.264 5.041 9.596 4.496 9.762 3.738 9.762H-3.68V6.281 4.899 2.66C-3.68 1.449-3.875 .539-4.266-.07-4.656-.68-5.285-.984-6.152-.984-7.848-.984-8.695 .191-8.695 2.543V6.281H-4.454V9.762H-9.176C-9.918 9.762-10.459 9.6-10.799 9.275-11.139 8.951-11.309 8.41-11.309 7.652V2.402C-11.309 1.496-11.264 .703-11.174 .023-11.084-.656-10.93-1.258-10.711-1.781-10.344-2.617-9.775-3.281-9.006-3.773-8.236-4.266-7.371-4.512-6.41-4.512-4.332-4.512-2.934-3.383-2.215-1.125" fill="#ef4723"/>
<path transform="matrix(1,0,0,-1,-3.9584046,331.94618)" d="M0 0C.582 .246 1.234 .59 1.957 1.031 2.68 1.473 3.361 1.975 4.002 2.537 4.643 3.1 5.127 3.689 5.455 4.307 5.775 2.838 6.318 1.742 7.084 1.02 7.85 .297 8.873-.064 10.154-.064 10.779-.064 11.371 .043 11.93 .258 12.488 .473 12.979 .787 13.4 1.201 13.822 1.615 14.146 2.092 14.373 2.631 14.576 3.076 14.711 3.576 14.777 4.131 14.844 4.686 14.877 5.354 14.877 6.135V11.795C14.877 12.545 14.709 13.088 14.373 13.424 14.037 13.76 13.494 13.928 12.744 13.928H8.315V10.447H12.264V7.236C12.264 6.041 12.178 5.24 12.006 4.834 11.826 4.404 11.555 4.068 11.191 3.826 10.828 3.584 10.408 3.463 9.932 3.463 9.322 3.463 8.844 3.613 8.496 3.914 8.148 4.215 7.902 4.65 7.758 5.221 7.613 5.791 7.541 6.494 7.541 7.33V9.103 10.447 13.928H-.475C-1.17 13.928-1.697 13.775-2.057 13.471-2.416 13.166-2.596 12.736-2.596 12.182-2.596 11.666-2.424 11.248-2.08 10.928-1.736 10.607-1.201 10.447-.475 10.447H5.045V9.229C5.045 8.611 4.963 8.1 4.799 7.693 4.635 7.287 4.33 6.887 3.885 6.492 3.439 6.098 2.791 5.65 1.939 5.15L-.381 3.756C-.928 3.428-1.342 3.168-1.623 2.977-1.904 2.785-2.137 2.557-2.32 2.291-2.504 2.025-2.596 1.697-2.596 1.307-2.596 .979-2.531 .689-2.402 .439-2.273 .189-2.098-.008-1.875-.152-1.652-.297-1.428-.369-1.201-.369-.982-.369-.582-.246 0 0" fill="#ef4723"/>

<path transform="matrix(1,0,0,-1,10.713379,261.2157)" d="M0 0C.332 .289 .498 .684 .498 1.184 .498 1.668 .332 2.053 0 2.338-.332 2.623-.83 2.766-1.494 2.766H-11.713L-7.646 5.453-9.308 8.014-15.217 4.16C-15.49 3.973-15.758 3.785-16.02 3.598-16.281 3.41-16.51 3.207-16.705 2.988-16.9 2.77-17.043 2.535-17.133 2.285-17.223 2.035-17.268 1.754-17.268 1.441-17.268 .191-16.514-.434-15.006-.434H-1.494C-.83-.434-.332-.289 0 0" fill="#ef4723"/>
<path transform="matrix(1,0,0,-1,-1.331604,222.61853)" d="M0 0 .008-.023 10.258 3.439C11.055 3.697 11.635 3.949 11.998 4.195 12.361 4.441 12.543 4.861 12.543 5.455 12.543 5.939 12.379 6.341 12.051 6.662 11.723 6.982 11.359 7.142 10.961 7.142 10.805 7.142 10.613 7.117 10.387 7.066 10.16 7.015 9.949 6.953 9.754 6.878 9.559 6.804 9.359 6.732 9.156 6.662L-1.976 2.572C-2.406 2.423-2.812 2.275-3.195 2.126-3.578 1.978-3.92 1.804-4.221 1.605-4.521 1.406-4.764 1.144-4.947 .82-5.131 .496-5.223 .099-5.223-.37-5.223-.838-5.129-1.235-4.941-1.559-4.924-1.59-4.899-1.613-4.88-1.642Z" fill="#ef4723"/>
<path transform="matrix(1,0,0,-1,10.397003,230.31824)" d="M0 0C.246 .145 .443 .344 .592 .598 .74 .852 .814 1.127 .814 1.424 .814 1.83 .719 2.15 .527 2.385 .336 2.619 .121 2.787-.117 2.889-.355 2.99-.779 3.143-1.389 3.346L-11.816 6.853-16.034 5.434C-16.004 5.412-15.98 5.382-15.949 5.361-15.656 5.166-15.316 4.994-14.93 4.846-14.543 4.697-14.135 4.549-13.705 4.4L-2.479 .24C-2.275 .17-2.078 .1-1.887 .029-1.695-.041-1.5-.1-1.301-.146-1.102-.193-.916-.217-.744-.217-.494-.217-.246-.145 0 0" fill="#ef4723"/>
</g>


















<g>
<path transform="matrix(1,0,0,-1,15.530579,221.97644)" d="M0 0C-1.164 0-2.108 .944-2.108 2.108-2.108 3.272-1.164 4.216 0 4.216 1.164 4.216 2.108 3.272 2.108 2.108 2.108 .944 1.164 0 0 0" fill="#ef4723"/>
<path transform="matrix(1,0,0,-1,15.494385,227)" d="M0 0C-1.164 0-2.108 .944-2.108 2.108-2.108 3.272-1.164 4.216 0 4.216 1.164 4.216 2.108 3.272 2.108 2.108 2.108 .944 1.164 0 0 0" fill="#ef4723"/>
<path transform="matrix(1,0,0,-1,15.530579,276.33436)" d="M0 0C-1.164 0-2.108 .944-2.108 2.108-2.108 3.272-1.164 4.216 0 4.216 1.164 4.216 2.108 3.272 2.108 2.108 2.108 .944 1.164 0 0 0" fill="#ef4723"/>
<path transform="matrix(1,0,0,-1,15.494385,281.3578)" d="M0 0C-1.164 0-2.108 .944-2.108 2.108-2.108 3.272-1.164 4.216 0 4.216 1.164 4.216 2.108 3.272 2.108 2.108 2.108 .944 1.164 0 0 0" fill="#ef4723"/>
</g>
</g>
<g>










<g>

<path transform="matrix(1,0,0,-1,-154.184,632.047)" d="M0 0C0-1.064-.237-1.395-.379-1.498-.542-1.617-1.051-1.818-2.621-1.818H-5.3V2.164H-2.213L-1.708 2.156C-.606 2.156-.332 1.928-.274 1.859-.192 1.759 0 1.378 0 0M1.233 3.195C.675 3.787-.293 4.075-1.725 4.075H-7.414V-8.276H-5.3V-3.728H-2.369L-1.868-3.72C-.387-3.72 .614-3.447 1.191-2.886 1.772-2.323 2.054-1.345 2.054 .101 2.054 1.598 1.786 2.609 1.233 3.195" fill="#fbab18"/>


<path transform="matrix(1,0,0,-1,-91.63191,633.7975)" d="M0 0C-.568 .44-1.731 .684-3.657 .769-5.688 .866-6.131 1.06-6.219 1.118-6.265 1.149-6.5 1.358-6.5 2.477-6.5 2.94-6.431 3.534-6.103 3.733-5.919 3.845-5.357 4.033-3.676 4.033-2.25 4.033-1.848 3.833-1.742 3.747-1.648 3.67-1.428 3.375-1.428 2.292V1.886H.677V2.292C.677 3.784 .369 4.75-.265 5.245-.869 5.715-2.053 5.943-3.888 5.943-5.699 5.943-6.894 5.7-7.542 5.199-8.223 4.674-8.554 3.709-8.554 2.249-8.554 .143-7.409-1.049-5.236-1.199L-2.602-1.335C-1.733-1.387-1.47-1.562-1.398-1.634-1.328-1.704-1.166-1.954-1.166-2.755-1.166-4.078-1.433-4.375-1.515-4.435-1.637-4.525-2.129-4.733-4.031-4.733-5.712-4.733-6.12-4.513-6.205-4.445-6.28-4.386-6.525-4.094-6.525-2.84V-2.147H-8.637L-8.622-3.068C-8.622-4.489-8.3-5.426-7.638-5.931-7.01-6.41-5.844-6.644-4.074-6.644-2.049-6.644-.754-6.413-.116-5.938 .56-5.436 .889-4.427 .889-2.857 .889-1.398 .598-.463 0 0" fill="#fbab18"/>

<path transform="matrix(1,0,0,-1,-48.391206,633.7975)" d="M0 0C-.569 .44-1.731 .684-3.657 .769-5.688 .866-6.131 1.06-6.219 1.118-6.265 1.149-6.5 1.358-6.5 2.477-6.5 2.94-6.431 3.534-6.103 3.733-5.919 3.845-5.357 4.033-3.676 4.033-2.25 4.033-1.848 3.833-1.742 3.747-1.648 3.67-1.428 3.375-1.428 2.292V1.886H.677V2.292C.677 3.784 .369 4.75-.265 5.245-.869 5.715-2.053 5.943-3.888 5.943-5.699 5.943-6.894 5.7-7.542 5.199-8.223 4.674-8.554 3.709-8.554 2.249-8.554 .143-7.409-1.049-5.236-1.199L-2.602-1.335C-1.733-1.387-1.47-1.562-1.398-1.634-1.328-1.704-1.166-1.954-1.166-2.755-1.166-4.078-1.433-4.375-1.515-4.435-1.637-4.525-2.129-4.733-4.031-4.733-5.712-4.733-6.12-4.513-6.205-4.445-6.28-4.386-6.525-4.094-6.525-2.84V-2.147H-8.637L-8.622-3.068C-8.622-4.489-8.3-5.426-7.638-5.931-7.01-6.41-5.844-6.644-4.074-6.644-2.049-6.644-.754-6.413-.116-5.938 .56-5.436 .889-4.427 .889-2.857 .889-1.398 .598-.463 0 0" fill="#fbab18"/>



</g>
</g>
</g>
</svg>