<svg xmlns="http://www.w3.org/2000/svg" viewBox="0 0 945 139" width="945" height="139"><path fill="#000000" fill-rule="evenodd" d="M944.00 94.49 C944.00 94.49 929.00 130.50 929.00 130.50 C929.00 130.50 852.50 93.49 852.50 93.49 C852.50 93.49 837.60 137.01 837.60 137.01 C837.60 137.01 795.08 137.01 795.08 137.01 C795.08 137.01 817.00 66.14 817.00 66.14 C817.00 66.14 809.26 59.00 809.26 59.00 C809.26 59.00 823.43 51.97 823.43 51.97 C823.43 51.97 831.50 23.62 831.50 23.62 C831.50 23.62 873.62 23.62 873.62 23.62 C873.62 23.62 865.95 51.97 865.95 51.97 C865.95 51.97 944.00 94.49 944.00 94.49 Z M645.68 137.01 C645.68 137.01 746.00 66.14 746.00 66.14 C746.00 66.14 746.00 58.50 746.00 58.50 C746.00 58.50 689.00 59.00 689.00 59.00 C689.00 59.00 688.50 74.00 688.50 74.00 C688.50 74.00 653.35 74.00 653.35 74.00 C653.35 74.00 653.35 23.62 653.35 23.62 C653.35 23.62 702.50 23.62 702.50 23.62 C702.50 23.62 703.00 2.50 703.00 2.50 C703.00 2.50 745.50 3.00 745.50 3.00 C745.50 3.00 746.00 23.62 746.00 23.62 C746.00 23.62 795.08 23.62 795.08 23.62 C795.08 23.62 795.08 80.31 795.08 80.31 C795.08 80.31 724.22 137.01 724.22 137.01 C724.22 137.01 645.68 137.01 645.68 137.01 Z M576.00 80.31 C576.00 80.31 575.50 59.50 575.50 59.50 C575.50 59.50 511.62 59.50 511.62 59.50 C511.62 59.50 511.62 73.50 511.62 73.50 C511.62 73.50 477.00 73.50 477.00 73.50 C477.00 73.50 476.60 23.62 476.60 23.62 C476.60 23.62 639.18 23.62 639.18 23.62 C639.18 23.62 639.18 37.79 639.18 37.79 C639.18 37.79 610.83 80.31 610.83 80.31 C610.83 80.31 576.00 80.31 576.00 80.31 Z M433.67 45.50 C421.93 45.50 412.41 35.76 412.41 23.75 C412.41 11.74 421.93 2.00 433.67 2.00 C445.41 2.00 454.93 11.74 454.93 23.75 C454.93 35.76 445.41 45.50 433.67 45.50 Z M434.00 51.97 C433.50 66.14 434.00 87.50 434.00 87.50 C434.00 87.50 369.89 137.01 369.89 137.01 C369.89 137.01 299.02 137.01 299.02 137.01 C299.02 137.01 398.24 66.14 398.24 66.14 C398.24 66.14 398.24 59.50 398.24 59.50 C398.24 59.50 327.37 60.00 327.37 60.00 C327.37 60.00 327.37 23.62 327.37 23.62 C327.37 23.62 379.00 23.62 405.50 23.62 C406.00 42.47 418.91 51.97 434.00 51.97 Z M235.50 137.01 C235.50 137.01 199.31 137.01 199.31 137.01 C199.31 137.01 199.31 101.00 199.31 101.00 C199.31 101.00 149.50 101.00 149.50 101.00 C149.50 101.00 150.50 66.14 150.50 66.14 C150.50 66.14 185.64 66.14 185.64 66.14 C185.64 66.14 242.33 23.62 242.33 23.62 C242.33 23.62 313.00 23.62 313.00 23.62 C313.00 23.62 235.50 87.00 235.50 87.00 C235.50 87.00 235.50 137.01 235.50 137.01 Z M1.39 137.01 C1.39 137.01 100.60 59.50 100.60 59.50 C100.60 59.50 37.50 59.00 37.50 59.00 C37.50 59.00 37.00 73.00 37.00 73.00 C37.00 73.00 1.39 72.50 1.39 72.50 C1.39 72.50 1.39 23.62 1.39 23.62 C1.39 23.62 136.50 23.62 136.50 23.62 C136.50 23.62 136.50 81.00 136.50 81.00 C136.50 81.00 64.00 137.01 64.00 137.01 C64.00 137.01 1.39 137.01 1.39 137.01 Z M582.49 101.00 C582.49 101.00 525.79 137.01 525.79 137.01 C525.79 137.01 448.00 137.01 448.00 137.01 C448.00 137.01 548.00 72.00 548.00 72.00 C548.00 72.00 582.49 101.00 582.49 101.00 Z"/></svg>