<svg xmlns="http://www.w3.org/2000/svg" viewBox="0 0 1264 854" width="1264" height="854"><path fill="#000000" fill-rule="evenodd" d="M1064.07 852.08 C964.86 852.08 865.64 852.08 865.64 852.08 C865.64 852.08 865.64 752.87 865.64 752.87 C865.64 752.87 993.20 752.87 1049.90 752.87 C1106.59 752.87 1163.28 710.35 1163.28 639.49 C1163.28 568.62 1106.59 526.10 1049.90 526.10 C993.20 526.10 865.64 526.10 865.64 526.10 C865.64 526.10 865.64 426.89 865.64 426.89 C865.64 426.89 964.86 426.89 1064.07 426.89 C1163.28 426.89 1262.49 511.93 1262.49 639.49 C1262.49 767.05 1163.28 852.08 1064.07 852.08 Z M653.05 228.46 C653.05 228.46 653.05 1.69 653.05 1.69 C653.05 1.69 851.47 1.69 851.47 1.69 C851.47 1.69 851.47 228.46 851.47 228.46 C851.47 228.46 752.26 299.33 752.26 299.33 C752.26 299.33 653.05 228.46 653.05 228.46 Z M808.95 526.10 C808.95 526.10 681.39 526.10 624.70 526.10 C568.01 526.10 525.49 568.62 525.49 639.49 C525.49 710.35 568.01 752.87 624.70 752.87 C681.39 752.87 709.74 752.87 709.74 752.87 C709.74 752.87 709.74 690.00 709.74 690.00 C709.74 690.00 681.05 689.50 652.70 689.50 C624.35 689.50 596.01 682.01 596.01 639.49 C596.01 596.97 624.35 589.50 652.70 589.50 C681.05 589.50 808.95 589.37 808.95 589.37 C808.95 589.37 808.95 852.08 808.95 852.08 C808.95 852.08 708.39 852.08 609.18 852.08 C509.97 852.08 426.27 767.05 426.27 640.16 C426.27 540.27 511.31 426.89 610.53 426.89 C709.74 426.89 808.95 426.89 808.95 426.89 C808.95 426.89 808.95 526.10 808.95 526.10 Z M397.93 72.56 C397.93 72.56 497.14 1.69 497.14 1.69 C497.14 1.69 596.35 74.73 596.35 74.73 C596.35 74.73 596.35 143.42 596.35 143.42 C596.35 143.42 397.93 143.42 397.93 143.42 C397.93 143.42 397.93 72.56 397.93 72.56 Z M397.93 852.08 C397.93 852.08 298.72 852.08 298.72 852.08 C298.72 852.08 298.72 682.01 298.72 625.31 C298.72 568.62 256.20 526.27 199.50 526.27 C142.81 526.27 100.29 568.62 100.29 625.31 C100.29 682.01 100.29 852.08 100.29 852.08 C100.29 852.08 1.08 852.08 1.08 852.08 C1.08 852.08 1.08 738.70 1.08 625.31 C1.08 511.93 86.12 426.89 199.50 426.89 C312.89 426.89 397.93 511.93 397.93 625.31 C397.93 738.70 397.93 852.08 397.93 852.08 Z M199.50 576.50 C227.85 576.50 249.00 596.97 249.00 639.49 C249.00 682.01 249.50 852.08 249.50 852.08 C249.50 852.08 150.00 852.08 150.00 852.08 C150.00 852.08 149.50 682.01 149.50 639.49 C149.50 596.97 171.16 576.50 199.50 576.50 Z M1078.24 639.47 C1078.24 682.01 1049.90 690.48 1021.55 690.48 C993.20 690.48 865.64 690.11 865.64 690.11 C865.64 690.11 865.64 590.72 865.64 590.72 C865.64 590.72 993.20 588.82 1021.55 588.82 C1049.90 588.82 1078.24 596.97 1078.24 639.47 Z"/></svg>