<svg xmlns="http://www.w3.org/2000/svg" xmlns:xlink="http://www.w3.org/1999/xlink" xmlns:inkscape="http://www.inkscape.org/namespaces/inkscape" version="1.1" width="157" height="87" viewBox="-1.67 -1.67 157.33 87.33">
<g>
<path d="M39.727 2.441C19.141 2.441 2.453 19.129 2.453 39.715V81.652H21.09V39.715C21.09 29.422 29.434 21.078 39.727 21.078 50.02 21.078 58.363 29.422 58.363 39.715V81.652H77V39.715C77 19.129 60.312 2.441 39.727 2.441" fill="#1d63a7" fill-rule="evenodd"/>
<path d="M151.551 2.441C130.965 2.441 114.277 19.129 114.277 39.715V81.652H132.914V39.715C132.914 29.422 141.258 21.078 151.551 21.078ZM151.551 2.441" fill="#1d63a7" fill-rule="evenodd"/>
<path d="M86.32 2.441H104.957V81.648H86.32Z" fill="#1d63a7" fill-rule="evenodd"/>
<path d="M39.727 75.586 35.227 61.742H20.668L32.449 53.184 27.949 39.336 39.727 47.895 51.508 39.336 47.008 53.184 58.789 61.742H44.227ZM39.727 75.586" fill="#dd1a22" fill-rule="evenodd"/>
</g>
</svg>