<svg xmlns="http://www.w3.org/2000/svg" viewBox="0 0 115 110" width="115" height="110"><path fill="#000000" fill-rule="evenodd" d="M74.00 108.97 C63.33 108.90 52.67 108.82 42.00 108.74 C41.92 98.23 41.85 87.71 41.77 77.20 C41.70 77.20 41.62 77.20 41.54 77.20 C34.15 79.56 26.76 81.92 19.37 84.29 C16.99 85.07 13.25 87.10 11.37 86.11 C8.25 76.21 5.12 66.30 2.00 56.40 C12.06 53.05 22.12 49.69 32.17 46.34 C32.17 46.11 32.17 45.89 32.17 45.66 C29.40 43.24 14.90 23.56 13.89 20.29 C22.27 14.19 30.65 8.09 39.03 2.00 C39.33 2.08 39.64 2.15 39.94 2.23 C45.96 10.53 51.98 18.84 58.00 27.14 C58.23 26.99 58.46 26.84 58.69 26.69 C64.55 18.46 70.42 10.23 76.29 2.00 C76.59 2.00 76.90 2.00 77.20 2.00 C85.50 8.02 93.81 14.04 102.11 20.06 C102.11 20.36 102.11 20.67 102.11 20.97 C96.02 29.43 89.92 37.89 83.83 46.34 C93.88 49.62 103.94 52.90 114.00 56.17 C114.00 56.48 114.00 56.78 114.00 57.09 C110.80 66.91 107.60 76.74 104.40 86.57 C104.25 86.65 104.10 86.72 103.94 86.80 C94.04 83.60 84.13 80.40 74.23 77.20 C74.15 77.28 74.08 77.35 74.00 77.43 C74.00 87.94 74.00 98.46 74.00 108.97 Z M72.86 58.46 C72.86 58.46 72.86 58.46 72.86 51.87 C72.86 51.87 72.61 51.85 56.40 51.83 C56.40 51.83 56.41 51.79 64.40 43.37 C64.40 43.37 59.65 38.63 59.60 38.57 C59.60 38.57 59.58 38.59 42.69 55.03 C42.69 55.03 42.66 55.01 59.31 71.78 C59.31 71.78 61.43 69.74 64.40 66.91 C64.40 66.91 64.43 66.91 56.40 58.46 C56.40 58.46 67.37 58.46 72.86 58.46 Z"/></svg>