<svg xmlns="http://www.w3.org/2000/svg" xmlns:xlink="http://www.w3.org/1999/xlink" xmlns:inkscape="http://www.inkscape.org/namespaces/inkscape" version="1.1" width="148" height="119" viewBox="-1.67 -1.33 147.67 119.33">
<g>
<path d="M135.285 96.703H120.516V92.551H135.285ZM114.047 86.082V113.789H120.535V113.031L120.566 102.59V103.172H141.754V86.082ZM98.07 107.32H83.301V103.168H98.07ZM76.832 92.551H98.07V96.703H76.832V113.789H104.539V86.082H76.832ZM39.613 103.172H60.855V107.32H39.613V113.789H67.324V96.703H46.082V92.551H67.324V86.082H39.613ZM23.637 107.32H8.867V103.168H23.637ZM2.398 92.551H23.637V96.703H2.398V113.789H30.105V86.082H2.398ZM2.398 92.551" fill="#231f20"/>
<path transform="matrix(1,0,0,-1,0,0)" d="M88.062-43.16H82.691L44.906-80.945 44.926-80.965H78.188L92.613-66.535H113.797L137.176-43.16ZM87.168-41.238H137.242L113.797-17.797H92.598L78.238-3.438H44.984L44.961-3.461 82.742-41.238ZM64.289-25.523 42.203-3.438H8.949L8.926-3.461 47.641-42.176 8.871-80.945 8.891-80.965H42.152L80.941-42.176ZM64.289-25.523" fill="#231f20"/>
<path transform="matrix(1,0,0,-1,0,0)" stroke-width="1.497426" stroke-linecap="butt" stroke-miterlimit="10" stroke-linejoin="miter" fill="none" stroke="#e6e7e8" d="M88.062-43.16H82.691L44.906-80.945 44.926-80.965H78.188L92.613-66.535H113.797L137.176-43.16ZM87.168-41.238H137.242L113.797-17.797H92.598L78.238-3.438H44.984L44.961-3.461 82.742-41.238ZM64.289-25.523 42.203-3.438H8.949L8.926-3.461 47.641-42.176 8.871-80.945 8.891-80.965H42.152L80.941-42.176ZM64.289-25.523"/>
</g>
</svg>