<svg xmlns="http://www.w3.org/2000/svg" viewBox="0 0 1896 535" width="1896" height="535"><path fill="#000000" fill-rule="evenodd" d="M1693.90 533.03 C1605.29 533.03 1530.10 475.32 1503.51 395.28 C1503.51 395.28 1388.46 129.84 1388.46 129.84 C1388.46 129.84 1469.54 129.88 1469.54 129.88 C1469.54 129.88 1516.17 237.78 1516.17 237.78 C1549.75 173.61 1616.73 129.84 1693.90 129.84 C1804.72 129.84 1894.56 220.10 1894.56 331.43 C1894.56 442.77 1804.72 533.03 1693.90 533.03 Z M1693.90 203.15 C1623.37 203.15 1566.20 260.58 1566.20 331.43 C1566.20 402.28 1623.37 459.72 1693.90 459.72 C1764.42 459.72 1821.59 402.28 1821.59 331.43 C1821.59 260.58 1764.42 203.15 1693.90 203.15 Z M1396.36 93.19 C1371.39 93.19 1351.16 72.86 1351.16 47.78 C1351.16 22.70 1371.39 2.37 1396.36 2.37 C1421.33 2.37 1441.56 22.70 1441.56 47.78 C1441.56 72.86 1421.33 93.19 1396.36 93.19 Z M1285.98 93.19 C1261.37 93.19 1241.42 73.15 1241.42 48.42 C1241.42 23.70 1261.37 3.66 1285.98 3.66 C1310.59 3.66 1330.54 23.70 1330.54 48.42 C1330.54 73.15 1310.59 93.19 1285.98 93.19 Z M1415.19 271.79 C1415.19 271.79 1528.43 533.03 1528.43 533.03 C1528.43 533.03 1450.31 533.03 1450.31 533.03 C1450.31 533.03 1402.38 422.79 1402.38 422.79 C1369.22 488.21 1301.55 533.03 1223.46 533.03 C1112.64 533.03 1022.80 442.77 1022.80 331.43 C1022.80 282.70 1040.01 238.00 1068.66 203.15 C1068.66 203.15 940.00 203.15 940.00 203.15 C968.65 238.00 985.86 282.70 985.86 331.43 C985.86 442.77 896.02 533.03 785.20 533.03 C706.82 533.03 638.95 487.87 605.92 422.06 C605.92 422.06 557.51 533.03 557.51 533.03 C557.51 533.03 476.81 533.03 476.81 533.03 C476.81 533.03 606.02 239.80 606.02 239.80 C606.02 239.80 606.42 239.80 606.42 239.80 C639.63 174.53 707.22 129.84 785.20 129.84 C785.50 129.84 785.80 129.85 786.10 129.85 C786.10 129.85 786.10 129.84 786.10 129.84 C786.10 129.84 1223.71 129.84 1223.71 129.84 C1223.71 129.84 1223.71 129.85 1223.71 129.85 C1313.75 129.96 1389.90 189.65 1415.19 271.79 Z M785.65 203.15 C715.12 203.15 657.95 260.58 657.95 331.43 C657.95 402.28 715.12 459.72 785.65 459.72 C856.17 459.72 913.34 402.28 913.34 331.43 C913.34 260.58 856.17 203.15 785.65 203.15 Z M1223.46 203.15 C1152.94 203.15 1095.76 260.58 1095.76 331.43 C1095.76 402.28 1152.94 459.72 1223.46 459.72 C1293.98 459.72 1351.16 402.28 1351.16 331.43 C1351.16 315.29 1348.16 299.86 1342.74 285.63 C1342.74 285.63 1337.96 274.64 1337.96 274.64 C1317.11 232.28 1273.68 203.15 1223.46 203.15 Z M721.25 93.19 C695.93 93.19 675.41 72.57 675.41 47.13 C675.41 21.69 695.93 1.07 721.25 1.07 C746.57 1.07 767.10 21.69 767.10 47.13 C767.10 72.57 746.57 93.19 721.25 93.19 Z M612.75 93.19 C587.78 93.19 567.54 72.86 567.54 47.78 C567.54 22.70 587.78 2.37 612.75 2.37 C637.71 2.37 657.95 22.70 657.95 47.78 C657.95 72.86 637.71 93.19 612.75 93.19 Z M491.35 422.60 C491.35 422.60 490.37 422.59 490.37 422.59 C457.24 488.12 389.52 533.03 311.35 533.03 C239.50 533.03 176.49 495.09 141.04 438.08 C99.81 389.10 1.23 332.09 1.23 332.09 C1.23 332.09 94.70 284.55 137.67 230.41 C172.40 170.28 237.17 129.84 311.35 129.84 C390.46 129.84 458.86 175.84 491.54 242.66 C491.54 242.66 542.06 129.84 542.06 129.84 C542.06 129.84 621.46 129.84 621.46 129.84 C621.46 129.84 491.35 422.60 491.35 422.60 Z M311.35 203.15 C240.82 203.15 183.65 260.58 183.65 331.43 C183.65 402.28 240.82 459.72 311.35 459.72 C381.87 459.72 439.04 402.28 439.04 331.43 C439.04 260.58 381.87 203.15 311.35 203.15 Z"/></svg>