<svg xmlns="http://www.w3.org/2000/svg" viewBox="0 0 283 49" width="283" height="49"><path fill="#000000" fill-rule="evenodd" d="M272.50 32.58 C272.50 32.58 272.50 26.41 272.50 25.13 C272.50 23.86 272.50 21.80 269.42 21.80 C266.33 21.80 249.62 21.62 249.62 21.62 C249.62 21.62 249.44 38.75 249.44 38.75 C249.44 38.75 238.57 38.75 238.57 38.75 C238.57 38.75 238.57 6.51 238.57 6.51 C238.57 6.51 249.44 6.42 249.44 6.42 C249.44 6.42 249.44 10.99 249.44 10.99 C249.44 10.99 269.42 10.99 274.10 10.99 C278.78 10.99 281.75 15.68 281.75 18.56 C281.75 21.44 281.75 32.58 281.75 32.58 C281.75 32.58 272.50 32.58 272.50 32.58 Z M226.23 38.75 C220.06 38.75 202.91 38.75 202.91 38.75 C202.91 38.75 203.00 44.92 203.00 44.92 C203.00 44.92 192.30 44.92 192.30 44.92 C192.30 44.92 192.30 41.83 192.30 35.66 C192.30 29.49 198.47 28.01 201.56 28.01 C204.64 28.01 220.06 28.01 221.63 28.01 C223.20 28.01 224.69 26.41 224.69 24.68 C224.69 22.96 223.15 21.80 221.45 21.80 C219.76 21.80 203.36 21.62 203.36 21.62 C203.36 21.62 203.27 24.95 203.27 24.95 C203.27 24.95 192.30 24.86 192.30 24.86 C192.30 24.86 192.30 10.99 192.30 10.99 C192.30 10.99 209.57 10.99 209.57 10.99 C209.57 10.99 209.39 1.73 209.39 1.73 C209.39 1.73 220.06 1.73 220.06 1.73 C220.06 1.73 220.06 10.99 220.06 10.99 C220.06 10.99 220.06 10.99 226.23 10.99 C232.40 10.99 235.49 14.07 235.49 20.24 C235.49 26.41 235.49 23.32 235.49 29.49 C235.49 35.66 232.40 38.75 226.23 38.75 Z M183.05 38.75 C179.97 38.75 175.68 38.75 161.46 38.75 C161.46 46.06 161.46 48.00 155.29 48.00 C152.21 48.00 146.04 48.00 146.04 48.00 C146.04 48.00 146.04 41.83 146.04 41.83 C146.04 41.83 152.21 41.83 152.21 41.83 C152.21 41.83 152.21 35.66 152.21 32.58 C152.21 29.49 155.29 27.92 159.99 27.92 C164.68 27.92 172.05 28.10 175.20 28.10 C178.35 28.10 179.97 26.41 179.97 24.86 C179.97 23.32 178.35 21.80 175.38 21.89 C172.41 21.98 147.66 21.71 147.66 21.71 C147.66 21.71 147.66 10.99 147.66 10.99 C147.66 10.99 176.88 10.99 183.05 10.99 C189.22 10.99 190.95 14.07 190.95 18.92 C190.95 23.78 190.86 25.22 190.86 31.07 C190.86 36.92 186.14 38.75 183.05 38.75 Z M138.03 14.16 C139.63 15.50 139.87 18.57 139.87 20.24 C139.87 26.41 139.87 26.41 139.87 29.49 C139.87 32.58 136.78 38.75 130.61 38.75 C124.45 38.75 107.34 38.75 107.34 38.75 C107.34 38.75 107.43 44.92 107.43 44.92 C107.43 44.92 96.69 44.92 96.69 44.92 C96.69 44.92 96.69 38.77 96.69 32.60 C96.69 28.05 99.77 28.10 102.85 28.10 C105.94 28.10 121.36 27.92 124.45 27.92 C127.53 27.92 127.53 26.41 127.53 24.68 C127.53 22.96 127.71 21.44 124.63 21.53 C121.54 21.62 96.69 21.53 96.69 21.53 C96.69 21.53 96.69 10.99 96.69 10.99 C96.69 10.99 124.45 10.99 135.24 10.99 C133.69 4.82 138.21 3.00 141.27 3.00 C144.33 3.00 146.04 4.82 146.04 9.48 C146.04 14.13 142.95 15.69 138.03 14.16 Z M76.83 21.80 C76.83 21.80 76.74 38.75 76.74 38.75 C76.74 38.75 65.84 38.75 65.84 38.75 C65.84 38.75 65.84 29.49 65.84 29.49 C65.84 29.49 50.42 29.49 50.42 29.49 C50.42 29.49 50.42 18.56 50.42 18.56 C50.42 18.56 62.58 18.56 65.75 18.65 C65.84 14.07 65.84 10.99 72.01 10.99 C78.18 10.99 92.04 10.99 92.04 10.99 C92.04 10.99 91.95 21.71 91.95 21.71 C91.95 21.71 76.83 21.80 76.83 21.80 Z M41.17 38.75 C38.08 38.75 1.07 38.75 1.07 38.75 C1.07 38.75 1.07 26.41 1.07 26.41 C1.07 26.41 38.16 26.41 39.67 26.41 C41.17 26.41 42.81 26.41 42.81 23.32 C42.72 20.24 41.17 20.24 39.67 20.24 C36.43 20.24 13.41 20.24 13.41 20.24 C13.41 20.24 13.41 23.32 13.41 23.32 C13.41 23.32 1.07 23.32 1.07 23.32 C1.07 23.32 1.07 10.99 1.07 10.99 C1.07 10.99 38.08 10.99 41.17 10.99 C44.25 10.99 47.33 14.07 47.33 17.15 C47.33 20.24 47.33 29.49 47.33 32.58 C47.33 35.66 44.25 38.75 41.17 38.75 Z"/></svg>