<svg xmlns="http://www.w3.org/2000/svg" viewBox="0 0 1229 820" width="1229" height="820"><path fill="#000000" fill-rule="evenodd" d="M935.31 818.51 C935.31 818.51 935.31 482.75 935.31 424.36 C935.31 365.96 891.52 292.97 789.33 292.97 C687.14 292.97 526.56 292.97 438.97 292.97 C351.38 292.97 292.98 351.36 292.98 424.36 C292.98 497.35 292.98 818.51 292.98 818.51 C292.98 818.51 1.01 818.51 1.01 818.51 C1.01 818.51 1.01 555.74 1.01 365.96 C1.01 176.18 176.19 1.00 365.97 1.00 C555.75 1.00 628.75 1.00 847.72 1.00 C1066.70 1.00 1227.28 205.38 1227.28 365.96 C1227.28 526.55 1227.28 818.51 1227.28 818.51 C1227.28 818.51 935.31 818.51 935.31 818.51 Z M1196.50 380.82 C1196.50 206.11 1021.79 31.40 847.08 31.40 C672.36 31.40 554.90 31.40 380.19 31.40 C205.48 31.40 32.51 207.85 32.51 382.57 C32.51 557.28 32.51 788.49 32.51 788.49 C32.51 788.49 264.70 788.49 264.70 788.49 C264.70 788.49 264.70 555.54 264.70 439.06 C264.70 322.59 322.94 264.35 439.41 264.35 C555.89 264.35 672.36 264.35 788.84 264.35 C905.31 264.35 963.55 322.59 963.55 439.06 C963.55 555.54 963.55 788.49 963.55 788.49 C963.55 788.49 1196.50 787.92 1196.50 787.92 C1196.50 787.92 1196.50 555.54 1196.50 380.82 Z M838.63 237.74 C829.36 246.87 822.75 253.50 822.75 253.50 C768.91 201.19 769.00 201.23 769.00 201.23 C821.72 148.07 821.77 148.01 821.77 148.01 C821.93 148.20 837.29 162.98 837.29 162.98 C812.39 190.16 812.37 190.29 812.37 190.29 C863.83 189.44 864.63 189.48 864.63 189.48 C865.01 210.41 865.01 210.40 865.01 210.40 C847.59 210.72 812.74 211.34 812.74 211.34 C838.71 237.73 838.63 237.74 838.63 237.74 Z M789.33 818.51 C789.33 818.51 438.97 818.51 438.97 818.51 C438.97 818.51 438.97 468.15 438.97 468.15 C438.97 468.15 789.33 468.15 789.33 468.15 C789.33 468.15 789.33 818.51 789.33 818.51 Z M759.79 497.32 C759.79 497.32 468.58 497.32 468.58 497.32 C468.58 497.32 468.58 788.50 468.58 788.50 C468.58 788.50 759.79 788.50 759.79 788.50 C759.79 788.50 759.79 497.32 759.79 497.32 Z"/></svg>