<svg xmlns="http://www.w3.org/2000/svg" viewBox="0 0 329 64" width="329" height="64"><path fill="#000000" fill-rule="evenodd" d="M327.97 61.93 C327.97 61.93 306.67 61.93 306.67 61.93 C306.67 61.93 272.63 27.95 272.63 27.95 C272.63 27.95 272.63 54.27 272.63 54.27 C272.63 54.27 256.83 54.27 256.83 54.27 C256.83 54.27 256.83 1.62 256.83 1.62 C256.83 1.62 309.49 1.62 309.49 1.62 C309.49 1.62 309.49 17.42 309.49 17.42 C309.49 17.42 283.16 17.38 283.16 17.38 C283.16 17.38 327.97 61.93 327.97 61.93 Z M192.49 1.61 C192.49 1.61 222.57 1.61 222.57 1.61 C222.57 1.61 222.57 62.16 222.57 62.16 C222.57 62.16 192.49 62.16 192.49 62.16 C192.49 62.16 192.49 1.61 192.49 1.61 Z M167.28 1.61 C167.28 1.61 186.47 1.61 186.47 1.61 C186.47 1.61 186.47 62.16 186.47 62.16 C186.47 62.16 167.28 62.16 167.28 62.16 C167.28 62.16 167.28 1.61 167.28 1.61 Z M145.51 1.61 C145.51 1.61 153.81 1.61 153.81 1.61 C153.81 1.61 153.81 62.16 153.81 62.16 C153.81 62.16 145.51 62.16 145.51 62.16 C145.51 62.16 145.51 1.61 145.51 1.61 Z M133.47 1.61 C133.47 1.61 142.64 1.61 142.64 1.61 C142.64 1.61 142.64 62.16 142.64 62.16 C142.64 62.16 133.47 62.16 133.47 62.16 C133.47 62.16 133.47 1.61 133.47 1.61 Z M90.79 1.61 C90.79 1.61 128.03 1.61 128.03 1.61 C128.03 1.61 128.03 62.16 128.03 62.16 C128.03 62.16 90.79 62.16 90.79 62.16 C90.79 62.16 90.79 1.61 90.79 1.61 Z M82.48 1.61 C82.48 1.61 86.78 1.61 86.78 1.61 C86.78 1.61 86.78 62.16 86.78 62.16 C86.78 62.16 82.48 62.16 82.48 62.16 C82.48 62.16 82.48 1.61 82.48 1.61 Z M69.02 1.61 C69.02 1.61 77.33 1.61 77.33 1.61 C77.33 1.61 77.33 62.16 77.33 62.16 C77.33 62.16 69.02 62.16 69.02 62.16 C69.02 62.16 69.02 1.61 69.02 1.61 Z M47.53 1.61 C47.53 1.61 52.69 1.61 52.69 1.61 C52.69 1.61 52.69 62.16 52.69 62.16 C52.69 62.16 47.53 62.16 47.53 62.16 C47.53 62.16 47.53 1.61 47.53 1.61 Z M42.09 1.61 C42.09 1.61 44.67 1.61 44.67 1.61 C44.67 1.61 44.67 62.16 44.67 62.16 C44.67 62.16 42.09 62.16 42.09 62.16 C42.09 62.16 42.09 1.61 42.09 1.61 Z M36.65 1.61 C36.65 1.61 39.22 1.61 39.22 1.61 C39.22 1.61 39.22 62.16 39.22 62.16 C39.22 62.16 36.65 62.16 36.65 62.16 C36.65 62.16 36.65 1.61 36.65 1.61 Z M26.91 1.61 C26.91 1.61 30.06 1.61 30.06 1.61 C30.06 1.61 30.06 62.16 30.06 62.16 C30.06 62.16 26.91 62.16 26.91 62.16 C26.91 62.16 26.91 1.61 26.91 1.61 Z M1.98 1.61 C1.98 1.61 17.17 1.61 17.17 1.61 C17.17 1.61 17.17 62.16 17.17 62.16 C17.17 62.16 1.98 62.16 1.98 62.16 C1.98 62.16 1.98 1.61 1.98 1.61 Z"/></svg>