<svg xmlns="http://www.w3.org/2000/svg" xmlns:xlink="http://www.w3.org/1999/xlink" xmlns:inkscape="http://www.inkscape.org/namespaces/inkscape" version="1.1" width="222" height="84" viewBox="-1.33 -1.67 222.33 84.33">
<g>
<path d="M45.285 2.336C21.871 2.336 2.895 21.312 2.895 44.723V78.637H19.852V44.723C19.852 33.652 26.93 24.234 36.805 20.742V78.637H53.762V20.742C63.641 24.234 70.719 33.652 70.719 44.723V78.637H87.676V44.723C87.676 21.312 68.695 2.336 45.285 2.336" fill="#000105"/>
<path d="M216.965 36.246V2.336H200.008V36.246C200.008 50.293 188.621 61.68 174.574 61.68V2.336H157.617V78.637H174.574C197.984 78.637 216.965 59.656 216.965 36.246ZM216.965 36.246" fill="#000105"/>
<path d="M91.914 2.336H108.871V78.637H91.914Z" fill="#000105"/>
<path d="M112.051 2.336V19.289C126.098 19.289 137.484 30.68 137.484 44.723V78.637H154.438V44.723C154.438 21.312 135.461 2.336 112.051 2.336" fill="#000105"/>
<path d="M112.047 40.484H132.18399V57.441H112.047Z" fill="#000105"/>
</g>
</svg>