<?xml version="1.0" encoding="UTF-8"?><svg id="b" xmlns="http://www.w3.org/2000/svg" viewBox="0 0 2497.31 625.04"><g id="c"><path d="M727.23,293.53h-236.99l-32.45,32.45v205.51l32.6,32.6h236.69l32.6-32.6v-205.51l-32.45-32.45ZM715.55,519.96h-213.62v-182.29h213.62v182.29Z"/><polygon points="1033.03 505.98 1033.03 519.96 819.41 519.96 819.41 337.67 1033.03 337.67 1033.03 351.5 1077.17 351.5 1077.17 325.98 1044.71 293.53 807.73 293.53 775.28 325.98 775.28 531.5 807.87 564.09 1044.57 564.09 1077.17 531.5 1077.17 505.98 1033.03 505.98"/><path d="M1394.65,325.98l-32.45-32.45h-236.99l-32.45,32.45v205.51l32.6,32.6h236.69l32.6-32.6v-25.51h-44.14v13.97h-197.19l239.8-175.68-.4-.54,1.93-1.41v-16.33ZM1327.79,337.67l-190.89,139.86v-139.86h190.89Z"/><path d="M1679.53,293.39h-236.69l-32.6,32.6v25.51h44.14v-13.97h191.56l-231.16,169.35.03.04-4.57,3.35v21.23l32.45,32.45h236.99l32.45-32.45v-205.52l-32.6-32.6ZM1667.99,519.81h-196.53l196.53-143.98v143.98Z"/><polyline points="1772.05 564.1 1771.85 515.91 1771.85 337.67 1985.47 337.67 1985.47 515.91 1985.52 564.09 1992.76 564.09 1997.01 564.09 2029.61 564.09 2029.61 524.41 2029.61 325.98 1997.16 293.53 1760.17 293.53 1727.72 325.98 1727.72 513.07 1727.72 513.07 1727.72 564.1 1771.65 564.1"/><rect x="2045.2" y="293.53" width="44.1" height="32.45"/><polygon points="2135.69 505.98 2135.69 520.13 2089.26 520.14 2089.26 514.16 2089.33 514.16 2089.33 351.43 2045.2 351.43 2045.2 531.67 2077.8 564.27 2083.4 564.27 2089.26 564.27 2147.23 564.27 2179.83 531.67 2179.83 505.98 2135.69 505.98"/><path d="M2464.71,293.39h-236.69l-32.6,32.6v25.51h44.14v-13.97h191.56l-231.16,169.35.03.04-4.57,3.35v21.23l32.45,32.45h236.99l32.45-32.45v-205.52l-32.6-32.6ZM2453.17,519.81h-196.53l196.53-143.98v143.98Z"/><path d="M488.98,625.04v-7.28h35.85v-7.28h-35.85v-21.38h43.12v7.28h-35.85v6.83h35.85v21.83h-43.12Z"/><path d="M534.17,625.04v-21.83l11.01-14.11h32.12v21.38h-35.85v14.55h-7.28ZM543.38,603.21h26.64v-6.83h-21.29l-5.35,6.83Z"/><path d="M579.36,610.93v-21.83h43.12v35.94h-32.12l-11.01-14.11ZM586.64,608.46l7.28,9.3h21.29v-21.38h-28.57v12.08Z"/><path d="M624.55,625.04v-35.94h32.12l11.01,14.11v21.83h-7.28v-19.36l-7.28-9.3h-21.29v28.66h-7.28Z"/><path d="M669.74,625.04v-7.28h35.85v-7.28h-35.85v-21.38h43.12v7.28h-35.85v6.83h35.85v21.83h-43.12Z"/><path d="M714.93,610.93v-21.83h43.12v35.94h-32.12l-11.01-14.11ZM722.21,608.46l7.28,9.3h21.29v-21.38h-28.57v12.08Z"/><path d="M760.13,625.04v-21.83l11.01-14.11h32.12v21.38h-16.71l5.71,7.28h11.01v7.28h-14.55l-11.37-14.55h-9.93v14.55h-7.28ZM769.33,603.21h26.64v-6.83h-21.29l-5.35,6.83Z"/><path d="M805.32,625.04v-7.28h35.85v-7.28h-35.85v-21.38h43.12v7.28h-35.85v6.83h35.85v21.83h-43.12Z"/><path d="M872.97,596.38v-7.28h42.68v7.28h-17.7v28.66h-7.28v-28.66h-17.7Z"/><path d="M917.71,625.04v-21.83l11.01-14.11h32.12v7.28h-28.57l-5.71,7.28h34.28v7.28h-35.85v6.83h35.85v7.28h-43.12Z"/><path d="M962.9,625.04v-21.83l11.01-14.11h32.12v35.94h-7.28v-14.55h-28.57v14.55h-7.28ZM972.11,603.21h26.64v-6.83h-21.29l-5.35,6.83Z"/><path d="M1008.09,625.04v-21.83l11.01-14.11h39.76v35.94h-7.28v-28.66h-10.69v28.66h-7.28v-28.66h-10.96l-7.28,9.3v19.36h-7.28Z"/><path d="M1083.74,596.38v-7.28h42.68v7.28h-17.7v28.66h-7.28v-28.66h-17.7Z"/><path d="M1128.48,625.04v-21.83l11.01-14.11h32.12v21.38h-16.71l5.71,7.28h11.01v7.28h-14.55l-11.37-14.55h-9.93v14.55h-7.28ZM1137.69,603.21h26.64v-6.83h-21.29l-5.35,6.83Z"/><path d="M1173.68,625.04v-35.94h7.28v35.94h-7.28Z"/><path d="M1183.38,625.04v-21.83l11.01-14.11h32.12v35.94h-7.28v-14.55h-28.57v14.55h-7.28ZM1192.59,603.21h26.64v-6.83h-21.29l-5.35,6.83Z"/><path d="M1228.57,625.04v-35.94h7.28v14.11h9.93l11.37-14.11h14.11v7.28h-10.56l-7.37,9.39v2.61l7.37,9.39h10.56v7.28h-14.11l-11.37-14.55h-9.93v14.55h-7.28Z"/><path d="M1273.31,625.04v-35.94h7.28v35.94h-7.28Z"/><path d="M1283.02,625.04v-7.28h35.85v-7.28h-35.85v-21.38h43.12v7.28h-35.85v6.83h35.85v21.83h-43.12Z"/><polygon id="d" points="440.79 331.65 440.79 522.99 415.28 480.47 269.29 522.99 277.8 544.25 218.27 548.5 175.75 483.31 402.52 447.87 164.41 460.63 90.71 323.15 165.83 342.99 175.75 365.67 402.52 382.68 80.79 301.89 0 0 141.73 46.77 138.9 79.37 440.79 331.65"/></g></svg>