<svg xmlns="http://www.w3.org/2000/svg" viewBox="0 0 633.212 465.157" width="633.2" height="465.2">
<g transform="matrix(1 0 0 -1 33.883 745.636)">
<path fill="#e20a16" fill-rule="evenodd" d="M54.593 280.479 L91.835 386.475 L-33.883 386.475 L-33.883 543.280 L477.702 543.280 L477.702 386.475 L454.926 386.475 L454.926 280.479 L298.122 280.479 L298.122 386.475 L259.924 386.475 L221.034 280.479 L54.593 280.479 Z"/>
<path fill="#67b1de" fill-rule="evenodd" d="M33.569 723.736 L165.845 723.736 L165.845 745.636 L321.774 745.636 L321.774 723.736 L454.926 723.736 L454.926 567.808 L33.569 567.808 L33.569 723.736 Z"/>
<path fill="#000000" fill-rule="evenodd" d="M546.553 600.220 L546.553 690.686 L553.840 690.686 L553.840 600.220 L575.705 600.220 L575.705 724.612 L524.686 724.612 L524.686 634.146 L517.397 634.146 L517.397 724.612 L495.533 724.612 L495.533 600.220 L546.553 600.220 L546.553 600.220 ZM546.553 299.324 L553.840 299.324 L553.840 386.406 L546.553 386.406 L546.553 299.324 L546.553 299.324 ZM553.840 281.118 L546.553 281.118 L524.686 281.118 L524.686 299.324 L524.686 386.406 L517.397 386.406 L517.397 281.118 L495.533 281.118 L495.533 386.406 L495.533 405.709 L517.397 405.709 L524.686 405.709 L546.553 405.709 L553.840 405.709 L575.705 405.709 L575.705 386.406 L575.705 299.324 L575.705 281.118 L553.840 281.118 L553.840 281.118 ZM553.840 419.747 L517.397 419.747 L495.533 419.747 L495.533 437.076 L495.533 525.255 L495.533 544.385 L517.397 544.385 L553.840 544.385 L575.705 544.385 L598.782 544.385 L598.782 525.255 L575.705 525.255 L575.705 437.076 L575.705 419.747 L553.840 419.747 L553.840 419.747 ZM517.397 437.076 L553.840 437.076 L553.840 525.255 L517.397 525.255 L517.397 437.076 L517.397 437.076 ZM527.916 584.646 L546.295 584.646 L546.295 558.389 L527.916 558.389 L527.916 584.646 Z"/>
<path fill="#000000" fill-rule="evenodd" d="M598.850 283.157 L598.850 281.187 L582.423 281.187 L582.423 283.157 L598.850 283.157 L598.850 283.157 ZM599.329 305.603 L586.869 294.078 L598.850 294.078 L598.850 292.108 L581.944 292.108 L594.383 303.640 L582.423 303.640 L582.423 305.603 L599.329 305.603 L599.329 305.603 ZM584.254 322.449 L584.254 318.874 L598.850 318.874 L598.850 316.911 L584.254 316.911 L584.254 313.327 L582.423 313.327 L582.423 322.449 L584.254 322.449 L584.254 322.449 ZM598.850 338.454 L598.850 330.169 L582.423 330.169 L582.423 338.454 L584.337 338.454 L584.337 332.139 L589.138 332.139 L589.138 338.454 L591.053 338.454 L591.053 332.139 L596.936 332.139 L596.936 338.454 L598.850 338.454 L598.850 338.454 ZM586.974 353.919 C586.062 353.919 585.390 353.640 584.969 353.082 C584.548 352.524 584.337 351.645 584.337 350.446 L584.337 349.086 L589.454 349.086 L589.454 350.446 C589.454 351.656 589.258 352.538 588.870 353.092 C588.477 353.643 587.849 353.919 586.974 353.919 L586.974 353.919 ZM598.850 356.677 L598.850 354.296 L591.179 349.647 L591.179 349.086 L598.850 349.086 L598.850 347.116 L582.423 347.116 L582.423 350.679 C582.423 352.371 582.805 353.661 583.571 354.550 C584.337 355.439 585.438 355.882 586.872 355.882 C588.147 355.882 589.160 355.512 589.912 354.777 C590.664 354.041 591.060 353.037 591.096 351.764 L598.850 356.677 L598.850 356.677 ZM599.329 378.018 L586.869 366.493 L598.850 366.493 L598.850 364.523 L581.944 364.523 L594.383 376.055 L582.423 376.055 L582.423 378.018 L599.329 378.018 L599.329 378.018 ZM592.360 395.435 L586.393 392.900 L592.360 390.369 L592.360 395.435 L592.360 395.435 ZM598.850 400.349 L598.850 398.173 L594.103 396.161 L594.103 389.612 L598.850 387.611 L598.850 385.435 L581.944 392.900 L598.850 400.349 L598.850 400.349 ZM584.254 415.622 L584.254 412.048 L598.850 412.048 L598.850 410.084 L584.254 410.084 L584.254 406.500 L582.423 406.500 L582.423 415.622 L584.254 415.622 L584.254 415.622 ZM598.850 425.291 L598.850 423.321 L582.423 423.321 L582.423 425.291 L598.850 425.291 L598.850 425.291 ZM590.635 447.510 C588.779 447.510 587.203 446.924 585.917 445.753 C584.628 444.581 583.985 443.145 583.985 441.443 C583.985 439.605 584.635 438.141 585.939 437.053 C587.239 435.961 588.804 435.417 590.635 435.417 C592.494 435.417 594.070 435.996 595.356 437.154 C596.645 438.312 597.288 439.741 597.288 441.443 C597.288 443.145 596.642 444.581 595.352 445.753 C594.059 446.924 592.487 447.510 590.635 447.510 L590.635 447.510 ZM590.635 449.473 C593.035 449.473 595.062 448.696 596.718 447.141 C598.374 445.582 599.202 443.685 599.202 441.443 C599.202 439.218 598.370 437.321 596.707 435.756 C595.044 434.190 593.021 433.405 590.635 433.405 C588.216 433.405 586.186 434.180 584.541 435.728 C582.896 437.279 582.071 439.183 582.071 441.443 C582.071 443.706 582.896 445.610 584.541 447.155 C586.186 448.700 588.216 449.473 590.635 449.473 L590.635 449.473 ZM599.329 471.110 L586.869 459.586 L598.850 459.586 L598.850 457.616 L581.944 457.616 L594.383 469.147 L582.423 469.147 L582.423 471.110 L599.329 471.110 L599.329 471.110 ZM592.360 488.528 L586.393 485.993 L592.360 483.462 L592.360 488.528 L592.360 488.528 ZM598.850 493.441 L598.850 491.265 L594.103 489.253 L594.103 482.705 L598.850 480.703 L598.850 478.527 L581.944 485.993 L598.850 493.441 L598.850 493.441 ZM598.850 507.211 L598.850 500.959 L582.423 500.959 L582.423 502.923 L596.976 502.923 L596.976 507.211 L598.850 507.211 Z"/>
</g></svg>