<svg xmlns="http://www.w3.org/2000/svg" viewBox="0 0 479.081 276.170" width="479.1" height="276.2">
<g transform="matrix(1 0 0 -1 -57.182 646.901)">
<path fill="#67b1de" fill-rule="evenodd" d="M170.741 646.901 L170.741 646.901 C233.199 646.901 284.299 595.800 284.299 533.343 L284.299 530.958 L284.299 417.400 L171.635 417.400 L155.540 417.400 L155.540 433.494 L155.540 449.589 L155.540 531.852 C155.540 540.705 162.782 547.947 171.635 547.947 L171.635 547.947 C180.488 547.947 187.730 540.705 187.730 531.852 L187.730 449.589 L253.898 449.589 L253.898 499.066 L253.898 531.852 C253.898 576.769 217.481 613.519 172.972 613.519 L169.702 613.519 C125.192 613.519 88.776 576.769 88.776 531.852 L88.776 506.720 L88.776 499.066 L88.776 449.589 L99.635 449.589 L107.255 449.589 L107.255 479.395 L107.255 534.237 C107.255 568.335 135.153 596.232 169.250 596.232 L173.423 596.232 C207.521 596.232 235.418 568.335 235.418 534.237 L235.418 479.395 L235.418 466.877 L205.613 466.877 L205.613 532.151 C205.613 550.347 190.726 565.234 172.529 565.234 L172.529 565.234 C154.332 565.234 139.445 550.347 139.445 532.151 L139.445 450.483 L139.445 417.400 L57.182 417.400 L57.182 530.958 L57.182 532.150 L57.182 533.343 C57.182 595.800 108.283 646.901 170.741 646.901 Z"/>
<path fill="#67b1de" fill-rule="evenodd" d="M536.263 532.151 L536.263 532.151 C536.263 594.609 485.162 645.710 422.705 645.710 L420.320 645.710 L306.762 645.710 L306.762 533.045 L306.762 516.950 L322.856 516.950 L338.951 516.950 L421.214 516.950 C430.067 516.950 437.309 524.193 437.309 533.045 L437.309 533.045 C437.309 541.898 430.067 549.140 421.214 549.140 L338.951 549.140 L338.951 615.308 L388.428 615.308 L421.214 615.308 C466.131 615.308 502.881 578.892 502.881 534.382 L502.881 531.112 C502.881 486.603 466.131 450.186 421.214 450.186 L396.082 450.186 L388.428 450.186 L338.951 450.186 L338.951 461.046 L338.951 468.665 L368.757 468.665 L423.599 468.665 C457.697 468.665 485.594 496.563 485.594 530.661 L485.594 534.834 C485.594 568.931 457.697 596.829 423.599 596.829 L368.757 596.829 L356.239 596.829 L356.239 567.023 L421.513 567.023 C439.709 567.023 454.596 552.136 454.596 533.939 L454.596 533.939 C454.596 515.742 439.709 500.855 421.513 500.855 L339.845 500.855 L306.762 500.855 L306.762 418.592 L420.320 418.592 L421.512 418.592 L422.705 418.592 C485.162 418.592 536.263 469.693 536.263 532.151 Z"/>
<path fill="#67b1de" fill-rule="evenodd" d="M517.139 415.586 C508.127 415.586 500.819 422.894 500.819 431.906 C500.819 440.918 508.127 448.226 517.139 448.226 C526.151 448.226 533.459 440.918 533.459 431.906 C533.459 422.894 526.151 415.586 517.139 415.586 L517.139 415.586 ZM517.139 418.174 C524.722 418.174 530.872 424.324 530.872 431.906 C530.872 439.489 524.722 445.639 517.139 445.639 C509.557 445.639 503.407 439.489 503.407 431.906 C503.407 424.324 509.557 418.174 517.139 418.174 Z"/>
<path fill="#67b1de" fill-rule="evenodd" d="M522.438 429.596 L525.314 429.219 C525.003 427.236 524.198 425.681 522.898 424.559 C521.605 423.437 520.010 422.877 518.122 422.877 C515.762 422.877 513.857 423.648 512.424 425.192 C510.986 426.736 510.264 428.952 510.264 431.840 C510.264 433.706 510.575 435.338 511.192 436.738 C511.813 438.137 512.752 439.187 514.019 439.887 C515.279 440.586 516.656 440.937 518.139 440.937 C520.016 440.937 521.554 440.459 522.743 439.510 C523.937 438.560 524.704 437.216 525.042 435.466 L522.193 435.028 C521.921 436.188 521.443 437.060 520.755 437.649 C520.066 438.232 519.233 438.526 518.256 438.526 C516.779 438.526 515.579 437.999 514.657 436.938 C513.735 435.883 513.274 434.211 513.274 431.923 C513.274 429.602 513.719 427.913 514.612 426.858 C515.501 425.809 516.662 425.281 518.095 425.281 C519.244 425.281 520.199 425.637 520.971 426.342 C521.743 427.047 522.232 428.130 522.438 429.596 Z"/>
<path fill="#bfbc82" fill-rule="evenodd" d="M57.284 394.573 L68.778 394.573 C70.493 394.573 71.975 393.981 73.222 392.796 C74.470 391.611 75.116 390.181 75.160 388.507 L62.997 388.507 C61.394 388.507 60.024 387.958 58.888 386.860 C57.752 385.762 57.183 384.441 57.183 382.897 L57.183 381.364 C57.183 379.820 57.752 378.500 58.888 377.402 C60.024 376.303 61.394 375.754 62.997 375.754 L72.788 375.754 C74.391 375.754 75.762 376.303 76.898 377.402 C78.034 378.500 78.602 379.820 78.602 381.364 L78.602 388.377 C78.602 390.986 77.639 393.231 75.712 395.111 C73.785 396.992 71.474 397.933 68.778 397.933 L57.284 397.933 L57.284 394.573 L57.284 394.573 ZM60.625 381.364 L60.625 382.897 C60.625 383.528 60.854 384.066 61.310 384.512 C61.767 384.957 62.329 385.180 62.997 385.180 L75.160 385.180 L75.160 381.364 C75.160 380.755 74.932 380.228 74.475 379.782 C74.019 379.337 73.456 379.114 72.788 379.114 L62.997 379.114 C62.329 379.114 61.767 379.337 61.310 379.782 C60.854 380.228 60.625 380.755 60.625 381.364 L60.625 381.364 ZM88.727 397.933 C87.123 397.933 85.753 397.384 84.617 396.285 C83.481 395.188 82.912 393.867 82.912 392.323 L82.912 390.725 C82.912 389.181 83.481 387.860 84.617 386.762 C85.753 385.664 87.123 385.115 88.727 385.115 L98.517 385.115 C99.186 385.115 99.748 384.892 100.204 384.447 C100.661 384.000 100.890 383.473 100.890 382.864 L100.890 381.364 C100.890 380.755 100.661 380.228 100.204 379.782 C99.748 379.337 99.186 379.114 98.517 379.114 L83.013 379.114 L83.013 375.754 L98.517 375.754 C100.121 375.754 101.491 376.303 102.627 377.402 C103.764 378.500 104.331 379.820 104.331 381.364 L104.331 382.864 C104.331 384.408 103.764 385.729 102.627 386.827 C101.491 387.925 100.121 388.474 98.517 388.474 L88.727 388.474 C88.059 388.474 87.496 388.697 87.040 389.143 C86.583 389.588 86.355 390.116 86.355 390.725 L86.355 392.323 C86.355 392.932 86.583 393.459 87.040 393.905 C87.496 394.351 88.059 394.573 88.727 394.573 L104.232 394.573 L104.232 397.933 L88.727 397.933 L88.727 397.933 ZM114.456 397.933 C112.852 397.933 111.482 397.384 110.346 396.285 C109.210 395.188 108.642 393.867 108.642 392.323 L108.642 390.725 C108.642 389.181 109.210 387.860 110.346 386.762 C111.482 385.664 112.852 385.115 114.456 385.115 L124.247 385.115 C124.915 385.115 125.477 384.892 125.934 384.447 C126.391 384.000 126.619 383.473 126.619 382.864 L126.619 381.364 C126.619 380.755 126.391 380.228 125.934 379.782 C125.477 379.337 124.915 379.114 124.247 379.114 L108.743 379.114 L108.743 375.754 L124.247 375.754 C125.850 375.754 127.220 376.303 128.356 377.402 C129.493 378.500 130.061 379.820 130.061 381.364 L130.061 382.864 C130.061 384.408 129.493 385.729 128.356 386.827 C127.220 387.925 125.850 388.474 124.247 388.474 L114.456 388.474 C113.788 388.474 113.225 388.697 112.769 389.143 C112.312 389.588 112.084 390.116 112.084 390.725 L112.084 392.323 C112.084 392.932 112.312 393.459 112.769 393.905 C113.225 394.351 113.788 394.573 114.456 394.573 L129.961 394.573 L129.961 397.933 L114.456 397.933 L114.456 397.933 ZM140.185 397.933 C138.582 397.933 137.212 397.384 136.076 396.285 C134.939 395.188 134.371 393.867 134.371 392.323 L134.371 385.311 C134.371 382.702 135.335 380.456 137.262 378.576 C139.189 376.695 141.500 375.754 144.195 375.754 L155.690 375.754 L155.690 379.114 L144.195 379.114 C142.480 379.114 140.998 379.707 139.751 380.891 C138.504 382.077 137.858 383.506 137.813 385.180 L149.976 385.180 C151.580 385.180 152.950 385.729 154.086 386.827 C155.222 387.925 155.790 389.247 155.790 390.790 L155.790 392.323 C155.790 393.867 155.222 395.188 154.086 396.285 C152.950 397.384 151.580 397.933 149.976 397.933 L140.185 397.933 L140.185 397.933 ZM137.813 392.323 C137.813 392.932 138.042 393.459 138.498 393.905 C138.955 394.351 139.517 394.573 140.185 394.573 L149.976 394.573 C150.644 394.573 151.207 394.351 151.663 393.905 C152.120 393.459 152.348 392.932 152.348 392.323 L152.348 390.790 C152.348 390.159 152.120 389.621 151.663 389.175 C151.207 388.730 150.644 388.507 149.976 388.507 L137.813 388.507 L137.813 392.323 L137.813 392.323 ZM165.915 397.933 C164.311 397.933 162.941 397.384 161.805 396.285 C160.669 395.188 160.100 393.867 160.100 392.323 L160.100 385.311 C160.100 382.702 161.058 380.462 162.974 378.592 C164.890 376.722 167.207 375.776 169.924 375.754 L177.978 375.754 C177.644 374.645 176.886 374.091 175.705 374.091 L175.705 370.732 C177.309 370.732 178.679 371.281 179.815 372.379 C180.951 373.477 181.519 374.808 181.519 376.374 L181.519 392.323 C181.519 393.867 180.951 395.188 179.815 396.285 C178.679 397.384 177.309 397.933 175.705 397.933 L165.915 397.933 L165.915 397.933 ZM163.542 385.311 L163.542 392.323 C163.542 392.932 163.771 393.459 164.227 393.905 C164.684 394.351 165.246 394.573 165.915 394.573 L175.705 394.573 C176.373 394.573 176.936 394.351 177.392 393.905 C177.849 393.459 178.077 392.932 178.077 392.323 L178.077 379.114 L169.924 379.114 C168.187 379.114 166.689 379.723 165.430 380.940 C164.172 382.158 163.542 383.615 163.542 385.311 L163.542 385.311 ZM185.930 394.573 L197.425 394.573 C199.140 394.573 200.621 393.981 201.868 392.796 C203.116 391.611 203.762 390.181 203.807 388.507 L191.644 388.507 C190.040 388.507 188.670 387.958 187.534 386.860 C186.398 385.762 185.829 384.441 185.829 382.897 L185.829 381.364 C185.829 379.820 186.398 378.500 187.534 377.402 C188.670 376.303 190.040 375.754 191.644 375.754 L201.435 375.754 C203.038 375.754 204.408 376.303 205.544 377.402 C206.680 378.500 207.248 379.820 207.248 381.364 L207.248 388.377 C207.248 390.986 206.285 393.231 204.358 395.111 C202.431 396.992 200.120 397.933 197.425 397.933 L185.930 397.933 L185.930 394.573 L185.930 394.573 ZM189.272 381.364 L189.272 382.897 C189.272 383.528 189.500 384.066 189.956 384.512 C190.413 384.957 190.976 385.180 191.644 385.180 L203.807 385.180 L203.807 381.364 C203.807 380.755 203.578 380.228 203.121 379.782 C202.665 379.337 202.103 379.114 201.435 379.114 L191.644 379.114 C190.976 379.114 190.413 379.337 189.956 379.782 C189.500 380.228 189.272 380.755 189.272 381.364 L189.272 381.364 ZM211.559 397.933 L211.559 375.721 L215.001 375.721 L215.001 397.933 L211.559 397.933 L211.559 397.933 ZM211.559 402.728 L211.559 399.563 L215.001 399.563 L215.001 402.728 L211.559 402.728 L211.559 402.728 ZM253.795 402.792 L253.795 397.933 C251.968 397.933 249.251 397.933 245.642 397.933 C242.946 397.911 240.635 396.966 238.709 395.096 C236.782 393.225 235.818 390.986 235.818 388.377 L235.818 381.364 C235.818 379.820 236.386 378.500 237.522 377.402 C238.659 376.303 240.028 375.754 241.632 375.754 L251.423 375.754 C253.026 375.754 254.396 376.303 255.532 377.402 C256.669 378.500 257.237 379.820 257.237 381.364 L257.237 402.792 L253.795 402.792 L253.795 402.792 ZM239.260 381.364 L239.260 388.377 C239.260 390.072 239.889 391.529 241.148 392.747 C242.406 393.964 243.915 394.573 245.675 394.573 L253.795 394.573 L253.795 381.364 C253.795 380.755 253.566 380.228 253.110 379.782 C252.653 379.337 252.091 379.114 251.423 379.114 L241.632 379.114 C240.964 379.114 240.401 379.337 239.945 379.782 C239.488 380.228 239.260 380.755 239.260 381.364 L239.260 381.364 ZM267.361 397.933 C265.758 397.933 264.388 397.384 263.252 396.285 C262.115 395.188 261.548 393.867 261.548 392.323 L261.548 385.311 C261.548 382.702 262.511 380.456 264.438 378.576 C266.365 376.695 268.676 375.754 271.371 375.754 L282.866 375.754 L282.866 379.114 L271.371 379.114 C269.656 379.114 268.175 379.707 266.928 380.891 C265.680 382.077 265.034 383.506 264.989 385.180 L277.152 385.180 C278.756 385.180 280.126 385.729 281.262 386.827 C282.398 387.925 282.966 389.247 282.966 390.790 L282.966 392.323 C282.966 393.867 282.398 395.188 281.262 396.285 C280.126 397.384 278.756 397.933 277.152 397.933 L267.361 397.933 L267.361 397.933 ZM264.989 392.323 C264.989 392.932 265.218 393.459 265.674 393.905 C266.131 394.351 266.693 394.573 267.361 394.573 L277.152 394.573 C277.820 394.573 278.383 394.351 278.840 393.905 C279.296 393.459 279.524 392.932 279.524 392.323 L279.524 390.790 C279.524 390.159 279.296 389.621 278.840 389.175 C278.383 388.730 277.820 388.507 277.152 388.507 L264.989 388.507 L264.989 392.323 L264.989 392.323 ZM305.253 397.966 L305.253 381.364 C305.253 380.755 305.025 380.228 304.569 379.782 C304.112 379.337 303.549 379.114 302.881 379.114 L293.091 379.114 C292.422 379.114 291.860 379.337 291.404 379.782 C290.947 380.228 290.718 380.755 290.718 381.364 L290.718 397.966 L287.277 397.966 L287.277 381.364 C287.277 379.820 287.845 378.500 288.981 377.402 C290.117 376.303 291.487 375.754 293.091 375.754 L302.881 375.754 C304.485 375.754 305.855 376.303 306.991 377.402 C308.127 378.500 308.696 379.820 308.696 381.364 L308.696 397.966 L305.253 397.966 L305.253 397.966 ZM318.820 397.933 C317.216 397.933 315.846 397.384 314.710 396.285 C313.574 395.188 313.006 393.867 313.006 392.323 L313.006 385.311 C313.006 382.702 313.969 380.456 315.896 378.576 C317.824 376.695 320.134 375.754 322.830 375.754 L334.325 375.754 L334.325 379.114 L322.830 379.114 C321.115 379.114 319.633 379.707 318.386 380.891 C317.138 382.077 316.492 383.506 316.448 385.180 L328.611 385.180 C330.214 385.180 331.584 385.729 332.720 386.827 C333.857 387.925 334.425 389.247 334.425 390.790 L334.425 392.323 C334.425 393.867 333.857 395.188 332.720 396.285 C331.584 397.384 330.214 397.933 328.611 397.933 L318.820 397.933 L318.820 397.933 ZM316.448 392.323 C316.448 392.932 316.676 393.459 317.133 393.905 C317.589 394.351 318.152 394.573 318.820 394.573 L328.611 394.573 C329.279 394.573 329.841 394.351 330.298 393.905 C330.754 393.459 330.983 392.932 330.983 392.323 L330.983 390.790 C330.983 390.159 330.754 389.621 330.298 389.175 C329.841 388.730 329.279 388.507 328.611 388.507 L316.448 388.507 L316.448 392.323 L316.448 392.323 ZM338.735 402.792 L338.735 381.364 C338.735 379.820 339.303 378.500 340.439 377.402 C341.576 376.303 342.945 375.754 344.549 375.754 L344.549 379.114 C343.881 379.114 343.318 379.337 342.862 379.782 C342.405 380.228 342.177 380.755 342.177 381.364 L342.177 402.792 L338.735 402.792 L338.735 402.792 ZM354.340 397.933 C352.736 397.933 351.366 397.384 350.230 396.285 C349.094 395.188 348.526 393.867 348.526 392.323 L348.526 385.311 C348.526 382.702 349.489 380.456 351.416 378.576 C353.343 376.695 355.654 375.754 358.350 375.754 L364.131 375.754 C365.734 375.754 367.104 376.303 368.240 377.402 C369.376 378.500 369.944 379.820 369.944 381.364 L369.944 392.323 C369.944 393.867 369.376 395.188 368.240 396.285 C367.104 397.384 365.734 397.933 364.131 397.933 L354.340 397.933 L354.340 397.933 ZM351.968 385.311 L351.968 392.323 C351.968 392.932 352.196 393.459 352.652 393.905 C353.109 394.351 353.672 394.573 354.340 394.573 L364.131 394.573 C364.799 394.573 365.361 394.351 365.817 393.905 C366.274 393.459 366.503 392.932 366.503 392.323 L366.503 381.364 C366.503 380.755 366.274 380.228 365.817 379.782 C365.361 379.337 364.799 379.114 364.131 379.114 L358.350 379.114 C356.590 379.114 355.086 379.723 353.839 380.940 C352.592 382.158 351.968 383.615 351.968 385.311 L351.968 385.311 ZM380.069 397.900 C378.465 397.900 377.096 397.351 375.959 396.253 C374.823 395.155 374.255 393.834 374.255 392.290 L374.255 371.156 L377.697 371.156 L377.697 375.754 C379.524 375.733 382.241 375.733 385.850 375.754 C388.545 375.754 390.856 376.695 392.783 378.576 C394.710 380.456 395.673 382.702 395.673 385.311 L395.673 392.290 C395.673 393.834 395.106 395.155 393.969 396.253 C392.833 397.351 391.463 397.900 389.860 397.900 L380.069 397.900 L380.069 397.900 ZM377.697 392.290 C377.697 392.921 377.925 393.459 378.382 393.905 C378.839 394.351 379.401 394.573 380.069 394.573 L389.860 394.573 C390.528 394.573 391.090 394.351 391.547 393.905 C392.003 393.459 392.232 392.921 392.232 392.290 L392.232 385.311 C392.232 383.615 391.603 382.152 390.344 380.924 C389.085 379.695 387.577 379.081 385.817 379.081 L377.697 379.081 L377.697 392.290 L377.697 392.290 ZM413.484 394.573 L405.798 394.573 C405.130 394.573 404.568 394.351 404.111 393.905 C403.655 393.459 403.426 392.932 403.426 392.323 L403.426 375.721 L399.985 375.721 L399.985 392.323 C399.985 393.867 400.552 395.188 401.689 396.285 C402.825 397.384 404.195 397.933 405.798 397.933 L420.601 397.933 C423.296 397.933 425.608 396.992 427.535 395.111 C429.462 393.231 430.425 390.986 430.425 388.377 L430.425 375.721 L426.983 375.721 L426.983 388.377 C426.983 390.072 426.354 391.529 425.095 392.747 C423.837 393.964 422.328 394.573 420.568 394.573 L416.892 394.573 L416.892 375.721 L413.484 375.721 L413.484 394.573 L413.484 394.573 ZM440.549 397.933 C438.946 397.933 437.576 397.384 436.439 396.285 C435.303 395.188 434.735 393.867 434.735 392.323 L434.735 385.311 C434.735 382.702 435.699 380.456 437.626 378.576 C439.553 376.695 441.864 375.754 444.559 375.754 L456.054 375.754 L456.054 379.114 L444.559 379.114 C442.844 379.114 441.363 379.707 440.115 380.891 C438.868 382.077 438.222 383.506 438.177 385.180 L450.340 385.180 C451.944 385.180 453.314 385.729 454.450 386.827 C455.586 387.925 456.154 389.247 456.154 390.790 L456.154 392.323 C456.154 393.867 455.586 395.188 454.450 396.285 C453.314 397.384 451.944 397.933 450.340 397.933 L440.549 397.933 L440.549 397.933 ZM438.177 392.323 C438.177 392.932 438.405 393.459 438.862 393.905 C439.318 394.351 439.882 394.573 440.549 394.573 L450.340 394.573 C451.008 394.573 451.571 394.351 452.027 393.905 C452.484 393.459 452.713 392.932 452.713 392.323 L452.713 390.790 C452.713 390.159 452.484 389.621 452.027 389.175 C451.571 388.730 451.008 388.507 450.340 388.507 L438.177 388.507 L438.177 392.323 L438.177 392.323 ZM460.465 392.323 L460.465 375.721 L463.906 375.721 L463.906 392.323 C463.906 392.932 464.135 393.459 464.592 393.905 C465.048 394.351 465.611 394.573 466.279 394.573 L472.060 394.573 C473.819 394.573 475.323 393.964 476.571 392.747 C477.818 391.529 478.442 390.072 478.442 388.377 L478.442 375.721 L481.884 375.721 L481.884 388.377 C481.884 390.986 480.920 393.231 478.993 395.111 C477.066 396.992 474.755 397.933 472.060 397.933 L466.279 397.933 C464.675 397.933 463.305 397.384 462.169 396.285 C461.032 395.188 460.465 393.867 460.465 392.323 L460.465 392.323 ZM489.636 394.573 L489.636 385.311 C489.636 383.615 490.259 382.158 491.507 380.940 C492.754 379.723 494.258 379.114 496.018 379.114 L505.908 379.114 L505.908 375.754 L496.018 375.754 C493.322 375.754 491.011 376.695 489.085 378.576 C487.157 380.456 486.194 382.702 486.194 385.311 L486.194 402.792 L489.636 402.792 L489.636 397.933 L505.908 397.933 L505.908 394.573 L489.636 394.573 L489.636 394.573 ZM516.067 397.933 C514.463 397.933 513.092 397.384 511.957 396.285 C510.821 395.188 510.252 393.867 510.252 392.323 L510.252 390.725 C510.252 389.181 510.821 387.860 511.957 386.762 C513.092 385.664 514.463 385.115 516.067 385.115 L525.857 385.115 C526.525 385.115 527.088 384.892 527.544 384.447 C528.001 384.000 528.229 383.473 528.229 382.864 L528.229 381.364 C528.229 380.755 528.001 380.228 527.544 379.782 C527.088 379.337 526.525 379.114 525.857 379.114 L510.353 379.114 L510.353 375.754 L525.857 375.754 C527.460 375.754 528.831 376.303 529.967 377.402 C531.103 378.500 531.671 379.820 531.671 381.364 L531.671 382.864 C531.671 384.408 531.103 385.729 529.967 386.827 C528.831 387.925 527.460 388.474 525.857 388.474 L516.067 388.474 C515.398 388.474 514.836 388.697 514.379 389.143 C513.923 389.588 513.694 390.116 513.694 390.725 L513.694 392.323 C513.694 392.932 513.923 393.459 514.379 393.905 C514.836 394.351 515.398 394.573 516.067 394.573 L531.572 394.573 L531.572 397.933 L516.067 397.933 Z"/>
</g></svg>