<svg xmlns="http://www.w3.org/2000/svg" viewBox="0 0 608.395 284.421" width="608.4" height="284.4">
<g transform="matrix(1 0 0 -1 10.533 690.010)">
<path fill="#002f6c" fill-rule="evenodd" d="M-9.944 522.870 L28.460 674.568 C31.134 685.876 40.676 690.010 51.850 690.010 L90.429 690.010 C95.550 690.010 98.674 689.447 102.946 685.161 C116.224 671.840 139.950 648.115 152.092 635.972 C156.504 631.559 157.397 629.220 157.397 624.910 L157.397 527.483 C157.397 516.310 148.254 507.167 137.081 507.167 L9.840 507.167 C-1.334 507.167 -9.916 515.028 -9.944 522.870 Z"/>
<path fill="#ffffff" fill-rule="evenodd" d="M53.309 617.288 L105.110 617.414 L105.110 579.222 L70.124 579.222 L100.837 549.577 L72.794 522.068 L37.170 557.495 L37.170 557.495 L53.309 617.288 L53.309 617.288 ZM37.170 557.495 L37.171 557.496 L37.170 557.495 L37.170 557.495 ZM-10.476 522.137 L27.483 521.602 L37.170 557.495 L37.170 557.495 L60.095 642.428 L27.483 676.110 L-10.476 522.137 Z"/>
<path fill="#ffffff" fill-rule="evenodd" d="M27.427 578.276 C38.192 578.276 46.972 587.055 46.972 597.820 C46.972 608.585 38.192 617.365 27.427 617.365 C16.663 617.365 7.883 608.585 7.883 597.820 C7.883 587.055 16.663 578.276 27.427 578.276 Z"/>
<path fill="#002f6c" fill-rule="evenodd" d="M68.515 465.517 C68.519 465.398 68.521 465.277 68.521 465.157 L68.521 418.141 C68.521 411.237 62.873 405.588 55.969 405.588 L55.969 405.588 C49.064 405.588 43.416 411.236 43.416 418.141 L43.416 420.010 L43.416 460.641 C43.416 479.881 14.572 478.740 14.572 460.641 L14.572 420.010 L14.572 418.141 C14.572 411.237 8.924 405.588 2.019 405.588 L2.019 405.588 C-4.885 405.588 -10.533 411.236 -10.533 418.141 L-10.533 465.157 C-10.533 465.331 -10.528 465.503 -10.521 465.675 L-10.521 465.680 C-10.506 466.045 -10.475 466.406 -10.429 466.763 C-10.417 466.862 -10.401 466.962 -10.387 467.062 C-8.775 478.430 6.270 497.818 22.266 498.206 L35.868 498.212 C53.486 498.228 68.287 480.804 68.515 465.517 L68.515 465.517 ZM-10.521 465.680 L-10.429 466.763 C-10.475 466.392 -10.506 466.032 -10.521 465.680 Z"/>
<path fill="#002f6c" fill-rule="evenodd" d="M29.087 430.771 C36.712 430.771 42.932 436.990 42.932 444.616 C42.932 452.241 36.712 458.461 29.087 458.461 C21.461 458.461 15.242 452.241 15.242 444.616 C15.242 436.990 21.461 430.771 29.087 430.771 Z"/>
<path fill="#002f6c" fill-rule="evenodd" d="M156.729 438.284 C156.732 438.403 156.735 438.524 156.735 438.644 L156.735 485.661 C156.735 492.565 151.086 498.213 144.182 498.213 L144.182 498.213 C137.278 498.213 131.630 492.565 131.630 485.661 L131.630 483.791 L131.630 443.160 C131.630 423.920 102.786 425.062 102.786 443.160 L102.786 483.791 L102.786 485.661 C102.786 492.565 97.137 498.213 90.233 498.213 L90.233 498.213 C83.329 498.213 77.681 492.565 77.681 485.661 L77.681 438.644 C77.681 438.470 77.685 438.299 77.692 438.126 L77.692 438.121 C77.708 437.756 77.739 437.395 77.784 437.038 C77.797 436.940 77.812 436.839 77.827 436.740 C79.438 425.371 94.483 405.983 110.480 405.595 L124.082 405.589 C141.699 405.573 156.500 422.997 156.729 438.284 L156.729 438.284 ZM77.692 438.121 L77.784 437.038 C77.738 437.409 77.708 437.770 77.692 438.121 Z"/>
<path fill="#002f6c" fill-rule="evenodd" d="M246.012 465.517 C246.015 465.398 246.018 465.276 246.018 465.157 L245.950 459.572 C245.867 452.670 240.302 447.020 233.397 447.020 L233.397 447.020 C226.493 447.020 220.845 452.668 220.845 459.572 L220.845 461.442 L220.912 460.641 C220.912 479.881 192.068 478.740 192.068 460.641 L192.068 420.010 L192.068 418.141 C192.068 411.237 186.420 405.588 179.516 405.588 L179.516 405.588 C172.612 405.588 166.964 411.236 166.964 418.141 L166.964 465.157 C166.964 465.331 166.968 465.503 166.975 465.675 L166.975 465.680 C166.991 466.045 167.021 466.406 167.067 466.763 C167.080 466.862 167.095 466.962 167.109 467.062 C168.721 478.430 183.766 497.818 199.762 498.206 L213.364 498.212 C230.982 498.228 245.783 480.804 246.012 465.517 L246.012 465.517 ZM166.975 465.680 L167.067 466.763 C167.021 466.392 166.991 466.032 166.975 465.680 Z"/>
<path fill="#002f6c" fill-rule="evenodd" d="M268.426 501.821 L268.426 501.821 C275.110 501.821 280.578 496.353 280.578 489.669 L280.578 417.740 C280.578 411.057 275.110 405.588 268.426 405.588 L268.426 405.588 C261.743 405.588 256.274 411.057 256.274 417.740 L256.274 489.669 C256.274 496.353 261.743 501.821 268.426 501.821 Z"/>
<path fill="#002f6c" fill-rule="evenodd" d="M291.009 465.680 C291.024 466.032 291.054 466.392 291.101 466.763 L291.009 465.680 L291.009 465.680 ZM291.009 439.460 C291.024 439.108 291.054 438.747 291.101 438.377 L291.009 439.460 L291.009 439.460 ZM368.024 467.546 C369.333 470.629 368.395 473.468 367.325 476.553 C363.299 488.158 351.594 499.564 336.729 499.551 L323.127 499.545 C307.131 499.156 292.754 478.430 291.143 467.062 C291.129 466.962 291.113 466.862 291.101 466.763 C291.055 466.406 291.024 466.045 291.009 465.680 L291.009 465.675 C291.002 465.503 290.995 465.331 290.997 465.157 L291.141 452.570 L290.997 439.982 C290.995 439.809 291.002 439.637 291.009 439.464 L291.009 439.460 C291.024 439.095 291.055 438.733 291.101 438.377 C291.113 438.278 291.129 438.177 291.143 438.078 C292.754 426.709 307.131 405.983 323.127 405.594 L336.729 405.588 C351.594 405.575 363.299 416.981 367.325 428.587 C368.395 431.671 369.333 434.510 368.024 437.593 C363.210 448.912 346.574 446.107 344.480 438.938 C341.462 426.002 319.012 426.311 316.361 441.459 C316.366 441.609 316.369 441.759 316.369 441.910 L316.369 443.780 L316.230 452.570 L316.369 461.360 L316.369 463.229 C316.369 463.380 316.366 463.532 316.361 463.681 C319.012 478.830 341.462 479.138 344.480 466.202 C346.574 459.033 363.210 456.227 368.024 467.546 Z"/>
<path fill="#002f6c" fill-rule="evenodd" d="M376.740 465.680 C376.755 466.032 376.785 466.392 376.832 466.763 L376.740 465.680 L376.740 465.680 ZM455.718 465.680 C455.703 466.032 455.673 466.392 455.626 466.763 L455.718 465.680 L455.718 465.680 ZM455.718 439.460 C455.703 439.108 455.673 438.747 455.626 438.377 L455.718 439.460 L455.718 439.460 ZM376.740 439.460 C376.755 439.108 376.785 438.747 376.832 438.377 L376.740 439.460 L376.740 439.460 ZM416.228 475.481 C409.835 475.204 403.432 471.342 402.092 463.681 C402.097 463.532 402.100 463.380 402.100 463.229 L402.100 461.360 L401.960 452.570 L402.100 443.780 L402.100 441.910 C402.100 441.759 402.097 441.609 402.092 441.459 C403.432 433.799 409.835 429.936 416.228 429.659 C422.622 429.936 429.026 433.799 430.366 441.459 C430.361 441.609 430.358 441.759 430.358 441.910 L430.358 443.780 L430.497 452.570 L430.358 461.360 L430.358 463.229 C430.358 463.380 430.361 463.532 430.366 463.681 C429.026 471.342 422.622 475.204 416.228 475.481 L416.228 475.481 ZM454.307 433.170 C454.937 434.922 455.372 436.582 455.584 438.078 C455.598 438.177 455.614 438.278 455.626 438.377 C455.672 438.733 455.703 439.095 455.718 439.460 L455.718 439.464 C455.725 439.637 455.732 439.809 455.730 439.982 L455.586 452.570 L455.730 465.157 C455.732 465.331 455.725 465.503 455.718 465.675 L455.718 465.680 C455.703 466.045 455.672 466.406 455.626 466.763 C455.614 466.862 455.598 466.962 455.584 467.062 C455.372 468.558 454.936 470.217 454.307 471.970 C454.110 473.477 453.601 474.983 453.056 476.553 C449.351 487.232 439.143 497.740 425.955 499.340 C425.175 499.455 424.390 499.526 423.600 499.545 L422.937 499.546 C422.778 499.548 422.620 499.551 422.460 499.551 L416.229 499.548 L409.998 499.551 C409.838 499.551 409.679 499.548 409.520 499.546 L408.858 499.545 C408.068 499.526 407.281 499.455 406.501 499.340 C393.313 497.740 383.106 487.232 379.402 476.553 C378.858 474.984 378.347 473.478 378.149 471.971 C377.520 470.218 377.086 468.558 376.874 467.062 C376.859 466.962 376.844 466.862 376.832 466.763 C376.786 466.406 376.755 466.045 376.740 465.680 L376.740 465.675 C376.733 465.503 376.726 465.331 376.728 465.157 L376.872 452.570 L376.728 439.982 C376.726 439.809 376.733 439.637 376.740 439.464 L376.740 439.460 C376.755 439.095 376.786 438.733 376.832 438.377 C376.844 438.278 376.859 438.177 376.874 438.078 C377.086 436.581 377.520 434.922 378.149 433.168 C378.347 431.662 378.858 430.156 379.402 428.587 C383.106 417.908 393.313 407.399 406.501 405.800 C407.281 405.685 408.068 405.613 408.858 405.594 L409.520 405.594 C409.679 405.591 409.838 405.588 409.998 405.588 L416.229 405.591 L422.460 405.588 C422.620 405.588 422.778 405.591 422.937 405.594 L423.600 405.594 C424.390 405.613 425.175 405.685 425.955 405.800 C439.143 407.399 449.351 417.908 453.056 428.587 C453.601 430.156 454.110 431.662 454.307 433.170 Z"/>
<path fill="#002f6c" fill-rule="evenodd" d="M465.072 465.680 C465.087 466.032 465.117 466.392 465.163 466.763 L465.072 465.680 L465.072 465.680 ZM518.820 465.680 C518.836 466.032 518.866 466.392 518.912 466.763 L518.820 465.680 L518.820 465.680 ZM544.114 463.162 C546.654 478.802 572.757 478.945 572.757 460.641 L572.757 420.010 L572.757 418.141 C572.757 411.236 578.406 405.588 585.310 405.588 L585.310 405.588 C592.214 405.588 597.862 411.237 597.862 418.141 L597.862 465.157 C597.862 465.277 597.860 465.398 597.857 465.517 C597.628 480.804 582.827 498.228 565.210 498.212 L551.607 498.206 C544.747 498.040 538.063 494.376 532.538 489.351 C526.811 494.662 519.423 498.220 511.461 498.212 L497.858 498.206 C481.862 497.818 466.817 478.430 465.206 467.062 C465.191 466.962 465.176 466.862 465.163 466.763 C465.117 466.406 465.087 466.045 465.072 465.680 L465.072 465.675 C465.064 465.503 465.060 465.331 465.060 465.157 L465.060 418.141 C465.060 411.236 470.708 405.588 477.612 405.588 L477.612 405.588 C484.516 405.588 490.164 411.237 490.164 418.141 L490.164 420.010 L490.164 460.641 C490.164 477.858 516.264 479.728 518.808 463.309 L518.808 418.141 C518.808 411.236 524.457 405.588 531.361 405.588 L531.361 405.588 L531.461 405.590 L531.561 405.588 L531.561 405.588 C538.465 405.588 544.114 411.237 544.114 418.141 L544.114 463.162 Z"/>
<path fill="#002f6c" fill-rule="evenodd" d="M200.092 416.925 L200.092 416.925 C200.879 416.925 201.524 416.281 201.524 415.493 L201.524 407.020 C201.524 406.232 200.879 405.588 200.092 405.588 L200.092 405.588 C199.305 405.588 198.661 406.232 198.661 407.020 L198.661 415.493 C198.661 416.281 199.305 416.925 200.092 416.925 Z"/>
<path fill="#002f6c" fill-rule="evenodd" d="M199.197 411.108 L199.197 411.108 C199.197 411.896 199.841 412.540 200.629 412.540 L209.102 412.540 C209.890 412.540 210.534 411.896 210.534 411.108 L210.534 411.108 C210.534 410.321 209.890 409.677 209.102 409.677 L200.629 409.677 C199.841 409.677 199.197 410.321 199.197 411.108 Z"/>
<path fill="#002f6c" fill-rule="evenodd" d="M202.804 419.363 C202.759 419.365 202.713 419.369 202.665 419.375 L202.804 419.363 L202.804 419.363 ZM202.804 426.277 C202.759 426.279 202.713 426.283 202.665 426.289 L202.804 426.277 L202.804 426.277 ZM203.128 429.531 C201.116 429.857 201.098 433.215 203.452 433.215 L208.679 433.215 L208.919 433.215 C209.807 433.215 210.534 433.941 210.534 434.829 L210.534 434.829 C210.534 435.718 209.807 436.444 208.919 436.444 L202.872 436.444 C202.856 436.444 202.841 436.444 202.825 436.444 C200.859 436.414 198.618 434.510 198.620 432.244 L198.620 430.495 C198.642 429.612 199.113 428.752 199.760 428.042 C199.077 427.305 198.619 426.355 198.620 425.331 L198.620 423.581 C198.671 421.523 201.164 419.588 202.627 419.381 C202.639 419.379 202.652 419.377 202.665 419.375 C202.711 419.369 202.757 419.365 202.804 419.363 L202.805 419.363 C202.827 419.363 202.849 419.362 202.872 419.362 L208.919 419.362 C209.807 419.362 210.534 420.089 210.534 420.977 L210.534 420.977 C210.534 421.865 209.807 422.591 208.919 422.591 L208.679 422.591 L203.452 422.591 C201.238 422.591 200.997 425.948 203.109 426.276 L208.919 426.276 C209.807 426.276 210.534 427.002 210.534 427.890 L210.534 427.890 L210.534 427.903 L210.534 427.916 L210.534 427.916 C210.534 428.804 209.807 429.531 208.919 429.531 L203.128 429.531 Z"/>
</g></svg>