<?xml version="1.0" encoding="UTF-8"?><svg id="b" xmlns="http://www.w3.org/2000/svg" viewBox="0 0 608.4 284.42"><g id="c"><path d="M.59,167.14L38.99,15.44C41.67,4.13,51.21,0,62.38,0h38.58c5.12,0,8.24.56,12.52,4.85,13.28,13.32,37,37.05,49.15,49.19,4.41,4.41,5.31,6.75,5.31,11.06v97.43c0,11.17-9.14,20.32-20.32,20.32H20.37c-11.17,0-19.76-7.86-19.78-15.7Z" fill="#002f6c" fill-rule="evenodd"/><path d="M63.84,72.72l51.8-.13v38.19h-34.99l30.71,29.65-28.04,27.51-35.62-35.43h0s16.14-59.79,16.14-59.79h0ZM47.7,132.51h0s0,0,0,0h0ZM.06,167.87l37.96.53,9.69-35.89h0s22.92-84.93,22.92-84.93L38.02,13.9.06,167.87Z" fill="#fff" fill-rule="evenodd"/><path d="M37.96,111.73c10.76,0,19.54-8.78,19.54-19.54s-8.78-19.54-19.54-19.54-19.54,8.78-19.54,19.54,8.78,19.54,19.54,19.54Z" fill="#ef4056" fill-rule="evenodd"/><path d="M79.05,224.49c0,.12,0,.24,0,.36v47.02c0,6.9-5.65,12.55-12.55,12.55h0c-6.9,0-12.55-5.65-12.55-12.55v-42.5c0-19.24-28.84-18.1-28.84,0v42.5c0,6.9-5.65,12.55-12.55,12.55h0c-6.9,0-12.55-5.65-12.55-12.55v-47.02c0-.17,0-.35.01-.52H.01c.02-.37.05-.73.09-1.09.01-.1.03-.2.04-.3,1.61-11.37,16.66-30.76,32.65-31.14h13.6c17.62-.02,32.42,17.4,32.65,32.69h0ZM.01,224.33l.09-1.08c-.05.37-.08.73-.09,1.08Z" fill="#002f6c" fill-rule="evenodd"/><path d="M39.62,259.24c7.63,0,13.84-6.22,13.84-13.84s-6.22-13.84-13.84-13.84-13.85,6.22-13.85,13.84,6.22,13.84,13.85,13.84Z" fill="#ef4056" fill-rule="evenodd"/><path d="M167.26,251.73c0-.12,0-.24,0-.36v-47.02c0-6.9-5.65-12.55-12.55-12.55h0c-6.9,0-12.55,5.65-12.55,12.55v42.5c0,19.24-28.84,18.1-28.84,0v-42.5c0-6.9-5.65-12.55-12.55-12.55h0c-6.9,0-12.55,5.65-12.55,12.55v47.02c0,.17,0,.35.01.52h0c.02.37.05.73.09,1.09.01.1.03.2.04.3,1.61,11.37,16.66,30.76,32.65,31.14h13.6c17.62.02,32.42-17.4,32.65-32.69h0ZM88.23,251.89l.09,1.08c-.05-.37-.08-.73-.09-1.08Z" fill="#002f6c" fill-rule="evenodd"/><path d="M256.54,224.49c0,.12,0,.24,0,.36l-.07,5.59c-.08,6.9-5.65,12.55-12.55,12.55h0c-6.9,0-12.55-5.65-12.55-12.55v-1.87l.07.8c0-19.24-28.84-18.1-28.84,0v42.5c0,6.9-5.65,12.55-12.55,12.55h0c-6.9,0-12.55-5.65-12.55-12.55v-47.02c0-.17,0-.35.01-.52h0c.02-.37.05-.73.09-1.09.01-.1.03-.2.04-.3,1.61-11.37,16.66-30.76,32.65-31.14h13.6c17.62-.02,32.42,17.4,32.65,32.69h0ZM177.51,224.33l.09-1.08c-.05.37-.08.73-.09,1.08Z" fill="#002f6c" fill-rule="evenodd"/><path d="M278.96,188.19h0c6.68,0,12.15,5.47,12.15,12.15v71.93c0,6.68-5.47,12.15-12.15,12.15h0c-6.68,0-12.15-5.47-12.15-12.15v-71.93c0-6.68,5.47-12.15,12.15-12.15Z" fill="#002f6c" fill-rule="evenodd"/><path d="M301.54,224.33c.02-.35.05-.71.09-1.08l-.09,1.08h0ZM301.54,250.55c.02.35.05.71.09,1.08l-.09-1.08h0ZM378.56,222.46c1.31-3.08.37-5.92-.7-9.01-4.03-11.61-15.73-23.01-30.6-23h-13.6c-16,.39-30.37,21.12-31.98,32.49-.01.1-.03.2-.04.3-.05.36-.08.72-.09,1.08h0c0,.18-.01.35-.01.52l.14,12.59-.14,12.59c0,.17,0,.35.01.52h0c.02.37.05.73.09,1.09.01.1.03.2.04.3,1.61,11.37,15.99,32.09,31.98,32.48h13.6c14.86.02,26.57-11.39,30.6-22.99,1.07-3.08,2.01-5.92.7-9.01-4.81-11.32-21.45-8.51-23.54-1.34-3.02,12.94-25.47,12.63-28.12-2.52,0-.15,0-.3,0-.45v-1.87l-.14-8.79.14-8.79v-1.87c0-.15,0-.3,0-.45,2.65-15.15,25.1-15.46,28.12-2.52,2.09,7.17,18.73,9.97,23.54-1.34Z" fill="#002f6c" fill-rule="evenodd"/><path d="M387.27,224.33c.02-.35.05-.71.09-1.08l-.09,1.08h0ZM466.25,224.33c-.02-.35-.05-.71-.09-1.08l.09,1.08h0ZM466.25,250.55c-.02.35-.05.71-.09,1.08l.09-1.08h0ZM387.27,250.55c.02.35.05.71.09,1.08l-.09-1.08h0ZM426.76,214.53c-6.39.28-12.8,4.14-14.14,11.8,0,.15,0,.3,0,.45v1.87l-.14,8.79.14,8.79v1.87c0,.15,0,.3,0,.45,1.34,7.66,7.74,11.52,14.14,11.8,6.39-.28,12.8-4.14,14.14-11.8,0-.15,0-.3,0-.45v-1.87l.14-8.79-.14-8.79v-1.87c0-.15,0-.3,0-.45-1.34-7.66-7.74-11.52-14.14-11.8h0ZM464.84,256.84c.63-1.75,1.06-3.41,1.28-4.91.01-.1.03-.2.04-.3.05-.36.08-.72.09-1.08h0c0-.18.01-.35.01-.52l-.14-12.59.14-12.59c0-.17,0-.35-.01-.52h0c-.02-.37-.05-.73-.09-1.09-.01-.1-.03-.2-.04-.3-.21-1.5-.65-3.16-1.28-4.91-.2-1.51-.71-3.01-1.25-4.58-3.7-10.68-13.91-21.19-27.1-22.79-.78-.11-1.56-.19-2.36-.21h-.66c-.16,0-.32,0-.48,0h-6.23s-6.23,0-6.23,0c-.16,0-.32,0-.48,0h-.66c-.79.02-1.58.09-2.36.21-13.19,1.6-23.39,12.11-27.1,22.79-.54,1.57-1.05,3.07-1.25,4.58-.63,1.75-1.06,3.41-1.28,4.91-.01.1-.03.2-.04.3-.05.36-.08.72-.09,1.08h0c0,.18-.01.35-.01.52l.14,12.59-.14,12.59c0,.17,0,.35.01.52h0c.02.37.05.73.09,1.09.01.1.03.2.04.3.21,1.5.65,3.16,1.28,4.91.2,1.51.71,3.01,1.25,4.58,3.7,10.68,13.91,21.19,27.1,22.79.78.11,1.57.19,2.36.21h.66c.16,0,.32,0,.48,0h6.23s6.23,0,6.23,0c.16,0,.32,0,.48,0h.66c.79-.02,1.57-.09,2.36-.21,13.19-1.6,23.4-12.11,27.1-22.79.54-1.57,1.05-3.08,1.25-4.58Z" fill="#002f6c" fill-rule="evenodd"/><path d="M475.6,224.33c.02-.35.05-.71.09-1.08l-.09,1.08h0ZM529.35,224.33c.02-.35.05-.71.09-1.08l-.09,1.08h0ZM554.65,226.85c2.54-15.64,28.64-15.78,28.64,2.52v42.5c0,6.9,5.65,12.55,12.55,12.55h0c6.9,0,12.55-5.65,12.55-12.55v-47.02c0-.12,0-.24,0-.36-.23-15.29-15.03-32.71-32.65-32.7h-13.6c-6.86.17-13.54,3.84-19.07,8.86-5.73-5.31-13.11-8.87-21.08-8.86h-13.6c-16,.39-31.04,19.78-32.65,31.15-.01.1-.03.2-.04.3-.05.36-.08.72-.09,1.08h0c0,.18-.01.35-.01.52v47.02c0,6.9,5.65,12.55,12.55,12.55h0c6.9,0,12.55-5.65,12.55-12.55v-42.5c0-17.22,26.1-19.09,28.64-2.67v45.17c0,6.9,5.65,12.55,12.55,12.55h.1s.1,0,.1,0h0c6.9,0,12.55-5.65,12.55-12.55v-45.02Z" fill="#002f6c" fill-rule="evenodd"/><path d="M210.62,273.08h0c.79,0,1.43.64,1.43,1.43v8.47c0,.79-.64,1.43-1.43,1.43h0c-.79,0-1.43-.64-1.43-1.43v-8.47c0-.79.64-1.43,1.43-1.43Z" fill="#002f6c" fill-rule="evenodd"/><path d="M209.73,278.9h0c0-.79.64-1.43,1.43-1.43h8.47c.79,0,1.43.64,1.43,1.43h0c0,.79-.64,1.43-1.43,1.43h-8.47c-.79,0-1.43-.64-1.43-1.43Z" fill="#002f6c" fill-rule="evenodd"/><path d="M213.34,270.65s-.09,0-.14-.01h.14ZM213.34,263.73s-.09,0-.14-.01h.14ZM213.66,260.48c-2.01-.33-2.03-3.68.32-3.68h5.47c.89,0,1.61-.73,1.61-1.61h0c0-.89-.73-1.61-1.61-1.61h-6.05s-.03,0-.05,0c-1.97.03-4.21,1.93-4.21,4.2v1.75c.02.88.49,1.74,1.14,2.45-.68.74-1.14,1.69-1.14,2.71v1.75c.05,2.06,2.54,3.99,4.01,4.2.01,0,.03,0,.04,0,.05,0,.09,0,.14.01h0s.04,0,.07,0h6.05c.89,0,1.61-.73,1.61-1.61h0c0-.89-.73-1.61-1.61-1.61h-5.47c-2.21,0-2.45-3.36-.34-3.68h5.81c.89,0,1.61-.73,1.61-1.61h0v-.03h0c0-.89-.73-1.61-1.61-1.61h-5.79Z" fill="#002f6c" fill-rule="evenodd"/></g></svg>