<svg xmlns="http://www.w3.org/2000/svg" viewBox="0 0 509.503 496.030" width="509.5" height="496.0">
<g transform="matrix(1 0 0 -1 -51.023 743.899)">
<path fill="#67b1de" fill-rule="evenodd" d="M51.023 328.828 L75.970 328.828 L140.007 328.828 L140.007 302.940 L75.970 302.940 L75.970 292.585 L140.007 292.585 L140.007 275.169 L75.970 275.169 L75.970 247.869 L51.023 247.869 L51.023 275.169 L51.023 292.585 L51.023 302.940 L51.023 328.828 L51.023 328.828 ZM497.625 328.828 L560.526 328.828 L560.526 302.940 L497.625 302.940 L497.625 247.869 L471.946 247.869 L471.946 302.940 L471.946 328.828 L497.625 328.828 L497.625 328.828 ZM536.261 275.169 L536.261 247.869 L560.526 247.869 L560.526 275.169 L536.261 275.169 L536.261 275.169 ZM399.621 328.828 L438.258 328.828 L463.229 328.828 L463.229 302.940 L463.229 247.869 L438.258 247.869 L438.258 302.940 L399.621 302.940 L399.621 275.169 L429.305 275.169 L429.305 247.869 L399.621 247.869 L376.769 247.869 L376.769 275.169 L376.769 302.940 L376.769 328.828 L399.621 328.828 L399.621 328.828 ZM278.840 275.169 L340.725 275.169 L340.725 284.112 L305.152 284.112 L278.840 284.112 L278.840 292.585 L278.840 302.940 L278.840 328.828 L305.152 328.828 L364.755 328.828 L364.755 302.940 L305.152 302.940 L305.152 292.585 L340.725 292.585 L364.755 292.585 L364.755 284.112 L364.755 275.169 L364.755 247.869 L340.725 247.869 L278.840 247.869 L278.840 275.169 L278.840 275.169 ZM244.479 328.828 L268.955 328.828 L268.955 247.869 L244.479 247.869 L244.479 328.828 L244.479 328.828 ZM236.362 302.940 L236.362 284.112 L212.001 284.112 L212.001 302.940 L173.404 302.940 L173.404 275.169 L236.362 275.169 L236.362 247.869 L173.404 247.869 L168.631 247.869 L147.045 247.869 L147.045 302.940 L147.045 328.828 L173.404 328.828 L212.001 328.828 L236.362 328.828 L236.362 302.940 Z"/>
<path fill="#67b1de" fill-rule="evenodd" d="M113.529 542.261 C113.529 436.850 199.013 351.366 304.424 351.366 C409.835 351.366 495.319 436.850 495.319 542.261 C495.319 647.672 409.835 733.155 304.424 733.155 C199.013 733.155 113.529 647.672 113.529 542.261 Z"/>
<path fill="#ffffff" fill-rule="evenodd" d="M298.746 731.409 L238.008 512.052 C226.717 471.255 224.685 463.918 177.229 463.918 L130.784 463.918 C146.116 418.769 181.035 387.000 220.871 372.685 L294.806 639.726 C306.820 683.209 367.459 692.169 417.024 688.642 C406.298 706.884 379.974 720.865 351.889 734.366 L298.746 731.409 Z"/>
<path fill="#ffffff" fill-rule="evenodd" d="M455.155 655.329 L389.962 655.329 C316.379 655.329 306.014 617.879 290.038 560.163 L236.022 364.804 L256.647 358.145 L299.864 514.484 C309.404 548.997 325.256 560.163 358.462 560.163 C402.665 560.163 446.869 560.163 491.072 560.163 C493.743 598.587 482.840 626.334 455.155 655.329 Z"/>
<path fill="#fbd327" fill-rule="evenodd" d="M494.861 524.637 C470.669 396.328 387.930 341.617 272.365 354.812 L308.465 485.237 C314.377 506.596 332.208 524.637 359.329 524.637 L494.861 524.637 Z"/>
<path fill="#67b1de" fill-rule="evenodd" d="M304.424 340.623 C193.081 340.623 102.786 430.918 102.786 542.261 C102.786 653.604 193.081 743.899 304.424 743.899 C415.767 743.899 506.062 653.604 506.062 542.261 C506.062 430.918 415.767 340.623 304.424 340.623 L304.424 340.623 ZM304.424 357.583 C406.402 357.583 489.102 440.283 489.102 542.261 C489.102 644.239 406.402 726.938 304.424 726.938 C202.446 726.938 119.746 644.239 119.746 542.261 C119.746 440.283 202.446 357.583 304.424 357.583 Z"/>
</g></svg>