<svg xmlns="http://www.w3.org/2000/svg" viewBox="0 0 386.405 328.638" width="386.4" height="328.6">
<g transform="matrix(1 0 0 -1 -87.219 698.972)">
<path fill="#e53379" fill-rule="evenodd" d="M177.355 633.245 L273.465 633.245 L273.465 578.679 L177.355 578.679 L177.355 633.245 Z"/>
<path fill="#ffbc61" fill-rule="evenodd" d="M88.065 698.972 L140.151 698.972 L273.465 698.972 L273.465 645.026 L140.151 645.026 L140.151 565.658 L302.349 565.658 L381.719 645.026 L286.487 645.026 L286.487 698.972 L419.181 698.972 L473.126 698.972 L473.126 645.026 L473.126 512.332 L419.181 512.332 L419.181 606.582 L324.930 512.332 L88.065 512.332 L88.065 547.676 L88.065 565.658 L88.065 645.026 L88.065 698.972 Z"/>
<path fill="#000000" fill-rule="evenodd" d="M87.219 500.138 L160.321 500.138 L160.321 481.863 L105.729 481.863 L105.729 454.914 L139.992 454.914 L139.992 459.251 L109.915 459.251 L109.915 476.597 L139.992 476.597 L152.549 476.597 L160.321 476.597 L160.321 454.914 L160.321 446.086 L160.321 437.258 L105.729 437.258 L87.219 437.258 L87.219 454.914 L87.219 481.863 L87.219 491.001 L87.219 500.138 L87.219 500.138 ZM423.393 415.050 L423.393 409.926 L455.330 409.926 L473.624 409.926 L473.624 392.071 L473.624 387.723 L473.624 374.216 L473.624 370.334 L405.647 370.334 L405.647 387.723 L455.330 387.723 L455.330 392.071 L423.393 392.071 L405.647 392.071 L405.647 409.926 L405.647 415.050 L405.647 423.521 L405.647 431.992 L473.624 431.992 L473.624 415.050 L423.393 415.050 L423.393 415.050 ZM383.655 431.992 L401.620 431.992 L401.620 409.926 L401.620 392.071 L401.620 370.334 L383.655 370.334 L383.655 392.071 L330.996 392.071 L313.031 392.071 L313.031 409.926 L313.031 431.992 L330.996 431.992 L330.996 409.926 L383.655 409.926 L383.655 431.992 L383.655 431.992 ZM455.330 500.138 L473.624 500.138 L473.624 437.258 L455.330 437.258 L455.330 500.138 L455.330 500.138 ZM419.594 500.138 L401.620 481.862 L401.620 500.138 L383.655 500.138 L383.655 454.914 L383.655 437.258 L401.620 437.258 L450.214 437.258 L450.214 454.914 L401.620 454.914 L401.620 459.212 L424.481 481.863 L450.214 481.863 L450.214 500.138 L419.594 500.138 L419.594 500.138 ZM330.996 454.914 L379.628 454.914 L379.628 436.887 L313.031 436.887 L313.031 437.258 L313.031 454.914 L313.031 459.251 L313.031 476.597 L313.031 481.863 L313.031 500.138 L330.996 500.138 L379.628 500.138 L379.628 481.863 L330.996 481.863 L330.996 476.597 L379.628 476.597 L379.628 459.251 L330.996 459.251 L330.996 454.914 L330.996 454.914 ZM286.034 481.863 L286.034 437.258 L268.204 437.258 L268.204 481.863 L241.167 481.863 L241.167 500.138 L268.204 500.138 L286.034 500.138 L309.004 500.138 L309.004 481.863 L286.034 481.863 L286.034 481.863 ZM182.004 500.138 L218.864 500.138 L236.831 500.138 L236.831 481.863 L236.831 454.914 L236.831 437.258 L218.864 437.258 L182.004 437.258 L164.658 437.258 L164.658 454.914 L164.658 481.863 L164.658 500.138 L182.004 500.138 L182.004 500.138 ZM218.864 481.863 L182.004 481.863 L182.004 454.914 L218.864 454.914 L218.864 481.863 Z"/>
</g></svg>