<svg xmlns="http://www.w3.org/2000/svg" viewBox="0 0 489.725 372.205" width="489.7" height="372.2">
<g transform="matrix(1 0 0 -1 -65.605 777.926)">
<path fill="#b53c19" fill-rule="evenodd" d="M310.543 777.926 L310.544 777.926 C324.555 777.926 336.017 766.464 336.017 752.453 L336.017 537.690 C336.017 523.679 324.555 512.216 310.544 512.216 L310.543 512.216 C296.532 512.216 285.070 523.679 285.070 537.690 L285.070 752.453 C285.070 766.464 296.532 777.926 310.543 777.926 Z"/>
<path fill="#d68bad" fill-rule="evenodd" d="M162.596 664.959 L221.514 664.959 L221.514 674.356 L163.098 674.356 C146.982 674.356 133.796 687.542 133.796 703.658 L133.796 703.658 C133.796 719.774 146.982 732.960 163.098 732.960 L163.580 732.960 L248.231 732.960 L248.714 732.960 C248.965 732.960 249.214 732.956 249.463 732.949 L249.465 732.949 C249.715 732.943 249.963 732.934 250.211 732.921 L250.215 732.920 C250.462 732.908 250.707 732.892 250.952 732.873 L250.958 732.873 C251.696 732.816 252.426 732.732 253.147 732.621 L253.159 732.619 C253.637 732.546 254.112 732.461 254.583 732.365 L254.599 732.361 C255.074 732.263 255.545 732.152 256.012 732.031 C256.239 731.972 256.464 731.912 256.689 731.847 L256.709 731.842 C256.933 731.778 257.156 731.711 257.378 731.643 L257.400 731.636 C257.621 731.567 257.840 731.494 258.059 731.420 C258.656 731.218 259.243 730.996 259.822 730.757 L260.061 730.659 L260.090 730.647 C260.298 730.558 260.505 730.466 260.711 730.373 C261.142 730.178 261.568 729.972 261.987 729.757 C262.187 729.654 262.386 729.551 262.583 729.444 L162.596 664.959 L162.596 664.959 ZM262.583 729.444 L162.596 664.959 C146.756 664.959 133.796 652.000 133.796 636.159 L133.796 568.159 C133.796 552.319 146.756 539.360 162.596 539.360 L249.216 539.360 C265.057 539.360 278.016 552.319 278.016 568.159 L278.016 596.829 L278.016 636.159 L278.016 703.658 L278.016 703.793 L278.014 703.793 C277.972 712.822 273.793 720.920 267.282 726.280 L267.251 726.304 C267.080 726.444 266.909 726.582 266.735 726.718 L266.691 726.751 C266.521 726.884 266.350 727.015 266.177 727.145 L266.109 727.195 C265.757 727.456 265.399 727.711 265.036 727.957 L265.026 727.964 C264.844 728.086 264.659 728.206 264.475 728.325 L264.436 728.349 L264.309 728.429 C264.154 728.528 263.998 728.626 263.840 728.722 L263.818 728.735 C263.423 728.974 263.022 729.206 262.615 729.427 L262.583 729.444 L262.583 729.444 ZM278.016 703.658 L278.016 703.658 Z"/>
<path fill="#a51251" fill-rule="evenodd" d="M458.397 664.959 L399.479 664.959 L399.479 674.356 L457.895 674.356 C474.011 674.356 487.197 687.542 487.197 703.658 L487.197 703.658 C487.197 719.774 474.011 732.960 457.895 732.960 L457.412 732.960 L372.762 732.960 L372.279 732.960 C372.027 732.960 371.778 732.956 371.529 732.949 L371.527 732.949 C371.278 732.943 371.030 732.934 370.782 732.921 L370.778 732.920 C370.531 732.908 370.286 732.892 370.041 732.873 L370.035 732.873 C369.297 732.816 368.567 732.732 367.845 732.621 L367.834 732.619 C367.356 732.546 366.881 732.461 366.410 732.365 L366.394 732.361 C365.918 732.263 365.448 732.152 364.980 732.031 C364.754 731.972 364.528 731.912 364.304 731.847 L364.283 731.842 C364.060 731.778 363.836 731.711 363.615 731.643 L363.592 731.636 C363.371 731.567 363.152 731.494 362.933 731.420 C362.337 731.218 361.750 730.996 361.171 730.757 L360.932 730.659 L360.903 730.647 C360.694 730.558 360.488 730.466 360.281 730.373 C359.851 730.178 359.425 729.972 359.005 729.757 C358.806 729.654 358.607 729.551 358.410 729.444 L458.397 664.959 L458.397 664.959 ZM358.410 729.444 L458.397 664.959 C474.237 664.959 487.196 652.000 487.196 636.159 L487.196 568.159 C487.196 552.319 474.237 539.360 458.397 539.360 L371.776 539.360 C355.936 539.360 342.977 552.319 342.977 568.159 L342.977 596.829 L342.977 636.159 L342.977 703.658 L342.977 703.793 L342.979 703.793 C343.021 712.822 347.200 720.920 353.711 726.280 L353.742 726.304 C353.912 726.444 354.084 726.582 354.258 726.718 L354.302 726.751 C354.472 726.884 354.643 727.015 354.815 727.145 L354.884 727.195 C355.236 727.456 355.594 727.711 355.957 727.957 L355.967 727.964 C356.149 728.086 356.333 728.206 356.518 728.325 L356.556 728.349 L356.683 728.429 C356.839 728.528 356.995 728.626 357.153 728.722 L357.174 728.735 C357.570 728.974 357.970 729.206 358.377 729.427 L358.410 729.444 L358.410 729.444 ZM342.977 703.658 L342.977 703.658 Z"/>
<path fill="#a51251" fill-rule="evenodd" d="M125.988 434.203 L155.377 433.938 C163.137 433.868 169.486 427.589 169.486 419.829 L169.486 419.829 C169.486 412.069 163.137 405.651 155.377 405.721 L111.879 406.113 C105.089 406.113 99.378 410.975 98.058 417.389 L98.058 417.391 C98.034 417.505 98.011 417.620 97.990 417.735 L97.990 417.737 L97.933 418.082 L97.933 418.083 L97.883 418.433 L97.883 418.434 L97.843 418.785 L97.843 418.786 L97.811 419.142 L97.811 419.142 L97.788 419.500 L97.775 419.860 L97.771 420.221 L97.771 489.042 C97.750 489.353 97.739 489.664 97.739 489.980 L97.739 489.980 C97.739 497.740 104.088 504.158 111.848 504.089 L111.865 504.089 L111.879 504.089 L111.879 504.089 L111.987 504.087 L155.346 503.696 C163.106 503.627 169.454 497.348 169.454 489.588 L169.454 489.588 C169.454 481.828 163.105 475.409 155.346 475.479 L125.988 475.744 L125.988 434.203 Z"/>
<path fill="#a51251" fill-rule="evenodd" d="M264.507 489.980 L264.507 489.980 Z"/>
<path fill="#a51251" fill-rule="evenodd" d="M200.193 434.044 L236.290 434.044 L236.290 475.872 L186.123 475.872 C178.365 475.872 172.015 482.220 172.015 489.980 L172.015 489.980 C172.015 497.740 178.363 504.158 186.123 504.089 L250.398 504.089 C258.158 504.089 264.507 497.740 264.507 489.980 L264.507 420.221 C264.507 417.306 263.608 414.590 262.078 412.335 C259.564 408.405 255.173 405.782 250.199 405.827 L185.925 405.827 C178.236 405.827 171.931 412.063 171.818 419.730 C171.814 419.893 171.813 420.057 171.814 420.221 L172.206 453.715 C172.297 461.476 178.555 467.824 186.315 467.824 L186.315 467.824 C194.075 467.824 200.493 461.475 200.423 453.715 L200.193 434.044 Z"/>
<path fill="#a51251" fill-rule="evenodd" d="M297.109 475.872 L297.109 420.221 C297.109 412.461 290.760 406.113 283.000 406.113 L283.000 406.113 C275.240 406.113 268.891 412.461 268.891 420.221 L268.891 488.876 C268.863 489.241 268.849 489.608 268.849 489.980 L268.849 489.980 C268.849 497.740 275.197 504.158 282.957 504.089 L283.000 504.089 L347.232 504.089 C354.992 504.089 361.341 497.740 361.341 489.980 L361.341 489.980 C361.341 482.220 354.991 475.801 347.232 475.872 L297.109 475.872 Z"/>
<path fill="#a51251" fill-rule="evenodd" d="M456.488 489.980 L456.488 489.980 Z"/>
<path fill="#a51251" fill-rule="evenodd" d="M392.174 434.044 L428.271 434.044 L428.271 475.872 L378.104 475.872 C370.346 475.872 363.996 482.220 363.996 489.980 L363.996 489.980 C363.996 497.740 370.344 504.158 378.104 504.089 L442.379 504.089 C450.139 504.089 456.488 497.740 456.488 489.980 L456.488 420.221 C456.488 417.306 455.589 414.590 454.059 412.335 C451.545 408.405 447.153 405.782 442.180 405.827 L377.906 405.827 C370.217 405.827 363.911 412.063 363.799 419.730 C363.795 419.893 363.794 420.057 363.795 420.221 L364.187 453.715 C364.279 461.476 370.536 467.824 378.296 467.824 L378.296 467.824 C386.056 467.824 392.475 461.475 392.404 453.715 L392.174 434.044 Z"/>
<path fill="#a51251" fill-rule="evenodd" d="M460.317 420.221 L460.317 420.221 C460.317 427.982 466.811 434.399 474.749 434.330 L526.882 434.330 L526.952 440.422 L475.318 440.422 L475.179 440.424 L475.043 440.422 L475.043 440.422 C471.851 440.422 468.885 441.534 466.504 443.396 C463.111 445.983 460.920 450.017 460.920 454.531 L460.920 454.531 C460.920 454.776 460.926 455.019 460.938 455.261 L461.327 489.533 L461.331 489.686 L461.327 489.980 L461.327 489.980 C461.327 497.740 467.675 504.158 475.436 504.089 L475.436 504.089 L539.711 504.089 C547.471 504.089 553.819 497.740 553.819 489.980 L553.819 489.980 C553.819 482.220 547.470 475.801 539.711 475.872 L489.389 475.872 L489.307 468.639 L540.915 468.639 L541.069 468.637 L541.221 468.639 L541.221 468.639 C548.982 468.639 555.400 462.206 555.330 454.344 L554.937 420.408 L554.933 420.257 L554.934 420.221 L554.934 420.221 C554.934 415.964 552.977 412.112 549.901 409.512 C547.451 407.396 544.290 406.113 540.829 406.113 L540.829 406.113 L540.741 406.114 L540.501 406.113 L474.749 406.113 C466.813 406.113 460.317 412.461 460.317 420.221 Z"/>
<path fill="#b53c19" fill-rule="evenodd" d="M79.713 504.089 L79.713 504.089 C87.473 504.089 93.822 497.740 93.822 489.980 L93.822 420.221 C93.822 412.461 87.473 406.113 79.713 406.113 L79.713 406.113 C71.953 406.113 65.605 412.461 65.605 420.221 L65.605 489.980 C65.605 497.740 71.953 504.089 79.713 504.089 Z"/>
<path fill="#a51251" fill-rule="evenodd" d="M305.615 413.686 L311.807 413.686 C313.006 413.686 313.987 412.705 313.987 411.505 L313.987 411.505 C313.987 410.307 313.006 409.325 311.807 409.325 L305.615 409.325 L305.615 408.293 C305.615 407.094 304.634 406.113 303.435 406.113 L303.435 406.113 C302.236 406.113 301.255 407.094 301.255 408.293 L301.255 414.575 C301.255 415.774 302.236 416.755 303.435 416.755 L303.435 416.755 C304.634 416.755 305.615 415.774 305.615 414.575 L305.615 413.686 Z"/>
<path fill="#a51251" fill-rule="evenodd" d="M306.358 424.185 L311.843 424.185 C313.042 424.185 314.023 423.204 314.023 422.005 L314.023 422.005 C314.023 420.806 313.042 419.825 311.843 419.825 L305.561 419.825 C304.612 419.825 301.998 420.474 301.998 422.702 L301.998 428.984 C301.998 429.062 302.003 429.139 302.011 429.215 L302.011 431.864 C302.011 434.044 304.076 435.029 305.712 435.029 L311.994 435.029 C313.193 435.029 314.174 434.048 314.174 432.849 L314.174 432.849 C314.174 431.649 313.193 430.669 311.994 430.669 L306.372 430.669 L306.372 429.705 L311.843 429.705 C313.042 429.705 314.023 428.724 314.023 427.525 L314.023 427.525 C314.023 426.326 313.042 425.344 311.843 425.344 L306.359 425.344 L306.358 425.339 L306.358 424.185 Z"/>
</g></svg>