<svg xmlns="http://www.w3.org/2000/svg" viewBox="0 0 661.823 328.848" width="661.8" height="328.8">
<g transform="matrix(1 0 0 -1 27.294 560.608)">
<path fill="#e20a16" fill-rule="evenodd" d="M-27.294 231.760 L634.529 231.760 L634.529 560.608 L-27.294 560.608 L-27.294 231.760 Z"/>
<path fill="#ffa700" fill-rule="evenodd" d="M3.498 531.481 L181.044 531.481 L279.565 358.952 L102.019 358.950 L3.498 531.481 Z"/>
<path fill="#ffa700" fill-rule="evenodd" d="M279.564 531.481 L508.947 531.481 L607.468 358.950 L279.565 358.952 L279.564 531.481 Z"/>
<path fill="#ffa700" fill-rule="evenodd" d="M302.265 340.110 C302.931 339.230 303.415 338.254 303.719 337.182 C304.023 336.110 304.132 334.818 304.045 333.306 C303.987 332.701 303.886 332.144 303.741 331.636 C303.596 331.127 303.423 330.653 303.220 330.213 C303.162 330.103 303.111 330.000 303.068 329.904 C303.025 329.808 302.974 329.705 302.916 329.595 C302.800 329.402 302.692 329.217 302.591 329.038 C302.489 328.859 302.366 328.688 302.221 328.523 C301.643 327.753 300.940 327.127 300.116 326.646 C299.291 326.165 298.358 325.760 297.316 325.430 C296.997 325.320 296.664 325.251 296.317 325.224 C295.970 325.196 295.622 325.141 295.275 325.059 C295.101 325.031 294.928 325.018 294.754 325.018 C294.580 325.018 294.407 325.004 294.233 324.976 L292.453 324.976 L288.806 324.976 C288.430 324.976 288.032 324.976 287.612 324.976 C287.192 324.976 286.867 324.894 286.635 324.729 C286.346 324.537 286.201 324.200 286.201 323.719 C286.201 323.238 286.201 322.763 286.201 322.296 L286.201 316.853 C286.201 316.523 286.209 316.166 286.223 315.781 C286.237 315.396 286.172 315.094 286.027 314.874 C285.912 314.681 285.651 314.530 285.246 314.420 C285.043 314.365 284.826 314.351 284.595 314.379 C284.363 314.406 284.132 314.420 283.900 314.420 L281.382 314.420 C281.064 314.420 280.767 314.427 280.492 314.440 C280.217 314.454 279.993 314.530 279.819 314.667 C279.645 314.805 279.544 315.018 279.515 315.306 C279.486 315.595 279.472 315.891 279.472 316.193 L279.472 340.852 C279.472 341.237 279.464 341.691 279.450 342.213 C279.435 342.735 279.501 343.106 279.645 343.326 C279.761 343.491 279.978 343.629 280.297 343.739 C280.354 343.766 280.420 343.773 280.492 343.760 C280.564 343.746 280.630 343.753 280.688 343.780 L293.235 343.780 C293.495 343.780 293.755 343.787 294.016 343.801 C294.276 343.815 294.522 343.794 294.754 343.739 L294.971 343.739 C295.116 343.684 295.275 343.656 295.449 343.656 C295.622 343.656 295.782 343.629 295.926 343.574 C296.071 343.546 296.201 343.533 296.317 343.533 C296.433 343.533 296.563 343.505 296.708 343.450 C297.171 343.313 297.634 343.182 298.097 343.058 C298.560 342.935 298.994 342.763 299.399 342.543 C299.544 342.433 299.703 342.337 299.877 342.254 C300.051 342.172 300.224 342.062 300.398 341.924 C300.543 341.842 300.666 341.752 300.767 341.656 C300.868 341.560 300.991 341.457 301.136 341.347 L301.397 341.100 C301.744 340.770 302.034 340.440 302.265 340.110 L302.265 340.110 ZM297.489 333.347 C297.547 333.650 297.569 334.028 297.555 334.481 C297.540 334.935 297.489 335.313 297.402 335.615 C297.229 336.220 297.012 336.701 296.751 337.059 C296.491 337.416 296.100 337.746 295.579 338.048 C295.145 338.296 294.609 338.481 293.972 338.605 C293.336 338.728 292.648 338.804 291.910 338.832 C291.172 338.859 290.413 338.866 289.631 338.852 C288.849 338.839 288.111 338.832 287.417 338.832 C287.330 338.804 287.250 338.784 287.178 338.770 C287.105 338.756 287.026 338.749 286.939 338.749 C286.650 338.639 286.462 338.474 286.375 338.254 C286.259 338.034 286.201 337.739 286.201 337.368 C286.201 336.997 286.201 336.660 286.201 336.358 L286.201 332.440 C286.201 332.110 286.201 331.746 286.201 331.347 C286.201 330.949 286.273 330.639 286.418 330.420 C286.534 330.255 286.708 330.131 286.939 330.048 C287.171 329.966 287.431 329.918 287.721 329.904 C288.010 329.890 288.321 329.890 288.654 329.904 C288.987 329.918 289.298 329.925 289.588 329.925 C291.122 329.925 292.525 329.993 293.799 330.131 C295.072 330.268 296.042 330.749 296.708 331.574 C296.882 331.822 297.026 332.089 297.142 332.378 C297.258 332.667 297.374 332.990 297.489 333.347 L297.489 333.347 ZM309.559 343.739 L313.292 343.739 C313.611 343.739 313.915 343.732 314.204 343.718 C314.494 343.704 314.711 343.601 314.855 343.409 C315.000 343.216 315.080 342.969 315.094 342.667 C315.109 342.364 315.116 342.034 315.116 341.677 L315.116 338.089 L315.116 323.781 L315.116 317.018 C315.116 316.660 315.123 316.262 315.138 315.822 C315.152 315.382 315.087 315.052 314.942 314.832 C314.827 314.640 314.566 314.489 314.161 314.379 C313.958 314.324 313.741 314.310 313.510 314.337 C313.278 314.365 313.046 314.379 312.815 314.379 L310.253 314.379 C309.935 314.379 309.639 314.392 309.363 314.420 C309.088 314.447 308.864 314.530 308.690 314.667 C308.546 314.805 308.459 315.011 308.430 315.286 C308.401 315.561 308.387 315.849 308.387 316.152 L308.387 319.739 L308.387 334.791 L308.387 340.811 C308.387 341.196 308.379 341.649 308.365 342.172 C308.351 342.694 308.415 343.065 308.560 343.285 C308.676 343.450 308.864 343.588 309.125 343.698 C309.211 343.698 309.291 343.704 309.363 343.718 C309.436 343.732 309.501 343.739 309.559 343.739 L309.559 343.739 ZM347.330 315.327 C347.388 315.162 347.381 315.011 347.309 314.874 C347.236 314.736 347.156 314.640 347.070 314.585 C346.896 314.447 346.657 314.385 346.353 314.399 C346.050 314.413 345.738 314.420 345.420 314.420 L343.032 314.420 C342.569 314.420 342.164 314.440 341.816 314.482 C341.469 314.523 341.209 314.681 341.035 314.956 C340.803 315.313 340.673 315.753 340.644 316.276 C340.616 316.798 340.543 317.293 340.427 317.760 C340.427 317.870 340.420 317.973 340.405 318.069 C340.391 318.165 340.384 318.255 340.384 318.337 C340.297 318.667 340.253 319.018 340.253 319.389 C340.253 319.760 340.224 320.097 340.167 320.399 C340.138 320.482 340.123 320.605 340.123 320.770 C340.065 321.073 340.015 321.382 339.971 321.698 C339.928 322.014 339.863 322.324 339.776 322.626 C339.544 323.258 339.269 323.822 338.951 324.317 C338.632 324.811 338.184 325.183 337.605 325.430 C337.461 325.485 337.316 325.526 337.171 325.554 C337.026 325.581 336.867 325.622 336.693 325.677 C336.173 325.842 335.572 325.925 334.892 325.925 C334.211 325.925 333.539 325.925 332.873 325.925 L329.313 325.925 C329.081 325.870 328.879 325.829 328.705 325.801 C328.531 325.774 328.387 325.691 328.271 325.554 C328.039 325.279 327.938 324.853 327.967 324.275 C327.996 323.698 328.010 323.176 328.010 322.708 L328.010 317.430 C328.010 317.210 328.003 316.983 327.988 316.750 C327.974 316.516 327.967 316.289 327.967 316.069 C327.967 315.849 327.967 315.650 327.967 315.471 C327.967 315.293 327.938 315.135 327.880 314.997 C327.793 314.750 327.620 314.585 327.359 314.502 C327.214 314.447 327.041 314.420 326.838 314.420 C326.636 314.420 326.418 314.420 326.187 314.420 L324.233 314.420 C323.770 314.420 323.278 314.413 322.757 314.399 C322.236 314.385 321.845 314.475 321.585 314.667 C321.353 314.805 321.238 315.059 321.238 315.430 C321.238 315.801 321.238 316.166 321.238 316.523 L321.238 341.595 C321.238 341.897 321.230 342.213 321.216 342.543 C321.201 342.873 321.267 343.134 321.411 343.326 C321.527 343.491 321.744 343.629 322.062 343.739 C322.120 343.766 322.185 343.773 322.258 343.760 C322.330 343.746 322.395 343.753 322.453 343.780 L337.214 343.780 C337.677 343.780 338.119 343.773 338.539 343.760 C338.958 343.746 339.356 343.698 339.733 343.615 C339.877 343.560 340.029 343.533 340.188 343.533 C340.347 343.533 340.500 343.505 340.644 343.450 C340.847 343.395 341.049 343.340 341.252 343.285 C341.455 343.230 341.657 343.161 341.860 343.079 C342.583 342.777 343.249 342.405 343.857 341.966 C344.465 341.526 344.971 341.017 345.377 340.440 C345.492 340.302 345.586 340.158 345.659 340.007 C345.731 339.856 345.825 339.711 345.941 339.574 C346.173 339.189 346.346 338.790 346.462 338.378 C346.578 337.966 346.708 337.512 346.853 337.017 C346.882 336.907 346.889 336.797 346.875 336.687 C346.860 336.577 346.882 336.468 346.939 336.358 L346.939 335.986 C346.998 335.766 347.012 335.498 346.983 335.182 C346.954 334.866 346.911 334.612 346.853 334.419 C346.795 334.200 346.766 334.000 346.766 333.822 C346.766 333.643 346.737 333.457 346.679 333.265 C346.534 332.852 346.389 332.461 346.245 332.089 C346.100 331.719 345.912 331.368 345.680 331.038 C345.622 330.956 345.550 330.866 345.463 330.770 C345.377 330.674 345.304 330.584 345.247 330.502 C345.159 330.392 345.065 330.282 344.964 330.172 C344.863 330.062 344.754 329.966 344.639 329.883 C344.465 329.746 344.291 329.609 344.118 329.471 C343.944 329.334 343.756 329.196 343.553 329.059 C343.437 328.976 343.322 328.887 343.206 328.791 C343.090 328.695 343.003 328.578 342.945 328.440 C342.887 328.275 342.916 328.138 343.032 328.028 C343.148 327.918 343.249 327.835 343.336 327.780 C343.626 327.561 343.915 327.341 344.204 327.121 C344.494 326.901 344.740 326.640 344.942 326.337 C345.290 325.870 345.565 325.389 345.767 324.894 C345.970 324.399 346.158 323.836 346.332 323.203 C346.389 322.956 346.426 322.695 346.440 322.420 C346.455 322.145 346.491 321.884 346.549 321.636 C346.549 321.471 346.556 321.313 346.570 321.162 C346.585 321.011 346.592 320.853 346.592 320.688 C346.621 320.578 346.628 320.461 346.614 320.337 C346.599 320.214 346.607 320.083 346.636 319.946 C346.665 319.836 346.672 319.726 346.657 319.616 C346.643 319.506 346.650 319.382 346.679 319.245 C346.737 318.970 346.766 318.681 346.766 318.379 C346.766 318.076 346.795 317.788 346.853 317.513 L346.983 316.770 C347.041 316.523 347.099 316.276 347.156 316.028 C347.214 315.781 347.272 315.547 347.330 315.327 L347.330 315.327 ZM340.167 333.925 C340.224 334.227 340.232 334.598 340.188 335.038 C340.145 335.478 340.094 335.808 340.036 336.028 C339.979 336.138 339.950 336.234 339.950 336.316 C339.950 336.399 339.921 336.481 339.863 336.564 C339.515 337.416 338.879 338.034 337.952 338.419 C337.461 338.639 336.896 338.763 336.259 338.790 C335.622 338.818 334.957 338.832 334.262 338.832 L329.226 338.832 C329.168 338.777 329.110 338.756 329.053 338.770 C328.995 338.784 328.937 338.790 328.879 338.790 C328.531 338.708 328.300 338.571 328.184 338.378 C328.039 338.158 327.974 337.876 327.988 337.533 C328.003 337.189 328.010 336.852 328.010 336.522 L328.010 332.688 C328.010 332.358 328.010 332.028 328.010 331.698 C328.010 331.368 328.083 331.107 328.228 330.914 C328.343 330.749 328.531 330.639 328.792 330.584 C329.053 330.530 329.342 330.488 329.660 330.461 C329.979 330.433 330.311 330.426 330.659 330.440 C331.006 330.454 331.310 330.461 331.570 330.461 L334.132 330.461 C334.335 330.461 334.552 330.454 334.783 330.440 C335.015 330.426 335.217 330.447 335.391 330.502 L335.955 330.502 C336.187 330.557 336.411 330.584 336.628 330.584 C336.846 330.584 337.055 330.612 337.258 330.667 C337.750 330.804 338.184 330.983 338.560 331.203 C338.937 331.423 339.255 331.712 339.515 332.069 C339.689 332.316 339.820 332.591 339.906 332.894 C339.993 333.196 340.080 333.540 340.167 333.925 L340.167 333.925 ZM378.807 316.358 C378.836 316.248 378.886 316.111 378.959 315.946 C379.031 315.781 379.089 315.609 379.132 315.430 C379.175 315.251 379.183 315.080 379.154 314.915 C379.125 314.750 379.024 314.626 378.850 314.544 C378.618 314.406 378.235 314.351 377.700 314.379 C377.164 314.406 376.723 314.420 376.375 314.420 L374.335 314.420 C374.103 314.420 373.893 314.413 373.705 314.399 C373.517 314.385 373.336 314.406 373.162 314.461 C372.844 314.544 372.613 314.709 372.468 314.956 C372.323 315.176 372.214 315.410 372.142 315.657 C372.070 315.904 371.976 316.152 371.860 316.399 C371.715 316.839 371.563 317.279 371.404 317.719 C371.245 318.159 371.079 318.585 370.905 318.997 C370.818 319.245 370.738 319.471 370.666 319.677 C370.594 319.884 370.514 320.069 370.428 320.234 C370.341 320.399 370.210 320.543 370.037 320.667 C369.863 320.791 369.632 320.880 369.342 320.935 C369.197 320.935 369.060 320.942 368.930 320.956 C368.799 320.969 368.662 320.977 368.517 320.977 L361.657 320.977 C361.166 320.977 360.637 320.983 360.073 320.997 C359.508 321.011 359.067 320.908 358.749 320.688 C358.517 320.523 358.358 320.303 358.271 320.028 C358.184 319.753 358.083 319.478 357.967 319.203 C357.735 318.736 357.540 318.248 357.381 317.739 C357.222 317.231 357.041 316.729 356.838 316.234 C356.723 315.959 356.614 315.671 356.513 315.368 C356.411 315.066 356.245 314.832 356.013 314.667 C355.869 314.557 355.659 314.482 355.384 314.440 C355.109 314.399 354.805 314.379 354.472 314.379 C354.139 314.379 353.799 314.385 353.452 314.399 C353.104 314.413 352.801 314.420 352.540 314.420 C352.164 314.420 351.708 314.413 351.173 314.399 C350.637 314.385 350.254 314.447 350.022 314.585 C349.877 314.667 349.798 314.791 349.783 314.956 C349.769 315.121 349.783 315.293 349.827 315.471 C349.870 315.650 349.921 315.822 349.979 315.987 C350.036 316.152 350.094 316.289 350.152 316.399 C350.442 317.032 350.709 317.678 350.955 318.337 C351.202 318.997 351.455 319.643 351.715 320.275 C351.831 320.495 351.918 320.715 351.976 320.935 C352.034 321.155 352.120 321.375 352.236 321.595 C352.468 322.172 352.699 322.763 352.931 323.368 C353.162 323.973 353.394 324.564 353.625 325.141 C353.857 325.691 354.074 326.234 354.277 326.770 C354.479 327.306 354.696 327.849 354.928 328.399 C355.594 329.911 356.209 331.437 356.773 332.976 C357.338 334.516 357.953 336.041 358.618 337.553 C358.676 337.691 358.720 337.815 358.749 337.925 C358.778 338.034 358.821 338.158 358.879 338.296 C359.111 338.873 359.342 339.464 359.574 340.069 C359.805 340.674 360.051 341.265 360.312 341.842 C360.456 342.144 360.579 342.454 360.681 342.770 C360.782 343.086 360.963 343.340 361.223 343.533 C361.368 343.615 361.556 343.684 361.788 343.739 C361.846 343.766 361.904 343.773 361.962 343.760 C362.019 343.746 362.077 343.753 362.135 343.780 L365.956 343.780 C366.274 343.780 366.600 343.787 366.932 343.801 C367.265 343.815 367.533 343.753 367.736 343.615 C368.054 343.450 368.264 343.209 368.365 342.894 C368.466 342.577 368.589 342.254 368.734 341.924 C368.937 341.457 369.125 340.997 369.298 340.543 C369.472 340.089 369.661 339.629 369.863 339.162 C369.921 338.997 369.978 338.832 370.037 338.667 C370.094 338.502 370.152 338.337 370.210 338.172 C370.442 337.622 370.659 337.079 370.861 336.543 C371.064 336.007 371.281 335.464 371.513 334.914 C372.092 333.540 372.634 332.151 373.141 330.749 C373.647 329.347 374.205 327.959 374.812 326.585 C374.870 326.475 374.906 326.372 374.921 326.275 C374.935 326.179 374.972 326.076 375.030 325.966 C375.203 325.526 375.377 325.086 375.550 324.647 C375.724 324.207 375.898 323.767 376.071 323.327 C376.187 323.107 376.274 322.894 376.332 322.688 C376.390 322.481 376.462 322.269 376.549 322.049 C376.925 321.169 377.273 320.289 377.591 319.410 C377.909 318.530 378.257 317.664 378.633 316.812 C378.691 316.729 378.720 316.653 378.720 316.585 C378.720 316.516 378.749 316.441 378.807 316.358 L378.807 316.358 ZM367.562 325.801 C367.938 325.939 368.112 326.172 368.083 326.502 C368.054 326.832 367.967 327.148 367.822 327.451 C367.764 327.561 367.736 327.663 367.736 327.760 C367.736 327.856 367.707 327.959 367.649 328.069 C367.273 329.004 366.925 329.952 366.607 330.914 C366.288 331.877 365.927 332.839 365.521 333.801 C365.464 333.938 365.406 334.110 365.348 334.316 C365.290 334.522 365.217 334.715 365.131 334.894 C365.044 335.072 364.943 335.230 364.827 335.368 C364.711 335.505 364.566 335.574 364.393 335.574 C364.335 335.519 364.277 335.478 364.219 335.450 C364.161 335.423 364.103 335.382 364.045 335.327 C363.814 335.052 363.647 334.722 363.546 334.337 C363.445 333.952 363.322 333.581 363.177 333.224 C362.829 332.454 362.518 331.670 362.244 330.873 C361.969 330.076 361.672 329.279 361.353 328.481 C361.238 328.207 361.137 327.938 361.050 327.677 C360.963 327.416 360.876 327.134 360.789 326.832 C360.702 326.612 360.717 326.365 360.832 326.090 C360.977 325.897 361.216 325.787 361.549 325.760 C361.882 325.732 362.222 325.719 362.569 325.719 L365.869 325.719 C366.129 325.719 366.419 325.719 366.737 325.719 C367.055 325.719 367.331 325.746 367.562 325.801 L367.562 325.801 ZM383.539 343.780 L387.056 343.780 C387.374 343.780 387.685 343.787 387.989 343.801 C388.293 343.815 388.560 343.766 388.792 343.656 C389.082 343.546 389.306 343.381 389.465 343.161 C389.624 342.942 389.776 342.722 389.921 342.502 L391.484 340.151 C392.497 338.584 393.517 337.024 394.545 335.471 C395.572 333.918 396.592 332.358 397.606 330.791 C398.097 330.048 398.582 329.299 399.060 328.543 C399.537 327.787 400.036 327.052 400.558 326.337 C400.673 326.172 400.782 326.007 400.883 325.842 C400.984 325.677 401.122 325.526 401.296 325.389 C401.354 325.334 401.426 325.279 401.513 325.224 C401.600 325.169 401.687 325.169 401.773 325.224 C401.976 325.279 402.077 325.403 402.077 325.595 C402.077 325.787 402.106 325.994 402.164 326.213 C402.193 326.406 402.200 326.619 402.186 326.853 C402.172 327.086 402.164 327.313 402.164 327.533 L402.164 330.131 L402.164 339.698 L402.164 341.265 C402.164 341.402 402.157 341.540 402.142 341.677 C402.128 341.814 402.135 341.938 402.164 342.048 L402.164 342.502 C402.164 342.887 402.251 343.189 402.424 343.409 C402.569 343.601 402.765 343.711 403.011 343.739 C403.257 343.766 403.539 343.780 403.857 343.780 L406.505 343.780 C406.737 343.780 406.969 343.780 407.200 343.780 C407.432 343.780 407.635 343.753 407.808 343.698 C408.184 343.560 408.387 343.320 408.416 342.976 C408.445 342.632 408.459 342.227 408.459 341.759 L408.459 337.223 L408.459 319.946 L408.459 316.482 C408.459 316.179 408.466 315.877 408.481 315.575 C408.495 315.272 408.445 315.039 408.329 314.874 C408.213 314.709 408.076 314.605 407.917 314.564 C407.757 314.523 407.562 314.475 407.330 314.420 L405.811 314.420 L403.423 314.420 C403.163 314.420 402.909 314.420 402.663 314.420 C402.417 314.420 402.208 314.461 402.034 314.544 C401.716 314.681 401.469 314.866 401.296 315.100 C401.122 315.334 400.948 315.588 400.775 315.863 C400.514 316.248 400.261 316.640 400.015 317.038 C399.769 317.437 399.515 317.829 399.255 318.214 L392.743 328.110 C392.338 328.743 391.940 329.354 391.549 329.945 C391.158 330.536 390.760 331.148 390.355 331.780 C390.210 331.973 390.044 332.213 389.856 332.502 C389.668 332.791 389.414 332.935 389.096 332.935 C388.864 332.743 388.741 332.523 388.727 332.275 C388.712 332.028 388.705 331.712 388.705 331.327 L388.705 328.440 L388.705 318.585 L388.705 316.977 C388.705 316.839 388.712 316.702 388.727 316.564 C388.741 316.427 388.719 316.289 388.662 316.152 L388.662 315.698 C388.662 315.258 388.589 314.942 388.445 314.750 C388.300 314.585 388.105 314.489 387.859 314.461 C387.613 314.434 387.330 314.420 387.012 314.420 L384.364 314.420 C384.132 314.420 383.901 314.420 383.669 314.420 C383.437 314.420 383.235 314.447 383.061 314.502 C382.685 314.640 382.475 314.887 382.432 315.245 C382.388 315.602 382.366 316.014 382.366 316.482 L382.366 321.224 L382.366 337.760 L382.366 341.595 C382.366 341.897 382.366 342.213 382.366 342.543 C382.366 342.873 382.425 343.134 382.540 343.326 C382.656 343.519 382.859 343.656 383.148 343.739 C383.206 343.739 383.271 343.746 383.343 343.760 C383.416 343.773 383.481 343.780 383.539 343.780 L383.539 343.780 ZM415.710 343.780 L419.183 343.780 C419.675 343.780 420.102 343.760 420.464 343.718 C420.825 343.677 421.079 343.464 421.224 343.079 C421.282 342.942 421.311 342.797 421.311 342.646 C421.311 342.495 421.311 342.351 421.311 342.213 L421.311 340.770 L421.311 335.780 C421.311 335.313 421.296 334.784 421.267 334.192 C421.238 333.601 421.339 333.155 421.571 332.852 C421.716 332.688 421.882 332.598 422.070 332.584 C422.259 332.571 422.468 332.536 422.700 332.481 L431.035 332.481 C431.556 332.481 432.092 332.488 432.642 332.502 C433.192 332.516 433.568 332.688 433.771 333.017 C433.915 333.265 433.973 333.636 433.944 334.131 C433.915 334.626 433.901 335.065 433.901 335.450 L433.901 340.811 C433.901 341.223 433.894 341.704 433.879 342.254 C433.865 342.804 433.959 343.189 434.161 343.409 C434.248 343.546 434.429 343.643 434.704 343.698 C434.979 343.753 435.291 343.787 435.637 343.801 C435.985 343.815 436.332 343.815 436.680 343.801 C437.027 343.787 437.331 343.780 437.591 343.780 C438.083 343.780 438.597 343.787 439.132 343.801 C439.668 343.815 440.066 343.711 440.326 343.491 C440.529 343.354 440.630 343.127 440.630 342.811 C440.630 342.495 440.630 342.186 440.630 341.883 L440.630 337.842 L440.630 320.977 L440.630 316.482 C440.630 316.152 440.630 315.808 440.630 315.451 C440.630 315.094 440.529 314.846 440.326 314.709 C440.066 314.489 439.654 314.385 439.089 314.399 C438.524 314.413 437.996 314.420 437.505 314.420 C437.244 314.420 436.947 314.413 436.615 314.399 C436.281 314.385 435.949 314.385 435.616 314.399 C435.283 314.413 434.979 314.440 434.704 314.482 C434.429 314.523 434.248 314.612 434.161 314.750 C434.074 314.860 434.010 315.045 433.966 315.306 C433.923 315.567 433.894 315.842 433.879 316.131 C433.865 316.420 433.865 316.708 433.879 316.997 C433.894 317.286 433.901 317.540 433.901 317.760 L433.901 323.739 L433.901 324.935 C433.901 325.045 433.908 325.155 433.923 325.265 C433.937 325.375 433.930 325.485 433.901 325.595 L433.901 326.007 C433.872 326.090 433.858 326.172 433.858 326.255 C433.858 326.337 433.843 326.420 433.814 326.502 C433.611 326.887 433.235 327.079 432.685 327.079 C432.135 327.079 431.571 327.079 430.992 327.079 L422.439 327.079 C422.208 327.024 422.019 326.976 421.875 326.935 C421.730 326.894 421.600 326.791 421.484 326.626 C421.426 326.488 421.368 326.282 421.311 326.007 L421.311 325.595 C421.282 325.457 421.274 325.299 421.289 325.120 C421.303 324.942 421.311 324.784 421.311 324.647 L421.311 322.832 L421.311 317.142 C421.311 316.729 421.311 316.289 421.311 315.822 C421.311 315.355 421.224 314.997 421.050 314.750 C420.963 314.612 420.782 314.523 420.507 314.482 C420.232 314.440 419.928 314.413 419.596 314.399 C419.262 314.385 418.923 314.385 418.575 314.399 C418.228 314.413 417.924 314.420 417.663 314.420 C417.258 314.420 416.766 314.413 416.188 314.399 C415.608 314.385 415.203 314.461 414.972 314.626 C414.740 314.791 414.610 315.052 414.581 315.410 C414.552 315.767 414.537 316.138 414.537 316.523 L414.537 321.265 L414.537 337.760 L414.537 341.595 C414.537 341.897 414.537 342.213 414.537 342.543 C414.537 342.873 414.596 343.134 414.711 343.326 C414.827 343.519 415.030 343.656 415.319 343.739 C415.377 343.739 415.442 343.746 415.514 343.760 C415.587 343.773 415.652 343.780 415.710 343.780 Z"/>
<path fill="#ffa700" fill-rule="evenodd" d="M472.888 316.358 C472.917 316.248 472.968 316.111 473.040 315.946 C473.113 315.781 473.170 315.609 473.214 315.430 C473.257 315.251 473.264 315.080 473.235 314.915 C473.206 314.750 473.105 314.626 472.932 314.544 C472.700 314.406 472.317 314.351 471.781 314.379 C471.246 314.406 470.804 314.420 470.457 314.420 L468.416 314.420 C468.185 314.420 467.975 314.413 467.787 314.399 C467.599 314.385 467.418 314.406 467.244 314.461 C466.926 314.544 466.694 314.709 466.550 314.956 C466.405 315.176 466.296 315.410 466.224 315.657 C466.151 315.904 466.057 316.152 465.942 316.399 C465.797 316.839 465.645 317.279 465.486 317.719 C465.327 318.159 465.160 318.585 464.987 318.997 C464.900 319.245 464.820 319.471 464.748 319.677 C464.675 319.884 464.596 320.069 464.509 320.234 C464.422 320.399 464.292 320.543 464.118 320.667 C463.945 320.791 463.713 320.880 463.424 320.935 C463.279 320.935 463.141 320.942 463.011 320.956 C462.881 320.969 462.743 320.977 462.599 320.977 L455.739 320.977 C455.247 320.977 454.719 320.983 454.154 320.997 C453.590 321.011 453.148 320.908 452.830 320.688 C452.599 320.523 452.440 320.303 452.353 320.028 C452.266 319.753 452.164 319.478 452.049 319.203 C451.817 318.736 451.622 318.248 451.463 317.739 C451.303 317.231 451.123 316.729 450.920 316.234 C450.804 315.959 450.696 315.671 450.594 315.368 C450.493 315.066 450.327 314.832 450.095 314.667 C449.950 314.557 449.741 314.482 449.466 314.440 C449.190 314.399 448.887 314.379 448.554 314.379 C448.221 314.379 447.881 314.385 447.534 314.399 C447.186 314.413 446.882 314.420 446.622 314.420 C446.245 314.420 445.790 314.413 445.254 314.399 C444.719 314.385 444.335 314.447 444.104 314.585 C443.959 314.667 443.879 314.791 443.865 314.956 C443.850 315.121 443.865 315.293 443.908 315.471 C443.952 315.650 444.002 315.822 444.060 315.987 C444.118 316.152 444.176 316.289 444.234 316.399 C444.524 317.032 444.791 317.678 445.037 318.337 C445.283 318.997 445.536 319.643 445.797 320.275 C445.913 320.495 446.000 320.715 446.057 320.935 C446.115 321.155 446.202 321.375 446.318 321.595 C446.549 322.172 446.781 322.763 447.012 323.368 C447.244 323.973 447.476 324.564 447.707 325.141 C447.939 325.691 448.156 326.234 448.358 326.770 C448.561 327.306 448.778 327.849 449.010 328.399 C449.675 329.911 450.290 331.437 450.855 332.976 C451.419 334.516 452.034 336.041 452.700 337.553 C452.758 337.691 452.801 337.815 452.830 337.925 C452.859 338.034 452.903 338.158 452.961 338.296 C453.192 338.873 453.424 339.464 453.655 340.069 C453.887 340.674 454.133 341.265 454.393 341.842 C454.538 342.144 454.661 342.454 454.762 342.770 C454.864 343.086 455.045 343.340 455.305 343.533 C455.450 343.615 455.638 343.684 455.869 343.739 C455.927 343.766 455.985 343.773 456.043 343.760 C456.101 343.746 456.159 343.753 456.216 343.780 L460.037 343.780 C460.356 343.780 460.681 343.787 461.014 343.801 C461.347 343.815 461.614 343.753 461.817 343.615 C462.136 343.450 462.345 343.209 462.447 342.894 C462.548 342.577 462.671 342.254 462.816 341.924 C463.018 341.457 463.206 340.997 463.380 340.543 C463.554 340.089 463.742 339.629 463.945 339.162 C464.002 338.997 464.060 338.832 464.118 338.667 C464.176 338.502 464.234 338.337 464.292 338.172 C464.524 337.622 464.740 337.079 464.943 336.543 C465.146 336.007 465.363 335.464 465.594 334.914 C466.173 333.540 466.716 332.151 467.223 330.749 C467.729 329.347 468.286 327.959 468.894 326.585 C468.952 326.475 468.988 326.372 469.003 326.275 C469.017 326.179 469.053 326.076 469.111 325.966 C469.285 325.526 469.458 325.086 469.632 324.647 C469.806 324.207 469.979 323.767 470.153 323.327 C470.269 323.107 470.356 322.894 470.414 322.688 C470.471 322.481 470.544 322.269 470.631 322.049 C471.007 321.169 471.354 320.289 471.673 319.410 C471.991 318.530 472.338 317.664 472.715 316.812 C472.772 316.729 472.801 316.653 472.801 316.585 C472.801 316.516 472.830 316.441 472.888 316.358 L472.888 316.358 ZM461.643 325.801 C462.020 325.939 462.193 326.172 462.165 326.502 C462.136 326.832 462.049 327.148 461.904 327.451 C461.846 327.561 461.817 327.663 461.817 327.760 C461.817 327.856 461.788 327.959 461.730 328.069 C461.354 329.004 461.007 329.952 460.688 330.914 C460.370 331.877 460.008 332.839 459.603 333.801 C459.545 333.938 459.487 334.110 459.429 334.316 C459.371 334.522 459.299 334.715 459.212 334.894 C459.126 335.072 459.024 335.230 458.908 335.368 C458.793 335.505 458.648 335.574 458.474 335.574 C458.416 335.519 458.358 335.478 458.300 335.450 C458.243 335.423 458.185 335.382 458.127 335.327 C457.895 335.052 457.729 334.722 457.627 334.337 C457.526 333.952 457.404 333.581 457.259 333.224 C456.911 332.454 456.600 331.670 456.325 330.873 C456.050 330.076 455.753 329.279 455.435 328.481 C455.320 328.207 455.218 327.938 455.131 327.677 C455.045 327.416 454.957 327.134 454.871 326.832 C454.784 326.612 454.798 326.365 454.914 326.090 C455.059 325.897 455.298 325.787 455.631 325.760 C455.964 325.732 456.303 325.719 456.651 325.719 L459.950 325.719 C460.211 325.719 460.500 325.719 460.818 325.719 C461.137 325.719 461.412 325.746 461.643 325.801 Z"/>
<path fill="#ffa700" fill-rule="evenodd" d="M305.972 278.460 C305.998 278.352 306.044 278.217 306.109 278.055 C306.175 277.893 306.227 277.724 306.266 277.549 C306.306 277.373 306.312 277.205 306.286 277.043 C306.260 276.881 306.168 276.760 306.011 276.678 C305.802 276.543 305.455 276.490 304.972 276.517 C304.487 276.543 304.089 276.557 303.774 276.557 L301.930 276.557 C301.721 276.557 301.531 276.550 301.361 276.537 C301.191 276.523 301.028 276.543 300.871 276.598 C300.583 276.678 300.374 276.841 300.243 277.084 C300.112 277.300 300.014 277.529 299.949 277.772 C299.883 278.015 299.798 278.258 299.693 278.500 C299.563 278.933 299.426 279.364 299.282 279.796 C299.138 280.228 298.987 280.647 298.831 281.051 C298.752 281.294 298.680 281.517 298.615 281.720 C298.549 281.922 298.477 282.104 298.399 282.266 C298.320 282.428 298.202 282.570 298.046 282.691 C297.889 282.813 297.680 282.901 297.418 282.955 C297.287 282.955 297.163 282.961 297.045 282.975 C296.927 282.988 296.803 282.995 296.672 282.995 L290.473 282.995 C290.028 282.995 289.551 283.002 289.040 283.015 C288.530 283.029 288.131 282.927 287.844 282.712 C287.634 282.550 287.490 282.334 287.412 282.064 C287.334 281.794 287.242 281.524 287.137 281.254 C286.928 280.795 286.751 280.316 286.608 279.817 C286.464 279.317 286.300 278.825 286.117 278.339 C286.013 278.069 285.914 277.785 285.823 277.488 C285.731 277.192 285.581 276.962 285.371 276.800 C285.240 276.692 285.051 276.618 284.803 276.577 C284.554 276.537 284.279 276.517 283.978 276.517 C283.677 276.517 283.370 276.523 283.056 276.537 C282.742 276.550 282.468 276.557 282.232 276.557 C281.892 276.557 281.480 276.550 280.996 276.537 C280.512 276.523 280.166 276.584 279.956 276.719 C279.826 276.800 279.754 276.921 279.741 277.084 C279.728 277.245 279.741 277.414 279.780 277.589 C279.819 277.765 279.865 277.934 279.917 278.096 C279.969 278.258 280.022 278.392 280.074 278.500 C280.336 279.121 280.578 279.756 280.800 280.404 C281.022 281.051 281.251 281.686 281.487 282.307 C281.591 282.523 281.670 282.739 281.722 282.955 C281.775 283.171 281.853 283.386 281.958 283.602 C282.167 284.169 282.376 284.750 282.586 285.343 C282.795 285.937 283.004 286.518 283.213 287.085 C283.423 287.624 283.619 288.158 283.802 288.684 C283.985 289.210 284.181 289.743 284.390 290.283 C284.992 291.768 285.548 293.266 286.058 294.778 C286.568 296.289 287.124 297.788 287.726 299.272 C287.778 299.407 287.817 299.529 287.844 299.637 C287.870 299.745 287.909 299.866 287.961 300.001 C288.171 300.568 288.380 301.148 288.589 301.742 C288.798 302.336 289.021 302.916 289.256 303.483 C289.387 303.780 289.498 304.084 289.590 304.394 C289.681 304.705 289.844 304.954 290.080 305.143 C290.211 305.224 290.381 305.292 290.590 305.346 C290.643 305.373 290.695 305.380 290.747 305.366 C290.800 305.353 290.852 305.359 290.904 305.386 L294.357 305.386 C294.645 305.386 294.939 305.393 295.240 305.406 C295.541 305.420 295.783 305.359 295.966 305.224 C296.254 305.062 296.443 304.826 296.535 304.516 C296.626 304.205 296.738 303.888 296.868 303.564 C297.052 303.105 297.222 302.653 297.379 302.208 C297.536 301.762 297.705 301.310 297.889 300.851 C297.941 300.689 297.993 300.527 298.046 300.365 C298.098 300.203 298.150 300.042 298.202 299.879 C298.412 299.340 298.608 298.807 298.791 298.280 C298.974 297.754 299.171 297.221 299.380 296.681 C299.903 295.331 300.394 293.968 300.851 292.591 C301.309 291.214 301.813 289.851 302.362 288.502 C302.414 288.394 302.447 288.293 302.460 288.198 C302.473 288.103 302.506 288.002 302.558 287.894 C302.715 287.463 302.872 287.031 303.029 286.599 C303.186 286.167 303.343 285.735 303.500 285.303 C303.604 285.087 303.683 284.878 303.735 284.675 C303.788 284.473 303.853 284.264 303.932 284.048 C304.271 283.184 304.586 282.320 304.873 281.457 C305.161 280.592 305.475 279.742 305.815 278.906 C305.867 278.825 305.893 278.750 305.893 278.683 C305.893 278.615 305.920 278.541 305.972 278.460 L305.972 278.460 ZM295.809 287.732 C296.149 287.867 296.306 288.097 296.280 288.421 C296.254 288.745 296.175 289.055 296.044 289.352 C295.992 289.460 295.966 289.561 295.966 289.656 C295.966 289.750 295.940 289.851 295.888 289.959 C295.548 290.877 295.233 291.808 294.946 292.753 C294.658 293.698 294.331 294.643 293.965 295.587 C293.913 295.722 293.860 295.891 293.808 296.094 C293.755 296.296 293.690 296.485 293.612 296.660 C293.533 296.836 293.442 296.991 293.337 297.126 C293.232 297.261 293.101 297.329 292.945 297.329 C292.892 297.275 292.840 297.234 292.787 297.207 C292.735 297.180 292.683 297.140 292.631 297.086 C292.421 296.816 292.271 296.492 292.179 296.114 C292.088 295.736 291.977 295.372 291.846 295.021 C291.532 294.265 291.251 293.495 291.002 292.713 C290.754 291.930 290.485 291.147 290.198 290.364 C290.093 290.094 290.002 289.831 289.923 289.575 C289.844 289.318 289.766 289.041 289.688 288.745 C289.609 288.529 289.622 288.286 289.727 288.016 C289.858 287.827 290.074 287.719 290.375 287.692 C290.675 287.665 290.983 287.651 291.296 287.651 L294.279 287.651 C294.514 287.651 294.776 287.651 295.063 287.651 C295.351 287.651 295.600 287.679 295.809 287.732 L295.809 287.732 ZM333.871 291.903 C333.871 291.822 333.878 291.714 333.890 291.579 C333.904 291.444 333.910 291.296 333.910 291.134 C333.910 290.972 333.904 290.823 333.890 290.688 C333.878 290.553 333.871 290.459 333.871 290.405 C333.871 290.216 333.864 290.034 333.851 289.858 C333.838 289.683 333.832 289.514 333.832 289.352 C333.779 289.217 333.760 289.082 333.773 288.947 C333.786 288.812 333.779 288.677 333.753 288.542 C333.701 288.245 333.662 287.948 333.635 287.651 C333.609 287.355 333.557 287.058 333.478 286.761 C333.348 286.302 333.230 285.863 333.125 285.445 C333.021 285.026 332.890 284.615 332.733 284.210 C332.288 283.076 331.739 282.050 331.085 281.132 C330.431 280.215 329.646 279.432 328.731 278.784 C328.207 278.406 327.665 278.082 327.102 277.812 C326.540 277.542 325.932 277.300 325.278 277.084 C325.016 277.002 324.748 276.942 324.473 276.901 C324.199 276.861 323.917 276.800 323.630 276.719 C323.499 276.692 323.374 276.678 323.257 276.678 C323.139 276.678 323.015 276.665 322.884 276.638 C322.779 276.611 322.675 276.604 322.570 276.618 C322.466 276.631 322.348 276.625 322.217 276.598 C322.165 276.570 322.086 276.564 321.981 276.577 C321.877 276.591 321.798 276.584 321.746 276.557 C321.537 276.503 321.275 276.490 320.961 276.517 C320.647 276.543 320.373 276.557 320.137 276.557 L310.995 276.557 C310.550 276.557 310.177 276.577 309.876 276.618 C309.575 276.658 309.360 276.841 309.229 277.164 C309.150 277.380 309.118 277.711 309.131 278.156 C309.144 278.602 309.150 278.973 309.150 279.270 L309.150 303.038 C309.150 303.362 309.144 303.706 309.131 304.070 C309.118 304.435 309.176 304.725 309.307 304.941 C309.412 305.103 309.608 305.238 309.896 305.346 C309.948 305.373 310.000 305.380 310.053 305.366 C310.105 305.353 310.157 305.359 310.210 305.386 L320.765 305.386 C320.922 305.386 321.086 305.393 321.255 305.406 C321.426 305.420 321.576 305.413 321.707 305.386 L322.178 305.386 C322.308 305.332 322.452 305.312 322.609 305.325 C322.766 305.339 322.910 305.319 323.041 305.265 C323.198 305.211 323.348 305.190 323.492 305.204 C323.636 305.217 323.787 305.197 323.943 305.143 C324.310 305.062 324.663 304.988 325.003 304.921 C325.343 304.853 325.670 304.752 325.984 304.617 C326.271 304.482 326.559 304.360 326.847 304.252 C327.135 304.144 327.409 304.010 327.671 303.848 C328.325 303.416 328.927 302.997 329.476 302.592 L329.712 302.349 C329.973 302.134 330.208 301.891 330.418 301.620 L330.771 301.297 C330.902 301.081 331.052 300.872 331.222 300.669 C331.392 300.466 331.543 300.257 331.674 300.042 C332.014 299.475 332.315 298.874 332.576 298.240 C332.838 297.605 333.073 296.937 333.282 296.236 C333.413 295.885 333.498 295.520 333.537 295.142 C333.577 294.764 333.635 294.386 333.714 294.008 C333.714 293.873 333.720 293.759 333.734 293.664 C333.747 293.570 333.753 293.469 333.753 293.361 C333.806 293.199 333.825 293.023 333.812 292.834 C333.799 292.645 333.818 292.483 333.871 292.348 L333.871 291.903 L333.871 291.903 ZM327.750 289.959 C327.802 290.094 327.828 290.310 327.828 290.607 C327.828 290.904 327.802 291.120 327.750 291.255 L327.750 292.024 C327.697 292.267 327.665 292.524 327.652 292.794 C327.639 293.063 327.606 293.307 327.553 293.522 C327.501 293.657 327.481 293.786 327.495 293.907 C327.508 294.029 327.488 294.157 327.436 294.292 C327.305 294.724 327.180 295.135 327.063 295.527 C326.945 295.918 326.782 296.289 326.572 296.640 C326.180 297.288 325.729 297.848 325.219 298.321 C324.708 298.793 324.087 299.191 323.355 299.515 C323.119 299.596 322.884 299.670 322.648 299.738 C322.413 299.805 322.178 299.866 321.942 299.920 C321.733 299.947 321.543 299.967 321.373 299.981 C321.203 299.994 321.014 300.028 320.804 300.082 C320.700 300.109 320.595 300.116 320.490 300.102 C320.386 300.089 320.294 300.095 320.216 300.122 L319.353 300.122 C319.222 300.150 319.078 300.156 318.921 300.143 C318.764 300.129 318.607 300.122 318.450 300.122 L316.684 300.122 C316.632 300.068 316.547 300.055 316.429 300.082 C316.312 300.109 316.213 300.109 316.135 300.082 C316.004 300.028 315.873 299.981 315.742 299.940 C315.612 299.900 315.507 299.812 315.429 299.677 C315.324 299.542 315.272 299.353 315.272 299.110 C315.272 298.867 315.272 298.597 315.272 298.300 C315.272 297.950 315.265 297.585 315.252 297.207 C315.239 296.829 315.232 296.451 315.232 296.073 L315.232 284.777 C315.232 284.615 315.226 284.439 315.213 284.250 C315.200 284.061 315.219 283.899 315.272 283.764 L315.272 283.359 C315.272 283.171 315.278 282.988 315.291 282.813 C315.304 282.637 315.337 282.482 315.389 282.347 C315.546 282.023 315.847 281.854 316.292 281.841 C316.736 281.828 317.194 281.821 317.665 281.821 C318.685 281.821 319.719 281.828 320.765 281.841 C321.811 281.854 322.701 282.010 323.433 282.307 C324.401 282.712 325.166 283.251 325.729 283.926 C326.291 284.601 326.769 285.438 327.161 286.437 C327.266 286.653 327.344 286.896 327.397 287.166 C327.449 287.435 327.514 287.705 327.593 287.975 L327.593 288.299 C327.645 288.488 327.671 288.691 327.671 288.906 C327.671 289.123 327.697 289.339 327.750 289.555 L327.750 289.959 L327.750 289.959 ZM336.539 305.386 L339.717 305.386 C340.005 305.386 340.300 305.386 340.600 305.386 C340.901 305.386 341.143 305.319 341.326 305.184 C341.562 305.049 341.719 304.833 341.797 304.536 C341.876 304.239 341.967 303.942 342.072 303.645 C342.255 303.132 342.418 302.619 342.562 302.107 C342.706 301.594 342.870 301.067 343.053 300.527 C343.576 298.854 344.093 297.180 344.603 295.506 C345.113 293.833 345.630 292.159 346.153 290.486 C346.283 290.027 346.421 289.568 346.565 289.109 C346.708 288.650 346.846 288.191 346.977 287.732 C347.055 287.490 347.134 287.247 347.212 287.004 C347.291 286.761 347.395 286.545 347.526 286.356 C347.552 286.302 347.585 286.268 347.624 286.254 C347.663 286.241 347.709 286.207 347.761 286.153 C348.049 286.153 348.239 286.281 348.331 286.538 C348.422 286.794 348.507 287.031 348.585 287.247 C348.795 287.813 348.978 288.394 349.135 288.988 C349.292 289.581 349.475 290.189 349.684 290.810 C350.260 292.591 350.815 294.366 351.352 296.134 C351.888 297.902 352.444 299.677 353.019 301.459 C353.150 301.891 353.281 302.316 353.412 302.734 C353.543 303.153 353.674 303.577 353.804 304.010 C353.909 304.226 353.994 304.442 354.059 304.657 C354.125 304.873 354.262 305.049 354.471 305.184 C354.654 305.319 354.870 305.386 355.119 305.386 C355.367 305.386 355.622 305.386 355.884 305.386 L358.513 305.386 C358.775 305.386 359.036 305.386 359.298 305.386 C359.560 305.386 359.769 305.332 359.925 305.224 C360.187 305.089 360.279 304.839 360.200 304.475 C360.122 304.111 360.043 303.807 359.965 303.564 C359.729 302.943 359.514 302.302 359.317 301.641 C359.121 300.980 358.919 300.325 358.709 299.677 C358.631 299.515 358.572 299.353 358.533 299.191 C358.493 299.029 358.448 298.867 358.395 298.705 C358.186 298.138 357.996 297.558 357.826 296.964 C357.656 296.370 357.467 295.777 357.257 295.183 C356.551 292.996 355.845 290.803 355.139 288.603 C354.432 286.403 353.726 284.210 353.019 282.023 C352.784 281.402 352.575 280.775 352.392 280.140 C352.208 279.506 352.012 278.878 351.803 278.258 C351.672 277.880 351.542 277.536 351.411 277.225 C351.280 276.915 351.018 276.706 350.626 276.598 C350.417 276.543 350.181 276.523 349.920 276.537 C349.658 276.550 349.409 276.557 349.174 276.557 L346.349 276.557 C346.061 276.557 345.754 276.550 345.426 276.537 C345.100 276.523 344.832 276.584 344.622 276.719 C344.335 276.881 344.145 277.131 344.053 277.468 C343.962 277.805 343.864 278.136 343.759 278.460 C343.576 279.027 343.399 279.601 343.229 280.181 C343.059 280.761 342.883 281.335 342.700 281.902 C342.124 283.602 341.575 285.316 341.052 287.044 C340.529 288.772 339.979 290.499 339.404 292.227 C339.168 293.010 338.939 293.786 338.717 294.555 C338.494 295.324 338.253 296.087 337.991 296.843 C337.886 297.086 337.808 297.329 337.755 297.572 C337.703 297.814 337.625 298.057 337.520 298.300 C337.285 299.056 337.056 299.805 336.833 300.548 C336.611 301.290 336.369 302.039 336.108 302.795 C336.055 303.038 335.990 303.274 335.911 303.503 C335.833 303.733 335.754 303.969 335.676 304.212 C335.649 304.347 335.630 304.482 335.617 304.617 C335.604 304.752 335.623 304.873 335.676 304.981 C335.754 305.170 335.924 305.292 336.186 305.346 C336.238 305.373 336.297 305.380 336.363 305.366 C336.428 305.353 336.487 305.359 336.539 305.386 L336.539 305.386 ZM384.842 278.460 C384.790 278.541 384.764 278.615 384.764 278.683 C384.764 278.750 384.738 278.825 384.685 278.906 C384.345 279.742 384.031 280.592 383.744 281.457 C383.456 282.320 383.142 283.184 382.802 284.048 C382.724 284.264 382.658 284.473 382.606 284.675 C382.554 284.878 382.475 285.087 382.370 285.303 C382.213 285.735 382.056 286.167 381.899 286.599 C381.743 287.031 381.586 287.463 381.428 287.894 C381.376 288.002 381.344 288.103 381.330 288.198 C381.317 288.293 381.284 288.394 381.232 288.502 C380.683 289.851 380.180 291.214 379.721 292.591 C379.264 293.968 378.773 295.331 378.250 296.681 C378.041 297.221 377.845 297.754 377.661 298.280 C377.479 298.807 377.282 299.340 377.073 299.879 C377.021 300.042 376.969 300.203 376.916 300.365 C376.864 300.527 376.811 300.689 376.759 300.851 C376.576 301.310 376.406 301.762 376.249 302.208 C376.092 302.653 375.922 303.105 375.739 303.564 C375.608 303.888 375.497 304.205 375.405 304.516 C375.314 304.826 375.124 305.062 374.837 305.224 C374.653 305.359 374.411 305.420 374.111 305.406 C373.810 305.393 373.515 305.386 373.228 305.386 L369.774 305.386 C369.722 305.359 369.670 305.353 369.618 305.366 C369.565 305.380 369.513 305.373 369.461 305.346 C369.251 305.292 369.081 305.224 368.950 305.143 C368.715 304.954 368.552 304.705 368.460 304.394 C368.368 304.084 368.257 303.780 368.127 303.483 C367.891 302.916 367.669 302.336 367.459 301.742 C367.250 301.148 367.041 300.568 366.832 300.001 C366.779 299.866 366.740 299.745 366.714 299.637 C366.688 299.529 366.648 299.407 366.596 299.272 C365.995 297.788 365.439 296.289 364.928 294.778 C364.418 293.266 363.863 291.768 363.261 290.283 C363.052 289.743 362.855 289.210 362.672 288.684 C362.489 288.158 362.293 287.624 362.084 287.085 C361.874 286.518 361.665 285.937 361.456 285.343 C361.247 284.750 361.037 284.169 360.828 283.602 C360.723 283.386 360.645 283.171 360.592 282.955 C360.540 282.739 360.462 282.523 360.357 282.307 C360.122 281.686 359.893 281.051 359.670 280.404 C359.448 279.756 359.206 279.121 358.945 278.500 C358.892 278.392 358.840 278.258 358.788 278.096 C358.735 277.934 358.689 277.765 358.650 277.589 C358.611 277.414 358.598 277.245 358.611 277.084 C358.624 276.921 358.696 276.800 358.827 276.719 C359.036 276.584 359.383 276.523 359.867 276.537 C360.351 276.550 360.762 276.557 361.103 276.557 C361.338 276.557 361.613 276.550 361.927 276.537 C362.241 276.523 362.548 276.517 362.849 276.517 C363.150 276.517 363.425 276.537 363.673 276.577 C363.921 276.618 364.111 276.692 364.242 276.800 C364.451 276.962 364.601 277.192 364.693 277.488 C364.785 277.785 364.883 278.069 364.987 278.339 C365.170 278.825 365.334 279.317 365.478 279.817 C365.622 280.316 365.798 280.795 366.007 281.254 C366.112 281.524 366.204 281.794 366.282 282.064 C366.361 282.334 366.505 282.550 366.714 282.712 C367.002 282.927 367.400 283.029 367.911 283.015 C368.421 283.002 368.898 282.995 369.343 282.995 L375.543 282.995 C375.674 282.995 375.798 282.988 375.915 282.975 C376.033 282.961 376.158 282.955 376.288 282.955 C376.550 282.901 376.759 282.813 376.916 282.691 C377.073 282.570 377.191 282.428 377.269 282.266 C377.348 282.104 377.420 281.922 377.485 281.720 C377.550 281.517 377.622 281.294 377.701 281.051 C377.858 280.647 378.008 280.228 378.152 279.796 C378.296 279.364 378.433 278.933 378.564 278.500 C378.669 278.258 378.754 278.015 378.819 277.772 C378.884 277.529 378.983 277.300 379.113 277.084 C379.244 276.841 379.453 276.678 379.741 276.598 C379.898 276.543 380.062 276.523 380.232 276.537 C380.402 276.550 380.591 276.557 380.801 276.557 L382.645 276.557 C382.959 276.557 383.358 276.543 383.842 276.517 C384.325 276.490 384.672 276.543 384.882 276.678 C385.038 276.760 385.130 276.881 385.156 277.043 C385.182 277.205 385.176 277.373 385.137 277.549 C385.097 277.724 385.045 277.893 384.980 278.055 C384.914 278.217 384.868 278.352 384.842 278.460 L384.842 278.460 ZM374.680 287.732 C374.470 287.679 374.222 287.651 373.934 287.651 C373.646 287.651 373.384 287.651 373.149 287.651 L370.167 287.651 C369.853 287.651 369.546 287.665 369.245 287.692 C368.944 287.719 368.728 287.827 368.598 288.016 C368.493 288.286 368.480 288.529 368.558 288.745 C368.637 289.041 368.715 289.318 368.794 289.575 C368.872 289.831 368.964 290.094 369.068 290.364 C369.356 291.147 369.624 291.930 369.873 292.713 C370.121 293.495 370.403 294.265 370.716 295.021 C370.847 295.372 370.958 295.736 371.050 296.114 C371.142 296.492 371.292 296.816 371.501 297.086 C371.553 297.140 371.606 297.180 371.658 297.207 C371.711 297.234 371.763 297.275 371.815 297.329 C371.972 297.329 372.103 297.261 372.207 297.126 C372.312 296.991 372.404 296.836 372.482 296.660 C372.561 296.485 372.626 296.296 372.678 296.094 C372.731 295.891 372.783 295.722 372.835 295.587 C373.202 294.643 373.528 293.698 373.816 292.753 C374.104 291.808 374.418 290.877 374.758 289.959 C374.810 289.851 374.837 289.750 374.837 289.656 C374.837 289.561 374.863 289.460 374.915 289.352 C375.045 289.055 375.124 288.745 375.150 288.421 C375.176 288.097 375.019 287.867 374.680 287.732 L374.680 287.732 ZM389.120 305.386 L392.298 305.386 C392.585 305.386 392.867 305.393 393.142 305.406 C393.416 305.420 393.658 305.373 393.867 305.265 C394.129 305.157 394.332 304.995 394.475 304.779 C394.619 304.563 394.757 304.347 394.887 304.131 L396.300 301.823 C397.216 300.284 398.138 298.753 399.067 297.227 C399.995 295.702 400.917 294.171 401.833 292.632 C402.278 291.903 402.716 291.167 403.147 290.425 C403.579 289.683 404.030 288.961 404.501 288.259 C404.606 288.097 404.704 287.935 404.795 287.773 C404.887 287.611 405.011 287.463 405.168 287.328 C405.221 287.274 405.286 287.220 405.364 287.166 C405.443 287.112 405.521 287.112 405.600 287.166 C405.783 287.220 405.875 287.341 405.875 287.530 C405.875 287.719 405.901 287.921 405.953 288.137 C405.979 288.326 405.986 288.536 405.973 288.765 C405.959 288.994 405.953 289.217 405.953 289.433 L405.953 291.984 L405.953 301.377 L405.953 302.916 C405.953 303.051 405.947 303.186 405.933 303.321 C405.920 303.456 405.927 303.577 405.953 303.685 L405.953 304.131 C405.953 304.509 406.031 304.806 406.188 305.022 C406.319 305.211 406.496 305.319 406.718 305.346 C406.940 305.373 407.195 305.386 407.483 305.386 L409.877 305.386 C410.086 305.386 410.295 305.386 410.505 305.386 C410.714 305.386 410.897 305.359 411.054 305.305 C411.394 305.170 411.577 304.934 411.603 304.597 C411.630 304.259 411.642 303.861 411.642 303.402 L411.642 298.948 L411.642 281.983 L411.642 278.582 C411.642 278.284 411.649 277.988 411.662 277.691 C411.675 277.394 411.630 277.164 411.525 277.002 C411.420 276.841 411.296 276.739 411.152 276.699 C411.008 276.658 410.831 276.611 410.622 276.557 L409.249 276.557 L407.091 276.557 C406.856 276.557 406.626 276.557 406.404 276.557 C406.182 276.557 405.992 276.598 405.835 276.678 C405.547 276.814 405.325 276.996 405.168 277.225 C405.011 277.455 404.854 277.704 404.697 277.974 C404.462 278.352 404.233 278.737 404.011 279.128 C403.788 279.520 403.559 279.904 403.324 280.282 L397.438 290.000 C397.072 290.621 396.712 291.221 396.359 291.801 C396.006 292.382 395.646 292.983 395.280 293.603 C395.149 293.792 394.999 294.029 394.829 294.312 C394.659 294.596 394.430 294.737 394.142 294.737 C393.933 294.548 393.822 294.332 393.808 294.089 C393.795 293.846 393.789 293.536 393.789 293.158 L393.789 290.324 L393.789 280.647 L393.789 279.067 C393.789 278.933 393.795 278.798 393.808 278.663 C393.822 278.527 393.802 278.392 393.750 278.258 L393.750 277.812 C393.750 277.380 393.684 277.070 393.553 276.881 C393.423 276.719 393.246 276.625 393.024 276.598 C392.801 276.570 392.546 276.557 392.259 276.557 L389.865 276.557 C389.656 276.557 389.446 276.557 389.237 276.557 C389.028 276.557 388.845 276.584 388.688 276.638 C388.348 276.773 388.158 277.016 388.119 277.367 C388.079 277.718 388.060 278.123 388.060 278.582 L388.060 283.238 L388.060 299.475 L388.060 303.240 C388.060 303.537 388.060 303.848 388.060 304.171 C388.060 304.495 388.112 304.752 388.217 304.941 C388.322 305.130 388.505 305.265 388.766 305.346 C388.818 305.346 388.877 305.353 388.943 305.366 C389.008 305.380 389.067 305.386 389.120 305.386 Z"/>
<path fill="#ffa700" fill-rule="evenodd" d="M429.104 306.075 C431.851 306.128 434.113 305.643 435.892 304.617 C437.671 303.591 439.084 302.228 440.130 300.527 C440.418 300.068 440.653 299.603 440.836 299.130 C441.019 298.658 441.189 298.138 441.346 297.572 C441.399 297.383 441.451 297.167 441.503 296.924 C441.556 296.681 441.543 296.451 441.464 296.236 C441.412 296.073 441.314 295.972 441.170 295.932 C441.026 295.891 440.863 295.844 440.679 295.790 L440.366 295.790 C440.208 295.736 440.032 295.716 439.836 295.729 C439.639 295.743 439.450 295.749 439.267 295.749 C439.031 295.749 438.750 295.743 438.423 295.729 C438.096 295.716 437.776 295.716 437.462 295.729 C437.148 295.743 436.860 295.770 436.599 295.810 C436.337 295.851 436.141 295.911 436.010 295.993 C435.801 296.181 435.644 296.438 435.539 296.762 C435.435 297.086 435.303 297.369 435.147 297.612 C434.650 298.503 433.996 299.205 433.185 299.718 C432.635 300.068 432.021 300.352 431.340 300.568 C430.896 300.730 430.340 300.811 429.673 300.811 C429.006 300.811 428.423 300.743 427.927 300.608 C427.717 300.554 427.528 300.507 427.358 300.466 C427.188 300.426 427.011 300.365 426.828 300.284 C425.049 299.502 423.793 298.206 423.061 296.397 C422.930 296.073 422.813 295.736 422.708 295.385 C422.603 295.034 422.486 294.670 422.355 294.292 C422.329 294.103 422.302 293.928 422.276 293.765 C422.250 293.603 422.224 293.428 422.198 293.239 C422.146 293.077 422.126 292.909 422.139 292.733 C422.152 292.558 422.132 292.375 422.080 292.186 C422.028 291.971 422.008 291.748 422.022 291.518 C422.034 291.289 422.041 291.066 422.041 290.850 C422.041 290.742 422.034 290.634 422.022 290.526 C422.008 290.418 422.015 290.310 422.041 290.202 L422.041 289.838 C422.093 289.703 422.113 289.568 422.100 289.433 C422.087 289.298 422.106 289.163 422.159 289.028 C422.159 288.866 422.185 288.650 422.237 288.380 C422.289 288.083 422.341 287.807 422.394 287.550 C422.446 287.294 422.512 287.044 422.590 286.801 C422.956 285.667 423.427 284.702 424.003 283.906 C424.578 283.110 425.337 282.455 426.279 281.942 C426.566 281.807 426.867 281.693 427.181 281.598 C427.495 281.504 427.835 281.402 428.201 281.294 C428.332 281.267 428.456 281.247 428.574 281.234 C428.692 281.220 428.816 281.214 428.947 281.214 L429.261 281.214 C429.392 281.159 429.562 281.139 429.771 281.153 C429.980 281.166 430.150 281.186 430.281 281.214 C430.438 281.214 430.555 281.227 430.634 281.254 C430.948 281.308 431.242 281.362 431.517 281.416 C431.792 281.470 432.060 281.565 432.321 281.699 C432.923 281.969 433.440 282.327 433.871 282.772 C434.303 283.218 434.689 283.724 435.029 284.291 C435.186 284.561 435.317 284.858 435.421 285.182 C435.526 285.505 435.644 285.829 435.774 286.153 C435.853 286.450 435.932 286.720 436.010 286.963 C436.088 287.206 436.259 287.395 436.520 287.530 C436.677 287.584 436.873 287.611 437.109 287.611 C437.344 287.611 437.566 287.611 437.776 287.611 L440.169 287.611 C440.405 287.611 440.647 287.611 440.895 287.611 C441.144 287.611 441.346 287.557 441.503 287.449 C441.687 287.314 441.785 287.098 441.798 286.801 C441.811 286.504 441.778 286.221 441.700 285.951 L441.464 284.858 C441.333 284.453 441.209 284.061 441.091 283.683 C440.974 283.305 440.823 282.941 440.640 282.590 C440.509 282.374 440.405 282.165 440.326 281.962 C440.248 281.760 440.143 281.565 440.012 281.375 C438.574 279.054 436.481 277.434 433.734 276.517 C433.446 276.409 433.159 276.327 432.871 276.274 C432.583 276.219 432.295 276.166 432.008 276.112 C431.877 276.058 431.752 276.038 431.635 276.051 C431.517 276.064 431.393 276.044 431.262 275.990 C431.079 275.990 430.902 275.983 430.732 275.970 C430.562 275.956 430.386 275.936 430.203 275.909 L429.575 275.909 C429.339 275.909 429.104 275.909 428.868 275.909 C428.633 275.909 428.411 275.936 428.201 275.990 C428.123 276.017 427.992 276.031 427.809 276.031 C427.626 276.058 427.443 276.085 427.260 276.112 C427.077 276.139 426.880 276.166 426.671 276.193 C426.409 276.274 426.154 276.341 425.906 276.395 C425.657 276.449 425.402 276.517 425.141 276.598 C424.905 276.678 424.670 276.766 424.434 276.861 C424.199 276.955 423.977 277.057 423.767 277.164 C422.198 277.866 420.870 278.804 419.785 279.978 C418.699 281.153 417.816 282.550 417.136 284.169 C416.979 284.574 416.848 284.979 416.743 285.384 C416.639 285.789 416.521 286.207 416.390 286.639 C416.338 286.774 416.312 286.889 416.312 286.983 C416.312 287.078 416.299 287.179 416.272 287.287 C416.220 287.530 416.181 287.786 416.155 288.056 C416.129 288.326 416.090 288.583 416.037 288.826 C415.985 288.961 415.965 289.075 415.978 289.170 C415.992 289.264 415.985 289.365 415.959 289.473 L415.959 290.243 C415.906 290.378 415.880 290.580 415.880 290.850 C415.880 291.120 415.906 291.322 415.959 291.457 C415.985 291.538 415.992 291.626 415.978 291.721 C415.965 291.815 415.959 291.889 415.959 291.943 L415.959 292.308 C416.011 292.524 416.044 292.753 416.057 292.996 C416.070 293.239 416.090 293.482 416.116 293.725 C416.168 293.941 416.207 294.150 416.234 294.352 C416.260 294.555 416.299 294.764 416.351 294.980 C416.456 295.358 416.547 295.729 416.626 296.094 C416.704 296.458 416.809 296.802 416.940 297.126 C417.070 297.477 417.208 297.828 417.352 298.179 C417.496 298.530 417.659 298.854 417.842 299.151 C418.261 299.906 418.692 300.581 419.137 301.175 C419.268 301.364 419.412 301.540 419.569 301.702 C419.726 301.863 419.883 302.026 420.039 302.187 C420.694 302.862 421.381 303.436 422.100 303.908 C422.819 304.381 423.637 304.806 424.552 305.184 C424.866 305.319 425.193 305.433 425.533 305.528 C425.873 305.622 426.226 305.710 426.593 305.791 C426.750 305.845 426.906 305.872 427.063 305.872 C427.221 305.872 427.364 305.899 427.495 305.953 C427.704 305.980 427.907 306.000 428.103 306.014 C428.299 306.027 428.502 306.048 428.712 306.075 C428.764 306.101 428.829 306.101 428.908 306.075 C428.986 306.048 429.052 306.048 429.104 306.075 L429.104 306.075 ZM447.232 305.386 L461.908 305.386 L465.321 305.386 C465.635 305.386 465.936 305.373 466.224 305.346 C466.512 305.319 466.721 305.211 466.852 305.022 C466.904 304.941 466.937 304.846 466.950 304.738 C466.963 304.630 466.996 304.522 467.048 304.414 L467.048 303.969 C467.074 303.780 467.080 303.577 467.068 303.362 C467.054 303.146 467.048 302.943 467.048 302.754 C467.048 302.538 467.054 302.329 467.068 302.127 C467.080 301.924 467.074 301.728 467.048 301.540 C467.022 301.405 467.009 301.202 467.009 300.932 C466.930 300.608 466.800 300.392 466.616 300.284 C466.459 300.176 466.263 300.122 466.028 300.122 C465.792 300.122 465.544 300.122 465.282 300.122 L462.575 300.122 L455.472 300.122 C455.263 300.122 455.021 300.129 454.747 300.143 C454.472 300.156 454.197 300.156 453.923 300.143 C453.648 300.129 453.393 300.102 453.158 300.062 C452.922 300.021 452.752 299.961 452.647 299.879 C452.464 299.745 452.353 299.549 452.314 299.292 C452.274 299.036 452.255 298.746 452.255 298.422 L452.255 296.114 L452.255 294.940 C452.307 294.724 452.359 294.541 452.412 294.393 C452.464 294.245 452.555 294.130 452.687 294.049 C452.843 293.941 453.027 293.880 453.236 293.867 C453.445 293.853 453.668 293.846 453.903 293.846 L456.022 293.846 L462.771 293.846 C462.954 293.846 463.183 293.853 463.457 293.867 C463.732 293.880 464.000 293.880 464.262 293.867 C464.524 293.853 464.766 293.833 464.988 293.806 C465.210 293.779 465.374 293.725 465.479 293.644 C465.609 293.563 465.701 293.401 465.753 293.158 C465.805 292.915 465.838 292.652 465.851 292.368 C465.864 292.085 465.864 291.795 465.851 291.498 C465.838 291.201 465.832 290.945 465.832 290.729 C465.832 290.540 465.832 290.351 465.832 290.162 C465.832 289.973 465.805 289.811 465.753 289.676 C465.701 289.460 465.596 289.285 465.439 289.149 C465.308 289.069 465.132 289.014 464.910 288.988 C464.687 288.961 464.439 288.947 464.164 288.947 C463.889 288.947 463.615 288.954 463.340 288.967 C463.065 288.981 462.836 288.988 462.653 288.988 L455.001 288.988 C454.688 288.988 454.387 288.994 454.099 289.008 C453.811 289.021 453.543 289.008 453.295 288.967 C453.046 288.927 452.837 288.846 452.667 288.724 C452.497 288.603 452.373 288.421 452.294 288.178 C452.268 288.043 452.255 287.901 452.255 287.752 C452.255 287.604 452.255 287.463 452.255 287.328 L452.255 285.789 L452.255 283.521 C452.255 283.197 452.274 282.907 452.314 282.651 C452.353 282.394 452.464 282.199 452.647 282.064 C452.726 281.983 452.824 281.936 452.942 281.922 C453.059 281.909 453.184 281.875 453.314 281.821 L453.707 281.821 C453.837 281.794 453.981 281.787 454.138 281.801 C454.295 281.814 454.439 281.821 454.570 281.821 L456.218 281.821 L463.595 281.821 L465.675 281.821 C465.884 281.821 466.087 281.821 466.283 281.821 C466.479 281.821 466.656 281.780 466.813 281.699 C467.022 281.618 467.166 281.470 467.244 281.254 C467.296 281.119 467.329 280.957 467.342 280.768 C467.355 280.579 467.362 280.377 467.362 280.161 L467.362 278.298 C467.362 277.974 467.349 277.671 467.322 277.387 C467.296 277.104 467.179 276.894 466.970 276.760 C466.813 276.625 466.610 276.557 466.361 276.557 C466.113 276.557 465.844 276.557 465.557 276.557 L462.614 276.557 L450.999 276.557 L447.899 276.557 C447.533 276.557 447.213 276.577 446.938 276.618 C446.663 276.658 446.461 276.786 446.330 277.002 C446.225 277.164 446.173 277.373 446.173 277.630 C446.173 277.887 446.173 278.136 446.173 278.379 L446.173 281.294 L446.173 292.308 L446.173 301.135 L446.173 303.645 C446.173 303.888 446.173 304.131 446.173 304.374 C446.173 304.617 446.225 304.806 446.330 304.941 C446.434 305.130 446.631 305.265 446.918 305.346 C446.971 305.373 447.023 305.380 447.075 305.366 C447.128 305.353 447.180 305.359 447.232 305.386 L447.232 305.386 ZM472.738 305.386 L477.878 305.386 C478.297 305.386 478.722 305.386 479.153 305.386 C479.585 305.386 479.918 305.292 480.154 305.103 C480.337 304.968 480.468 304.772 480.546 304.516 C480.625 304.259 480.703 304.010 480.782 303.767 C480.938 303.335 481.089 302.896 481.233 302.451 C481.377 302.005 481.527 301.553 481.684 301.094 C482.286 299.394 482.855 297.666 483.391 295.911 C483.927 294.157 484.510 292.416 485.137 290.688 C485.346 290.148 485.530 289.595 485.687 289.028 C485.844 288.461 486.027 287.908 486.236 287.368 C486.288 287.233 486.341 287.098 486.393 286.963 C486.445 286.828 486.537 286.720 486.668 286.639 C486.720 286.612 486.772 286.585 486.824 286.558 C486.877 286.531 486.929 286.545 486.981 286.599 C487.191 286.653 487.335 286.815 487.413 287.085 C487.492 287.355 487.570 287.598 487.648 287.813 C487.858 288.434 488.048 289.048 488.217 289.656 C488.387 290.263 488.577 290.877 488.786 291.498 C489.310 293.145 489.833 294.798 490.356 296.458 C490.879 298.118 491.402 299.785 491.925 301.459 C492.057 301.891 492.187 302.316 492.318 302.734 C492.449 303.153 492.579 303.577 492.710 304.010 C492.789 304.226 492.867 304.442 492.946 304.657 C493.024 304.873 493.168 305.049 493.377 305.184 C493.534 305.319 493.737 305.386 493.986 305.386 C494.234 305.386 494.489 305.386 494.751 305.386 L497.301 305.386 L500.009 305.386 C500.244 305.386 500.486 305.386 500.735 305.386 C500.983 305.386 501.173 305.332 501.304 305.224 C501.591 305.062 501.735 304.759 501.735 304.313 C501.735 303.868 501.735 303.416 501.735 302.957 L501.735 296.883 L501.735 281.821 L501.735 278.298 C501.735 278.001 501.729 277.711 501.716 277.428 C501.702 277.144 501.618 276.935 501.461 276.800 C501.304 276.665 501.107 276.591 500.872 276.577 C500.636 276.564 500.375 276.557 500.087 276.557 L498.204 276.557 L497.144 276.557 C496.935 276.611 496.759 276.651 496.615 276.678 C496.471 276.706 496.346 276.800 496.242 276.962 C496.137 277.097 496.085 277.272 496.085 277.488 C496.085 277.704 496.085 277.934 496.085 278.176 L496.085 280.242 L496.085 290.648 C496.059 291.026 496.046 291.383 496.046 291.721 C496.046 292.058 496.046 292.402 496.046 292.753 C496.046 292.969 496.052 293.192 496.065 293.421 C496.078 293.651 496.059 293.873 496.006 294.089 C495.954 294.279 495.928 294.481 495.928 294.697 C495.928 294.913 495.849 295.048 495.692 295.102 C495.614 295.129 495.555 295.115 495.516 295.061 C495.477 295.007 495.444 294.967 495.418 294.940 C495.313 294.832 495.228 294.703 495.163 294.555 C495.097 294.407 495.039 294.265 494.986 294.130 C494.829 293.725 494.679 293.307 494.535 292.875 C494.391 292.443 494.241 292.011 494.084 291.579 C494.031 291.417 493.986 291.255 493.946 291.093 C493.907 290.931 493.848 290.769 493.770 290.607 C493.639 290.256 493.521 289.905 493.417 289.555 C493.312 289.204 493.194 288.853 493.063 288.502 C493.011 288.421 492.985 288.333 492.985 288.238 C492.985 288.144 492.959 288.056 492.907 287.975 C492.802 287.732 492.717 287.476 492.651 287.206 C492.586 286.936 492.488 286.666 492.357 286.396 C492.253 286.153 492.168 285.897 492.102 285.627 C492.037 285.357 491.952 285.087 491.847 284.817 C491.533 284.034 491.258 283.245 491.023 282.448 C490.787 281.652 490.526 280.863 490.238 280.080 C490.186 279.999 490.160 279.918 490.160 279.837 C490.160 279.756 490.134 279.675 490.081 279.594 C489.950 279.297 489.846 278.993 489.767 278.683 C489.689 278.372 489.584 278.069 489.453 277.772 C489.375 277.583 489.303 277.408 489.238 277.245 C489.172 277.084 489.074 276.949 488.943 276.841 C488.812 276.733 488.682 276.672 488.551 276.658 C488.420 276.645 488.263 276.611 488.080 276.557 L487.178 276.557 C486.994 276.557 486.779 276.550 486.530 276.537 C486.281 276.523 486.033 276.517 485.785 276.517 C485.536 276.517 485.307 276.530 485.098 276.557 C484.889 276.584 484.732 276.638 484.627 276.719 C484.418 276.854 484.274 277.009 484.195 277.185 C484.117 277.360 484.025 277.569 483.921 277.812 C483.790 278.136 483.679 278.467 483.587 278.804 C483.496 279.142 483.385 279.472 483.254 279.796 L483.136 280.161 C483.005 280.485 482.888 280.829 482.783 281.193 C482.678 281.558 482.560 281.902 482.430 282.226 C482.404 282.307 482.384 282.381 482.371 282.448 C482.358 282.516 482.338 282.590 482.312 282.671 C482.181 282.914 482.077 283.171 481.998 283.440 C481.920 283.710 481.828 283.980 481.723 284.250 C481.697 284.304 481.677 284.372 481.665 284.453 C481.651 284.534 481.632 284.601 481.605 284.655 C481.501 284.925 481.416 285.195 481.351 285.465 C481.285 285.735 481.187 286.005 481.056 286.275 C480.847 286.815 480.651 287.382 480.468 287.975 C480.285 288.569 480.088 289.149 479.879 289.716 C479.644 290.391 479.421 291.080 479.212 291.781 C479.003 292.483 478.754 293.158 478.466 293.806 C478.336 294.184 478.192 294.494 478.035 294.737 C477.983 294.791 477.930 294.839 477.878 294.879 C477.826 294.919 477.760 294.913 477.682 294.859 C477.551 294.778 477.486 294.643 477.486 294.454 C477.486 294.265 477.459 294.076 477.407 293.887 C477.355 293.698 477.335 293.502 477.348 293.300 C477.361 293.097 477.368 292.888 477.368 292.672 C477.368 292.375 477.368 292.079 477.368 291.781 C477.368 291.485 477.355 291.188 477.329 290.891 L477.329 280.120 L477.329 278.136 C477.329 277.920 477.329 277.704 477.329 277.488 C477.329 277.272 477.276 277.097 477.171 276.962 C477.067 276.773 476.871 276.651 476.583 276.598 C476.400 276.543 476.204 276.523 475.995 276.537 C475.785 276.550 475.576 276.557 475.367 276.557 L473.326 276.557 C473.039 276.557 472.777 276.564 472.541 276.577 C472.306 276.591 472.110 276.665 471.953 276.800 C471.796 276.935 471.704 277.144 471.678 277.428 C471.652 277.711 471.639 278.001 471.639 278.298 L471.639 281.861 L471.639 296.924 L471.639 302.592 C471.639 302.754 471.639 302.950 471.639 303.180 C471.639 303.409 471.639 303.632 471.639 303.848 C471.639 304.063 471.652 304.273 471.678 304.475 C471.704 304.678 471.744 304.833 471.796 304.941 C471.901 305.130 472.110 305.265 472.424 305.346 C472.476 305.373 472.528 305.380 472.581 305.366 C472.633 305.353 472.685 305.359 472.738 305.386 L472.738 305.386 ZM508.249 305.386 L522.924 305.386 L526.338 305.386 C526.652 305.386 526.953 305.373 527.241 305.346 C527.528 305.319 527.738 305.211 527.869 305.022 C527.921 304.941 527.954 304.846 527.967 304.738 C527.980 304.630 528.013 304.522 528.065 304.414 L528.065 303.969 C528.091 303.780 528.097 303.577 528.084 303.362 C528.071 303.146 528.065 302.943 528.065 302.754 C528.065 302.538 528.071 302.329 528.084 302.127 C528.097 301.924 528.091 301.728 528.065 301.540 C528.039 301.405 528.026 301.202 528.026 300.932 C527.947 300.608 527.816 300.392 527.633 300.284 C527.476 300.176 527.280 300.122 527.044 300.122 C526.809 300.122 526.561 300.122 526.299 300.122 L523.592 300.122 L516.489 300.122 C516.280 300.122 516.038 300.129 515.764 300.143 C515.489 300.156 515.214 300.156 514.939 300.143 C514.664 300.129 514.410 300.102 514.174 300.062 C513.939 300.021 513.769 299.961 513.664 299.879 C513.481 299.745 513.370 299.549 513.331 299.292 C513.291 299.036 513.272 298.746 513.272 298.422 L513.272 296.114 L513.272 294.940 C513.324 294.724 513.376 294.541 513.429 294.393 C513.481 294.245 513.572 294.130 513.703 294.049 C513.860 293.941 514.043 293.880 514.253 293.867 C514.462 293.853 514.684 293.846 514.920 293.846 L517.038 293.846 L523.788 293.846 C523.971 293.846 524.200 293.853 524.474 293.867 C524.749 293.880 525.017 293.880 525.279 293.867 C525.540 293.853 525.782 293.833 526.005 293.806 C526.227 293.779 526.391 293.725 526.495 293.644 C526.626 293.563 526.717 293.401 526.770 293.158 C526.822 292.915 526.855 292.652 526.868 292.368 C526.881 292.085 526.881 291.795 526.868 291.498 C526.855 291.201 526.848 290.945 526.848 290.729 C526.848 290.540 526.848 290.351 526.848 290.162 C526.848 289.973 526.822 289.811 526.770 289.676 C526.717 289.460 526.613 289.285 526.456 289.149 C526.325 289.069 526.149 289.014 525.926 288.988 C525.704 288.961 525.455 288.947 525.181 288.947 C524.906 288.947 524.631 288.954 524.357 288.967 C524.082 288.981 523.853 288.988 523.670 288.988 L516.018 288.988 C515.705 288.988 515.404 288.994 515.116 289.008 C514.828 289.021 514.560 289.008 514.312 288.967 C514.063 288.927 513.854 288.846 513.684 288.724 C513.514 288.603 513.389 288.421 513.311 288.178 C513.285 288.043 513.272 287.901 513.272 287.752 C513.272 287.604 513.272 287.463 513.272 287.328 L513.272 285.789 L513.272 283.521 C513.272 283.197 513.291 282.907 513.331 282.651 C513.370 282.394 513.481 282.199 513.664 282.064 C513.742 281.983 513.841 281.936 513.958 281.922 C514.076 281.909 514.200 281.875 514.331 281.821 L514.724 281.821 C514.854 281.794 514.998 281.787 515.155 281.801 C515.312 281.814 515.456 281.821 515.587 281.821 L517.235 281.821 L524.612 281.821 L526.691 281.821 C526.901 281.821 527.104 281.821 527.300 281.821 C527.496 281.821 527.672 281.780 527.829 281.699 C528.039 281.618 528.182 281.470 528.261 281.254 C528.313 281.119 528.346 280.957 528.359 280.768 C528.372 280.579 528.379 280.377 528.379 280.161 L528.379 278.298 C528.379 277.974 528.366 277.671 528.339 277.387 C528.313 277.104 528.196 276.894 527.986 276.760 C527.829 276.625 527.626 276.557 527.378 276.557 C527.130 276.557 526.861 276.557 526.573 276.557 L523.630 276.557 L512.016 276.557 L508.916 276.557 C508.550 276.557 508.229 276.577 507.955 276.618 C507.680 276.658 507.478 276.786 507.346 277.002 C507.242 277.164 507.190 277.373 507.190 277.630 C507.190 277.887 507.190 278.136 507.190 278.379 L507.190 281.294 L507.190 292.308 L507.190 301.135 L507.190 303.645 C507.190 303.888 507.190 304.131 507.190 304.374 C507.190 304.617 507.242 304.806 507.346 304.941 C507.451 305.130 507.648 305.265 507.935 305.346 C507.987 305.373 508.040 305.380 508.092 305.366 C508.144 305.353 508.197 305.359 508.249 305.386 L508.249 305.386 ZM533.715 305.386 L536.894 305.386 C537.181 305.386 537.462 305.393 537.737 305.406 C538.012 305.420 538.254 305.373 538.463 305.265 C538.725 305.157 538.928 304.995 539.071 304.779 C539.215 304.563 539.353 304.347 539.483 304.131 L540.896 301.823 C541.811 300.284 542.733 298.753 543.662 297.227 C544.591 295.702 545.513 294.171 546.429 292.632 C546.873 291.903 547.311 291.167 547.743 290.425 C548.175 289.683 548.626 288.961 549.097 288.259 C549.202 288.097 549.300 287.935 549.391 287.773 C549.483 287.611 549.607 287.463 549.764 287.328 C549.816 287.274 549.882 287.220 549.960 287.166 C550.039 287.112 550.117 287.112 550.196 287.166 C550.379 287.220 550.470 287.341 550.470 287.530 C550.470 287.719 550.496 287.921 550.549 288.137 C550.575 288.326 550.581 288.536 550.568 288.765 C550.555 288.994 550.549 289.217 550.549 289.433 L550.549 291.984 L550.549 301.377 L550.549 302.916 C550.549 303.051 550.542 303.186 550.529 303.321 C550.516 303.456 550.523 303.577 550.549 303.685 L550.549 304.131 C550.549 304.509 550.627 304.806 550.784 305.022 C550.915 305.211 551.091 305.319 551.314 305.346 C551.536 305.373 551.791 305.386 552.079 305.386 L554.473 305.386 C554.682 305.386 554.891 305.386 555.100 305.386 C555.310 305.386 555.493 305.359 555.650 305.305 C555.990 305.170 556.173 304.934 556.199 304.597 C556.226 304.259 556.238 303.861 556.238 303.402 L556.238 298.948 L556.238 281.983 L556.238 278.582 C556.238 278.284 556.245 277.988 556.258 277.691 C556.271 277.394 556.226 277.164 556.121 277.002 C556.016 276.841 555.892 276.739 555.748 276.699 C555.604 276.658 555.427 276.611 555.218 276.557 L553.845 276.557 L551.687 276.557 C551.451 276.557 551.222 276.557 551.000 276.557 C550.778 276.557 550.588 276.598 550.431 276.678 C550.143 276.814 549.921 276.996 549.764 277.225 C549.607 277.455 549.450 277.704 549.293 277.974 C549.058 278.352 548.829 278.737 548.607 279.128 C548.384 279.520 548.155 279.904 547.920 280.282 L542.034 290.000 C541.668 290.621 541.308 291.221 540.955 291.801 C540.601 292.382 540.242 292.983 539.876 293.603 C539.745 293.792 539.595 294.029 539.425 294.312 C539.255 294.596 539.026 294.737 538.738 294.737 C538.528 294.548 538.417 294.332 538.404 294.089 C538.391 293.846 538.385 293.536 538.385 293.158 L538.385 290.324 L538.385 280.647 L538.385 279.067 C538.385 278.933 538.391 278.798 538.404 278.663 C538.417 278.527 538.398 278.392 538.345 278.258 L538.345 277.812 C538.345 277.380 538.280 277.070 538.149 276.881 C538.018 276.719 537.842 276.625 537.620 276.598 C537.397 276.570 537.142 276.557 536.854 276.557 L534.461 276.557 C534.252 276.557 534.042 276.557 533.833 276.557 C533.624 276.557 533.441 276.584 533.284 276.638 C532.943 276.773 532.754 277.016 532.715 277.367 C532.675 277.718 532.656 278.123 532.656 278.582 L532.656 283.238 L532.656 299.475 L532.656 303.240 C532.656 303.537 532.656 303.848 532.656 304.171 C532.656 304.495 532.708 304.752 532.812 304.941 C532.917 305.130 533.101 305.265 533.362 305.346 C533.414 305.346 533.473 305.353 533.539 305.366 C533.604 305.380 533.663 305.386 533.715 305.386 L533.715 305.386 ZM560.594 305.386 L576.289 305.386 L580.292 305.386 C580.632 305.386 580.965 305.380 581.292 305.366 C581.619 305.353 581.888 305.278 582.097 305.143 C582.175 305.089 582.234 305.002 582.273 304.880 C582.313 304.759 582.345 304.630 582.371 304.495 L582.371 304.293 C582.398 304.185 582.411 304.063 582.411 303.928 C582.411 303.793 582.411 303.659 582.411 303.524 L582.411 301.945 C582.411 301.756 582.417 301.573 582.430 301.398 C582.443 301.223 582.424 301.054 582.371 300.892 C582.241 300.433 581.979 300.190 581.587 300.163 C581.194 300.136 580.723 300.122 580.174 300.122 L576.172 300.122 C575.649 300.122 575.197 300.102 574.818 300.062 C574.439 300.021 574.184 299.771 574.053 299.312 C574.027 299.178 574.027 299.056 574.053 298.948 C574.079 298.840 574.066 298.719 574.014 298.584 C573.987 298.422 573.981 298.240 573.994 298.037 C574.007 297.835 574.014 297.652 574.014 297.491 L574.014 293.887 L574.014 282.226 L574.014 278.420 C574.014 277.988 573.994 277.617 573.955 277.306 C573.915 276.996 573.752 276.773 573.464 276.638 C573.281 276.584 573.072 276.557 572.837 276.557 C572.601 276.557 572.379 276.557 572.169 276.557 L569.501 276.557 C569.213 276.557 568.945 276.570 568.697 276.598 C568.448 276.625 568.259 276.719 568.128 276.881 C567.997 277.097 567.932 277.373 567.932 277.711 C567.932 278.048 567.932 278.392 567.932 278.743 L567.932 282.793 L567.932 294.049 L567.932 297.491 C567.932 297.680 567.938 297.875 567.951 298.078 C567.964 298.280 567.944 298.462 567.892 298.624 C567.866 298.759 567.866 298.881 567.892 298.989 C567.918 299.097 567.906 299.205 567.853 299.312 C567.722 299.771 567.454 300.021 567.049 300.062 C566.643 300.102 566.166 300.122 565.616 300.122 L561.967 300.122 C561.679 300.122 561.359 300.116 561.006 300.102 C560.653 300.089 560.371 300.109 560.162 300.163 C559.953 300.244 559.796 300.365 559.691 300.527 C559.613 300.662 559.567 300.838 559.554 301.054 C559.541 301.269 559.534 301.486 559.534 301.702 L559.534 303.685 C559.534 304.036 559.554 304.347 559.593 304.617 C559.633 304.887 559.757 305.089 559.966 305.224 C560.045 305.278 560.188 305.332 560.398 305.386 C560.528 305.386 560.594 305.386 560.594 305.386 Z"/>
<path fill="#ffa700" fill-rule="evenodd" d="M594.889 305.993 C599.964 306.075 603.456 304.522 605.365 301.337 C605.627 300.905 605.830 300.460 605.974 300.001 C606.118 299.542 606.255 299.043 606.386 298.503 C606.438 298.287 606.458 298.037 606.445 297.754 C606.432 297.470 606.373 297.261 606.268 297.126 C606.137 296.964 605.954 296.863 605.719 296.823 C605.483 296.782 605.221 296.762 604.934 296.762 L602.462 296.762 C602.226 296.762 601.991 296.762 601.756 296.762 C601.520 296.762 601.324 296.789 601.167 296.843 C600.853 296.978 600.657 297.194 600.579 297.491 C600.500 297.788 600.395 298.084 600.265 298.381 C600.160 298.651 600.016 298.935 599.833 299.232 C599.650 299.529 599.454 299.758 599.244 299.920 C598.878 300.190 598.525 300.419 598.185 300.608 C597.871 300.743 597.485 300.858 597.027 300.953 C596.570 301.047 596.099 301.108 595.615 301.135 C595.131 301.162 594.653 301.148 594.183 301.094 C593.711 301.040 593.293 300.932 592.927 300.770 C592.325 300.500 591.861 300.183 591.534 299.819 C591.207 299.454 590.978 298.908 590.847 298.179 C590.795 297.990 590.782 297.781 590.808 297.551 C590.834 297.322 590.873 297.140 590.926 297.005 C591.135 296.438 591.429 296.040 591.808 295.810 C592.188 295.581 592.639 295.358 593.162 295.142 C593.450 295.007 593.744 294.906 594.045 294.839 C594.346 294.771 594.653 294.683 594.967 294.575 C595.674 294.332 596.399 294.123 597.145 293.948 C597.891 293.772 598.630 293.577 599.362 293.361 C599.493 293.307 599.624 293.279 599.755 293.279 C599.885 293.279 600.016 293.253 600.147 293.199 C600.670 293.010 601.213 292.834 601.775 292.672 C602.338 292.510 602.841 292.281 603.286 291.984 C603.992 291.525 604.600 291.066 605.111 290.607 C605.621 290.148 606.098 289.555 606.543 288.826 C606.674 288.610 606.785 288.367 606.876 288.097 C606.968 287.827 607.066 287.557 607.171 287.287 C607.197 287.206 607.210 287.132 607.210 287.064 C607.210 286.997 607.223 286.936 607.249 286.882 C607.354 286.450 607.406 285.910 607.406 285.263 C607.458 285.128 607.458 284.992 607.406 284.858 L607.406 284.129 C607.354 283.832 607.308 283.548 607.269 283.278 C607.230 283.009 607.171 282.739 607.092 282.469 C606.935 281.983 606.765 281.537 606.582 281.132 C606.399 280.727 606.177 280.336 605.915 279.958 C605.810 279.823 605.706 279.709 605.601 279.614 C605.496 279.520 605.405 279.405 605.326 279.270 C605.195 279.108 605.052 278.953 604.895 278.804 C604.738 278.656 604.568 278.514 604.385 278.379 C604.254 278.271 604.117 278.163 603.973 278.055 C603.829 277.947 603.678 277.839 603.522 277.731 C603.077 277.434 602.612 277.192 602.128 277.002 C601.644 276.814 601.141 276.625 600.617 276.435 C600.251 276.301 599.872 276.213 599.480 276.172 C599.088 276.132 598.695 276.071 598.303 275.990 C598.119 275.936 597.943 275.916 597.773 275.930 C597.603 275.943 597.439 275.923 597.283 275.869 L596.968 275.869 C596.916 275.869 596.844 275.875 596.753 275.889 C596.661 275.903 596.589 275.896 596.537 275.869 C596.406 275.842 596.183 275.828 595.870 275.828 C595.556 275.828 595.334 275.842 595.203 275.869 L594.810 275.869 C594.627 275.923 594.438 275.943 594.241 275.930 C594.045 275.916 593.869 275.936 593.711 275.990 C593.581 275.990 593.463 275.997 593.359 276.010 C593.254 276.024 593.136 276.044 593.005 276.071 C592.692 276.152 592.364 276.219 592.024 276.274 C591.684 276.327 591.371 276.409 591.083 276.517 C589.801 276.949 588.676 277.495 587.708 278.156 C586.740 278.818 585.929 279.688 585.275 280.768 C584.857 281.416 584.530 282.185 584.294 283.076 C584.242 283.238 584.209 283.400 584.196 283.562 C584.183 283.724 584.150 283.899 584.098 284.088 C584.046 284.304 584.006 284.567 583.980 284.878 C583.954 285.188 584.006 285.424 584.137 285.586 C584.268 285.802 584.458 285.931 584.706 285.971 C584.955 286.012 585.236 286.032 585.550 286.032 L588.022 286.032 C588.231 286.032 588.454 286.032 588.689 286.032 C588.925 286.032 589.134 285.991 589.317 285.910 C589.605 285.775 589.775 285.553 589.827 285.242 C589.879 284.932 589.971 284.615 590.101 284.291 C590.206 283.967 590.337 283.670 590.494 283.400 C590.651 283.130 590.821 282.873 591.004 282.631 C591.135 282.469 591.279 282.320 591.436 282.185 C591.593 282.050 591.750 281.929 591.907 281.821 C592.482 281.443 593.188 281.132 594.025 280.890 C594.209 280.835 594.385 280.808 594.555 280.808 C594.725 280.808 594.915 280.782 595.124 280.727 L595.320 280.727 C595.530 280.674 595.817 280.647 596.183 280.647 C596.550 280.647 596.838 280.674 597.047 280.727 C597.125 280.755 597.256 280.768 597.439 280.768 C597.570 280.795 597.707 280.815 597.851 280.829 C597.995 280.842 598.133 280.876 598.263 280.930 C599.153 281.173 599.859 281.497 600.382 281.902 C600.905 282.307 601.272 282.981 601.481 283.926 C601.533 284.115 601.540 284.331 601.500 284.574 C601.461 284.817 601.416 285.006 601.363 285.141 C601.102 285.870 600.657 286.437 600.029 286.841 C599.951 286.896 599.807 286.977 599.598 287.085 C599.205 287.328 598.767 287.523 598.283 287.672 C597.799 287.820 597.322 287.975 596.851 288.137 C596.668 288.191 596.491 288.238 596.321 288.279 C596.151 288.320 595.961 288.367 595.752 288.421 C595.334 288.556 594.909 288.670 594.477 288.765 C594.045 288.860 593.633 288.974 593.241 289.109 C593.110 289.163 593.005 289.190 592.927 289.190 C592.848 289.190 592.757 289.217 592.652 289.271 C592.443 289.325 592.253 289.379 592.083 289.433 C591.913 289.487 591.723 289.541 591.514 289.595 C590.913 289.811 590.337 290.034 589.788 290.263 C589.239 290.493 588.728 290.756 588.258 291.053 C587.656 291.457 587.106 291.930 586.609 292.470 C586.112 293.010 585.720 293.630 585.432 294.332 C585.328 294.575 585.249 294.825 585.197 295.082 C585.144 295.338 585.079 295.614 585.001 295.911 C584.948 296.154 584.909 296.505 584.883 296.964 C584.857 297.423 584.870 297.801 584.922 298.098 C584.948 298.206 584.961 298.368 584.961 298.584 C585.040 298.881 585.105 299.164 585.158 299.434 C585.210 299.704 585.288 299.974 585.393 300.244 C585.785 301.189 586.289 301.992 586.904 302.653 C587.518 303.315 588.231 303.915 589.042 304.455 C589.566 304.779 590.128 305.035 590.730 305.224 C591.331 305.413 591.972 305.589 592.652 305.751 C592.914 305.805 593.169 305.838 593.417 305.852 C593.666 305.865 593.921 305.899 594.183 305.953 C594.261 305.980 594.385 305.980 594.555 305.953 C594.725 305.926 594.837 305.940 594.889 305.993 Z"/>
</g></svg>