<svg xmlns="http://www.w3.org/2000/svg" viewBox="0 0 608.045 422.390" width="608.0" height="422.4">
<g transform="matrix(1 0 0 -1 -5.214 717.593)">
<path fill="#763c4b" fill-rule="evenodd" d="M389.976 716.183 L393.385 712.729 C451.876 653.463 451.241 557.116 391.974 498.625 L341.631 448.940 L393.933 395.944 L347.437 395.815 L318.012 425.631 L287.634 395.650 L248.113 395.541 L244.323 399.380 L294.777 449.174 L318.396 472.484 L368.120 521.557 C414.127 566.962 414.619 641.752 369.214 687.760 L364.080 692.961 C318.675 738.969 243.885 739.461 197.878 694.056 L70.236 568.085 C24.229 522.679 23.736 447.889 69.141 401.882 L74.275 396.680 C74.816 396.132 75.365 395.598 75.914 395.063 L33.023 394.944 C-10.508 454.397 -5.134 538.956 48.793 592.178 L175.871 717.593 C235.138 776.084 331.485 775.450 389.976 716.183 Z"/>
<path fill="#b1407d" fill-rule="evenodd" d="M364.080 692.961 C318.675 738.969 243.885 739.461 197.878 694.056 L70.236 568.085 C24.229 522.679 23.736 447.889 69.141 401.882 L74.275 396.680 C74.816 396.132 75.365 395.598 75.914 395.063 L157.029 395.287 C136.086 395.450 115.204 403.542 99.421 419.534 L93.307 425.731 C61.691 457.765 62.034 509.842 94.069 541.457 L224.189 669.874 C256.223 701.490 308.300 701.147 339.915 669.112 L346.031 662.916 C377.646 630.882 377.303 578.805 345.268 547.189 L270.687 473.584 L245.897 449.119 L220.233 423.790 L244.323 399.380 L269.988 424.709 L298.637 395.680 L347.437 395.815 L294.777 449.174 L368.120 521.557 C414.127 566.962 414.619 641.752 369.214 687.760 L364.080 692.961 L364.080 692.961 ZM167.418 395.867 C166.865 395.801 166.311 395.741 165.757 395.686 C166.311 395.741 166.865 395.801 167.418 395.867 L167.418 395.867 ZM163.591 395.503 C162.992 395.460 162.392 395.423 161.792 395.393 C162.392 395.423 162.992 395.460 163.591 395.503 L163.591 395.503 ZM161.616 395.384 C160.576 395.334 159.537 395.303 158.499 395.292 L157.798 395.289 C159.072 395.292 160.345 395.323 161.616 395.384 Z"/>
<path fill="#4ac1e1" fill-rule="evenodd" d="M245.897 449.119 L298.637 395.680 L248.113 395.540 L220.233 423.790 L215.148 418.772 C199.479 403.309 179.018 395.496 158.499 395.292 L156.973 395.287 C136.050 395.464 115.190 403.557 99.421 419.534 L93.307 425.731 C61.691 457.765 62.034 509.842 94.069 541.457 L224.189 669.874 C256.223 701.490 308.300 701.147 339.915 669.112 L346.031 662.916 C377.646 630.882 377.303 578.805 345.268 547.189 L245.897 449.119 L245.897 449.119 ZM195.161 449.195 L220.825 474.523 L316.479 568.925 C336.245 588.433 336.457 620.564 316.949 640.331 L316.949 640.331 C297.441 660.097 265.310 660.309 245.543 640.801 L122.239 519.110 C102.472 499.603 102.261 467.471 121.768 447.704 L121.768 447.704 C141.276 427.938 173.408 427.726 193.174 447.234 L195.161 449.195 Z"/>
<path fill="#763c4b" fill-rule="evenodd" d="M5.214 377.603 L5.214 295.203 L42.869 295.203 L42.869 311.988 L21.320 311.988 L21.320 361.036 L42.869 361.036 L42.869 377.603 L5.214 377.603 Z"/>
<path fill="#763c4b" fill-rule="evenodd" d="M84.481 377.603 L97.029 377.603 C111.177 377.603 122.752 366.028 122.752 351.880 L122.752 320.926 C122.752 317.786 122.179 314.776 121.137 311.988 L131.241 311.988 L131.241 295.203 L97.029 295.203 L91.844 295.203 L84.481 295.203 C70.334 295.203 58.759 306.778 58.759 320.926 L58.759 351.880 C58.759 366.028 70.334 377.603 84.481 377.603 L84.481 377.603 ZM85.331 361.036 C78.976 361.036 73.778 355.837 73.778 349.482 L73.778 323.541 C73.778 317.186 78.976 311.988 85.331 311.988 L91.844 311.988 L95.527 311.988 C101.882 311.988 107.080 317.186 107.080 323.541 L107.080 349.482 C107.080 355.837 101.882 361.036 95.527 361.036 L85.331 361.036 Z"/>
<path fill="#763c4b" fill-rule="evenodd" d="M143.866 295.204 L159.755 295.204 L159.755 377.603 L143.866 377.603 L143.866 295.204 Z"/>
<path fill="#763c4b" fill-rule="evenodd" d="M198.717 320.490 L213.627 295.203 L233.652 295.203 L215.279 321.451 C225.421 324.402 232.891 333.807 232.891 344.869 L232.891 353.224 C232.891 366.632 221.920 377.603 208.512 377.603 L195.017 377.603 L187.181 377.603 L183.259 377.603 L170.638 377.603 L170.638 295.203 L187.181 295.203 L187.181 320.490 L195.017 320.490 L198.717 320.490 L198.717 320.490 ZM187.181 361.036 L206.444 361.036 C212.131 361.036 216.784 356.382 216.784 350.696 L216.784 345.434 C216.784 339.748 212.130 335.095 206.444 335.095 L187.181 335.095 L187.181 361.036 Z"/>
<path fill="#763c4b" fill-rule="evenodd" d="M260.099 311.988 L290.571 311.988 L290.571 295.203 L260.099 295.203 L241.597 295.203 L241.597 311.988 L241.597 329.368 L241.597 345.461 L241.597 361.036 L241.597 377.603 L260.099 377.603 L290.571 377.603 L290.571 361.036 L260.099 361.036 L260.099 345.461 L290.571 345.461 L290.571 329.368 L260.099 329.368 L260.099 311.988 Z"/>
<path fill="#763c4b" fill-rule="evenodd" d="M304.502 311.988 L314.874 311.988 L328.032 333.150 L311.038 361.036 L304.502 361.036 L304.502 377.603 L321.046 377.603 L340.635 345.461 L347.423 345.461 L367.408 377.603 L383.950 377.603 L383.950 361.036 L378.400 361.036 L361.437 333.754 L374.703 311.988 L383.950 311.988 L383.950 295.203 L363.598 295.203 L343.933 329.368 L325.833 295.203 L304.502 295.203 L304.502 311.988 Z"/>
<path fill="#763c4b" fill-rule="evenodd" d="M385.909 329.368 L417.688 329.368 L417.688 345.461 L385.909 345.461 L385.909 329.368 Z"/>
<path fill="#763c4b" fill-rule="evenodd" d="M456.067 320.490 L470.976 295.203 L491.001 295.203 L472.628 321.451 C482.771 324.402 490.240 333.807 490.240 344.869 L490.240 353.224 C490.240 366.632 479.269 377.603 465.861 377.603 L452.366 377.603 L444.531 377.603 L440.608 377.603 L427.988 377.603 L427.988 295.203 L444.531 295.203 L444.531 320.490 L452.366 320.490 L456.067 320.490 L456.067 320.490 ZM444.531 361.036 L463.793 361.036 C469.481 361.036 474.133 356.382 474.133 350.696 L474.133 345.434 C474.133 339.748 469.479 335.095 463.793 335.095 L444.531 335.095 L444.531 361.036 Z"/>
<path fill="#763c4b" fill-rule="evenodd" d="M534.536 377.603 L516.199 377.603 C514.720 377.603 512.853 377.672 511.006 377.603 L499.094 377.603 L499.094 295.203 L503.424 295.203 L511.066 295.203 L521.988 295.203 L527.173 295.203 L534.536 295.203 C548.684 295.203 560.258 306.778 560.258 320.926 L560.258 351.880 C560.258 366.028 548.684 377.603 534.536 377.603 L534.536 377.603 ZM533.686 361.036 C540.041 361.036 545.240 355.837 545.240 349.482 L545.240 323.541 C545.240 317.186 540.041 311.988 533.686 311.988 L527.173 311.988 L516.199 311.988 L516.199 361.036 L533.686 361.036 Z"/>
<path fill="#763c4b" fill-rule="evenodd" d="M613.259 377.603 L613.259 295.203 L575.603 295.203 L575.603 311.988 L597.152 311.988 L597.152 361.036 L575.603 361.036 L575.603 377.603 L613.259 377.603 Z"/>
</g></svg>