<svg xmlns="http://www.w3.org/2000/svg" viewBox="0 0 916.179 582.972" width="916.2" height="583.0">
<g transform="matrix(1 0 0 -1 77.677 731.805)">
<path fill="#000000" fill-rule="evenodd" d="M-66.756 665.358 L-66.342 646.246 L-77.542 642.923 L-77.677 627.317 L-68.561 621.289 L113.755 628.178 L128.671 623.011 L214.857 629.039 L214.857 655.732 L143.588 660.037 L14.310 659.176 L14.310 660.536 L14.310 695.342 L143.588 694.513 L214.857 698.657 L214.857 724.347 L128.671 730.148 L113.755 725.175 L-68.561 731.805 L-77.677 726.004 L-77.542 710.398 L-66.342 707.075 L-66.756 687.963 L-74.224 684.639 L-74.224 682.807 L-74.224 669.579 L-74.224 668.682 L-66.756 665.358 Z"/>
<path fill="#000000" fill-rule="evenodd" d="M339.620 236.452 L339.620 214.905 L367.796 207.447 L357.852 197.502 L398.458 148.833 L449.838 148.833 L492.102 205.789 L679.390 219.877 L695.136 198.331 L820.271 214.076 L838.502 229.822 L838.502 236.452 L838.502 243.081 L820.271 258.827 L695.136 274.572 L679.390 253.026 L492.102 267.114 L449.838 324.070 L398.458 324.070 L357.852 275.401 L367.796 265.456 L339.620 257.998 L339.620 236.452 Z"/>
<path fill="#000000" fill-rule="evenodd" d="M101.029 460.378 L101.029 455.508 L126.334 451.768 C129.687 450.973 132.835 448.201 129.238 444.706 L101.143 420.876 C89.716 410.570 101.783 390.677 118.465 401.689 L163.748 434.641 C168.952 438.428 163.331 440.265 159.254 437.562 C156.537 435.760 155.703 436.031 153.808 438.129 C145.143 447.667 148.214 451.536 151.641 451.768 L168.234 451.768 L260.743 399.005 L459.452 440.967 L460.696 450.523 L292.271 450.523 L292.271 460.378 L292.271 470.235 L460.696 470.235 L459.452 479.790 L260.743 521.752 L168.234 468.989 L151.641 468.989 C148.214 469.221 145.143 473.090 153.808 482.628 C155.703 484.727 156.537 484.997 159.254 483.195 C163.331 480.492 168.952 482.329 163.748 486.116 L118.465 519.068 C101.783 530.080 89.716 510.187 101.143 499.881 L129.238 476.051 C132.835 472.556 129.687 469.784 126.334 468.989 L101.029 465.250 L101.029 460.378 Z"/>
</g></svg>