<svg xmlns="http://www.w3.org/2000/svg" viewBox="185.50 11.75 47.75 45.50" width="48" height="46">
<g id="AG_systems">
	<g>
		<polygon fill="#0FB2E1" points="196.438,15.875 189.594,15.875 189.594,22.75 189.594,34.25 189.594,40.25 189.594,41.125     219.406,41.125 219.406,34.25 196.438,34.25 196.438,22.75 219.406,22.75 219.406,15.875   "/>
		<rect x="203.375" y="24.938" fill="#92D2ED" width="16.031" height="6.875"/>
	</g>
	<polygon fill="#DC3F2B" points="219.406,42.417 189.594,42.417 189.594,49.083 194.417,49.083 194.417,53.167 201.25,53.167    201.25,49.083 205.34,49.083 209.458,53.167 219.208,53.167 215.09,49.083 219.406,49.083  "/>
	<rect x="224" y="27.281" fill="#231E1F" width="2.167" height="4.531"/>
	<g>
		<rect x="221.523" y="15.875" fill="#231E1F" width="1.809" height="9.063"/>
		<polygon fill="#231E1F" points="226.833,15.875 226.167,15.875 224,15.875 224,17.938 224,24.938 226.167,24.938 226.167,17.938     226.833,17.938 226.833,24.938 229.083,24.938 229.083,17.938 229.083,15.875   "/>
	</g>
	<polygon fill="#231E1F" points="226.833,33.708 226.833,40.625 226.167,40.625 226.167,33.708 224,33.708 224,40.625    223.332,40.625 223.332,33.708 221.523,33.708 221.523,40.625 221.523,42.771 223.332,42.771 224,42.771 226.167,42.771    226.833,42.771 229.083,42.771 229.083,40.625 229.083,33.708  "/>
	<g>
		<rect x="221.523" y="44.104" fill="#231E1F" width="1.809" height="9.063"/>
		<path fill="#231E1F" d="M226.833,44.104h-0.667H224v2.083v4.938v2.042h2.167h0.667h2.25v-2.042v-4.938v-2.083H226.833z     M226.833,51.125h-0.667v-4.938h0.667V51.125z"/>
	</g>
</g>
</svg>