<svg xmlns="http://www.w3.org/2000/svg" viewBox="776.50 11.25 44.75 49.75" width="45" height="50">
<g id="ASSEGAI_DEVELOPMENTS">
	<polygon fill="#46A8D3" points="797.787,33.706 790.12,33.706 790.12,25.873 798.12,25.873 806.745,34.498 806.745,43.373    817.037,43.373 817.037,32.623 799.87,15.457 780.537,15.457 780.537,43.373 797.953,43.373 797.953,45.54 806.203,38.04    797.87,30.498  "/>
	<path fill="#BCB676" d="M784.326,48.092h-2.644l-1.146,1.135v3.229v0.708h0.708h3.479h0.708v-0.708v-3.218L784.326,48.092z    M784.326,48.092 M781.245,52.457v-3l0.667-0.657h2.186l0.627,0.62v3.037H781.245z"/>
	<polygon fill="#BCB676" points="791.401,48.727 791.401,48.092 786.917,48.092 786.917,48.092 786.917,48.727 786.917,50.311    786.917,50.946 787.552,50.946 790.767,50.946 790.767,52.529 786.917,52.529 786.917,53.165 790.767,53.165 791.401,53.165    791.401,52.529 791.401,50.946 791.401,50.311 790.767,50.311 787.552,50.311 787.552,48.727  "/>
	<polygon fill="#BCB676" points="797.339,48.727 797.339,48.092 792.854,48.092 792.854,48.092 792.854,48.727 792.854,50.311    792.854,50.946 793.489,50.946 796.704,50.946 796.704,52.529 792.854,52.529 792.854,53.165 796.704,53.165 797.339,53.165    797.339,52.529 797.339,50.946 797.339,50.311 796.704,50.311 793.489,50.311 793.489,48.727  "/>
	<polygon fill="#BCB676" points="802.995,48.774 802.995,48.092 799.323,48.092 798.604,48.092 798.604,48.774 798.604,50.287    798.604,50.969 798.604,52.482 798.604,53.165 799.323,53.165 802.995,53.165 802.995,52.482 799.323,52.482 799.323,50.969    802.136,50.969 802.136,50.287 799.323,50.287 799.323,48.774  "/>
	<polygon fill="#BCB676" points="805.12,52.482 805.12,48.868 808.979,48.868 808.979,48.092 805.12,48.092 804.339,48.092    804.339,48.868 804.339,52.482 804.339,53.165 805.12,53.165 808.276,53.165 808.979,53.165 808.979,52.482 808.979,50.969    808.979,50.287 808.276,50.287 805.995,50.287 805.995,50.969 808.276,50.969 808.276,52.482  "/>
	<path fill="#BCB676" d="M813.748,48.092h-2.644l-1.146,1.135v3.229v0.708h0.708h3.479h0.708v-0.708v-3.218L813.748,48.092z    M813.748,48.092 M810.667,52.457v-3l0.667-0.657h2.186l0.627,0.62v3.037H810.667z"/>
	<rect x="815.729" y="48.092" fill="#BCB676" width="0.797" height="5.073"/>
	<path fill="#BCB676" d="M782.797,56.287v-1.438l-0.618-0.623h-1.257h-0.385v0.385v1.893v0.385h0.385h1.251L782.797,56.287z    M782.797,56.287 M780.922,54.61h1.132l0.357,0.363v1.189l-0.338,0.341h-1.151V54.61z"/>
	<polygon fill="#BCB676" points="785.803,54.583 785.803,54.225 783.875,54.225 783.498,54.225 783.498,54.583 783.498,55.377    783.498,55.736 783.498,56.53 783.498,56.888 783.875,56.888 785.803,56.888 785.803,56.53 783.875,56.53 783.875,55.736    785.352,55.736 785.352,55.377 783.875,55.377 783.875,54.583  "/>
	<polygon fill="#BCB676" points="788.518,54.225 788.518,55.862 787.839,56.524 787.417,56.524 786.829,55.852 786.829,54.225    786.434,54.225 786.434,55.977 787.339,56.92 787.995,56.92 788.913,55.977 788.913,54.225  "/>
	<polygon fill="#BCB676" points="792.068,54.583 792.068,54.225 790.141,54.225 789.764,54.225 789.764,54.583 789.764,55.377    789.764,55.736 789.764,56.53 789.764,56.888 790.141,56.888 792.068,56.888 792.068,56.53 790.141,56.53 790.141,55.736    791.617,55.736 791.617,55.377 790.141,55.377 790.141,54.583  "/>
	<polygon fill="#BCB676" points="792.979,56.54 792.979,54.225 792.558,54.225 792.558,56.54 792.558,56.92 792.979,56.92    794.636,56.92 794.636,56.54  "/>
	<path fill="#BCB676" d="M795.292,54.225v2.663h2.563v-2.663H795.292z M797.526,56.558h-1.875v-2h1.875V56.558z"/>
	<path fill="#BCB676" d="M798.933,54.225h-0.328v2.663h0.328v-1.332h1.719h0.313v-1.014v-0.317H798.933z M800.651,55.264h-1.719   v-0.722h1.719V55.264z"/>
	<polygon fill="#BCB676" points="804.542,54.225 803.862,54.225 803.597,54.225 803.597,54.508 803.597,56.633 803.292,56.633    803.292,54.508 803.292,54.225 802.276,54.225 801.948,54.225 801.948,56.92 802.276,56.92 802.276,54.508 802.995,54.508    802.995,56.633 802.995,56.888 803.292,56.888 803.597,56.888 803.862,56.888 803.862,56.633 803.862,54.508 804.542,54.508    804.542,56.92 804.854,56.92 804.854,54.225  "/>
	<polygon fill="#BCB676" points="807.812,54.583 807.812,54.225 805.884,54.225 805.507,54.225 805.507,54.583 805.507,55.377    805.507,55.736 805.507,56.53 805.507,56.888 805.884,56.888 807.812,56.888 807.812,56.53 805.884,56.53 805.884,55.736    807.36,55.736 807.36,55.377 805.884,55.377 805.884,54.583  "/>
	<polygon fill="#BCB676" points="808.985,56.888 808.985,55.251 809.664,54.589 810.086,54.589 810.674,55.261 810.674,56.888    811.069,56.888 811.069,55.136 810.164,54.193 809.508,54.193 808.59,55.136 808.59,56.888  "/>
	<polygon fill="#BCB676" points="812.019,56.54 812.019,55.696 813.151,55.696 813.151,55.352 812.019,55.352 812.019,54.225    811.597,54.225 811.597,56.54 811.597,56.92 812.019,56.92 813.675,56.92 813.675,56.54  "/>
	<polygon fill="#BCB676" points="816.834,54.559 816.834,54.225 814.479,54.225 814.479,54.226 814.479,54.559 814.479,55.39    814.479,55.723 814.813,55.723 816.501,55.723 816.501,56.555 814.479,56.555 814.479,56.888 816.501,56.888 816.834,56.888    816.834,56.555 816.834,55.723 816.834,55.39 816.501,55.39 814.813,55.39 814.813,54.559  "/>
</g>
</svg>