<svg xmlns="http://www.w3.org/2000/svg" viewBox="95.00 11.25 60.00 45.25" width="60" height="45">
<g id="AURICOM">
	<polygon fill="#225988" points="124.008,24.626 125.222,20.521 125.251,20.619 125.275,20.542 125.84,22.554 127.991,29.629    137.304,29.611 129.063,17.438 125.063,15.25 121.125,17.375 112.829,29.658 122.453,29.639  "/>
	<polygon fill="#225988" points="141.375,35.625 137.304,29.611 129.523,34.666 132.342,43.938 125.273,37.967 118.022,43.917    120.82,34.902 112.829,29.658 108.25,36.438 108.125,41.313 112.563,44.688 137.438,44.688 141.813,41.563  "/>
	<polygon fill="#FFFFFF" points="137.304,29.611 137.304,29.611 137.304,29.611  "/>
	<polygon fill="#FFFFFF" points="118.022,43.917 125.273,37.967 132.342,43.938 129.523,34.666 137.304,29.611 137.304,29.611    127.991,29.629 125.84,22.554 125.275,20.542 125.251,20.619 125.222,20.521 124.008,24.626 122.453,29.639 112.829,29.658    120.82,34.902  "/>
	<path fill="#225988" d="M123.093,47.499h-5.25c0,0-1.073,0.26-1.438,0.625c-0.387,0.387-0.625,1.563-0.625,1.563v2.813h1.188v-2.75   c0,0-0.011-0.489,0.188-0.688c0.177-0.177,0.813-0.438,0.813-0.438h5.125V47.499z"/>
	<rect x="123.593" y="47.499" fill="#225988" width="1.125" height="5"/>
	<path fill="#225988" d="M99,52.499v-2.813c0,0,0.238-1.176,0.625-1.563c0.365-0.365,1.438-0.625,1.438-0.625h3.438   c0,0,0.992,0.242,1.313,0.563c0.354,0.354,0.5,1.438,0.5,1.438v3h-1.125v-3c0,0-0.033-0.439-0.188-0.594s-0.688-0.281-0.688-0.281   h-3.125c0,0-0.636,0.261-0.813,0.438c-0.199,0.199-0.188,0.688-0.188,0.688v2.75H99z"/>
	<path fill="#225988" d="M114.718,47.499v2.813c0,0-0.238,1.176-0.625,1.563c-0.365,0.365-1.438,0.625-1.438,0.625h-3.438   c0,0-0.992-0.242-1.313-0.563c-0.354-0.354-0.5-1.438-0.5-1.438v-3h1.125v3c0,0,0.033,0.439,0.188,0.594s0.688,0.281,0.688,0.281   h3.125c0,0,0.636-0.261,0.813-0.438c0.199-0.199,0.188-0.688,0.188-0.688v-2.75H114.718z"/>
	<path fill="#225988" d="M132.843,52.499h-5.375c0,0-1.176-0.238-1.563-0.625c-0.365-0.365-0.625-1.438-0.625-1.438v-1.125   c0,0,0.242-0.992,0.563-1.313c0.354-0.354,1.438-0.5,1.438-0.5h5.563v1.125h-5.563c0,0-0.439,0.033-0.594,0.188   s-0.281,0.688-0.281,0.688v0.813c0,0,0.261,0.636,0.438,0.813c0.199,0.199,0.688,0.188,0.688,0.188h5.313V52.499z"/>
	<path fill="#225988" d="M150.438,48.063c-0.32-0.32-1.313-0.563-1.313-0.563h-1.178c0,0-1.033,0.252-1.415,0.607   c-0.012-0.014-0.021-0.032-0.034-0.044c-0.32-0.32-1.313-0.563-1.313-0.563h-1.178c0,0-1.073,0.26-1.438,0.625   c-0.387,0.387-0.625,1.563-0.625,1.563V52.5h1.188v-2.75c0,0-0.011-0.489,0.188-0.688c0.177-0.177,0.813-0.438,0.813-0.438H145   c0,0,0.533,0.126,0.688,0.281s0.188,0.594,0.188,0.594v3h0.011H147h0.073v-2.75c0,0-0.011-0.489,0.188-0.688   c0.177-0.177,0.813-0.438,0.813-0.438h0.865c0,0,0.533,0.126,0.688,0.281s0.188,0.594,0.188,0.594v3h1.125v-3   C150.938,49.5,150.792,48.416,150.438,48.063z"/>
	<path fill="#225988" d="M140.741,48.125c-0.387-0.387-1.563-0.625-1.563-0.625h-3.614c0,0-1.084,0.146-1.438,0.5   c-0.32,0.32-0.563,1.313-0.563,1.313v1.125c0,0,0.26,1.073,0.625,1.438c0.387,0.387,1.563,0.625,1.563,0.625h3.614   c0,0,1.084-0.146,1.438-0.5c0.32-0.32,0.563-1.313,0.563-1.313v-1.125C141.366,49.563,141.105,48.49,140.741,48.125z    M140.292,50.469c0,0-0.126,0.533-0.281,0.688s-0.594,0.188-0.594,0.188l-3.603-0.031c0,0-0.489,0.011-0.688-0.188   c-0.177-0.177-0.438-0.813-0.438-0.813V49.5c0,0,0.126-0.533,0.281-0.688s0.594-0.188,0.594-0.188l3.561,0.02   c0,0,0.531,0,0.729,0.199c0.177,0.177,0.438,0.813,0.438,0.813V50.469z"/>
	<rect x="102.078" y="51.344" fill="#D63F48" width="1.155" height="1.155"/>
</g>
</svg>