<svg xmlns="http://www.w3.org/2000/svg" viewBox="16.75 13.00 46.75 45.50" width="47" height="46">
<g id="FEISAR">
	<path fill="#1894BD" d="M53.694,25.205c-2.192-4.301-6.391-7.405-11.366-8.068c0,0.038,0.006,0.075,0.006,0.113   c0,9.113-7.387,16.5-16.5,16.5c-0.131,0-0.259-0.017-0.389-0.02c0.758,6.581,5.77,11.858,12.221,13.019   c-0.042-0.538-0.082-1.076-0.082-1.625C37.583,35.336,44.49,27.167,53.694,25.205z"/>
	<path fill="#FFFFFF" d="M42.333,17.25c0-0.038-0.005-0.075-0.006-0.113C41.675,17.05,41.01,17,40.333,17c-8.284,0-15,6.716-15,15   c0,0.586,0.045,1.162,0.111,1.73c0.13,0.003,0.258,0.02,0.389,0.02C34.946,33.75,42.333,26.363,42.333,17.25z"/>
	<path fill="#FFFFFF" d="M55.191,30.016c-0.23-1.71-0.744-3.331-1.498-4.811c-9.204,1.961-16.11,10.131-16.11,19.92   c0,0.301,0.013,0.599,0.031,0.896C38.589,37.113,46.061,30.171,55.191,30.016z"/>
	<path fill="#A2CCE0" d="M53.583,34.167c0.528,0,1.049,0.031,1.564,0.079c0.11-0.734,0.186-1.48,0.186-2.246   c0-0.674-0.055-1.334-0.142-1.984c-9.131,0.155-16.602,7.097-17.577,16.005c0.009,0.147,0.021,0.293,0.031,0.44   C39.507,39.389,45.927,34.167,53.583,34.167z"/>
	<path fill="#FFFFFF" d="M51.333,37.75c0.932,0,1.84,0.097,2.724,0.259c0.518-1.184,0.891-2.445,1.09-3.764   c-0.515-0.048-1.036-0.079-1.564-0.079c-7.656,0-14.076,5.222-15.938,12.294c0.004,0.051,0.007,0.102,0.011,0.153   C40.002,41.393,45.238,37.75,51.333,37.75z"/>
	<path fill="#FFCD2A" d="M40.333,47c6.145,0,11.41-3.701,13.724-8.991c-0.884-0.163-1.792-0.259-2.724-0.259   c-6.096,0-11.331,3.642-13.678,8.863c0.003,0.045,0.006,0.091,0.01,0.136C38.533,46.906,39.421,47,40.333,47z"/>
	<g>
		<polygon fill="#1894BD" points="35.708,50.292 35.708,51 35.708,52.334 35.708,53.042 35.708,54.333 37.125,54.333 37.125,53.042     37.125,52.334 37.125,51 37.125,50.292 37.125,48.917 35.708,48.917   "/>
		<polygon fill="#1894BD" points="57.958,48.892 53.667,48.892 52.167,48.892 52.167,50.292 52.167,51 52.167,52.334 52.167,53.042     52.167,54.308 53.667,54.308 53.667,53.042 53.667,52.334 53.667,51 53.667,50.292 57.958,50.292 59.334,50.292 59.334,48.892       "/>
		<rect x="57.958" y="53.042" fill="#1894BD" width="1.375" height="1.266"/>
		<polygon fill="#1894BD" points="20.833,48.892 20.833,54.308 22.25,54.308 22.25,53.042 22.208,53.042 22.208,52.334     22.25,52.334 28,52.334 28,51 22.25,51 22.208,51 22.208,50.292 22.25,50.292 28,50.292 28,48.892 22.25,48.892   "/>
		<polygon fill="#1894BD" points="29.667,48.892 28.25,48.892 28.25,50.292 28.25,51 28.25,52.334 28.25,53.042 28.25,54.308     29.667,54.308 34.125,54.308 35.417,54.308 35.417,53.042 34.125,53.042 29.667,53.042 29.667,52.334 34.125,52.334     35.417,52.334 35.417,51 34.125,51 29.667,51 29.667,50.292 34.125,50.292 35.417,50.292 35.417,48.892 34.125,48.892   "/>
		<polygon fill="#1894BD" points="39.042,48.892 37.375,48.892 37.375,50.292 37.375,51 37.375,52.334 39.042,52.334 43.208,52.334     43.208,53.042 39.042,53.042 37.375,53.042 37.375,54.308 39.042,54.308 43.208,54.308 44.542,54.308 44.542,53.042     44.542,52.334 44.542,51 43.208,51 39.042,51 38.75,51 38.75,50.292 39.042,50.292 43.208,50.292 44.542,50.292 44.542,48.892     43.208,48.892   "/>
		<path fill="#1894BD" d="M46.167,48.892H44.75v1.4h1.416h4.458V51h-4.458H44.75v1.334v0.708v1.266h1.416h4.458h1.292v-1.266v-0.708    V51v-0.708v-1.4h-1.292H46.167z M50.625,53.042h-4.458v-0.708h4.458V53.042z"/>
	</g>
</g>
</svg>