<svg xmlns="http://www.w3.org/2000/svg" viewBox="435.25 10.50 53.00 50.00" width="53" height="50">
<g id="GOTEKI_45">
	<polygon fill="#ED3E80" points="447.563,41.875 441.438,41.875 439.438,43.875 439.438,48.875 447.563,48.875 447.563,44.375    445.813,44.375 445.813,47.219 441.5,47.219 441.5,44.531 442.5,43.563 447.563,43.563  "/>
	<path fill="#ED3E80" d="M448.188,41.875v4.469l2.594,2.594l5.5-0.063v-7H448.188z M454.719,47.375h-3.406l-1.625-1.594v-2.219   h5.031V47.375z"/>
	<polygon fill="#ED3E80" points="465.023,41.875 461.883,41.875 459.758,41.875 456.617,41.875 456.617,43.75 459.758,43.75    459.758,48.875 461.883,48.875 461.883,43.75 465.023,43.75  "/>
	<polygon fill="#ED3E80" points="465.5,41.875 465.5,46.281 468.172,48.953 473.156,48.938 473.156,47 468.469,47 468.49,46.5    473.156,46.5 473.156,44.5 467.5,44.5 467.5,43.906 473.156,43.906 473.156,41.875  "/>
	<polygon fill="#ED3E80" points="481.625,43.875 481.625,41.875 479.094,41.844 476.469,44.469 475.563,44.469 475.563,41.875    473.594,41.875 473.594,48.938 475.579,48.953 475.563,46.234 476.469,46.234 479.125,48.875 481.625,48.953 481.625,46.828    479.688,46.828 478.242,45.352 479.688,43.875  "/>
	<rect x="482.219" y="41.875" fill="#ED3E80" width="1.969" height="7.078"/>
	<polygon fill="#ED3E80" points="469.063,49.239 484.188,49.239 484.188,53.75 481.5,56.438 469.063,56.438  "/>
	<polygon fill="#FFFFFF" points="469.781,50.125 471.188,50.125 471.188,52.156 474.938,52.156 474.938,50.125 476.313,50.125    476.313,55.563 474.938,55.563 474.938,53.531 469.781,53.563  "/>
	<polygon fill="#FFFFFF" points="476.813,50.125 483.406,50.125 483.406,51.406 478.313,51.406 478.313,52.188 483.406,52.188    483.406,53.469 481.625,55.563 476.813,55.563 476.813,54.281 481.063,54.281 481.625,53.563 476.813,53.563  "/>
	<polygon fill="#FEC216" points="446.292,14.583 439.438,23.208 439.438,40.833 469.063,40.833 469.063,33.583 446.542,33.417    446.542,26.167 449.875,21.875 469.063,21.875 469.063,14.583  "/>
	<polygon fill="#FEC216" points="470.042,14.583 470.042,21.958 473.047,21.958 475.542,24 462.125,24 462.125,31.417    475.542,31.417 473.047,33.542 470.083,33.542 470.083,40.833 475.542,40.833 484.188,34.292 484.188,21.208 475.5,14.583  "/>
</g>
</svg>