<svg xmlns="http://www.w3.org/2000/svg" viewBox="684.50 12.75 60.50 45.00" width="60" height="45">
<g id="HARIMAU">
	<path fill="#F4972E" d="M710.75,27.5h-5.083v-5.583c0,0,0.104-2.146,1.682-3.725c1.297-1.297,3.401-1.275,3.401-1.275h6.417   c0,0,2-0.083,3.167,1.083s1.5,3.417,1.5,3.417V27.5H717v-5.833h-6.25V27.5z"/>
	<path fill="#F6D626" d="M719.106,31.862l2.609-4.362l4.791,2.866c0,0,1.789,1.19,2.333,3.355c0.447,1.779-0.651,3.574-0.651,3.574   l-3.294,5.507c0,0-0.955,1.759-2.555,2.162c-1.601,0.403-3.703-0.467-3.703-0.467l-5.22-3.122l2.481-4.149l5.006,2.994l3.208-5.363   L719.106,31.862z"/>
	<path fill="#F6D626" d="M711.287,37.061l2.572,4.385l-4.815,2.825c0,0-1.905,0.997-4.063,0.434   c-1.775-0.463-2.822-2.289-2.822-2.289l-3.246-5.535c0,0-1.084-1.683-0.668-3.279c0.415-1.598,2.188-3.023,2.188-3.023l5.247-3.078   l2.446,4.17l-5.032,2.951l3.163,5.391L711.287,37.061z"/>
	<polygon fill="#231F1F" points="688.583,44.249 690.833,44.249 690.833,46.75 695.75,46.75 695.75,53.583 693.583,53.583    693.5,49.239 690.752,49.19 690.833,53.667 688.583,53.583  "/>
	<polygon fill="#231F1F" points="703.833,46.833 703.833,53.417 696.75,53.417 696.75,49.583 699.083,49.583 699.083,51.333    701.833,51.417 701.75,48.937 696.75,48.958 696.75,46.833  "/>
	<polygon fill="#231F1F" points="704.833,46.833 704.833,53.417 706.917,53.417 706.917,48.958 711.833,48.958 711.833,46.833  "/>
	<polygon fill="#231F1F" points="732.821,46.958 732.821,53.542 725.738,53.542 725.738,49.708 728.071,49.708 728.071,51.458    730.75,51.5 730.738,49.062 725.738,49.083 725.738,46.958  "/>
	<polygon fill="#231F1F" points="736.083,46.958 733.75,46.958 733.75,53.542 740.917,53.542 740.917,46.958 738.667,46.958    738.667,51.417 736.083,51.417  "/>
	<rect x="712.75" y="46.833" fill="#231F1F" width="2.167" height="6.833"/>
	<polygon fill="#231F1F" points="715.75,53.667 717.667,53.667 717.667,48.958 719.084,48.958 719.084,53.667 721.349,53.667    721.349,48.958 722.917,48.958 722.917,53.667 724.917,53.667 724.917,46.833 715.75,46.833  "/>
</g>
</svg>