<svg xmlns="http://www.w3.org/2000/svg" viewBox="515.75 16.75 61.00 37.00" width="61" height="37">
<g id="ICARAS">
	<g>
		<g>
			<path fill="#D288A9" d="M519.938,23.031c0,1.22,1.021,2.219,2.268,2.219h17.527c1.247,0,2.268-0.999,2.268-2.219     s-1.021-2.219-2.268-2.219h-17.527C520.958,20.813,519.938,21.811,519.938,23.031z"/>
		</g>
		<g>
			<path fill="#A62158" d="M552.986,20.813c-1.247,0-2.268,0.999-2.268,2.219s1.021,2.219,2.268,2.219h17.402     c1.247,0,2.268-0.999,2.268-2.219s-1.021-2.219-2.268-2.219H552.986z"/>
		</g>
		<g>
			<path fill="#A62158" d="M552.986,26.375c-1.247,0-2.268,1.021-2.268,2.268v5.59c0,1.247,1.021,2.268,2.268,2.268h4.152     c1.247,0,2.268-1.021,2.268-2.268V33.08c0-1.247,1.021-2.268,2.268-2.268h1.902c1.247,0,2.268-0.999,2.268-2.219     s-1.021-2.219-2.268-2.219h-1.902c-1.247,0-3.288,0-4.535,0H552.986z"/>
		</g>
		<g>
			<path fill="#D288A9" d="M529.142,26.375c-1.247,0-2.268,0.999-2.268,2.219s1.021,2.219,2.268,2.219h1.903     c1.247,0,2.268,1.021,2.268,2.268v1.152c0,1.247,1.021,2.268,2.268,2.268h4.153c1.247,0,2.268-1.021,2.268-2.268v-5.59     c0-1.247-1.021-2.268-2.268-2.268h-4.153c-1.247,0-3.288,0-4.535,0H529.142z"/>
		</g>
		<g>
			<path fill="#B94229" d="M543.938,31.732c0,1.247,1.021,2.268,2.268,2.268h0.152c1.247,0,2.268-1.021,2.268-2.268V23.08     c0-1.247-1.021-2.268-2.268-2.268h-0.152c-1.247,0-2.268,1.021-2.268,2.268V31.732z"/>
		</g>
	</g>
	<g>
		<g>
			<g>
				<path fill="#A62158" d="M519.938,48.333c0,0.78,0.591,1.417,1.313,1.417s1.313-0.638,1.313-1.417V41.98      c0-0.78-0.591-1.417-1.313-1.417s-1.313,0.638-1.313,1.417V48.333z"/>
			</g>
			<g>
				<path fill="#A62158" d="M540.194,40.563c-0.722,0-1.95,0-2.73,0h-0.297c-0.78,0-2.008,0-2.73,0s-1.313,0.604-1.313,1.344      s0,1.981,0,2.761v0.978c0,0.78,0,2.022,0,2.761s0.591,1.344,1.313,1.344s1.95,0,2.73,0h0.297c0.78,0,2.008,0,2.73,0      s1.691,0,2.153,0c0.462,0,0.841-0.604,0.841-1.344s-0.378-1.344-0.841-1.344c-0.462,0-0.84-0.638-0.84-1.417V41.98      C541.506,41.2,540.916,40.563,540.194,40.563z M537.167,47.063c-0.78,0-1.417-0.638-1.417-1.417v-0.978      c0-0.78,0.638-1.417,1.417-1.417h0.297c0.78,0,1.417,0.638,1.417,1.417v0.978c0,0.78-0.638,1.417-1.417,1.417H537.167z"/>
			</g>
			<g>
				<path fill="#A62158" d="M525.188,40.563c-0.722,0-1.313,0.604-1.313,1.344s0,1.981,0,2.761v0.978c0,0.78,0,2.022,0,2.761      s0.591,1.344,1.313,1.344s1.95,0,2.73,0h2.915c0.78,0,1.417-0.604,1.417-1.344s-0.638-1.344-1.417-1.344h-2.915      c-0.78,0-1.417-0.638-1.417-1.417v-0.978c0-0.78,0.638-1.417,1.417-1.417h2.915c0.78,0,1.417-0.604,1.417-1.344      s-0.638-1.344-1.417-1.344h-2.915C527.138,40.563,525.909,40.563,525.188,40.563z"/>
			</g>
			<g>
				<path fill="#A62158" d="M545.25,40.563c-0.722,0-1.313,0.604-1.313,1.344s0,1.981,0,2.761v3.665c0,0.78,0.591,1.417,1.313,1.417      s1.313-0.638,1.313-1.417v-3.665c0-0.78,0.638-1.417,1.417-1.417h2.916c0.779,0,1.417-0.604,1.417-1.344      s-0.638-1.344-1.417-1.344h-2.916C547.2,40.563,545.972,40.563,545.25,40.563z"/>
			</g>
			<g>
				<path fill="#A62158" d="M570.958,43.25c0.779,0,1.417-0.604,1.417-1.344s-0.638-1.344-1.417-1.344h-2.916      c-0.779,0-2.008,0-2.729,0S564,41.167,564,41.906s0,1.47,0,1.625s0,0.886,0,1.625s0.591,1.344,1.313,1.344s1.95,0,2.729,0h0.213      c0.779,0,1.435,0,1.456,0s0.039,0.126,0.039,0.281s-0.018,0.281-0.039,0.281s-0.677,0-1.456,0h-2.838      c-0.779,0-1.417,0.604-1.417,1.344s0.638,1.344,1.417,1.344h2.916c0.779,0,2.008,0,2.729,0s1.313-0.604,1.313-1.344      s0-1.47,0-1.625s0-0.886,0-1.625s-0.591-1.344-1.313-1.344s-1.95,0-2.729,0h-0.229c-0.779,0-1.431,0-1.448,0      s-0.031-0.126-0.031-0.281s0.014-0.281,0.031-0.281s0.669,0,1.448,0H570.958z"/>
			</g>
			<g>
				<path fill="#A62158" d="M560.006,40.563c-0.722,0-1.95,0-2.729,0h-0.297c-0.779,0-2.008,0-2.729,0      c-0.723,0-1.313,0.604-1.313,1.344s0,1.981,0,2.761v0.978c0,0.78,0,2.022,0,2.761s0.59,1.344,1.313,1.344      c0.722,0,1.95,0,2.729,0h0.297c0.779,0,2.008,0,2.729,0s1.69,0,2.153,0S563,49.146,563,48.406s-0.378-1.344-0.841-1.344      s-0.841-0.638-0.841-1.417V41.98C561.318,41.2,560.728,40.563,560.006,40.563z M556.979,47.063      c-0.779,0-1.417-0.638-1.417-1.417v-0.978c0-0.78,0.638-1.417,1.417-1.417h0.297c0.779,0,1.417,0.638,1.417,1.417v0.978      c0,0.78-0.638,1.417-1.417,1.417H556.979z"/>
			</g>
		</g>
	</g>
</g>
</svg>