<svg xmlns="http://www.w3.org/2000/svg" viewBox="348.00 14.75 59.25 41.25" width="59" height="41">
<g id="PIRANHA.A">
	<rect x="352.198" y="18.813" fill="#E22127" width="50.813" height="33.063"/>
	<polygon fill="#F7AF1A" points="377.813,21.625 381.5,32.313 377.813,42.75 393.063,32.188  "/>
	<polygon fill="#F7AF1A" points="371.125,24.375 375.063,32.188 371.156,39.969 378.563,32.188  "/>
	<polygon fill="#F7AF1A" points="366.547,27.688 369.375,32.431 366.563,37.156 371.125,32.431  "/>
	<polygon fill="#F7AF1A" points="364.699,32.427 362.181,29.817 363.736,32.427 362.189,35.026  "/>
	<g>
		<path fill="#F7AF1A" d="M358.567,49.239v-2.446l0.611-0.612h3.669l0.611,0.612v0.611l-0.611,0.611h-3.669v1.223H358.567z     M362.848,47.405v-0.611h-3.669v0.611H362.848z"/>
		<path fill="#F7AF1A" d="M363.75,49.239v-3.058h0.611v3.058H363.75z"/>
		<path fill="#F7AF1A" d="M364.653,49.239v-2.446l0.611-0.612h3.669l0.611,0.612v0.611l-0.611,0.611l0.306,0.612l0.306,0.611h-0.611    l-0.306-0.611l-0.306-0.612h-3.058v1.223H364.653z M368.934,47.405v-0.611h-3.669v0.611H368.934z"/>
		<path fill="#F7AF1A" d="M369.837,49.239v-2.446l0.611-0.612h3.669l0.611,0.612v2.446h-0.611v-1.223h-3.669v1.223H369.837z     M374.117,47.405v-0.611h-3.669v0.611H374.117z"/>
		<path fill="#F7AF1A" d="M375.02,49.239v-2.446l0.611-0.612h3.669l0.611,0.612v2.446H379.3v-2.446h-3.669v2.446H375.02z"/>
		<path fill="#F7AF1A" d="M380.203,49.239v-3.058h0.611v1.223h3.669v-1.223h0.611v3.058h-0.611v-1.223h-3.669v1.223H380.203z"/>
		<path fill="#F7AF1A" d="M385.387,49.239v-2.446l0.611-0.612h3.669l0.611,0.612v2.446h-0.611v-1.223h-3.669v1.223H385.387z     M389.667,47.405v-0.611h-3.669v0.611H389.667z"/>
		<path fill="#F7AF1A" d="M391.344,48.996c0,0.081-0.036,0.146-0.107,0.196c-0.062,0.043-0.136,0.064-0.222,0.064    c-0.089,0-0.164-0.021-0.225-0.062c-0.07-0.048-0.105-0.114-0.105-0.198c0-0.083,0.035-0.147,0.105-0.193    c0.065-0.042,0.139-0.062,0.222-0.062c0.084,0,0.159,0.021,0.225,0.062C391.308,48.85,391.344,48.915,391.344,48.996z"/>
		<path fill="#F7AF1A" d="M391.458,49.239v-2.446l0.611-0.612h3.669l0.611,0.612v2.446h-0.611v-1.223h-3.669v1.223H391.458z     M395.739,47.405v-0.611h-3.669v0.611H395.739z"/>
	</g>
</g>
</svg>