<svg xmlns="http://www.w3.org/2000/svg" viewBox="266.75 11.50 52.50 54.00" width="52" height="54">
<g id="QIREX">
	<polygon fill="#854186" points="312.438,43.188 300.688,43.188 300.688,31.313 285.063,15.688 279.313,15.688 270.875,24    270.875,30 286.75,45.875 296.625,45.875 300.688,45.875 315.125,45.875  "/>
	<polygon fill="#BF5294" points="310.055,40.805 298.316,40.805 298.316,32.621 284.196,18.5 280.013,18.5 273.875,24.547    273.875,28.912 288.188,43.188 293.313,43.188 296.625,43.188 298.316,43.188 312.438,43.188  "/>
	<polygon fill="#CBCCD8" points="307.802,38.552 295.945,38.552 295.945,33.616 283.58,21.25 280.734,21.25 276.559,25.364    276.559,28.333 289.054,40.805 294.5,40.805 295.945,40.805 310.055,40.805  "/>
	<polygon fill="#FFFFFF" points="281.218,23.503 282.882,23.503 293.728,34.348 293.728,38.552 289.698,38.552 278.776,27.646    278.776,25.909  "/>
	<polygon fill="#864188" points="280.177,51.233 280.177,53.058 280.177,54.704 280.177,56.42 280.177,58.245 280.177,60.034    282.251,60.034 282.251,58.245 282.251,56.42 282.251,54.704 282.251,53.058 282.251,51.233  "/>
	<path fill="#864188" d="M276.384,51.233h-3.756h-1.753v1.824v1.646v1.717v1.825v1.789h1.753h3.756h1.789v-1.789V56.42v-1.717   v-1.646v-1.824H276.384z M276.384,54.704v1.717v1.825h-3.756V56.42v-1.717v-1.646h3.756V54.704z"/>
	<polygon fill="#864188" points="298.977,53.058 300.748,53.058 300.748,51.233 298.977,51.233 295.22,51.233 293.449,51.233    293.449,53.058 293.449,54.704 293.449,56.42 293.449,58.245 293.449,60.034 295.22,60.034 298.977,60.034 300.748,60.034    300.748,58.245 298.977,58.245 295.22,58.245 295.22,56.42 298.977,56.42 300.748,56.42 300.748,54.704 298.977,54.704    295.22,54.704 295.22,53.058  "/>
	
		<rect x="277.189" y="59.05" transform="matrix(0.7071 -0.7071 0.7071 0.7071 39.0244 214.2817)" fill="#864188" width="1.967" height="1.968"/>
	<path fill="#864188" d="M289.711,51.233h-3.756h-1.771v1.824v1.646v1.717h1.771h0.772l-3.581,3.581l2.712,0.07l3.65-3.651h0.202   v1.825v1.789h1.771v-1.789V56.42v-1.717v-1.646v-1.824H289.711z M289.711,54.704h-3.756v-1.646h3.756V54.704z"/>
	<polygon fill="#864188" points="310.873,55.634 314.272,51.233 312.197,51.233 309.155,55.171 309.155,51.214 307.08,51.214    307.08,55.052 304.13,51.233 302.055,51.233 305.454,55.634 302.055,60.034 304.129,60.034 307.08,56.215 307.08,60.213    309.155,60.213 309.155,56.096 312.197,60.034 314.272,60.034 310.873,55.634  "/>
	<rect x="294.904" y="48.938" fill="#864188" width="1.625" height="1.625"/>
	<rect x="297.739" y="48.938" fill="#864188" width="1.625" height="1.625"/>
</g>
</svg>