<svg xmlns="http://www.w3.org/2000/svg" viewBox="600.50 12.25 59.00 44.75" width="59" height="45">
<g id="TRIAKIS">
	<polygon fill="#BDB8B2" points="605,18.833 607.416,16.417 610.333,16.417 617.375,23.458 612.083,28.75 604.916,21.583  "/>
	<path fill="#BDB8B2" d="M604.916,37.333v5h5.917l7.292-7.292l7.5,7.5h23.625c0,0,2.416-0.25,3.916-1.979s1.917-3.896,1.917-3.896   V21.833c0,0-0.249-1.5-1.583-3.083s-3.917-2.333-3.917-2.333h-23.5L604.916,37.333z"/>
	<g>
		<polygon fill="#FFFFFF" points="629.207,24.136 627.832,25.511 647.082,25.511 647.082,24.136   "/>
		<polygon fill="#FFFFFF" points="629.207,34.823 647.082,34.823 647.082,33.448 627.832,33.448   "/>
	</g>
	<path fill="#BDB8B2" d="M610.329,46.833v6h-2.667v-6h-2.292c0,0-0.749-0.25-0.791-1.292s0.625-1.292,0.625-1.292h7.958v2.542   L610.329,46.833z"/>
	<path fill="#BDB8B2" d="M613.662,44.25v8.583h2.458V46.75h3.792v1.125c0,0,0.251,1.198,1.292,1.198s1.083-1.239,1.083-1.239v-2.167   c0,0,0.187-0.23-0.542-0.958c-0.462-0.462-1.333-0.458-1.333-0.458H613.662z"/>
	<path fill="#BDB8B2" d="M622.704,45.458v7.375h2.458v-7.375c0,0-0.188-1.208-1.229-1.208S622.704,45.458,622.704,45.458z"/>
	<path fill="#F6E2D2" d="M625.745,44.25v2.333h6.042v4h-3.667V50h2.125c0,0,1.084-0.354,1.084-1.208   c0-1.125-0.959-1.375-0.959-1.375h-2.833c0,0-0.708-0.083-1.208,0.417s-0.584,1.083-0.584,1.083v2.292c0,0-0.124,0.542,0.459,1.125   s0.791,0.5,0.791,0.5h7.167v-6.917c0,0,0.167-0.625-0.333-1.125s-1.167-0.542-1.167-0.542H625.745z"/>
	<path fill="#F6E2D2" d="M634.579,44.25v8.583h2.625v-2.375h1.791l4.25-4.25c0,0,0.417-0.917-0.25-1.583s-1.833,0.042-1.833,0.042   l-3.167,3.167l-1,0.041V44.25H634.579z"/>
	<path fill="#F6E2D2" d="M643.787,45.458v7.375h2.458v-7.375c0,0-0.188-1.208-1.229-1.208S643.787,45.458,643.787,45.458z"/>
	<path fill="#F6E2D2" d="M653.787,44.25h-5.333c0,0-0.709,0.083-1.084,0.458s-0.583,1.042-0.583,1.042v2.5   c0,0-0.026,0.52,0.48,1.026c0.274,0.274,0.812,0.432,0.812,0.432h4.583v0.75h-5.941v2.375h7.066c0,0,0.77-0.229,1.249-0.708   s0.376-1.324,0.376-1.324l0.01-2.032c0,0-0.021-0.604-0.376-0.958s-1.457-0.458-1.457-0.458h-4.542l-0.01-0.602h5   c0,0,0.999,0,0.999-1.292S653.787,44.25,653.787,44.25z"/>
	<polygon fill="#F6E2D2" points="639.245,50.708 640.642,52.105 640.642,52.833 643.374,52.833 643.374,51 641.143,48.769  "/>
</g>
</svg>