<?xml version="1.0" encoding="UTF-8"?><svg id="b" xmlns="http://www.w3.org/2000/svg" viewBox="0 0 1242.99 1129.47"><g id="c"><path id="d" d="M0,274.96v239.77c0,168.16,136.32,304.48,304.48,304.48h200.09v-250.64c0-41.61,33.73-75.35,75.35-75.35h94.73v-218.27h-113.37c-155.78,0-282.06,126.28-282.06,282.06v34h-12.66c-26.67,0-48.28-21.62-48.28-48.28v-267.78H0" fill="#ff9909"/><path d="M892.91,274.96h-218.27v544.25h267.09c166.38,0,301.26-134.88,301.26-301.26v-242.99h-219.69v259.77c0,35.79-29.01,64.8-64.8,64.8h-65.6v-324.57Z" fill="#ff420a"/><circle cx="968.03" cy="121.89" r="121.89" fill="#ff420a"/><circle cx="367.09" cy="121.89" r="121.89" fill="#ff9909"/><path d="M0,924.09v82.06C0,1046.16,32.43,1078.58,72.43,1078.58h49.46v-73.87c0-21.82,17.69-39.51,39.51-39.51h147.58v31.93c0,22.29-18.07,40.36-40.36,40.36h-2.11c-21.95,0-39.74-17.79-39.74-39.74v-8.45h-39.69v10.23c0,43.66,35.4,79.06,79.06,79.06h.09c46.31,0,83.85-37.54,83.85-83.85v-70.64h-197.08c-39.88,0-72.21,32.33-72.21,72.21v41.18h-9.04c-16.92,0-30.64-13.72-30.64-30.64v-82.74H0Z" fill="#ff9909"/><path d="M365.67,1078.58v-154.49h75.99c38.66,0,69.99,31.34,69.99,69.99v84.49h-41.1v-85.14c0-15.6-12.65-28.25-28.25-28.25h-35.53v113.39h-41.1Z" fill="#ff9909"/><rect x="528.66" y="980.79" width="73.7" height="41.1" fill="#ff9909"/><path d="M616.54,924.09v154.49h75.87c40.29,0,72.95-32.66,72.95-72.95v-81.54h-42.52v83.32c0,16.61-13.46,30.07-30.07,30.07h-35.13v-113.39h-41.1Z" fill="#ff9909"/><path d="M857.93,924.09h-37.3v-39.69h-41.1v192.76h80.55c41.62,0,75.35-33.74,75.35-75.35v-.22c0-42.8-34.7-77.5-77.5-77.5ZM894.33,1002.11c0,19.53-15.83,35.37-35.37,35.37h-38.33v-72.28h37.04c20.25,0,36.66,16.41,36.66,36.66v.26Z" fill="#ff9909"/><path d="M942.52,1078.58v-71.43c0-45.87,37.18-83.05,83.05-83.05h.45c43.9,0,79.49,35.59,79.49,79.49v9.81h-41.1v-8.97c0-21.66-17.56-39.22-39.22-39.22h-2.3c-22.47,0-40.69,18.22-40.69,40.69v31.6h154.49v-34.32c0-43.67,35.4-79.06,79.06-79.06h27.24v41.1h-22.36c-23.66,0-42.84,19.18-42.84,42.84v70.55s-235.27,0-235.27,0Z" fill="#ff9909"/><circle cx="56.69" cy="891.5" r="25.51" fill="#ff9909"/><circle cx="114.8" cy="891.5" r="25.51" fill="#ff9909"/><circle cx="666.74" cy="891.5" r="25.51" fill="#ff9909"/><circle cx="724.85" cy="891.5" r="25.51" fill="#ff9909"/><path d="M379.8,1101.51c-2-1.31-5.13-1.95-9.57-1.95h-18.64v29.7h7.94v-9.59h9.58c1.59,0,2.88.24,3.84.72.86.43,1.29,1.26,1.32,2.48l-.06.69v5.71h8.22v-6.78c0-1.83-.56-3.28-1.67-4.32-.67-.63-1.57-1.09-2.71-1.38.21-.06.43-.12.64-.19.58-.18,1.12-.44,1.61-.75.87-.57,1.48-1.3,1.84-2.16.33-.82.54-1.66.62-2.46.08-.41.12-.81.12-1.22v-1.08c0-3.58-1.04-6.07-3.08-7.41ZM374.55,1110.13c0,1.44-.38,2.45-1.12,3.02-.78.6-2.23.91-4.32.91h-9.58v-8.72h10.03c3.21,0,4.07.67,4.3,1.06.46.79.69,2.05.69,3.73Z" fill="#ff3118"/><path d="M411.12,1099.56l-12.87,29.7h8.54l2.3-5.51h15.52l2.41,5.51h8.37l-13.1-29.7h-11.18ZM422.56,1118.66h-11.36l5.63-13.13,5.73,13.13Z" fill="#ff3118"/><path d="M482.96,1119.63c0-.19-.01-.39-.03-.61-.02-.18-.03-.37-.03-.55v-.5h-8v.95c0,.18.02.35.06.51v.84c0,2.26-1.1,2.77-1.93,2.95-1.51.33-3.31.5-5.35.5-3.44,0-5.78-.32-6.93-.95-1.06-.58-1.61-2.22-1.64-4.9-.04-.91-.06-1.84-.08-2.76-.02-.93-.03-1.85-.03-2.77,0-.45,0-.9.03-1.33s.05-.88.08-1.38c0-.18,0-.37.03-.56.02-.18.04-.37.08-.61.03-.43.14-.86.32-1.28.17-.4.46-.76.83-1.07.39-.3.93-.52,1.62-.66.74-.15,1.52-.26,2.32-.31.36-.03.72-.04,1.08-.04h3.89c.51,0,1.03.03,1.57.08,2.28.1,2.87.59,3.02.87.32.61.5,1.28.53,1.98v.38c.04.22.07.43.09.65.02.28.08.54.17.78l.12.32h7.96v-.5c0-.19-.01-.38-.03-.57-.02-.15-.02-.31-.02-.46s-.01-.33-.03-.51c-.02-.13-.02-.27-.02-.41-.04-.89-.17-1.79-.38-2.7-.23-.96-.71-1.85-1.42-2.64-1.04-1.23-2.4-2.04-4.05-2.4-1.57-.35-3.23-.56-4.95-.61h-3.92c-5.68,0-10.01.68-12.87,2.03-2.98,1.4-4.49,4.65-4.49,9.66,0,.52,0,1.05.03,1.59.02.53.03,1.04.03,1.55,0,.19,0,.38.03.57.02.15.03.31.03.46,0,.35,0,.71.03,1.08.02.35.03.69.03,1.03,0,3.8.89,6.79,2.64,8.86,1.8,2.13,5.33,3.18,10.8,3.21l4.98-.04c3.93,0,7.22-.51,9.79-1.52,2.72-1.07,4.1-3.43,4.1-7.03,0-.22-.01-.43-.03-.65-.02-.18-.03-.37-.03-.56Z" fill="#ff3118"/><rect x="500.77" y="1099.56" width="8.17" height="29.7" fill="#ff3118"/><polygon points="556.76 1122.72 541.53 1099.56 528.94 1099.56 528.94 1129.26 536.89 1129.26 536.67 1106.1 551.91 1129.26 564.55 1129.26 564.55 1099.56 556.54 1099.56 556.76 1122.72" fill="#ff3118"/><path d="M616.91,1113.02h-17.46v5.09h9.46v.32c0,2.48-.55,4-1.62,4.52-1.19.58-3.5.88-6.84.88-3.59,0-5.98-.33-7.11-.99-1.04-.61-1.59-2.31-1.63-5.06l-.06-3.74v-1.41c.09-4.09.72-5.71,1.23-6.34.4-.5,1.95-1.34,7.73-1.34.67,0,1.34,0,2,.02.67.02,1.34.04,2.01.06,1.61.05,2.7.39,3.26.99.56.61.85,1.5.85,2.64v.5h8.18v-.51c-.09-4.1-1.35-6.72-3.75-7.79-2.28-1.01-5.84-1.52-10.59-1.52h-4.9c-.55,0-1.11.01-1.68.04-1.89.09-3.74.36-5.5.81-1.83.47-3.35,1.37-4.53,2.66-.95,1.03-1.6,2.18-1.93,3.41-.33,1.2-.51,2.42-.55,3.59-.04.45-.06.88-.06,1.31v4.48c-.04.33-.06.68-.06,1.03v1.01c0,4.94,1.46,8.18,4.34,9.63,2.76,1.39,7.05,2.1,12.74,2.1,1.24,0,2.47-.01,3.71-.04,1.24-.03,2.47-.07,3.73-.13,4.04-.39,6.62-1.6,7.65-3.6.98-1.91,1.48-4.2,1.48-6.8l-.11-4.55v-1.27Z" fill="#ff3118"/><path d="M698.67,1111.91v-1.23c0-3.94-1.23-6.82-3.65-8.56-2.37-1.7-6.04-2.57-10.9-2.57h-18.87v29.7h20.1c5.84,0,9.59-1.41,11.13-4.19,1.49-2.69,2.25-5.89,2.25-9.51v-2.46c-.04-.39-.06-.78-.06-1.18ZM690.39,1114.51v1.55c0,2.31-.37,4.2-1.09,5.6-.67,1.29-2.79,1.95-6.3,1.95h-9.64v-18.32h10.08c1.87,0,3.44.25,4.66.74,1.12.45,1.78,1.41,2.02,2.93.14.89.23,1.81.25,2.73.02.94.03,1.89.03,2.83Z" fill="#ff3118"/><polygon points="724.37 1116.61 741.9 1116.61 741.9 1111.6 724.37 1111.6 724.37 1105.12 742.79 1105.12 742.79 1099.56 716.43 1099.56 716.43 1129.26 742.96 1129.26 742.96 1123.74 724.37 1123.74 724.37 1116.61" fill="#ff3118"/><polygon points="776.51 1122.85 766.82 1099.56 758.4 1099.56 770.74 1129.26 782.22 1129.26 794.68 1099.56 786.2 1099.56 776.51 1122.85" fill="#ff3118"/><polygon points="817.78 1116.61 835.31 1116.61 835.31 1111.6 817.78 1111.6 817.78 1105.12 836.2 1105.12 836.2 1099.56 809.83 1099.56 809.83 1129.26 836.37 1129.26 836.37 1123.74 817.78 1123.74 817.78 1116.61" fill="#ff3118"/><polygon points="864.14 1099.56 855.86 1099.56 855.86 1129.26 881.45 1129.26 881.45 1123.44 864.14 1123.44 864.14 1099.56" fill="#ff3118"/><path d="M930.22,1108.54c-.28-4.29-2.22-6.94-5.78-7.87-3.36-.88-7.28-1.33-11.63-1.33-7.44,0-11.78,1.35-13.29,4.13-1.43,2.64-2.16,6.44-2.16,11.29v1.31c-.04.28-.06.56-.06.85v.78c0,4.75,1.27,7.95,3.76,9.5,2.46,1.53,6.46,2.27,12.25,2.27,8.28,0,13.1-1.16,14.72-3.55,1.58-2.33,2.35-6.12,2.35-11.58v-1.94c0-.66,0-1.31-.03-1.95-.02-.64-.07-1.29-.14-1.91ZM905.75,1119.68c-.04-.42-.06-.84-.08-1.25-.02-.41-.03-.82-.03-1.25v-3.68c0-.34.02-.66.06-1.01v-.39c0-2.86.37-4.79,1.1-5.74.39-.51,1.96-1.38,8.03-1.38,4.21,0,5.69.7,6.2,1.29.76.88,1.14,2.61,1.14,5.14v3.46c0,1.14-.04,2.3-.11,3.48-.1,2.45-.78,3.98-2,4.54-1.35.61-3.65.92-6.85.92-2.43,0-4.29-.22-5.52-.66-1.08-.39-1.74-1.56-1.94-3.49Z" fill="#ff3118"/><path d="M975.29,1101.26c-2.45-1.13-6.25-1.7-11.3-1.7h-15.45v29.7h7.94v-9.29h10.56c.23,0,.45-.02.59-.04,1.52,0,3-.11,4.42-.33,1.47-.23,2.82-.77,3.99-1.61,1.08-.74,1.85-1.64,2.28-2.67.41-.99.66-2.03.74-3.07.04-.41.07-.82.09-1.23.02-.41.03-.8.03-1.18,0-4.49-1.3-7.38-3.87-8.56ZM970.89,1109.95c0,2.06-.45,3.29-1.34,3.64-1.04.42-2.87.63-5.44.63h-7.62v-9.02h8.35c3.4,0,4.65.49,5.09.9.63.58.96,1.91.96,3.85Z" fill="#ff3118"/><polygon points="1019.38 1120.42 1009.5 1099.56 997.15 1099.56 997.15 1129.26 1005.16 1129.26 1004.85 1106.9 1015.93 1129.26 1023 1129.26 1033.92 1106.79 1033.71 1129.26 1041.72 1129.26 1041.72 1099.56 1029.14 1099.56 1019.38 1120.42" fill="#ff3118"/><polygon points="1068.88 1116.61 1086.41 1116.61 1086.41 1111.6 1068.88 1111.6 1068.88 1105.12 1087.3 1105.12 1087.3 1099.56 1060.93 1099.56 1060.93 1129.26 1087.47 1129.26 1087.47 1123.74 1068.88 1123.74 1068.88 1116.61" fill="#ff3118"/><polygon points="1134.73 1122.72 1119.5 1099.56 1106.91 1099.56 1106.91 1129.26 1114.86 1129.26 1114.64 1106.09 1129.88 1129.26 1142.52 1129.26 1142.52 1099.56 1134.51 1099.56 1134.73 1122.72" fill="#ff3118"/><polygon points="1159.38 1105.42 1170.19 1105.42 1170.19 1129.26 1178.41 1129.26 1178.41 1105.42 1189.39 1105.42 1189.39 1099.56 1159.38 1099.56 1159.38 1105.42" fill="#ff3118"/><path d="M1231.23,1112.63c-2.82-.71-6.12-1.11-9.81-1.2-.44,0-.89,0-1.36-.02s-.93-.04-1.44-.06c-.17,0-.33,0-.49-.02-.18-.01-.37-.01-.55-.02-1.83-.08-3.09-.36-3.73-.83-.59-.43-.89-1.29-.89-2.54,0-.12,0-.25.02-.39.02-.15.03-.32.03-.49.1-.36.24-.7.43-1.01.18-.29.44-.53.78-.71.41-.18.89-.32,1.45-.41.57-.1,1.16-.16,1.75-.19.36-.03.73-.04,1.11-.04h3.05c2.1,0,3.57.26,4.38.78.74.47,1.11,1.48,1.11,2.98v.5h7.83v-1.62c0-3.94-1.56-6.29-4.65-6.98-2.86-.64-6.27-.96-10.13-.96-.98,0-1.96.02-2.96.04-.99.03-1.98.07-2.96.13-3.35.21-5.78,1.01-7.2,2.39-1.44,1.39-2.17,3.39-2.17,5.94,0,4,1.23,6.48,3.66,7.38,2.26.83,5.43,1.36,9.37,1.55.2.03.41.05.63.07.22.01.42.02.59.02.42.03.83.04,1.21.04h1.11c1.96.03,3.59.21,4.83.54.39.1,1.56.42,1.56,2.87,0,1.56-.4,2.52-1.24,2.93-.93.46-2.48.7-4.59.7h-2.69c-.89,0-1.78-.01-2.68-.04-1.29-.02-2.93-.24-3.39-1.18-.43-.87-.65-1.94-.65-3.18v-.5h-7.78v.97c-.04.12-.06.24-.06.37v.28c0,4.19,1.49,6.72,4.43,7.52,2.74.74,6.31,1.12,10.63,1.12h1.76c.59,0,1.18-.02,1.79-.04.56-.03,1.12-.05,1.69-.06.58-.01,1.17-.04,1.79-.07,3.86-.3,6.27-1.28,7.38-3,1.06-1.64,1.59-3.75,1.59-6.27,0-4.05-1.54-6.5-4.58-7.26Z" fill="#ff3118"/></g></svg>